<?xml version="1.0" encoding="iso-8859-1"?>
<!-- Generator: Adobe Illustrator 19.0.0, SVG Export Plug-In . SVG Version: 6.00 Build 0)  -->
<svg version="1.1" id="Capa_1" xmlns="http://www.w3.org/2000/svg" xmlns:xlink="http://www.w3.org/1999/xlink" x="0px" y="0px"
	 viewBox="0 0 480.058 480.058" style="enable-background:new 0 0 480.058 480.058;" xml:space="preserve">
<linearGradient id="SVGID_1_" gradientUnits="userSpaceOnUse" x1="-5.84" y1="570.737" x2="-5.84" y2="634.286" gradientTransform="matrix(8 0 0 -8 454.5672 5049.1982)">
	<stop  offset="0" style="stop-color:#006DF0"/>
	<stop  offset="1" style="stop-color:#00E7F0"/>
</linearGradient>
<path style="fill:url(#SVGID_1_);" d="M439.966,264.87c-0.92-66.955-35.408-128.972-91.8-165.08
	c-3.643-2.5-8.623-1.574-11.123,2.068c-2.5,3.643-1.574,8.623,2.068,11.123c0.13,0.089,0.263,0.175,0.399,0.257
	c50.526,32.33,82.046,87.327,84.4,147.264c-35.074-4.378-67.056,20.506-71.434,55.58c-3.764,30.157,14.199,58.803,42.986,68.548
	h0.04c6.619,2.256,13.567,3.403,20.56,3.392c35.275,0.068,63.927-28.473,63.996-63.748
	C480.108,298.134,464.226,274.602,439.966,264.87L439.966,264.87z M416.062,372.022c-5.249,0.016-10.464-0.841-15.432-2.536
	c-25.109-8.503-38.571-35.751-30.068-60.86c6.604-19.502,24.91-32.62,45.5-32.604c4.631-0.009,9.238,0.665,13.672,2
	c25.405,7.573,39.861,34.306,32.289,59.711C455.963,358.063,437.276,372.005,416.062,372.022z"/>
<g>
	
		<linearGradient id="SVGID_2_" gradientUnits="userSpaceOnUse" x1="-34.0028" y1="570.737" x2="-34.0028" y2="634.286" gradientTransform="matrix(8 0 0 -8 454.5672 5049.1982)">
		<stop  offset="0" style="stop-color:#006DF0"/>
		<stop  offset="1" style="stop-color:#00E7F0"/>
	</linearGradient>
	<path style="fill:url(#SVGID_2_);" d="M352.174,413.918c-32.083,24.834-71.54,38.245-112.112,38.104
		c-57.032-0.012-110.835-26.47-145.664-71.632c2.673-1.443,5.237-3.079,7.672-4.896c0.664-0.488,1.248-1.056,1.888-1.6
		c1.788-1.403,3.5-2.902,5.128-4.488c0.8-0.8,1.52-1.656,2.272-2.488c1.32-1.456,2.592-2.928,3.768-4.496
		c0.736-0.968,1.4-1.968,2.08-2.976c1.04-1.6,2.024-3.2,2.928-4.8c0.592-1.08,1.152-2.16,1.68-3.272
		c0.8-1.736,1.528-3.512,2.192-5.312c0.416-1.12,0.848-2.224,1.2-3.368c0.608-2.008,1.064-4.064,1.48-6.144
		c0.2-1.008,0.472-1.984,0.624-3.008c5.395-34.793-18.437-67.373-53.231-72.768c-3.314-0.514-6.664-0.765-10.017-0.752
		c-6.153-0.011-12.274,0.881-18.168,2.648h-0.048h-0.048c-33.884,10.062-53.195,45.687-43.133,79.571
		c8.069,27.173,33.051,45.801,61.397,45.781c4.968-0.059,9.911-0.704,14.728-1.92c65.112,89.099,190.125,108.545,279.225,43.433
		c1.321-0.965,2.63-1.947,3.927-2.945c3.513-2.68,4.188-7.7,1.509-11.213c-2.68-3.513-7.7-4.188-11.213-1.509
		C352.216,413.885,352.195,413.901,352.174,413.918L352.174,413.918z M16.062,324.022c0.058-21.249,14.036-39.948,34.4-46.016
		c4.411-1.325,8.994-1.993,13.6-1.984c26.499,0.026,47.974,21.501,48,48c-0.001,2.542-0.202,5.081-0.6,7.592
		c-2.814,17.585-15.132,32.167-32,37.88c-4.957,1.691-10.162,2.546-15.4,2.528C37.563,371.996,16.088,350.521,16.062,324.022
		L16.062,324.022z"/>
	
		<linearGradient id="SVGID_3_" gradientUnits="userSpaceOnUse" x1="-34.936" y1="570.737" x2="-34.936" y2="634.286" gradientTransform="matrix(8 0 0 -8 454.5672 5049.1982)">
		<stop  offset="0" style="stop-color:#006DF0"/>
		<stop  offset="1" style="stop-color:#00E7F0"/>
	</linearGradient>
	<path style="fill:url(#SVGID_3_);" d="M52.102,227.87c0.65,0.171,1.32,0.257,1.992,0.256c3.65-0.002,6.835-2.473,7.744-6.008
		c15.461-59.28,59.267-107.061,116.984-127.6c0.064,0.216,0.184,0.416,0.248,0.632c0.894,2.839,1.987,5.611,3.272,8.296
		c0.216,0.456,0.448,0.904,0.68,1.36c1.337,2.662,2.861,5.225,4.56,7.672c0.216,0.312,0.456,0.6,0.68,0.904
		c1.811,2.542,3.806,4.948,5.968,7.2c2.18,2.214,4.517,4.267,6.992,6.144c0.288,0.224,0.56,0.456,0.848,0.672
		c2.389,1.757,4.896,3.347,7.504,4.76c0.44,0.24,0.88,0.488,1.32,0.712c2.611,1.346,5.311,2.514,8.08,3.496l1.456,0.48
		c2.877,0.945,5.818,1.683,8.8,2.208c0.376,0.072,0.76,0.104,1.136,0.16c8.966,1.458,18.143,0.911,26.872-1.6
		c24.305-6.847,42.343-27.301,46.096-52.272v-0.08c0.475-3.057,0.719-6.146,0.728-9.24c0-35.346-28.654-64-64-64s-64,28.654-64,64
		c0,0.84,0.16,1.728,0.2,2.568C112.243,100.293,63.426,152.729,46.35,218.134C45.252,222.411,47.826,226.768,52.102,227.87
		L52.102,227.87z M240.062,28.022c26.499,0.026,47.974,21.501,48,48c-0.007,2.35-0.194,4.695-0.56,7.016
		c-3.527,23.5-23.677,40.908-47.44,40.984c-2.917,0.002-5.828-0.266-8.696-0.8c-20.165-3.793-35.717-19.939-38.752-40.232
		c-0.362-2.305-0.546-4.635-0.552-6.968C192.088,49.523,213.563,28.048,240.062,28.022z"/>
</g>
<g>
</g>
<g>
</g>
<g>
</g>
<g>
</g>
<g>
</g>
<g>
</g>
<g>
</g>
<g>
</g>
<g>
</g>
<g>
</g>
<g>
</g>
<g>
</g>
<g>
</g>
<g>
</g>
<g>
</g>
</svg>
