<?xml version="1.0" encoding="iso-8859-1"?>
<!-- Generator: Adobe Illustrator 19.0.0, SVG Export Plug-In . SVG Version: 6.00 Build 0)  -->
<svg version="1.1" id="Capa_1" xmlns="http://www.w3.org/2000/svg" xmlns:xlink="http://www.w3.org/1999/xlink" x="0px" y="0px"
	 viewBox="0 0 480 480" style="enable-background:new 0 0 480 480;" xml:space="preserve">
<linearGradient id="SVGID_1_" gradientUnits="userSpaceOnUse" x1="-26.875" y1="557.345" x2="-26.875" y2="619.515" gradientTransform="matrix(8 0 0 -8 455.0001 4941)">
	<stop  offset="0" style="stop-color:#006DF0"/>
	<stop  offset="1" style="stop-color:#00E7F0"/>
</linearGradient>
<path style="fill:url(#SVGID_1_);" d="M376,72V24c0-13.255-10.745-24-24-24H128c-13.255,0-24,10.745-24,24v48
	c0,13.255,10.745,24,24,24v19.376c-14.586,6.332-24.017,20.723-24,36.624v288c0.026,22.08,17.92,39.974,40,40h192
	c22.08-0.026,39.974-17.92,40-40V152c0.023-15.907-9.409-30.306-24-36.64V96C365.255,96,376,85.255,376,72z M120,184h112v224H120
	V184z M360,152v288c0,13.255-10.745,24-24,24H144c-13.255,0-24-10.745-24-24v-16h128V168H120v-16
	c-0.006-11.005,7.488-20.598,18.168-23.256c1.9-0.519,3.863-0.77,5.832-0.744h192c1.923-0.018,3.839,0.227,5.696,0.728l0.28,0.056
	h0.112C352.666,131.514,360.043,141.075,360,152z M336,112H144V96h192V112z M128,80c-4.418,0-8-3.582-8-8V24c0-4.418,3.582-8,8-8
	h224c4.418,0,8,3.582,8,8v48c0,4.418-3.582,8-8,8H128z"/>
<g>
</g>
<g>
</g>
<g>
</g>
<g>
</g>
<g>
</g>
<g>
</g>
<g>
</g>
<g>
</g>
<g>
</g>
<g>
</g>
<g>
</g>
<g>
</g>
<g>
</g>
<g>
</g>
<g>
</g>
</svg>
