<svg height="480pt" viewBox="-24 0 480 480" width="480pt" xmlns="http://www.w3.org/2000/svg" xmlns:xlink="http://www.w3.org/1999/xlink"><linearGradient id="a" gradientUnits="userSpaceOnUse" x1="216" x2="216" y1="527.112" y2="-73.176"><stop offset="0" stop-color="#12c2e9"/><stop offset=".5" stop-color="#c471ed"/><stop offset="1" stop-color="#f64f59"/></linearGradient><path d="m8 480h352c22.082031-.027344 39.972656-17.917969 40-40v-168h24c4.417969 0 8-3.582031 8-8v-48c0-4.417969-3.582031-8-8-8h-24v-48h24c4.417969 0 8-3.582031 8-8v-96c0-4.417969-3.582031-8-8-8h-24v-8c-.027344-22.082031-17.917969-39.9726562-40-40h-352c-4.417969 0-8 3.582031-8 8v464c0 4.417969 3.582031 8 8 8zm392-416h16v16h-16zm0 32h16v16h-16zm0 32h16v16h-16zm16 96v32h-79.046875c7.613281-9.238281 12.789063-20.242188 15.046875-32zm-352-208h296c13.253906 0 24 10.746094 24 24v168h-35.390625c-4.847656-11.234375-14.601563-19.609375-26.4375-22.707031-11.839844-3.097657-24.441406-.570313-34.171875 6.851562-12.074219-9.191406-28.320312-10.730469-41.902344-3.96875-13.585937 6.761719-22.152344 20.648438-22.097656 35.824219 0 18.398438 41.144531 72 64 72 10.160156 0 23.929688-10.617188 36.097656-24h59.902344v168c0 13.253906-10.746094 24-24 24h-296zm272 208c0 7.199219-9.480469 21.175781-20.214844 33.367188-1.316406.800781-2.371094 1.960937-3.042968 3.34375-9.894532 10.703124-20.191407 19.289062-24.742188 19.289062-10.03125 0-48-41.601562-48-56 0-13.253906 10.746094-24 24-24 6.917969.003906 13.488281 3.039062 17.976562 8.304688 1.5625 1.660156 3.742188 2.601562 6.023438 2.601562s4.460938-.941406 6.023438-2.601562c4.488281-5.265626 11.058593-8.300782 17.976562-8.304688 13.253906 0 24 10.746094 24 24zm-320-208h32v448h-32zm0 0" fill="url(#a)"/></svg>