<?xml version="1.0"?>
<svg xmlns="http://www.w3.org/2000/svg" xmlns:xlink="http://www.w3.org/1999/xlink" id="Layer_1" data-name="Layer 1" viewBox="0 0 512 512" width="512" height="512"><defs><linearGradient id="linear-gradient" x1="264" y1="486.781" x2="264" y2="21.579" gradientUnits="userSpaceOnUse"><stop offset="0.322" stop-color="#a163f5"/><stop offset="0.466" stop-color="#b074ee"/><stop offset="0.752" stop-color="#d8a1dd"/><stop offset="0.898" stop-color="#efbad3"/></linearGradient><linearGradient id="linear-gradient-2" x1="263.5" y1="486.781" x2="263.5" y2="21.579" xlink:href="#linear-gradient"/><linearGradient id="linear-gradient-3" x1="263.5" y1="486.781" x2="263.5" y2="21.579" xlink:href="#linear-gradient"/><linearGradient id="linear-gradient-4" x1="255.5" y1="486.781" x2="255.5" y2="21.579" xlink:href="#linear-gradient"/></defs><title>diary book</title><path d="M353,114a11,11,0,0,0-11-11H186a11,11,0,0,0-11,11v70a11,11,0,0,0,11,11H342a11,11,0,0,0,11-11Zm-164,3H339v64H189Z" style="fill:url(#linear-gradient)"/><path d="M332,373H195a7,7,0,0,0,0,14H332a7,7,0,0,0,0-14Z" style="fill:url(#linear-gradient-2)"/><path d="M312,403H215a7,7,0,0,0,0,14h97a7,7,0,0,0,0-14Z" style="fill:url(#linear-gradient-3)"/><path d="M404.969,67.418C404.312,41.8,383.477,21,357.94,21H108a7.263,7.263,0,0,0-7,7.3V59H89a7,7,0,0,0,0,14h12V97H89a7,7,0,0,0,0,14h12v21H89a7,7,0,0,0,0,14h12v22H89a7,7,0,0,0,0,14h12v23H89a7,7,0,0,0,0,14h12v22H89a7,7,0,0,0,0,14h12v21H89a7,7,0,0,0,0,14h12v24H89a7,7,0,0,0,0,14h12v22H89a7,7,0,0,0,0,14h12v22H89a7,7,0,0,0,0,14h12v22H89a7,7,0,0,0,0,14h12v30.944c0,.036,0,.071.006.107a6.966,6.966,0,0,0,1.145,4.017l15,22.794A6.988,6.988,0,0,0,123,497H382.15c25.833,0,46.85-21.28,46.85-47.474V109.311C429,91.561,419.721,75.556,404.969,67.418ZM128,422H115V400h13a7,7,0,0,0,0-14H115V364h13a7,7,0,0,0,0-14H115V328h13a7,7,0,0,0,0-14H115V290h13a7,7,0,0,0,0-14H115V255h13a7,7,0,0,0,0-14H115V219h13a7,7,0,0,0,0-14H115V182h13a7,7,0,0,0,0-14H115V146h13a7,7,0,0,0,0-14H115V111h13a7,7,0,0,0,0-14H115V73h13a7,7,0,0,0,0-14H115V35H357.94C376.169,35,391,50.333,391,68.809v.63a6.965,6.965,0,0,0,0,4.692V426.238C391,444.824,376.169,460,357.94,460H115V436h13a7,7,0,0,0,0-14Zm287,27.526c0,18.475-14.736,33.5-32.85,33.5l-255.376.026L120.8,474H357.94c25.949,0,47.06-21.457,47.06-47.762V84.892a34.041,34.041,0,0,1,10,24.419Z" style="fill:url(#linear-gradient-4)"/></svg>
