<svg height="100%" viewBox="0 0 480.7258 480" width="100%" xmlns="http://www.w3.org/2000/svg" xmlns:xlink="http://www.w3.org/1999/xlink"><linearGradient id="a" gradientUnits="userSpaceOnUse" x1="240.644944" x2="240.644944" y1="558.442874" y2="-97.557126"><stop offset="0" stop-color="#12c2e9"/><stop offset=".5" stop-color="#c471ed"/><stop offset="1" stop-color="#f64f59"/></linearGradient><path d="m448.644531 64.441406c15.882813.023438 29.378907-11.59375 31.730469-27.300781 2.347656-15.703125-7.164062-30.761719-22.355469-35.386719-15.191406-4.628906-31.480469 2.570313-38.285156 16.921875-6.804687 14.347657-2.070313 31.515625 11.125 40.351563l-12.992187 30.617187c-54.65625-37.484375-127.851563-32.746093-177.222657 11.46875-42.324219-37.855469-102.949219-47.304687-154.785156-24.121093-51.839844 23.183593-85.214844 74.664062-85.214844 131.449218 0 46.546875 20.800781 95.203125 51.199219 138.304688l-15.597656 22.058594c-1.191406-.191407-2.394532-.3125-3.601563-.363282-15.878906-.171875-29.527343 11.230469-32.1875 26.886719-2.660156 15.660156 6.460938 30.925781 21.507813 36.007813 15.046875 5.082031 31.554687-1.53125 38.929687-15.597657 7.378907-14.0625 3.4375-31.402343-9.296875-40.894531l10.214844-14.472656c53.074219 68.632812 128.992188 120.070312 178.832031 120.070312 83.433594 0 240-144.09375 240-272-.023437-41.699218-18.171875-81.332031-49.726562-108.589844l15.136719-35.671874c.871093.070312 1.703124.261718 2.589843.261718zm-416 352c-8.835937 0-16-7.160156-16-16 0-8.835937 7.164063-16 16-16 8.835938 0 16 7.164063 16 16 0 8.839844-7.164062 16-16 16zm28.800781-83.320312c-26.640624-38.644532-44.800781-82.03125-44.800781-124.679688.003907-51.726562 31.144531-98.367187 78.917969-118.203125 47.777344-19.835937 102.792969-8.964843 139.433594 27.546875 3.121094 3.113282 8.175781 3.113282 11.296875 0 44.367187-44.347656 114.394531-49.855468 165.152343-12.992187l-82.671874 194.851562c-6.914063-8.175781-17.492188-12.300781-28.113282-10.972656-10.625 1.332031-19.855468 7.9375-24.542968 17.5625l-83.886719-69.886719c-1.996094-16.164062-15.871094-28.214844-32.152344-27.921875-16.285156.289063-29.71875 12.824219-31.136719 29.050781zm259.199219-12.679688c0 8.839844-7.164062 16-16 16-8.835937 0-16-7.160156-16-16 0-8.835937 7.164063-16 16-16 8.835938 0 16 7.164063 16 16zm-144-80c0 8.839844-7.164062 16-16 16-8.835937 0-16-7.160156-16-16 0-8.835937 7.164063-16 16-16 8.835938 0 16 7.164063 16 16zm288-32c0 124.800782-155.429687 256-224 256-42.335937 0-117.734375-50.023437-169.273437-117.65625l62.617187-88.703125c6.273438 9.5625 17.191407 15.023438 28.601563 14.3125 11.414062-.714843 21.566406-7.492187 26.597656-17.757812l83.890625 69.902343c2.046875 16.296876 16.15625 28.363282 32.574219 27.855469 16.417968-.507812 29.753906-13.421875 30.792968-29.816406l87.863282-207.152344c25.71875 24.101563 40.320312 57.769531 40.335937 93.015625zm-32-176c0-8.835937 7.164063-16 16-16 8.835938 0 16 7.164063 16 16 0 8.839844-7.164062 16-16 16-8.835937 0-16-7.160156-16-16zm0 0" fill="url(#a)"/></svg>