<svg height="100%" viewBox="0 0 480 480.00573" width="100%" xmlns="http://www.w3.org/2000/svg" xmlns:xlink="http://www.w3.org/1999/xlink"><linearGradient id="a"><stop offset="0" stop-color="#12c2e9"/><stop offset=".5" stop-color="#c471ed"/><stop offset="1" stop-color="#f64f59"/></linearGradient><linearGradient id="b" gradientUnits="userSpaceOnUse" x1="240.002865" x2="240.002865" xlink:href="#a" y1="571.093729" y2="-71.778271"/><linearGradient id="c" gradientUnits="userSpaceOnUse" x1="104.002865" x2="104.002865" xlink:href="#a" y1="568.957729" y2="-71.066271"/><linearGradient id="d" gradientUnits="userSpaceOnUse" x1="140.002865" x2="140.002865" xlink:href="#a" y1="563.989729" y2="-67.266271"/><linearGradient id="e" gradientUnits="userSpaceOnUse" x1="140.002865" x2="140.002865" xlink:href="#a" y1="564.621729" y2="-66.634271"/><linearGradient id="f" gradientUnits="userSpaceOnUse" x1="140.002865" x2="140.002865" xlink:href="#a" y1="565.261729" y2="-66.002271"/><linearGradient id="g" gradientUnits="userSpaceOnUse" x1="140.002865" x2="140.002865" xlink:href="#a" y1="565.893729" y2="-65.370271"/><linearGradient id="h" gradientUnits="userSpaceOnUse" x1="140.002865" x2="140.002865" xlink:href="#a" y1="566.525729" y2="-64.738271"/><linearGradient id="i" gradientUnits="userSpaceOnUse" x1="140.002865" x2="140.002865" xlink:href="#a" y1="567.157729" y2="-64.098271"/><linearGradient id="j" gradientUnits="userSpaceOnUse" x1="120.002865" x2="120.002865" xlink:href="#a" y1="569.197729" y2="-66.898271"/><linearGradient id="k" gradientUnits="userSpaceOnUse" x1="304.002865" x2="304.002865" xlink:href="#a" y1="569.581729" y2="-70.450271"/><linearGradient id="l" gradientUnits="userSpaceOnUse" x1="340.002865" x2="340.002865" xlink:href="#a" y1="564.597729" y2="-66.658271"/><linearGradient id="m" gradientUnits="userSpaceOnUse" x1="340.002865" x2="340.002865" xlink:href="#a" y1="565.237729" y2="-66.026271"/><linearGradient id="n" gradientUnits="userSpaceOnUse" x1="340.002865" x2="340.002865" xlink:href="#a" y1="565.869729" y2="-65.394271"/><linearGradient id="o" gradientUnits="userSpaceOnUse" x1="340.002865" x2="340.002865" xlink:href="#a" y1="566.501729" y2="-64.762271"/><linearGradient id="p" gradientUnits="userSpaceOnUse" x1="340.002865" x2="340.002865" xlink:href="#a" y1="567.133729" y2="-64.130271"/><linearGradient id="q" gradientUnits="userSpaceOnUse" x1="340.002865" x2="340.002865" xlink:href="#a" y1="567.765729" y2="-63.490271"/><linearGradient id="r" gradientUnits="userSpaceOnUse" x1="320.002865" x2="320.002865" xlink:href="#a" y1="569.813729" y2="-66.290271"/><path d="m472.003906 96.003906h-24v-24c0-4.417968-3.582031-8-8-8h-117.527344c3.070313-5.40625 4.957032-11.40625 5.527344-17.597656-.480468-26.054688-21.949218-46.804688-48-46.40234375-15.945312-.07031245-30.902344 7.71093775-40 20.80078175-9.097656-13.089844-24.058594-20.8710942-40-20.80078175-26.054687-.40234425-47.523437 20.34765575-48 46.40234375.570313 6.191406 2.453125 12.191406 5.527344 17.597656h-117.527344c-4.417968 0-8 3.582032-8 8v24h-24c-4.417968 0-7.99999975 3.582032-7.99999975 8v368c0 4.421875 3.58203175 8 7.99999975 8h464c4.417969 0 8-3.578125 8-8v-368c0-4.417968-3.582031-8-8-8zm-40-16v352h-184v-289.832031c19.261719-7.199219 47.734375-36.414063 65.03125-62.167969zm-232-64c17.21875-.410156 31.527344 13.183594 32 30.402344 0 4.417969 3.582032 8 8 8 4.417969 0 8-3.582031 8-8 .851563-17.050781 14.925782-30.441406 32-30.441406 17.070313 0 31.144532 13.390625 32 30.441406 0 18.304688-55.847656 81.597656-72 81.597656s-72-63.292968-72-81.597656c.46875-17.21875 14.777344-30.8125 32-30.402344zm-152 64h118.96875c17.292969 25.753906 45.765625 54.976563 65.03125 62.167969v289.832031h-184zm416 384h-448v-352h16v328c0 4.421875 3.582032 8 8 8h400c4.417969 0 8-3.578125 8-8v-328h16zm0 0" fill="url(#b)"/><path d="m88.003906 160.003906h32c4.417969 0 8-3.578125 8-8 0-4.417968-3.582031-8-8-8h-32c-4.417968 0-8 3.582032-8 8 0 4.421875 3.582032 8 8 8zm0 0" fill="url(#c)"/><path d="m192.003906 176.003906h-104c-4.417968 0-8 3.582032-8 8 0 4.421875 3.582032 8 8 8h104c4.417969 0 8-3.578125 8-8 0-4.417968-3.582031-8-8-8zm0 0" fill="url(#d)"/><path d="m192.003906 208.003906h-104c-4.417968 0-8 3.582032-8 8 0 4.421875 3.582032 8 8 8h104c4.417969 0 8-3.578125 8-8 0-4.417968-3.582031-8-8-8zm0 0" fill="url(#e)"/><path d="m192.003906 240.003906h-104c-4.417968 0-8 3.582032-8 8 0 4.421875 3.582032 8 8 8h104c4.417969 0 8-3.578125 8-8 0-4.417968-3.582031-8-8-8zm0 0" fill="url(#f)"/><path d="m192.003906 272.003906h-104c-4.417968 0-8 3.582032-8 8 0 4.421875 3.582032 8 8 8h104c4.417969 0 8-3.578125 8-8 0-4.417968-3.582031-8-8-8zm0 0" fill="url(#g)"/><path d="m192.003906 304.003906h-104c-4.417968 0-8 3.582032-8 8 0 4.421875 3.582032 8 8 8h104c4.417969 0 8-3.578125 8-8 0-4.417968-3.582031-8-8-8zm0 0" fill="url(#h)"/><path d="m192.003906 336.003906h-104c-4.417968 0-8 3.582032-8 8 0 4.421875 3.582032 8 8 8h104c4.417969 0 8-3.578125 8-8 0-4.417968-3.582031-8-8-8zm0 0" fill="url(#i)"/><path d="m152.003906 368.003906h-64c-4.417968 0-8 3.582032-8 8 0 4.421875 3.582032 8 8 8h64c4.417969 0 8-3.578125 8-8 0-4.417968-3.582031-8-8-8zm0 0" fill="url(#j)"/><path d="m288.003906 160.003906h32c4.417969 0 8-3.578125 8-8 0-4.417968-3.582031-8-8-8h-32c-4.417968 0-8 3.582032-8 8 0 4.421875 3.582032 8 8 8zm0 0" fill="url(#k)"/><path d="m280.003906 184.003906c0 4.421875 3.582032 8 8 8h104c4.417969 0 8-3.578125 8-8 0-4.417968-3.582031-8-8-8h-104c-4.417968 0-8 3.582032-8 8zm0 0" fill="url(#l)"/><path d="m392.003906 208.003906h-104c-4.417968 0-8 3.582032-8 8 0 4.421875 3.582032 8 8 8h104c4.417969 0 8-3.578125 8-8 0-4.417968-3.582031-8-8-8zm0 0" fill="url(#m)"/><path d="m392.003906 240.003906h-104c-4.417968 0-8 3.582032-8 8 0 4.421875 3.582032 8 8 8h104c4.417969 0 8-3.578125 8-8 0-4.417968-3.582031-8-8-8zm0 0" fill="url(#n)"/><path d="m392.003906 272.003906h-104c-4.417968 0-8 3.582032-8 8 0 4.421875 3.582032 8 8 8h104c4.417969 0 8-3.578125 8-8 0-4.417968-3.582031-8-8-8zm0 0" fill="url(#o)"/><path d="m392.003906 304.003906h-104c-4.417968 0-8 3.582032-8 8 0 4.421875 3.582032 8 8 8h104c4.417969 0 8-3.578125 8-8 0-4.417968-3.582031-8-8-8zm0 0" fill="url(#p)"/><path d="m392.003906 336.003906h-104c-4.417968 0-8 3.582032-8 8 0 4.421875 3.582032 8 8 8h104c4.417969 0 8-3.578125 8-8 0-4.417968-3.582031-8-8-8zm0 0" fill="url(#q)"/><path d="m352.003906 368.003906h-64c-4.417968 0-8 3.582032-8 8 0 4.421875 3.582032 8 8 8h64c4.417969 0 8-3.578125 8-8 0-4.417968-3.582031-8-8-8zm0 0" fill="url(#r)"/></svg>