<svg height="480pt" viewBox="0 -42 480.00007 480" width="480pt" xmlns="http://www.w3.org/2000/svg" xmlns:xlink="http://www.w3.org/1999/xlink"><linearGradient id="a"><stop offset="0" stop-color="#006df0"/><stop offset="1" stop-color="#00e7f0"/></linearGradient><linearGradient id="b" gradientUnits="userSpaceOnUse" x1="240" x2="240" xlink:href="#a" y1="-19.783965" y2="396.360035"/><linearGradient id="c" gradientUnits="userSpaceOnUse" x1="72" x2="72" xlink:href="#a" y1="-19.783965" y2="396.360035"/><linearGradient id="d" gradientUnits="userSpaceOnUse" x1="408" x2="408" xlink:href="#a" y1="-19.783965" y2="396.360035"/><path d="m240 144c39.765625 0 72-32.234375 72-72s-32.234375-72-72-72-72 32.234375-72 72c.042969 39.746094 32.253906 71.957031 72 72zm0-128c30.929688 0 56 25.070312 56 56s-25.070312 56-56 56-56-25.070312-56-56c.035156-30.914062 25.085938-55.964844 56-56zm0 0" fill="url(#b)"/><path d="m72 120c22.089844 0 40-17.910156 40-40s-17.910156-40-40-40-40 17.910156-40 40c.027344 22.082031 17.917969 39.972656 40 40zm0-64c13.253906 0 24 10.746094 24 24s-10.746094 24-24 24-24-10.746094-24-24 10.746094-24 24-24zm0 0" fill="url(#c)"/><path d="m408 120c22.089844 0 40-17.910156 40-40s-17.910156-40-40-40-40 17.910156-40 40c.027344 22.082031 17.917969 39.972656 40 40zm0-64c13.253906 0 24 10.746094 24 24s-10.746094 24-24 24-24-10.746094-24-24 10.746094-24 24-24zm0 0" fill="url(#d)"/><path d="m440 120c-1.730469 0-3.414062.5625-4.800781 1.601562l-27.199219 20.398438-27.199219-20.398438c-1.386719-1.039062-3.070312-1.601562-4.800781-1.601562-13.167969-.015625-25.480469 6.515625-32.855469 17.425781-12.136719-6.148437-25.539062-9.375-39.144531-9.425781-2.121094 0-4.15625.84375-5.65625 2.34375l-58.34375 58.34375-58.34375-58.34375c-1.5-1.5-3.535156-2.34375-5.65625-2.34375-13.605469.050781-27.007812 3.277344-39.144531 9.425781-7.375-10.910156-19.6875-17.441406-32.855469-17.425781-1.730469 0-3.414062.5625-4.800781 1.601562l-27.199219 20.398438-27.199219-20.398438c-1.386719-1.039062-3.070312-1.601562-4.800781-1.601562-22.082031.027344-39.9726562 17.917969-40 40v71.121094c.00390625 8.28125 4.265625 15.980468 11.28125 20.382812l48.949219 30.609375c3.820312 2.316407 8.199219 3.539063 12.664062 3.535157 3.707031.007812 7.363281-.84375 10.679688-2.488282l4.425781-2.214844v36.65625c-.003906 9.496094 5.589844 18.101563 14.273438 21.949219l121.503906 53.992188c10.320312 4.601562 22.109375 4.601562 32.429687 0l121.511719-54c8.683594-3.84375 14.28125-12.449219 14.28125-21.941407v-44.679687l5.296875 2.628906c6.738281 3.359375 14.660156 3.359375 21.398437 0l48-24c8.167969-4.035156 13.328126-12.363281 13.304688-21.472656v-70.078125c-.027344-22.082031-17.917969-39.972656-40-40zm-363.574219 148.800781c-2.484375 1.214844-5.417969 1.085938-7.785156-.34375l-48.800781-30.519531c-2.34375-1.484375-3.789063-4.042969-3.839844-6.816406v-71.121094c0-12.289062 9.28125-22.59375 21.503906-23.871094l29.695313 22.269532c2.84375 2.136718 6.757812 2.136718 9.601562 0l29.695313-22.269532c6.660156.679688 12.722656 4.132813 16.703125 9.511719-.535157.398437-1 .871094-1.527344 1.28125-1.238281.972656-2.398437 2-3.601563 3.03125-1.535156 1.335937-3.03125 2.695313-4.460937 4.125-1.105469 1.105469-2.152344 2.234375-3.203125 3.394531-1.34375 1.492188-2.632812 3.03125-3.871094 4.617188-.941406 1.214844-1.863281 2.398437-2.742187 3.695312-1.160157 1.65625-2.226563 3.359375-3.265625 5.085938-.800782 1.296875-1.550782 2.59375-2.261719 3.929687-.960937 1.816407-1.816406 3.679688-2.648437 5.597657-.59375 1.34375-1.21875 2.671874-1.746094 4.058593-.800782 2.007813-1.390625 4.0625-2.015625 6.136719-.398438 1.335938-.855469 2.636719-1.191407 4-.574218 2.316406-.976562 4.695312-1.359374 7.070312-.191407 1.167969-.472657 2.3125-.617188 3.488282-.449219 3.597656-.679688 7.222656-.6875 10.847656v47.054688zm299.574219 48.800781c0 3.179688-1.886719 6.054688-4.800781 7.328126l-121.503907 54.007812c-6.175781 2.757812-13.230468 2.757812-19.40625 0l-121.488281-54.007812c-2.914062-1.273438-4.800781-4.148438-4.800781-7.328126v-101.601562c-.003906-6.152344.773438-12.28125 2.3125-18.238281 8.070312-30.492188 34.984375-52.222657 66.488281-53.691407l61.597657 61.601563c3.125 3.125 8.191406 3.125 11.3125 0l61.601562-61.601563c38.410156 1.832032 68.628906 33.476563 68.6875 71.929688zm88-87.523437c.007812 3.058594-1.722656 5.851563-4.464844 7.203125l-48 24c-2.226562 1.109375-4.851562 1.109375-7.078125 0l-12.457031-6.242188v-39.039062c-.007812-3.640625-.238281-7.277344-.6875-10.886719-.144531-1.183593-.425781-2.328125-.617188-3.496093-.390624-2.402344-.800781-4.746094-1.359374-7.058594-.335938-1.367188-.800782-2.679688-1.199219-4-.617188-2.054688-1.242188-4.101563-2-6.101563-.535157-1.394531-1.167969-2.738281-1.769531-4.097656-.800782-1.863281-1.664063-3.710937-2.625-5.519531-.710938-1.351563-1.503907-2.664063-2.285157-4-1.023437-1.710938-2.089843-3.390625-3.199219-5.023438-.898437-1.28125-1.832031-2.527344-2.792968-3.761718-1.21875-1.597657-2.480469-3.0625-3.808594-4.542969-1.054688-1.175781-2.136719-2.335938-3.257812-3.457031-1.40625-1.414063-2.886719-2.75-4.398438-4.070313-1.191406-1.039063-2.398438-2.082031-3.648438-3.0625-.519531-.410156-.984374-.882813-1.519531-1.28125 3.980469-5.378906 10.039063-8.832031 16.695313-9.511719l29.671875 22.269532c2.84375 2.136718 6.757812 2.136718 9.601562 0l29.695313-22.269532c12.222656 1.277344 21.503906 11.582032 21.503906 23.871094zm0 0" fill="url(#b)"/></svg>