<?xml version="1.0" encoding="iso-8859-1"?>
<!-- Generator: Adobe Illustrator 19.0.0, SVG Export Plug-In . SVG Version: 6.00 Build 0)  -->
<svg version="1.1" id="Capa_1" xmlns="http://www.w3.org/2000/svg" xmlns:xlink="http://www.w3.org/1999/xlink" x="0px" y="0px"
	 viewBox="0 0 480.007 480.007" style="enable-background:new 0 0 480.007 480.007;" xml:space="preserve">
<linearGradient id="SVGID_1_" gradientUnits="userSpaceOnUse" x1="-49.8678" y1="533.3422" x2="-49.8678" y2="590.5222" gradientTransform="matrix(8 0 0 -8 454.9494 4724.7046)">
	<stop  offset="0" style="stop-color:#006DF0"/>
	<stop  offset="1" style="stop-color:#00E7F0"/>
</linearGradient>
<path style="fill:url(#SVGID_1_);" d="M32.007,399.967c0,13.255,10.745,24,24,24s24-10.745,24-24s-10.745-24-24-24l0,0
	C42.752,375.967,32.007,386.712,32.007,399.967z M64.007,399.967c0,4.418-3.582,8-8,8s-8-3.582-8-8s3.582-8,8-8
	S64.007,395.549,64.007,399.967z"/>
<g>
	
		<linearGradient id="SVGID_2_" gradientUnits="userSpaceOnUse" x1="-15.8678" y1="533.3422" x2="-15.8678" y2="590.5222" gradientTransform="matrix(8 0 0 -8 454.9494 4724.7046)">
		<stop  offset="0" style="stop-color:#006DF0"/>
		<stop  offset="1" style="stop-color:#00E7F0"/>
	</linearGradient>
	<path style="fill:url(#SVGID_2_);" d="M328.007,279.967c-13.255,0-24,10.745-24,24s10.745,24,24,24s24-10.745,24-24
		S341.262,279.967,328.007,279.967z M328.007,311.967c-4.418,0-8-3.582-8-8s3.582-8,8-8s8,3.582,8,8
		S332.426,311.967,328.007,311.967z"/>
	
		<linearGradient id="SVGID_3_" gradientUnits="userSpaceOnUse" x1="-26.8682" y1="533.3422" x2="-26.8682" y2="590.5222" gradientTransform="matrix(8 0 0 -8 454.9494 4724.7046)">
		<stop  offset="0" style="stop-color:#006DF0"/>
		<stop  offset="1" style="stop-color:#00E7F0"/>
	</linearGradient>
	<path style="fill:url(#SVGID_3_);" d="M360.007,155.575V39.967h112c4.418,0,8-3.582,8-8s-3.582-8-8-8h-136
		c-23.012,1.013-40.885,20.423-40,43.44v44.56h-168c-13.255,0-24,10.745-24,24s10.745,24,24,24h151.496
		c-23.677,8.044-45.017,21.779-62.144,40H72.007c-4.418,0-8,3.582-8,8v25.472c-9.555,3.378-15.958,12.394-16,22.528v88.64
		c-30.611,4.418-51.844,32.815-47.426,63.426s32.815,51.844,63.426,47.426s51.844-32.815,47.426-63.426
		c-3.547-24.574-22.852-43.879-47.426-47.426v-32.64h112.408c4.354,83.777,75.798,148.162,159.575,143.808
		S484.152,379.977,479.798,296.2C476.235,227.64,427.128,169.993,360.007,155.575z M96.007,399.967c0,22.091-17.909,40-40,40
		s-40-17.909-40-40s17.909-40,40-40C78.088,359.994,95.981,377.887,96.007,399.967z M312.007,67.407
		c-0.866-14.176,9.835-26.41,24-27.44h8v112.864c-0.456-0.048-0.92,0-1.376-0.072c-4.8-0.472-9.6-0.8-14.4-0.8l-0.224,0.008
		c-0.536,0-1.088,0.08-1.6,0.088c-4.267,0.048-8.557,0.275-12.872,0.68c-0.504,0.048-0.992,0-1.496,0.08L312.007,67.407z
		 M128.007,143.967c-4.418,0-8-3.582-8-8s3.582-8,8-8h168v16H128.007z M80.007,215.967h124.08c-0.344,0.48-0.64,0.984-0.976,1.464
		c-0.8,1.192-1.6,2.4-2.4,3.624c-1,1.536-1.984,3.08-2.928,4.656c-0.752,1.264-1.488,2.539-2.208,3.824c-0.456,0.8-0.96,1.6-1.4,2.4
		H80.007L80.007,215.967z M186.143,249.567c-1.067,2.821-2.069,5.667-3.008,8.536c-0.216,0.68-0.464,1.344-0.664,2.024
		c-1.056,3.464-1.96,6.968-2.752,10.488c-0.208,0.896-0.368,1.792-0.552,2.68c-0.587,2.843-1.088,5.699-1.504,8.568
		c-0.136,0.944-0.288,1.88-0.408,2.832c-0.464,3.632-0.8,7.28-1.016,10.968v0.304H64.007v-40c0-4.418,3.582-8,8-8h114.696
		C186.495,248.495,186.351,249.039,186.143,249.567L186.143,249.567z M328.007,439.967c-75.076-0.084-135.916-60.924-136-136
		c-0.045-20.988,4.823-41.695,14.216-60.464c1.355-2.736,2.797-5.424,4.328-8.064c4.604-7.913,10.011-15.331,16.136-22.136
		c20.542-22.954,48.258-38.268,78.624-43.44c3.835-0.64,7.661-1.115,11.48-1.424h0.68c7.328-0.575,14.691-0.554,22.016,0.064
		c3.733,0.325,7.448,0.811,11.144,1.456h0.056c74.011,12.805,123.628,83.184,110.823,157.195
		C450.262,392.162,393.98,439.722,328.007,439.967L328.007,439.967z"/>
	
		<linearGradient id="SVGID_4_" gradientUnits="userSpaceOnUse" x1="-15.8678" y1="533.3422" x2="-15.8678" y2="590.5222" gradientTransform="matrix(8 0 0 -8 454.9494 4724.7046)">
		<stop  offset="0" style="stop-color:#006DF0"/>
		<stop  offset="1" style="stop-color:#00E7F0"/>
	</linearGradient>
	<path style="fill:url(#SVGID_4_);" d="M328.007,199.967c-57.438,0-104,46.562-104,104s46.562,104,104,104s104-46.562,104-104
		C431.941,246.557,385.417,200.033,328.007,199.967z M328.007,391.967c-48.601,0-88-39.399-88-88s39.399-88,88-88s88,39.399,88,88
		C415.95,352.544,376.585,391.91,328.007,391.967z"/>
</g>
<g>
</g>
<g>
</g>
<g>
</g>
<g>
</g>
<g>
</g>
<g>
</g>
<g>
</g>
<g>
</g>
<g>
</g>
<g>
</g>
<g>
</g>
<g>
</g>
<g>
</g>
<g>
</g>
<g>
</g>
</svg>
