<?xml version="1.0" encoding="iso-8859-1"?>
<!-- Generator: Adobe Illustrator 19.0.0, SVG Export Plug-In . SVG Version: 6.00 Build 0)  -->
<svg version="1.1" id="Capa_1" xmlns="http://www.w3.org/2000/svg" xmlns:xlink="http://www.w3.org/1999/xlink" x="0px" y="0px"
	 viewBox="0 0 480 480" style="enable-background:new 0 0 480 480;" xml:space="preserve">
<linearGradient id="SVGID_1_" gradientUnits="userSpaceOnUse" x1="-26.8748" y1="558.575" x2="-26.8748" y2="620.484" gradientTransform="matrix(8 0 0 -8 454.9985 4941)">
	<stop  offset="0" style="stop-color:#006DF0"/>
	<stop  offset="1" style="stop-color:#00E7F0"/>
</linearGradient>
<path style="fill:url(#SVGID_1_);" d="M480,152H328V0H152v152H0v176h152v152h168c48.729,0.149,88.353-39.232,88.502-87.961
	c0.149-48.729-39.232-88.353-87.961-88.502c-48.729-0.149-88.353,39.232-88.502,87.961c-0.088,28.855,13.939,55.931,37.561,72.502
	H168V312H16V168h152V16h144v152h152v144h-9.136c0.72-2.607,1.102-5.296,1.136-8c0-17.673-14.327-32-32-32s-32,14.327-32,32
	s14.327,32,32,32c7.723-0.026,15.17-2.871,20.944-8H480V152z M248,392c0-39.764,32.236-72,72-72s72,32.236,72,72s-32.236,72-72,72
	C280.254,463.956,248.044,431.746,248,392z M424,320c-8.837,0-16-7.163-16-16s7.163-16,16-16s16,7.163,16,16S432.837,320,424,320z"
	/>
<g>
	
		<linearGradient id="SVGID_2_" gradientUnits="userSpaceOnUse" x1="-29.8748" y1="558.575" x2="-29.8748" y2="620.484" gradientTransform="matrix(8 0 0 -8 454.9985 4941)">
		<stop  offset="0" style="stop-color:#006DF0"/>
		<stop  offset="1" style="stop-color:#00E7F0"/>
	</linearGradient>
	<path style="fill:url(#SVGID_2_);" d="M184,312c0,17.673,14.327,32,32,32s32-14.327,32-32s-14.327-32-32-32S184,294.327,184,312z
		 M232,312c0,8.837-7.163,16-16,16s-16-7.163-16-16s7.163-16,16-16S232,303.163,232,312z"/>
	
		<linearGradient id="SVGID_3_" gradientUnits="userSpaceOnUse" x1="-21.8748" y1="558.575" x2="-21.8748" y2="620.484" gradientTransform="matrix(8 0 0 -8 454.9985 4941)">
		<stop  offset="0" style="stop-color:#006DF0"/>
		<stop  offset="1" style="stop-color:#00E7F0"/>
	</linearGradient>
	<path style="fill:url(#SVGID_3_);" d="M248,272c0,17.673,14.327,32,32,32s32-14.327,32-32s-14.327-32-32-32S248,254.327,248,272z
		 M296,272c0,8.837-7.163,16-16,16s-16-7.163-16-16s7.163-16,16-16S296,263.163,296,272z"/>
	
		<linearGradient id="SVGID_4_" gradientUnits="userSpaceOnUse" x1="-12.8748" y1="558.575" x2="-12.8748" y2="620.484" gradientTransform="matrix(8 0 0 -8 454.9985 4941)">
		<stop  offset="0" style="stop-color:#006DF0"/>
		<stop  offset="1" style="stop-color:#00E7F0"/>
	</linearGradient>
	<path style="fill:url(#SVGID_4_);" d="M320,272c0,17.673,14.327,32,32,32s32-14.327,32-32s-14.327-32-32-32S320,254.327,320,272z
		 M368,272c0,8.837-7.163,16-16,16s-16-7.163-16-16s7.163-16,16-16S368,263.163,368,272z"/>
</g>
<g>
</g>
<g>
</g>
<g>
</g>
<g>
</g>
<g>
</g>
<g>
</g>
<g>
</g>
<g>
</g>
<g>
</g>
<g>
</g>
<g>
</g>
<g>
</g>
<g>
</g>
<g>
</g>
<g>
</g>
</svg>
