<?xml version="1.0" encoding="iso-8859-1"?>
<!-- Generator: Adobe Illustrator 19.0.0, SVG Export Plug-In . SVG Version: 6.00 Build 0)  -->
<svg version="1.1" id="Capa_1" xmlns="http://www.w3.org/2000/svg" xmlns:xlink="http://www.w3.org/1999/xlink" x="0px" y="0px"
	 viewBox="0 0 480.092 480.092" style="enable-background:new 0 0 480.092 480.092;" xml:space="preserve">
<linearGradient id="SVGID_1_" gradientUnits="userSpaceOnUse" x1="-44.7558" y1="559.874" x2="-44.7558" y2="617.621" gradientTransform="matrix(8 0 0 -8 482.6559 4941.8281)">
	<stop  offset="0" style="stop-color:#006DF0"/>
	<stop  offset="1" style="stop-color:#00E7F0"/>
</linearGradient>
<path style="fill:url(#SVGID_1_);" d="M132.049,264.092c0,4.418,3.582,8,8,8s8-3.582,8-8c-0.064-17.73-14.489-32.052-32.219-31.988
	c-3.181,0.011-6.342,0.496-9.381,1.436c-4.154,1.504-6.303,6.091-4.799,10.245c1.415,3.908,5.586,6.082,9.599,5.003
	c8.519-2.585,17.521,2.226,20.106,10.745C131.804,261.012,132.038,262.547,132.049,264.092L132.049,264.092z"/>
<g>
	
		<linearGradient id="SVGID_2_" gradientUnits="userSpaceOnUse" x1="-40.8258" y1="559.874" x2="-40.8258" y2="617.621" gradientTransform="matrix(8 0 0 -8 482.6559 4941.8281)">
		<stop  offset="0" style="stop-color:#006DF0"/>
		<stop  offset="1" style="stop-color:#00E7F0"/>
	</linearGradient>
	<path style="fill:url(#SVGID_2_);" d="M156.049,128.092c-17.673,0-32,14.327-32,32s14.327,32,32,32s32-14.327,32-32
		S173.722,128.092,156.049,128.092z M156.049,176.092c-8.837,0-16-7.163-16-16s7.163-16,16-16s16,7.163,16,16
		S164.886,176.092,156.049,176.092z"/>
	
		<linearGradient id="SVGID_3_" gradientUnits="userSpaceOnUse" x1="-30.8258" y1="559.874" x2="-30.8258" y2="617.621" gradientTransform="matrix(8 0 0 -8 482.6559 4941.8281)">
		<stop  offset="0" style="stop-color:#006DF0"/>
		<stop  offset="1" style="stop-color:#00E7F0"/>
	</linearGradient>
	<path style="fill:url(#SVGID_3_);" d="M412.049,320.092c-0.122-27.273-19.826-50.514-46.712-55.096
		c1.643-14.68,5.435-29.039,11.256-42.616l35.288-81.6c5.392-12.551,8.172-26.068,8.168-39.728
		c0.445-39.695-22.941-75.791-59.352-91.608c-35.984-16.277-78.026-11.251-109.16,13.048c-8.978,7.476-22.014,7.476-30.992,0
		C189.42-1.807,147.385-6.832,111.409,9.444c-36.415,15.812-59.806,51.91-59.36,91.608c0,13.666,2.782,27.188,8.176,39.744
		l28.36,65.552c-31.884,15.112-45.481,53.21-30.369,85.095c9.48,20.001,28.636,33.67,50.633,36.129l2.4,118.44
		c0.009,0.43,0.054,0.858,0.136,1.28c3.479,19.013,20.056,32.818,39.384,32.8h10.08c10.396,0.022,19.615-6.675,22.808-16.568
		c9.848-30.304,29.72-104.712,44.664-161.792c1.142-4.268,5.528-6.802,9.796-5.66c2.763,0.739,4.92,2.897,5.66,5.66
		c14.944,57.08,34.816,131.488,44.664,161.792c3.193,9.893,12.412,16.59,22.808,16.568h10.08
		c19.328,0.018,35.905-13.787,39.384-32.8c0.082-0.422,0.127-0.85,0.136-1.28l1.44-70.288
		C390.6,372.513,412.003,348.584,412.049,320.092L412.049,320.092z M396.049,320.092c-0.084,22.175-18.128,40.084-40.303,40
		c-0.008,0-0.016,0-0.025,0c-0.339-0.055-0.681-0.09-1.024-0.104c-21.582-0.591-38.743-18.306-38.648-39.896
		c0-22.091,17.909-40,40-40S396.049,298.001,396.049,320.092z M68.049,264.092c0-26.51,21.49-48,48-48s48,21.49,48,48
		s-21.49,48-48,48c-26.443,0.066-47.934-21.316-48-47.76C68.049,264.252,68.049,264.172,68.049,264.092z M321.329,464.092h-10.08
		c-3.453-0.004-6.515-2.223-7.592-5.504c-10.24-31.528-32.208-114.344-44.4-160.904c-3.394-12.813-16.532-20.449-29.345-17.055
		c-8.336,2.208-14.847,8.719-17.055,17.055c-12.192,46.56-34.168,129.376-44.4,160.904c-1.079,3.287-4.149,5.507-7.608,5.504h-10.08
		c-11.377,0.012-21.199-7.966-23.52-19.104l-2.4-117.552c35.01-4.601,59.661-36.712,55.06-71.722s-36.712-59.661-71.722-55.06
		c-1.446,0.19-2.885,0.429-4.314,0.718l-28.944-66.88c-4.546-10.562-6.887-21.941-6.88-33.44
		c-0.434-33.268,19.109-63.557,49.6-76.872c30.575-13.954,66.368-9.795,92.928,10.8c7.215,5.772,16.146,8.978,25.384,9.112h0.176
		c9.231-0.133,18.156-3.333,25.368-9.096c26.565-20.594,62.359-24.759,92.944-10.816c30.489,13.316,50.032,43.604,49.6,76.872
		c0.004,11.481-2.332,22.843-6.864,33.392l-35.28,81.6c-6.619,15.444-10.867,31.799-12.6,48.512
		c-30.668,3.678-52.548,31.522-48.87,62.19c2.937,24.489,21.569,44.162,45.862,48.426l-1.448,69.816
		C342.514,456.117,332.701,464.088,321.329,464.092L321.329,464.092z"/>
	
		<linearGradient id="SVGID_4_" gradientUnits="userSpaceOnUse" x1="-14.8281" y1="559.874" x2="-14.8281" y2="617.621" gradientTransform="matrix(8 0 0 -8 482.6559 4941.8281)">
		<stop  offset="0" style="stop-color:#006DF0"/>
		<stop  offset="1" style="stop-color:#00E7F0"/>
	</linearGradient>
	<path style="fill:url(#SVGID_4_);" d="M356.049,296.092c-4.418-0.02-8.016,3.546-8.036,7.964c-0.02,4.418,3.546,8.016,7.964,8.036
		c4.426,0.009,8.024,3.574,8.072,8c0,4.418,3.582,8,8,8s8-3.582,8-8c-0.078-13.194-10.734-23.882-23.928-24H356.049z"/>
	
		<linearGradient id="SVGID_5_" gradientUnits="userSpaceOnUse" x1="-9.8258" y1="559.874" x2="-9.8258" y2="617.621" gradientTransform="matrix(8 0 0 -8 482.6559 4941.8281)">
		<stop  offset="0" style="stop-color:#006DF0"/>
		<stop  offset="1" style="stop-color:#00E7F0"/>
	</linearGradient>
	<path style="fill:url(#SVGID_5_);" d="M404.049,384.092c-13.255,0-24,10.745-24,24s10.745,24,24,24s24-10.745,24-24
		S417.304,384.092,404.049,384.092z M404.049,416.092c-4.418,0-8-3.582-8-8s3.582-8,8-8s8,3.582,8,8
		S408.467,416.092,404.049,416.092z"/>
</g>
<g>
</g>
<g>
</g>
<g>
</g>
<g>
</g>
<g>
</g>
<g>
</g>
<g>
</g>
<g>
</g>
<g>
</g>
<g>
</g>
<g>
</g>
<g>
</g>
<g>
</g>
<g>
</g>
<g>
</g>
</svg>
