<?xml version="1.0" encoding="iso-8859-1"?>
<!-- Generator: Adobe Illustrator 19.0.0, SVG Export Plug-In . SVG Version: 6.00 Build 0)  -->
<svg version="1.1" id="Capa_1" xmlns="http://www.w3.org/2000/svg" xmlns:xlink="http://www.w3.org/1999/xlink" x="0px" y="0px"
	 viewBox="0 0 480.071 480.071" style="enable-background:new 0 0 480.071 480.071;" xml:space="preserve">
<linearGradient id="SVGID_1_" gradientUnits="userSpaceOnUse" x1="-29.8359" y1="557.852" x2="-29.8359" y2="617.566" gradientTransform="matrix(8 0 0 -8 454.7266 4941)">
	<stop  offset="0" style="stop-color:#006DF0"/>
	<stop  offset="1" style="stop-color:#00E7F0"/>
</linearGradient>
<path style="fill:url(#SVGID_1_);" d="M288.039,264.064V72c0-39.765-32.236-72-72-72s-72,32.235-72,72v192.064
	c-53.019,39.764-63.765,114.981-24,168s114.981,63.764,168,24s63.764-114.981,24-168
	C305.217,278.967,297.136,270.887,288.039,264.064z M216.039,464c-57.411,0.031-103.977-46.485-104.008-103.896
	c-0.018-34.039,16.63-65.93,44.568-85.376c2.153-1.494,3.438-3.947,3.44-6.568V72c0-30.928,25.072-56,56-56s56,25.072,56,56v196.16
	c0.002,2.621,1.287,5.074,3.44,6.568c47.121,32.797,58.733,97.584,25.936,144.704C281.969,447.37,250.078,464.018,216.039,464z"/>
<g>
	
		<linearGradient id="SVGID_2_" gradientUnits="userSpaceOnUse" x1="-13.8359" y1="557.852" x2="-13.8359" y2="617.566" gradientTransform="matrix(8 0 0 -8 454.7266 4941)">
		<stop  offset="0" style="stop-color:#006DF0"/>
		<stop  offset="1" style="stop-color:#00E7F0"/>
	</linearGradient>
	<path style="fill:url(#SVGID_2_);" d="M312.039,72h64c4.418,0,8-3.582,8-8s-3.582-8-8-8h-64c-4.418,0-8,3.582-8,8
		S307.621,72,312.039,72z"/>
	
		<linearGradient id="SVGID_3_" gradientUnits="userSpaceOnUse" x1="-15.8359" y1="557.852" x2="-15.8359" y2="617.566" gradientTransform="matrix(8 0 0 -8 454.7266 4941)">
		<stop  offset="0" style="stop-color:#006DF0"/>
		<stop  offset="1" style="stop-color:#00E7F0"/>
	</linearGradient>
	<path style="fill:url(#SVGID_3_);" d="M312.039,104h32c4.418,0,8-3.582,8-8s-3.582-8-8-8h-32c-4.418,0-8,3.582-8,8
		S307.621,104,312.039,104z"/>
	
		<linearGradient id="SVGID_4_" gradientUnits="userSpaceOnUse" x1="-13.8359" y1="557.852" x2="-13.8359" y2="617.566" gradientTransform="matrix(8 0 0 -8 454.7266 4941)">
		<stop  offset="0" style="stop-color:#006DF0"/>
		<stop  offset="1" style="stop-color:#00E7F0"/>
	</linearGradient>
	<path style="fill:url(#SVGID_4_);" d="M376.039,120h-64c-4.418,0-8,3.582-8,8s3.582,8,8,8h64c4.418,0,8-3.582,8-8
		S380.457,120,376.039,120z"/>
	
		<linearGradient id="SVGID_5_" gradientUnits="userSpaceOnUse" x1="-15.8359" y1="557.852" x2="-15.8359" y2="617.566" gradientTransform="matrix(8 0 0 -8 454.7266 4941)">
		<stop  offset="0" style="stop-color:#006DF0"/>
		<stop  offset="1" style="stop-color:#00E7F0"/>
	</linearGradient>
	<path style="fill:url(#SVGID_5_);" d="M312.039,168h32c4.418,0,8-3.582,8-8s-3.582-8-8-8h-32c-4.418,0-8,3.582-8,8
		S307.621,168,312.039,168z"/>
	
		<linearGradient id="SVGID_6_" gradientUnits="userSpaceOnUse" x1="-13.8359" y1="557.852" x2="-13.8359" y2="617.566" gradientTransform="matrix(8 0 0 -8 454.7266 4941)">
		<stop  offset="0" style="stop-color:#006DF0"/>
		<stop  offset="1" style="stop-color:#00E7F0"/>
	</linearGradient>
	<path style="fill:url(#SVGID_6_);" d="M376.039,184h-64c-4.418,0-8,3.582-8,8s3.582,8,8,8h64c4.418,0,8-3.582,8-8
		S380.457,184,376.039,184z"/>
	
		<linearGradient id="SVGID_7_" gradientUnits="userSpaceOnUse" x1="-15.8359" y1="557.852" x2="-15.8359" y2="617.566" gradientTransform="matrix(8 0 0 -8 454.7266 4941)">
		<stop  offset="0" style="stop-color:#006DF0"/>
		<stop  offset="1" style="stop-color:#00E7F0"/>
	</linearGradient>
	<path style="fill:url(#SVGID_7_);" d="M344.039,216h-32c-4.418,0-8,3.582-8,8s3.582,8,8,8h32c4.418,0,8-3.582,8-8
		S348.457,216,344.039,216z"/>
</g>
<linearGradient id="SVGID_8_" gradientUnits="userSpaceOnUse" x1="-29.8359" y1="557.852" x2="-29.8359" y2="617.566" gradientTransform="matrix(8 0 0 -8 454.7266 4941)">
	<stop  offset="0" style="stop-color:#006DF0"/>
	<stop  offset="1" style="stop-color:#00E7F0"/>
</linearGradient>
<path style="fill:url(#SVGID_8_);" d="M224.039,320.8V64c0-4.418-3.582-8-8-8s-8,3.582-8,8v256.8
	c-21.645,4.418-35.61,25.547-31.192,47.192s25.547,35.61,47.192,31.192s35.61-25.547,31.192-47.192
	C252.024,336.283,239.748,324.007,224.039,320.8z M216.039,384c-13.255,0-24-10.745-24-24s10.745-24,24-24s24,10.745,24,24
	S229.294,384,216.039,384z"/>
<g>
</g>
<g>
</g>
<g>
</g>
<g>
</g>
<g>
</g>
<g>
</g>
<g>
</g>
<g>
</g>
<g>
</g>
<g>
</g>
<g>
</g>
<g>
</g>
<g>
</g>
<g>
</g>
<g>
</g>
</svg>
