<?xml version="1.0" encoding="iso-8859-1"?>
<!-- Generator: Adobe Illustrator 19.0.0, SVG Export Plug-In . SVG Version: 6.00 Build 0)  -->
<svg version="1.1" id="Capa_1" xmlns="http://www.w3.org/2000/svg" xmlns:xlink="http://www.w3.org/1999/xlink" x="0px" y="0px"
	 viewBox="0 0 480 480" style="enable-background:new 0 0 480 480;" xml:space="preserve">
<linearGradient id="SVGID_1_" gradientUnits="userSpaceOnUse" x1="-26.875" y1="557.868" x2="-26.875" y2="619.099" gradientTransform="matrix(8 0 0 -8 455 4941)">
	<stop  offset="0" style="stop-color:#006DF0"/>
	<stop  offset="1" style="stop-color:#00E7F0"/>
</linearGradient>
<path style="fill:url(#SVGID_1_);" d="M360,464h-72v-24h56c4.418,0,8-3.582,8-8s-3.582-8-8-8h-8V144
	c-0.026-22.08-17.92-39.974-40-40h-24v-8c0-13.255-10.745-24-24-24V8c0-4.418-3.582-8-8-8s-8,3.582-8,8v64
	c-13.255,0-24,10.745-24,24v8h-24c-22.08,0.026-39.974,17.92-40,40v280h-8c-4.418,0-8,3.582-8,8s3.582,8,8,8h56v24h-72
	c-4.418,0-8,3.582-8,8s3.582,8,8,8h240c4.418,0,8-3.582,8-8S364.418,464,360,464z M224,96c0-4.418,3.582-8,8-8h16
	c4.418,0,8,3.582,8,8v8h-32V96z M160,360h56c4.418,0,8-3.582,8-8s-3.582-8-8-8h-56v-32h24c4.418,0,8-3.582,8-8s-3.582-8-8-8h-24v-32
	h56c4.418,0,8-3.582,8-8s-3.582-8-8-8h-56v-32h24c4.418,0,8-3.582,8-8s-3.582-8-8-8h-24v-32h56c4.418,0,8-3.582,8-8s-3.582-8-8-8
	h-56v-8c0-13.255,10.745-24,24-24h112c13.255,0,24,10.745,24,24v280H160V360z M208,440h64v24h-64V440z"/>
<g>
</g>
<g>
</g>
<g>
</g>
<g>
</g>
<g>
</g>
<g>
</g>
<g>
</g>
<g>
</g>
<g>
</g>
<g>
</g>
<g>
</g>
<g>
</g>
<g>
</g>
<g>
</g>
<g>
</g>
</svg>
