<?xml version="1.0" encoding="iso-8859-1"?>
<!-- Generator: Adobe Illustrator 19.0.0, SVG Export Plug-In . SVG Version: 6.00 Build 0)  -->
<svg version="1.1" id="Capa_1" xmlns="http://www.w3.org/2000/svg" xmlns:xlink="http://www.w3.org/1999/xlink" x="0px" y="0px"
	 viewBox="0 0 480 480" style="enable-background:new 0 0 480 480;" xml:space="preserve">
<linearGradient id="SVGID_1_" gradientUnits="userSpaceOnUse" x1="-26.875" y1="547.6094" x2="-26.875" y2="600.0204" gradientTransform="matrix(8 0 0 -8 455.0001 4831.8965)">
	<stop  offset="0" style="stop-color:#006DF0"/>
	<stop  offset="1" style="stop-color:#00E7F0"/>
</linearGradient>
<path style="fill:url(#SVGID_1_);" d="M408,83.877h-70.736c-17.63-40.465-64.725-58.976-105.19-41.346
	c-18.51,8.065-33.282,22.836-41.346,41.346H72c-39.744,0.048-71.952,32.256-72,72v144c0.056,37.598,29.017,68.831,66.504,71.72
	c-9.129,29.55,7.426,60.905,36.976,70.034s60.905-7.426,70.034-36.976c3.297-10.673,3.327-22.088,0.086-32.777H408
	c39.744-0.048,71.951-32.256,72-72v-144C479.951,116.133,447.744,83.926,408,83.877z M381.672,147.877H408c4.418,0,8,3.582,8,8v144
	c0,4.418-3.582,8-8,8H72c-4.418,0-8-3.582-8-8v-144c0-4.418,3.582-8,8-8h118.712l0.088,0.168c1.455,3.287,3.128,6.473,5.008,9.536
	c0.2,0.328,0.384,0.664,0.584,0.984c1.846,2.908,3.88,5.692,6.088,8.336c0.296,0.36,0.592,0.736,0.904,1.096
	c2.19,2.546,4.538,4.951,7.032,7.2l1.16,1.04c2.513,2.177,5.158,4.197,7.92,6.048c0.432,0.296,0.872,0.576,1.312,0.864
	c2.811,1.808,5.731,3.44,8.744,4.888l1.336,0.608c3.097,1.423,6.282,2.644,9.536,3.656c0.392,0.12,0.8,0.216,1.192,0.336
	c3.395,1.005,6.854,1.782,10.352,2.328c0.256,0,0.52,0.056,0.8,0.096c3.72,0.533,7.474,0.806,11.232,0.816
	c3.537-0.028,7.067-0.295,10.568-0.8c0.984-0.128,1.96-0.304,2.936-0.472c1.12-0.2,2.264-0.312,3.368-0.552
	c0.12,0.184,0.272,0.344,0.392,0.528c0.536,0.8,1.136,1.544,1.712,2.32c0.912,1.24,1.832,2.464,2.832,3.616
	c0.68,0.8,1.4,1.488,2.12,2.224c1.016,1.04,2.056,2.064,3.144,3.024c0.8,0.696,1.6,1.336,2.4,1.984
	c1.136,0.888,2.288,1.736,3.488,2.528c0.864,0.584,1.736,1.144,2.632,1.672c1.248,0.736,2.528,1.408,3.832,2.056
	c0.912,0.448,1.824,0.904,2.76,1.304c1.384,0.592,2.8,1.088,4.232,1.6c0.92,0.304,1.824,0.648,2.76,0.904
	c1.6,0.448,3.2,0.8,4.864,1.064c0.8,0.152,1.6,0.36,2.4,0.472c2.505,0.351,5.031,0.528,7.56,0.528
	c30.844,0.084,55.916-24.852,56-55.696c0.007-2.709-0.182-5.415-0.568-8.096c-0.112-0.8-0.32-1.6-0.472-2.36
	c-0.32-1.76-0.664-3.512-1.152-5.216C381.752,148.301,381.736,148.085,381.672,147.877L381.672,147.877z M362.632,143.949
	c3.563,6.033,5.419,12.921,5.368,19.928c-0.026,22.08-17.92,39.974-40,40c-1.874-0.001-3.746-0.137-5.6-0.408
	c-13.185-1.948-24.56-10.275-30.4-22.256c-5.772-11.91-5.232-25.913,1.44-37.344c7.133-12.348,20.3-19.965,34.56-19.992
	c2.238-0.003,4.471,0.201,6.672,0.608C346.45,126.426,356.723,133.577,362.632,143.949z M264,51.877
	c27.129,0.016,51.3,17.135,60.32,42.72c0.696,1.928,1.264,3.904,1.768,5.896c0.184,0.752,0.328,1.52,0.488,2.28
	c0.256,1.208,0.48,2.4,0.664,3.656c0.072,0.48,0.12,0.968,0.176,1.456c-1.152,0-2.28,0.176-3.432,0.264
	c-1.152,0.088-2.4,0.104-3.608,0.264s-2.472,0.496-3.704,0.752c-1.232,0.256-2.312,0.408-3.44,0.72
	c-1.248,0.344-2.44,0.8-3.648,1.248c-1.064,0.376-2.16,0.68-3.2,1.112c-1.232,0.52-2.4,1.176-3.592,1.784
	c-0.96,0.48-1.944,0.896-2.864,1.432c-1.224,0.712-2.4,1.552-3.536,2.352c-0.8,0.56-1.672,1.056-2.464,1.656
	c-1.192,0.92-2.288,1.968-3.416,2.984c-0.664,0.6-1.384,1.144-2.024,1.776c-1.184,1.184-2.248,2.488-3.328,3.776
	c-0.48,0.576-1.024,1.088-1.48,1.688c-7.529,9.81-11.632,21.818-11.68,34.184c0.01,2.389,0.171,4.775,0.48,7.144
	c0.096,0.736,0.248,1.456,0.376,2.192c0.264,1.6,0.584,3.2,1,4.8c0.088,0.336,0.12,0.696,0.216,1.032
	c-0.104,0-0.208,0.048-0.312,0.072c-30.424,4.764-59.908-12.886-70.08-41.952c-2.453-6.829-3.699-14.032-3.68-21.288
	c0-1.96,0.104-3.896,0.272-5.824c0.478-5.298,1.631-10.514,3.432-15.52C212.743,68.982,236.897,51.894,264,51.877L264,51.877z
	 M120,427.877c-22.08-0.026-39.974-17.92-40-40c-0.046-7.035,1.827-13.949,5.416-20c11.002-19.101,35.405-25.666,54.506-14.664
	c6.122,3.526,11.198,8.614,14.71,14.744c3.562,6.031,5.418,12.916,5.368,19.92C159.974,409.958,142.08,427.851,120,427.877z
	 M464,299.877c-0.035,30.913-25.087,55.965-56,56H165.912c-0.28-0.4-0.616-0.752-0.904-1.144c-0.6-0.8-1.232-1.6-1.872-2.4
	c-0.864-1.048-1.752-2.064-2.68-3.048c-0.696-0.728-1.416-1.432-2.144-2.12c-0.984-0.928-1.992-1.8-3.032-2.648
	c-0.8-0.632-1.6-1.256-2.4-1.84c-1.088-0.8-2.208-1.528-3.352-2.24c-0.84-0.528-1.672-1.056-2.536-1.536
	c-1.2-0.656-2.4-1.24-3.672-1.808c-0.88-0.408-1.744-0.8-2.64-1.192c-1.32-0.528-2.68-0.96-4-1.384
	c-0.872-0.28-1.728-0.592-2.624-0.8c-1.52-0.4-3.08-0.672-4.64-0.936c-0.76-0.136-1.512-0.328-2.28-0.424
	c-4.728-0.64-9.52-0.64-14.248,0c-0.8,0.096-1.552,0.296-2.336,0.432c-1.544,0.264-3.08,0.528-4.584,0.92
	c-0.92,0.24-1.8,0.568-2.704,0.848c-1.328,0.424-2.648,0.8-3.936,1.352c-0.944,0.376-1.856,0.8-2.776,1.248
	c-1.184,0.552-2.36,1.104-3.504,1.736c-0.928,0.512-1.824,1.08-2.728,1.6c-1.064,0.672-2.104,1.352-3.128,2.088
	c-0.888,0.64-1.744,1.32-2.592,2.016s-1.872,1.6-2.768,2.4s-1.6,1.544-2.4,2.352s-1.656,1.832-2.448,2.784s-1.392,1.696-2.048,2.584
	c-0.272,0.384-0.6,0.72-0.864,1.104H72c-30.913-0.035-55.965-25.087-56-56V155.877c0.035-30.913,25.087-55.965,56-56h113.6
	c-0.072,0.352-0.096,0.712-0.168,1.056c-0.312,1.672-0.552,3.352-0.8,5.04c-0.096,0.8-0.224,1.6-0.304,2.4
	c-0.232,2.488-0.376,5-0.376,7.536c0.017,5.376,0.58,10.737,1.68,16H72c-13.255,0-24,10.745-24,24v143.968c0,13.255,10.745,24,24,24
	h336c13.255,0,24-10.745,24-24v-144c0-13.255-10.745-24-24-24h-34.112c-0.2-0.288-0.4-0.584-0.608-0.872
	c-0.376-0.52-0.8-1.008-1.176-1.512c-0.8-1.024-1.6-2.032-2.456-2.992c-0.504-0.56-1.032-1.096-1.6-1.6
	c-0.8-0.8-1.6-1.648-2.488-2.4c-0.603-0.533-1.211-1.067-1.824-1.6c-0.848-0.704-1.712-1.376-2.592-2.024
	c-0.68-0.504-1.352-0.992-2.056-1.464c-0.88-0.592-1.792-1.136-2.712-1.672c-0.736-0.44-1.464-0.888-2.224-1.288
	c-0.968-0.504-1.968-0.952-2.968-1.4c-0.744-0.344-1.472-0.72-2.24-1.024c-1.697-0.684-3.427-1.282-5.184-1.792
	c0-0.152-0.048-0.296-0.056-0.448c-0.243-3.029-0.657-6.042-1.24-9.024c-0.056-0.28-0.064-0.568-0.12-0.84H408
	c30.913,0.035,55.965,25.087,56,56V299.877z"/>
<g>
	
		<linearGradient id="SVGID_2_" gradientUnits="userSpaceOnUse" x1="-26.375" y1="547.6094" x2="-26.375" y2="600.0204" gradientTransform="matrix(8 0 0 -8 455.0001 4831.8965)">
		<stop  offset="0" style="stop-color:#006DF0"/>
		<stop  offset="1" style="stop-color:#00E7F0"/>
	</linearGradient>
	<path style="fill:url(#SVGID_2_);" d="M224,123.877c4.418,0,8-3.582,8-8c0-17.673,14.327-32,32-32c4.418,0,8-3.582,8-8
		s-3.582-8-8-8c-26.499,0.026-47.974,21.501-48,48C216,120.296,219.582,123.877,224,123.877z"/>
	
		<linearGradient id="SVGID_3_" gradientUnits="userSpaceOnUse" x1="-42.875" y1="547.6094" x2="-42.875" y2="600.0204" gradientTransform="matrix(8 0 0 -8 455.0001 4831.8965)">
		<stop  offset="0" style="stop-color:#006DF0"/>
		<stop  offset="1" style="stop-color:#00E7F0"/>
	</linearGradient>
	<path style="fill:url(#SVGID_3_);" d="M120,363.877c-13.255,0-24,10.745-24,24c0,4.418,3.582,8,8,8s8-3.582,8-8s3.582-8,8-8
		s8-3.582,8-8S124.418,363.877,120,363.877z"/>
	
		<linearGradient id="SVGID_4_" gradientUnits="userSpaceOnUse" x1="-16.875" y1="547.6094" x2="-16.875" y2="600.0204" gradientTransform="matrix(8 0 0 -8 455.0001 4831.8965)">
		<stop  offset="0" style="stop-color:#006DF0"/>
		<stop  offset="1" style="stop-color:#00E7F0"/>
	</linearGradient>
	<path style="fill:url(#SVGID_4_);" d="M328,139.877c-13.255,0-24,10.745-24,24c0,4.418,3.582,8,8,8s8-3.582,8-8s3.582-8,8-8
		s8-3.582,8-8S332.418,139.877,328,139.877z"/>
</g>
<g>
</g>
<g>
</g>
<g>
</g>
<g>
</g>
<g>
</g>
<g>
</g>
<g>
</g>
<g>
</g>
<g>
</g>
<g>
</g>
<g>
</g>
<g>
</g>
<g>
</g>
<g>
</g>
<g>
</g>
</svg>
