<?xml version="1.0" encoding="iso-8859-1"?>
<!-- Generator: Adobe Illustrator 19.0.0, SVG Export Plug-In . SVG Version: 6.00 Build 0)  -->
<svg version="1.1" id="Capa_1" xmlns="http://www.w3.org/2000/svg" xmlns:xlink="http://www.w3.org/1999/xlink" x="0px" y="0px"
	 viewBox="0 0 480 480" style="enable-background:new 0 0 480 480;" xml:space="preserve">
<linearGradient id="SVGID_1_" gradientUnits="userSpaceOnUse" x1="-26.875" y1="552.429" x2="-26.875" y2="600.404" gradientTransform="matrix(8 0 0 -8 455 4831.9561)">
	<stop  offset="0" style="stop-color:#006DF0"/>
	<stop  offset="1" style="stop-color:#00E7F0"/>
</linearGradient>
<path style="fill:url(#SVGID_1_);" d="M472,339.884H8c-4.418,0-8,3.582-8,8v64c0,4.418,3.582,8,8,8h464c4.418,0,8-3.582,8-8v-64
	C480,343.466,476.418,339.884,472,339.884z M416,355.884v48H96v-48H416z M16,403.884v-48h64v48H16z M464,403.884h-32v-48h32V403.884
	z"/>
<g>
	
		<linearGradient id="SVGID_2_" gradientUnits="userSpaceOnUse" x1="-8.3669" y1="552.429" x2="-8.3669" y2="600.404" gradientTransform="matrix(8 0 0 -8 455 4831.9561)">
		<stop  offset="0" style="stop-color:#006DF0"/>
		<stop  offset="1" style="stop-color:#00E7F0"/>
	</linearGradient>
	<path style="fill:url(#SVGID_2_);" d="M363.696,322.628c3.724,2.377,8.671,1.285,11.048-2.439c0,0,0,0,0-0.001l29.848-46.792
		c17.313-27.272,14.409-62.725-7.112-86.816l-5.48-6.144c-17.508-19.369-19.227-48.294-4.136-69.6l26.712-38.008
		c2.598-3.574,1.806-8.577-1.768-11.175c-3.574-2.598-8.577-1.806-11.175,1.768c-0.05,0.068-0.098,0.137-0.145,0.207l-26.72,38.008
		c-19.408,27.397-17.193,64.595,5.328,89.496l5.504,6.144c16.741,18.734,19.005,46.306,5.544,67.52l-29.856,46.792
		C358.91,315.303,359.987,320.241,363.696,322.628z"/>
	
		<linearGradient id="SVGID_3_" gradientUnits="userSpaceOnUse" x1="-2.3707" y1="552.429" x2="-2.3707" y2="600.404" gradientTransform="matrix(8 0 0 -8 455 4831.9561)">
		<stop  offset="0" style="stop-color:#006DF0"/>
		<stop  offset="1" style="stop-color:#00E7F0"/>
	</linearGradient>
	<path style="fill:url(#SVGID_3_);" d="M428.52,191.18l4.8,5.32c16.867,18.654,19.279,46.247,5.904,67.544L409.2,311.612
		c-2.359,3.738-1.242,8.681,2.496,11.04s8.681,1.242,11.04-2.496L452.8,272.58c17.189-27.382,14.085-62.852-7.6-86.832l-4.8-5.328
		c-17.732-19.346-19.548-48.447-4.36-69.848l26.536-37.752c2.598-3.574,1.806-8.577-1.768-11.175
		c-3.574-2.598-8.577-1.806-11.175,1.768c-0.05,0.068-0.098,0.137-0.145,0.207l-26.544,37.752
		C403.413,128.883,405.736,166.296,428.52,191.18L428.52,191.18z"/>
</g>
<g>
</g>
<g>
</g>
<g>
</g>
<g>
</g>
<g>
</g>
<g>
</g>
<g>
</g>
<g>
</g>
<g>
</g>
<g>
</g>
<g>
</g>
<g>
</g>
<g>
</g>
<g>
</g>
<g>
</g>
</svg>
