<?xml version="1.0" encoding="iso-8859-1"?>
<!-- Generator: Adobe Illustrator 19.0.0, SVG Export Plug-In . SVG Version: 6.00 Build 0)  -->
<svg version="1.1" id="Capa_1" xmlns="http://www.w3.org/2000/svg" xmlns:xlink="http://www.w3.org/1999/xlink" x="0px" y="0px"
	 viewBox="0 0 480 480" style="enable-background:new 0 0 480 480;" xml:space="preserve">
<g>
	
		<linearGradient id="SVGID_1_" gradientUnits="userSpaceOnUse" x1="-26.875" y1="559.055" x2="-26.875" y2="616.462" gradientTransform="matrix(8 0 0 -8 455 4941)">
		<stop  offset="0" style="stop-color:#006DF0"/>
		<stop  offset="1" style="stop-color:#00E7F0"/>
	</linearGradient>
	<path style="fill:url(#SVGID_1_);" d="M336,0H144c-30.913,0.035-55.965,25.087-56,56v368c0.035,30.913,25.087,55.965,56,56h192
		c30.913-0.035,55.965-25.087,56-56V56C391.965,25.087,366.913,0.035,336,0z M144,16h192c22.08,0.026,39.974,17.92,40,40v16H104V56
		C104.026,33.92,121.92,16.026,144,16z M376,392H104V88h272V392z M336,464H144c-22.08-0.026-39.974-17.92-40-40v-16h272v16
		C375.974,446.08,358.08,463.974,336,464z"/>
	
		<linearGradient id="SVGID_2_" gradientUnits="userSpaceOnUse" x1="-26.875" y1="559.055" x2="-26.875" y2="616.462" gradientTransform="matrix(8 0 0 -8 455 4941)">
		<stop  offset="0" style="stop-color:#006DF0"/>
		<stop  offset="1" style="stop-color:#00E7F0"/>
	</linearGradient>
	<path style="fill:url(#SVGID_2_);" d="M144,272h64v64c0,4.418,3.582,8,8,8h48c4.418,0,8-3.582,8-8v-64h64c4.418,0,8-3.582,8-8v-48
		c0-4.418-3.582-8-8-8h-64v-64c0-4.418-3.582-8-8-8h-48c-4.418,0-8,3.582-8,8v64h-64c-4.418,0-8,3.582-8,8v48
		C136,268.418,139.582,272,144,272z M152,224h64c4.418,0,8-3.582,8-8v-64h32v64c0,4.418,3.582,8,8,8h64v32h-64c-4.418,0-8,3.582-8,8
		v64h-32v-64c0-4.418-3.582-8-8-8h-64V224z"/>
</g>
<g>
</g>
<g>
</g>
<g>
</g>
<g>
</g>
<g>
</g>
<g>
</g>
<g>
</g>
<g>
</g>
<g>
</g>
<g>
</g>
<g>
</g>
<g>
</g>
<g>
</g>
<g>
</g>
<g>
</g>
</svg>
