<?xml version="1.0" encoding="iso-8859-1"?>
<!-- Generator: Adobe Illustrator 19.0.0, SVG Export Plug-In . SVG Version: 6.00 Build 0)  -->
<svg version="1.1" id="Capa_1" xmlns="http://www.w3.org/2000/svg" xmlns:xlink="http://www.w3.org/1999/xlink" x="0px" y="0px"
	 viewBox="0 0 391.496 391.496" style="enable-background:new 0 0 391.496 391.496;" xml:space="preserve">
<linearGradient id="SVGID_1_" gradientUnits="userSpaceOnUse" x1="-54.489" y1="539.4568" x2="-54.489" y2="591.3959" gradientTransform="matrix(8 0 0 -8 631.66 4713.8477)">
	<stop  offset="0" style="stop-color:#006DF0"/>
	<stop  offset="1" style="stop-color:#00E7F0"/>
</linearGradient>
<path style="fill:url(#SVGID_1_);" d="M384.467,350.529l-67.88-67.888c-7.195-7.135-18.096-8.982-27.24-4.616l-23.96-23.952
	c56.244-62.492,51.18-158.747-11.312-214.991S95.328-12.098,39.084,50.394s-51.18,158.747,11.312,214.991
	c57.895,52.107,145.784,52.107,203.679,0l23.96,23.96c-4.383,9.14-2.537,20.05,4.608,27.24l67.88,67.88
	c9.372,9.373,24.568,9.375,33.941,0.003c0.001-0.001,0.002-0.002,0.003-0.003C393.836,375.093,393.836,359.901,384.467,350.529z
	 M56.363,248.705C3.252,195.593,3.254,109.482,56.366,56.372s139.223-53.109,192.333,0.003c53.109,53.111,53.109,139.219,0,192.33
	c-52.408,53.112-137.95,53.683-191.062,1.274C57.21,249.557,56.785,249.132,56.363,248.705z M373.163,373.161
	c-3.161,3.024-8.143,3.024-11.304,0l-67.896-67.888c-3.07-3.178-2.982-8.242,0.196-11.312c3.1-2.995,8.016-2.995,11.116,0
	l67.888,67.88c3.118,3.123,3.118,8.181,0,11.304L373.163,373.161z"/>
<g>
	
		<linearGradient id="SVGID_2_" gradientUnits="userSpaceOnUse" x1="-59.9121" y1="539.4568" x2="-59.9121" y2="591.3959" gradientTransform="matrix(8 0 0 -8 631.66 4713.8477)">
		<stop  offset="0" style="stop-color:#006DF0"/>
		<stop  offset="1" style="stop-color:#00E7F0"/>
	</linearGradient>
	<path style="fill:url(#SVGID_2_);" d="M237.387,67.681c-46.862-46.957-122.918-47.035-169.875-0.173s-47.035,122.918-0.173,169.875
		s122.918,47.035,169.875,0.173c22.579-22.533,35.268-53.121,35.269-85.019C272.482,120.72,259.86,90.203,237.387,67.681z
		 M226.075,226.081c-40.61,40.719-106.54,40.807-147.259,0.197s-40.807-106.54-0.197-147.259s106.54-40.807,147.259-0.197
		c19.587,19.535,30.596,46.06,30.597,73.723c0.091,27.585-10.855,54.061-30.4,73.528V226.081z"/>
	
		<linearGradient id="SVGID_3_" gradientUnits="userSpaceOnUse" x1="-59.8905" y1="539.4568" x2="-59.8905" y2="591.3959" gradientTransform="matrix(8 0 0 -8 631.66 4713.8477)">
		<stop  offset="0" style="stop-color:#006DF0"/>
		<stop  offset="1" style="stop-color:#00E7F0"/>
	</linearGradient>
	<path style="fill:url(#SVGID_3_);" d="M205.795,129.913c0-2.122-0.844-4.156-2.344-5.656l-22.632-22.632
		c-3.124-3.123-8.188-3.123-11.312,0l-16.968,16.968l-16.976-16.968c-3.124-3.123-8.188-3.123-11.312,0l-22.632,22.632
		c-3.123,3.124-3.123,8.188,0,11.312l16.968,16.968l-16.968,16.968c-3.123,3.124-3.123,8.188,0,11.312l22.632,22.632
		c3.124,3.123,8.188,3.123,11.312,0l16.968-16.976l16.968,16.976c3.124,3.123,8.188,3.123,11.312,0l22.632-22.632
		c3.123-3.124,3.123-8.188,0-11.312l-16.976-16.968l16.984-16.976C204.949,134.063,205.792,132.032,205.795,129.913z
		 M169.507,146.881c-3.123,3.124-3.123,8.188,0,11.312l16.976,16.968l-11.32,11.32l-16.968-16.976
		c-3.124-3.123-8.188-3.123-11.312,0l-16.968,16.976l-11.32-11.32l16.968-16.968c3.123-3.124,3.123-8.188,0-11.312l-16.976-16.968
		l11.32-11.32l16.976,16.968c3.124,3.123,8.188,3.123,11.312,0l16.968-16.976l11.32,11.32L169.507,146.881z"/>
</g>
<g>
</g>
<g>
</g>
<g>
</g>
<g>
</g>
<g>
</g>
<g>
</g>
<g>
</g>
<g>
</g>
<g>
</g>
<g>
</g>
<g>
</g>
<g>
</g>
<g>
</g>
<g>
</g>
<g>
</g>
</svg>
