<?xml version="1.0" encoding="iso-8859-1"?>
<!-- Generator: Adobe Illustrator 19.0.0, SVG Export Plug-In . SVG Version: 6.00 Build 0)  -->
<svg version="1.1" id="Capa_1" xmlns="http://www.w3.org/2000/svg" xmlns:xlink="http://www.w3.org/1999/xlink" x="0px" y="0px"
	 viewBox="0 0 480 480" style="enable-background:new 0 0 480 480;" xml:space="preserve">
<linearGradient id="SVGID_1_" gradientUnits="userSpaceOnUse" x1="-26.875" y1="518.545" x2="-26.875" y2="569.515" gradientTransform="matrix(8 0 0 -8 455 4581)">
	<stop  offset="0" style="stop-color:#006DF0"/>
	<stop  offset="1" style="stop-color:#00E7F0"/>
</linearGradient>
<path style="fill:url(#SVGID_1_);" d="M456,160h-48V72h8c4.418,0,8-3.582,8-8V48c0-4.418-3.582-8-8-8h-96c-4.418,0-8,3.582-8,8v16
	c0,4.418,3.582,8,8,8h8v88h-48V72h8c4.418,0,8-3.582,8-8V48c0-4.418-3.582-8-8-8h-96c-4.418,0-8,3.582-8,8v16c0,4.418,3.582,8,8,8h8
	v88h-48V72h8c4.418,0,8-3.582,8-8V48c0-4.418-3.582-8-8-8H64c-4.418,0-8,3.582-8,8v16c0,4.418,3.582,8,8,8h8v88H24
	c-13.255,0-24,10.745-24,24v200c0,13.255,10.745,24,24,24l0,0h24v8c0,13.255,10.745,24,24,24h16c13.255,0,24-10.745,24-24v-8h256v8
	c0,13.255,10.745,24,24,24h16c13.255,0,24-10.745,24-24v-8h24c13.255,0,24-10.745,24-24l0,0V184C480,170.745,469.255,160,456,160z
	 M456,176c4.418,0,8,3.582,8,8v128h-56V176H456z M344,328h48v8c0,13.255-10.745,24-24,24s-24-10.745-24-24V328z M344,312V176h48v136
	H344z M392,72v32h-48V72H392z M344,120h48v40h-48V120z M328,176v136h-48V176H328z M216,328h48v8c0,13.255-10.745,24-24,24
	c-13.255,0-24-10.745-24-24V328z M216,312V176h48v136H216z M264,72v32h-48V72H264z M216,120h48v40h-48V120z M200,176v136h-48V176
	H200z M88,328h48v8c0,13.255-10.745,24-24,24s-24-10.745-24-24V328z M88,312V176h48v136H88z M136,72v32H88V72H136z M88,120h48v40H88
	V120z M24,176h48v136H16V184C16,179.582,19.582,176,24,176z M96,416c0,4.418-3.582,8-8,8H72c-4.418,0-8-3.582-8-8v-8h32V416z
	 M416,416c0,4.418-3.582,8-8,8h-16c-4.418,0-8-3.582-8-8v-8h32V416z M456,392H24c-4.418,0-8-3.582-8-8v-56h56v8
	c0,22.091,17.909,40,40,40s40-17.909,40-40v-8h48v8c0,22.091,17.909,40,40,40s40-17.909,40-40v-8h48v8c0,22.091,17.909,40,40,40
	s40-17.909,40-40v-8h56v56C464,388.418,460.418,392,456,392z"/>
<g>
</g>
<g>
</g>
<g>
</g>
<g>
</g>
<g>
</g>
<g>
</g>
<g>
</g>
<g>
</g>
<g>
</g>
<g>
</g>
<g>
</g>
<g>
</g>
<g>
</g>
<g>
</g>
<g>
</g>
</svg>
