<?xml version="1.0" encoding="iso-8859-1"?>
<!-- Generator: Adobe Illustrator 19.0.0, SVG Export Plug-In . SVG Version: 6.00 Build 0)  -->
<svg version="1.1" id="Capa_1" xmlns="http://www.w3.org/2000/svg" xmlns:xlink="http://www.w3.org/1999/xlink" x="0px" y="0px"
	 viewBox="0 0 479.995 479.995" style="enable-background:new 0 0 479.995 479.995;" xml:space="preserve">
<g>
	
		<linearGradient id="SVGID_1_" gradientUnits="userSpaceOnUse" x1="-26.8947" y1="558.1528" x2="-26.8947" y2="600.2388" gradientTransform="matrix(8 0 0 -8 455.1547 4868.98)">
		<stop  offset="0" style="stop-color:#006DF0"/>
		<stop  offset="1" style="stop-color:#00E7F0"/>
	</linearGradient>
	<path style="fill:url(#SVGID_1_);" d="M478.682,163.63c-1.164-1.785-2.993-3.032-5.08-3.464l-70.024-14.504l-2.216-0.44l-1.024-0.2
		c-15.877-39.278-53.994-64.999-96.36-65.024h-128c-42.4-0.163-80.584,25.625-96.272,65.016l-1.112,0.208L6.378,160.166
		c-4.326,0.897-7.107,5.131-6.21,9.457c0.003,0.016,0.007,0.031,0.01,0.047l48,224c0.924,4.32,5.176,7.073,9.497,6.149
		c0.088-0.019,0.176-0.039,0.263-0.061l2.328-0.576c157.904-41.232,201.6-41.224,359.56,0l2.24,0.56
		c4.287,1.07,8.629-1.538,9.699-5.825c0.022-0.087,0.042-0.175,0.061-0.263l48-224C480.26,167.574,479.848,165.406,478.682,163.63
		L478.682,163.63z M113.714,121.734c16.486-16.547,38.906-25.814,62.264-25.736h128c32.021,0.012,61.516,17.393,77.04,45.4
		c-0.48-0.088-0.96-0.144-1.448-0.224c-10.264-1.816-20.536-3.392-30.824-4.8c-1.776-0.248-3.552-0.496-5.32-0.728
		c-10.181-1.317-20.373-2.448-30.576-3.392l-5.136-0.44c-10.4-0.888-20.8-1.6-31.2-2.072c-1.192-0.056-2.4-0.088-3.576-0.136
		c-22.064-0.912-44.125-0.912-66.184,0c-1.032,0-2.056,0.064-3.08,0.112c-10.6,0.48-21.192,1.208-31.776,2.112
		c-1.48,0.128-2.96,0.248-4.44,0.384c-10.4,0.944-20.8,2.096-31.2,3.456l-4.672,0.632c-10.427,1.424-20.827,3.045-31.2,4.864
		c-0.472,0.088-0.936,0.136-1.408,0.224C102.949,134.182,107.909,127.566,113.714,121.734L113.714,121.734z M417.898,382.174
		c-154.792-40.128-201.104-40.12-355.84,0l-3.2-14.864l2.08-0.536c158.936-41.288,199.096-41.296,358.048,0l2.08,0.536
		L417.898,382.174z M424.442,351.654l-1.416-0.368c-160.8-41.784-205.296-41.784-366.096,0l-1.416,0.368L17.49,174.198l61.936-12.8
		l2.328-0.464c1.648-0.336,3.32-0.672,5.216-0.984c21.573-4.267,43.205-7.605,64.896-10.016
		c80.502-9.111,161.928-5.717,241.392,10.064c1.6,0.264,3.296,0.6,4.944,0.936l64.264,13.288L424.442,351.654z"/>
	
		<linearGradient id="SVGID_2_" gradientUnits="userSpaceOnUse" x1="-26.8971" y1="558.1528" x2="-26.8971" y2="600.2388" gradientTransform="matrix(8 0 0 -8 455.1547 4868.98)">
		<stop  offset="0" style="stop-color:#006DF0"/>
		<stop  offset="1" style="stop-color:#00E7F0"/>
	</linearGradient>
	<path style="fill:url(#SVGID_2_);" d="M231.978,119.998h16c4.418,0,8-3.582,8-8s-3.582-8-8-8h-16c-4.418,0-8,3.582-8,8
		S227.56,119.998,231.978,119.998z"/>
</g>
<g>
	
		<linearGradient id="SVGID_3_" gradientUnits="userSpaceOnUse" x1="-21.8971" y1="558.1528" x2="-21.8971" y2="600.2388" gradientTransform="matrix(8 0 0 -8 455.1547 4868.98)">
		<stop  offset="0" style="stop-color:#006DF0"/>
		<stop  offset="1" style="stop-color:#00E7F0"/>
	</linearGradient>
	<path style="fill:url(#SVGID_3_);" d="M271.978,119.998h16c4.418,0,8-3.582,8-8s-3.582-8-8-8h-16c-4.418,0-8,3.582-8,8
		S267.56,119.998,271.978,119.998z"/>
	
		<linearGradient id="SVGID_4_" gradientUnits="userSpaceOnUse" x1="-31.8971" y1="558.1528" x2="-31.8971" y2="600.2388" gradientTransform="matrix(8 0 0 -8 455.1547 4868.98)">
		<stop  offset="0" style="stop-color:#006DF0"/>
		<stop  offset="1" style="stop-color:#00E7F0"/>
	</linearGradient>
	<path style="fill:url(#SVGID_4_);" d="M191.978,119.998h16c4.418,0,8-3.582,8-8s-3.582-8-8-8h-16c-4.418,0-8,3.582-8,8
		S187.56,119.998,191.978,119.998z"/>
</g>
<linearGradient id="SVGID_5_" gradientUnits="userSpaceOnUse" x1="-26.8971" y1="558.1528" x2="-26.8971" y2="600.2388" gradientTransform="matrix(8 0 0 -8 455.1547 4868.98)">
	<stop  offset="0" style="stop-color:#006DF0"/>
	<stop  offset="1" style="stop-color:#00E7F0"/>
</linearGradient>
<path style="fill:url(#SVGID_5_);" d="M263.978,167.998h-48v40h-40v48h40v40h48v-40h40v-48h-40V167.998z M287.978,223.998v16h-40v40
	h-16v-40h-40v-16h40v-40h16v40H287.978z"/>
<g>
</g>
<g>
</g>
<g>
</g>
<g>
</g>
<g>
</g>
<g>
</g>
<g>
</g>
<g>
</g>
<g>
</g>
<g>
</g>
<g>
</g>
<g>
</g>
<g>
</g>
<g>
</g>
<g>
</g>
</svg>
