<?xml version="1.0" encoding="iso-8859-1"?>
<!-- Generator: Adobe Illustrator 19.0.0, SVG Export Plug-In . SVG Version: 6.00 Build 0)  -->
<svg version="1.1" id="Capa_1" xmlns="http://www.w3.org/2000/svg" xmlns:xlink="http://www.w3.org/1999/xlink" x="0px" y="0px"
	 viewBox="0 0 479.776 479.776" style="enable-background:new 0 0 479.776 479.776;" xml:space="preserve">
<g>
	
		<linearGradient id="SVGID_1_" gradientUnits="userSpaceOnUse" x1="-27.085" y1="573.678" x2="-27.085" y2="605.513" gradientTransform="matrix(8 0 0 -8 456.5679 4939.9922)">
		<stop  offset="0" style="stop-color:#006DF0"/>
		<stop  offset="1" style="stop-color:#00E7F0"/>
	</linearGradient>
	<path style="fill:url(#SVGID_1_);" d="M479.776,239.888c-0.05-36.645-27.586-67.42-64-71.528v-8.472c0-13.255-10.745-24-24-24h-304
		c-13.255,0-24,10.745-24,24v8.472c-39.504,4.546-67.843,40.255-63.297,79.759c3.825,33.245,30.052,59.472,63.297,63.297v8.472
		c0,13.255,10.745,24,24,24h304c13.255,0,24-10.745,24-24v-8.472C452.19,307.308,479.726,276.533,479.776,239.888z M15.776,239.888
		c0.035-27.826,20.465-51.419,48-55.432V295.32C36.241,291.307,15.811,267.714,15.776,239.888z M399.776,319.888
		c0,4.418-3.582,8-8,8h-304c-4.418,0-8-3.582-8-8v-160c0-4.418,3.582-8,8-8h304c4.418,0,8,3.582,8,8V319.888z M415.776,295.32
		V184.456c30.614,4.394,51.87,32.773,47.476,63.388C459.72,272.453,440.386,291.788,415.776,295.32z"/>
	
		<linearGradient id="SVGID_2_" gradientUnits="userSpaceOnUse" x1="-27.099" y1="573.678" x2="-27.099" y2="605.513" gradientTransform="matrix(8 0 0 -8 456.5679 4939.9922)">
		<stop  offset="0" style="stop-color:#006DF0"/>
		<stop  offset="1" style="stop-color:#00E7F0"/>
	</linearGradient>
	<path style="fill:url(#SVGID_2_);" d="M359.776,231.888h-240c-4.418,0-8,3.582-8,8s3.582,8,8,8h240c4.418,0,8-3.582,8-8
		S364.194,231.888,359.776,231.888z"/>
	
		<linearGradient id="SVGID_3_" gradientUnits="userSpaceOnUse" x1="-27.099" y1="573.678" x2="-27.099" y2="605.513" gradientTransform="matrix(8 0 0 -8 456.5679 4939.9922)">
		<stop  offset="0" style="stop-color:#006DF0"/>
		<stop  offset="1" style="stop-color:#00E7F0"/>
	</linearGradient>
	<path style="fill:url(#SVGID_3_);" d="M359.776,263.888h-240c-4.418,0-8,3.582-8,8s3.582,8,8,8h240c4.418,0,8-3.582,8-8
		S364.194,263.888,359.776,263.888z"/>
	
		<linearGradient id="SVGID_4_" gradientUnits="userSpaceOnUse" x1="-27.099" y1="573.678" x2="-27.099" y2="605.513" gradientTransform="matrix(8 0 0 -8 456.5679 4939.9922)">
		<stop  offset="0" style="stop-color:#006DF0"/>
		<stop  offset="1" style="stop-color:#00E7F0"/>
	</linearGradient>
	<path style="fill:url(#SVGID_4_);" d="M359.776,295.888h-240c-4.418,0-8,3.582-8,8s3.582,8,8,8h240c4.418,0,8-3.582,8-8
		S364.194,295.888,359.776,295.888z"/>
</g>
<g>
</g>
<g>
</g>
<g>
</g>
<g>
</g>
<g>
</g>
<g>
</g>
<g>
</g>
<g>
</g>
<g>
</g>
<g>
</g>
<g>
</g>
<g>
</g>
<g>
</g>
<g>
</g>
<g>
</g>
</svg>
