<?xml version="1.0" encoding="iso-8859-1"?>
<!-- Generator: Adobe Illustrator 19.0.0, SVG Export Plug-In . SVG Version: 6.00 Build 0)  -->
<svg version="1.1" id="Capa_1" xmlns="http://www.w3.org/2000/svg" xmlns:xlink="http://www.w3.org/1999/xlink" x="0px" y="0px"
	 viewBox="0 0 480 480" style="enable-background:new 0 0 480 480;" xml:space="preserve">
<linearGradient id="SVGID_1_" gradientUnits="userSpaceOnUse" x1="-26.8748" y1="557.1052" x2="-26.8748" y2="621.1392" gradientTransform="matrix(8 0 0 -8 454.9987 4941.0015)">
	<stop  offset="0" style="stop-color:#006DF0"/>
	<stop  offset="1" style="stop-color:#00E7F0"/>
</linearGradient>
<path style="fill:url(#SVGID_1_);" d="M472.864,176.608c-2.511-2.468-5.538-4.348-8.864-5.504V136
	c-0.075-66.243-53.757-119.925-120-120h-35.112C305.56,6.39,296.49-0.04,286.32,0h-92.64c-10.17-0.036-19.241,6.392-22.576,16H136
	C69.757,16.075,16.075,69.757,16,136v35.112c-9.605,3.334-16.033,12.401-16,22.568v92.64c-0.026,10.167,6.398,19.232,16,22.576V344
	c0.075,66.243,53.757,119.925,120,120h35.112c3.328,9.61,12.398,16.04,22.568,16h92.64c10.17,0.04,19.24-6.39,22.568-16H344
	c66.243-0.075,119.925-53.757,120-120v-35.112c9.605-3.334,16.033-12.401,16-22.568v-92.64
	C480.017,187.261,477.444,181.106,472.864,176.608z M367.2,254.112c-1.364,12.411-4.536,24.556-9.416,36.048
	c-3.227,7.556-7.165,14.789-11.76,21.6c-13.792,20.395-33.187,36.367-55.848,45.992c-32.047,13.584-68.233,13.584-100.28,0
	c-3.813-1.632-7.528-3.429-11.144-5.392c-21.594-11.745-39.331-29.484-51.072-51.08c-1.957-3.6-3.755-7.309-5.392-11.128
	c-13.665-32.044-13.665-68.276,0-100.32c3.227-7.556,7.165-14.789,11.76-21.6c13.792-20.395,33.187-36.367,55.848-45.992
	c31.635-13.385,67.312-13.543,99.064-0.44c0.4,0.168,0.8,0.28,1.216,0.448c3.813,1.632,7.528,3.429,11.144,5.392
	c21.594,11.745,39.331,29.484,51.072,51.08c1.957,3.6,3.755,7.309,5.392,11.128C364.538,205.705,368.013,222.765,368,240
	C367.991,244.715,367.724,249.426,367.2,254.112L367.2,254.112z M109.952,301.816c0.672,1.408,1.464,2.728,2.176,4.104
	c0.8,1.6,1.6,3.2,2.496,4.736c1.336,2.4,2.776,4.672,4.232,6.952c0.896,1.4,1.752,2.824,2.696,4.192
	c1.696,2.456,3.512,4.8,5.352,7.152c0.84,1.08,1.6,2.208,2.512,3.256c5.561,6.68,11.72,12.839,18.4,18.4
	c1.048,0.872,2.168,1.656,3.24,2.496c2.344,1.848,4.712,3.664,7.2,5.368c1.36,0.936,2.768,1.784,4.16,2.672
	c2.296,1.472,4.608,2.912,7,4.264c1.536,0.864,3.112,1.664,4.688,2.472c1.384,0.712,2.712,1.512,4.12,2.184l-6.672,66.4
	c-60.041-20.776-107.224-67.959-128-128L109.952,301.816z M370.048,178.184c-0.672-1.408-1.464-2.728-2.176-4.104
	c-0.8-1.6-1.6-3.2-2.496-4.736c-1.336-2.4-2.768-4.664-4.224-6.944c-0.904-1.408-1.76-2.832-2.704-4.208
	c-1.696-2.448-3.512-4.8-5.344-7.144c-0.848-1.08-1.6-2.2-2.52-3.256c-5.561-6.68-11.72-12.839-18.4-18.4
	c-1.048-0.872-2.168-1.656-3.24-2.496c-2.352-1.848-4.712-3.664-7.2-5.368c-1.36-0.936-2.768-1.784-4.16-2.68
	c-2.304-1.464-4.616-2.912-7-4.248c-1.536-0.872-3.112-1.672-4.688-2.48c-1.384-0.712-2.712-1.512-4.12-2.184l6.672-66.4
	c60.041,20.776,107.224,67.959,128,128L370.048,178.184z M448,136v20.936C425.36,99.848,380.153,54.641,323.064,32H344
	C401.41,32.066,447.934,78.59,448,136z M188,18.4c1.497-1.527,3.542-2.391,5.68-2.4h92.64c2.149,0,4.208,0.865,5.712,2.4
	c1.472,1.465,2.296,3.459,2.288,5.536l-0.04,0.888l-7.88,78.856c-0.8-0.264-1.552-0.44-2.32-0.688
	c-1.248-0.392-2.496-0.736-3.744-1.104c-3.2-0.928-6.4-1.76-9.664-2.464c-1.232-0.264-2.456-0.528-3.688-0.8
	c-3.496-0.664-7-1.184-10.528-1.6c-0.944-0.112-1.88-0.264-2.824-0.352c-9.047-0.847-18.153-0.847-27.2,0
	c-0.928,0.088-1.856,0.24-2.784,0.344c-3.544,0.408-7.064,0.928-10.576,1.6c-1.216,0.232-2.4,0.496-3.648,0.8
	c-3.256,0.704-6.488,1.536-9.688,2.472c-1.256,0.36-2.504,0.704-3.752,1.104c-0.8,0.248-1.552,0.416-2.312,0.68L185.72,24.8
	c0-0.104,0-0.8,0-0.888C185.716,21.845,186.537,19.861,188,18.4L188,18.4z M136,32h21c-11.798,4.669-23.175,10.338-34.008,16.944
	c-3.802,2.25-5.06,7.157-2.81,10.959c2.251,3.802,7.157,5.06,10.959,2.81c0.071-0.042,0.141-0.085,0.21-0.129
	c12.664-7.77,26.125-14.158,40.152-19.056l6.672,66.4c-1.384,0.664-2.696,1.448-4.064,2.152c-1.6,0.8-3.2,1.648-4.8,2.528
	c-2.352,1.328-4.624,2.744-6.888,4.192c-1.424,0.912-2.872,1.784-4.256,2.736c-2.4,1.68-4.76,3.48-7.08,5.296
	c-1.104,0.864-2.248,1.664-3.32,2.56c-6.682,5.559-12.841,11.718-18.4,18.4c-0.872,1.04-1.648,2.152-2.488,3.2
	c-1.848,2.352-3.672,4.712-5.376,7.2c-0.936,1.36-1.792,2.776-2.68,4.168c-1.464,2.296-2.904,4.6-4.248,6.984
	c-0.872,1.552-1.672,3.136-2.488,4.712c-0.712,1.384-1.504,2.704-2.176,4.112l-66.4-6.672c12.725-36.538,35.42-68.786,65.52-93.096
	c3.397-2.825,3.861-7.869,1.035-11.266c-2.777-3.339-7.71-3.853-11.115-1.158C69.206,90.059,46.151,121.384,32,156.944V136
	C32.066,78.59,78.59,32.066,136,32L136,32z M16,193.68c0.002-2.146,0.867-4.202,2.4-5.704c1.446-1.458,3.411-2.284,5.464-2.296
	h0.072h0.888l78.864,7.912c-0.24,0.696-0.4,1.408-0.624,2.104c-0.472,1.456-0.872,2.92-1.296,4.392
	c-0.832,2.864-1.573,5.747-2.224,8.648c-0.344,1.544-0.68,3.096-0.976,4.656c-0.568,3.024-1.008,6.056-1.384,9.112
	c-0.168,1.376-0.384,2.752-0.512,4.136C96.256,231.096,96,235.536,96,240c0,4.464,0.256,8.904,0.664,13.32
	c0.128,1.384,0.344,2.752,0.512,4.128c0.376,3.064,0.8,6.104,1.392,9.128c0.288,1.552,0.616,3.096,0.96,4.64
	c0.656,2.912,1.403,5.808,2.24,8.688c0.424,1.456,0.8,2.904,1.288,4.352c0.224,0.696,0.384,1.408,0.624,2.112L24.8,294.28
	c-0.12,0-0.8,0-0.888,0.04c-2.08,0.029-4.078-0.812-5.512-2.32c-1.527-1.497-2.391-3.542-2.4-5.68L16,193.68z M32,344v-20.936
	C54.641,380.153,99.848,425.36,156.936,448H136C78.59,447.934,32.066,401.41,32,344z M294.32,456.072
	c0.008,2.077-0.816,4.071-2.288,5.536c-1.504,1.535-3.563,2.4-5.712,2.4h-92.64c-2.149,0-4.208-0.865-5.712-2.4
	c-1.472-1.465-2.296-3.459-2.288-5.536v-0.888l7.92-78.864c0.688,0.232,1.392,0.392,2.08,0.616c1.512,0.488,3.04,0.904,4.568,1.344
	c2.72,0.8,5.456,1.496,8.216,2.112c1.771,0.4,3.541,0.768,5.312,1.104c2.608,0.48,5.224,0.856,7.856,1.192
	c1.808,0.232,3.608,0.504,5.424,0.664c3.328,0.296,6.664,0.432,10.008,0.504c0.968,0,1.928,0.144,2.904,0.144
	c0.976,0,1.936-0.128,2.904-0.144c3.344-0.072,6.68-0.208,10.008-0.504c1.816-0.16,3.616-0.432,5.424-0.664
	c2.632-0.336,5.248-0.712,7.856-1.192c1.784-0.336,3.544-0.704,5.312-1.104c2.76-0.616,5.488-1.328,8.208-2.112
	c1.536-0.44,3.072-0.856,4.592-1.352c0.68-0.224,1.384-0.376,2.064-0.608l7.912,78.864c0,0.104,0,0.712,0.04,0.8L294.32,456.072z
	 M344,448h-21c11.429-4.536,22.466-10.002,33-16.344c3.804-2.247,5.066-7.153,2.819-10.957c-2.247-3.804-7.153-5.066-10.957-2.819
	c-0.053,0.031-0.106,0.063-0.158,0.096c-12.398,7.518-25.55,13.717-39.24,18.496l-6.672-66.4c1.384-0.664,2.696-1.448,4.064-2.152
	c1.6-0.8,3.2-1.648,4.8-2.528c2.352-1.328,4.624-2.744,6.888-4.192c1.424-0.912,2.872-1.784,4.256-2.736
	c2.4-1.68,4.8-3.48,7.08-5.296c1.104-0.864,2.248-1.664,3.32-2.56c6.682-5.559,12.841-11.718,18.4-18.4
	c0.872-1.04,1.648-2.152,2.488-3.2c1.848-2.352,3.672-4.712,5.376-7.2c0.936-1.36,1.792-2.776,2.68-4.168
	c1.464-2.296,2.904-4.6,4.248-6.984c0.872-1.552,1.672-3.136,2.488-4.712c0.712-1.384,1.504-2.704,2.176-4.112l66.4,6.672
	c-12.719,36.533-35.403,68.78-65.488,93.096c-3.513,2.679-4.19,7.699-1.511,11.212c2.679,3.513,7.699,4.19,11.212,1.511
	c0.129-0.098,0.255-0.201,0.378-0.307c29.745-24.08,52.8-55.403,66.952-90.96V344C447.934,401.41,401.41,447.934,344,448L344,448z
	 M464,286.32c-0.002,2.146-0.867,4.202-2.4,5.704c-1.463,1.477-3.457,2.304-5.536,2.296l-0.888-0.04l-78.856-7.88
	c0.24-0.696,0.392-1.4,0.624-2.096c0.472-1.464,0.872-2.936,1.296-4.408c0.832-2.864,1.573-5.741,2.224-8.632
	c0.344-1.552,0.68-3.104,0.976-4.672c0.568-3.008,1.008-6.04,1.376-9.088c0.176-1.392,0.392-2.768,0.52-4.16
	c0.408-4.448,0.664-8.88,0.664-13.344s-0.256-8.904-0.664-13.32c-0.128-1.384-0.344-2.752-0.512-4.128
	c-0.376-3.064-0.8-6.104-1.392-9.128c-0.288-1.552-0.616-3.096-0.96-4.64c-0.656-2.912-1.403-5.808-2.24-8.688
	c-0.424-1.456-0.8-2.904-1.288-4.352c-0.224-0.696-0.384-1.408-0.624-2.112l78.864-7.912h0.888c2.061,0.075,4.026,0.89,5.536,2.296
	c1.533,1.502,2.398,3.558,2.4,5.704L464,286.32z"/>
<g>
</g>
<g>
</g>
<g>
</g>
<g>
</g>
<g>
</g>
<g>
</g>
<g>
</g>
<g>
</g>
<g>
</g>
<g>
</g>
<g>
</g>
<g>
</g>
<g>
</g>
<g>
</g>
<g>
</g>
</svg>
