<?xml version="1.0" encoding="iso-8859-1"?>
<!-- Generator: Adobe Illustrator 19.0.0, SVG Export Plug-In . SVG Version: 6.00 Build 0)  -->
<svg version="1.1" id="Capa_1" xmlns="http://www.w3.org/2000/svg" xmlns:xlink="http://www.w3.org/1999/xlink" x="0px" y="0px"
	 viewBox="0 0 480 480" style="enable-background:new 0 0 480 480;" xml:space="preserve">
<linearGradient id="SVGID_1_" gradientUnits="userSpaceOnUse" x1="-21.8755" y1="557.868" x2="-21.8755" y2="611.935" gradientTransform="matrix(8 0 0 -8 455 4941)">
	<stop  offset="0" style="stop-color:#006DF0"/>
	<stop  offset="1" style="stop-color:#00E7F0"/>
</linearGradient>
<path style="fill:url(#SVGID_1_);" d="M428.448,197.752c0.549-2.05,0.262-4.234-0.8-6.072l-32-55.36
	c-2.209-3.826-7.102-5.137-10.928-2.928L320,170.784V96c0-4.418-3.582-8-8-8h-64c-4.418,0-8,3.582-8,8v74.784l-64.72-37.392
	c-3.826-2.209-8.719-0.898-10.928,2.928l-32,55.36c-2.209,3.826-0.898,8.719,2.928,10.928L200.072,240l-64.8,37.392
	c-3.826,2.209-5.137,7.102-2.928,10.928l32,55.36c2.209,3.826,7.102,5.137,10.928,2.928L240,309.216V384c0,4.418,3.582,8,8,8l0,0h64
	c4.418,0,8-3.582,8-8v-74.784l64.72,37.392c3.826,2.209,8.719,0.898,10.928-2.928l32-55.36c2.209-3.826,0.898-8.719-2.928-10.928
	L359.928,240l64.8-37.392C426.562,201.546,427.9,199.8,428.448,197.752L428.448,197.752z M339.92,233.072
	c-3.826,2.209-5.137,7.102-2.928,10.928c0.702,1.216,1.712,2.226,2.928,2.928l69.864,40.32l-24,41.504L316,288.432
	c-3.826-2.209-8.719-0.898-10.928,2.928c-0.702,1.216-1.072,2.596-1.072,4V376h-48v-80.64c0-4.418-3.582-8-8-8
	c-1.404,0-2.784,0.37-4,1.072l-69.8,40.32l-24-41.504l69.864-40.32c3.826-2.209,5.137-7.102,2.928-10.928
	c-0.702-1.216-1.712-2.226-2.928-2.928l-69.864-40.32l24-41.504l69.8,40.32c3.826,2.209,8.719,0.898,10.928-2.928
	c0.702-1.216,1.072-2.596,1.072-4V104h48v80.64c0,4.418,3.582,8,8,8c1.404,0,2.784-0.37,4-1.072l69.8-40.32l24,41.504
	L339.92,233.072z"/>
<linearGradient id="SVGID_2_" gradientUnits="userSpaceOnUse" x1="-26.875" y1="557.868" x2="-26.875" y2="611.935" gradientTransform="matrix(8 0 0 -8 455 4941)">
	<stop  offset="0" style="stop-color:#006DF0"/>
	<stop  offset="1" style="stop-color:#00E7F0"/>
</linearGradient>
<path style="fill:url(#SVGID_2_);" d="M440,40H120c-22.08,0.026-39.974,17.92-40,40v8H48V0H0v480h48v-88h32v8
	c0.026,22.08,17.92,39.974,40,40h320c22.08-0.026,39.974-17.92,40-40V80C479.974,57.92,462.08,40.026,440,40z M32,464H16V16h16V464z
	 M48,376V104h32v272H48z M464,400c0,13.255-10.745,24-24,24H120c-13.255,0-24-10.745-24-24V80c0-13.255,10.745-24,24-24h320
	c13.255,0,24,10.745,24,24V400z"/>
<g>
</g>
<g>
</g>
<g>
</g>
<g>
</g>
<g>
</g>
<g>
</g>
<g>
</g>
<g>
</g>
<g>
</g>
<g>
</g>
<g>
</g>
<g>
</g>
<g>
</g>
<g>
</g>
<g>
</g>
</svg>
