<?xml version="1.0" encoding="iso-8859-1"?>
<!-- Generator: Adobe Illustrator 19.0.0, SVG Export Plug-In . SVG Version: 6.00 Build 0)  -->
<svg version="1.1" id="Capa_1" xmlns="http://www.w3.org/2000/svg" xmlns:xlink="http://www.w3.org/1999/xlink" x="0px" y="0px"
	 viewBox="0 0 480.196 480.196" style="enable-background:new 0 0 480.196 480.196;" xml:space="preserve">
<linearGradient id="SVGID_1_" gradientUnits="userSpaceOnUse" x1="-58.784" y1="559.2813" x2="-58.784" y2="617.8213" gradientTransform="matrix(8 0 0 -8 566.3628 4942.7666)">
	<stop  offset="0" style="stop-color:#006DF0"/>
	<stop  offset="1" style="stop-color:#00E7F0"/>
</linearGradient>
<path style="fill:url(#SVGID_1_);" d="M136.091,240.196h-16v-112c0-0.353-0.024-0.706-0.072-1.056l-16-120
	c-0.591-4.379-4.62-7.449-8.999-6.857c-3.568,0.482-6.375,3.289-6.857,6.857l-16,120c-0.048,0.35-0.072,0.703-0.072,1.056v112h-16
	c-4.418,0-8,3.582-8,8v192c0.026,22.08,17.92,39.974,40,40h16c22.08-0.026,39.974-17.92,40-40v-192
	C144.091,243.778,140.509,240.196,136.091,240.196z M88.091,128.724l8-60l8,60v111.472h-16V128.724z M128.091,440.196
	c0,13.255-10.745,24-24,24h-16c-13.255,0-24-10.745-24-24v-184h24v136c0,4.418,3.582,8,8,8c4.418,0,8-3.582,8-8v-136h24V440.196z"/>
<g>
	
		<linearGradient id="SVGID_2_" gradientUnits="userSpaceOnUse" x1="-24.7831" y1="559.2813" x2="-24.7831" y2="617.8213" gradientTransform="matrix(8 0 0 -8 566.3628 4942.7666)">
		<stop  offset="0" style="stop-color:#006DF0"/>
		<stop  offset="1" style="stop-color:#00E7F0"/>
	</linearGradient>
	<path style="fill:url(#SVGID_2_);" d="M376.843,128.364l54.496-116.8c1.885-3.996,0.173-8.763-3.823-10.648
		c-3.474-1.638-7.621-0.577-9.881,2.528l-81.8,111.576c-5.014,6.87-7.724,15.151-7.744,23.656v101.52h-16c-4.418,0-8,3.582-8,8v192
		c0.026,22.08,17.92,39.974,40,40h16c22.08-0.026,39.974-17.92,40-40v-192c0-4.418-3.582-8-8-8h-16V131.74
		C376.09,130.573,376.347,129.421,376.843,128.364L376.843,128.364z M384.091,440.196c0,13.255-10.745,24-24,24h-16
		c-13.255,0-24-10.745-24-24v-184h24v136c0,4.418,3.582,8,8,8s8-3.582,8-8v-136h24V440.196z M344.091,240.196v-101.52
		c0.009-5.103,1.636-10.072,4.648-14.192l33.704-45.968l-20.104,43.08c-1.477,3.178-2.244,6.64-2.248,10.144v108.456H344.091z"/>
	
		<linearGradient id="SVGID_3_" gradientUnits="userSpaceOnUse" x1="-42.7839" y1="559.2813" x2="-42.7839" y2="617.8213" gradientTransform="matrix(8 0 0 -8 566.3628 4942.7666)">
		<stop  offset="0" style="stop-color:#006DF0"/>
		<stop  offset="1" style="stop-color:#00E7F0"/>
	</linearGradient>
	<path style="fill:url(#SVGID_3_);" d="M280.091,56.196C280.199,25.269,255.215,0.109,224.288,0S168.2,24.876,168.092,55.804
		c-0.076,21.701,12.392,41.492,31.999,50.793v133.6h-16c-4.418,0-8,3.582-8,8v192c0.026,22.08,17.92,39.974,40,40h16
		c22.08-0.026,39.974-17.92,40-40v-192c0-4.418-3.582-8-8-8h-16v-133.6C267.608,97.399,280.07,77.771,280.091,56.196z
		 M184.091,56.196c-0.027-22.091,17.86-40.022,39.951-40.049c22.091-0.027,40.022,17.86,40.049,39.951
		c0.021,16.996-10.701,32.15-26.736,37.786c-6.407,2.288-13.297,2.881-20,1.72c-2.256-0.388-4.473-0.977-6.624-1.76
		C194.747,88.239,184.059,73.135,184.091,56.196L184.091,56.196z M256.091,440.196c0,13.255-10.745,24-24,24h-16
		c-13.255,0-24-10.745-24-24v-184h24v136c0,4.418,3.582,8,8,8s8-3.582,8-8v-136h24V440.196z M216.091,240.196V111.62
		c2.56,0.361,5.142,0.545,7.728,0.552h0.272c0,0,0.184,0,0.28,0c2.583-0.007,5.162-0.191,7.72-0.552v128.576H216.091z"/>
	
		<linearGradient id="SVGID_4_" gradientUnits="userSpaceOnUse" x1="-42.784" y1="559.2813" x2="-42.784" y2="617.8213" gradientTransform="matrix(8 0 0 -8 566.3628 4942.7666)">
		<stop  offset="0" style="stop-color:#006DF0"/>
		<stop  offset="1" style="stop-color:#00E7F0"/>
	</linearGradient>
	<path style="fill:url(#SVGID_4_);" d="M248.091,56.196c0-13.255-10.745-24-24-24c-13.255,0-24,10.745-24,24s10.745,24,24,24
		C237.346,80.196,248.091,69.451,248.091,56.196z M216.091,56.196c0-4.418,3.582-8,8-8s8,3.582,8,8s-3.582,8-8,8
		S216.091,60.615,216.091,56.196z"/>
</g>
<linearGradient id="SVGID_5_" gradientUnits="userSpaceOnUse" x1="-58.784" y1="559.2813" x2="-58.784" y2="617.8213" gradientTransform="matrix(8 0 0 -8 566.3628 4942.7666)">
	<stop  offset="0" style="stop-color:#006DF0"/>
	<stop  offset="1" style="stop-color:#00E7F0"/>
</linearGradient>
<path style="fill:url(#SVGID_5_);" d="M96.091,416.196c-4.418,0-8,3.582-8,8v16c0,4.418,3.582,8,8,8c4.418,0,8-3.582,8-8v-16
	C104.091,419.778,100.509,416.196,96.091,416.196z"/>
<g>
	
		<linearGradient id="SVGID_6_" gradientUnits="userSpaceOnUse" x1="-42.784" y1="559.2813" x2="-42.784" y2="617.8213" gradientTransform="matrix(8 0 0 -8 566.3628 4942.7666)">
		<stop  offset="0" style="stop-color:#006DF0"/>
		<stop  offset="1" style="stop-color:#00E7F0"/>
	</linearGradient>
	<path style="fill:url(#SVGID_6_);" d="M224.091,416.196c-4.418,0-8,3.582-8,8v16c0,4.418,3.582,8,8,8s8-3.582,8-8v-16
		C232.091,419.778,228.509,416.196,224.091,416.196z"/>
	
		<linearGradient id="SVGID_7_" gradientUnits="userSpaceOnUse" x1="-26.784" y1="559.2813" x2="-26.784" y2="617.8213" gradientTransform="matrix(8 0 0 -8 566.3628 4942.7666)">
		<stop  offset="0" style="stop-color:#006DF0"/>
		<stop  offset="1" style="stop-color:#00E7F0"/>
	</linearGradient>
	<path style="fill:url(#SVGID_7_);" d="M352.091,416.196c-4.418,0-8,3.582-8,8v16c0,4.418,3.582,8,8,8s8-3.582,8-8v-16
		C360.091,419.778,356.509,416.196,352.091,416.196z"/>
</g>
<g>
</g>
<g>
</g>
<g>
</g>
<g>
</g>
<g>
</g>
<g>
</g>
<g>
</g>
<g>
</g>
<g>
</g>
<g>
</g>
<g>
</g>
<g>
</g>
<g>
</g>
<g>
</g>
<g>
</g>
</svg>
