<?xml version="1.0" encoding="iso-8859-1"?>
<!-- Generator: Adobe Illustrator 19.0.0, SVG Export Plug-In . SVG Version: 6.00 Build 0)  -->
<svg version="1.1" id="Capa_1" xmlns="http://www.w3.org/2000/svg" xmlns:xlink="http://www.w3.org/1999/xlink" x="0px" y="0px"
	 viewBox="0 0 472.936 472.936" style="enable-background:new 0 0 472.936 472.936;" xml:space="preserve">
<linearGradient id="SVGID_1_" gradientUnits="userSpaceOnUse" x1="-30.4455" y1="533.215" x2="-30.4455" y2="589.043" gradientTransform="matrix(8 0 0 -8 480.032 4711.0322)">
	<stop  offset="0" style="stop-color:#006DF0"/>
	<stop  offset="1" style="stop-color:#00E7F0"/>
</linearGradient>
<path style="fill:url(#SVGID_1_);" d="M440.08,55.752c-43.736-43.741-114.651-43.745-158.392-0.008
	c-0.003,0.003-0.005,0.005-0.008,0.008l-45.256,45.224L191.2,55.752C147.464,12.011,76.549,12.007,32.808,55.744
	c-0.003,0.003-0.005,0.005-0.008,0.008C12,76.552,0,109.752,0,146.824s11.944,70.4,32.712,91.2l203.712,211.968l203.712-211.944
	c20.848-20.888,32.8-54.128,32.8-91.2S460.92,76.552,440.08,55.752z M44.08,67.064c37.478-37.502,98.262-37.522,135.764-0.044
	c0.015,0.014,0.029,0.029,0.044,0.044l56.536,56.536l56.536-56.536c37.478-37.502,98.262-37.522,135.764-0.043
	c0.014,0.014,0.029,0.029,0.043,0.043c17.6,17.6,28.12,47.376,28.136,79.752c0.245,20.681-4.442,41.123-13.672,59.632h-66.104
	l-44.44-80l-95.624,159.384L140.688,93.088l-61.064,113.36H29.616c-9.229-18.507-13.915-38.945-13.672-59.624
	C15.96,114.448,26.472,84.632,44.08,67.064L44.08,67.064z M236.424,426.904L44.08,226.792c-1.336-1.336-2.544-2.872-3.8-4.344
	h48.944l50.96-94.64l95.6,191.256l96.376-160.616l35.56,64h64.848c-1.256,1.472-2.464,3.008-3.8,4.344L236.424,426.904z"/>
<g>
</g>
<g>
</g>
<g>
</g>
<g>
</g>
<g>
</g>
<g>
</g>
<g>
</g>
<g>
</g>
<g>
</g>
<g>
</g>
<g>
</g>
<g>
</g>
<g>
</g>
<g>
</g>
<g>
</g>
</svg>
