<?xml version="1.0" encoding="iso-8859-1"?>
<!-- Generator: Adobe Illustrator 19.0.0, SVG Export Plug-In . SVG Version: 6.00 Build 0)  -->
<svg version="1.1" id="Capa_1" xmlns="http://www.w3.org/2000/svg" xmlns:xlink="http://www.w3.org/1999/xlink" x="0px" y="0px"
	 viewBox="0 0 480.052 480.052" style="enable-background:new 0 0 480.052 480.052;" xml:space="preserve">
<linearGradient id="SVGID_1_" gradientUnits="userSpaceOnUse" x1="-21.6183" y1="557.1569" x2="-21.6183" y2="621.9369" gradientTransform="matrix(8 0 0 -8 412.9726 4941.4668)">
	<stop  offset="0" style="stop-color:#006DF0"/>
	<stop  offset="1" style="stop-color:#00E7F0"/>
</linearGradient>
<path style="fill:url(#SVGID_1_);" d="M342.004,480.052h-160c-13.255,0-24-10.745-24-24v-48c0-4.418-3.582-8-8-8h-56
	c-13.255,0-24-10.745-24-24v-64c0-4.418-3.582-8-8-8h-20c-13.255-0.002-23.999-10.748-23.997-24.003
	c0-3.397,0.722-6.756,2.117-9.853l43.704-96.992C78.64,63.745,179.382-12.982,288.841,1.83s186.186,115.554,171.374,225.013
	c-5.872,43.392-25.822,83.658-56.787,114.617c-10.132,10.138-21.34,19.14-33.424,26.848c-2.43,1.463-3.94,4.069-4,6.904v80.84
	C366.004,469.307,355.259,480.052,342.004,480.052z M262.004,16.052C169.558,16.157,91.507,84.76,79.54,176.428
	c-0.101,0.785-0.317,1.55-0.64,2.272l-44.152,98.064c-1.816,4.028-0.023,8.765,4.005,10.581c1.022,0.461,2.13,0.702,3.251,0.707h20
	c13.255,0,24,10.745,24,24v64c0,4.418,3.582,8,8,8h56c13.255,0,24,10.745,24,24v48c0,4.418,3.582,8,8,8h160c4.418,0,8-3.582,8-8
	v-80.8c0.05-8.305,4.353-16.005,11.4-20.4c11.101-7.077,21.397-15.345,30.704-24.656c71.877-71.836,71.909-188.339,0.073-260.215
	C357.663,35.444,310.833,16.043,262.004,16.052z"/>
<g>
	
		<linearGradient id="SVGID_2_" gradientUnits="userSpaceOnUse" x1="-18.8769" y1="557.1569" x2="-18.8769" y2="621.9369" gradientTransform="matrix(8 0 0 -8 412.9726 4941.4668)">
		<stop  offset="0" style="stop-color:#006DF0"/>
		<stop  offset="1" style="stop-color:#00E7F0"/>
	</linearGradient>
	<path style="fill:url(#SVGID_2_);" d="M331.324,315.58c-4.418,0-8-3.581-8.001-7.999c0-2.732,1.394-5.275,3.697-6.745
		c7.152-4.561,13.786-9.889,19.784-15.888c46.904-46.821,46.972-122.801,0.15-169.706s-122.801-46.972-169.706-0.15
		c-18.768,18.735-30.802,43.159-34.221,69.456l-1.208,9.464c-0.561,4.385-4.571,7.485-8.956,6.924
		c-4.385-0.561-7.485-4.571-6.924-8.956l1.216-9.464c9.666-74.486,77.885-127.033,152.371-117.367
		c74.486,9.666,127.033,77.885,117.367,152.371c-3.868,29.807-17.502,57.493-38.77,78.732c-6.824,6.828-14.372,12.89-22.512,18.08
		C334.332,315.15,332.843,315.583,331.324,315.58L331.324,315.58z"/>
	
		<linearGradient id="SVGID_3_" gradientUnits="userSpaceOnUse" x1="-18.8711" y1="557.1569" x2="-18.8711" y2="621.9369" gradientTransform="matrix(8 0 0 -8 412.9726 4941.4668)">
		<stop  offset="0" style="stop-color:#006DF0"/>
		<stop  offset="1" style="stop-color:#00E7F0"/>
	</linearGradient>
	<path style="fill:url(#SVGID_3_);" d="M262.004,264.052c-13.255,0-24-10.745-24-24v-24h-24c-13.255,0-24-10.745-24-24
		s10.745-24,24-24h24v-24c0-13.255,10.745-24,24-24c13.255,0,24,10.745,24,24v24h24c13.255,0,24,10.745,24,24s-10.745,24-24,24h-24
		v24C286.004,253.307,275.259,264.052,262.004,264.052z M214.004,184.052c-4.418,0-8,3.582-8,8s3.582,8,8,8h32c4.418,0,8,3.582,8,8
		v32c0,4.418,3.582,8,8,8s8-3.582,8-8v-32c0-4.418,3.582-8,8-8h32c4.418,0,8-3.582,8-8s-3.582-8-8-8h-32c-4.418,0-8-3.582-8-8v-32
		c0-4.418-3.582-8-8-8s-8,3.582-8,8v32c0,4.418-3.582,8-8,8H214.004z"/>
</g>
<g>
</g>
<g>
</g>
<g>
</g>
<g>
</g>
<g>
</g>
<g>
</g>
<g>
</g>
<g>
</g>
<g>
</g>
<g>
</g>
<g>
</g>
<g>
</g>
<g>
</g>
<g>
</g>
<g>
</g>
</svg>
