<?xml version="1.0" encoding="iso-8859-1"?>
<!-- Generator: Adobe Illustrator 19.0.0, SVG Export Plug-In . SVG Version: 6.00 Build 0)  -->
<svg version="1.1" id="Capa_1" xmlns="http://www.w3.org/2000/svg" xmlns:xlink="http://www.w3.org/1999/xlink" x="0px" y="0px"
	 viewBox="0 0 479.978 479.978" style="enable-background:new 0 0 479.978 479.978;" xml:space="preserve">
<linearGradient id="SVGID_1_" gradientUnits="userSpaceOnUse" x1="-28.6724" y1="557.1635" x2="-28.6724" y2="619.6515" gradientTransform="matrix(8 0 0 -8 469.3685 4940.8062)">
	<stop  offset="0" style="stop-color:#006DF0"/>
	<stop  offset="1" style="stop-color:#00E7F0"/>
</linearGradient>
<path style="fill:url(#SVGID_1_);" d="M403.355,58.554c-78.118-78.091-204.751-78.07-282.843,0.048
	C89.581,89.545,69.649,129.776,63.771,173.13l-43.664,96.992c-5.443,12.086-0.059,26.296,12.027,31.739
	c3.085,1.39,6.429,2.111,9.813,2.117h20c4.418,0,8,3.582,8,8v64c0,13.255,10.745,24,24,24h56c4.418,0,8,3.582,8,8v48
	c0,13.255,10.745,24,24,24l0,0h160c13.255,0,24-10.745,24-24l0,0v-80.8c0.062-2.837,1.571-5.445,4-6.912
	c92.947-59.581,119.995-183.23,60.413-276.177C422.592,79.972,413.538,68.728,403.355,58.554L403.355,58.554z M392.051,330.082
	c-9.306,9.309-19.599,17.577-30.696,24.656c-7.069,4.394-11.379,12.117-11.408,20.44v80.8c0,4.418-3.582,8-8,8h-160
	c-4.418,0-8-3.582-8-8v-48c0-13.255-10.745-24-24-24h-56c-4.418,0-8-3.582-8-8v-64c0-13.255-10.745-24-24-24h-20
	c-4.418-0.003-7.998-3.587-7.995-8.005c0.001-1.132,0.242-2.251,0.707-3.283l44.184-98.072c0.324-0.719,0.539-1.482,0.64-2.264
	C92.518,75.573,184.783,4.441,285.564,17.475s171.914,105.3,158.88,206.081C439.229,263.878,420.805,301.337,392.051,330.082z"/>
<linearGradient id="SVGID_2_" gradientUnits="userSpaceOnUse" x1="-25.8773" y1="557.1635" x2="-25.8773" y2="619.6515" gradientTransform="matrix(8 0 0 -8 469.3685 4940.8062)">
	<stop  offset="0" style="stop-color:#006DF0"/>
	<stop  offset="1" style="stop-color:#00E7F0"/>
</linearGradient>
<path style="fill:url(#SVGID_2_);" d="M350.907,256.834c-1.784-0.2-44.496-5.072-68.8,19.264
	c-5.135,5.233-9.258,11.371-12.16,18.104V227.29l71.2-71.2c18.747-18.745,18.749-49.137,0.004-67.884s-49.137-18.749-67.884-0.004
	l-11.32,11.32L250.635,88.21c-18.747-18.747-49.141-18.747-67.888,0s-18.747,49.141,0,67.888l71.2,71.2v65.112
	c-2.817-6.038-6.642-11.552-11.312-16.304c-24.36-24.352-67.056-19.48-68.848-19.264c-3.659,0.441-6.543,3.325-6.984,6.984
	c-0.216,1.808-5.08,44.496,19.264,68.848c17.12,17.128,43.336,19.792,58,19.792c4.76,0,8.264-0.28,9.88-0.432v63.944
	c0,4.418,3.582,8,8,8s8-3.582,8-8v-64c3.548,0.369,7.113,0.542,10.68,0.52c14.664,0,40.872-2.664,58.008-19.792
	c24.344-24.352,19.48-67.04,19.256-68.848C357.467,260.184,354.579,257.28,350.907,256.834L350.907,256.834z M197.379,321.354
	c-13.936-13.928-15.296-37.552-15.056-49c11.344-0.272,35.064,1.12,49,15.056c13.936,13.936,15.296,37.6,15.056,49.024
	C234.955,336.666,211.371,335.346,197.379,321.354L197.379,321.354z M194.067,99.522c12.508-12.471,32.748-12.471,45.256,0
	l16.968,16.968c3.124,3.123,8.188,3.123,11.312,0l16.968-16.968c12.497-12.497,32.759-12.497,45.256,0s12.497,32.759,0,45.256
	l-67.88,67.888l-67.88-67.888C181.592,132.272,181.592,112.028,194.067,99.522z M327.323,321.354
	c-13.944,13.944-37.6,15.312-49.024,15.056c-0.256-11.424,1.08-35,15.08-49s37.6-15.272,49.008-15.056
	C342.619,283.802,341.251,307.426,327.323,321.354z"/>
<g>
</g>
<g>
</g>
<g>
</g>
<g>
</g>
<g>
</g>
<g>
</g>
<g>
</g>
<g>
</g>
<g>
</g>
<g>
</g>
<g>
</g>
<g>
</g>
<g>
</g>
<g>
</g>
<g>
</g>
</svg>
