<?xml version="1.0" encoding="iso-8859-1"?>
<!-- Generator: Adobe Illustrator 19.0.0, SVG Export Plug-In . SVG Version: 6.00 Build 0)  -->
<svg version="1.1" id="Capa_1" xmlns="http://www.w3.org/2000/svg" xmlns:xlink="http://www.w3.org/1999/xlink" x="0px" y="0px"
	 viewBox="0 0 481.129 481.129" style="enable-background:new 0 0 481.129 481.129;" xml:space="preserve">
<linearGradient id="SVGID_1_" gradientUnits="userSpaceOnUse" x1="-14.1174" y1="558.075" x2="-14.1174" y2="619.506" gradientTransform="matrix(8 0 0 -8 435.1999 4941)">
	<stop  offset="0" style="stop-color:#006DF0"/>
	<stop  offset="1" style="stop-color:#00E7F0"/>
</linearGradient>
<path style="fill:url(#SVGID_1_);" d="M478.181,237.288v-0.04c-2.147-38.251-33.777-68.175-72.088-68.2
	c-2.914,0.019-5.825,0.227-8.712,0.624c-7.665,0.908-15.123,3.096-22.064,6.472c-2.747,1.346-4.486,4.141-4.48,7.2V298.84
	c0.001,3.068,1.757,5.865,4.52,7.2c5.749,2.773,11.847,4.754,18.128,5.888c-16.136,37.981-46.374,68.225-84.352,84.368
	c-1.56-8.684-4.741-16.997-9.376-24.504c-1.457-2.356-4.03-3.791-6.8-3.792h-109.4c-2.767-0.002-5.339,1.426-6.8,3.776
	c-5.302,8.556-8.671,18.167-9.872,28.16c-0.428,3.038-0.65,6.101-0.664,9.168c0.103,38.258,30.032,69.794,68.232,71.896
	c1.208,0.064,2.544,0.128,3.808,0.128c1.186,0.01,2.372-0.046,3.552-0.168c129.836-0.996,234.94-105.823,236.28-235.656
	c0.136-1.384,0.208-2.832,0.208-4.224C478.301,239.816,478.245,238.488,478.181,237.288L478.181,237.288z M462.133,244.424
	C461.025,366.038,362.518,464.253,240.901,465c-1.864,0.136-3.736,0.136-5.6,0c-29.662-1.621-52.929-26.063-53.088-55.768
	c0.094-8.754,2.147-17.375,6.008-25.232h100.072c3.749,7.356,5.781,15.466,5.944,23.72c0.082,4.418,3.729,7.932,8.147,7.851
	c0.861-0.016,1.714-0.171,2.525-0.459c50.221-17.663,89.713-57.161,107.368-107.384c1.473-4.166-0.71-8.736-4.876-10.209
	c-0.794-0.281-1.626-0.434-2.468-0.455c-6.187-0.127-12.307-1.298-18.104-3.464V188.584c4.11-1.528,8.389-2.556,12.744-3.064
	c2.214-0.301,4.445-0.459,6.68-0.472c29.755,0.081,54.288,23.347,55.944,53.056c0.056,0.944,0.104,1.984,0.104,2.976
	S462.261,242.888,462.133,244.424L462.133,244.424z"/>
<g>
	
		<linearGradient id="SVGID_2_" gradientUnits="userSpaceOnUse" x1="-33.0464" y1="558.075" x2="-33.0464" y2="619.506" gradientTransform="matrix(8 0 0 -8 435.1999 4941)">
		<stop  offset="0" style="stop-color:#006DF0"/>
		<stop  offset="1" style="stop-color:#00E7F0"/>
	</linearGradient>
	<path style="fill:url(#SVGID_2_);" d="M330.829,336c4.418,0,8-3.582,8-8V168c0-92.784-75.216-168-168-168s-168,75.216-168,168
		s75.216,168,168,168H330.829z M18.829,168c0-83.947,68.053-152,152-152s152,68.053,152,152v152h-152
		C86.92,319.907,18.921,251.909,18.829,168z"/>
	
		<linearGradient id="SVGID_3_" gradientUnits="userSpaceOnUse" x1="-33.0464" y1="558.075" x2="-33.0464" y2="619.506" gradientTransform="matrix(8 0 0 -8 435.1999 4941)">
		<stop  offset="0" style="stop-color:#006DF0"/>
		<stop  offset="1" style="stop-color:#00E7F0"/>
	</linearGradient>
	<path style="fill:url(#SVGID_3_);" d="M258.829,168c0-48.601-39.399-88-88-88s-88,39.399-88,88s39.399,88,88,88
		C219.406,255.943,258.771,216.577,258.829,168z M98.829,168c0-39.764,32.236-72,72-72s72,32.236,72,72s-32.236,72-72,72
		C131.082,239.956,98.873,207.746,98.829,168z"/>
	
		<linearGradient id="SVGID_4_" gradientUnits="userSpaceOnUse" x1="-33.0464" y1="558.075" x2="-33.0464" y2="619.506" gradientTransform="matrix(8 0 0 -8 435.1999 4941)">
		<stop  offset="0" style="stop-color:#006DF0"/>
		<stop  offset="1" style="stop-color:#00E7F0"/>
	</linearGradient>
	<path style="fill:url(#SVGID_4_);" d="M178.829,216v-40h40c4.418,0,8-3.582,8-8s-3.582-8-8-8h-40v-40c0-4.418-3.582-8-8-8
		s-8,3.582-8,8v40h-40c-4.418,0-8,3.582-8,8s3.582,8,8,8h40v40c0,4.418,3.582,8,8,8S178.829,220.418,178.829,216z"/>
</g>
<g>
</g>
<g>
</g>
<g>
</g>
<g>
</g>
<g>
</g>
<g>
</g>
<g>
</g>
<g>
</g>
<g>
</g>
<g>
</g>
<g>
</g>
<g>
</g>
<g>
</g>
<g>
</g>
<g>
</g>
</svg>
