<?xml version="1.0" encoding="iso-8859-1"?>
<!-- Generator: Adobe Illustrator 19.0.0, SVG Export Plug-In . SVG Version: 6.00 Build 0)  -->
<svg version="1.1" id="Capa_1" xmlns="http://www.w3.org/2000/svg" xmlns:xlink="http://www.w3.org/1999/xlink" x="0px" y="0px"
	 viewBox="0 0 480 480" style="enable-background:new 0 0 480 480;" xml:space="preserve">
<linearGradient id="SVGID_1_" gradientUnits="userSpaceOnUse" x1="-26.875" y1="561.405" x2="-26.875" y2="616.479" gradientTransform="matrix(8 0 0 -8 455 4941)">
	<stop  offset="0" style="stop-color:#006DF0"/>
	<stop  offset="1" style="stop-color:#00E7F0"/>
</linearGradient>
<path style="fill:url(#SVGID_1_);" d="M440,48H40C17.92,48.026,0.026,65.92,0,88v304c0.026,22.08,17.92,39.974,40,40h400
	c22.08-0.026,39.974-17.92,40-40V88C479.974,65.92,462.08,48.026,440,48z M464,392c0,13.255-10.745,24-24,24H40
	c-13.255,0-24-10.745-24-24V88c0-13.255,10.745-24,24-24h400c13.255,0,24,10.745,24,24V392z"/>
<g>
	
		<linearGradient id="SVGID_2_" gradientUnits="userSpaceOnUse" x1="-40.875" y1="561.405" x2="-40.875" y2="616.479" gradientTransform="matrix(8 0 0 -8 455 4941)">
		<stop  offset="0" style="stop-color:#006DF0"/>
		<stop  offset="1" style="stop-color:#00E7F0"/>
	</linearGradient>
	<path style="fill:url(#SVGID_2_);" d="M168,96H88c-22.08,0.026-39.974,17.92-40,40v56c0.026,22.08,17.92,39.974,40,40h104v112
		c0,13.255-10.745,24-24,24H88c-13.255,0-24-10.745-24-24c0-4.418-3.582-8-8-8s-8,3.582-8,8c0.026,22.08,17.92,39.974,40,40h80
		c22.08-0.026,39.974-17.92,40-40V136C207.974,113.92,190.08,96.026,168,96z M192,216H88c-13.255,0-24-10.745-24-24v-56
		c0-13.255,10.745-24,24-24h80c13.255,0,24,10.745,24,24V216z"/>
	
		<linearGradient id="SVGID_3_" gradientUnits="userSpaceOnUse" x1="-21.3689" y1="561.405" x2="-21.3689" y2="616.479" gradientTransform="matrix(8 0 0 -8 455 4941)">
		<stop  offset="0" style="stop-color:#006DF0"/>
		<stop  offset="1" style="stop-color:#00E7F0"/>
	</linearGradient>
	<path style="fill:url(#SVGID_3_);" d="M315.064,96.608c-2.99-1.239-6.432-0.553-8.72,1.736l-56,56
		c-3.069,3.178-2.982,8.243,0.196,11.312c3.1,2.994,8.015,2.994,11.116,0L304,123.312V376c0,4.418,3.582,8,8,8s8-3.582,8-8V104
		C320.001,100.765,318.053,97.847,315.064,96.608z"/>
	
		<linearGradient id="SVGID_4_" gradientUnits="userSpaceOnUse" x1="-7.3689" y1="561.405" x2="-7.3689" y2="616.479" gradientTransform="matrix(8 0 0 -8 455 4941)">
		<stop  offset="0" style="stop-color:#006DF0"/>
		<stop  offset="1" style="stop-color:#00E7F0"/>
	</linearGradient>
	<path style="fill:url(#SVGID_4_);" d="M427.064,96.608c-2.99-1.239-6.432-0.553-8.72,1.736l-56,56
		c-3.069,3.178-2.982,8.243,0.196,11.312c3.1,2.994,8.015,2.994,11.116,0L416,123.312V376c0,4.418,3.582,8,8,8s8-3.582,8-8V104
		C432.001,100.765,430.053,97.847,427.064,96.608z"/>
</g>
<g>
</g>
<g>
</g>
<g>
</g>
<g>
</g>
<g>
</g>
<g>
</g>
<g>
</g>
<g>
</g>
<g>
</g>
<g>
</g>
<g>
</g>
<g>
</g>
<g>
</g>
<g>
</g>
<g>
</g>
</svg>
