<?xml version="1.0" encoding="iso-8859-1"?>
<!-- Generator: Adobe Illustrator 19.0.0, SVG Export Plug-In . SVG Version: 6.00 Build 0)  -->
<svg version="1.1" id="Capa_1" xmlns="http://www.w3.org/2000/svg" xmlns:xlink="http://www.w3.org/1999/xlink" x="0px" y="0px"
	 viewBox="0 0 480 480" style="enable-background:new 0 0 480 480;" xml:space="preserve">
<g>
	
		<linearGradient id="SVGID_1_" gradientUnits="userSpaceOnUse" x1="-26.875" y1="557.885" x2="-26.875" y2="618.381" gradientTransform="matrix(8 0 0 -8 455.0001 4941)">
		<stop  offset="0" style="stop-color:#006DF0"/>
		<stop  offset="1" style="stop-color:#00E7F0"/>
	</linearGradient>
	<path style="fill:url(#SVGID_1_);" d="M335.024,233.048C351.256,212.162,360.047,186.452,360,160V88.384l4.44-44.4
		c2.2-21.982-13.836-41.585-35.817-43.785C327.299,0.066,325.97,0,324.64,0H155.36c-22.091,0-40,17.908-40.001,39.999
		c0,1.336,0.067,2.671,0.201,4.001L120,88.384V160c-0.047,26.452,8.744,52.162,24.976,73.048C85.047,240.653,40.095,291.591,40,352
		v128h400V352C439.905,291.591,394.953,240.653,335.024,233.048z M137.6,23.896c4.523-5.045,10.985-7.917,17.76-7.896h169.28
		c13.255,0,24,10.745,24,24c0,0.802-0.04,1.603-0.12,2.4L344.8,80H135.24l-3.76-37.6C130.78,35.641,133.008,28.905,137.6,23.896z
		 M136,96h208v64c0.025,57.411-46.496,103.972-103.907,103.997c-27.23,0.012-53.377-10.661-72.821-29.725l-0.08-0.072
		C147.166,214.718,135.909,187.939,136,160L136,96z M424,464H56V352c0.063-56.827,45.676-103.109,102.496-104
		c1.08,1,2.24,1.872,3.352,2.824c1.4,1.208,2.784,2.4,4.232,3.568c1.6,1.24,3.2,2.4,4.864,3.544c1.472,1.04,2.928,2.112,4.44,3.088
		c1.712,1.096,3.48,2.08,5.232,3.08c1.528,0.88,3.032,1.792,4.6,2.6c1.832,0.944,3.728,1.768,5.6,2.616
		c1.56,0.704,3.088,1.456,4.672,2.088c1.968,0.8,4,1.44,6.008,2.12c1.6,0.536,3.096,1.128,4.68,1.6
		c2.136,0.632,4.328,1.104,6.504,1.6c1.512,0.352,2.992,0.8,4.512,1.072c2.472,0.48,4.992,0.8,7.504,1.104
		c1.264,0.16,2.512,0.408,3.784,0.528c3.813,0.379,7.653,0.568,11.52,0.568c3.867,0,7.704-0.187,11.512-0.56
		c1.264-0.12,2.496-0.368,3.752-0.528c2.528-0.32,5.056-0.624,7.544-1.104c1.496-0.288,2.96-0.712,4.448-1.056
		c2.2-0.512,4.408-0.992,6.568-1.6c1.6-0.464,3.08-1.048,4.624-1.6c2.032-0.696,4.072-1.344,6.064-2.144
		c1.6-0.624,3.064-1.368,4.592-2.056c1.912-0.864,3.832-1.696,5.704-2.656c1.52-0.8,2.984-1.68,4.472-2.536
		c1.8-1.024,3.616-2.032,5.368-3.2c1.456-0.936,2.856-1.976,4.28-2.976c1.696-1.2,3.4-2.4,5.04-3.672
		c1.384-1.088,2.704-2.256,4-3.408c1.16-0.992,2.4-1.904,3.496-2.944C378.315,248.829,423.959,295.142,424,352L424,464z"/>
	
		<linearGradient id="SVGID_2_" gradientUnits="userSpaceOnUse" x1="-26.875" y1="557.885" x2="-26.875" y2="618.381" gradientTransform="matrix(8 0 0 -8 455.0001 4941)">
		<stop  offset="0" style="stop-color:#006DF0"/>
		<stop  offset="1" style="stop-color:#00E7F0"/>
	</linearGradient>
	<path style="fill:url(#SVGID_2_);" d="M232,72h16V56h16V40h-16V24h-16v16h-16v16h16V72z"/>
</g>
<g>
</g>
<g>
</g>
<g>
</g>
<g>
</g>
<g>
</g>
<g>
</g>
<g>
</g>
<g>
</g>
<g>
</g>
<g>
</g>
<g>
</g>
<g>
</g>
<g>
</g>
<g>
</g>
<g>
</g>
</svg>
