<?xml version="1.0" encoding="iso-8859-1"?>
<!-- Generator: Adobe Illustrator 19.0.0, SVG Export Plug-In . SVG Version: 6.00 Build 0)  -->
<svg version="1.1" id="Capa_1" xmlns="http://www.w3.org/2000/svg" xmlns:xlink="http://www.w3.org/1999/xlink" x="0px" y="0px"
	 viewBox="0 0 480 480" style="enable-background:new 0 0 480 480;" xml:space="preserve">
<linearGradient id="SVGID_1_" gradientUnits="userSpaceOnUse" x1="-19.8753" y1="558.833" x2="-19.8753" y2="615.123" gradientTransform="matrix(8 0 0 -8 511.0023 4941)">
	<stop  offset="0" style="stop-color:#006DF0"/>
	<stop  offset="1" style="stop-color:#00E7F0"/>
</linearGradient>
<path style="fill:url(#SVGID_1_);" d="M433.288,240c48.752-44.894,51.88-120.81,6.986-169.562s-120.81-51.88-169.562-6.986
	s-51.88,120.81-6.986,169.562c2.232,2.423,4.562,4.754,6.986,6.986c-48.752,44.894-51.88,120.81-6.986,169.562
	c44.894,48.752,120.81,51.88,169.562,6.986s51.88-120.81,6.986-169.562C438.042,244.562,435.711,242.232,433.288,240L433.288,240z
	 M248,152c-0.03-57.438,46.509-104.024,103.946-104.054S455.97,94.455,456,151.893c0.015,29.802-12.755,58.179-35.072,77.931
	c-0.544-0.384-1.112-0.712-1.664-1.08c-1.136-0.8-2.288-1.512-3.448-2.248c-1.568-0.992-3.155-1.949-4.76-2.872
	c-1.208-0.688-2.4-1.344-3.64-1.984c-1.6-0.848-3.232-1.648-4.896-2.4c-1.256-0.584-2.512-1.16-3.784-1.704
	c-1.672-0.712-3.368-1.368-5.072-2c-1.288-0.48-2.56-0.96-3.856-1.392c-1.76-0.584-3.536-1.096-5.32-1.6
	c-1.28-0.36-2.552-0.744-3.848-1.056c-1.872-0.464-3.768-0.8-5.672-1.2c-1.232-0.24-2.456-0.512-3.704-0.712
	c-2.12-0.344-4.256-0.576-6.4-0.8c-1.056-0.112-2.096-0.28-3.152-0.36c-3.2-0.256-6.448-0.4-9.712-0.4s-6.496,0.144-9.712,0.4
	c-1.056,0.08-2.096,0.248-3.152,0.36c-2.144,0.224-4.28,0.456-6.4,0.8c-1.248,0.2-2.472,0.472-3.704,0.712
	c-1.904,0.368-3.8,0.736-5.672,1.2c-1.296,0.312-2.56,0.696-3.84,1.048c-1.784,0.504-3.568,1.016-5.328,1.6
	c-1.288,0.424-2.56,0.904-3.84,1.376c-1.712,0.64-3.416,1.296-5.104,2.016c-1.256,0.536-2.504,1.104-3.744,1.68
	c-1.664,0.784-3.312,1.603-4.944,2.456c-1.208,0.632-2.4,1.272-3.576,1.952c-1.6,0.936-3.264,1.92-4.864,2.936
	c-1.12,0.704-2.232,1.416-3.328,2.16c-0.568,0.384-1.16,0.72-1.72,1.12C260.695,210.166,247.909,181.79,248,152L248,152z M352,432
	c-57.416,0.02-103.976-46.509-103.995-103.925c-0.011-31.917,14.64-62.071,39.739-81.787C306.022,231.8,328.676,223.942,352,224
	c5.811-0.004,11.612,0.475,17.344,1.432c17.145,2.887,33.282,10.061,46.912,20.856c45.15,35.468,52.999,100.822,17.531,145.973
	C414.07,417.36,383.917,432.011,352,432z"/>
<g>
	
		<linearGradient id="SVGID_2_" gradientUnits="userSpaceOnUse" x1="-56.8753" y1="558.833" x2="-56.8753" y2="615.123" gradientTransform="matrix(8 0 0 -8 511.0023 4941)">
		<stop  offset="0" style="stop-color:#006DF0"/>
		<stop  offset="1" style="stop-color:#00E7F0"/>
	</linearGradient>
	<path style="fill:url(#SVGID_2_);" d="M104,72c0-40.376-21.088-72-48-72S8,31.624,8,72c0,36.264,17.032,65.392,40,70.96v194.08
		C25.032,342.64,8,371.736,8,408c0,40.376,21.088,72,48,72s48-31.624,48-72c0-36.264-17.032-65.392-40-70.96V142.96
		C86.968,137.392,104,108.264,104,72L104,72z M24,72c0-30.352,14.656-56,32-56s32,25.648,32,56s-14.656,56-32,56S24,102.352,24,72z
		 M88,408c0,30.352-14.656,56-32,56s-32-25.648-32-56s14.656-56,32-56S88,377.648,88,408z"/>
	
		<linearGradient id="SVGID_3_" gradientUnits="userSpaceOnUse" x1="-42.8753" y1="558.833" x2="-42.8753" y2="615.123" gradientTransform="matrix(8 0 0 -8 511.0023 4941)">
		<stop  offset="0" style="stop-color:#006DF0"/>
		<stop  offset="1" style="stop-color:#00E7F0"/>
	</linearGradient>
	<path style="fill:url(#SVGID_3_);" d="M216,72c0-40.376-21.088-72-48-72s-48,31.624-48,72c0,36.264,17.032,65.392,40,70.96v194.08
		c-22.968,5.6-40,34.696-40,70.96c0,40.376,21.088,72,48,72s48-31.624,48-72c0-36.264-17.032-65.392-40-70.96V142.96
		C198.968,137.392,216,108.264,216,72L216,72z M136,72c0-30.352,14.656-56,32-56s32,25.648,32,56s-14.656,56-32,56
		S136,102.352,136,72z M200,408c0,30.352-14.656,56-32,56s-32-25.648-32-56s14.656-56,32-56S200,377.648,200,408z"/>
</g>
<g>
</g>
<g>
</g>
<g>
</g>
<g>
</g>
<g>
</g>
<g>
</g>
<g>
</g>
<g>
</g>
<g>
</g>
<g>
</g>
<g>
</g>
<g>
</g>
<g>
</g>
<g>
</g>
<g>
</g>
</svg>
