<?xml version="1.0" encoding="iso-8859-1"?>
<!-- Generator: Adobe Illustrator 19.0.0, SVG Export Plug-In . SVG Version: 6.00 Build 0)  -->
<svg version="1.1" id="Capa_1" xmlns="http://www.w3.org/2000/svg" xmlns:xlink="http://www.w3.org/1999/xlink" x="0px" y="0px"
	 viewBox="0 0 480 480" style="enable-background:new 0 0 480 480;" xml:space="preserve">
<linearGradient id="SVGID_1_" gradientUnits="userSpaceOnUse" x1="-26.875" y1="556.955" x2="-26.875" y2="616.955" gradientTransform="matrix(8 0 0 -8 455 4941)">
	<stop  offset="0" style="stop-color:#006DF0"/>
	<stop  offset="1" style="stop-color:#00E7F0"/>
</linearGradient>
<path style="fill:url(#SVGID_1_);" d="M376,80h-8V16H256v32h-32V32h-48V0h-64v80h-8c-4.418,0-8,3.582-8,8v384c0,4.418,3.582,8,8,8
	h272c4.418,0,8-3.582,8-8V88C384,83.582,380.418,80,376,80z M320,32h32v48h-32V32z M334.632,96
	c-3.403,9.582-12.464,15.988-22.632,16H168c-10.168-0.012-19.229-6.418-22.632-16H334.632z M272,32h32v48h-32V32z M256,64v16h-32V64
	H256z M208,48v32h-32V48H208z M128,16h32v64h-32V16z M128.8,96c3.827,18.611,20.199,31.976,39.2,32h144
	c19.001-0.024,35.373-13.389,39.2-32H368v222.864l-128-128l-128,128V96L128.8,96z M112,464V341.496l128-128l128,128V464H112z"/>
<g>
	
		<linearGradient id="SVGID_2_" gradientUnits="userSpaceOnUse" x1="-28.875" y1="556.955" x2="-28.875" y2="616.96" gradientTransform="matrix(8 0 0 -8 455 4941)">
		<stop  offset="0" style="stop-color:#006DF0"/>
		<stop  offset="1" style="stop-color:#00E7F0"/>
	</linearGradient>
	<path style="fill:url(#SVGID_2_);" d="M192,440h64v16h-64V440z"/>
	
		<linearGradient id="SVGID_3_" gradientUnits="userSpaceOnUse" x1="-21.875" y1="556.955" x2="-21.875" y2="616.96" gradientTransform="matrix(8 0 0 -8 455 4941)">
		<stop  offset="0" style="stop-color:#006DF0"/>
		<stop  offset="1" style="stop-color:#00E7F0"/>
	</linearGradient>
	<path style="fill:url(#SVGID_3_);" d="M272,440h16v16h-16V440z"/>
</g>
<g>
</g>
<g>
</g>
<g>
</g>
<g>
</g>
<g>
</g>
<g>
</g>
<g>
</g>
<g>
</g>
<g>
</g>
<g>
</g>
<g>
</g>
<g>
</g>
<g>
</g>
<g>
</g>
<g>
</g>
</svg>
