<?xml version="1.0" encoding="iso-8859-1"?>
<!-- Generator: Adobe Illustrator 19.0.0, SVG Export Plug-In . SVG Version: 6.00 Build 0)  -->
<svg version="1.1" id="Capa_1" xmlns="http://www.w3.org/2000/svg" xmlns:xlink="http://www.w3.org/1999/xlink" x="0px" y="0px"
	 viewBox="0 0 451.233 451.233" style="enable-background:new 0 0 451.233 451.233;" xml:space="preserve">
<linearGradient id="SVGID_1_" gradientUnits="userSpaceOnUse" x1="-41.2722" y1="544.0696" x2="-41.2722" y2="602.0786" gradientTransform="matrix(8 0 0 -8 555.794 4801.9009)">
	<stop  offset="0" style="stop-color:#006DF0"/>
	<stop  offset="1" style="stop-color:#00E7F0"/>
</linearGradient>
<path style="fill:url(#SVGID_1_);" d="M138.681,451.217c-30.848-0.093-55.793-25.152-55.744-56v-26.928H56.001
	c-14.878,0.153-29.176-5.76-39.6-16.376c-10.571-10.466-16.482-24.748-16.4-39.624c0.035-30.903,25.097-55.936,56-55.936h37.072
	L256.321,93.081V56.009c0-30.928,25.072-56,56-56c30.866-0.062,55.938,24.91,56,55.776c0,0.075,0,0.149,0,0.224v26.936h27.2
	c30.839,0.101,55.77,25.161,55.712,56c-0.035,30.903-25.097,55.936-56,55.936h-37.088L194.881,358.145v37.08
	c0,30.928-25.072,56-56,56L138.681,451.217z M90.937,352.289c4.418,0,8,3.582,8,8v34.96c-0.053,22.026,17.75,39.929,39.776,40h0.168
	c22.091,0,40-17.909,40-40v-40.392c0-2.122,0.844-4.156,2.344-5.656l167.952-167.952c1.5-1.5,3.534-2.344,5.656-2.344h40.368
	c22.091,0,40-17.909,40-40c0.058-22.018-17.734-39.921-39.752-40h-35.2c-4.418,0-8-3.582-8-8v-34.96
	c0.042-10.584-4.163-20.742-11.672-28.2c-7.425-7.589-17.632-11.806-28.248-11.672c-22.091,0-40,17.909-40,40v40.384
	c0,2.122-0.844,4.156-2.344,5.656l-167.952,168c-1.5,1.5-3.534,2.344-5.656,2.344H56.001c-22.091,0-40,17.909-40,40
	c-0.053,22.023,17.745,39.925,39.768,40h35.16L90.937,352.289z"/>
<g>
</g>
<g>
</g>
<g>
</g>
<g>
</g>
<g>
</g>
<g>
</g>
<g>
</g>
<g>
</g>
<g>
</g>
<g>
</g>
<g>
</g>
<g>
</g>
<g>
</g>
<g>
</g>
<g>
</g>
</svg>
