<?xml version="1.0" encoding="iso-8859-1"?>
<!-- Generator: Adobe Illustrator 19.0.0, SVG Export Plug-In . SVG Version: 6.00 Build 0)  -->
<svg version="1.1" id="Capa_1" xmlns="http://www.w3.org/2000/svg" xmlns:xlink="http://www.w3.org/1999/xlink" x="0px" y="0px"
	 viewBox="0 0 442.007 442.007" style="enable-background:new 0 0 442.007 442.007;" xml:space="preserve">
<linearGradient id="SVGID_1_" gradientUnits="userSpaceOnUse" x1="-45.8682" y1="540.7646" x2="-45.8682" y2="596.2676" gradientTransform="matrix(8 0 0 -8 587.9489 4769.9966)">
	<stop  offset="0" style="stop-color:#006DF0"/>
	<stop  offset="1" style="stop-color:#00E7F0"/>
</linearGradient>
<path style="fill:url(#SVGID_1_);" d="M430.311,294.536L356.767,221l62.232-62.224l-0.232-0.232c1.414-1.454,2.215-3.396,2.24-5.424
	V85.232c-0.023-2.028-0.825-3.97-2.24-5.424l0.232-0.232l-67.888-67.88c-15.632-15.594-40.936-15.594-56.568,0l-73.536,73.536
	l-73.536-73.536c-15.632-15.594-40.936-15.594-56.568,0l-79.2,79.2c-15.586,15.638-15.586,40.938,0,56.576L85.247,221
	l-73.544,73.536c-15.591,15.636-15.591,40.94,0,56.576l79.2,79.2c15.632,15.594,40.936,15.594,56.568,0l73.536-73.544l73.536,73.536
	c15.632,15.594,40.936,15.594,56.568,0l79.2-79.2C445.892,335.466,445.892,310.173,430.311,294.536L430.311,294.536z M405.007,133.8
	l-8.968-8.976c-3.126-3.122-3.129-8.188-0.006-11.314c0.002-0.002,0.004-0.004,0.006-0.006l8.968-8.96V133.8z M305.855,23.008
	c9.372-9.373,24.568-9.375,33.941-0.003c0.001,0.001,0.002,0.002,0.003,0.003l62.064,62.056L384.719,102.2
	c-9.353,9.385-9.353,24.567,0,33.952l17.144,17.128l-56.408,56.408L232.319,96.544L305.855,23.008z M136.159,419.008
	c-9.372,9.373-24.568,9.375-33.941,0.003c-0.001-0.001-0.002-0.002-0.003-0.003l-79.2-79.2c-9.353-9.385-9.353-24.567,0-33.952
	l73.544-73.536l113.136,113.136L136.159,419.008z M418.999,339.808l-79.2,79.2c-9.372,9.373-24.568,9.375-33.941,0.003
	c-0.001-0.001-0.002-0.002-0.003-0.003L23.015,136.152c-9.353-9.385-9.353-24.567,0-33.952l79.2-79.2
	c9.372-9.373,24.568-9.375,33.941-0.003c0.001,0.001,0.002,0.002,0.003,0.003l282.84,282.848c9.353,9.385,9.353,24.567,0,33.952
	V339.808z"/>
<g>
	
		<linearGradient id="SVGID_2_" gradientUnits="userSpaceOnUse" x1="-43.8672" y1="540.7646" x2="-43.8672" y2="596.2676" gradientTransform="matrix(8 0 0 -8 587.9489 4769.9966)">
		<stop  offset="0" style="stop-color:#006DF0"/>
		<stop  offset="1" style="stop-color:#00E7F0"/>
	</linearGradient>
	<path style="fill:url(#SVGID_2_);" d="M253.975,276.032c-9.496-9.064-24.44-9.064-33.936,0c-9.372,9.373-9.37,24.569,0.003,33.941
		c9.373,9.372,24.569,9.37,33.941-0.003c9.371-9.372,9.371-24.566,0-33.938H253.975z M242.663,298.656
		c-3.161,3.034-8.151,3.034-11.312,0c-3.178-3.07-3.266-8.134-0.196-11.312c3.07-3.178,8.134-3.266,11.312-0.196
		c0.066,0.064,0.132,0.129,0.196,0.196C245.786,290.468,245.786,295.532,242.663,298.656z"/>
	
		<linearGradient id="SVGID_3_" gradientUnits="userSpaceOnUse" x1="-36.8672" y1="540.7646" x2="-36.8672" y2="596.2676" gradientTransform="matrix(8 0 0 -8 587.9489 4769.9966)">
		<stop  offset="0" style="stop-color:#006DF0"/>
		<stop  offset="1" style="stop-color:#00E7F0"/>
	</linearGradient>
	<path style="fill:url(#SVGID_3_);" d="M309.975,220.032c-9.496-9.064-24.44-9.064-33.936,0c-9.372,9.373-9.371,24.569,0.003,33.941
		c9.373,9.372,24.569,9.371,33.941-0.003c9.371-9.372,9.371-24.566,0-33.938H309.975z M298.663,242.656
		c-3.161,3.034-8.151,3.034-11.312,0c-3.178-3.07-3.266-8.134-0.196-11.312c3.07-3.178,8.134-3.266,11.312-0.196
		c0.066,0.064,0.132,0.129,0.196,0.196C301.786,234.468,301.786,239.532,298.663,242.656z"/>
	
		<linearGradient id="SVGID_4_" gradientUnits="userSpaceOnUse" x1="-49.8672" y1="540.7646" x2="-49.8672" y2="596.2676" gradientTransform="matrix(8 0 0 -8 587.9489 4769.9966)">
		<stop  offset="0" style="stop-color:#006DF0"/>
		<stop  offset="1" style="stop-color:#00E7F0"/>
	</linearGradient>
	<path style="fill:url(#SVGID_4_);" d="M205.975,228.032c-9.496-9.064-24.44-9.064-33.936,0c-9.372,9.373-9.37,24.569,0.003,33.941
		c9.373,9.372,24.569,9.37,33.941-0.003c9.371-9.372,9.371-24.566,0-33.938H205.975z M194.663,250.656
		c-3.161,3.034-8.151,3.034-11.312,0c-3.178-3.069-3.266-8.134-0.196-11.312c3.069-3.178,8.134-3.266,11.312-0.196
		c0.067,0.064,0.132,0.13,0.196,0.196C197.786,242.468,197.786,247.532,194.663,250.656z"/>
	
		<linearGradient id="SVGID_5_" gradientUnits="userSpaceOnUse" x1="-42.8672" y1="540.7646" x2="-42.8672" y2="596.2676" gradientTransform="matrix(8 0 0 -8 587.9489 4769.9966)">
		<stop  offset="0" style="stop-color:#006DF0"/>
		<stop  offset="1" style="stop-color:#00E7F0"/>
	</linearGradient>
	<path style="fill:url(#SVGID_5_);" d="M261.975,172.032c-9.496-9.064-24.44-9.064-33.936,0c-9.372,9.373-9.37,24.569,0.003,33.941
		c9.373,9.372,24.569,9.37,33.941-0.003c9.371-9.372,9.371-24.566,0-33.938H261.975z M250.663,194.656
		c-3.161,3.034-8.151,3.034-11.312,0c-3.178-3.07-3.266-8.134-0.196-11.312c3.07-3.178,8.134-3.266,11.312-0.196
		c0.067,0.064,0.132,0.13,0.196,0.196C253.786,186.468,253.786,191.532,250.663,194.656z"/>
	
		<linearGradient id="SVGID_6_" gradientUnits="userSpaceOnUse" x1="-55.8672" y1="540.7646" x2="-55.8672" y2="596.2676" gradientTransform="matrix(8 0 0 -8 587.9489 4769.9966)">
		<stop  offset="0" style="stop-color:#006DF0"/>
		<stop  offset="1" style="stop-color:#00E7F0"/>
	</linearGradient>
	<path style="fill:url(#SVGID_6_);" d="M157.975,180.032c-9.496-9.064-24.44-9.064-33.936,0c-9.372,9.373-9.37,24.569,0.003,33.941
		c9.373,9.372,24.569,9.37,33.941-0.003c9.371-9.372,9.371-24.566,0-33.938H157.975z M146.663,202.656
		c-3.161,3.034-8.151,3.034-11.312,0c-3.178-3.069-3.266-8.134-0.197-11.312c3.069-3.178,8.134-3.266,11.312-0.197
		c0.067,0.064,0.132,0.13,0.197,0.197C149.786,194.468,149.786,199.532,146.663,202.656z"/>
	
		<linearGradient id="SVGID_7_" gradientUnits="userSpaceOnUse" x1="-48.8667" y1="540.7646" x2="-48.8667" y2="596.2676" gradientTransform="matrix(8 0 0 -8 587.9489 4769.9966)">
		<stop  offset="0" style="stop-color:#006DF0"/>
		<stop  offset="1" style="stop-color:#00E7F0"/>
	</linearGradient>
	<path style="fill:url(#SVGID_7_);" d="M197.007,165c13.255,0.002,24.001-10.742,24.003-23.997
		c0.001-6.365-2.527-12.469-7.027-16.971c-9.496-9.064-24.44-9.064-33.936,0c-9.371,9.374-9.369,24.57,0.005,33.941
		C184.55,162.469,190.648,164.996,197.007,165z M191.351,135.344c3.124-3.123,8.188-3.123,11.312,0
		c3.123,3.124,3.123,8.188,0,11.312c-3.161,3.034-8.151,3.034-11.312,0C188.228,143.532,188.228,138.468,191.351,135.344z"/>
</g>
<g>
</g>
<g>
</g>
<g>
</g>
<g>
</g>
<g>
</g>
<g>
</g>
<g>
</g>
<g>
</g>
<g>
</g>
<g>
</g>
<g>
</g>
<g>
</g>
<g>
</g>
<g>
</g>
<g>
</g>
</svg>
