<?xml version="1.0" encoding="iso-8859-1"?>
<!-- Generator: Adobe Illustrator 19.0.0, SVG Export Plug-In . SVG Version: 6.00 Build 0)  -->
<svg version="1.1" id="Capa_1" xmlns="http://www.w3.org/2000/svg" xmlns:xlink="http://www.w3.org/1999/xlink" x="0px" y="0px"
	 viewBox="0 0 479.885 479.885" style="enable-background:new 0 0 479.885 479.885;" xml:space="preserve">
<g>
	
		<linearGradient id="SVGID_1_" gradientUnits="userSpaceOnUse" x1="-26.9327" y1="557.0596" x2="-26.9327" y2="621.3476" gradientTransform="matrix(8 0 0 -8 455.404 4939.9614)">
		<stop  offset="0" style="stop-color:#006DF0"/>
		<stop  offset="1" style="stop-color:#00E7F0"/>
	</linearGradient>
	<path style="fill:url(#SVGID_1_);" d="M239.942,479.885c-101.573-0.115-183.885-82.427-184-184
		c0-99.2,170.848-285.536,178.12-293.424c3.201-3.247,8.428-3.285,11.675-0.085c0.028,0.028,0.057,0.056,0.085,0.085
		c7.272,7.888,178.12,194.224,178.12,293.424C423.828,397.457,341.515,479.77,239.942,479.885z M239.942,19.829
		c-30.4,34.064-168,192.928-168,276.056c0,92.784,75.216,168,168,168s168-75.216,168-168
		C407.942,212.757,270.342,53.893,239.942,19.829z"/>
	
		<linearGradient id="SVGID_2_" gradientUnits="userSpaceOnUse" x1="-26.9327" y1="557.0596" x2="-26.9327" y2="621.3476" gradientTransform="matrix(8 0 0 -8 455.404 4939.9614)">
		<stop  offset="0" style="stop-color:#006DF0"/>
		<stop  offset="1" style="stop-color:#00E7F0"/>
	</linearGradient>
	<path style="fill:url(#SVGID_2_);" d="M255.942,407.885h-32c-4.418,0-8-3.582-8-8v-40h-40c-4.418,0-8-3.582-8-8v-32
		c0-4.418,3.582-8,8-8h40v-40c0-4.418,3.582-8,8-8h32c4.418,0,8,3.582,8,8v40h40c4.418,0,8,3.582,8,8v32c0,4.418-3.582,8-8,8h-40v40
		C263.942,404.303,260.361,407.885,255.942,407.885z M231.942,391.885h16v-40c0-4.418,3.582-8,8-8h40v-16h-40c-4.418,0-8-3.582-8-8
		v-40h-16v40c0,4.418-3.582,8-8,8h-40v16h40c4.418,0,8,3.582,8,8V391.885z"/>
</g>
<g>
</g>
<g>
</g>
<g>
</g>
<g>
</g>
<g>
</g>
<g>
</g>
<g>
</g>
<g>
</g>
<g>
</g>
<g>
</g>
<g>
</g>
<g>
</g>
<g>
</g>
<g>
</g>
<g>
</g>
</svg>
