<?xml version="1.0" encoding="iso-8859-1"?>
<!-- Generator: Adobe Illustrator 19.0.0, SVG Export Plug-In . SVG Version: 6.00 Build 0)  -->
<svg version="1.1" id="Capa_1" xmlns="http://www.w3.org/2000/svg" xmlns:xlink="http://www.w3.org/1999/xlink" x="0px" y="0px"
	 viewBox="0 0 479.832 479.832" style="enable-background:new 0 0 479.832 479.832;" xml:space="preserve">
<linearGradient id="SVGID_1_" gradientUnits="userSpaceOnUse" x1="-34.9592" y1="557.0096" x2="-34.9592" y2="618.3436" gradientTransform="matrix(8 0 0 -8 455.5896 4939.9609)">
	<stop  offset="0" style="stop-color:#006DF0"/>
	<stop  offset="1" style="stop-color:#00E7F0"/>
</linearGradient>
<path style="fill:url(#SVGID_1_);" d="M239.916,415.885c-66.243-0.075-119.925-53.757-120-120c0-4.418-3.582-8-8-8
	c-4.418,0-8,3.582-8,8c0.084,75.076,60.924,135.916,136,136c4.418,0,8-3.582,8-8S244.334,415.885,239.916,415.885z"/>
<g>
	
		<linearGradient id="SVGID_2_" gradientUnits="userSpaceOnUse" x1="-26.9592" y1="557.0096" x2="-26.9592" y2="618.3436" gradientTransform="matrix(8 0 0 -8 455.5896 4939.9609)">
		<stop  offset="0" style="stop-color:#006DF0"/>
		<stop  offset="1" style="stop-color:#00E7F0"/>
	</linearGradient>
	<path style="fill:url(#SVGID_2_);" d="M263.916,167.885h-48v48h-48v48h48v48h48v-48h48v-48h-48V167.885z M295.916,231.885v16h-48
		v48h-16v-48h-48v-16h48v-48h16v48H295.916z"/>
	
		<linearGradient id="SVGID_3_" gradientUnits="userSpaceOnUse" x1="-42.9592" y1="557.0096" x2="-42.9592" y2="618.3436" gradientTransform="matrix(8 0 0 -8 455.5896 4939.9609)">
		<stop  offset="0" style="stop-color:#006DF0"/>
		<stop  offset="1" style="stop-color:#00E7F0"/>
	</linearGradient>
	<path style="fill:url(#SVGID_3_);" d="M111.916,279.885c4.418,0,8-3.582,8-8v-16c0-4.418-3.582-8-8-8c-4.418,0-8,3.582-8,8v16
		C103.916,276.303,107.497,279.885,111.916,279.885z"/>
	
		<linearGradient id="SVGID_4_" gradientUnits="userSpaceOnUse" x1="-22.9592" y1="557.0096" x2="-22.9592" y2="618.3436" gradientTransform="matrix(8 0 0 -8 455.5896 4939.9609)">
		<stop  offset="0" style="stop-color:#006DF0"/>
		<stop  offset="1" style="stop-color:#00E7F0"/>
	</linearGradient>
	<path style="fill:url(#SVGID_4_);" d="M279.916,415.885h-16c-4.418,0-8,3.582-8,8s3.582,8,8,8h16c4.418,0,8-3.582,8-8
		S284.334,415.885,279.916,415.885z"/>
	
		<linearGradient id="SVGID_5_" gradientUnits="userSpaceOnUse" x1="-26.9592" y1="557.0096" x2="-26.9592" y2="618.3436" gradientTransform="matrix(8 0 0 -8 455.5896 4939.9609)">
		<stop  offset="0" style="stop-color:#006DF0"/>
		<stop  offset="1" style="stop-color:#00E7F0"/>
	</linearGradient>
	<path style="fill:url(#SVGID_5_);" d="M245.796,2.461c-3.201-3.247-8.428-3.285-11.675-0.085c-0.028,0.028-0.057,0.056-0.085,0.085
		c-7.28,7.888-178.12,194.224-178.12,293.424c0.029,101.62,82.433,183.976,184.053,183.947
		c101.579-0.029,183.918-82.368,183.947-183.947C423.916,196.685,253.076,10.349,245.796,2.461L245.796,2.461z M239.916,463.885
		c-92.74-0.106-167.894-75.26-168-168c0-83.128,137.6-241.992,168-276.056c30.4,34.064,168,192.928,168,276.056
		C407.81,388.625,332.656,463.779,239.916,463.885z"/>
</g>
<g>
</g>
<g>
</g>
<g>
</g>
<g>
</g>
<g>
</g>
<g>
</g>
<g>
</g>
<g>
</g>
<g>
</g>
<g>
</g>
<g>
</g>
<g>
</g>
<g>
</g>
<g>
</g>
<g>
</g>
</svg>
