<?xml version="1.0" encoding="iso-8859-1"?>
<!-- Generator: Adobe Illustrator 19.0.0, SVG Export Plug-In . SVG Version: 6.00 Build 0)  -->
<svg version="1.1" id="Capa_1" xmlns="http://www.w3.org/2000/svg" xmlns:xlink="http://www.w3.org/1999/xlink" x="0px" y="0px"
	 viewBox="0 0 480.002 480.002" style="enable-background:new 0 0 480.002 480.002;" xml:space="preserve">
<linearGradient id="SVGID_1_" gradientUnits="userSpaceOnUse" x1="-26.8728" y1="557.1274" x2="-26.8728" y2="617.1276" gradientTransform="matrix(8 0 0 -8 454.9835 4941.021)">
	<stop  offset="0" style="stop-color:#006DF0"/>
	<stop  offset="1" style="stop-color:#00E7F0"/>
</linearGradient>
<path style="fill:url(#SVGID_1_);" d="M320.002,81.314V64.002h32c13.228-0.066,23.934-10.772,24-24c0-13.255-10.745-24-24-24h-208
	c-13.255-17.673-38.327-21.255-56-8s-21.255,38.327-8,56c2.274,3.032,4.968,5.726,8,8v384c0,13.255,10.745,24,24,24s24-10.745,24-24
	v-384c3.035-2.271,5.729-4.965,8-8h96v17.312c-50.494,8.112-87.716,51.548-88,102.688v136
	c0.125,52.342,39.096,96.451,91.024,103.024c4.994,12.39,15.882,21.441,28.976,24.088v24.888c0,4.418,3.582,8,8,8s8-3.582,8-8
	v-24.888c13.097-2.646,23.986-11.701,28.976-24.096c51.914-6.592,90.874-50.685,91.024-103.016v-136
	C407.729,132.858,370.501,89.417,320.002,81.314z M139.682,48.002c-2.861-0.003-5.506,1.522-6.936,4
	c-2.084,3.641-5.103,6.66-8.744,8.744c-2.478,1.43-4.003,4.075-4,6.936v388.32c0,4.418-3.582,8-8,8c-4.418,0-8-3.582-8-8V67.682
	c0.003-2.861-1.522-5.506-4-6.936c-11.509-6.575-15.51-21.235-8.935-32.744c6.575-11.509,21.235-15.51,32.744-8.935
	c3.723,2.127,6.808,5.212,8.935,8.935c1.43,2.478,4.075,4.003,6.936,4h212.32c4.418,0,8,3.582,8,8
	c0.005,2.158-0.88,4.222-2.448,5.704c-1.465,1.484-3.467,2.312-5.552,2.296H139.682z M304.002,64.002v16h-48v-16H304.002z
	 M280.002,432.002c-6.835,0.014-13.349-2.898-17.896-8h35.792C293.351,429.105,286.837,432.017,280.002,432.002z M310.21,407.73
	c-2.048,0.208-58.4,0.208-60.68,0c-45.922-3.453-81.444-41.677-81.528-87.728v-120h24v-16h-24
	c0.225-45.696,35.207-83.705,80.728-87.712c2.4-0.216,60.144-0.216,62.608,0c45.499,4.031,80.45,42.035,80.664,87.712h-168v16h168
	v24h-64v16h64v16h-32v16h32v16h-64v16h64v16h-32v16h30.496C383.101,375.354,350.144,404.798,310.21,407.73L310.21,407.73z"/>
<linearGradient id="SVGID_2_" gradientUnits="userSpaceOnUse" x1="-42.8726" y1="557.1274" x2="-42.8726" y2="617.0734" gradientTransform="matrix(8 0 0 -8 454.9835 4941.021)">
	<stop  offset="0" style="stop-color:#006DF0"/>
	<stop  offset="1" style="stop-color:#00E7F0"/>
</linearGradient>
<circle style="fill:url(#SVGID_2_);" cx="112.002" cy="40.002" r="16"/>
<g>
</g>
<g>
</g>
<g>
</g>
<g>
</g>
<g>
</g>
<g>
</g>
<g>
</g>
<g>
</g>
<g>
</g>
<g>
</g>
<g>
</g>
<g>
</g>
<g>
</g>
<g>
</g>
<g>
</g>
</svg>
