<?xml version="1.0" encoding="iso-8859-1"?>
<!-- Generator: Adobe Illustrator 19.0.0, SVG Export Plug-In . SVG Version: 6.00 Build 0)  -->
<svg version="1.1" id="Capa_1" xmlns="http://www.w3.org/2000/svg" xmlns:xlink="http://www.w3.org/1999/xlink" x="0px" y="0px"
	 viewBox="0 0 480.087 480.087" style="enable-background:new 0 0 480.087 480.087;" xml:space="preserve">
<linearGradient id="SVGID_1_" gradientUnits="userSpaceOnUse" x1="-26.8432" y1="557.212" x2="-26.8432" y2="617.014" gradientTransform="matrix(8 0 0 -8 454.7892 4941.7827)">
	<stop  offset="0" style="stop-color:#006DF0"/>
	<stop  offset="1" style="stop-color:#00E7F0"/>
</linearGradient>
<path style="fill:url(#SVGID_1_);" d="M368.03,208.087c-7.333,0.021-14.646,0.769-21.832,2.232l21.6-88.328
	c0.149-0.624,0.227-1.263,0.232-1.904v-12.96c0.385-56.76-43.853-103.829-100.528-106.96c-24.801-0.822-49.082,7.234-68.472,22.72
	c-8.58,7.089-20.954,7.196-29.656,0.256C124.751-12.966,59.306-6.064,23.197,38.559C4.286,61.929-3.58,92.343,1.63,121.951
	l30.624,127.464l27.112,197.872c3.479,19.013,20.056,32.818,39.384,32.8h10.56c19.43-0.031,36.046-13.98,39.44-33.112l27.36-191.032
	c0.623-4.374,4.674-7.415,9.049-6.791c3.522,0.502,6.29,3.269,6.791,6.791l27.416,191.344c3.479,19.013,20.056,32.818,39.384,32.8
	h10.56c19.433-0.031,36.049-13.985,39.44-33.12l4.176-29.48c16.784,9.581,35.778,14.613,55.104,14.6c61.856,0,112-50.144,112-112
	S429.886,208.087,368.03,208.087L368.03,208.087z M292.958,444.399c-2.1,11.409-12.048,19.691-23.648,19.688h-10.56
	c-11.488,0.02-21.379-8.103-23.592-19.376l-27.36-191.024c-1.839-13.127-13.97-22.278-27.097-20.439
	c-10.612,1.486-18.953,9.827-20.439,20.439l-27.304,190.712c-2.1,11.409-12.048,19.69-23.648,19.688H98.75
	c-11.477,0.04-21.368-8.067-23.584-19.328l-27.2-198.272L17.278,118.751C9.126,70.892,41.315,25.487,89.174,17.335
	c4.908-0.836,9.878-1.253,14.856-1.248c20.131-0.076,39.668,6.815,55.296,19.504c14.538,11.704,35.292,11.607,49.72-0.232
	c16.399-13.109,36.946-19.92,57.928-19.2c48.084,2.769,85.52,42.807,85.056,90.968v12l-23.536,96.216
	c-0.736,0.272-1.424,0.616-2.144,0.904c-1.312,0.533-2.611,1.067-3.896,1.6c-1.392,0.613-2.768,1.259-4.128,1.936
	c-1.248,0.613-2.485,1.248-3.712,1.904c-1.317,0.72-2.621,1.464-3.912,2.232c-1.192,0.712-2.4,1.424-3.544,2.176
	s-2.472,1.656-3.688,2.512s-2.24,1.6-3.336,2.4s-2.328,1.84-3.472,2.784s-2.112,1.736-3.128,2.648s-2.168,2-3.2,3.016
	c-1.032,1.016-1.96,1.888-2.904,2.864s-2.008,2.168-2.992,3.272s-1.8,2.008-2.664,3.048s-1.84,2.328-2.744,3.504
	s-1.64,2.128-2.4,3.2c-0.856,1.216-1.664,2.472-2.48,3.728c-0.72,1.12-1.464,2.224-2.144,3.368c-0.8,1.296-1.488,2.624-2.216,3.952
	c-0.632,1.16-1.288,2.304-1.88,3.488c-0.68,1.36-1.288,2.76-1.912,4.152c-0.536,1.2-1.104,2.4-1.6,3.608
	c-0.584,1.432-1.088,2.904-1.6,4.368c-0.44,1.224-0.912,2.4-1.312,3.664c-0.488,1.528-0.896,3.096-1.32,4.648
	c-0.328,1.216-0.704,2.4-1,3.64c-0.392,1.664-0.688,3.352-1.008,5.04c-0.224,1.152-0.488,2.296-0.672,3.464
	c-0.304,1.92-0.496,3.864-0.696,5.808c-0.104,0.968-0.256,1.92-0.336,2.888c-0.304,2.992-0.424,5.952-0.424,8.928
	c0.013,4.337,0.28,8.67,0.8,12.976c0.168,1.408,0.504,2.776,0.72,4.168c0.448,2.856,0.88,5.72,1.544,8.52
	c0.384,1.6,0.936,3.2,1.392,4.8c0.72,2.512,1.4,5.024,2.28,7.472c0.608,1.672,1.368,3.28,2.048,4.928
	c0.96,2.288,1.88,4.592,2.984,6.816c0.8,1.656,1.776,3.2,2.68,4.848c1.176,2.104,2.336,4.216,3.648,6.248
	c1.024,1.6,2.168,3.096,3.28,4.64c1.384,1.92,2.76,3.84,4.272,5.68c1.232,1.496,2.56,2.912,3.872,4.344
	c1.6,1.728,3.152,3.448,4.84,5.072c1.44,1.384,2.952,2.688,4.464,4c1.128,0.984,2.168,2.056,3.344,2.992L292.958,444.399z
	 M368.03,416.087c-53.007-0.031-95.969-42.993-96-96c-0.05-41.384,26.488-78.119,65.792-91.072c9.73-3.29,19.936-4.955,30.208-4.928
	c53.019,0.021,95.983,43.019,95.962,96.038C463.971,373.115,421.02,416.066,368.03,416.087z"/>
<linearGradient id="SVGID_2_" gradientUnits="userSpaceOnUse" x1="-11.4294" y1="557.212" x2="-11.4294" y2="617.014" gradientTransform="matrix(8 0 0 -8 454.7892 4941.7827)">
	<stop  offset="0" style="stop-color:#006DF0"/>
	<stop  offset="1" style="stop-color:#00E7F0"/>
</linearGradient>
<path style="fill:url(#SVGID_2_);" d="M405.302,258.303l-61.272,61.192l-22.64-22.608l-33.952,33.92l56.592,56.592l95.24-95.248
	L405.302,258.303z M310.102,330.807l11.328-11.328l22.6,22.632l61.288-61.2l11.312,11.264l-72.6,72.6L310.102,330.807z"/>
<g>
</g>
<g>
</g>
<g>
</g>
<g>
</g>
<g>
</g>
<g>
</g>
<g>
</g>
<g>
</g>
<g>
</g>
<g>
</g>
<g>
</g>
<g>
</g>
<g>
</g>
<g>
</g>
<g>
</g>
</svg>
