<?xml version="1.0" encoding="iso-8859-1"?>
<!-- Generator: Adobe Illustrator 19.0.0, SVG Export Plug-In . SVG Version: 6.00 Build 0)  -->
<svg version="1.1" id="Capa_1" xmlns="http://www.w3.org/2000/svg" xmlns:xlink="http://www.w3.org/1999/xlink" x="0px" y="0px"
	 viewBox="0 0 426.857 426.857" style="enable-background:new 0 0 426.857 426.857;" xml:space="preserve">
<g>
	
		<linearGradient id="SVGID_1_" gradientUnits="userSpaceOnUse" x1="-53.4429" y1="534.2166" x2="-53.4429" y2="591.2166" gradientTransform="matrix(8 0 0 -8 640.9714 4701.8213)">
		<stop  offset="0" style="stop-color:#006DF0"/>
		<stop  offset="1" style="stop-color:#00E7F0"/>
	</linearGradient>
	<path style="fill:url(#SVGID_1_);" d="M405.769,66.345l-45.256-45.256c-28.136-28.074-73.688-28.074-101.824,0l-237.6,237.6
		c-28.118,28.118-28.118,73.705-0.001,101.823c0,0,0,0,0.001,0.001l45.256,45.256c28.136,28.074,73.688,28.074,101.824,0
		l237.6-237.6C433.887,140.051,433.887,94.463,405.769,66.345C405.769,66.345,405.769,66.345,405.769,66.345L405.769,66.345z
		 M394.449,156.857l-237.6,237.6c-21.888,21.828-57.312,21.828-79.2,0l-45.232-45.264c-21.832-21.886-21.832-57.314,0-79.2
		l237.6-237.6c21.892-21.819,57.308-21.819,79.2,0l45.248,45.256C416.298,99.54,416.291,134.974,394.449,156.857L394.449,156.857z"
		/>
	
		<linearGradient id="SVGID_2_" gradientUnits="userSpaceOnUse" x1="-53.4424" y1="534.2166" x2="-53.4424" y2="591.2166" gradientTransform="matrix(8 0 0 -8 640.9714 4701.8213)">
		<stop  offset="0" style="stop-color:#006DF0"/>
		<stop  offset="1" style="stop-color:#00E7F0"/>
	</linearGradient>
	<path style="fill:url(#SVGID_2_);" d="M224.745,111.601c-3.124-3.123-8.188-3.123-11.312,0L111.609,213.425
		c-3.123,3.124-3.123,8.188,0,11.312l90.512,90.512c3.124,3.123,8.188,3.123,11.312,0l101.824-101.824
		c3.123-3.124,3.123-8.188,0-11.312L224.745,111.601z M207.777,298.273l-79.2-79.2l90.512-90.496l79.2,79.2L207.777,298.273z"/>
</g>
<g>
	
		<linearGradient id="SVGID_3_" gradientUnits="userSpaceOnUse" x1="-44.2504" y1="534.2166" x2="-44.2504" y2="591.2166" gradientTransform="matrix(8 0 0 -8 640.9714 4701.8213)">
		<stop  offset="0" style="stop-color:#006DF0"/>
		<stop  offset="1" style="stop-color:#00E7F0"/>
	</linearGradient>
	<path style="fill:url(#SVGID_3_);" d="M275.657,128.577c-6.249,6.247-6.251,16.378-0.003,22.627
		c6.247,6.249,16.378,6.251,22.627,0.003c6.249-6.247,6.251-16.378,0.003-22.627c-0.001-0.001-0.002-0.002-0.003-0.003
		C292.033,122.33,281.905,122.33,275.657,128.577z"/>
	
		<linearGradient id="SVGID_4_" gradientUnits="userSpaceOnUse" x1="-40.0081" y1="534.2166" x2="-40.0081" y2="591.2166" gradientTransform="matrix(8 0 0 -8 640.9714 4701.8213)">
		<stop  offset="0" style="stop-color:#006DF0"/>
		<stop  offset="1" style="stop-color:#00E7F0"/>
	</linearGradient>
	<path style="fill:url(#SVGID_4_);" d="M309.601,162.513c-6.252,6.245-6.257,16.376-0.012,22.628
		c6.245,6.252,16.376,6.257,22.628,0.012c6.25-6.247,6.251-16.378,0.004-22.628c-6.247-6.25-16.378-6.251-22.628-0.004
		L309.601,162.513z"/>
	
		<linearGradient id="SVGID_5_" gradientUnits="userSpaceOnUse" x1="-48.4929" y1="534.2166" x2="-48.4929" y2="591.2166" gradientTransform="matrix(8 0 0 -8 640.9714 4701.8213)">
		<stop  offset="0" style="stop-color:#006DF0"/>
		<stop  offset="1" style="stop-color:#00E7F0"/>
	</linearGradient>
	<path style="fill:url(#SVGID_5_);" d="M253.033,121.937c8.837-0.003,15.998-7.168,15.995-16.005
		c-0.003-8.837-7.168-15.998-16.005-15.995s-15.998,7.168-15.995,16.005c0.001,4.245,1.689,8.315,4.693,11.315
		C244.718,120.26,248.789,121.944,253.033,121.937z"/>
	
		<linearGradient id="SVGID_6_" gradientUnits="userSpaceOnUse" x1="-40.7143" y1="534.2166" x2="-40.7143" y2="591.2166" gradientTransform="matrix(8 0 0 -8 640.9714 4701.8213)">
		<stop  offset="0" style="stop-color:#006DF0"/>
		<stop  offset="1" style="stop-color:#00E7F0"/>
	</linearGradient>
	<path style="fill:url(#SVGID_6_);" d="M315.257,127.601c8.837-0.002,15.998-7.167,15.997-16.003
		c-0.001-4.241-1.686-8.309-4.685-11.309c-6.33-6.037-16.286-6.037-22.616,0c-6.252,6.245-6.257,16.376-0.013,22.627
		c3,3.004,7.071,4.692,11.317,4.693V127.601z"/>
	
		<linearGradient id="SVGID_7_" gradientUnits="userSpaceOnUse" x1="-36.4714" y1="534.2166" x2="-36.4714" y2="591.2166" gradientTransform="matrix(8 0 0 -8 640.9714 4701.8213)">
		<stop  offset="0" style="stop-color:#006DF0"/>
		<stop  offset="1" style="stop-color:#00E7F0"/>
	</linearGradient>
	<path style="fill:url(#SVGID_7_);" d="M337.889,134.225c-6.249,6.247-6.251,16.378-0.003,22.627
		c6.247,6.249,16.378,6.251,22.627,0.003c6.249-6.247,6.251-16.378,0.003-22.627c-0.001-0.001-0.002-0.002-0.003-0.003
		C354.183,128.178,344.218,128.178,337.889,134.225z"/>
	
		<linearGradient id="SVGID_8_" gradientUnits="userSpaceOnUse" x1="-44.9563" y1="534.2166" x2="-44.9563" y2="591.2166" gradientTransform="matrix(8 0 0 -8 640.9714 4701.8213)">
		<stop  offset="0" style="stop-color:#006DF0"/>
		<stop  offset="1" style="stop-color:#00E7F0"/>
	</linearGradient>
	<path style="fill:url(#SVGID_8_);" d="M281.313,93.657c8.837,0.003,16.002-7.159,16.005-15.995
		c0.001-4.244-1.684-8.315-4.685-11.317c-6.329-6.047-16.295-6.047-22.624,0c-6.247,6.249-6.246,16.38,0.003,22.627
		c3,2.999,7.067,4.684,11.309,4.685H281.313z"/>
	
		<linearGradient id="SVGID_9_" gradientUnits="userSpaceOnUse" x1="-66.1698" y1="534.2166" x2="-66.1698" y2="591.2166" gradientTransform="matrix(8 0 0 -8 640.9714 4701.8213)">
		<stop  offset="0" style="stop-color:#006DF0"/>
		<stop  offset="1" style="stop-color:#00E7F0"/>
	</linearGradient>
	<path style="fill:url(#SVGID_9_);" d="M100.297,303.929c-6.247,6.25-6.245,16.38,0.005,22.627c6.25,6.247,16.38,6.245,22.627-0.005
		c6.245-6.248,6.245-16.375,0-22.623C116.593,297.889,106.632,297.889,100.297,303.929z"/>
	
		<linearGradient id="SVGID_10_" gradientUnits="userSpaceOnUse" x1="-61.9408" y1="534.2166" x2="-61.9408" y2="591.2166" gradientTransform="matrix(8 0 0 -8 640.9714 4701.8213)">
		<stop  offset="0" style="stop-color:#006DF0"/>
		<stop  offset="1" style="stop-color:#00E7F0"/>
	</linearGradient>
	<path style="fill:url(#SVGID_10_);" d="M134.233,337.881c-6.356,6.139-6.532,16.268-0.393,22.624s16.268,6.532,22.624,0.393
		c0.133-0.129,0.264-0.26,0.393-0.393c6.246-6.248,6.246-16.376,0-22.624C150.527,331.834,140.562,331.834,134.233,337.881
		L134.233,337.881z"/>
	
		<linearGradient id="SVGID_11_" gradientUnits="userSpaceOnUse" x1="-70.4136" y1="534.2166" x2="-70.4136" y2="591.2166" gradientTransform="matrix(8 0 0 -8 640.9714 4701.8213)">
		<stop  offset="0" style="stop-color:#006DF0"/>
		<stop  offset="1" style="stop-color:#00E7F0"/>
	</linearGradient>
	<path style="fill:url(#SVGID_11_);" d="M66.353,269.993c-6.25,6.247-6.251,16.378-0.004,22.628
		c6.247,6.25,16.378,6.251,22.628,0.004c6.246-6.248,6.246-16.376,0-22.624C82.648,263.956,72.686,263.952,66.353,269.993z"/>
	
		<linearGradient id="SVGID_12_" gradientUnits="userSpaceOnUse" x1="-62.6338" y1="534.2166" x2="-62.6338" y2="591.2166" gradientTransform="matrix(8 0 0 -8 640.9714 4701.8213)">
		<stop  offset="0" style="stop-color:#006DF0"/>
		<stop  offset="1" style="stop-color:#00E7F0"/>
	</linearGradient>
	<path style="fill:url(#SVGID_12_);" d="M151.209,298.273c6.252-6.245,6.258-16.376,0.013-22.627
		c-6.245-6.252-16.376-6.258-22.627-0.013c-6.252,6.245-6.258,16.376-0.013,22.627c3,3.003,7.07,4.691,11.315,4.693
		C144.139,302.954,148.207,301.27,151.209,298.273z"/>
	
		<linearGradient id="SVGID_13_" gradientUnits="userSpaceOnUse" x1="-58.3931" y1="534.2166" x2="-58.3931" y2="591.2166" gradientTransform="matrix(8 0 0 -8 640.9714 4701.8213)">
		<stop  offset="0" style="stop-color:#006DF0"/>
		<stop  offset="1" style="stop-color:#00E7F0"/>
	</linearGradient>
	<path style="fill:url(#SVGID_13_);" d="M162.521,309.593c-6.252,6.245-6.257,16.376-0.012,22.628s16.376,6.257,22.628,0.012
		c6.25-6.247,6.251-16.378,0.004-22.628c-6.247-6.25-16.378-6.251-22.628-0.004l0,0L162.521,309.593z"/>
	
		<linearGradient id="SVGID_14_" gradientUnits="userSpaceOnUse" x1="-66.8768" y1="534.2166" x2="-66.8768" y2="591.2166" gradientTransform="matrix(8 0 0 -8 640.9714 4701.8213)">
		<stop  offset="0" style="stop-color:#006DF0"/>
		<stop  offset="1" style="stop-color:#00E7F0"/>
	</linearGradient>
	<path style="fill:url(#SVGID_14_);" d="M117.265,264.337c6.252-6.245,6.258-16.376,0.013-22.627
		c-6.245-6.252-16.376-6.258-22.627-0.013c-6.252,6.245-6.258,16.376-0.013,22.627c3,3.003,7.07,4.691,11.315,4.693
		C110.195,269.018,114.263,267.334,117.265,264.337z"/>
</g>
<g>
</g>
<g>
</g>
<g>
</g>
<g>
</g>
<g>
</g>
<g>
</g>
<g>
</g>
<g>
</g>
<g>
</g>
<g>
</g>
<g>
</g>
<g>
</g>
<g>
</g>
<g>
</g>
<g>
</g>
</svg>
