<?xml version="1.0" encoding="iso-8859-1"?>
<!-- Generator: Adobe Illustrator 19.0.0, SVG Export Plug-In . SVG Version: 6.00 Build 0)  -->
<svg version="1.1" id="Capa_1" xmlns="http://www.w3.org/2000/svg" xmlns:xlink="http://www.w3.org/1999/xlink" x="0px" y="0px"
	 viewBox="0 0 480 480" style="enable-background:new 0 0 480 480;" xml:space="preserve">
<linearGradient id="SVGID_1_" gradientUnits="userSpaceOnUse" x1="-28.3122" y1="557.455" x2="-28.3122" y2="616.792" gradientTransform="matrix(8 0 0 -8 466.498 4941)">
	<stop  offset="0" style="stop-color:#006DF0"/>
	<stop  offset="1" style="stop-color:#00E7F0"/>
</linearGradient>
<path style="fill:url(#SVGID_1_);" d="M434.973,252.368c5.228-27.789,4.39-56.38-2.456-83.816l29.04-13.248l-60.992-80.8
	l-10.872,10.872c-3.2-3.688-6.464-7.32-9.92-10.776c-26.656-26.685-60.364-45.222-97.176-53.44L289.253,0H133.029l6.504,42.264
	C85.199,73.15,48.421,127.655,40.117,189.6l-38.104,120c-1.325,4.215,1.017,8.706,5.232,10.032c0.774,0.243,1.581,0.368,2.392,0.368
	h52.72v72c0,4.418,3.582,8,8,8h64v72c0,4.418,3.582,8,8,8c0.332,0.003,0.663-0.019,0.992-0.064l192-24
	c4.003-0.5,7.007-3.902,7.008-7.936v-61.264c13.609-8.221,26.171-18.064,37.408-29.312c2.864-2.864,5.72-5.976,8.552-9.192
	l26.04,8.48V327.2l63.912,19.68l0.088-99.936L434.973,252.368z M436.757,149.016l-65.728,30.016l20.256,20.248l-36.464,17.52
	l18.544-18.512l-17.6-17.6l24.8-12.408l-21.296-29.88l39.6-39.6L436.757,149.016z M267.461,16l-32.728,104h48.52l-36.896,105.816
	V152h-44.896l16-48h-52.24l-13.536-88L267.461,16z M330.357,375.2c-2.48,1.432-4.006,4.08-4,6.944v58.776l-176,22V392
	c0-4.418-3.582-8-8-8h-64v-72c0-4.418-3.582-8-8-8H20.573l35.008-110.216c0.152-0.457,0.257-0.929,0.312-1.408
	c7.154-55.14,38.853-104.09,86.24-133.176l9.36,60.8h43.76l-16,48h51.104v150.184L305.461,104h-48.92l21.304-67.648
	c34.342,7.455,65.805,24.657,90.616,49.544c3.448,3.448,6.768,7.056,9.92,10.76l-40,40l18.288,25.744l-28,14l22.032,21.952
	l-73.944,73.784l141.792-68.216L398.638,184l19.152-8.736c3.053,13.363,4.585,27.029,4.568,40.736
	c0.01,12.924-1.371,25.812-4.12,38.44l-19.88,2.504v20.152l-24-9.36V304H260.702l111.008,38.76c-1.08,1.144-2.168,2.256-3.248,3.344
	C357.109,357.452,344.295,367.236,330.357,375.2L330.357,375.2z M462.253,325.232L398.357,305.6v29.08L355.061,320h35.296v-28.848
	l24,9.352v-29.448l48-6L462.253,325.232z"/>
<g>
</g>
<g>
</g>
<g>
</g>
<g>
</g>
<g>
</g>
<g>
</g>
<g>
</g>
<g>
</g>
<g>
</g>
<g>
</g>
<g>
</g>
<g>
</g>
<g>
</g>
<g>
</g>
<g>
</g>
</svg>
