<?xml version="1.0" encoding="iso-8859-1"?>
<!-- Generator: Adobe Illustrator 19.0.0, SVG Export Plug-In . SVG Version: 6.00 Build 0)  -->
<svg version="1.1" id="Capa_1" xmlns="http://www.w3.org/2000/svg" xmlns:xlink="http://www.w3.org/1999/xlink" x="0px" y="0px"
	 viewBox="0 0 480 480" style="enable-background:new 0 0 480 480;" xml:space="preserve">
<linearGradient id="SVGID_1_" gradientUnits="userSpaceOnUse" x1="-26.875" y1="558.455" x2="-26.875" y2="620.536" gradientTransform="matrix(8 0 0 -8 455 4941)">
	<stop  offset="0" style="stop-color:#006DF0"/>
	<stop  offset="1" style="stop-color:#00E7F0"/>
</linearGradient>
<path style="fill:url(#SVGID_1_);" d="M240,0c-30.928,0-56,25.072-56,56s25.072,56,56,56s56-25.072,56-56
	C295.965,25.087,270.913,0.035,240,0z M240,16c19.001,0.024,35.373,13.389,39.2,32h-78.4C204.627,29.389,220.999,16.024,240,16
	L240,16z M240,96c-19.001-0.024-35.373-13.389-39.2-32h78.4C275.373,82.611,259.001,95.976,240,96z"/>
<g>
	
		<linearGradient id="SVGID_2_" gradientUnits="userSpaceOnUse" x1="-9.875" y1="558.455" x2="-9.875" y2="620.536" gradientTransform="matrix(8 0 0 -8 455 4941)">
		<stop  offset="0" style="stop-color:#006DF0"/>
		<stop  offset="1" style="stop-color:#00E7F0"/>
	</linearGradient>
	<path style="fill:url(#SVGID_2_);" d="M376,112c30.928,0,56-25.072,56-56S406.928,0,376,0s-56,25.072-56,56
		C320.035,86.913,345.087,111.965,376,112z M376,96c-19.001-0.024-35.373-13.389-39.2-32h78.4C411.373,82.611,395.001,95.976,376,96
		L376,96z M376,16c19.001,0.024,35.373,13.389,39.2,32h-78.4C340.627,29.389,356.999,16.024,376,16L376,16z"/>
	
		<linearGradient id="SVGID_3_" gradientUnits="userSpaceOnUse" x1="-43.875" y1="558.455" x2="-43.875" y2="620.536" gradientTransform="matrix(8 0 0 -8 455 4941)">
		<stop  offset="0" style="stop-color:#006DF0"/>
		<stop  offset="1" style="stop-color:#00E7F0"/>
	</linearGradient>
	<path style="fill:url(#SVGID_3_);" d="M104,0C73.072,0,48,25.072,48,56s25.072,56,56,56s56-25.072,56-56
		C159.965,25.087,134.913,0.035,104,0z M104,16c19.001,0.024,35.373,13.389,39.2,32H64.8C68.627,29.389,84.999,16.024,104,16z
		 M104,96c-19.001-0.024-35.373-13.389-39.2-32h78.4C139.373,82.611,123.001,95.976,104,96L104,96z"/>
</g>
<linearGradient id="SVGID_4_" gradientUnits="userSpaceOnUse" x1="-26.875" y1="558.455" x2="-26.875" y2="620.536" gradientTransform="matrix(8 0 0 -8 455 4941)">
	<stop  offset="0" style="stop-color:#006DF0"/>
	<stop  offset="1" style="stop-color:#00E7F0"/>
</linearGradient>
<path style="fill:url(#SVGID_4_);" d="M240,368c-30.928,0-56,25.072-56,56s25.072,56,56,56s56-25.072,56-56
	C295.965,393.087,270.913,368.035,240,368z M240,384c19.001,0.024,35.373,13.389,39.2,32h-78.4
	C204.627,397.389,220.999,384.024,240,384L240,384z M240,464c-19.001-0.024-35.373-13.389-39.2-32h78.4
	C275.373,450.611,259.001,463.976,240,464z"/>
<g>
	
		<linearGradient id="SVGID_5_" gradientUnits="userSpaceOnUse" x1="-9.875" y1="558.455" x2="-9.875" y2="620.536" gradientTransform="matrix(8 0 0 -8 455 4941)">
		<stop  offset="0" style="stop-color:#006DF0"/>
		<stop  offset="1" style="stop-color:#00E7F0"/>
	</linearGradient>
	<path style="fill:url(#SVGID_5_);" d="M376,368c-30.928,0-56,25.072-56,56s25.072,56,56,56s56-25.072,56-56
		C431.965,393.087,406.913,368.035,376,368z M376,384c19.001,0.024,35.373,13.389,39.2,32h-78.4
		C340.627,397.389,356.999,384.024,376,384L376,384z M376,464c-19.001-0.024-35.373-13.389-39.2-32h78.4
		C411.373,450.611,395.001,463.976,376,464L376,464z"/>
	
		<linearGradient id="SVGID_6_" gradientUnits="userSpaceOnUse" x1="-43.875" y1="558.455" x2="-43.875" y2="620.536" gradientTransform="matrix(8 0 0 -8 455 4941)">
		<stop  offset="0" style="stop-color:#006DF0"/>
		<stop  offset="1" style="stop-color:#00E7F0"/>
	</linearGradient>
	<path style="fill:url(#SVGID_6_);" d="M104,368c-30.928,0-56,25.072-56,56s25.072,56,56,56s56-25.072,56-56
		C159.965,393.087,134.913,368.035,104,368z M104,384c19.001,0.024,35.373,13.389,39.2,32H64.8
		C68.627,397.389,84.999,384.024,104,384z M104,464c-19.001-0.024-35.373-13.389-39.2-32h78.4
		C139.373,450.611,123.001,463.976,104,464L104,464z"/>
</g>
<linearGradient id="SVGID_7_" gradientUnits="userSpaceOnUse" x1="-26.875" y1="558.455" x2="-26.875" y2="620.536" gradientTransform="matrix(8 0 0 -8 455 4941)">
	<stop  offset="0" style="stop-color:#006DF0"/>
	<stop  offset="1" style="stop-color:#00E7F0"/>
</linearGradient>
<path style="fill:url(#SVGID_7_);" d="M240,136c-30.913,0.035-55.965,25.087-56,56v96c0,30.928,25.072,56,56,56s56-25.072,56-56v-96
	C295.965,161.087,270.913,136.035,240,136z M240,328c-22.08-0.026-39.974-17.92-40-40v-40h80v40
	C279.974,310.08,262.08,327.974,240,328z M280,232h-80v-40c0-22.091,17.909-40,40-40s40,17.909,40,40V232z"/>
<g>
	
		<linearGradient id="SVGID_8_" gradientUnits="userSpaceOnUse" x1="-9.875" y1="558.455" x2="-9.875" y2="620.536" gradientTransform="matrix(8 0 0 -8 455 4941)">
		<stop  offset="0" style="stop-color:#006DF0"/>
		<stop  offset="1" style="stop-color:#00E7F0"/>
	</linearGradient>
	<path style="fill:url(#SVGID_8_);" d="M376,136c-30.913,0.035-55.965,25.087-56,56v96c0,30.928,25.072,56,56,56s56-25.072,56-56
		v-96C431.965,161.087,406.913,136.035,376,136z M376,328c-22.08-0.026-39.974-17.92-40-40v-40h80v40
		C415.974,310.08,398.08,327.974,376,328z M416,232h-80v-40c0-22.091,17.909-40,40-40s40,17.909,40,40V232z"/>
	
		<linearGradient id="SVGID_9_" gradientUnits="userSpaceOnUse" x1="-43.875" y1="558.455" x2="-43.875" y2="620.536" gradientTransform="matrix(8 0 0 -8 455 4941)">
		<stop  offset="0" style="stop-color:#006DF0"/>
		<stop  offset="1" style="stop-color:#00E7F0"/>
	</linearGradient>
	<path style="fill:url(#SVGID_9_);" d="M104,136c-30.913,0.035-55.965,25.087-56,56v96c0,30.928,25.072,56,56,56s56-25.072,56-56
		v-96C159.965,161.087,134.913,136.035,104,136z M104,328c-22.08-0.026-39.974-17.92-40-40v-40h80v40
		C143.974,310.08,126.08,327.974,104,328z M144,232H64v-40c0-22.091,17.909-40,40-40s40,17.909,40,40V232z"/>
	
		<linearGradient id="SVGID_10_" gradientUnits="userSpaceOnUse" x1="-43.875" y1="558.455" x2="-43.875" y2="620.536" gradientTransform="matrix(8 0 0 -8 455 4941)">
		<stop  offset="0" style="stop-color:#006DF0"/>
		<stop  offset="1" style="stop-color:#00E7F0"/>
	</linearGradient>
	<path style="fill:url(#SVGID_10_);" d="M112,184v-16c0-4.418-3.582-8-8-8s-8,3.582-8,8v16H80c-4.418,0-8,3.582-8,8s3.582,8,8,8h16
		v16c0,4.418,3.582,8,8,8s8-3.582,8-8v-16h16c4.418,0,8-3.582,8-8s-3.582-8-8-8H112z"/>
</g>
<linearGradient id="SVGID_11_" gradientUnits="userSpaceOnUse" x1="-26.875" y1="558.455" x2="-26.875" y2="620.536" gradientTransform="matrix(8 0 0 -8 455 4941)">
	<stop  offset="0" style="stop-color:#006DF0"/>
	<stop  offset="1" style="stop-color:#00E7F0"/>
</linearGradient>
<path style="fill:url(#SVGID_11_);" d="M248,184v-16c0-4.418-3.582-8-8-8s-8,3.582-8,8v16h-16c-4.418,0-8,3.582-8,8s3.582,8,8,8h16
	v16c0,4.418,3.582,8,8,8s8-3.582,8-8v-16h16c4.418,0,8-3.582,8-8s-3.582-8-8-8H248z"/>
<linearGradient id="SVGID_12_" gradientUnits="userSpaceOnUse" x1="-9.875" y1="558.455" x2="-9.875" y2="620.536" gradientTransform="matrix(8 0 0 -8 455 4941)">
	<stop  offset="0" style="stop-color:#006DF0"/>
	<stop  offset="1" style="stop-color:#00E7F0"/>
</linearGradient>
<path style="fill:url(#SVGID_12_);" d="M384,184v-16c0-4.418-3.582-8-8-8s-8,3.582-8,8v16h-16c-4.418,0-8,3.582-8,8s3.582,8,8,8h16
	v16c0,4.418,3.582,8,8,8s8-3.582,8-8v-16h16c4.418,0,8-3.582,8-8s-3.582-8-8-8H384z"/>
<g>
</g>
<g>
</g>
<g>
</g>
<g>
</g>
<g>
</g>
<g>
</g>
<g>
</g>
<g>
</g>
<g>
</g>
<g>
</g>
<g>
</g>
<g>
</g>
<g>
</g>
<g>
</g>
<g>
</g>
</svg>
