<?xml version="1.0" encoding="iso-8859-1"?>
<!-- Generator: Adobe Illustrator 19.0.0, SVG Export Plug-In . SVG Version: 6.00 Build 0)  -->
<svg version="1.1" id="Capa_1" xmlns="http://www.w3.org/2000/svg" xmlns:xlink="http://www.w3.org/1999/xlink" x="0px" y="0px"
	 viewBox="0 0 478.452 478.452" style="enable-background:new 0 0 478.452 478.452;" xml:space="preserve">
<linearGradient id="SVGID_1_" gradientUnits="userSpaceOnUse" x1="-36.6345" y1="556.2329" x2="-36.6345" y2="616.2879" gradientTransform="matrix(8 0 0 -8 460.4134 4925.501)">
	<stop  offset="0" style="stop-color:#006DF0"/>
	<stop  offset="1" style="stop-color:#00E7F0"/>
</linearGradient>
<path style="fill:url(#SVGID_1_);" d="M235.227,9.646c-34.444-19.87-78.474-8.056-98.345,26.388
	c-0.002,0.004-0.005,0.008-0.007,0.012l-64,110.848c-19.654,34.568-7.564,78.523,27.004,98.177
	c34.244,19.47,77.778,7.806,97.7-26.177l64-110.848C281.436,73.592,269.645,29.565,235.227,9.646L235.227,9.646z M183.723,210.854
	c-15.286,26.886-49.474,36.29-76.36,21.004s-36.29-49.474-21.004-76.36c0.122-0.215,0.246-0.43,0.372-0.644l28-48.496l96.992,56
	L183.723,210.854z M247.723,100.006l-28,48.488l-96.992-56l28-48.496c7.395-12.889,19.637-22.286,34-26.096
	c29.874-8.007,60.582,9.72,68.588,39.593c3.846,14.349,1.833,29.638-5.596,42.503V100.006z"/>
<g>
	
		<linearGradient id="SVGID_2_" gradientUnits="userSpaceOnUse" x1="-33.3769" y1="556.2329" x2="-33.3769" y2="616.2879" gradientTransform="matrix(8 0 0 -8 460.4134 4925.501)">
		<stop  offset="0" style="stop-color:#006DF0"/>
		<stop  offset="1" style="stop-color:#00E7F0"/>
	</linearGradient>
	<path style="fill:url(#SVGID_2_);" d="M219.227,37.358c-6.051-3.533-12.937-5.387-19.944-5.368
		c-14.303,0.014-27.521,7.631-34.704,20c-2.209,3.828-0.896,8.723,2.932,10.932c3.828,2.209,8.723,0.896,10.932-2.932
		c6.793-11.269,21.278-15.156,32.8-8.8c3.812,2.235,8.713,0.956,10.947-2.855c2.235-3.812,0.956-8.713-2.855-10.947
		c-0.031-0.018-0.061-0.036-0.092-0.053L219.227,37.358z"/>
	
		<linearGradient id="SVGID_3_" gradientUnits="userSpaceOnUse" x1="-18.6782" y1="556.2329" x2="-18.6782" y2="616.2879" gradientTransform="matrix(8 0 0 -8 460.4134 4925.501)">
		<stop  offset="0" style="stop-color:#006DF0"/>
		<stop  offset="1" style="stop-color:#00E7F0"/>
	</linearGradient>
	<path style="fill:url(#SVGID_3_);" d="M405.579,370.854l-64-110.848c-19.654-34.568-63.61-46.658-98.177-27.004
		s-46.658,63.61-27.004,98.177c0.157,0.276,0.316,0.552,0.477,0.826l64,110.848c20.11,34.304,64.222,45.811,98.527,25.701
		C413.385,448.632,425.049,405.098,405.579,370.854z M251.227,247.502c26.786-15.462,61.034-6.282,76.496,20.504c0,0,0,0,0,0
		l28,48.496l-96.992,56l-28-48.488C215.299,297.221,224.468,262.993,251.227,247.502z M371.227,455.35
		c-26.789,15.425-61.008,6.257-76.496-20.496l-28-48.496l96.992-56l28,48.496C407.153,405.642,397.983,439.865,371.227,455.35z"/>
	
		<linearGradient id="SVGID_4_" gradientUnits="userSpaceOnUse" x1="-21.919" y1="556.2329" x2="-21.919" y2="616.2879" gradientTransform="matrix(8 0 0 -8 460.4134 4925.501)">
		<stop  offset="0" style="stop-color:#006DF0"/>
		<stop  offset="1" style="stop-color:#00E7F0"/>
	</linearGradient>
	<path style="fill:url(#SVGID_4_);" d="M267.227,275.214c11.523-6.347,26.001-2.462,32.8,8.8c2.235,3.811,7.136,5.089,10.948,2.854
		c3.775-2.214,5.071-7.05,2.908-10.854c-7.178-12.37-20.394-19.988-34.696-20c-7.007-0.019-13.893,1.835-19.944,5.368
		c-3.841,2.183-5.185,7.067-3.002,10.908c2.183,3.841,7.067,5.185,10.908,3.002c0.031-0.018,0.062-0.036,0.093-0.054
		L267.227,275.214z"/>
</g>
<g>
</g>
<g>
</g>
<g>
</g>
<g>
</g>
<g>
</g>
<g>
</g>
<g>
</g>
<g>
</g>
<g>
</g>
<g>
</g>
<g>
</g>
<g>
</g>
<g>
</g>
<g>
</g>
<g>
</g>
</svg>
