<?xml version="1.0" encoding="iso-8859-1"?>
<!-- Generator: Adobe Illustrator 19.0.0, SVG Export Plug-In . SVG Version: 6.00 Build 0)  -->
<svg version="1.1" id="Capa_1" xmlns="http://www.w3.org/2000/svg" xmlns:xlink="http://www.w3.org/1999/xlink" x="0px" y="0px"
	 viewBox="0 0 477.824 477.824" style="enable-background:new 0 0 477.824 477.824;" xml:space="preserve">
<linearGradient id="SVGID_1_" gradientUnits="userSpaceOnUse" x1="-71.5415" y1="566.9373" x2="-28.6195" y2="609.8583" gradientTransform="matrix(5.6569 -5.6569 -5.6569 -5.6569 3846.3069 3277.5293)">
	<stop  offset="0" style="stop-color:#006DF0"/>
	<stop  offset="1" style="stop-color:#00E7F0"/>
</linearGradient>
<path style="fill:url(#SVGID_1_);" d="M223.198,191.176l11.314-11.314l11.314,11.314l-11.314,11.314L223.198,191.176z"/>
<linearGradient id="SVGID_2_" gradientUnits="userSpaceOnUse" x1="-70.7133" y1="567.7672" x2="-27.7923" y2="610.6862" gradientTransform="matrix(5.6569 -5.6569 -5.6569 -5.6569 3868.9387 3286.9211)">
	<stop  offset="0" style="stop-color:#006DF0"/>
	<stop  offset="1" style="stop-color:#00E7F0"/>
</linearGradient>
<path style="fill:url(#SVGID_2_);" d="M245.825,168.567l11.314-11.314l11.314,11.314l-11.314,11.314L245.825,168.567z"/>
<linearGradient id="SVGID_3_" gradientUnits="userSpaceOnUse" x1="-72.3697" y1="566.1075" x2="-29.4487" y2="609.0305" gradientTransform="matrix(5.6569 -5.6569 -5.6569 -5.6569 3823.6829 3268.1692)">
	<stop  offset="0" style="stop-color:#006DF0"/>
	<stop  offset="1" style="stop-color:#00E7F0"/>
</linearGradient>
<path style="fill:url(#SVGID_3_);" d="M200.574,213.811l11.314-11.314l11.314,11.314l-11.314,11.314L200.574,213.811z"/>
<linearGradient id="SVGID_4_" gradientUnits="userSpaceOnUse" x1="-76.3693" y1="567.7672" x2="-33.4483" y2="610.6862" gradientTransform="matrix(5.6569 -5.6569 -5.6569 -5.6569 3855.6829 3254.9292)">
	<stop  offset="0" style="stop-color:#006DF0"/>
	<stop  offset="1" style="stop-color:#00E7F0"/>
</linearGradient>
<path style="fill:url(#SVGID_4_);" d="M200.574,168.57l11.314-11.314l11.314,11.314l-11.314,11.314L200.574,168.57z"/>
<linearGradient id="SVGID_5_" gradientUnits="userSpaceOnUse" x1="-75.5417" y1="568.5935" x2="-32.6197" y2="611.5155" gradientTransform="matrix(5.6569 -5.6569 -5.6569 -5.6569 3878.3147 3264.2971)">
	<stop  offset="0" style="stop-color:#006DF0"/>
	<stop  offset="1" style="stop-color:#00E7F0"/>
</linearGradient>
<path style="fill:url(#SVGID_5_);" d="M223.206,145.943l11.314-11.314l11.314,11.314l-11.314,11.314L223.206,145.943z"/>
<linearGradient id="SVGID_6_" gradientUnits="userSpaceOnUse" x1="-77.1997" y1="566.9385" x2="-34.2737" y2="609.8595" gradientTransform="matrix(5.6569 -5.6569 -5.6569 -5.6569 3833.0588 3245.5532)">
	<stop  offset="0" style="stop-color:#006DF0"/>
	<stop  offset="1" style="stop-color:#00E7F0"/>
</linearGradient>
<path style="fill:url(#SVGID_6_);" d="M177.95,191.201l11.314-11.314l11.314,11.314l-11.314,11.314L177.95,191.201z"/>
<linearGradient id="SVGID_7_" gradientUnits="userSpaceOnUse" x1="-66.7139" y1="566.1077" x2="-23.7929" y2="609.0297" gradientTransform="matrix(5.6569 -5.6569 -5.6569 -5.6569 3836.9387 3300.1692)">
	<stop  offset="0" style="stop-color:#006DF0"/>
	<stop  offset="1" style="stop-color:#00E7F0"/>
</linearGradient>
<path style="fill:url(#SVGID_7_);" d="M245.826,213.816l11.314-11.314l11.314,11.314L257.14,225.13L245.826,213.816z"/>
<linearGradient id="SVGID_8_" gradientUnits="userSpaceOnUse" x1="-65.8845" y1="566.9373" x2="-22.9625" y2="609.8583" gradientTransform="matrix(5.6569 -5.6569 -5.6569 -5.6569 3859.5627 3309.5293)">
	<stop  offset="0" style="stop-color:#006DF0"/>
	<stop  offset="1" style="stop-color:#00E7F0"/>
</linearGradient>
<path style="fill:url(#SVGID_8_);" d="M268.455,191.175l11.314-11.314l11.314,11.314l-11.314,11.314L268.455,191.175z"/>
<linearGradient id="SVGID_9_" gradientUnits="userSpaceOnUse" x1="-67.5432" y1="565.281" x2="-24.6212" y2="608.199" gradientTransform="matrix(5.6569 -5.6569 -5.6569 -5.6569 3814.3389 3290.8091)">
	<stop  offset="0" style="stop-color:#006DF0"/>
	<stop  offset="1" style="stop-color:#00E7F0"/>
</linearGradient>
<path style="fill:url(#SVGID_9_);" d="M223.226,236.451l11.314-11.314l11.314,11.314l-11.314,11.314L223.226,236.451z"/>
<linearGradient id="SVGID_10_" gradientUnits="userSpaceOnUse" x1="-73.2009" y1="565.2827" x2="-30.2749" y2="608.1997" gradientTransform="matrix(5.6569 -5.6569 -5.6569 -5.6569 3801.0588 3258.8091)">
	<stop  offset="0" style="stop-color:#006DF0"/>
	<stop  offset="1" style="stop-color:#00E7F0"/>
</linearGradient>
<path style="fill:url(#SVGID_10_);" d="M177.945,236.452l11.314-11.314l11.314,11.314l-11.314,11.314L177.945,236.452z"/>
<linearGradient id="SVGID_11_" gradientUnits="userSpaceOnUse" x1="-78.0285" y1="566.1083" x2="-35.1035" y2="609.0303" gradientTransform="matrix(5.6569 -5.6569 -5.6569 -5.6569 3810.4268 3236.1692)">
	<stop  offset="0" style="stop-color:#006DF0"/>
	<stop  offset="1" style="stop-color:#00E7F0"/>
</linearGradient>
<path style="fill:url(#SVGID_11_);" d="M155.318,213.812l11.314-11.314l11.314,11.314l-11.314,11.314L155.318,213.812z"/>
<linearGradient id="SVGID_12_" gradientUnits="userSpaceOnUse" x1="-68.3716" y1="564.4504" x2="-25.4476" y2="607.3724" gradientTransform="matrix(5.6569 -5.6569 -5.6569 -5.6569 3791.6829 3281.4331)">
	<stop  offset="0" style="stop-color:#006DF0"/>
	<stop  offset="1" style="stop-color:#00E7F0"/>
</linearGradient>
<path style="fill:url(#SVGID_12_);" d="M200.575,259.076l11.314-11.314l11.314,11.314l-11.314,11.314L200.575,259.076z"/>
<linearGradient id="SVGID_13_" gradientUnits="userSpaceOnUse" x1="-61.8869" y1="565.2808" x2="-18.9639" y2="608.1987" gradientTransform="matrix(5.6569 -5.6569 -5.6569 -5.6569 3827.5627 3322.8091)">
	<stop  offset="0" style="stop-color:#006DF0"/>
	<stop  offset="1" style="stop-color:#00E7F0"/>
</linearGradient>
<path style="fill:url(#SVGID_13_);" d="M268.451,236.45l11.314-11.314l11.314,11.314l-11.314,11.314L268.451,236.45z"/>
<linearGradient id="SVGID_14_" gradientUnits="userSpaceOnUse" x1="-61.0575" y1="566.1083" x2="-18.1335" y2="609.0313" gradientTransform="matrix(5.6569 -5.6569 -5.6569 -5.6569 3850.1948 3332.1692)">
	<stop  offset="0" style="stop-color:#006DF0"/>
	<stop  offset="1" style="stop-color:#00E7F0"/>
</linearGradient>
<path style="fill:url(#SVGID_14_);" d="M291.083,213.815l11.314-11.314l11.314,11.314l-11.314,11.314L291.083,213.815z"/>
<linearGradient id="SVGID_15_" gradientUnits="userSpaceOnUse" x1="-62.7132" y1="564.452" x2="-19.7922" y2="607.373" gradientTransform="matrix(5.6569 -5.6569 -5.6569 -5.6569 3804.9387 3313.4331)">
	<stop  offset="0" style="stop-color:#006DF0"/>
	<stop  offset="1" style="stop-color:#00E7F0"/>
</linearGradient>
<path style="fill:url(#SVGID_15_);" d="M245.827,259.081l11.314-11.314l11.314,11.314l-11.314,11.314L245.827,259.081z"/>
<linearGradient id="SVGID_16_" gradientUnits="userSpaceOnUse" x1="-63.5407" y1="563.6265" x2="-20.6187" y2="606.5435" gradientTransform="matrix(5.6569 -5.6569 -5.6569 -5.6569 3782.3389 3304.0652)">
	<stop  offset="0" style="stop-color:#006DF0"/>
	<stop  offset="1" style="stop-color:#00E7F0"/>
</linearGradient>
<path style="fill:url(#SVGID_16_);" d="M223.227,281.708l11.314-11.314l11.314,11.314l-11.314,11.314L223.227,281.708z"/>
<g>
	
		<linearGradient id="SVGID_17_" gradientUnits="userSpaceOnUse" x1="-41.6898" y1="557.5725" x2="-48.5908" y2="618.2755" gradientTransform="matrix(8 0 0 -8 493.4145 4921.4199)">
		<stop  offset="0" style="stop-color:#006DF0"/>
		<stop  offset="1" style="stop-color:#00E7F0"/>
	</linearGradient>
	<path style="fill:url(#SVGID_17_);" d="M107.312,185.136l-62.224-62.224c-28.118-28.118-28.118-73.706,0-101.824
		s73.706-28.118,101.824,0l62.224,62.232L107.312,185.136z M96.008,16.032c-30.928,0.011-55.991,25.092-55.98,56.02
		c0.005,14.831,5.893,29.053,16.372,39.548l50.912,50.912l79.2-79.2L135.6,32.4C125.104,21.897,110.857,16.007,96.008,16.032
		L96.008,16.032z"/>
	
		<linearGradient id="SVGID_18_" gradientUnits="userSpaceOnUse" x1="-43.7225" y1="557.3414" x2="-50.6235" y2="618.0444" gradientTransform="matrix(8 0 0 -8 493.4145 4921.4199)">
		<stop  offset="0" style="stop-color:#006DF0"/>
		<stop  offset="1" style="stop-color:#00E7F0"/>
	</linearGradient>
	<path style="fill:url(#SVGID_18_);" d="M112.976,55.032c-9.499-9.065-24.445-9.065-33.944,0L67.72,43.72
		c15.621-15.621,40.947-15.621,56.568,0L112.976,55.032z"/>
	
		<linearGradient id="SVGID_19_" gradientUnits="userSpaceOnUse" x1="-11.4364" y1="561.0118" x2="-18.3374" y2="621.7148" gradientTransform="matrix(8 0 0 -8 493.4145 4921.4199)">
		<stop  offset="0" style="stop-color:#006DF0"/>
		<stop  offset="1" style="stop-color:#00E7F0"/>
	</linearGradient>
	<path style="fill:url(#SVGID_19_);" d="M370.512,185.136L268.688,83.32l62.224-62.232c28.118-28.118,73.706-28.118,101.824,0
		s28.118,73.706,0,101.824L370.512,185.136z M291.312,83.32l79.2,79.2l50.912-50.912c21.87-21.87,21.87-57.33,0-79.2
		s-57.33-21.87-79.2,0l0,0L291.312,83.32z"/>
	
		<linearGradient id="SVGID_20_" gradientUnits="userSpaceOnUse" x1="-5.4361" y1="561.694" x2="-12.3371" y2="622.397" gradientTransform="matrix(8 0 0 -8 493.4145 4921.4199)">
		<stop  offset="0" style="stop-color:#006DF0"/>
		<stop  offset="1" style="stop-color:#00E7F0"/>
	</linearGradient>
	<path style="fill:url(#SVGID_20_);" d="M410.112,100.28L398.8,88.968c9.369-9.372,9.369-24.564,0-33.936l11.312-11.312
		C425.705,59.35,425.705,84.651,410.112,100.28z"/>
	
		<linearGradient id="SVGID_21_" gradientUnits="userSpaceOnUse" x1="-30.4975" y1="558.8448" x2="-37.3985" y2="619.5479" gradientTransform="matrix(8 0 0 -8 493.4145 4921.4199)">
		<stop  offset="0" style="stop-color:#006DF0"/>
		<stop  offset="1" style="stop-color:#00E7F0"/>
	</linearGradient>
	<path style="fill:url(#SVGID_21_);" d="M306.512,477.824h-144c-30.913-0.035-55.965-25.087-56-56v-208h16v208
		c0.026,22.08,17.92,39.974,40,40h144c22.08-0.026,39.974-17.92,40-40v-208h16v208C362.477,452.738,337.426,477.789,306.512,477.824
		z"/>
</g>
<g>
</g>
<g>
</g>
<g>
</g>
<g>
</g>
<g>
</g>
<g>
</g>
<g>
</g>
<g>
</g>
<g>
</g>
<g>
</g>
<g>
</g>
<g>
</g>
<g>
</g>
<g>
</g>
<g>
</g>
</svg>
