<?xml version="1.0" encoding="iso-8859-1"?>
<!-- Generator: Adobe Illustrator 19.0.0, SVG Export Plug-In . SVG Version: 6.00 Build 0)  -->
<svg version="1.1" id="Capa_1" xmlns="http://www.w3.org/2000/svg" xmlns:xlink="http://www.w3.org/1999/xlink" x="0px" y="0px"
	 viewBox="0 0 476.081 476.081" style="enable-background:new 0 0 476.081 476.081;" xml:space="preserve">
<linearGradient id="SVGID_1_" gradientUnits="userSpaceOnUse" x1="-13.3589" y1="555.8163" x2="-13.3589" y2="614.5293" gradientTransform="matrix(8 0 0 -8 468.8301 4923.2188)">
	<stop  offset="0" style="stop-color:#006DF0"/>
	<stop  offset="1" style="stop-color:#00E7F0"/>
</linearGradient>
<path style="fill:url(#SVGID_1_);" d="M306.624,84.624c60.431,27.12,99.338,87.162,99.4,153.4c0,4.418,3.582,8,8,8s8-3.582,8-8
	c-0.071-72.538-42.673-138.291-108.848-168c-4.034-1.809-8.771-0.006-10.58,4.028c-1.809,4.034-0.006,8.771,4.028,10.58l0,0V84.624z
	"/>
<g>
	
		<linearGradient id="SVGID_2_" gradientUnits="userSpaceOnUse" x1="-25.9249" y1="555.8163" x2="-25.9249" y2="614.5293" gradientTransform="matrix(8 0 0 -8 468.8301 4923.2188)">
		<stop  offset="0" style="stop-color:#006DF0"/>
		<stop  offset="1" style="stop-color:#00E7F0"/>
	</linearGradient>
	<path style="fill:url(#SVGID_2_);" d="M238.024,70.024c15.137-0.006,30.205,2.025,44.8,6.04c4.276,1.111,8.644-1.455,9.754-5.732
		c1.088-4.188-1.352-8.482-5.506-9.692c-15.978-4.399-32.476-6.624-49.048-6.616c-4.418,0-8,3.582-8,8
		S233.606,70.024,238.024,70.024L238.024,70.024z"/>
	
		<linearGradient id="SVGID_3_" gradientUnits="userSpaceOnUse" x1="-28.8487" y1="555.8163" x2="-28.8487" y2="614.5293" gradientTransform="matrix(8 0 0 -8 468.8301 4923.2188)">
		<stop  offset="0" style="stop-color:#006DF0"/>
		<stop  offset="1" style="stop-color:#00E7F0"/>
	</linearGradient>
	<path style="fill:url(#SVGID_3_);" d="M408.072,407.208c92.417-94.918,90.39-246.783-4.528-339.2
		c-93.131-90.678-241.541-90.678-334.672,0c-0.16,0.136-0.368,0.192-0.52,0.344s-0.208,0.36-0.344,0.52
		c-92.417,94.918-90.39,246.783,4.528,339.2c93.131,90.678,241.541,90.677,334.672,0c0.16-0.136,0.368-0.192,0.52-0.344
		S407.936,407.368,408.072,407.208z M462.024,238.024c0.033,56.635-21.474,111.164-60.16,152.528L85.496,74.184
		c90.397-84.327,232.039-79.407,316.367,10.991C440.562,126.66,462.065,181.291,462.024,238.024L462.024,238.024z M14.024,238.024
		c-0.033-56.635,21.474-111.164,60.16-152.528l316.368,316.368c-90.397,84.327-232.039,79.407-316.367-10.991
		C35.486,349.389,13.983,294.757,14.024,238.024L14.024,238.024z"/>
</g>
<g>
</g>
<g>
</g>
<g>
</g>
<g>
</g>
<g>
</g>
<g>
</g>
<g>
</g>
<g>
</g>
<g>
</g>
<g>
</g>
<g>
</g>
<g>
</g>
<g>
</g>
<g>
</g>
<g>
</g>
</svg>
