<?xml version="1.0" encoding="iso-8859-1"?>
<!-- Generator: Adobe Illustrator 19.0.0, SVG Export Plug-In . SVG Version: 6.00 Build 0)  -->
<svg version="1.1" id="Capa_1" xmlns="http://www.w3.org/2000/svg" xmlns:xlink="http://www.w3.org/1999/xlink" x="0px" y="0px"
	 viewBox="0 0 478.811 478.811" style="enable-background:new 0 0 478.811 478.811;" xml:space="preserve">
<linearGradient id="SVGID_1_" gradientUnits="userSpaceOnUse" x1="-26.9495" y1="556.6365" x2="-26.9495" y2="615.9925" gradientTransform="matrix(8 0 0 -8 455.0018 4938.1333)">
	<stop  offset="0" style="stop-color:#006DF0"/>
	<stop  offset="1" style="stop-color:#00E7F0"/>
</linearGradient>
<path style="fill:url(#SVGID_1_);" d="M422.4,366.081c-12.077,0.002-23.826,3.933-33.472,11.2l-92.696-92.68
	c21.023-26.257,21.023-63.583,0-89.84l92.688-92.68c24.853,18.601,60.079,13.533,78.68-11.32s13.533-60.079-11.32-78.68
	s-60.079-13.533-78.68,11.32c-14.944,19.967-14.944,47.393,0,67.36l-92.68,92.688c-31.026-24.822-76.3-19.792-101.122,11.234
	c-8.507,10.634-13.822,23.464-15.326,36.998H79.2c-4.418-21.645-25.547-35.61-47.192-31.192s-35.61,25.547-31.192,47.192
	s25.547,35.61,47.192,31.192c15.709-3.207,27.985-15.483,31.192-31.192h89.28c4.388,39.49,39.959,67.946,79.45,63.558
	c13.535-1.504,26.364-6.819,36.998-15.326l92.672,92.688c-18.451,24.772-13.326,59.811,11.446,78.262
	c24.772,18.451,59.811,13.326,78.262-11.446s13.326-59.811-11.446-78.262C446.193,369.954,434.456,366.07,422.4,366.081
	L422.4,366.081z M40,263.681c-13.255,0-24-10.745-24-24c0-13.255,10.745-24,24-24s24,10.745,24,24
	C64,252.936,53.255,263.681,40,263.681z M422.4,17.281c22.091,0,40,17.909,40,40s-17.909,40-40,40s-40-17.909-40-40
	C382.426,35.201,400.319,17.308,422.4,17.281z M200.4,279.281c-21.87-21.868-21.872-57.326-0.004-79.196s57.325-21.872,79.196-0.004
	c21.87,21.868,21.872,57.325,0.004,79.196C269.094,289.78,254.851,295.68,240,295.681
	C225.139,295.722,210.881,289.816,200.4,279.281z M422.4,462.082c-22.091,0-40-17.909-40-40s17.909-40,40-40s40,17.909,40,40
	C462.373,444.162,444.48,462.055,422.4,462.082z"/>
<g>
</g>
<g>
</g>
<g>
</g>
<g>
</g>
<g>
</g>
<g>
</g>
<g>
</g>
<g>
</g>
<g>
</g>
<g>
</g>
<g>
</g>
<g>
</g>
<g>
</g>
<g>
</g>
<g>
</g>
</svg>
