<?xml version="1.0" encoding="iso-8859-1"?>
<!-- Generator: Adobe Illustrator 19.0.0, SVG Export Plug-In . SVG Version: 6.00 Build 0)  -->
<svg version="1.1" id="Capa_1" xmlns="http://www.w3.org/2000/svg" xmlns:xlink="http://www.w3.org/1999/xlink" x="0px" y="0px"
	 viewBox="0 0 480 480" style="enable-background:new 0 0 480 480;" xml:space="preserve">
<linearGradient id="SVGID_1_" gradientUnits="userSpaceOnUse" x1="-40.8909" y1="556.955" x2="-40.8909" y2="616.458" gradientTransform="matrix(8 0 0 -8 567.127 4941)">
	<stop  offset="0" style="stop-color:#006DF0"/>
	<stop  offset="1" style="stop-color:#00E7F0"/>
</linearGradient>
<path style="fill:url(#SVGID_1_);" d="M295.982,391.672c83.78-39.687,119.524-139.776,79.838-223.556
	c-17.939-37.87-49.394-67.66-88.182-83.516c-1.41-13.182-10.828-24.117-23.656-27.464V32h-24v-8c0-13.255-10.745-24-24-24h-16
	c-13.255,0-24,10.745-24,24v8h-24v176h32v88h48v-88h32v-89.16c9.399-2.48,17.165-9.092,21.112-17.976
	c76.848,33.786,111.758,123.472,77.972,200.321c-13.839,31.478-37.942,57.333-68.372,73.343
	c-4.354-17.864-20.325-30.459-38.712-30.528h-32c-22.08,0.026-39.974,17.92-40,40v56h-96v40h304v-40h-96V391.672z M191.982,24
	c0-4.418,3.582-8,8-8h16c4.418,0,8,3.582,8,8v8h-32V24z M215.982,280h-16v-72h16V280z M247.982,192h-80V48h80v9.008
	c-0.384,0.096-0.744,0.256-1.128,0.368c-0.536,0.16-1.072,0.328-1.6,0.52c-0.92,0.328-1.816,0.704-2.696,1.112
	c-0.504,0.232-1.016,0.448-1.512,0.704c-0.984,0.52-1.928,1.112-2.856,1.728c-0.712,0.48-1.384,0.992-2.056,1.528
	s-1.384,1.096-2.032,1.704s-1.088,1.12-1.6,1.696s-0.896,0.984-1.312,1.512s-0.992,1.28-1.456,1.952s-0.736,1.152-1.088,1.752
	s-0.8,1.312-1.128,2.008c-0.568,1.14-1.063,2.316-1.48,3.52c-0.056,0.16-0.144,0.296-0.192,0.456v0.048v0.08
	c-0.339,1.051-0.622,2.119-0.848,3.2c-0.144,0.624-0.384,1.232-0.488,1.864c-0.327,1.728-0.504,3.481-0.528,5.24
	c0.011,2.015,0.214,4.024,0.608,6c0.12,0.632,0.32,1.224,0.48,1.848c0.313,1.284,0.706,2.548,1.176,3.784
	c0.272,0.68,0.584,1.328,0.896,1.984c0.517,1.101,1.099,2.169,1.744,3.2c0.384,0.616,0.8,1.224,1.2,1.816
	c0.743,1.004,1.544,1.963,2.4,2.872c0.456,0.496,0.88,1.008,1.36,1.48c1.088,1.025,2.242,1.976,3.456,2.848
	c0.336,0.24,0.632,0.528,0.976,0.76c1.593,1.066,3.28,1.984,5.04,2.744c0.472,0.2,0.976,0.328,1.456,0.504
	c1.045,0.436,2.114,0.815,3.2,1.136L247.982,192z M271.846,89.376c-0.603,8.296-7.547,14.697-15.864,14.624c-8.837,0-16-7.163-16-16
	c-0.008-1.618,0.262-3.226,0.8-4.752c0.048-0.152,0.064-0.28,0.12-0.432c2.144-6.498,8.238-10.869,15.08-10.816
	c8.837,0,16,7.163,16,16l0.08,0.056L271.846,89.376z M199.982,384c0-13.255,10.745-24,24-24h32
	c12.171,0.039,22.378,9.2,23.728,21.296c-3.84,1.52-7.648,2.853-11.424,4c-8.155-15.639-27.444-21.706-43.084-13.551
	c-15.639,8.155-21.706,27.444-13.551,43.084c8.155,15.639,27.444,21.706,43.084,13.551c10.287-5.364,16.856-15.886,17.159-27.484
	c2.688-0.8,5.376-1.6,8.088-2.544V440h-80L199.982,384z M255.982,400c-0.101,8.734-7.263,15.733-15.998,15.632
	c-8.734-0.101-15.733-7.263-15.632-15.998c0.101-8.734,7.263-15.733,15.997-15.632c7.429,0.086,13.797,5.331,15.304,12.606
	C255.877,397.725,255.986,398.861,255.982,400z M375.982,456v8h-272v-8H375.982z"/>
<linearGradient id="SVGID_2_" gradientUnits="userSpaceOnUse" x1="-44.8931" y1="556.955" x2="-44.8931" y2="616.458" gradientTransform="matrix(8 0 0 -8 567.127 4941)">
	<stop  offset="0" style="stop-color:#006DF0"/>
	<stop  offset="1" style="stop-color:#00E7F0"/>
</linearGradient>
<path style="fill:url(#SVGID_2_);" d="M111.982,312h192v16h-192V312z"/>
<g>
</g>
<g>
</g>
<g>
</g>
<g>
</g>
<g>
</g>
<g>
</g>
<g>
</g>
<g>
</g>
<g>
</g>
<g>
</g>
<g>
</g>
<g>
</g>
<g>
</g>
<g>
</g>
<g>
</g>
</svg>
