<?xml version="1.0" encoding="iso-8859-1"?>
<!-- Generator: Adobe Illustrator 19.0.0, SVG Export Plug-In . SVG Version: 6.00 Build 0)  -->
<svg version="1.1" id="Capa_1" xmlns="http://www.w3.org/2000/svg" xmlns:xlink="http://www.w3.org/1999/xlink" x="0px" y="0px"
	 viewBox="0 0 480 480" style="enable-background:new 0 0 480 480;" xml:space="preserve">
<g>
	
		<linearGradient id="SVGID_1_" gradientUnits="userSpaceOnUse" x1="-26.875" y1="557.125" x2="-26.875" y2="616.627" gradientTransform="matrix(8 0 0 -8 455 4941)">
		<stop  offset="0" style="stop-color:#006DF0"/>
		<stop  offset="1" style="stop-color:#00E7F0"/>
	</linearGradient>
	<path style="fill:url(#SVGID_1_);" d="M240,480C107.452,480,0,372.548,0,240S107.452,0,240,0s240,107.452,240,240
		C479.85,372.486,372.486,479.85,240,480z M240,16C116.288,16,16,116.288,16,240s100.288,224,224,224s224-100.288,224-224
		C463.859,116.347,363.653,16.141,240,16z"/>
	
		<linearGradient id="SVGID_2_" gradientUnits="userSpaceOnUse" x1="-26.875" y1="557.125" x2="-26.875" y2="616.627" gradientTransform="matrix(8 0 0 -8 455 4941)">
		<stop  offset="0" style="stop-color:#006DF0"/>
		<stop  offset="1" style="stop-color:#00E7F0"/>
	</linearGradient>
	<path style="fill:url(#SVGID_2_);" d="M280,392h-80c-4.418,0-8-3.582-8-8v-60.864l-52.72,30.4
		c-3.826,2.209-8.719,0.898-10.928-2.928l-40-69.28c-2.209-3.826-0.898-8.719,2.928-10.928L144,240l-52.72-30.4
		c-3.826-2.209-5.137-7.102-2.928-10.928l40-69.28c2.183-3.841,7.066-5.186,10.908-3.004c0.007,0.004,0.014,0.008,0.02,0.012
		L192,156.8V96c0-4.418,3.582-8,8-8h80c4.418,0,8,3.582,8,8v60.864l52.72-30.4c3.826-2.209,8.719-0.898,10.928,2.928l40,69.28
		c2.209,3.826,0.898,8.719-2.928,10.928L336,240l52.72,30.4c3.826,2.209,5.137,7.102,2.928,10.928l-40,69.28
		c-2.209,3.826-7.102,5.137-10.928,2.928l-52.72-30.4V384C288,388.418,284.418,392,280,392z M208,376h64v-66.72c0-4.418,3.582-8,8-8
		c1.404,0,2.784,0.37,4,1.072l57.792,33.36l32-55.424L316,246.928c-3.826-2.209-5.137-7.102-2.928-10.928
		c0.702-1.216,1.712-2.226,2.928-2.928l57.792-33.36l-32-55.424L284,177.648c-3.826,2.209-8.719,0.898-10.928-2.928
		c-0.702-1.216-1.072-2.596-1.072-4V104h-64v66.72c0,4.418-3.582,8-8,8c-1.404,0-2.784-0.37-4-1.072l-57.792-33.36l-32,55.424
		L164,233.072c3.826,2.209,5.137,7.102,2.928,10.928c-0.702,1.216-1.712,2.226-2.928,2.928l-57.792,33.36l32,55.424L196,302.352
		c3.826-2.209,8.719-0.898,10.928,2.928c0.702,1.216,1.072,2.596,1.072,4V376z"/>
</g>
<g>
</g>
<g>
</g>
<g>
</g>
<g>
</g>
<g>
</g>
<g>
</g>
<g>
</g>
<g>
</g>
<g>
</g>
<g>
</g>
<g>
</g>
<g>
</g>
<g>
</g>
<g>
</g>
<g>
</g>
</svg>
