<?xml version="1.0" encoding="iso-8859-1"?>
<!-- Generator: Adobe Illustrator 19.0.0, SVG Export Plug-In . SVG Version: 6.00 Build 0)  -->
<svg version="1.1" id="Capa_1" xmlns="http://www.w3.org/2000/svg" xmlns:xlink="http://www.w3.org/1999/xlink" x="0px" y="0px"
	 viewBox="0 0 477.633 477.633" style="enable-background:new 0 0 477.633 477.633;" xml:space="preserve">
<linearGradient id="SVGID_1_" gradientUnits="userSpaceOnUse" x1="-28.0587" y1="558.125" x2="-28.0587" y2="617.366" gradientTransform="matrix(8 0 0 -8 463.2859 4941)">
	<stop  offset="0" style="stop-color:#006DF0"/>
	<stop  offset="1" style="stop-color:#00E7F0"/>
</linearGradient>
<path style="fill:url(#SVGID_1_);" d="M354.76,118.016l-38.272-13.92c-20.761-7.551-43.712,3.158-51.263,23.919
	c-1.594,4.382-2.409,9.01-2.409,13.673v33.664l-16-18.136V8c0-4.418-3.582-8-8-8s-8,3.582-8,8v149.216l-16,18.136v-33.664
	c0.005-22.091-17.9-40.004-39.991-40.009c-4.666-0.001-9.296,0.814-13.681,2.409l-38.272,13.92
	C62.889,139.962,22.95,196.981,22.816,260.856V376c-0.139,39.602,22.341,75.808,57.896,93.248
	c11.362,5.558,23.855,8.417,36.504,8.352c11.412-0.026,22.715-2.225,33.304-6.48l49.232-19.696
	c9.113-3.625,15.085-12.449,15.064-22.256v-229.6l24-27.2l24,27.2v229.6c-0.031,9.825,5.955,18.667,15.088,22.288l49.232,19.696
	c10.589,4.256,21.892,6.455,33.304,6.48c12.643,0.052,25.128-2.818,36.48-8.384c35.555-17.44,58.035-53.646,57.896-93.248V260.856
	C454.679,196.984,414.741,139.969,354.76,118.016L354.76,118.016z M198.816,429.168c0.011,3.275-1.986,6.222-5.032,7.424
	l-49.224,19.696c-18.255,7.604-38.881,7.101-56.744-1.384c-30.091-14.753-49.117-45.391-49-78.904V260.856
	c0.121-57.149,35.853-108.164,89.52-127.808l38.28-13.92c2.65-0.971,5.45-1.471,8.272-1.48c13.207,0.088,23.88,10.793,23.928,24
	v51.8L164.84,232h-54.024c-4.418,0-8,3.582-8,8s3.582,8,8,8h39.912l-37.68,42.712c-3,3.243-2.803,8.305,0.44,11.305
	s8.305,2.803,11.305-0.44c0.087-0.094,0.172-0.191,0.255-0.289l33.672-38.16L158.584,296c0,4.418,3.582,8,8,8s8-3.582,8-8
	l0.232-51.104l24-27.2L198.816,429.168z M438.816,376c0.117,33.513-18.909,64.151-49,78.904
	c-17.863,8.485-38.489,8.988-56.744,1.384l-49.232-19.696c-3.043-1.205-5.037-4.151-5.024-7.424V217.672l24,27.2V296
	c0,4.418,3.582,8,8,8s8-3.582,8-8v-32.984l33.768,38.272c3,3.243,8.062,3.44,11.305,0.44c3.133-2.899,3.439-7.747,0.695-11.016
	l-37.6-42.648l39.832,0.168c4.418,0,8-3.582,8-8s-3.582-8-8-8L312.8,232l-33.984-38.512v-51.8
	c-0.002-13.255,10.741-24.002,23.996-24.004c2.798-0.001,5.575,0.488,8.204,1.444l38.28,13.92
	c53.667,19.644,89.399,70.659,89.52,127.808L438.816,376z"/>
<g>
	
		<linearGradient id="SVGID_2_" gradientUnits="userSpaceOnUse" x1="-37.0587" y1="558.125" x2="-37.0587" y2="617.366" gradientTransform="matrix(8 0 0 -8 463.2859 4941)">
		<stop  offset="0" style="stop-color:#006DF0"/>
		<stop  offset="1" style="stop-color:#00E7F0"/>
	</linearGradient>
	<path style="fill:url(#SVGID_2_);" d="M166.816,312c-4.418,0-8,3.582-8,8v16c0,4.418,3.582,8,8,8s8-3.582,8-8v-16
		C174.816,315.582,171.235,312,166.816,312z"/>
	
		<linearGradient id="SVGID_3_" gradientUnits="userSpaceOnUse" x1="-19.0587" y1="558.125" x2="-19.0587" y2="617.366" gradientTransform="matrix(8 0 0 -8 463.2859 4941)">
		<stop  offset="0" style="stop-color:#006DF0"/>
		<stop  offset="1" style="stop-color:#00E7F0"/>
	</linearGradient>
	<path style="fill:url(#SVGID_3_);" d="M310.816,312c-4.418,0-8,3.582-8,8v16c0,4.418,3.582,8,8,8s8-3.582,8-8v-16
		C318.816,315.582,315.235,312,310.816,312z"/>
	
		<linearGradient id="SVGID_4_" gradientUnits="userSpaceOnUse" x1="-8.0587" y1="558.125" x2="-8.0587" y2="617.366" gradientTransform="matrix(8 0 0 -8 463.2859 4941)">
		<stop  offset="0" style="stop-color:#006DF0"/>
		<stop  offset="1" style="stop-color:#00E7F0"/>
	</linearGradient>
	<path style="fill:url(#SVGID_4_);" d="M382.816,240c0,4.418,3.582,8,8,8h16c4.418,0,8-3.582,8-8s-3.582-8-8-8h-16
		C386.398,232,382.816,235.582,382.816,240z"/>
	
		<linearGradient id="SVGID_5_" gradientUnits="userSpaceOnUse" x1="-48.0587" y1="558.125" x2="-48.0587" y2="617.366" gradientTransform="matrix(8 0 0 -8 463.2859 4941)">
		<stop  offset="0" style="stop-color:#006DF0"/>
		<stop  offset="1" style="stop-color:#00E7F0"/>
	</linearGradient>
	<path style="fill:url(#SVGID_5_);" d="M94.816,240c0-4.418-3.582-8-8-8h-16c-4.418,0-8,3.582-8,8s3.582,8,8,8h16
		C91.235,248,94.816,244.418,94.816,240z"/>
	
		<linearGradient id="SVGID_6_" gradientUnits="userSpaceOnUse" x1="-46.0587" y1="558.125" x2="-46.0587" y2="617.366" gradientTransform="matrix(8 0 0 -8 463.2859 4941)">
		<stop  offset="0" style="stop-color:#006DF0"/>
		<stop  offset="1" style="stop-color:#00E7F0"/>
	</linearGradient>
	<path style="fill:url(#SVGID_6_);" d="M94.816,308.688L83.504,320c-3.178,3.069-3.266,8.134-0.196,11.312
		c3.069,3.178,8.134,3.266,11.312,0.196c0.067-0.064,0.132-0.13,0.196-0.196L106.128,320c3.178-3.069,3.266-8.134,0.196-11.312
		c-3.069-3.178-8.134-3.266-11.312-0.196C94.946,308.556,94.881,308.621,94.816,308.688z"/>
	
		<linearGradient id="SVGID_7_" gradientUnits="userSpaceOnUse" x1="-10.0587" y1="558.125" x2="-10.0587" y2="617.366" gradientTransform="matrix(8 0 0 -8 463.2859 4941)">
		<stop  offset="0" style="stop-color:#006DF0"/>
		<stop  offset="1" style="stop-color:#00E7F0"/>
	</linearGradient>
	<path style="fill:url(#SVGID_7_);" d="M382.816,308.688c-3.178-3.07-8.242-2.982-11.312,0.196c-2.995,3.1-2.995,8.016,0,11.116
		l11.312,11.312c3.178,3.07,8.242,2.982,11.312-0.196c2.995-3.1,2.995-8.016,0-11.116L382.816,308.688z"/>
</g>
<g>
</g>
<g>
</g>
<g>
</g>
<g>
</g>
<g>
</g>
<g>
</g>
<g>
</g>
<g>
</g>
<g>
</g>
<g>
</g>
<g>
</g>
<g>
</g>
<g>
</g>
<g>
</g>
<g>
</g>
</svg>
