<?xml version="1.0" encoding="iso-8859-1"?>
<!-- Generator: Adobe Illustrator 19.0.0, SVG Export Plug-In . SVG Version: 6.00 Build 0)  -->
<svg version="1.1" id="Capa_1" xmlns="http://www.w3.org/2000/svg" xmlns:xlink="http://www.w3.org/1999/xlink" x="0px" y="0px"
	 viewBox="0 0 480 480" style="enable-background:new 0 0 480 480;" xml:space="preserve">
<linearGradient id="SVGID_1_" gradientUnits="userSpaceOnUse" x1="-26.875" y1="559.295" x2="-26.875" y2="615.295" gradientTransform="matrix(8 0 0 -8 455.0001 4941)">
	<stop  offset="0" style="stop-color:#006DF0"/>
	<stop  offset="1" style="stop-color:#00E7F0"/>
</linearGradient>
<path style="fill:url(#SVGID_1_);" d="M472,232h-8v-40c0-13.255-10.745-24-24-24H318.896c-3.807-0.004-6.892-3.089-6.896-6.896V40
	c0-13.255-10.745-24-24-24h-96c-13.255,0-24,10.745-24,24v121.104c-0.004,3.807-3.089,6.892-6.896,6.896H40
	c-13.255,0-24,10.745-24,24v40H8c-4.418,0-8,3.582-8,8s3.582,8,8,8h8v40c0,13.255,10.745,24,24,24h121.104
	c3.807,0.004,6.892,3.089,6.896,6.896V440c0,13.255,10.745,24,24,24h96c13.255,0,24-10.745,24-24V318.896
	c0.004-3.807,3.089-6.892,6.896-6.896H440c13.255,0,24-10.745,24-24v-40h8c4.418,0,8-3.582,8-8S476.418,232,472,232z M32,192
	c0-4.418,3.582-8,8-8h121.104c12.64-0.013,22.883-10.256,22.896-22.896V40c0-4.418,3.582-8,8-8h96c4.418,0,8,3.582,8,8v121.104
	c0.013,12.64,10.256,22.883,22.896,22.896H440c4.418,0,8,3.582,8,8v40h-68.912c-2.827-0.002-5.446,1.488-6.888,3.92l-14.976,25.264
	l-24.576-55.312c-1.798-4.036-6.527-5.85-10.563-4.052c-1.71,0.762-3.099,2.1-3.925,3.78l-29.496,59.864L247.72,144.8
	c-1.101-3.247-4.148-5.432-7.576-5.432c-3.434,0.008-6.479,2.207-7.568,5.464L203.496,232H162.4c-2.144,0.005-4.196,0.869-5.696,2.4
	l-25.864,26.24l-6.248-59.768c-0.458-4.395-4.391-7.586-8.785-7.129c-1.569,0.163-3.055,0.787-4.271,1.793L67.44,232H32L32,192z
	 M448,288c0,4.418-3.582,8-8,8H318.896c-12.64,0.013-22.883,10.256-22.896,22.896V440c0,4.418-3.582,8-8,8h-96c-4.418,0-8-3.582-8-8
	V318.896c-0.013-12.64-10.256-22.883-22.896-22.896H40c-4.418,0-8-3.582-8-8v-40h38.32c1.862-0.002,3.666-0.649,5.104-1.832
	l34.8-28.8l6.456,61.776c0.455,4.395,4.386,7.589,8.781,7.134c1.844-0.191,3.564-1.016,4.867-2.334L165.744,248h43.52
	c3.442-0.003,6.496-2.206,7.584-5.472l23.36-70.064L279.72,288.88c1.039,3.067,3.825,5.205,7.056,5.416h0.52
	c3.056,0.009,5.849-1.723,7.2-4.464L324.96,228l23.936,53.856c1.8,4.035,6.53,5.847,10.565,4.047
	c1.52-0.678,2.791-1.813,3.635-3.247L383.64,248H448V288z"/>
<g>
</g>
<g>
</g>
<g>
</g>
<g>
</g>
<g>
</g>
<g>
</g>
<g>
</g>
<g>
</g>
<g>
</g>
<g>
</g>
<g>
</g>
<g>
</g>
<g>
</g>
<g>
</g>
<g>
</g>
</svg>
