<?xml version="1.0" encoding="iso-8859-1"?>
<!-- Generator: Adobe Illustrator 19.0.0, SVG Export Plug-In . SVG Version: 6.00 Build 0)  -->
<svg version="1.1" id="Capa_1" xmlns="http://www.w3.org/2000/svg" xmlns:xlink="http://www.w3.org/1999/xlink" x="0px" y="0px"
	 viewBox="0 0 480.007 480.007" style="enable-background:new 0 0 480.007 480.007;" xml:space="preserve">
<g>
	
		<linearGradient id="SVGID_1_" gradientUnits="userSpaceOnUse" x1="-26.8717" y1="557.4609" x2="-26.8717" y2="618.3489" gradientTransform="matrix(8 0 0 -8 454.9771 4941.0532)">
		<stop  offset="0" style="stop-color:#006DF0"/>
		<stop  offset="1" style="stop-color:#00E7F0"/>
	</linearGradient>
	<path style="fill:url(#SVGID_1_);" d="M433.939,48.246l-192-48c-1.27-0.328-2.602-0.328-3.872,0l-192,48
		c-3.563,0.889-6.063,4.088-6.064,7.76v176c-0.172,100.161,60.078,190.538,152.6,228.904l44.32,18.48
		c1.971,0.822,4.189,0.822,6.16,0l44.32-18.48c92.522-38.366,152.772-128.743,152.6-228.904v-176
		C440.002,52.334,437.502,49.134,433.939,48.246L433.939,48.246z M424.003,232.006c0.155,93.7-56.208,178.247-142.76,214.144
		l-33.24,13.856v-84h-16v84l-33.24-13.856c-86.552-35.897-142.915-120.444-142.76-214.144V62.254l176-44v85.752h16V18.254l176,44
		V232.006z"/>
	
		<linearGradient id="SVGID_2_" gradientUnits="userSpaceOnUse" x1="-26.8717" y1="557.4609" x2="-26.8717" y2="618.3489" gradientTransform="matrix(8 0 0 -8 454.9771 4941.0532)">
		<stop  offset="0" style="stop-color:#006DF0"/>
		<stop  offset="1" style="stop-color:#00E7F0"/>
	</linearGradient>
	<path style="fill:url(#SVGID_2_);" d="M264.003,136.006h-48v80h-80v48h80v80h48v-80h80v-48h-80V136.006z M328.003,232.006v16h-80
		v80h-16v-80h-80v-16h80v-80h16v80H328.003z"/>
</g>
<g>
</g>
<g>
</g>
<g>
</g>
<g>
</g>
<g>
</g>
<g>
</g>
<g>
</g>
<g>
</g>
<g>
</g>
<g>
</g>
<g>
</g>
<g>
</g>
<g>
</g>
<g>
</g>
<g>
</g>
</svg>
