<?xml version="1.0" encoding="iso-8859-1"?>
<!-- Generator: Adobe Illustrator 19.0.0, SVG Export Plug-In . SVG Version: 6.00 Build 0)  -->
<svg version="1.1" id="Capa_1" xmlns="http://www.w3.org/2000/svg" xmlns:xlink="http://www.w3.org/1999/xlink" x="0px" y="0px"
	 viewBox="0 0 480.085 480.085" style="enable-background:new 0 0 480.085 480.085;" xml:space="preserve">
<linearGradient id="SVGID_1_" gradientUnits="userSpaceOnUse" x1="-26.8325" y1="557.4557" x2="-26.8325" y2="619.8298" gradientTransform="matrix(8 0 0 -8 454.7027 4941.0068)">
	<stop  offset="0" style="stop-color:#006DF0"/>
	<stop  offset="1" style="stop-color:#00E7F0"/>
</linearGradient>
<path style="fill:url(#SVGID_1_);" d="M288.042,250.073V48.001h16c6.334,0.047,12.416-2.475,16.856-6.992
	c4.602-4.457,7.183-10.601,7.144-17.008c0-13.255-10.745-24-24-24h-128c-6.334-0.05-12.417,2.473-16.856,6.992
	c-4.602,4.457-7.183,10.601-7.144,17.008c0,13.255,10.745,24,24,24h16v202.072c-60.741,26.51-88.491,97.241-61.982,157.982
	s97.241,88.491,157.982,61.982c60.741-26.51,88.491-97.241,61.982-157.982C337.919,284.317,315.78,262.178,288.042,250.073z
	 M168.042,24.001c-0.004-2.157,0.885-4.218,2.456-5.696c1.455-1.495,3.458-2.328,5.544-2.304h128c4.418,0,8,3.582,8,8
	c0.003,2.155-0.882,4.215-2.448,5.696c-1.459,1.493-3.465,2.325-5.552,2.304h-128C171.624,32.001,168.042,28.419,168.042,24.001z
	 M202.89,262.913c3.101-1.181,5.15-4.154,5.152-7.472v-63.44h24c4.418,0,8-3.582,8-8s-3.582-8-8-8h-24v-24h24c4.418,0,8-3.582,8-8
	s-3.582-8-8-8h-24v-24h24c4.418,0,8-3.582,8-8s-3.582-8-8-8h-24v-48h64v207.44c0.002,3.318,2.051,6.291,5.152,7.472
	c17.594,6.773,33.01,18.212,44.592,33.088H158.298C169.88,281.125,185.297,269.686,202.89,262.913L202.89,262.913z M240.042,464.001
	c-57.256,0.182-103.819-46.086-104.001-103.342c-0.054-16.953,4.05-33.66,11.953-48.658H332.09
	c26.691,50.655,7.265,113.356-43.39,140.047C273.703,459.95,256.995,464.055,240.042,464.001L240.042,464.001z"/>
<linearGradient id="SVGID_2_" gradientUnits="userSpaceOnUse" x1="-19.8325" y1="557.4557" x2="-19.8325" y2="619.8298" gradientTransform="matrix(8 0 0 -8 454.7027 4941.0068)">
	<stop  offset="0" style="stop-color:#006DF0"/>
	<stop  offset="1" style="stop-color:#00E7F0"/>
</linearGradient>
<path style="fill:url(#SVGID_2_);" d="M296.042,328.001c-17.673,0-32,14.327-32,32s14.327,32,32,32s32-14.327,32-32
	S313.716,328.001,296.042,328.001z M296.042,376.001c-8.837,0-16-7.163-16-16s7.163-16,16-16s16,7.163,16,16
	S304.879,376.001,296.042,376.001z"/>
<g>
</g>
<g>
</g>
<g>
</g>
<g>
</g>
<g>
</g>
<g>
</g>
<g>
</g>
<g>
</g>
<g>
</g>
<g>
</g>
<g>
</g>
<g>
</g>
<g>
</g>
<g>
</g>
<g>
</g>
</svg>
