<?xml version="1.0" encoding="iso-8859-1"?>
<!-- Generator: Adobe Illustrator 19.0.0, SVG Export Plug-In . SVG Version: 6.00 Build 0)  -->
<svg version="1.1" id="Capa_1" xmlns="http://www.w3.org/2000/svg" xmlns:xlink="http://www.w3.org/1999/xlink" x="0px" y="0px"
	 viewBox="0 0 480 480" style="enable-background:new 0 0 480 480;" xml:space="preserve">
<linearGradient id="SVGID_1_" gradientUnits="userSpaceOnUse" x1="-26.8714" y1="558.625" x2="-26.8714" y2="618.437" gradientTransform="matrix(8 0 0 -8 454.9712 4941)">
	<stop  offset="0" style="stop-color:#006DF0"/>
	<stop  offset="1" style="stop-color:#00E7F0"/>
</linearGradient>
<path style="fill:url(#SVGID_1_);" d="M393.132,444.28l-97.128-190.2V48h8c13.255,0,24-10.745,24-24s-10.745-24-24-24h-128
	c-13.255,0-24,10.745-24,24s10.745,24,24,24h8v206.08L87.068,443.936c-6.663,11.458-2.775,26.149,8.684,32.812
	c3.672,2.135,7.845,3.258,12.092,3.252h264.32c13.255,0.013,24.011-10.721,24.024-23.976
	C396.192,451.912,395.14,447.868,393.132,444.28L393.132,444.28z M168.004,24c0-4.418,3.582-8,8-8h128c4.418,0,8,3.582,8,8
	s-3.582,8-8,8h-128C171.586,32,168.004,28.418,168.004,24L168.004,24z M379.068,460c-1.403,2.49-4.046,4.022-6.904,4h-264.32
	c-2.858,0.022-5.501-1.51-6.904-4c-1.503-2.638-1.429-5.889,0.192-8.456l98-191.92c0.567-1.124,0.866-2.365,0.872-3.624V48h80v208
	c0.004,1.265,0.302,2.511,0.872,3.64l98.192,192.264C380.534,454.404,380.534,457.501,379.068,460L379.068,460z"/>
<g>
	
		<linearGradient id="SVGID_2_" gradientUnits="userSpaceOnUse" x1="-26.8709" y1="558.625" x2="-26.8709" y2="618.437" gradientTransform="matrix(8 0 0 -8 454.9712 4941)">
		<stop  offset="0" style="stop-color:#006DF0"/>
		<stop  offset="1" style="stop-color:#00E7F0"/>
	</linearGradient>
	<path style="fill:url(#SVGID_2_);" d="M256.004,128h-32c-4.418,0-8,3.582-8,8s3.582,8,8,8h32c4.418,0,8-3.582,8-8
		S260.422,128,256.004,128z"/>
	
		<linearGradient id="SVGID_3_" gradientUnits="userSpaceOnUse" x1="-26.8709" y1="558.625" x2="-26.8709" y2="618.437" gradientTransform="matrix(8 0 0 -8 454.9712 4941)">
		<stop  offset="0" style="stop-color:#006DF0"/>
		<stop  offset="1" style="stop-color:#00E7F0"/>
	</linearGradient>
	<path style="fill:url(#SVGID_3_);" d="M256.004,176h-32c-4.418,0-8,3.582-8,8s3.582,8,8,8h32c4.418,0,8-3.582,8-8
		S260.422,176,256.004,176z"/>
	
		<linearGradient id="SVGID_4_" gradientUnits="userSpaceOnUse" x1="-26.8709" y1="558.625" x2="-26.8709" y2="618.437" gradientTransform="matrix(8 0 0 -8 454.9712 4941)">
		<stop  offset="0" style="stop-color:#006DF0"/>
		<stop  offset="1" style="stop-color:#00E7F0"/>
	</linearGradient>
	<path style="fill:url(#SVGID_4_);" d="M256.004,224h-32c-4.418,0-8,3.582-8,8s3.582,8,8,8h32c4.418,0,8-3.582,8-8
		S260.422,224,256.004,224z"/>
	
		<linearGradient id="SVGID_5_" gradientUnits="userSpaceOnUse" x1="-26.8709" y1="558.625" x2="-26.8709" y2="618.437" gradientTransform="matrix(8 0 0 -8 454.9712 4941)">
		<stop  offset="0" style="stop-color:#006DF0"/>
		<stop  offset="1" style="stop-color:#00E7F0"/>
	</linearGradient>
	<path style="fill:url(#SVGID_5_);" d="M256.004,272h-32c-4.418,0-8,3.582-8,8s3.582,8,8,8h32c4.418,0,8-3.582,8-8
		S260.422,272,256.004,272z"/>
	
		<linearGradient id="SVGID_6_" gradientUnits="userSpaceOnUse" x1="-26.8709" y1="558.625" x2="-26.8709" y2="618.437" gradientTransform="matrix(8 0 0 -8 454.9712 4941)">
		<stop  offset="0" style="stop-color:#006DF0"/>
		<stop  offset="1" style="stop-color:#00E7F0"/>
	</linearGradient>
	<path style="fill:url(#SVGID_6_);" d="M256.004,320h-32c-4.418,0-8,3.582-8,8s3.582,8,8,8h32c4.418,0,8-3.582,8-8
		S260.422,320,256.004,320z"/>
	
		<linearGradient id="SVGID_7_" gradientUnits="userSpaceOnUse" x1="-26.8709" y1="558.625" x2="-26.8709" y2="618.437" gradientTransform="matrix(8 0 0 -8 454.9712 4941)">
		<stop  offset="0" style="stop-color:#006DF0"/>
		<stop  offset="1" style="stop-color:#00E7F0"/>
	</linearGradient>
	<path style="fill:url(#SVGID_7_);" d="M256.004,368h-32c-4.418,0-8,3.582-8,8s3.582,8,8,8h32c4.418,0,8-3.582,8-8
		S260.422,368,256.004,368z"/>
	
		<linearGradient id="SVGID_8_" gradientUnits="userSpaceOnUse" x1="-26.8709" y1="558.625" x2="-26.8709" y2="618.437" gradientTransform="matrix(8 0 0 -8 454.9712 4941)">
		<stop  offset="0" style="stop-color:#006DF0"/>
		<stop  offset="1" style="stop-color:#00E7F0"/>
	</linearGradient>
	<path style="fill:url(#SVGID_8_);" d="M256.004,416h-32c-4.418,0-8,3.582-8,8s3.582,8,8,8h32c4.418,0,8-3.582,8-8
		S260.422,416,256.004,416z"/>
</g>
<g>
</g>
<g>
</g>
<g>
</g>
<g>
</g>
<g>
</g>
<g>
</g>
<g>
</g>
<g>
</g>
<g>
</g>
<g>
</g>
<g>
</g>
<g>
</g>
<g>
</g>
<g>
</g>
<g>
</g>
</svg>
