<?xml version="1.0" encoding="iso-8859-1"?>
<!-- Generator: Adobe Illustrator 19.0.0, SVG Export Plug-In . SVG Version: 6.00 Build 0)  -->
<svg version="1.1" id="Capa_1" xmlns="http://www.w3.org/2000/svg" xmlns:xlink="http://www.w3.org/1999/xlink" x="0px" y="0px"
	 viewBox="0 0 480.007 480.007" style="enable-background:new 0 0 480.007 480.007;" xml:space="preserve">
<linearGradient id="SVGID_1_" gradientUnits="userSpaceOnUse" x1="-26.8787" y1="614.3835" x2="-26.8787" y2="658.5735" gradientTransform="matrix(8 0 0 -8 455.0333 5336.3564)">
	<stop  offset="0" style="stop-color:#006DF0"/>
	<stop  offset="1" style="stop-color:#00E7F0"/>
</linearGradient>
<path style="fill:url(#SVGID_1_);" d="M478.203,278.888c-20.669-24.22-43.91-46.122-69.312-65.32
	c-28.005-21.722-59.133-39.087-92.328-51.504c-21.718-34.236-45.192-67.325-70.328-99.136c-2.986-3.446-8.2-3.82-11.646-0.834
	c-0.298,0.258-0.576,0.537-0.834,0.834c-25.136,31.811-48.61,64.9-70.328,99.136c-33.195,12.417-64.323,29.782-92.328,51.504
	c-25.402,19.198-48.643,41.1-69.312,65.32c-2.383,2.938-2.383,7.143,0,10.08c20.667,24.234,43.908,46.149,69.312,65.36
	c39.296,29.904,100.48,65.6,168.896,65.6s129.6-35.696,168.896-65.6c25.402-19.198,48.643-41.1,69.312-65.32
	C480.608,286.064,480.608,281.833,478.203,278.888L478.203,278.888z M239.995,80.912c10.232,13.24,31.552,41.528,52.88,73.896
	c-34.654-9.173-71.098-9.173-105.752,0C208.443,122.44,229.763,94.16,239.995,80.912z M127.995,283.928
	c0-26.808,21.416-69.008,46.024-108.648c21.232-7.331,43.514-11.165,65.976-11.352c22.466,0.192,44.753,4.026,65.992,11.352
	c24.592,39.64,46.008,81.832,46.008,108.648c0,61.856-50.144,112-112,112S127.995,345.784,127.995,283.928z M18.555,283.928
	c14.616-16.488,64.8-69.336,131.128-99.096c-21.008,36.344-37.688,73.304-37.688,99.096c0.041,43.585,22.274,84.149,58.992,107.632
	C94.235,364.728,34.699,302.144,18.555,283.928z M309.003,391.56c36.718-23.483,58.951-64.047,58.992-107.632
	c0-25.792-16.68-62.752-37.688-99.096c66.32,29.76,116.512,82.608,131.128,99.096C445.291,302.144,385.755,364.728,309.003,391.56z"
	/>
<linearGradient id="SVGID_2_" gradientUnits="userSpaceOnUse" x1="-27.3798" y1="614.3835" x2="-27.3798" y2="658.5735" gradientTransform="matrix(8 0 0 -8 455.0333 5336.3564)">
	<stop  offset="0" style="stop-color:#006DF0"/>
	<stop  offset="1" style="stop-color:#00E7F0"/>
</linearGradient>
<path style="fill:url(#SVGID_2_);" d="M239.995,219.928c-5.617-0.009-11.209,0.728-16.632,2.192
	c-6.01-6.532-14.492-10.232-23.368-10.192c-17.673,0-32,14.327-32,32c-0.043,8.881,3.656,17.37,10.192,23.384
	c-1.464,5.417-2.201,11.005-2.192,16.616c0,35.346,28.654,64,64,64s64-28.654,64-64S275.341,219.928,239.995,219.928z
	 M199.995,227.928c5.619-0.044,10.836,2.91,13.688,7.752c1.527,2.479,2.328,5.337,2.312,8.248c0,8.837-7.163,16-16,16
	c-8.824-0.031-15.969-7.176-16-16C183.995,235.092,191.159,227.928,199.995,227.928z M239.995,331.928
	c-26.554-0.046-48.043-21.609-47.997-48.163c0.005-2.897,0.272-5.788,0.797-8.637c0.24,0.064,0.504,0,0.752,0.088
	c17.114,3.721,34.005-7.136,37.726-24.25c0.967-4.449,0.965-9.054-0.006-13.502c-0.056-0.24,0-0.488-0.088-0.72
	c26.059-4.867,51.13,12.312,55.997,38.371c4.867,26.059-12.312,51.13-38.371,55.997C245.9,331.655,242.951,331.928,239.995,331.928z
	"/>
<g>
</g>
<g>
</g>
<g>
</g>
<g>
</g>
<g>
</g>
<g>
</g>
<g>
</g>
<g>
</g>
<g>
</g>
<g>
</g>
<g>
</g>
<g>
</g>
<g>
</g>
<g>
</g>
<g>
</g>
</svg>
