<?xml version="1.0" encoding="iso-8859-1"?>
<!-- Generator: Adobe Illustrator 19.0.0, SVG Export Plug-In . SVG Version: 6.00 Build 0)  -->
<svg version="1.1" id="Capa_1" xmlns="http://www.w3.org/2000/svg" xmlns:xlink="http://www.w3.org/1999/xlink" x="0px" y="0px"
	 viewBox="0 0 468.568 468.568" style="enable-background:new 0 0 468.568 468.568;" xml:space="preserve">
<linearGradient id="SVGID_1_" gradientUnits="userSpaceOnUse" x1="-32.614" y1="553.4051" x2="-32.614" y2="609.8581" gradientTransform="matrix(8 0 0 -8 495.1965 4889.5205)">
	<stop  offset="0" style="stop-color:#006DF0"/>
	<stop  offset="1" style="stop-color:#00E7F0"/>
</linearGradient>
<path style="fill:url(#SVGID_1_);" d="M466.186,138.112c-3.124-3.123-8.188-3.123-11.312,0
	c-40.552,40.552-101.448,45.6-135.768,11.32s-29.232-95.2,11.32-135.768c3.124-3.126,3.122-8.192-0.004-11.316
	c-3.126-3.124-8.192-3.122-11.316,0.004l0,0c-36.104,36.104-47.248,86.616-31.872,126.448c-14.52-5.559-30.105-7.78-45.6-6.496
	c-63.069,6.422-112.941,56.284-119.376,119.352c-1.296,15.495,0.922,31.082,6.488,45.6c-39.832-15.368-90.336-4.224-126.4,31.88
	c-3.126,3.124-3.128,8.19-0.004,11.316c3.124,3.126,8.19,3.128,11.316,0.004c40.56-40.552,101.456-45.6,135.768-11.32
	s29.232,95.2-11.32,135.768c-3.124,3.126-3.122,8.192,0.004,11.316s8.192,3.122,11.316-0.004l0,0
	c36.072-36.072,47.2-86.52,31.92-126.336c11.744,4.504,24.222,6.785,36.8,6.728c2.896,0,5.816-0.12,8.8-0.344
	c63.047-6.451,112.886-56.31,119.312-119.36c1.302-15.44-0.886-30.975-6.4-45.456c11.753,4.464,24.228,6.726,36.8,6.672
	c33.8-0.577,66.003-14.482,89.6-38.688c3.106-3.142,3.077-8.207-0.065-11.314C466.19,138.116,466.188,138.114,466.186,138.112
	L466.186,138.112z M296.482,296.512c-40.552,40.552-101.448,45.6-135.76,11.312s-29.24-95.2,11.312-135.76
	c20.575-21.209,48.682-33.451,78.224-34.072c21.449-0.426,42.173,7.77,57.528,22.752c34.32,34.336,29.248,95.208-11.304,135.76
	L296.482,296.512z"/>
<g>
	
		<linearGradient id="SVGID_2_" gradientUnits="userSpaceOnUse" x1="-31.1911" y1="553.4051" x2="-31.1911" y2="609.8581" gradientTransform="matrix(8 0 0 -8 495.1965 4889.5205)">
		<stop  offset="0" style="stop-color:#006DF0"/>
		<stop  offset="1" style="stop-color:#00E7F0"/>
	</linearGradient>
	<path style="fill:url(#SVGID_2_);" d="M200.314,166.4c-3.178-3.069-8.243-2.981-11.312,0.197c-2.994,3.1-2.994,8.015,0,11.115
		l101.824,101.824c3.07,3.178,8.134,3.266,11.312,0.196c3.178-3.07,3.266-8.134,0.196-11.312c-0.064-0.066-0.129-0.132-0.196-0.196
		L200.314,166.4z"/>
	
		<linearGradient id="SVGID_3_" gradientUnits="userSpaceOnUse" x1="-28.3743" y1="553.4051" x2="-28.3743" y2="609.8581" gradientTransform="matrix(8 0 0 -8 495.1965 4889.5205)">
		<stop  offset="0" style="stop-color:#006DF0"/>
		<stop  offset="1" style="stop-color:#00E7F0"/>
	</linearGradient>
	<path style="fill:url(#SVGID_3_);" d="M234.258,155.08c-3.178-3.069-8.243-2.981-11.312,0.197c-2.994,3.1-2.994,8.015,0,11.115
		l79.2,79.2c3.178,3.07,8.242,2.982,11.312-0.196c2.995-3.1,2.995-8.016,0-11.116L234.258,155.08z"/>
	
		<linearGradient id="SVGID_4_" gradientUnits="userSpaceOnUse" x1="-25.5463" y1="553.4051" x2="-25.5463" y2="609.8581" gradientTransform="matrix(8 0 0 -8 495.1965 4889.5205)">
		<stop  offset="0" style="stop-color:#006DF0"/>
		<stop  offset="1" style="stop-color:#00E7F0"/>
	</linearGradient>
	<path style="fill:url(#SVGID_4_);" d="M307.794,205.992c3.178,3.07,8.242,2.982,11.312-0.196c2.994-3.1,2.994-8.015,0-11.116
		l-45.248-45.248c-3.178-3.07-8.242-2.982-11.312,0.196c-2.994,3.1-2.994,8.015,0,11.116L307.794,205.992z"/>
	
		<linearGradient id="SVGID_5_" gradientUnits="userSpaceOnUse" x1="-34.0191" y1="553.4051" x2="-34.0191" y2="609.8581" gradientTransform="matrix(8 0 0 -8 495.1965 4889.5205)">
		<stop  offset="0" style="stop-color:#006DF0"/>
		<stop  offset="1" style="stop-color:#00E7F0"/>
	</linearGradient>
	<path style="fill:url(#SVGID_5_);" d="M177.69,189.024c-3.178-3.069-8.243-2.981-11.312,0.197c-2.994,3.1-2.994,8.015,0,11.115
		L268.202,302.16c3.07,3.178,8.134,3.266,11.312,0.196c3.178-3.07,3.266-8.134,0.196-11.312c-0.064-0.066-0.129-0.132-0.196-0.196
		L177.69,189.024z"/>
	
		<linearGradient id="SVGID_6_" gradientUnits="userSpaceOnUse" x1="-36.8663" y1="553.4051" x2="-36.8663" y2="609.8581" gradientTransform="matrix(8 0 0 -8 495.1965 4889.5205)">
		<stop  offset="0" style="stop-color:#006DF0"/>
		<stop  offset="1" style="stop-color:#00E7F0"/>
	</linearGradient>
	<path style="fill:url(#SVGID_6_);" d="M166.378,222.968c-3.124-3.126-8.19-3.128-11.316-0.004
		c-3.126,3.124-3.128,8.19-0.004,11.316l79.2,79.2c3.178,3.069,8.243,2.982,11.312-0.196c2.994-3.1,2.994-8.015,0-11.116
		L166.378,222.968z"/>
	
		<linearGradient id="SVGID_7_" gradientUnits="userSpaceOnUse" x1="-39.6884" y1="553.4051" x2="-39.6884" y2="609.8581" gradientTransform="matrix(8 0 0 -8 495.1965 4889.5205)">
		<stop  offset="0" style="stop-color:#006DF0"/>
		<stop  offset="1" style="stop-color:#00E7F0"/>
	</linearGradient>
	<path style="fill:url(#SVGID_7_);" d="M160.722,262.568c-3.178-3.069-8.243-2.982-11.312,0.196c-2.994,3.1-2.994,8.015,0,11.116
		l45.248,45.248c3.178,3.069,8.243,2.982,11.312-0.196c2.994-3.1,2.994-8.015,0-11.116L160.722,262.568z"/>
	
		<linearGradient id="SVGID_8_" gradientUnits="userSpaceOnUse" x1="-51.0086" y1="553.4051" x2="-51.0086" y2="609.8581" gradientTransform="matrix(8 0 0 -8 495.1965 4889.5205)">
		<stop  offset="0" style="stop-color:#006DF0"/>
		<stop  offset="1" style="stop-color:#00E7F0"/>
	</linearGradient>
	<path style="fill:url(#SVGID_8_);" d="M143.746,437.928c3.123-3.124,3.123-8.188,0-11.312L41.922,324.792
		c-3.07-3.178-8.134-3.266-11.312-0.196c-3.178,3.07-3.266,8.134-0.196,11.312c0.064,0.067,0.13,0.132,0.196,0.196l101.824,101.824
		C135.558,441.051,140.622,441.051,143.746,437.928z"/>
	
		<linearGradient id="SVGID_9_" gradientUnits="userSpaceOnUse" x1="-48.1847" y1="553.4051" x2="-48.1847" y2="609.8581" gradientTransform="matrix(8 0 0 -8 495.1965 4889.5205)">
		<stop  offset="0" style="stop-color:#006DF0"/>
		<stop  offset="1" style="stop-color:#00E7F0"/>
	</linearGradient>
	<path style="fill:url(#SVGID_9_);" d="M64.554,313.48c-3.123,3.124-3.123,8.188,0,11.312l79.2,79.2
		c3.223,3.022,8.286,2.86,11.308-0.363c2.887-3.079,2.886-7.872-0.004-10.949l-79.2-79.2
		C72.735,310.362,67.677,310.362,64.554,313.48z"/>
	
		<linearGradient id="SVGID_10_" gradientUnits="userSpaceOnUse" x1="-45.3521" y1="553.4051" x2="-45.3521" y2="609.8581" gradientTransform="matrix(8 0 0 -8 495.1965 4889.5205)">
		<stop  offset="0" style="stop-color:#006DF0"/>
		<stop  offset="1" style="stop-color:#00E7F0"/>
	</linearGradient>
	<path style="fill:url(#SVGID_10_);" d="M155.058,366.728c4.418-0.001,7.999-3.583,7.998-8.002c0-2.121-0.843-4.154-2.342-5.654
		l-45.256-45.256c-3.07-3.178-8.134-3.266-11.312-0.196c-3.178,3.07-3.266,8.134-0.196,11.312c0.064,0.067,0.13,0.132,0.196,0.196
		l45.256,45.256C150.902,365.884,152.936,366.728,155.058,366.728L155.058,366.728z"/>
	
		<linearGradient id="SVGID_11_" gradientUnits="userSpaceOnUse" x1="-14.2384" y1="553.4051" x2="-14.2384" y2="609.8581" gradientTransform="matrix(8 0 0 -8 495.1965 4889.5205)">
		<stop  offset="0" style="stop-color:#006DF0"/>
		<stop  offset="1" style="stop-color:#00E7F0"/>
	</linearGradient>
	<path style="fill:url(#SVGID_11_);" d="M324.77,30.632c-3.123,3.124-3.123,8.188,0,11.312l101.824,101.824
		c3.178,3.07,8.242,2.982,11.312-0.196c2.994-3.1,2.994-8.015,0-11.116L336.082,30.632C332.958,27.509,327.894,27.509,324.77,30.632
		L324.77,30.632z"/>
	
		<linearGradient id="SVGID_12_" gradientUnits="userSpaceOnUse" x1="-17.0759" y1="553.4051" x2="-17.0759" y2="609.8581" gradientTransform="matrix(8 0 0 -8 495.1965 4889.5205)">
		<stop  offset="0" style="stop-color:#006DF0"/>
		<stop  offset="1" style="stop-color:#00E7F0"/>
	</linearGradient>
	<path style="fill:url(#SVGID_12_);" d="M398.306,157.432c4.418-0.001,7.999-3.583,7.998-8.002c0-2.121-0.843-4.155-2.342-5.654
		l-79.2-79.2c-2.992-3.251-8.053-3.461-11.304-0.469c-3.251,2.992-3.461,8.053-0.469,11.304c0.15,0.163,0.306,0.319,0.469,0.469
		l79.2,79.2C394.154,156.581,396.186,157.427,398.306,157.432L398.306,157.432z"/>
	
		<linearGradient id="SVGID_13_" gradientUnits="userSpaceOnUse" x1="-19.8959" y1="553.4051" x2="-19.8959" y2="609.8581" gradientTransform="matrix(8 0 0 -8 495.1965 4889.5205)">
		<stop  offset="0" style="stop-color:#006DF0"/>
		<stop  offset="1" style="stop-color:#00E7F0"/>
	</linearGradient>
	<path style="fill:url(#SVGID_13_);" d="M307.794,104.176c-3.123,3.124-3.123,8.188,0,11.312l45.256,45.256
		c3.178,3.07,8.242,2.982,11.312-0.196c2.994-3.1,2.994-8.015,0-11.116l-45.256-45.256
		C315.982,101.053,310.918,101.053,307.794,104.176z"/>
</g>
<g>
</g>
<g>
</g>
<g>
</g>
<g>
</g>
<g>
</g>
<g>
</g>
<g>
</g>
<g>
</g>
<g>
</g>
<g>
</g>
<g>
</g>
<g>
</g>
<g>
</g>
<g>
</g>
<g>
</g>
</svg>
