<?xml version="1.0" encoding="iso-8859-1"?>
<!-- Generator: Adobe Illustrator 19.0.0, SVG Export Plug-In . SVG Version: 6.00 Build 0)  -->
<svg version="1.1" id="Capa_1" xmlns="http://www.w3.org/2000/svg" xmlns:xlink="http://www.w3.org/1999/xlink" x="0px" y="0px"
	 viewBox="0 0 438.145 438.145" style="enable-background:new 0 0 438.145 438.145;" xml:space="preserve">
<linearGradient id="SVGID_1_" gradientUnits="userSpaceOnUse" x1="-47.03" y1="534.4824" x2="-47.03" y2="585.3694" gradientTransform="matrix(8 0 0 -8 595.3124 4701.2168)">
	<stop  offset="0" style="stop-color:#006DF0"/>
	<stop  offset="1" style="stop-color:#00E7F0"/>
</linearGradient>
<path style="fill:url(#SVGID_1_);" d="M382.067,139.245c30.928,0.043,56.035-24.994,56.078-55.922s-24.994-56.035-55.922-56.078
	c-30.928-0.043-56.035,24.994-56.078,55.922c-0.017,12.099,3.885,23.878,11.122,33.574l-46.272,46.272
	c-15.882-10.47-36.935-8.341-50.4,5.096l-21.44,21.496l-18.712-18.704c-13.443-13.423-34.472-15.539-50.32-5.064l-46.272-46.264
	c18.378-24.876,13.111-59.939-11.765-78.317c-22.199-16.4-53.037-14.181-72.659,5.229C8.72,56.457,1.854,69.872,0.027,84.389
	c-0.362,4.405,2.915,8.27,7.32,8.632c4.405,0.362,8.27-2.915,8.632-7.32l0,0c1.524-10.735,6.744-20.603,14.76-27.904
	c15.552-15.689,40.879-15.8,56.568-0.248s15.8,40.879,0.248,56.568c-0.082,0.083-0.165,0.165-0.248,0.248
	c-3.126,3.122-3.129,8.188-0.006,11.314c0.002,0.002,0.004,0.004,0.006,0.006l51.48,51.472
	c-10.526,15.849-8.386,36.927,5.112,50.336l18.68,18.664L59.659,349.141c-3.123,3.124-3.123,8.188,0,11.312l45.2,45.2
	c3.124,3.123,8.188,3.123,11.312,0l102.984-102.92l105.704,105.824c3.124,3.123,8.188,3.123,11.312,0l45.28-45.28
	c3.123-3.124,3.123-8.188,0-11.312L275.707,246.157l21.504-21.504c13.446-13.462,15.572-34.523,5.088-50.4l46.264-46.28
	C358.205,135.281,369.97,139.239,382.067,139.245L382.067,139.245z M353.779,54.957c15.621-15.621,40.947-15.621,56.569-0.001
	s15.621,40.947,0.001,56.569s-40.947,15.621-56.569,0.001c0,0,0,0-0.001-0.001c-15.621-15.421-15.783-40.585-0.363-56.205
	C353.537,55.198,353.658,55.078,353.779,54.957z M173.883,234.853l-18.688-18.688c-9.365-9.293-9.423-24.418-0.13-33.782
	c0.043-0.043,0.086-0.087,0.13-0.13c9.366-9.337,24.522-9.337,33.888,0l18.712,18.712L173.883,234.853z M364.483,357.597
	l-33.968,33.96L230.459,291.429l33.928-33.92L364.483,357.597z M285.907,213.357L110.515,388.685l-33.888-33.888l175.328-175.384
	c9.388-9.354,24.572-9.354,33.96,0c9.345,9.388,9.345,24.564,0,33.952L285.907,213.357z"/>
<g>
</g>
<g>
</g>
<g>
</g>
<g>
</g>
<g>
</g>
<g>
</g>
<g>
</g>
<g>
</g>
<g>
</g>
<g>
</g>
<g>
</g>
<g>
</g>
<g>
</g>
<g>
</g>
<g>
</g>
</svg>
