<?xml version="1.0" encoding="iso-8859-1"?>
<!-- Generator: Adobe Illustrator 19.0.0, SVG Export Plug-In . SVG Version: 6.00 Build 0)  -->
<svg version="1.1" id="Capa_1" xmlns="http://www.w3.org/2000/svg" xmlns:xlink="http://www.w3.org/1999/xlink" x="0px" y="0px"
	 viewBox="0 0 432.274 432.274" style="enable-background:new 0 0 432.274 432.274;" xml:space="preserve">
<linearGradient id="SVGID_1_" gradientUnits="userSpaceOnUse" x1="-71.5708" y1="562.7383" x2="-71.5708" y2="616.0844" gradientTransform="matrix(8 0 0 -8 788.704 4940.5171)">
	<stop  offset="0" style="stop-color:#006DF0"/>
	<stop  offset="1" style="stop-color:#00E7F0"/>
</linearGradient>
<path style="fill:url(#SVGID_1_);" d="M429.928,138.122L294.152,2.346c-3.122-3.126-8.188-3.129-11.314-0.006
	c-0.002,0.002-0.004,0.004-0.006,0.006l-33.936,33.952c-3.123,3.124-3.123,8.188,0,11.312l16.976,16.976l-107.48,107.48
	c-0.451,0.444-0.846,0.941-1.176,1.48l-123.44,202l-11.152-11.144L0,387.026l45.248,45.248l22.624-22.624l-11.144-11.152l202-123.44
	c0.539-0.33,1.036-0.725,1.48-1.176l107.48-107.48l16.976,16.976c3.124,3.123,8.188,3.123,11.312,0l33.952-33.936
	c3.126-3.122,3.129-8.188,0.006-11.314C429.932,138.126,429.93,138.124,429.928,138.122L429.928,138.122z M249.568,261.898
	L52.112,382.57l-2.4-2.4l120.664-197.464l16.296-16.296l79.2,79.2L249.568,261.898z M288.496,222.978l-79.2-79.2l67.88-67.88
	l79.2,79.2L288.496,222.978z M390.32,166.41L265.864,41.954l22.632-22.624l124.448,124.448L390.32,166.41z"/>
<g>
</g>
<g>
</g>
<g>
</g>
<g>
</g>
<g>
</g>
<g>
</g>
<g>
</g>
<g>
</g>
<g>
</g>
<g>
</g>
<g>
</g>
<g>
</g>
<g>
</g>
<g>
</g>
<g>
</g>
</svg>
