<?xml version="1.0" encoding="iso-8859-1"?>
<!-- Generator: Adobe Illustrator 19.0.0, SVG Export Plug-In . SVG Version: 6.00 Build 0)  -->
<svg version="1.1" id="Capa_1" xmlns="http://www.w3.org/2000/svg" xmlns:xlink="http://www.w3.org/1999/xlink" x="0px" y="0px"
	 viewBox="0 0 480 480" style="enable-background:new 0 0 480 480;" xml:space="preserve">
<g>
	
		<linearGradient id="SVGID_1_" gradientUnits="userSpaceOnUse" x1="-36.875" y1="557.295" x2="-36.875" y2="618.683" gradientTransform="matrix(8 0 0 -8 455 4941)">
		<stop  offset="0" style="stop-color:#006DF0"/>
		<stop  offset="1" style="stop-color:#00E7F0"/>
	</linearGradient>
	<path style="fill:url(#SVGID_1_);" d="M160,280c-22.091,0-40-17.909-40-40s17.909-40,40-40s40,17.909,40,40
		C199.974,262.08,182.08,279.974,160,280z M160,216c-13.255,0-24,10.745-24,24c0,13.255,10.745,24,24,24s24-10.745,24-24
		C184,226.745,173.255,216,160,216z"/>
	
		<linearGradient id="SVGID_2_" gradientUnits="userSpaceOnUse" x1="-36.875" y1="557.295" x2="-36.875" y2="618.683" gradientTransform="matrix(8 0 0 -8 455 4941)">
		<stop  offset="0" style="stop-color:#006DF0"/>
		<stop  offset="1" style="stop-color:#00E7F0"/>
	</linearGradient>
	<path style="fill:url(#SVGID_2_);" d="M160,368c-22.091,0-40-17.909-40-40s17.909-40,40-40s40,17.909,40,40
		C199.974,350.08,182.08,367.974,160,368z M160,304c-13.255,0-24,10.745-24,24s10.745,24,24,24s24-10.745,24-24S173.255,304,160,304
		z"/>
	
		<linearGradient id="SVGID_3_" gradientUnits="userSpaceOnUse" x1="-36.875" y1="557.295" x2="-36.875" y2="618.683" gradientTransform="matrix(8 0 0 -8 455 4941)">
		<stop  offset="0" style="stop-color:#006DF0"/>
		<stop  offset="1" style="stop-color:#00E7F0"/>
	</linearGradient>
	<path style="fill:url(#SVGID_3_);" d="M160,456c-22.091,0-40-17.909-40-40s17.909-40,40-40s40,17.909,40,40
		C199.974,438.08,182.08,455.974,160,456z M160,392c-13.255,0-24,10.745-24,24s10.745,24,24,24s24-10.745,24-24S173.255,392,160,392
		z"/>
	
		<linearGradient id="SVGID_4_" gradientUnits="userSpaceOnUse" x1="-36.875" y1="557.295" x2="-36.875" y2="618.683" gradientTransform="matrix(8 0 0 -8 455 4941)">
		<stop  offset="0" style="stop-color:#006DF0"/>
		<stop  offset="1" style="stop-color:#00E7F0"/>
	</linearGradient>
	<path style="fill:url(#SVGID_4_);" d="M160,192c-22.091,0-40-17.909-40-40s17.909-40,40-40s40,17.909,40,40
		C199.974,174.08,182.08,191.974,160,192z M160,128c-13.255,0-24,10.745-24,24s10.745,24,24,24s24-10.745,24-24S173.255,128,160,128
		z"/>
	
		<linearGradient id="SVGID_5_" gradientUnits="userSpaceOnUse" x1="-36.875" y1="557.295" x2="-36.875" y2="618.683" gradientTransform="matrix(8 0 0 -8 455 4941)">
		<stop  offset="0" style="stop-color:#006DF0"/>
		<stop  offset="1" style="stop-color:#00E7F0"/>
	</linearGradient>
	<path style="fill:url(#SVGID_5_);" d="M160,104c-22.091,0-40-17.909-40-40s17.909-40,40-40s40,17.909,40,40
		C199.974,86.08,182.08,103.974,160,104z M160,40c-13.255,0-24,10.745-24,24s10.745,24,24,24s24-10.745,24-24S173.255,40,160,40z"/>
</g>
<g>
	
		<linearGradient id="SVGID_6_" gradientUnits="userSpaceOnUse" x1="-48.875" y1="557.295" x2="-48.875" y2="618.683" gradientTransform="matrix(8 0 0 -8 455 4941)">
		<stop  offset="0" style="stop-color:#006DF0"/>
		<stop  offset="1" style="stop-color:#00E7F0"/>
	</linearGradient>
	<path style="fill:url(#SVGID_6_);" d="M64,280c-22.091,0-40-17.909-40-40s17.909-40,40-40s40,17.909,40,40
		C103.974,262.08,86.08,279.974,64,280z M64,216c-13.255,0-24,10.745-24,24c0,13.255,10.745,24,24,24s24-10.745,24-24
		C88,226.745,77.255,216,64,216z"/>
	
		<linearGradient id="SVGID_7_" gradientUnits="userSpaceOnUse" x1="-48.875" y1="557.295" x2="-48.875" y2="618.683" gradientTransform="matrix(8 0 0 -8 455 4941)">
		<stop  offset="0" style="stop-color:#006DF0"/>
		<stop  offset="1" style="stop-color:#00E7F0"/>
	</linearGradient>
	<path style="fill:url(#SVGID_7_);" d="M64,368c-22.091,0-40-17.909-40-40s17.909-40,40-40s40,17.909,40,40
		C103.974,350.08,86.08,367.974,64,368z M64,304c-13.255,0-24,10.745-24,24s10.745,24,24,24s24-10.745,24-24S77.255,304,64,304z"/>
	
		<linearGradient id="SVGID_8_" gradientUnits="userSpaceOnUse" x1="-48.875" y1="557.295" x2="-48.875" y2="618.683" gradientTransform="matrix(8 0 0 -8 455 4941)">
		<stop  offset="0" style="stop-color:#006DF0"/>
		<stop  offset="1" style="stop-color:#00E7F0"/>
	</linearGradient>
	<path style="fill:url(#SVGID_8_);" d="M64,456c-22.091,0-40-17.909-40-40s17.909-40,40-40s40,17.909,40,40
		C103.974,438.08,86.08,455.974,64,456z M64,392c-13.255,0-24,10.745-24,24s10.745,24,24,24s24-10.745,24-24S77.255,392,64,392z"/>
	
		<linearGradient id="SVGID_9_" gradientUnits="userSpaceOnUse" x1="-48.875" y1="557.295" x2="-48.875" y2="618.683" gradientTransform="matrix(8 0 0 -8 455 4941)">
		<stop  offset="0" style="stop-color:#006DF0"/>
		<stop  offset="1" style="stop-color:#00E7F0"/>
	</linearGradient>
	<path style="fill:url(#SVGID_9_);" d="M64,192c-22.091,0-40-17.909-40-40s17.909-40,40-40s40,17.909,40,40
		C103.974,174.08,86.08,191.974,64,192z M64,128c-13.255,0-24,10.745-24,24s10.745,24,24,24s24-10.745,24-24S77.255,128,64,128z"/>
	
		<linearGradient id="SVGID_10_" gradientUnits="userSpaceOnUse" x1="-48.875" y1="557.295" x2="-48.875" y2="618.683" gradientTransform="matrix(8 0 0 -8 455 4941)">
		<stop  offset="0" style="stop-color:#006DF0"/>
		<stop  offset="1" style="stop-color:#00E7F0"/>
	</linearGradient>
	<path style="fill:url(#SVGID_10_);" d="M64,104c-22.091,0-40-17.909-40-40s17.909-40,40-40s40,17.909,40,40
		C103.974,86.08,86.08,103.974,64,104z M64,40c-13.255,0-24,10.745-24,24s10.745,24,24,24s24-10.745,24-24S77.255,40,64,40z"/>
	
		<linearGradient id="SVGID_11_" gradientUnits="userSpaceOnUse" x1="-4.875" y1="557.295" x2="-4.875" y2="618.683" gradientTransform="matrix(8 0 0 -8 455 4941)">
		<stop  offset="0" style="stop-color:#006DF0"/>
		<stop  offset="1" style="stop-color:#00E7F0"/>
	</linearGradient>
	<path style="fill:url(#SVGID_11_);" d="M416,280c-22.091,0-40-17.909-40-40s17.909-40,40-40s40,17.909,40,40
		C455.974,262.08,438.08,279.974,416,280z M416,216c-13.255,0-24,10.745-24,24c0,13.255,10.745,24,24,24s24-10.745,24-24
		C440,226.745,429.255,216,416,216z"/>
	
		<linearGradient id="SVGID_12_" gradientUnits="userSpaceOnUse" x1="-4.875" y1="557.295" x2="-4.875" y2="618.683" gradientTransform="matrix(8 0 0 -8 455 4941)">
		<stop  offset="0" style="stop-color:#006DF0"/>
		<stop  offset="1" style="stop-color:#00E7F0"/>
	</linearGradient>
	<path style="fill:url(#SVGID_12_);" d="M416,368c-22.091,0-40-17.909-40-40s17.909-40,40-40s40,17.909,40,40
		C455.974,350.08,438.08,367.974,416,368z M416,304c-13.255,0-24,10.745-24,24s10.745,24,24,24s24-10.745,24-24S429.255,304,416,304
		z"/>
	
		<linearGradient id="SVGID_13_" gradientUnits="userSpaceOnUse" x1="-4.875" y1="557.295" x2="-4.875" y2="618.683" gradientTransform="matrix(8 0 0 -8 455 4941)">
		<stop  offset="0" style="stop-color:#006DF0"/>
		<stop  offset="1" style="stop-color:#00E7F0"/>
	</linearGradient>
	<path style="fill:url(#SVGID_13_);" d="M416,456c-22.091,0-40-17.909-40-40s17.909-40,40-40s40,17.909,40,40
		C455.974,438.08,438.08,455.974,416,456z M416,392c-13.255,0-24,10.745-24,24s10.745,24,24,24s24-10.745,24-24S429.255,392,416,392
		z"/>
	
		<linearGradient id="SVGID_14_" gradientUnits="userSpaceOnUse" x1="-4.875" y1="557.295" x2="-4.875" y2="618.683" gradientTransform="matrix(8 0 0 -8 455 4941)">
		<stop  offset="0" style="stop-color:#006DF0"/>
		<stop  offset="1" style="stop-color:#00E7F0"/>
	</linearGradient>
	<path style="fill:url(#SVGID_14_);" d="M416,192c-22.091,0-40-17.909-40-40s17.909-40,40-40s40,17.909,40,40
		C455.974,174.08,438.08,191.974,416,192z M416,128c-13.255,0-24,10.745-24,24s10.745,24,24,24s24-10.745,24-24S429.255,128,416,128
		z"/>
	
		<linearGradient id="SVGID_15_" gradientUnits="userSpaceOnUse" x1="-4.875" y1="557.295" x2="-4.875" y2="618.683" gradientTransform="matrix(8 0 0 -8 455 4941)">
		<stop  offset="0" style="stop-color:#006DF0"/>
		<stop  offset="1" style="stop-color:#00E7F0"/>
	</linearGradient>
	<path style="fill:url(#SVGID_15_);" d="M416,104c-22.091,0-40-17.909-40-40s17.909-40,40-40s40,17.909,40,40
		C455.974,86.08,438.08,103.974,416,104z M416,40c-13.255,0-24,10.745-24,24s10.745,24,24,24s24-10.745,24-24S429.255,40,416,40z"/>
	
		<linearGradient id="SVGID_16_" gradientUnits="userSpaceOnUse" x1="-16.875" y1="557.295" x2="-16.875" y2="618.683" gradientTransform="matrix(8 0 0 -8 455 4941)">
		<stop  offset="0" style="stop-color:#006DF0"/>
		<stop  offset="1" style="stop-color:#00E7F0"/>
	</linearGradient>
	<path style="fill:url(#SVGID_16_);" d="M320,280c-22.091,0-40-17.909-40-40s17.909-40,40-40s40,17.909,40,40
		C359.974,262.08,342.08,279.974,320,280z M320,216c-13.255,0-24,10.745-24,24c0,13.255,10.745,24,24,24s24-10.745,24-24
		C344,226.745,333.255,216,320,216z"/>
	
		<linearGradient id="SVGID_17_" gradientUnits="userSpaceOnUse" x1="-16.875" y1="557.295" x2="-16.875" y2="618.683" gradientTransform="matrix(8 0 0 -8 455 4941)">
		<stop  offset="0" style="stop-color:#006DF0"/>
		<stop  offset="1" style="stop-color:#00E7F0"/>
	</linearGradient>
	<path style="fill:url(#SVGID_17_);" d="M320,368c-22.091,0-40-17.909-40-40s17.909-40,40-40s40,17.909,40,40
		C359.974,350.08,342.08,367.974,320,368z M320,304c-13.255,0-24,10.745-24,24s10.745,24,24,24s24-10.745,24-24S333.255,304,320,304
		z"/>
	
		<linearGradient id="SVGID_18_" gradientUnits="userSpaceOnUse" x1="-16.875" y1="557.295" x2="-16.875" y2="618.683" gradientTransform="matrix(8 0 0 -8 455 4941)">
		<stop  offset="0" style="stop-color:#006DF0"/>
		<stop  offset="1" style="stop-color:#00E7F0"/>
	</linearGradient>
	<path style="fill:url(#SVGID_18_);" d="M320,456c-22.091,0-40-17.909-40-40s17.909-40,40-40s40,17.909,40,40
		C359.974,438.08,342.08,455.974,320,456z M320,392c-13.255,0-24,10.745-24,24s10.745,24,24,24s24-10.745,24-24S333.255,392,320,392
		z"/>
	
		<linearGradient id="SVGID_19_" gradientUnits="userSpaceOnUse" x1="-16.875" y1="557.295" x2="-16.875" y2="618.683" gradientTransform="matrix(8 0 0 -8 455 4941)">
		<stop  offset="0" style="stop-color:#006DF0"/>
		<stop  offset="1" style="stop-color:#00E7F0"/>
	</linearGradient>
	<path style="fill:url(#SVGID_19_);" d="M320,192c-22.091,0-40-17.909-40-40s17.909-40,40-40s40,17.909,40,40
		C359.974,174.08,342.08,191.974,320,192z M320,128c-13.255,0-24,10.745-24,24s10.745,24,24,24s24-10.745,24-24S333.255,128,320,128
		z"/>
	
		<linearGradient id="SVGID_20_" gradientUnits="userSpaceOnUse" x1="-16.875" y1="557.295" x2="-16.875" y2="618.683" gradientTransform="matrix(8 0 0 -8 455 4941)">
		<stop  offset="0" style="stop-color:#006DF0"/>
		<stop  offset="1" style="stop-color:#00E7F0"/>
	</linearGradient>
	<path style="fill:url(#SVGID_20_);" d="M320,104c-22.091,0-40-17.909-40-40s17.909-40,40-40s40,17.909,40,40
		C359.974,86.08,342.08,103.974,320,104z M320,40c-13.255,0-24,10.745-24,24s10.745,24,24,24s24-10.745,24-24S333.255,40,320,40z"/>
	
		<linearGradient id="SVGID_21_" gradientUnits="userSpaceOnUse" x1="-26.875" y1="557.295" x2="-26.875" y2="618.683" gradientTransform="matrix(8 0 0 -8 455 4941)">
		<stop  offset="0" style="stop-color:#006DF0"/>
		<stop  offset="1" style="stop-color:#00E7F0"/>
	</linearGradient>
	<path style="fill:url(#SVGID_21_);" d="M472,480H8c-4.418,0-8-3.582-8-8V8c0-4.418,3.582-8,8-8h464c4.418,0,8,3.582,8,8v464
		C480,476.418,476.418,480,472,480z M16,464h448V16H16V464z"/>
	
		<linearGradient id="SVGID_22_" gradientUnits="userSpaceOnUse" x1="-26.875" y1="557.295" x2="-26.875" y2="618.683" gradientTransform="matrix(8 0 0 -8 455 4941)">
		<stop  offset="0" style="stop-color:#006DF0"/>
		<stop  offset="1" style="stop-color:#00E7F0"/>
	</linearGradient>
	<path style="fill:url(#SVGID_22_);" d="M240,72c-4.418,0-8-3.582-8-8V32c0-4.418,3.582-8,8-8s8,3.582,8,8v32
		C248,68.418,244.418,72,240,72z"/>
	
		<linearGradient id="SVGID_23_" gradientUnits="userSpaceOnUse" x1="-26.875" y1="557.295" x2="-26.875" y2="618.683" gradientTransform="matrix(8 0 0 -8 455 4941)">
		<stop  offset="0" style="stop-color:#006DF0"/>
		<stop  offset="1" style="stop-color:#00E7F0"/>
	</linearGradient>
	<path style="fill:url(#SVGID_23_);" d="M240,136c-4.418,0-8-3.582-8-8V96c0-4.418,3.582-8,8-8s8,3.582,8,8v32
		C248,132.418,244.418,136,240,136z"/>
	
		<linearGradient id="SVGID_24_" gradientUnits="userSpaceOnUse" x1="-26.875" y1="557.295" x2="-26.875" y2="618.683" gradientTransform="matrix(8 0 0 -8 455 4941)">
		<stop  offset="0" style="stop-color:#006DF0"/>
		<stop  offset="1" style="stop-color:#00E7F0"/>
	</linearGradient>
	<path style="fill:url(#SVGID_24_);" d="M240,200c-4.418,0-8-3.582-8-8v-32c0-4.418,3.582-8,8-8s8,3.582,8,8v32
		C248,196.418,244.418,200,240,200z"/>
	
		<linearGradient id="SVGID_25_" gradientUnits="userSpaceOnUse" x1="-26.875" y1="557.295" x2="-26.875" y2="618.683" gradientTransform="matrix(8 0 0 -8 455 4941)">
		<stop  offset="0" style="stop-color:#006DF0"/>
		<stop  offset="1" style="stop-color:#00E7F0"/>
	</linearGradient>
	<path style="fill:url(#SVGID_25_);" d="M240,264c-4.418,0-8-3.582-8-8v-32c0-4.418,3.582-8,8-8s8,3.582,8,8v32
		C248,260.418,244.418,264,240,264z"/>
	
		<linearGradient id="SVGID_26_" gradientUnits="userSpaceOnUse" x1="-26.875" y1="557.295" x2="-26.875" y2="618.683" gradientTransform="matrix(8 0 0 -8 455 4941)">
		<stop  offset="0" style="stop-color:#006DF0"/>
		<stop  offset="1" style="stop-color:#00E7F0"/>
	</linearGradient>
	<path style="fill:url(#SVGID_26_);" d="M240,328c-4.418,0-8-3.582-8-8v-32c0-4.418,3.582-8,8-8s8,3.582,8,8v32
		C248,324.418,244.418,328,240,328z"/>
	
		<linearGradient id="SVGID_27_" gradientUnits="userSpaceOnUse" x1="-26.875" y1="557.295" x2="-26.875" y2="618.683" gradientTransform="matrix(8 0 0 -8 455 4941)">
		<stop  offset="0" style="stop-color:#006DF0"/>
		<stop  offset="1" style="stop-color:#00E7F0"/>
	</linearGradient>
	<path style="fill:url(#SVGID_27_);" d="M240,392c-4.418,0-8-3.582-8-8v-32c0-4.418,3.582-8,8-8s8,3.582,8,8v32
		C248,388.418,244.418,392,240,392z"/>
	
		<linearGradient id="SVGID_28_" gradientUnits="userSpaceOnUse" x1="-26.875" y1="557.295" x2="-26.875" y2="618.683" gradientTransform="matrix(8 0 0 -8 455 4941)">
		<stop  offset="0" style="stop-color:#006DF0"/>
		<stop  offset="1" style="stop-color:#00E7F0"/>
	</linearGradient>
	<path style="fill:url(#SVGID_28_);" d="M240,456c-4.418,0-8-3.582-8-8v-32c0-4.418,3.582-8,8-8s8,3.582,8,8v32
		C248,452.418,244.418,456,240,456z"/>
</g>
<g>
</g>
<g>
</g>
<g>
</g>
<g>
</g>
<g>
</g>
<g>
</g>
<g>
</g>
<g>
</g>
<g>
</g>
<g>
</g>
<g>
</g>
<g>
</g>
<g>
</g>
<g>
</g>
<g>
</g>
</svg>
