<?xml version="1.0" encoding="iso-8859-1"?>
<!-- Generator: Adobe Illustrator 19.0.0, SVG Export Plug-In . SVG Version: 6.00 Build 0)  -->
<svg version="1.1" id="Capa_1" xmlns="http://www.w3.org/2000/svg" xmlns:xlink="http://www.w3.org/1999/xlink" x="0px" y="0px"
	 viewBox="0 0 480 480" style="enable-background:new 0 0 480 480;" xml:space="preserve">
<linearGradient id="SVGID_1_" gradientUnits="userSpaceOnUse" x1="-26.875" y1="557.455" x2="-26.875" y2="618.882" gradientTransform="matrix(8 0 0 -8 455 4941)">
	<stop  offset="0" style="stop-color:#006DF0"/>
	<stop  offset="1" style="stop-color:#00E7F0"/>
</linearGradient>
<path style="fill:url(#SVGID_1_);" d="M440,0H40C17.92,0.026,0.026,17.92,0,40v400c0.026,22.08,17.92,39.974,40,40h400
	c22.08-0.026,39.974-17.92,40-40V40C479.974,17.92,462.08,0.026,440,0z M464,440c0,13.255-10.745,24-24,24H40
	c-13.255,0-24-10.745-24-24V40c0-13.255,10.745-24,24-24h400c13.255,0,24,10.745,24,24V440z"/>
<g>
	
		<linearGradient id="SVGID_2_" gradientUnits="userSpaceOnUse" x1="-18.4127" y1="557.455" x2="-18.4127" y2="618.882" gradientTransform="matrix(8 0 0 -8 455 4941)">
		<stop  offset="0" style="stop-color:#006DF0"/>
		<stop  offset="1" style="stop-color:#00E7F0"/>
	</linearGradient>
	<path style="fill:url(#SVGID_2_);" d="M254.912,56.592c36.572,2.844,71.431,16.679,100,39.688c3.457,2.752,8.49,2.18,11.241-1.277
		c2.731-3.43,2.191-8.42-1.209-11.187c-31.082-25.039-69.008-40.098-108.8-43.2c-4.405-0.353-8.263,2.931-8.616,7.336
		s2.931,8.263,7.336,8.616L254.912,56.592z"/>
	
		<linearGradient id="SVGID_3_" gradientUnits="userSpaceOnUse" x1="-39.8793" y1="557.455" x2="-39.8793" y2="618.882" gradientTransform="matrix(8 0 0 -8 455 4941)">
		<stop  offset="0" style="stop-color:#006DF0"/>
		<stop  offset="1" style="stop-color:#00E7F0"/>
	</linearGradient>
	<path style="fill:url(#SVGID_3_);" d="M56,240c0.448-95.476,73.497-174.92,168.6-183.36c4.405-0.362,7.682-4.227,7.32-8.632
		c-0.362-4.405-4.227-7.682-8.632-7.32C113.217,49.915,31.467,146.624,40.693,256.695C44.017,296.351,59.096,334.113,84,365.152
		c2.843,3.382,7.89,3.819,11.272,0.975c3.275-2.753,3.804-7.596,1.2-10.991C70.131,322.56,55.836,281.893,56,240L56,240z"/>
	
		<linearGradient id="SVGID_4_" gradientUnits="userSpaceOnUse" x1="-22.22" y1="557.455" x2="-22.22" y2="618.882" gradientTransform="matrix(8 0 0 -8 455 4941)">
		<stop  offset="0" style="stop-color:#006DF0"/>
		<stop  offset="1" style="stop-color:#00E7F0"/>
	</linearGradient>
	<path style="fill:url(#SVGID_4_);" d="M384.944,113.832c-3.444,2.763-3.999,7.793-1.24,11.24
		C409.934,157.618,424.163,198.2,424,240c-0.11,101.575-82.425,183.89-184,184c-40.76,0.155-80.393-13.366-112.56-38.4
		c-3.466-2.74-8.497-2.152-11.237,1.314c-2.74,3.466-2.152,8.497,1.314,11.237c0.028,0.022,0.055,0.043,0.083,0.065
		C152.574,425.449,195.674,440.162,240,440c110.457,0.001,200.001-89.542,200.001-199.999c0-45.41-15.453-89.468-43.817-124.929
		C393.421,111.628,388.391,111.073,384.944,113.832L384.944,113.832z"/>
	
		<linearGradient id="SVGID_5_" gradientUnits="userSpaceOnUse" x1="-38.881" y1="557.455" x2="-38.881" y2="618.882" gradientTransform="matrix(8 0 0 -8 455 4941)">
		<stop  offset="0" style="stop-color:#006DF0"/>
		<stop  offset="1" style="stop-color:#00E7F0"/>
	</linearGradient>
	<path style="fill:url(#SVGID_5_);" d="M131.848,144.688c-3.464-2.712-8.467-2.119-11.2,1.328C99.411,172.729,87.897,205.874,88,240
		c0.113,64.376,40.667,121.737,101.32,143.312c4.182,1.427,8.728-0.807,10.154-4.989c1.403-4.112-0.733-8.592-4.81-10.091
		C140.391,348.928,104.103,297.603,104,240c-0.099-30.526,10.19-60.177,29.176-84.08
		C135.909,152.451,135.315,147.424,131.848,144.688L131.848,144.688z"/>
	
		<linearGradient id="SVGID_6_" gradientUnits="userSpaceOnUse" x1="-22.3719" y1="557.455" x2="-22.3719" y2="618.882" gradientTransform="matrix(8 0 0 -8 455 4941)">
		<stop  offset="0" style="stop-color:#006DF0"/>
		<stop  offset="1" style="stop-color:#00E7F0"/>
	</linearGradient>
	<path style="fill:url(#SVGID_6_);" d="M223.056,391.064C228.682,391.687,234.339,392,240,392c33.691,0.103,66.441-11.11,93-31.84
		c3.493-2.706,4.13-7.731,1.424-11.224c-2.706-3.493-7.731-4.13-11.224-1.424l0,0C299.443,366.063,270.142,376.096,240,376
		c-5.078,0.014-10.152-0.253-15.2-0.8c-4.344-0.403-8.23,2.699-8.8,7.024C215.509,386.613,218.667,390.57,223.056,391.064z"/>
	
		<linearGradient id="SVGID_7_" gradientUnits="userSpaceOnUse" x1="-23.3797" y1="557.455" x2="-23.3797" y2="618.882" gradientTransform="matrix(8 0 0 -8 455 4941)">
		<stop  offset="0" style="stop-color:#006DF0"/>
		<stop  offset="1" style="stop-color:#00E7F0"/>
	</linearGradient>
	<path style="fill:url(#SVGID_7_);" d="M145.6,131.056c2.707,3.475,7.713,4.108,11.2,1.416C180.56,113.927,209.86,103.9,240,104
		c75.076,0.084,135.916,60.924,136,136c0.086,30.089-9.913,59.34-28.4,83.08c-2.704,3.495-2.063,8.52,1.432,11.224
		s8.52,2.063,11.224-1.432C380.925,306.335,392.102,273.636,392,240c-0.093-83.909-68.091-151.907-152-152
		c-33.682-0.1-66.423,11.11-92.976,31.832C143.531,122.538,142.894,127.563,145.6,131.056
		C145.6,131.056,145.6,131.056,145.6,131.056z"/>
</g>
<linearGradient id="SVGID_8_" gradientUnits="userSpaceOnUse" x1="-26.839" y1="557.455" x2="-26.839" y2="618.882" gradientTransform="matrix(8 0 0 -8 455 4941)">
	<stop  offset="0" style="stop-color:#006DF0"/>
	<stop  offset="1" style="stop-color:#00E7F0"/>
</linearGradient>
<path style="fill:url(#SVGID_8_);" d="M240,320c2.122,0,4.156-0.844,5.656-2.344l73.52-73.52
	c19.068-18.417,19.596-48.804,1.179-67.872c-18.417-19.068-48.804-19.596-67.872-1.179c-0.4,0.386-0.793,0.779-1.179,1.179
	L240,187.568l-11.304-11.304c-18.742-18.749-49.135-18.754-67.884-0.012s-18.754,49.135-0.012,67.884l73.52,73.52
	C235.826,319.162,237.87,320.006,240,320L240,320z M162.72,210.136c0.017-17.673,14.358-31.986,32.031-31.969
	c8.494,0.008,16.637,3.393,22.633,9.409l16.96,16.96c3.124,3.123,8.188,3.123,11.312,0l16.96-16.96
	c12.631-12.177,32.633-12.177,45.264,0c12.49,12.415,12.551,32.606,0.136,45.096c-0.045,0.045-0.09,0.091-0.136,0.136L240,300.688
	L172.136,232.8C166.092,226.809,162.7,218.646,162.72,210.136L162.72,210.136z"/>
<g>
</g>
<g>
</g>
<g>
</g>
<g>
</g>
<g>
</g>
<g>
</g>
<g>
</g>
<g>
</g>
<g>
</g>
<g>
</g>
<g>
</g>
<g>
</g>
<g>
</g>
<g>
</g>
<g>
</g>
</svg>
