<?xml version="1.0" encoding="iso-8859-1"?>
<!-- Generator: Adobe Illustrator 19.0.0, SVG Export Plug-In . SVG Version: 6.00 Build 0)  -->
<svg version="1.1" id="Capa_1" xmlns="http://www.w3.org/2000/svg" xmlns:xlink="http://www.w3.org/1999/xlink" x="0px" y="0px"
	 viewBox="0 0 480 480" style="enable-background:new 0 0 480 480;" xml:space="preserve">
<g>
	
		<linearGradient id="SVGID_1_" gradientUnits="userSpaceOnUse" x1="-26.875" y1="557.955" x2="-26.875" y2="617.825" gradientTransform="matrix(8 0 0 -8 455.0001 4941)">
		<stop  offset="0" style="stop-color:#006DF0"/>
		<stop  offset="1" style="stop-color:#00E7F0"/>
	</linearGradient>
	<path style="fill:url(#SVGID_1_);" d="M296,193.024v-66.048l-56-32.664l-56,32.664v66.048l56,32.664L296,193.024z M200,136.168
		l40-23.368l40,23.336V183.8l-40,23.4l-40-23.336V136.168z"/>
	
		<linearGradient id="SVGID_2_" gradientUnits="userSpaceOnUse" x1="-26.875" y1="557.955" x2="-26.875" y2="617.825" gradientTransform="matrix(8 0 0 -8 455.0001 4941)">
		<stop  offset="0" style="stop-color:#006DF0"/>
		<stop  offset="1" style="stop-color:#00E7F0"/>
	</linearGradient>
	<path style="fill:url(#SVGID_2_);" d="M440,276.528l36.12-21.672l-8.24-13.712l-35.936,21.6L344,211.408v-112l-96-56V0h-16v43.408
		l-96,56v112l-87.944,51.296l-35.936-21.56l-8.24,13.712L40,276.528v112.064l96,56V480h16v-35.408l88-51.328l88,51.328V480h16
		v-35.408l96-56V276.528z M240,57.264l88,51.328v102.816l-88,51.328l-88-51.328V108.592L240,57.264z M56,276.6l88-51.336l88,51.328
		v102.816l-88,51.328l-88-51.328V276.6z M424,379.408l-88,51.328l-88-51.328V276.592l88-51.328l88,51.328V379.408z"/>
</g>
<g>
	
		<linearGradient id="SVGID_3_" gradientUnits="userSpaceOnUse" x1="-14.875" y1="557.955" x2="-14.875" y2="617.825" gradientTransform="matrix(8 0 0 -8 455.0001 4941)">
		<stop  offset="0" style="stop-color:#006DF0"/>
		<stop  offset="1" style="stop-color:#00E7F0"/>
	</linearGradient>
	<path style="fill:url(#SVGID_3_);" d="M280,294.976v66.048l56,32.664l56-32.664v-66.048l-56-32.664L280,294.976z M376,351.832
		L336,375.2l-40-23.336v-47.696l40-23.368l40,23.336V351.832z"/>
	
		<linearGradient id="SVGID_4_" gradientUnits="userSpaceOnUse" x1="-38.875" y1="557.955" x2="-38.875" y2="617.825" gradientTransform="matrix(8 0 0 -8 455.0001 4941)">
		<stop  offset="0" style="stop-color:#006DF0"/>
		<stop  offset="1" style="stop-color:#00E7F0"/>
	</linearGradient>
	<path style="fill:url(#SVGID_4_);" d="M200,361.024v-66.048l-56-32.664l-56,32.672v66.04l56,32.664L200,361.024z M104,304.168
		l40-23.368l40,23.336V351.8l-40,23.4l-40-23.336V304.168z"/>
</g>
<g>
</g>
<g>
</g>
<g>
</g>
<g>
</g>
<g>
</g>
<g>
</g>
<g>
</g>
<g>
</g>
<g>
</g>
<g>
</g>
<g>
</g>
<g>
</g>
<g>
</g>
<g>
</g>
<g>
</g>
</svg>
