<?xml version="1.0" encoding="iso-8859-1"?>
<!-- Generator: Adobe Illustrator 19.0.0, SVG Export Plug-In . SVG Version: 6.00 Build 0)  -->
<svg version="1.1" id="Capa_1" xmlns="http://www.w3.org/2000/svg" xmlns:xlink="http://www.w3.org/1999/xlink" x="0px" y="0px"
	 viewBox="0 0 480.074 480.074" style="enable-background:new 0 0 480.074 480.074;" xml:space="preserve">
<linearGradient id="SVGID_1_" gradientUnits="userSpaceOnUse" x1="-26.8379" y1="557.6993" x2="-26.8379" y2="617.7833" gradientTransform="matrix(8 0 0 -8 454.7403 4941.6685)">
	<stop  offset="0" style="stop-color:#006DF0"/>
	<stop  offset="1" style="stop-color:#00E7F0"/>
</linearGradient>
<path style="fill:url(#SVGID_1_);" d="M364.637,9.394c-35.98-16.21-77.976-11.175-109.104,13.08c-8.966,7.509-22.026,7.509-30.992,0
	c-31.13-24.259-73.13-29.293-109.112-13.08C78.997,25.196,55.591,61.302,56.037,101.01c-0.015,13.669,2.781,27.194,8.216,39.736
	l35.24,81.6c7.83,18.08,12.05,37.517,12.424,57.216l3.32,166.4c0.009,0.435,0.054,0.869,0.136,1.296
	c3.487,19.01,20.056,32.817,39.384,32.816h10.08c10.389,0.025,19.607-6.656,22.816-16.536
	c12.024-37.064,39.016-139.92,52.384-191.464c13.368,51.528,40.36,154.4,52.416,191.448c3.2,9.876,12.403,16.561,22.784,16.552
	h10.08c19.323,0.002,35.89-13.796,39.384-32.8c0.082-0.427,0.127-0.861,0.136-1.296l3.32-166.4
	c0.374-19.699,4.594-39.136,12.424-57.216l35.24-81.6c5.437-12.547,8.234-26.078,8.216-39.752
	C424.488,61.298,401.076,25.189,364.637,9.394L364.637,9.394z M401.133,134.402l-35.24,81.6
	c-8.657,19.994-13.324,41.488-13.736,63.272l-3.32,165.696c-2.335,11.129-12.148,19.1-23.52,19.104h-10.08
	c-3.458,0.018-6.529-2.206-7.592-5.496c-15.856-48.736-59.456-218.776-59.888-220.488c-0.128-0.323-0.28-0.636-0.456-0.936
	c-0.318-1.011-0.908-1.916-1.704-2.616c-0.358-0.386-0.755-0.735-1.184-1.04c-0.453-0.284-0.936-0.518-1.44-0.696
	c-0.316-0.184-0.645-0.344-0.984-0.48c-0.136,0-0.272,0-0.408,0c-0.529-0.083-1.065-0.113-1.6-0.088
	c-0.535-0.024-1.071,0.005-1.6,0.088c-0.136,0-0.264,0-0.4,0c-0.334,0.138-0.66,0.295-0.976,0.472c-0.509,0.187-1,0.423-1.464,0.704
	c-0.419,0.303-0.805,0.649-1.152,1.032c-0.365,0.333-0.695,0.703-0.984,1.104c-0.298,0.477-0.544,0.984-0.736,1.512
	c-0.17,0.306-0.322,0.621-0.456,0.944c-0.432,1.712-44,171.752-59.888,220.488c-1.051,3.254-4.069,5.469-7.488,5.496h-10.08
	c-11.372-0.004-21.185-7.975-23.52-19.104l-3.32-165.696c-0.416-21.776-5.082-43.261-13.736-63.248l-35.24-81.6
	c-4.57-10.547-6.92-21.922-6.904-33.416c-0.442-33.272,19.104-63.568,49.6-76.88c30.604-13.876,66.372-9.689,92.944,10.88
	c7.227,5.722,16.136,8.907,25.352,9.064h0.208c9.212-0.171,18.112-3.367,25.328-9.096c10.17-8.015,22.011-13.642,34.648-16.464
	l-11.416,26.36l14.672,6.352l15.128-34.912c13.702-0.213,27.295,2.449,39.904,7.816c30.496,13.312,50.042,43.608,49.6,76.88
	C408.028,112.494,405.689,123.86,401.133,134.402L401.133,134.402z"/>
<linearGradient id="SVGID_2_" gradientUnits="userSpaceOnUse" x1="-20.3356" y1="557.6993" x2="-20.3356" y2="617.7833" gradientTransform="matrix(8 0 0 -8 454.7403 4941.6685)">
	<stop  offset="0" style="stop-color:#006DF0"/>
	<stop  offset="1" style="stop-color:#00E7F0"/>
</linearGradient>
<path style="fill:url(#SVGID_2_);" d="M309.061,80.642l-22.624,9.072l9.072-22.672l-14.864-5.936l-16,40
	c-1.642,4.102,0.352,8.758,4.454,10.4c1.908,0.764,4.037,0.764,5.946,0l26.536-10.632l-13.416,73.768l15.744,2.864l16-88
	c0.795-4.346-2.084-8.514-6.43-9.309C311.994,79.926,310.462,80.08,309.061,80.642z"/>
<g>
</g>
<g>
</g>
<g>
</g>
<g>
</g>
<g>
</g>
<g>
</g>
<g>
</g>
<g>
</g>
<g>
</g>
<g>
</g>
<g>
</g>
<g>
</g>
<g>
</g>
<g>
</g>
<g>
</g>
</svg>
