<?xml version="1.0" encoding="iso-8859-1"?>
<!-- Generator: Adobe Illustrator 19.0.0, SVG Export Plug-In . SVG Version: 6.00 Build 0)  -->
<svg version="1.1" id="Capa_1" xmlns="http://www.w3.org/2000/svg" xmlns:xlink="http://www.w3.org/1999/xlink" x="0px" y="0px"
	 viewBox="0 0 479.978 479.978" style="enable-background:new 0 0 479.978 479.978;" xml:space="preserve">
<linearGradient id="SVGID_1_" gradientUnits="userSpaceOnUse" x1="-24.8244" y1="558.1035" x2="-24.8244" y2="617.7935" gradientTransform="matrix(8 0 0 -8 438.5847 4940.8062)">
	<stop  offset="0" style="stop-color:#006DF0"/>
	<stop  offset="1" style="stop-color:#00E7F0"/>
</linearGradient>
<path style="fill:url(#SVGID_1_);" d="M407.753,58.554c-78.118-78.091-204.751-78.07-282.843,0.048
	C93.979,89.545,74.047,129.776,68.169,173.13L14.345,292.69c-1.816,4.028-0.023,8.765,4.005,10.581
	c1.03,0.464,2.146,0.705,3.275,0.707h44.72v88c0,4.418,3.582,8,8,8h88v72c0,4.418,3.582,8,8,8h192c4.418,0,8-3.582,8-8V370.714
	c13.613-8.229,26.18-18.076,37.424-29.328c78.098-78.104,78.098-204.728,0-282.832L407.753,58.554z M396.441,330.082
	c-11.345,11.353-24.157,21.138-38.096,29.096c-2.48,1.432-4.006,4.08-4,6.944v97.856h-176v-72c0-4.418-3.582-8-8-8h-88v-88
	c0-4.418-3.582-8-8-8H34.001l49.24-109.352c0.327-0.721,0.543-1.487,0.64-2.272C96.91,75.573,189.172,4.435,289.954,17.464
	s171.919,105.291,158.89,206.073C443.63,263.867,425.202,301.334,396.441,330.082L396.441,330.082z"/>
<linearGradient id="SVGID_2_" gradientUnits="userSpaceOnUse" x1="-21.5413" y1="558.1035" x2="-21.5413" y2="617.7935" gradientTransform="matrix(8 0 0 -8 438.5847 4940.8062)">
	<stop  offset="0" style="stop-color:#006DF0"/>
	<stop  offset="1" style="stop-color:#00E7F0"/>
</linearGradient>
<path style="fill:url(#SVGID_2_);" d="M369.345,112.074c-0.584-0.344-1.2-0.608-1.8-0.912c-0.022-23.083-18.701-41.805-41.784-41.88
	h-0.08c-3.618,0.048-7.214,0.57-10.696,1.552c-11.587-14.914-29.594-23.405-48.472-22.856h-0.128
	c-19.311,0.011-37.383,9.509-48.344,25.408c-44.848,0.992-82.488,40.888-82.592,88.192c-0.018,25.457,20.567,46.128,46.024,46.216
	c1.688,0,3.352,0,4.984,0.072s3.288,0.072,4.96,0.072c8.891,0.851,17.745-1.95,24.528-7.76c10.286,5.294,21.722,7.96,33.288,7.76
	h0.192c11.775,0.239,23.419-2.513,33.84-8h23.08v224.04c0,4.418,3.582,8,8,8s8-3.582,8-8v-224h24.896
	c22.361-1.269,41.635-16.168,48.496-37.488C398.209,153.482,400.593,130.554,369.345,112.074z M380.313,158.25
	c-5.034,14.323-17.974,24.382-33.096,25.728h-46.64c5.071-7.987,7.712-17.276,7.6-26.736c0-4.418-3.582-8-8-8s-8,3.582-8,8
	c-0.048,25.584-22.096,34.736-42.76,34.736h-0.152c-20.688-0.048-42.784-9.24-42.728-34.92c0-4.418-3.582-8-8-8s-8,3.582-8,8
	c-0.282,12.208,4.124,24.06,12.312,33.12c-5.129,1.872-10.635,2.476-16.048,1.76c-1.736,0-3.504-0.072-5.296-0.072
	c-16.626-0.057-30.069-13.558-30.056-30.184c0.204-34.647,24.618-64.428,58.552-71.424c-1.587,5.35-2.395,10.9-2.4,16.48
	c0,4.418,3.582,8,8,8s8-3.582,8-8c0.057-23.601,19.183-42.716,42.784-42.76h0.096c12.771-0.39,25.086,4.761,33.776,14.128
	c-10.311,7.836-16.395,20.018-16.464,32.968c0,4.418,3.582,8,8,8s8-3.582,8-8c0.044-14.269,11.619-25.815,25.888-25.824h0.048
	c13.195,0.067,24.215,10.073,25.552,23.2c-13.713,1.287-25.917,9.234-32.64,21.256c-2.081,3.897-0.609,8.744,3.289,10.825
	c3.8,2.029,8.525,0.685,10.687-3.041c4.572-8.209,13.228-13.302,22.624-13.312c2.099-0.094,4.176,0.465,5.944,1.6
	C372.185,132.346,384.433,143.25,380.313,158.25L380.313,158.25z"/>
<g>
</g>
<g>
</g>
<g>
</g>
<g>
</g>
<g>
</g>
<g>
</g>
<g>
</g>
<g>
</g>
<g>
</g>
<g>
</g>
<g>
</g>
<g>
</g>
<g>
</g>
<g>
</g>
<g>
</g>
</svg>
