<?xml version="1.0" encoding="iso-8859-1"?>
<!-- Generator: Adobe Illustrator 19.0.0, SVG Export Plug-In . SVG Version: 6.00 Build 0)  -->
<svg version="1.1" id="Capa_1" xmlns="http://www.w3.org/2000/svg" xmlns:xlink="http://www.w3.org/1999/xlink" x="0px" y="0px"
	 viewBox="0 0 475.536 475.536" style="enable-background:new 0 0 475.536 475.536;" xml:space="preserve">
<g>
	
		<linearGradient id="SVGID_1_" gradientUnits="userSpaceOnUse" x1="-29.107" y1="553.491" x2="-29.107" y2="611.766" gradientTransform="matrix(8 0 0 -8 470.624 4900.8242)">
		<stop  offset="0" style="stop-color:#006DF0"/>
		<stop  offset="1" style="stop-color:#00E7F0"/>
	</linearGradient>
	<path style="fill:url(#SVGID_1_);" d="M243.536,5.992L237.768,0L232,5.992c-7.272,7.552-178.232,186.264-178.232,285.544
		c0,101.62,82.38,184,184,184s184-82.38,184-184C421.768,192.256,250.808,13.544,243.536,5.992z M237.768,459.536
		c-92.74-0.106-167.894-75.26-168-168c0-83.136,137.856-235.92,168-268.328c30.144,32.4,168,185.128,168,268.328
		C405.662,384.276,330.508,459.43,237.768,459.536z"/>
	
		<linearGradient id="SVGID_2_" gradientUnits="userSpaceOnUse" x1="-29.107" y1="553.491" x2="-29.107" y2="611.766" gradientTransform="matrix(8 0 0 -8 470.624 4900.8242)">
		<stop  offset="0" style="stop-color:#006DF0"/>
		<stop  offset="1" style="stop-color:#00E7F0"/>
	</linearGradient>
	<path style="fill:url(#SVGID_2_);" d="M277.768,203.536h-80v56h-64v80h64v64h80v-64h64v-80h-64V203.536z M325.768,275.536v48h-64
		v64h-48v-64h-64v-48h64v-56h48v56H325.768z"/>
</g>
<g>
</g>
<g>
</g>
<g>
</g>
<g>
</g>
<g>
</g>
<g>
</g>
<g>
</g>
<g>
</g>
<g>
</g>
<g>
</g>
<g>
</g>
<g>
</g>
<g>
</g>
<g>
</g>
<g>
</g>
</svg>
