<?xml version="1.0" encoding="iso-8859-1"?>
<!-- Generator: Adobe Illustrator 19.0.0, SVG Export Plug-In . SVG Version: 6.00 Build 0)  -->
<svg version="1.1" id="Capa_1" xmlns="http://www.w3.org/2000/svg" xmlns:xlink="http://www.w3.org/1999/xlink" x="0px" y="0px"
	 viewBox="0 0 480 480" style="enable-background:new 0 0 480 480;" xml:space="preserve">
<g>
	
		<linearGradient id="SVGID_1_" gradientUnits="userSpaceOnUse" x1="-26.875" y1="525.955" x2="-26.875" y2="578.886" gradientTransform="matrix(8 0 0 -8 455 4653)">
		<stop  offset="0" style="stop-color:#006DF0"/>
		<stop  offset="1" style="stop-color:#00E7F0"/>
	</linearGradient>
	<path style="fill:url(#SVGID_1_);" d="M472,256h-32c-4.418,0-8,3.582-8,8v72H48V216c0-4.418-3.582-8-8-8H8c-4.418,0-8,3.582-8,8
		v224c0,4.418,3.582,8,8,8h32c4.418,0,8-3.582,8-8v-8h384v8c0,4.418,3.582,8,8,8h32c4.418,0,8-3.582,8-8V264
		C480,259.582,476.418,256,472,256z M16,432V224h16v208H16z M48,416v-64h384v64H48z M464,432h-16V272h16V432z"/>
	
		<linearGradient id="SVGID_2_" gradientUnits="userSpaceOnUse" x1="-26.875" y1="525.955" x2="-26.875" y2="578.886" gradientTransform="matrix(8 0 0 -8 455 4653)">
		<stop  offset="0" style="stop-color:#006DF0"/>
		<stop  offset="1" style="stop-color:#00E7F0"/>
	</linearGradient>
	<path style="fill:url(#SVGID_2_);" d="M144,408h192v-48H144V408z M160,376h160v16H160V376z"/>
</g>
<g>
	
		<linearGradient id="SVGID_3_" gradientUnits="userSpaceOnUse" x1="-44.875" y1="525.955" x2="-44.875" y2="578.886" gradientTransform="matrix(8 0 0 -8 455 4653)">
		<stop  offset="0" style="stop-color:#006DF0"/>
		<stop  offset="1" style="stop-color:#00E7F0"/>
	</linearGradient>
	<path style="fill:url(#SVGID_3_);" d="M64,408h64v-48H64V408z M80,376h32v16H80V376z"/>
	
		<linearGradient id="SVGID_4_" gradientUnits="userSpaceOnUse" x1="-8.875" y1="525.955" x2="-8.875" y2="578.886" gradientTransform="matrix(8 0 0 -8 455 4653)">
		<stop  offset="0" style="stop-color:#006DF0"/>
		<stop  offset="1" style="stop-color:#00E7F0"/>
	</linearGradient>
	<path style="fill:url(#SVGID_4_);" d="M352,408h64v-48h-64V408z M368,376h32v16h-32V376z"/>
	
		<linearGradient id="SVGID_5_" gradientUnits="userSpaceOnUse" x1="-42.875" y1="525.955" x2="-42.875" y2="578.886" gradientTransform="matrix(8 0 0 -8 455 4653)">
		<stop  offset="0" style="stop-color:#006DF0"/>
		<stop  offset="1" style="stop-color:#00E7F0"/>
	</linearGradient>
	<path style="fill:url(#SVGID_5_);" d="M56,296h112v32H56V296z"/>
</g>
<g>
	
		<linearGradient id="SVGID_6_" gradientUnits="userSpaceOnUse" x1="-26.875" y1="525.955" x2="-26.875" y2="578.886" gradientTransform="matrix(8 0 0 -8 455 4653)">
		<stop  offset="0" style="stop-color:#006DF0"/>
		<stop  offset="1" style="stop-color:#00E7F0"/>
	</linearGradient>
	<path style="fill:url(#SVGID_6_);" d="M216,192h48v-32h32v-48h-32V80h-48v32h-32v48h32V192z M200,144v-16h32V96h16v32h32v16h-32v32
		h-16v-32H200z"/>
	
		<linearGradient id="SVGID_7_" gradientUnits="userSpaceOnUse" x1="-26.875" y1="525.955" x2="-26.875" y2="578.886" gradientTransform="matrix(8 0 0 -8 455 4653)">
		<stop  offset="0" style="stop-color:#006DF0"/>
		<stop  offset="1" style="stop-color:#00E7F0"/>
	</linearGradient>
	<path style="fill:url(#SVGID_7_);" d="M240,240c57.438,0,104-46.562,104-104S297.438,32,240,32S136,78.562,136,136
		C136.066,193.41,182.59,239.934,240,240z M240,48c48.601,0,88,39.399,88,88s-39.399,88-88,88s-88-39.399-88-88
		C152.057,87.423,191.423,48.057,240,48z"/>
</g>
<g>
</g>
<g>
</g>
<g>
</g>
<g>
</g>
<g>
</g>
<g>
</g>
<g>
</g>
<g>
</g>
<g>
</g>
<g>
</g>
<g>
</g>
<g>
</g>
<g>
</g>
<g>
</g>
<g>
</g>
</svg>
