<?xml version="1.0" encoding="iso-8859-1"?>
<!-- Generator: Adobe Illustrator 19.0.0, SVG Export Plug-In . SVG Version: 6.00 Build 0)  -->
<svg version="1.1" id="Capa_1" xmlns="http://www.w3.org/2000/svg" xmlns:xlink="http://www.w3.org/1999/xlink" x="0px" y="0px"
	 viewBox="0 0 480 480" style="enable-background:new 0 0 480 480;" xml:space="preserve">
<linearGradient id="SVGID_1_" gradientUnits="userSpaceOnUse" x1="-26.875" y1="558.125" x2="-26.875" y2="617.803" gradientTransform="matrix(8 0 0 -8 455 4941)">
	<stop  offset="0" style="stop-color:#006DF0"/>
	<stop  offset="1" style="stop-color:#00E7F0"/>
</linearGradient>
<path style="fill:url(#SVGID_1_);" d="M272,464h-64v-51.112c-9.098-1.655-18.051-4.025-26.776-7.088l-25.512,44.192l-55.424-32
	l25.536-44.232c-7.028-6.008-13.576-12.556-19.584-19.584l-44.232,25.536l-32-55.424L74.2,298.776
	c-3.069-8.723-5.44-17.677-7.088-26.776H16v-64h51.112c1.648-9.099,4.019-18.053,7.088-26.776l-44.192-25.512l32-55.424
	l44.232,25.536c6.008-7.028,12.556-13.576,19.584-19.584l-25.536-44.232l55.424-32L181.224,74.2
	c8.725-3.063,17.678-5.433,26.776-7.088V16h64v51.112c9.098,1.655,18.051,4.025,26.776,7.088l25.512-44.192l55.424,32
	l-25.536,44.232c7.028,6.008,13.576,12.556,19.584,19.584l44.232-25.536l32,55.424L405.8,181.224
	c3.069,8.723,5.44,17.677,7.088,26.776H464v64h-51.112c-1.648,9.099-4.019,18.053-7.088,26.776l44.192,25.512l-32,55.424
	l-44.232-25.536c-6.008,7.028-12.556,13.576-19.584,19.584l25.536,44.232l-55.424,32L298.776,405.8
	c-8.725,3.063-17.678,5.433-26.776,7.088L272,464z M224,448h32v-48.8l6.864-0.992c12.5-1.758,24.744-5.005,36.472-9.672l6.4-2.576
	l24.368,42.216l27.712-16l-24.392-42.256l5.44-4.28c9.934-7.828,18.908-16.802,26.736-26.736l4.28-5.432l42.248,24.376l16-27.696
	l-42.208-24.376l2.576-6.4c4.661-11.733,7.908-23.979,9.672-36.48l0.984-6.896H448v-32h-48.848l-0.984-6.864
	c-1.764-12.501-5.011-24.747-9.672-36.48l-2.576-6.4l42.216-24.376l-16-27.696l-42.248,24.376l-4.28-5.432
	c-7.819-9.929-16.782-18.9-26.704-26.728l-5.44-4.28l24.392-42.256l-27.712-16L305.776,94.08l-6.4-2.576
	c-11.728-4.667-23.972-7.914-36.472-9.672L256,80.84V32h-32v48.84l-6.864,0.992c-12.499,1.758-24.744,5.005-36.472,9.672l-6.4,2.576
	l-24.408-42.216l-27.712,16l24.392,42.256l-5.44,4.28c-9.917,7.818-18.878,16.779-26.696,26.696l-4.28,5.432l-42.248-24.376
	l-16,27.696l42.216,24.376l-2.576,6.4c-4.661,11.733-7.908,23.979-9.672,36.48L80.848,224H32v32h48.848l0.984,6.864
	c1.764,12.501,5.011,24.747,9.672,36.48l2.576,6.4l-42.216,24.408l16,27.696l42.248-24.376l4.28,5.432
	c7.821,9.918,16.784,18.878,26.704,26.696l5.44,4.28l-24.392,42.256l27.712,16l24.368-42.216l6.4,2.576
	c11.728,4.667,23.973,7.914,36.472,9.672L224,399.2V448z"/>
<g>
	
		<linearGradient id="SVGID_2_" gradientUnits="userSpaceOnUse" x1="-34.875" y1="558.125" x2="-34.875" y2="617.803" gradientTransform="matrix(8 0 0 -8 455 4941)">
		<stop  offset="0" style="stop-color:#006DF0"/>
		<stop  offset="1" style="stop-color:#00E7F0"/>
	</linearGradient>
	<path style="fill:url(#SVGID_2_);" d="M176,224c-26.51,0-48-21.49-48-48s21.49-48,48-48s48,21.49,48,48
		C223.974,202.499,202.499,223.974,176,224z M176,144c-17.673,0-32,14.327-32,32s14.327,32,32,32s32-14.327,32-32
		S193.673,144,176,144z"/>
	
		<linearGradient id="SVGID_3_" gradientUnits="userSpaceOnUse" x1="-36.875" y1="558.125" x2="-36.875" y2="617.803" gradientTransform="matrix(8 0 0 -8 455 4941)">
		<stop  offset="0" style="stop-color:#006DF0"/>
		<stop  offset="1" style="stop-color:#00E7F0"/>
	</linearGradient>
	<path style="fill:url(#SVGID_3_);" d="M160,344c-13.255,0-24-10.745-24-24s10.745-24,24-24s24,10.745,24,24S173.255,344,160,344z
		 M160,312c-4.418,0-8,3.582-8,8s3.582,8,8,8s8-3.582,8-8S164.418,312,160,312z"/>
	
		<linearGradient id="SVGID_4_" gradientUnits="userSpaceOnUse" x1="-12.875" y1="558.125" x2="-12.875" y2="617.803" gradientTransform="matrix(8 0 0 -8 455 4941)">
		<stop  offset="0" style="stop-color:#006DF0"/>
		<stop  offset="1" style="stop-color:#00E7F0"/>
	</linearGradient>
	<path style="fill:url(#SVGID_4_);" d="M352,272c-17.673,0-32-14.327-32-32s14.327-32,32-32s32,14.327,32,32S369.673,272,352,272z
		 M352,224c-8.837,0-16,7.163-16,16c0,8.837,7.163,16,16,16s16-7.163,16-16C368,231.163,360.837,224,352,224z"/>
	
		<linearGradient id="SVGID_5_" gradientUnits="userSpaceOnUse" x1="-0.875" y1="558.125" x2="-0.875" y2="617.803" gradientTransform="matrix(8 0 0 -8 455 4941)">
		<stop  offset="0" style="stop-color:#006DF0"/>
		<stop  offset="1" style="stop-color:#00E7F0"/>
	</linearGradient>
	<path style="fill:url(#SVGID_5_);" d="M448,64c-17.673,0-32-14.327-32-32s14.327-32,32-32s32,14.327,32,32S465.673,64,448,64z
		 M448,16c-8.837,0-16,7.163-16,16s7.163,16,16,16s16-7.163,16-16S456.837,16,448,16z"/>
	
		<linearGradient id="SVGID_6_" gradientUnits="userSpaceOnUse" x1="-51.875" y1="558.125" x2="-51.875" y2="617.803" gradientTransform="matrix(8 0 0 -8 455 4941)">
		<stop  offset="0" style="stop-color:#006DF0"/>
		<stop  offset="1" style="stop-color:#00E7F0"/>
	</linearGradient>
	<path style="fill:url(#SVGID_6_);" d="M40,480c-22.091,0-40-17.909-40-40s17.909-40,40-40s40,17.909,40,40
		C79.974,462.08,62.08,479.974,40,480z M40,416c-13.255,0-24,10.745-24,24s10.745,24,24,24s24-10.745,24-24S53.255,416,40,416z"/>
</g>
<g>
</g>
<g>
</g>
<g>
</g>
<g>
</g>
<g>
</g>
<g>
</g>
<g>
</g>
<g>
</g>
<g>
</g>
<g>
</g>
<g>
</g>
<g>
</g>
<g>
</g>
<g>
</g>
<g>
</g>
</svg>
