<svg id="Capa_1" enable-background="new 0 0 512 512" height="512" viewBox="0 0 512 512" width="512" xmlns="http://www.w3.org/2000/svg" xmlns:xlink="http://www.w3.org/1999/xlink"><linearGradient id="SVGID_1_" gradientUnits="userSpaceOnUse" x1="256" x2="256" y1="512" y2="91"><stop offset="0" stop-color="#5558ff"/><stop offset="1" stop-color="#00c0ff"/></linearGradient><linearGradient id="SVGID_2_" gradientUnits="userSpaceOnUse" x1="271" x2="271" y1="451" y2="0"><stop offset="0" stop-color="#addcff"/><stop offset=".5028" stop-color="#eaf6ff"/><stop offset="1" stop-color="#eaf6ff"/></linearGradient><g><g><g><path d="m301 159.789v-53.789c0-8.291-6.709-15-15-15h-180c-8.291 0-15 6.709-15 15v53.789l-55.605 55.605c-2.813 2.813-4.395 6.622-4.395 10.606v271c0 8.291 6.709 15 15 15h300c8.291 0 15-6.709 15-15v-271c0-3.984-1.582-7.793-4.395-10.605zm135 217.211-45 30v60c0 24.899 20.099 45 45 45s45-20.101 45-45v-60z" fill="url(#SVGID_1_)"/></g></g><g><g><path d="m286 241h-180c-8.401 0-15 6.599-15 15v180c0 8.399 6.599 15 15 15h180c8.401 0 15-6.601 15-15v-180c0-8.401-6.599-15-15-15zm-60 120h-15v15c0 8.399-6.599 15-15 15s-15-6.601-15-15v-15h-15c-8.401 0-15-6.601-15-15 0-8.401 6.599-15 15-15h15v-15c0-8.401 6.599-15 15-15s15 6.599 15 15v15h15c8.401 0 15 6.599 15 15 0 8.399-6.599 15-15 15zm90-361h-240c-8.291 0-15 6.709-15 15v91c0 8.291 6.709 15 15 15h240c8.291 0 15-6.709 15-15v-91c0-8.291-6.709-15-15-15zm120 302c-24.901 0-45 20.099-45 45v60h90v-60c0-24.901-20.099-45-45-45z" fill="url(#SVGID_2_)"/></g></g></g></svg>