<svg id="Capa_1" enable-background="new 0 0 512 512" height="512" viewBox="0 0 512 512" width="512" xmlns="http://www.w3.org/2000/svg" xmlns:xlink="http://www.w3.org/1999/xlink"><linearGradient id="SVGID_1_" gradientUnits="userSpaceOnUse" x1="256" x2="256" y1="452" y2="0"><stop offset="0" stop-color="#ffe59a"/><stop offset="1" stop-color="#ffffd5"/></linearGradient><linearGradient id="SVGID_2_" gradientUnits="userSpaceOnUse" x1="256" x2="256" y1="512" y2="152"><stop offset="0" stop-color="#fd5900"/><stop offset="1" stop-color="#ffde00"/></linearGradient><g><g><g><path d="m256 212c-66.182 0-120 53.833-120 120s53.818 120 120 120 120-53.833 120-120-53.818-120-120-120zm-74.912-30c8.291 0 15-6.709 15-15v-77c0-33.091 26.924-60 60-60s60 26.909 60 60v77c0 8.291 6.709 15 15 15s15-6.709 15-15v-77c0-49.629-40.371-90-90-90s-90 40.371-90 90v77c0 8.291 6.709 15 15 15z" fill="url(#SVGID_1_)"/></g></g><g><g><path d="m286 317h-15v-15c0-8.401-6.599-15-15-15s-15 6.599-15 15v15h-15c-8.401 0-15 6.599-15 15 0 8.399 6.599 15 15 15h15v15c0 8.399 6.599 15 15 15s15-6.601 15-15v-15h15c8.401 0 15-6.601 15-15 0-8.401-6.599-15-15-15zm165 178.5-30-330c-.901-7.5-7.2-13.5-15-13.5h-300c-7.8 0-14.099 6-15 13.5l-30 330c-.3 4.199 1.199 8.399 3.9 11.699 2.999 3.001 6.9 4.801 11.1 4.801h360c4.2 0 8.101-1.8 11.1-4.801 2.701-3.3 4.2-7.5 3.9-11.699zm-195-58.5c-57.9 0-105-47.1-105-105s47.1-105 105-105 105 47.1 105 105-47.1 105-105 105z" fill="url(#SVGID_2_)"/></g></g></g></svg>