<svg id="Capa_1" enable-background="new 0 0 512.006 512.006" height="512" viewBox="0 0 512.006 512.006" width="512" xmlns="http://www.w3.org/2000/svg" xmlns:xlink="http://www.w3.org/1999/xlink"><linearGradient id="SVGID_1_" gradientUnits="userSpaceOnUse" x1="354.003" x2="354.003" y1="406.003" y2=".032"><stop offset="0" stop-color="#c3ffe8"/><stop offset=".9973" stop-color="#f0fff4"/></linearGradient><linearGradient id="SVGID_2_" gradientUnits="userSpaceOnUse" x1="256" x2="256" y1="512.003" y2=".003"><stop offset="0" stop-color="#00b59c"/><stop offset="1" stop-color="#9cffac"/></linearGradient><g><g><g><path d="m286 316.003c0-16.816-13.184-30-30-30s-30 13.184-30 30c-16.816 0-30 13.184-30 30s13.184 30 30 30c0 16.816 13.184 30 30 30s30-13.184 30-30c16.816 0 30-13.184 30-30s-13.184-30-30-30zm208.304-298.392c-23.277-23.338-61.237-23.532-84.785-.015l-197.728 197.802c-4.277 4.292-5.566 10.737-3.252 16.348s7.793 9.258 13.857 9.258h127.207c3.984 0 7.793-1.582 10.605-4.395l134.066-134.154c23.597-23.232 23.679-61.286.03-84.844z" fill="url(#SVGID_1_)"/></g></g><g><g><path d="m497 211.003h-482c-8.401 0-15 6.599-15 15 0 101.1 58.5 191.1 150 232.2v38.8c0 8.399 6.599 15 15 15h182c8.401 0 15-6.601 15-15v-38.8c91.5-41.1 150-131.1 150-232.2 0-8.401-6.599-15-15-15zm-211 150h-15v15c0 8.399-6.599 15-15 15s-15-6.601-15-15v-15h-15c-8.401 0-15-6.601-15-15 0-8.401 6.599-15 15-15h15v-15c0-8.401 6.599-15 15-15s15 6.599 15 15v15h15c8.401 0 15 6.599 15 15 0 8.399-6.599 15-15 15zm-187.91-241.699 5.094 5.094c10.84 10.84 16.816 25.254 16.816 40.605 0 8.291 6.709 15 15 15s15-6.709 15-15c0-15.352 5.977-29.766 16.816-40.605l5.094-5.094c54.624-3.635 98.09-48.776 98.09-104.301 0-8.291-6.709-15-15-15-55.525 0-100.666 43.466-104.301 98.09l-5.094 5.094c-3.994 3.986-7.504 8.32-10.605 12.887-3.102-4.567-6.612-8.901-10.605-12.887l-5.094-5.094c-3.635-54.624-48.776-98.09-104.301-98.09-8.291 0-15 6.709-15 15 0 55.525 43.466 100.666 98.09 104.301z" fill="url(#SVGID_2_)"/></g></g></g></svg>