<svg id="Capa_1" enable-background="new 0 0 512.026 512.026" height="512" viewBox="0 0 512.026 512.026" width="512" xmlns="http://www.w3.org/2000/svg" xmlns:xlink="http://www.w3.org/1999/xlink"><linearGradient id="SVGID_1_" gradientUnits="userSpaceOnUse" x1="34.893" x2="477.133" y1="476.545" y2="34.305"><stop offset="0" stop-color="#fd5900"/><stop offset="1" stop-color="#ffde00"/></linearGradient><linearGradient id="SVGID_2_" gradientUnits="userSpaceOnUse" x1="120.05" x2="395.822" y1="392" y2="116.229"><stop offset="0" stop-color="#ffe59a"/><stop offset="1" stop-color="#ffffd5"/></linearGradient><g><g><g><path d="m476.82 33.992c-45.293-45.322-124.395-45.322-169.688 0l-271.926 273.15c-46.787 46.787-46.787 122.93 0 169.717 46.864 46.894 122.831 46.887 169.688 0l271.926-273.15c46.787-46.788 46.787-122.93 0-169.717z" fill="url(#SVGID_1_)"/></g></g><g><g><path d="m279.162 169.256c-2.813-2.813-6.621-4.395-10.605-4.395s-7.793 1.582-10.605 4.395l-84.873 84.858c-5.859 5.859-5.859 15.352 0 21.211l63.633 63.647c2.813 2.813 6.621 4.395 10.605 4.395s7.793-1.582 10.605-4.395l84.873-84.858c5.859-5.859 5.859-15.352 0-21.211zm53.02-10.601c5.858-5.858 5.858-15.355 0-21.213s-15.355-5.858-21.213 0-5.858 15.355 0 21.213 15.355 5.858 21.213 0zm21.213 21.213c-5.858 5.858-5.858 15.355 0 21.213s15.355 5.858 21.213 0 5.858-15.355 0-21.213c-5.857-5.858-15.355-5.858-21.213 0zm0-84.853c-5.858 5.858-5.858 15.355 0 21.213s15.355 5.858 21.213 0 5.858-15.355 0-21.213c-5.857-5.858-15.355-5.858-21.213 0zm63.64 42.427c-5.858-5.858-15.355-5.858-21.213 0s-5.858 15.355 0 21.213 15.355 5.858 21.213 0 5.858-15.355 0-21.213zm-318.198 212.132c-5.858 5.858-5.858 15.355 0 21.213s15.355 5.858 21.213 0 5.858-15.355 0-21.213-15.355-5.858-21.213 0zm42.426 42.426c-5.858 5.858-5.858 15.355 0 21.213s15.355 5.858 21.213 0 5.858-15.355 0-21.213c-5.857-5.858-15.355-5.858-21.213 0zm0-84.853c-5.858 5.858-5.858 15.355 0 21.213s15.355 5.858 21.213 0 5.858-15.355 0-21.213c-5.857-5.858-15.355-5.858-21.213 0zm42.427 42.427c-5.858 5.858-5.858 15.355 0 21.213s15.355 5.858 21.213 0 5.858-15.355 0-21.213-15.355-5.858-21.213 0z" fill="url(#SVGID_2_)"/></g></g></g></svg>