<svg id="Capa_1" enable-background="new 0 0 512 512" height="512" viewBox="0 0 512 512" width="512" xmlns="http://www.w3.org/2000/svg" xmlns:xlink="http://www.w3.org/1999/xlink"><linearGradient id="SVGID_1_" gradientUnits="userSpaceOnUse" x1="256" x2="256" y1="512" y2="0"><stop offset="0" stop-color="#fd3a84"/><stop offset="1" stop-color="#ffa68d"/></linearGradient><linearGradient id="SVGID_2_" gradientUnits="userSpaceOnUse" x1="256" x2="256" y1="421" y2="91"><stop offset="0" stop-color="#ffc8d1"/><stop offset="1" stop-color="#fff6f7"/></linearGradient><g><g><g><path d="m406 0h-300c-8.291 0-15 6.709-15 15v482c0 8.291 6.709 15 15 15h300c8.291 0 15-6.709 15-15v-482c0-8.291-6.709-15-15-15z" fill="url(#SVGID_1_)"/></g></g><g><g><path d="m196 91c-24.814 0-45 20.186-45 45s20.186 45 45 45 45-20.186 45-45-20.186-45-45-45zm120 90c24.815 0 45-20.186 45-45s-20.186-45-45-45-45 20.186-45 45 20.186 45 45 45zm-120 30c-24.814 0-45 20.186-45 45s20.186 45 45 45 45-20.186 45-45-20.186-45-45-45zm120 0c-24.814 0-45 20.186-45 45s20.186 45 45 45c24.815 0 45-20.186 45-45s-20.185-45-45-45zm-120 120c-24.814 0-45 20.186-45 45s20.186 45 45 45 45-20.186 45-45-20.186-45-45-45zm120 0c-24.814 0-45 20.186-45 45s20.186 45 45 45c24.815 0 45-20.186 45-45s-20.185-45-45-45z" fill="url(#SVGID_2_)"/></g></g></g></svg>