<svg id="Capa_1" enable-background="new 0 0 512 512" height="512" viewBox="0 0 512 512" width="512" xmlns="http://www.w3.org/2000/svg" xmlns:xlink="http://www.w3.org/1999/xlink"><linearGradient id="SVGID_1_" gradientUnits="userSpaceOnUse" x1="256" x2="256" y1="512" y2="0"><stop offset="0" stop-color="#5558ff"/><stop offset="1" stop-color="#00c0ff"/></linearGradient><linearGradient id="SVGID_2_" gradientUnits="userSpaceOnUse" x1="256" x2="256" y1="452" y2="90"><stop offset="0" stop-color="#addcff"/><stop offset=".5028" stop-color="#eaf6ff"/><stop offset="1" stop-color="#eaf6ff"/></linearGradient><g><g><g><path d="m271 105v-75h105c8.291 0 15-6.709 15-15s-6.709-15-15-15h-172.91c-47.08 0-89.414 26.162-110.508 68.291-3.691 7.412-.703 16.421 6.709 20.127 7.324 3.662 16.376.773 20.127-6.709 15.967-31.89 48.018-51.709 83.672-51.709h37.91v75c0 8.291 6.709 15 15 15s15-6.709 15-15zm75 45h-15l-75-30-75 30h-15c-41.4 0-75 33.6-75 75v272c0 8.399 6.599 15 15 15h300c8.401 0 15-6.601 15-15v-272c0-41.4-33.6-75-75-75z" fill="url(#SVGID_1_)"/></g></g><g><g><path d="m331 105c0-8.401-6.599-15-15-15h-120c-8.401 0-15 6.599-15 15v45h150zm15 135h-180c-8.401 0-15 6.599-15 15v182c0 8.399 6.599 15 15 15h180c8.401 0 15-6.601 15-15v-182c0-8.401-6.599-15-15-15zm-60 121h-15v15c0 8.399-6.599 15-15 15s-15-6.601-15-15v-15h-15c-8.401 0-15-6.601-15-15 0-8.401 6.599-15 15-15h15v-15c0-8.401 6.599-15 15-15s15 6.599 15 15v15h15c8.401 0 15 6.599 15 15 0 8.399-6.599 15-15 15z" fill="url(#SVGID_2_)"/></g></g></g></svg>