<svg id="Capa_1" enable-background="new 0 0 512 512" height="512" viewBox="0 0 512 512" width="512" xmlns="http://www.w3.org/2000/svg" xmlns:xlink="http://www.w3.org/1999/xlink"><linearGradient id="SVGID_1_" gradientUnits="userSpaceOnUse" x1="256" x2="256" y1="367.599" y2="144.399"><stop offset="0" stop-color="#fd3a84"/><stop offset="1" stop-color="#ffa68d"/></linearGradient><linearGradient id="SVGID_2_" gradientUnits="userSpaceOnUse" x1="256" x2="256" y1="391" y2="121"><stop offset="0" stop-color="#ffc8d1"/><stop offset="1" stop-color="#fff6f7"/></linearGradient><g><g><g><path d="m316 181h-120c-16.816 0-30 13.184-30 30s13.184 30 30 30h120c16.816 0 30-13.184 30-30s-13.184-30-30-30zm0 90h-120c-16.816 0-30 13.184-30 30s13.184 30 30 30h120c16.816 0 30-13.184 30-30s-13.184-30-30-30zm-225-94.501 30-17.922-30-14.178c-74.099 27.601-91 75.601-91 111.601s16.901 84 91 111.599l30-15.911-30-16.189c-40.201-17.699-61-43.799-61-79.499s20.799-61.8 61-79.501zm330-32.1-30 16.341 30 15.76c40.201 17.7 61 43.8 61 79.5s-20.799 61.8-61 79.499l-30 15.979 30 16.121c74.099-27.599 91-75.599 91-111.599s-16.901-84-91-111.601z" fill="url(#SVGID_1_)"/></g></g><g><g><path d="m256 121c-111.899 0-163.2 22.5-165 23.399v223.2c1.8.901 52.5 23.401 165 23.401 111.899 0 163.2-22.5 165-23.401v-223.2c-1.8-.899-53.101-23.399-165-23.399zm60 195h-120c-8.401 0-15-6.601-15-15 0-8.401 6.599-15 15-15h120c8.401 0 15 6.599 15 15 0 8.399-6.599 15-15 15zm0-90h-120c-8.401 0-15-6.601-15-15 0-8.401 6.599-15 15-15h120c8.401 0 15 6.599 15 15 0 8.399-6.599 15-15 15z" fill="url(#SVGID_2_)"/></g></g></g></svg>