<svg id="Capa_1" enable-background="new 0 0 512.015 512.015" height="512" viewBox="0 0 512.015 512.015" width="512" xmlns="http://www.w3.org/2000/svg" xmlns:xlink="http://www.w3.org/1999/xlink"><linearGradient id="SVGID_1_" gradientUnits="userSpaceOnUse" x1="256.007" x2="256.007" y1="512.015" y2="0"><stop offset="0" stop-color="#a93aff"/><stop offset="1" stop-color="#ff81ff"/></linearGradient><linearGradient id="SVGID_2_" gradientUnits="userSpaceOnUse" x1="256.007" x2="256.007" y1="391.013" y2="121.013"><stop offset="0" stop-color="#ffbef9"/><stop offset="1" stop-color="#fff1ff"/></linearGradient><g><g><g><path d="m412.511 1.492c-5.273-2.52-11.367-1.802-15.88 1.802l-28.124 22.515-28.125-22.515c-5.507-4.365-13.242-4.365-18.75 0l-28.124 22.515-28.126-22.515c-5.507-4.365-13.242-4.365-18.75 0l-28.124 22.515-28.126-22.515c-5.507-4.365-13.242-4.365-18.75 0l-28.124 22.515-28.126-22.515c-4.54-3.604-10.663-4.321-15.878-1.802-5.186 2.505-8.496 7.749-8.496 13.521v482c0 5.771 3.311 11.016 8.496 13.521 5.215 2.505 11.338 1.787 15.878-1.802l28.126-22.515 28.124 22.515c5.508 4.365 13.243 4.365 18.75 0l28.126-22.515 28.124 22.515c5.508 4.365 13.243 4.365 18.75 0l28.126-22.515 28.124 22.515c5.508 4.365 13.243 4.365 18.75 0l28.126-22.515 28.124 22.515c4.543 3.614 10.694 4.285 15.88 1.802 5.186-2.505 8.496-7.749 8.496-13.521v-482c-.001-5.772-3.311-11.016-8.497-13.521z" fill="url(#SVGID_1_)"/></g></g><g><g><path d="m226.007 181.013h15v15c0 8.291 6.709 15 15 15s15-6.709 15-15v-15h15c8.291 0 15-6.709 15-15s-6.709-15-15-15h-15v-15c0-8.291-6.709-15-15-15s-15 6.709-15 15v15h-15c-8.291 0-15 6.709-15 15s6.709 15 15 15zm90 120h-120c-8.291 0-15 6.709-15 15s6.709 15 15 15h120c8.291 0 15-6.709 15-15s-6.709-15-15-15zm-120-30h120c8.291 0 15-6.709 15-15s-6.709-15-15-15h-120c-8.291 0-15 6.709-15 15s6.709 15 15 15zm120 90h-120c-8.291 0-15 6.709-15 15s6.709 15 15 15h120c8.291 0 15-6.709 15-15s-6.709-15-15-15z" fill="url(#SVGID_2_)"/></g></g></g></svg>