<svg id="Capa_1" enable-background="new 0 0 512 512" height="512" viewBox="0 0 512 512" width="512" xmlns="http://www.w3.org/2000/svg" xmlns:xlink="http://www.w3.org/1999/xlink"><linearGradient id="SVGID_1_" gradientUnits="userSpaceOnUse" x1="233.5" x2="233.5" y1="512" y2="30"><stop offset="0" stop-color="#00b59c"/><stop offset="1" stop-color="#9cffac"/></linearGradient><linearGradient id="SVGID_2_" gradientUnits="userSpaceOnUse" x1="286" x2="286" y1="392" y2="0"><stop offset="0" stop-color="#c3ffe8"/><stop offset=".9973" stop-color="#f0fff4"/></linearGradient><g><g><g><path d="m421 287c-16.816 0-30 13.184-30 30s13.184 30 30 30 30-13.184 30-30-13.184-30-30-30zm0 75c-8.291 0-15 6.709-15 15 0 57.891-47.109 105-105 105s-105-47.109-105-105v-23.007c10.834-9.175 21.345-18.005 30.879-25.963 79.307-66.255 119.121-99.521 119.121-177.407v-45.623c0-41.353-33.633-75-75-75-8.291 0-15 6.709-15 15s6.709 15 15 15c24.814 0 45 20.186 45 45v45.623c0 51.595-21.2 79.074-69.567 121.377h-131.056c-48.243-42.065-69.377-69.41-69.377-121.377v-45.623c0-24.814 20.186-45 45-45 8.291 0 15-6.709 15-15s-6.709-15-15-15c-41.367 0-75 33.647-75 75v45.623c0 78.223 39.521 111.152 118.301 176.763 9.796 8.15 20.576 17.194 31.699 26.613v23.001c0 74.443 60.557 135 135 135s135-60.557 135-135c0-8.291-6.709-15-15-15zm-270.289-60h60.494c-19.179 16.029-26.858 22.512-30.205 25.342-11.729-9.887-19.319-16.19-30.289-25.342z" fill="url(#SVGID_1_)"/></g></g><g><g><path d="m421 242c-41.4 0-75 33.6-75 75s33.6 75 75 75 75-33.6 75-75-33.6-75-75-75zm0 90c-8.401 0-15-6.601-15-15 0-8.401 6.599-15 15-15s15 6.599 15 15c0 8.399-6.599 15-15 15zm-300-332c-24.814 0-45 20.186-45 45s20.186 45 45 45 45-20.186 45-45-20.186-45-45-45zm120 0c-24.814 0-45 20.186-45 45s20.186 45 45 45 45-20.186 45-45-20.186-45-45-45z" fill="url(#SVGID_2_)"/></g></g></g></svg>