<svg id="Capa_1" enable-background="new 0 0 512 512" height="512" viewBox="0 0 512 512" width="512" xmlns="http://www.w3.org/2000/svg" xmlns:xlink="http://www.w3.org/1999/xlink"><linearGradient id="SVGID_1_" gradientUnits="userSpaceOnUse" x1="256" x2="256" y1="480.513" y2="75.513"><stop offset="0" stop-color="#fd5900"/><stop offset="1" stop-color="#ffde00"/></linearGradient><linearGradient id="SVGID_2_" gradientUnits="userSpaceOnUse" x1="256" x2="256" y1="480.513" y2="31.487"><stop offset="0" stop-color="#ffe59a"/><stop offset="1" stop-color="#ffffd5"/></linearGradient><g><g><g><path d="m226 165.513c0 16.816 13.184 30 30 30s30-13.184 30-30c16.816 0 30-13.184 30-30s-13.184-30-30-30c0-16.816-13.184-30-30-30s-30 13.184-30 30c-16.816 0-30 13.184-30 30s13.184 30 30 30zm241 15h-144.401c-4.199 0-8.399 1.8-11.1 5.099-29.099 32.1-81.899 32.1-110.999 0-2.701-3.3-6.901-5.099-11.1-5.099h-144.4c-8.401 0-15 6.599-15 15v270c0 8.399 6.599 15 15 15h256l60-60 60 60h46c8.401 0 15-6.601 15-15v-270c0-8.401-6.599-15-15-15z" fill="url(#SVGID_1_)"/></g></g><g><g><path d="m497 60.513h-168.1c-39.6-38.701-106.199-38.701-145.8 0h-168.1c-8.401 0-15 6.599-15 15v120c0 8.399 6.599 15 15 15h168.1c19.799 19.499 45.3 30 72.9 30s53.101-10.501 72.9-30h168.1c8.401 0 15-6.601 15-15v-120c0-8.401-6.599-15-15-15zm-211 90h-15v15c0 8.399-6.599 15-15 15s-15-6.601-15-15v-15h-15c-8.401 0-15-6.601-15-15 0-8.401 6.599-15 15-15h15v-15c0-8.401 6.599-15 15-15s15 6.599 15 15v15h15c8.401 0 15 6.599 15 15 0 8.399-6.599 15-15 15zm-30 120h-150c-8.291 0-15 6.709-15 15v90c0 8.291 6.709 15 15 15h150c8.291 0 15-6.709 15-15v-90c0-8.291-6.709-15-15-15zm150 0h-90c-8.401 0-15 6.599-15 15v195h120v-195c0-8.401-6.599-15-15-15z" fill="url(#SVGID_2_)"/></g></g></g></svg>