<svg id="Capa_1" enable-background="new 0 0 512.038 512.038" height="512" viewBox="0 0 512.038 512.038" width="512" xmlns="http://www.w3.org/2000/svg" xmlns:xlink="http://www.w3.org/1999/xlink"><linearGradient id="SVGID_1_" gradientUnits="userSpaceOnUse" x1="268.3" x2="268.3" y1="512.019" y2="61.019"><stop offset="0" stop-color="#5558ff"/><stop offset="1" stop-color="#00c0ff"/></linearGradient><linearGradient id="SVGID_2_" gradientUnits="userSpaceOnUse" x1="256.019" x2="256.019" y1="451.019" y2=".019"><stop offset="0" stop-color="#addcff"/><stop offset=".5028" stop-color="#eaf6ff"/><stop offset="1" stop-color="#eaf6ff"/></linearGradient><g><g><g><path d="m377 196.019-129.6 32.399 24.6 269.101c.901 7.5 7.2 13.5 15 13.5h180c7.8 0 14.099-6 15-13.5l24.6-269.101zm-212-135h-120c-8.401 0-15 6.599-15 15v90l65.624 131.25-65.624 78.75v121c0 8.399 6.599 15 15 15h120c8.401 0 15-6.601 15-15v-121l-65.626-78.75 65.626-131.25v-90c0-8.401-6.599-15-15-15z" fill="url(#SVGID_1_)"/></g></g><g><g><path d="m508.1 155.818c-2.999-2.999-6.899-4.799-11.1-4.799h-240c-4.2 0-8.101 1.8-11.1 4.799-2.701 3.3-4.2 7.5-3.9 11.7l5.4 60.899c20.099 4.2 37.5 12.601 54.6 12.601 22.8 0 45.601-15 75-15s52.2 15 75 15c17.4 0 34.501-8.701 54.6-12.601l5.4-60.899c.3-4.2-1.199-8.4-3.9-11.7zm-131.1 175.201c0-8.284-6.716-15-15-15s-15 6.716-15 15 6.716 15 15 15 15-6.716 15-15zm30 30c-8.284 0-15 6.716-15 15s6.716 15 15 15 15-6.716 15-15-6.716-15-15-15zm0 60h-60c-8.291 0-15 6.709-15 15s6.709 15 15 15h60c8.291 0 15-6.709 15-15s-6.709-15-15-15zm-212-421h-180c-8.291 0-15 6.709-15 15v61c0 8.291 6.709 15 15 15h180c8.291 0 15-6.709 15-15v-61c0-8.291-6.709-15-15-15zm-165 376h150v-210h-150z" fill="url(#SVGID_2_)"/></g></g></g></svg>