<svg id="Capa_1" enable-background="new 0 0 512 512" height="512" viewBox="0 0 512 512" width="512" xmlns="http://www.w3.org/2000/svg" xmlns:xlink="http://www.w3.org/1999/xlink"><linearGradient id="SVGID_1_" gradientUnits="userSpaceOnUse" x1="258.419" x2="258.419" y1="466" y2="45"><stop offset="0" stop-color="#addcff"/><stop offset=".5028" stop-color="#eaf6ff"/><stop offset="1" stop-color="#eaf6ff"/></linearGradient><linearGradient id="SVGID_2_" gradientUnits="userSpaceOnUse" x1="256" x2="256" y1="512" y2="0"><stop offset="0" stop-color="#5558ff"/><stop offset="1" stop-color="#00c0ff"/></linearGradient><g><g><g><path d="m65.818 75 19.501 234.3c4.2 44.399 15.601 86.4 34.2 125.7l61.5 31 61.5-31c18.6-39.3 30-81.301 34.2-125.7l19.501-234.3-115.201-30zm370.201 15c-8.401 0-15 6.599-15 15 0 5.7-.3 10.8-1.5 15-2.701 16.8-11.7 24-23.101 33.3-13.801 11.7-30.899 25.8-34.499 58.2-.601 4.201-.901 8.699-.901 13.5 0 8.399 6.599 15 15 15s15-6.601 15-15c0-5.101.3-9.3 1.199-13.2 2.401-18.001 11.4-25.501 23.401-35.099 13.5-11.4 30.3-25.201 34.499-56.7.601-4.801.901-9.6.901-15 .001-8.402-6.598-15.001-14.999-15.001z" fill="url(#SVGID_1_)"/></g></g><g><g><path d="m286.019 0h-210c-4.2 0-8.101 1.8-11.1 4.799-2.701 3.001-4.2 7.2-3.9 11.4l4.799 58.801h230.402l4.799-58.801c.3-4.2-1.199-8.399-3.9-11.4-2.999-2.999-6.9-4.799-11.1-4.799zm-165 438.6v58.4c0 8.399 6.599 15 15 15h90c8.401 0 15-6.601 15-15v-58.4c.601-1.201 1.199-2.401 1.5-3.6h-123c.301 1.199.899 2.399 1.5 3.6zm40.195-108.6h39.609c7.793 0 14.297-5.977 14.941-13.755l15-180c.352-4.175-1.055-8.32-3.896-11.396-2.842-3.091-6.855-4.849-11.045-4.849h-69.609c-4.189 0-8.203 1.758-11.045 4.849-2.842 3.076-4.248 7.222-3.896 11.396l15 180c.644 7.778 7.148 13.755 14.941 13.755zm231.004-118.2c-9.6-2.1-19.799-2.4-30.298-.3-.601 4.201-.901 8.699-.901 13.5v272c0 8.399 6.599 15 15 15h60c8.401 0 15-6.601 15-15v-212c0-35.7-25.201-65.7-58.801-73.2zm43.801-211.8h-60c-8.401 0-15 6.599-15 15v90c0 8.399 6.599 15 15 15h74.099c.601-4.801.901-9.6.901-15v-90c0-8.401-6.599-15-15-15z" fill="url(#SVGID_2_)"/></g></g></g></svg>