<svg id="Capa_1" enable-background="new 0 0 512 512" height="512" viewBox="0 0 512 512" width="512" xmlns="http://www.w3.org/2000/svg" xmlns:xlink="http://www.w3.org/1999/xlink"><linearGradient id="SVGID_1_" gradientUnits="userSpaceOnUse" x1="239.757" x2="239.757" y1="512" y2="114.911"><stop offset="0" stop-color="#fd5900"/><stop offset="1" stop-color="#ffde00"/></linearGradient><linearGradient id="SVGID_2_" gradientUnits="userSpaceOnUse" x1="256" x2="256" y1="512" y2="0"><stop offset="0" stop-color="#ffe59a"/><stop offset="1" stop-color="#ffffd5"/></linearGradient><g><g><g><path d="m360.957 332h-53.401l-59.399-217.089-110.582 20.288-49.018 79.313 78 286.388c1.8 6.599 7.5 11.1 14.399 11.1h180l30-80.999z" fill="url(#SVGID_1_)"/></g></g><g><g><path d="m213.357 2.111c-3.6-2.1-7.5-2.699-11.4-1.5l-144.901 39c-8.101 2.1-12.599 10.201-10.499 18.3l41.999 156.601 159.6-99.6-27.9-103.801c-.898-3.9-3.599-7.2-6.899-9zm237.6 329.889h-90v180h90c8.401 0 15-6.601 15-15v-150c0-8.401-6.599-15-15-15z" fill="url(#SVGID_2_)"/></g></g></g></svg>