<svg id="Capa_1" enable-background="new 0 0 512 512" height="512" viewBox="0 0 512 512" width="512" xmlns="http://www.w3.org/2000/svg" xmlns:xlink="http://www.w3.org/1999/xlink"><linearGradient id="SVGID_1_" gradientUnits="userSpaceOnUse" x1="85.132" x2="507.435" y1="426.73" y2="4.428"><stop offset="0" stop-color="#5558ff"/><stop offset="1" stop-color="#00c0ff"/></linearGradient><linearGradient id="SVGID_2_" gradientUnits="userSpaceOnUse" x1="157.505" x2="306.005" y1="354.505" y2="206.004"><stop offset="0" stop-color="#addcff"/><stop offset=".5028" stop-color="#eaf6ff"/><stop offset="1" stop-color="#eaf6ff"/></linearGradient><g><g><g><path d="m507.499 4.499c-5.7-5.999-15.298-5.999-20.999 0l-106.4 106.401-9.922 20.608-53.677.391-10.501-10.5c-2.701-2.999-6.601-4.501-10.501-4.501s-7.798 1.501-10.8 4.501c-.601.901-13.2 13.2-31.5 31.8l12.299 33.3-33.6-11.999c-6.599 6.599-13.799 13.799-20.999 21.299l12.001 33.301-33.3-12c-7.2 6.899-14.101 13.801-21.301 21l12.301 33.3-33.301-12.001c-7.5 7.201-14.7 14.401-21.299 21.301l11.999 33.3-33.299-12.3c-19.2 19.2-31.8 31.8-31.8 31.8-2.999 2.701-4.499 6.599-4.499 10.5 0 3.9 1.5 7.8 4.499 10.501l10.501 10.499 2.758 62.758 60.842.842 10.499 10.5c2.701 3 6.599 4.499 10.499 4.499s7.5-1.5 10.501-4.499c3.3-3.301 205.8-205.801 212.1-212.1 2.999-2.701 4.499-6.601 4.499-10.501s-1.5-7.799-4.499-10.5l-10.5-10.499-3.271-51.915 24.271-11.687 106.399-106.399c6.001-5.7 6.001-15.3 0-21z" fill="url(#SVGID_1_)"/></g></g><g><g><path d="m83.401 364.999-47.1 47.1-10.801-10.5c-5.7-6-15.298-6-20.999 0-6 5.7-6 15.299 0 20.999 3.696 3.696 79.857 79.859 84.899 84.901 5.402 6.002 15.605 6 21 0 6-5.7 6-15.3 0-21l-10.499-10.8 47.1-47.1zm328.498-222.299-42.599-42.601c-5.7-5.999-15.3-5.999-21 0l-31.8 31.8 63.6 63.602 31.8-31.8c6-5.701 6-15.301-.001-21.001zm-158.699 10.499-21.301 21.301 42.301 41.999c6.428 6.432 15.734 5.568 21.299 0 5.7-5.7 5.7-15.299 0-20.999zm-42.299 42.6c-6.901 6.601-14.101 13.801-21.301 21.301l41.999 42c5.308 5.305 15.366 5.935 21.301 0 6-6 6-15.3 0-21.301zm-42.601 42.301c-7.2 7.2-14.099 14.099-21 21.299l42.001 42.001c6.191 6.191 15.513 5.784 21.301 0 5.7-5.7 5.7-15.3 0-21zm-42.3 42.599c-7.8 7.5-15 14.7-21.301 21l42.301 42.299c5.585 5.589 15.412 5.59 20.999 0 6-5.999 6-15.599 0-21.299z" fill="url(#SVGID_2_)"/></g></g></g></svg>