<svg id="Capa_1" enable-background="new 0 0 512.017 512.017" height="512" viewBox="0 0 512.017 512.017" width="512" xmlns="http://www.w3.org/2000/svg" xmlns:xlink="http://www.w3.org/1999/xlink"><linearGradient id="SVGID_1_" gradientUnits="userSpaceOnUse" x1="132.482" x2="379.272" y1="379.119" y2="132.328"><stop offset="0" stop-color="#fd3a84"/><stop offset="1" stop-color="#ffa68d"/></linearGradient><linearGradient id="SVGID_2_" gradientUnits="userSpaceOnUse" x1="21.854" x2="490.052" y1="489.898" y2="21.699"><stop offset="0" stop-color="#ffc8d1"/><stop offset="1" stop-color="#fff6f7"/></linearGradient><g><g><g><path d="m402.905 156.83c-3.193-5.874-9.873-8.848-16.436-7.471-13.887 3.091-21.504 1.655-23.936-.747-2.402-2.432-3.867-9.99-.762-23.965 1.436-6.489-1.582-13.169-7.383-16.377-5.801-3.193-13.096-2.227-17.813 2.461l-225.09 226.059c-4.746 4.702-5.83 11.982-2.607 17.842 3.193 5.874 9.902 8.818 16.406 7.471 13.887-3.105 21.504-1.641 23.936.762 2.402 2.417 3.867 9.961.762 23.936-1.436 6.489 1.582 13.169 7.383 16.377 5.908 3.257 13.157 2.17 17.813-2.461l225.092-226.044c4.745-4.704 5.829-11.969 2.635-17.843z" fill="url(#SVGID_1_)"/></g></g><g><g><path d="m489.8 21.449c-28.301-28.652-77.813-28.491-105.762-.161-18.164 17.798-43.799 61.948-51.563 96.855-5.156 23.232-2.197 40.605 8.848 51.665 13.216 13.19 33.415 12.864 51.65 8.848 34.805-7.749 78.896-33.311 96.797-51.46 29.761-29.516 29.329-76.811.03-105.747zm-371.02 311.357c-34.57 7.69-78.721 33.12-96.768 51.138-29.238 29.268-29.238 76.86 0 106.113 29.4 29.399 77.013 29.161 106.113 0 25.188-25.147 75.755-115.028 42.305-148.389-11.015-11.089-28.505-13.989-51.65-8.862z" fill="url(#SVGID_2_)"/></g></g></g></svg>