<svg id="Capa_1" enable-background="new 0 0 512 512" height="512" viewBox="0 0 512 512" width="512" xmlns="http://www.w3.org/2000/svg" xmlns:xlink="http://www.w3.org/1999/xlink"><linearGradient id="SVGID_1_" gradientUnits="userSpaceOnUse" x1="248.5" x2="248.5" y1="346" y2="106"><stop offset="0" stop-color="#ffc8d1"/><stop offset="1" stop-color="#fff6f7"/></linearGradient><linearGradient id="SVGID_2_" gradientUnits="userSpaceOnUse" x1="256" x2="256" y1="512" y2="0"><stop offset="0" stop-color="#fd3a84"/><stop offset="1" stop-color="#ffa68d"/></linearGradient><g><g><g><path d="m317 106c-66.182 0-120 53.833-120 120s53.818 120 120 120 120-53.833 120-120-53.818-120-120-120zm-180 15h-62c-8.291 0-15 6.709-15 15s6.709 15 15 15h62c8.291 0 15-6.709 15-15s-6.709-15-15-15zm0 180h-62c-8.291 0-15 6.709-15 15s6.709 15 15 15h62c8.291 0 15-6.709 15-15s-6.709-15-15-15z" fill="url(#SVGID_1_)"/></g></g><g><g><path d="m347 211h-15v-15c0-8.401-6.599-15-15-15s-15 6.599-15 15v15h-15c-8.401 0-15 6.599-15 15 0 8.399 6.599 15 15 15h15v15c0 8.399 6.599 15 15 15s15-6.601 15-15v-15h15c8.401 0 15-6.601 15-15 0-8.401-6.599-15-15-15zm150-180h-360c-8.401 0-15 6.599-15 15v360c0 8.399 6.599 15 15 15h360c8.401 0 15-6.601 15-15v-360c0-8.401-6.599-15-15-15zm-180 300c-57.9 0-105-47.1-105-105s47.1-105 105-105 105 47.1 105 105-47.1 105-105 105zm-242-331h-60c-8.291 0-15 6.709-15 15v482c0 8.291 6.709 15 15 15h60c8.291 0 15-6.709 15-15v-482c0-8.291-6.709-15-15-15z" fill="url(#SVGID_2_)"/></g></g></g></svg>