<svg id="Capa_1" enable-background="new 0 0 512 512" height="512" viewBox="0 0 512 512" width="512" xmlns="http://www.w3.org/2000/svg" xmlns:xlink="http://www.w3.org/1999/xlink"><linearGradient id="SVGID_1_" gradientUnits="userSpaceOnUse" x1="241" x2="241" y1="512" y2="30.757"><stop offset="0" stop-color="#ffbef9"/><stop offset="1" stop-color="#fff1ff"/></linearGradient><linearGradient id="SVGID_2_" gradientUnits="userSpaceOnUse" x1="301" x2="301" y1="330" y2="0"><stop offset="0" stop-color="#a93aff"/><stop offset="1" stop-color="#ff81ff"/></linearGradient><g><g><g><path d="m271 255c0 16.816 13.184 30 30 30s30-13.184 30-30c16.816 0 30-13.184 30-30s-13.184-30-30-30c0-16.816-13.184-30-30-30s-30 13.184-30 30c-16.816 0-30 13.184-30 30s13.184 30 30 30zm120 105h-75v-45c0-8.291-6.709-15-15-15s-15 6.709-15 15v45h-45c-90.967 0-165-74.019-165-165 0-69.727 52.236-127.485 121.523-134.341 8.262-.82 14.268-8.159 13.477-16.406-.82-8.232-8.145-14.092-16.406-13.447-84.727 8.379-148.594 78.969-148.594 164.194 0 107.52 87.48 195 195 195h45v30h-45c-24.814 0-45 20.186-45 45 0 8.291 6.709 15 15 15s15-6.709 15-15c0-8.276 6.738-15 15-15h45v32h-45c-8.291 0-15 6.709-15 15s6.709 15 15 15h120c8.291 0 15-6.709 15-15s-6.709-15-15-15h-45v-32h75c24.814 0 45-20.186 45-45s-20.186-45-45-45zm0 60h-75v-30h75c8.262 0 15 6.724 15 15s-6.738 15-15 15z" fill="url(#SVGID_1_)"/></g></g><g><g><path d="m451 120h-300c-8.401 0-15 6.599-15 15v30c0 90.899 74.099 165 165 165s165-74.101 165-165v-30c0-8.401-6.599-15-15-15zm-120 120h-15v15c0 8.399-6.599 15-15 15s-15-6.601-15-15v-15h-15c-8.401 0-15-6.601-15-15 0-8.401 6.599-15 15-15h15v-15c0-8.401 6.599-15 15-15s15 6.599 15 15v15h15c8.401 0 15 6.599 15 15 0 8.399-6.599 15-15 15zm-90-150c33.633 0 60-19.761 60-45s-26.367-45-60-45-60 19.761-60 45 26.367 45 60 45z" fill="url(#SVGID_2_)"/></g></g></g></svg>