<svg id="Capa_1" enable-background="new 0 0 512.076 512.076" height="512" viewBox="0 0 512.076 512.076" width="512" xmlns="http://www.w3.org/2000/svg" xmlns:xlink="http://www.w3.org/1999/xlink"><linearGradient id="SVGID_1_" gradientUnits="userSpaceOnUse" x1="274.941" x2="274.941" y1="406.023" y2=".052"><stop offset="0" stop-color="#c3ffe8"/><stop offset=".9973" stop-color="#f0fff4"/></linearGradient><linearGradient id="SVGID_2_" gradientUnits="userSpaceOnUse" x1="256.038" x2="256.038" y1="512.023" y2="30.948"><stop offset="0" stop-color="#00b59c"/><stop offset="1" stop-color="#9cffac"/></linearGradient><g><g><g><path d="m286.076 316.023c0-16.816-13.184-30-30-30s-30 13.184-30 30c-16.816 0-30 13.184-30 30s13.184 30 30 30c0 16.816 13.184 30 30 30s30-13.184 30-30c16.816 0 30-13.184 30-30s-13.184-30-30-30zm208.228-298.392c-23.277-23.338-61.237-23.532-84.785-.015l-197.652 197.802c-4.277 4.292-5.566 10.737-3.252 16.348s7.793 9.258 13.857 9.258h127.207c3.984 0 7.793-1.582 10.605-4.395l133.99-134.154c23.597-23.232 23.679-61.286.03-84.844zm-391.028 52.992-65.4 5.4 1.8 58.2 26.7 26.698c17.834 17.838 46.253 17.346 63.6 0 17.399-17.699 17.399-46.199 0-63.6z" fill="url(#SVGID_1_)"/></g></g><g><g><path d="m497.076 211.023h-482c-8.401 0-15 6.599-15 15 0 101.1 58.5 191.1 150 232.2v38.8c0 8.399 6.599 15 15 15h182c8.401 0 15-6.601 15-15v-38.8c91.5-41.1 150-131.1 150-232.2 0-8.401-6.599-15-15-15zm-211 150h-15v15c0 8.399-6.599 15-15 15s-15-6.601-15-15v-15h-15c-8.401 0-15-6.601-15-15 0-8.401 6.599-15 15-15h15v-15c0-8.401 6.599-15 15-15s15 6.599 15 15v15h15c8.401 0 15 6.599 15 15 0 8.399-6.599 15-15 15zm-90-210c24.814 0 45-20.186 45-45s-20.186-45-45-45-45 20.186-45 45 20.185 45 45 45zm-156.4-16.8 63.6-63.6-26.4-26.4c-17.401-17.701-46.199-17.701-63.6 0-17.701 17.398-17.701 46.199 0 63.6z" fill="url(#SVGID_2_)"/></g></g></g></svg>