<svg id="Capa_1" enable-background="new 0 0 512 512" height="512" viewBox="0 0 512 512" width="512" xmlns="http://www.w3.org/2000/svg" xmlns:xlink="http://www.w3.org/1999/xlink"><linearGradient id="SVGID_1_" gradientUnits="userSpaceOnUse" x1="118.937" x2="498.905" y1="392.846" y2="12.878"><stop offset="0" stop-color="#fd5900"/><stop offset="1" stop-color="#ffde00"/></linearGradient><linearGradient id="SVGID_2_" gradientUnits="userSpaceOnUse" x1="76.721" x2="140.247" y1="435.24" y2="371.714"><stop offset="0" stop-color="#ffe59a"/><stop offset="1" stop-color="#ffffd5"/></linearGradient><g><g><g><path d="m498.816 12.79c-16.933-16.992-46.816-17.051-63.867.059l-17.842 18.047c-38.057-13.447-80.859-4.233-109.307 24.492l-252.378 252.733c-5.859 5.859-5.859 15.352 0 21.211l127.207 127.207c5.86 5.859 15.352 5.859 21.211 0l252.32-252.675c28.77-28.491 38.057-71.279 24.551-109.365l18.047-17.842c.029-.015.029-.044.059-.059 17.578-17.592 17.578-46.215-.001-63.808z" fill="url(#SVGID_1_)"/></g></g><g><g><path d="m203.84 435.328-127.06-127.075c-17.748-18.207-46.429-17.817-63.662-.132-17.49 17.52-17.49 45.996 0 63.516l127.207 127.207c17.586 17.557 45.956 17.414 63.428.088 18.31-17.91 17.609-46.531.087-63.604z" fill="url(#SVGID_2_)"/></g></g></g></svg>