<svg id="Capa_1" enable-background="new 0 0 512 512" height="512" viewBox="0 0 512 512" width="512" xmlns="http://www.w3.org/2000/svg" xmlns:xlink="http://www.w3.org/1999/xlink"><linearGradient id="SVGID_1_" gradientUnits="userSpaceOnUse" x1="286" x2="286" y1="512" y2="0"><stop offset="0" stop-color="#fd5900"/><stop offset="1" stop-color="#ffde00"/></linearGradient><linearGradient id="SVGID_2_" gradientUnits="userSpaceOnUse" x1="226" x2="226" y1="512" y2="0"><stop offset="0" stop-color="#ffe59a"/><stop offset="1" stop-color="#ffffd5"/></linearGradient><g><g><g><path d="m376 0h-15l-45 66.299-45-66.299h-120l-30 262.599 30 249.401h225c41.4 0 75-33.6 75-75v-362c0-41.4-33.6-75-75-75z" fill="url(#SVGID_1_)"/></g></g><g><g><path d="m286 181c-57.9 0-105 47.1-105 105s47.1 105 105 105 105-47.1 105-105-47.1-105-105-105zm30 120h-15v15c0 8.399-6.599 15-15 15s-15-6.601-15-15v-15h-15c-8.401 0-15-6.601-15-15 0-8.401 6.599-15 15-15h15v-15c0-8.401 6.599-15 15-15s15 6.599 15 15v15h15c8.401 0 15 6.599 15 15 0 8.399-6.599 15-15 15zm-240-301c-8.401 0-15 6.599-15 15v482c0 8.399 6.599 15 15 15h75v-512h-15zm204.3 148.799c5.4 2.4 12.001 1.201 16.199-3.3l19.501-19.2 19.501 19.2c4.404 4.897 11.842 5.48 16.199 3.3 5.7-2.399 9.3-7.799 9.3-13.799v-135h-90v135c0 6 3.6 11.4 9.3 13.799z" fill="url(#SVGID_2_)"/></g></g></g></svg>