<svg id="Capa_1" enable-background="new 0 0 512.014 512.014" height="512" viewBox="0 0 512.014 512.014" width="512" xmlns="http://www.w3.org/2000/svg" xmlns:xlink="http://www.w3.org/1999/xlink"><linearGradient id="SVGID_1_" gradientUnits="userSpaceOnUse" x1="78.293" x2="489.844" y1="432.888" y2="21.337"><stop offset="0" stop-color="#a93aff"/><stop offset="1" stop-color="#ff81ff"/></linearGradient><linearGradient id="SVGID_2_" gradientUnits="userSpaceOnUse" x1="2.564" x2="399.117" y1="487.967" y2="91.413"><stop offset="0" stop-color="#ffbef9"/><stop offset="1" stop-color="#fff1ff"/></linearGradient><g><g><g><path d="m489.993 21.488c-28.5-28.801-78.001-28.5-105.901 0l-27.599 27.599 12.299 33.3-33.6-12.299-21 21.301 12.001 33.6-33.3-12.301-21.301 21 12.301 33.6-33.301-12.299-21.299 21.299 12.299 33.302-33.6-12.301-21.301 21.301 12.301 33.6-33.3-12.301-21.301 21 12.299 33.6-33.6-12.299-10.8 10.8c-7.5 7.8-12.299 18.001-12.9 28.801-1.199 18.3-9 35.4-21.899 48.3l-7.5 7.5 7.842 54.842 55.758 8.758 16.199-16.199c9-9 21.301-14.101 34.2-13.2 12.9.599 25.199-3.9 34.2-12.9l271.5-271.8c29.721-29.105 29.394-76.513.303-105.604z" fill="url(#SVGID_1_)"/></g></g><g><g><path d="m398.792 91.088-42.299-42.001-21.301 21 42.301 42.299c5.83 5.833 15.16 6.143 21.299 0 5.7-5.699 5.7-15.297 0-21.298zm-84.6.301-21.299 21.299 42.299 42.301c6.758 6.077 15.896 5.101 21 0 6-6 6-15.601 0-21.301zm-42.599 42.299-21 21.301 42.001 42.299c5.851 5.855 15.18 6.121 21.301 0 5.999-6 5.999-15.3 0-21.299zm-42.3 42.599-21.301 21 42.301 42.301c6.438 6.438 15.743 5.556 21.299 0 5.7-5.7 5.7-15.3 0-21zm-42.601 42.301-20.999 21.299 42.299 42.301c4.611 5.121 14.869 6.128 21 0 6-6 6-15.3 0-21.301zm-42.299 42.299-21.301 21.301 42.301 42.299c6.152 6.156 15.482 5.821 21.299 0 5.7-5.7 5.7-15.3 0-21.299zm-130.999 174.301c-17.701 17.701-17.701 46.199 0 63.6 16.166 16.748 45.098 18.502 63.6 0l56.6-57.6-63.6-63.6z" fill="url(#SVGID_2_)"/></g></g></g></svg>