<svg id="Capa_1" enable-background="new 0 0 512 512" height="512" viewBox="0 0 512 512" width="512" xmlns="http://www.w3.org/2000/svg" xmlns:xlink="http://www.w3.org/1999/xlink"><linearGradient id="SVGID_1_" gradientUnits="userSpaceOnUse" x1="256" x2="256" y1="512" y2="76"><stop offset="0" stop-color="#addcff"/><stop offset=".5028" stop-color="#eaf6ff"/><stop offset="1" stop-color="#eaf6ff"/></linearGradient><linearGradient id="SVGID_2_" gradientUnits="userSpaceOnUse" x1="256" x2="256" y1="392" y2="0"><stop offset="0" stop-color="#5558ff"/><stop offset="1" stop-color="#00c0ff"/></linearGradient><g><g><g><path d="m256 316c66.182 0 120-53.833 120-120s-53.818-120-120-120-120 53.833-120 120 53.818 120 120 120zm43.418 54.291c-2.549-5.083-7.734-8.291-13.418-8.291h-60c-5.684 0-10.869 3.208-13.418 8.291l-60 120c-2.314 4.644-2.08 10.166.645 14.59 2.753 4.424 7.587 7.119 12.773 7.119h180c5.186 0 10.02-2.695 12.773-7.119 2.725-4.424 2.959-9.946.645-14.59z" fill="url(#SVGID_1_)"/></g></g><g><g><path d="m497 0h-482c-8.401 0-15 6.599-15 15v362c0 8.399 6.599 15 15 15h482c8.401 0 15-6.601 15-15v-362c0-8.401-6.599-15-15-15zm-241 301c-57.9 0-105-47.1-105-105s47.1-105 105-105 105 47.1 105 105-47.1 105-105 105zm30-120h-15v-15c0-8.401-6.599-15-15-15s-15 6.599-15 15v15h-15c-8.401 0-15 6.599-15 15 0 8.399 6.599 15 15 15h15v15c0 8.399 6.599 15 15 15s15-6.601 15-15v-15h15c8.401 0 15-6.601 15-15 0-8.401-6.599-15-15-15z" fill="url(#SVGID_2_)"/></g></g></g></svg>