<svg id="Capa_1" enable-background="new 0 0 512 512" height="512" viewBox="0 0 512 512" width="512" xmlns="http://www.w3.org/2000/svg" xmlns:xlink="http://www.w3.org/1999/xlink"><linearGradient id="SVGID_1_" gradientUnits="userSpaceOnUse" x1="256" x2="256" y1="512" y2="45"><stop offset="0" stop-color="#c3ffe8"/><stop offset=".9973" stop-color="#f0fff4"/></linearGradient><linearGradient id="SVGID_2_" gradientUnits="userSpaceOnUse" x1="256" x2="256" y1="452" y2="0"><stop offset="0" stop-color="#00b59c"/><stop offset="1" stop-color="#9cffac"/></linearGradient><g><g><g><path d="m256 285c66.182 0 120-53.833 120-120s-53.818-120-120-120-120 53.833-120 120 53.818 120 120 120zm20.596 77.615c-7.148-.439-12.891 3.823-15.029 10.239l-5.567 16.729-5.566-16.729c-2.109-6.401-8.496-10.356-15.029-10.239-69.551 3.692-144.405 28.535-144.405 74.385 0 48.721 85.02 75 165 75s165-26.279 165-75c0-45.85-74.854-70.693-144.404-74.385z" fill="url(#SVGID_1_)"/></g></g><g><g><path d="m286 150h-15v-15c0-8.401-6.599-15-15-15s-15 6.599-15 15v15h-15c-8.401 0-15 6.599-15 15 0 8.399 6.599 15 15 15h15v15c0 8.399 6.599 15 15 15s15-6.601 15-15v-15h15c8.401 0 15-6.601 15-15 0-8.401-6.599-15-15-15zm-30-150c-90.901 0-165 74.099-165 165 0 70.199 45.3 133.2 111.301 156l39.6 120.799c1.8 6 7.798 10.201 14.099 10.201s12.299-4.2 14.099-10.201l39.6-120.799c66.001-22.8 111.301-85.801 111.301-156 0-90.901-74.099-165-165-165zm0 270c-57.9 0-105-47.1-105-105s47.1-105 105-105 105 47.1 105 105-47.1 105-105 105z" fill="url(#SVGID_2_)"/></g></g></g></svg>