<svg id="Capa_1" enable-background="new 0 0 512 512" height="512" viewBox="0 0 512 512" width="512" xmlns="http://www.w3.org/2000/svg" xmlns:xlink="http://www.w3.org/1999/xlink"><linearGradient id="SVGID_1_" gradientUnits="userSpaceOnUse" x1="256" x2="256" y1="512" y2="0"><stop offset="0" stop-color="#fd5900"/><stop offset="1" stop-color="#ffde00"/></linearGradient><linearGradient id="SVGID_2_" gradientUnits="userSpaceOnUse" x1="256" x2="256" y1="452" y2="60"><stop offset="0" stop-color="#ffe59a"/><stop offset="1" stop-color="#ffffd5"/></linearGradient><g><g><g><path d="m406 0h-300c-41.367 0-75 33.647-75 75v362c0 41.353 33.633 75 75 75h300c41.367 0 75-33.647 75-75v-362c0-41.353-33.633-75-75-75z" fill="url(#SVGID_1_)"/></g></g><g><g><path d="m256 60c-74.399 0-135 60.599-135 135 0 8.399 6.599 15 15 15h83.699l70.801-70.501c5.7-5.999 15.298-5.999 20.999 0 6 5.7 6 15.3 0 21l-49.198 49.501h113.699c8.401 0 15-6.601 15-15 0-74.401-60.601-135-135-135zm0 181c-8.291 0-15 6.709-15 15v181c0 8.291 6.709 15 15 15s15-6.709 15-15v-181c0-8.291-6.709-15-15-15z" fill="url(#SVGID_2_)"/></g></g></g></svg>