<svg id="Capa_1" enable-background="new 0 0 512 512" height="512" viewBox="0 0 512 512" width="512" xmlns="http://www.w3.org/2000/svg" xmlns:xlink="http://www.w3.org/1999/xlink"><linearGradient id="SVGID_1_" gradientUnits="userSpaceOnUse" x1="256" x2="256" y1="485.995" y2="26.005"><stop offset="0" stop-color="#fd3a84"/><stop offset="1" stop-color="#ffa68d"/></linearGradient><linearGradient id="SVGID_2_" gradientUnits="userSpaceOnUse" x1="256" x2="256" y1="376" y2="166"><stop offset="0" stop-color="#ffc8d1"/><stop offset="1" stop-color="#fff6f7"/></linearGradient><g><g><g><path d="m376 26.005c-61.318 0-101.221 31.963-120 51.65-18.779-19.688-58.682-51.65-120-51.65-75.703 0-136 65.156-136 148.33 0 93.442 77.787 225.557 249.379 310.122 2.08 1.025 4.365 1.538 6.621 1.538s4.541-.513 6.621-1.538c171.592-84.565 249.379-216.68 249.379-310.122 0-83.174-60.297-148.33-136-148.33z" fill="url(#SVGID_1_)"/></g></g><g><g><path d="m256 166c-57.9 0-105 47.1-105 105s47.1 105 105 105 105-47.1 105-105-47.1-105-105-105zm30 120h-15v15c0 8.399-6.599 15-15 15s-15-6.601-15-15v-15h-15c-8.401 0-15-6.601-15-15 0-8.401 6.599-15 15-15h15v-15c0-8.401 6.599-15 15-15s15 6.599 15 15v15h15c8.401 0 15 6.599 15 15 0 8.399-6.599 15-15 15z" fill="url(#SVGID_2_)"/></g></g></g></svg>