<svg id="Capa_1" enable-background="new 0 0 512 512" height="512" viewBox="0 0 512 512" width="512" xmlns="http://www.w3.org/2000/svg" xmlns:xlink="http://www.w3.org/1999/xlink"><linearGradient id="SVGID_1_" gradientUnits="userSpaceOnUse" x1="256" x2="256" y1="512" y2="0"><stop offset="0" stop-color="#fd5900"/><stop offset="1" stop-color="#ffde00"/></linearGradient><g><g><path d="m406 90c-12.426 0-22.5 10.073-22.5 22.5v113.5c0 8.291-6.709 15-15 15s-15-6.709-15-15v-173.5c0-12.427-10.074-22.5-22.5-22.5s-22.5 10.073-22.5 22.5v173.5c0 8.291-6.709 15-15 15s-15-6.709-15-15v-203.5c0-12.427-10.074-22.5-22.5-22.5s-22.5 10.073-22.5 22.5v203.5c0 8.291-6.709 15-15 15s-15-6.709-15-15v-173.5c0-12.427-10.074-22.5-22.5-22.5s-22.5 10.073-22.5 22.5v263.5c0 8.291-6.709 15-15 15s-15-6.709-15-15v-112.5c0-12.427-10.074-22.5-22.5-22.5s-22.5 10.073-22.5 22.5v112.5c0 40.503 20.405 70.195 40.137 98.921 39.69 57.777 34.863 59.469 34.863 97.079h225c0-37.768-2.844-37.603 20.435-94.135 12.085-29.282 24.565-59.56 24.565-101.865v-203.5c0-12.427-10.074-22.5-22.5-22.5z" fill="url(#SVGID_1_)"/></g></g></svg>