<svg id="Capa_1" enable-background="new 0 0 512 512" height="512" viewBox="0 0 512 512" width="512" xmlns="http://www.w3.org/2000/svg" xmlns:xlink="http://www.w3.org/1999/xlink"><linearGradient id="SVGID_1_" gradientUnits="userSpaceOnUse" x1="256" x2="256" y1="512" y2="75"><stop offset="0" stop-color="#addcff"/><stop offset=".5028" stop-color="#eaf6ff"/><stop offset="1" stop-color="#eaf6ff"/></linearGradient><linearGradient id="SVGID_2_" gradientUnits="userSpaceOnUse" x1="256" x2="256" y1="512" y2="0"><stop offset="0" stop-color="#5558ff"/><stop offset="1" stop-color="#00c0ff"/></linearGradient><g><g><g><path d="m407.199 105-151.199-30-151.199 30 32.399 210 90.932 45.925-77.132 44.075v92c0 8.399 6.599 15 15 15h45l15-30 15 30h30l15-30 15 30h45c8.401 0 15-6.601 15-15l-.3-89.602.3-2.398-77.131-44.075 90.932-45.925z" fill="url(#SVGID_1_)"/></g></g><g><g><path d="m417.4 5.1c-2.999-3.3-6.899-5.1-11.4-5.1h-300c-4.501 0-8.401 1.8-11.4 5.1-2.699 3.6-4.2 7.8-3.3 12.299l13.5 87.602h302.399l13.5-87.602c.902-4.499-.6-8.7-3.299-12.299zm-266.4 399.9h210l13.801-90h-237.602zm75 47c-8.401 0-15 6.599-15 15v45h30v-45c0-8.401-6.599-15-15-15zm60 0c-8.401 0-15 6.599-15 15v45h30v-45c0-8.401-6.599-15-15-15zm-30-287c-8.291 0-15 6.709-15 15v15h-15c-8.291 0-15 6.709-15 15s6.709 15 15 15h15v15c0 8.291 6.709 15 15 15s15-6.709 15-15v-15h15c8.291 0 15-6.709 15-15s-6.709-15-15-15h-15v-15c0-8.291-6.709-15-15-15z" fill="url(#SVGID_2_)"/></g></g></g></svg>