<svg id="Capa_1" enable-background="new 0 0 512 512" height="512" viewBox="0 0 512 512" width="512" xmlns="http://www.w3.org/2000/svg" xmlns:xlink="http://www.w3.org/1999/xlink"><linearGradient id="SVGID_1_" gradientUnits="userSpaceOnUse" x1="256" x2="256" y1="467" y2="90"><stop offset="0" stop-color="#c3ffe8"/><stop offset=".9973" stop-color="#f0fff4"/></linearGradient><linearGradient id="SVGID_2_" gradientUnits="userSpaceOnUse" x1="256" x2="256" y1="512" y2="180.706"><stop offset="0" stop-color="#00b59c"/><stop offset="1" stop-color="#9cffac"/></linearGradient><g><g><g><path d="m376 225h-240c-16.816 0-30 13.184-30 30v182c0 16.816 13.184 30 30 30h240c16.816 0 30-13.184 30-30v-182c0-16.816-13.184-30-30-30zm60-105h-30l-150-30-165 30h-15c-8.401 0-15 6.599-15 15v60c0 8.399 6.599 15 15 15h360c8.401 0 15-6.601 15-15v-60c0-8.401-6.599-15-15-15z" fill="url(#SVGID_1_)"/></g></g><g><g><path d="m421 75c0-41.4-33.6-75-75-75-8.401 0-15 6.599-15 15 0 8.399-6.599 15-15 15h-150c-41.4 0-75 33.6-75 75v15h315c9.3-12.301 15-28.2 15-45zm-135 256h-15v-15c0-8.401-6.599-15-15-15s-15 6.599-15 15v15h-15c-8.401 0-15 6.599-15 15 0 8.399 6.599 15 15 15h15v15c0 8.399 6.599 15 15 15s15-6.601 15-15v-15h15c8.401 0 15-6.601 15-15 0-8.401-6.599-15-15-15zm180-151h-420c-8.401 0-15 6.599-15 15v302c0 8.399 6.599 15 15 15h420c8.401 0 15-6.601 15-15v-302c0-8.401-6.599-15-15-15zm-75 257c0 8.399-6.599 15-15 15h-240c-8.401 0-15-6.601-15-15v-182c0-8.401 6.599-15 15-15h240c8.401 0 15 6.599 15 15z" fill="url(#SVGID_2_)"/></g></g></g></svg>