<svg id="Capa_1" enable-background="new 0 0 512 512" height="512" viewBox="0 0 512 512" width="512" xmlns="http://www.w3.org/2000/svg" xmlns:xlink="http://www.w3.org/1999/xlink"><linearGradient id="SVGID_1_" gradientUnits="userSpaceOnUse" x1="256" x2="256" y1="512" y2="0"><stop offset="0" stop-color="#a93aff"/><stop offset="1" stop-color="#ff81ff"/></linearGradient><linearGradient id="SVGID_2_" gradientUnits="userSpaceOnUse" x1="256" x2="256" y1="512" y2="91"><stop offset="0" stop-color="#ffbef9"/><stop offset="1" stop-color="#fff1ff"/></linearGradient><g id="Suppository_3_"><g><g><path d="m497 91c-8.401 0-15-6.601-15-15v-61c0-8.401-6.599-15-15-15h-181c-8.401 0-15 6.599-15 15v61c0 8.399-6.599 15-15 15s-15-6.601-15-15v-61c0-8.401-6.599-15-15-15h-181c-8.401 0-15 6.599-15 15v61c0 8.399-6.599 15-15 15s-15 6.599-15 15v391c0 8.399 6.599 15 15 15h226l15-30 15 30h226c8.401 0 15-6.601 15-15v-391c0-8.401-6.599-15-15-15z" fill="url(#SVGID_1_)"/></g></g><g><g><path d="m256 151c-8.291 0-15 6.709-15 15v30c0 8.291 6.709 15 15 15s15-6.709 15-15v-30c0-8.291-6.709-15-15-15zm0 90c-8.291 0-15 6.709-15 15v30c0 8.291 6.709 15 15 15s15-6.709 15-15v-30c0-8.291-6.709-15-15-15zm0 90c-8.291 0-15 6.709-15 15v30c0 8.291 6.709 15 15 15s15-6.709 15-15v-30c0-8.291-6.709-15-15-15zm0 90c-8.401 0-15 6.599-15 15v76h30v-76c0-8.401-6.599-15-15-15zm-130.605-325.605c-2.637 2.622-64.395 65.141-64.395 130.605 0 60.791 29.063 206.763 30.293 212.944 1.406 7.002 7.559 12.056 14.707 12.056h60c7.148 0 13.301-5.054 14.707-12.056 1.231-6.181 30.293-152.153 30.293-212.944 0-65.464-61.758-127.983-64.395-130.605-5.859-5.86-15.351-5.86-21.21 0zm261.21 0c-5.859-5.859-15.352-5.859-21.211 0-2.636 2.622-64.394 65.141-64.394 130.605 0 60.791 29.063 206.763 30.293 212.944 1.406 7.002 7.559 12.056 14.707 12.056h60c7.148 0 13.301-5.054 14.707-12.056 1.231-6.181 30.293-152.153 30.293-212.944 0-65.464-61.758-127.983-64.395-130.605z" fill="url(#SVGID_2_)"/></g></g></g></svg>