<svg id="Capa_1" enable-background="new 0 0 512 512" height="512" viewBox="0 0 512 512" width="512" xmlns="http://www.w3.org/2000/svg" xmlns:xlink="http://www.w3.org/1999/xlink"><linearGradient id="SVGID_1_" gradientUnits="userSpaceOnUse" x1="256" x2="256" y1="512" y2="0"><stop offset="0" stop-color="#fd5900"/><stop offset="1" stop-color="#ffde00"/></linearGradient><linearGradient id="SVGID_2_" gradientUnits="userSpaceOnUse" x1="166" x2="166" y1="406" y2="0"><stop offset="0" stop-color="#ffe59a"/><stop offset="1" stop-color="#ffffd5"/></linearGradient><g><g><g><path d="m436 0h-30c-19.53 0-36.024 12.578-42.237 30h-167.763c-8.291 0-15 6.709-15 15s6.709 15 15 15h167.763c6.213 17.422 22.707 30 42.237 30h30c8.291 0 15-6.709 15-15v-60c0-8.291-6.709-15-15-15zm-225 122.5c-4.799-.901-45-32.5-45-32.5s-40.201 31.599-45 32.5c-34.2 6.899-60 37.2-60 73.5v30l70.8 60.899c-14.7 1.8-25.8 13.801-25.8 29.101 0 10.199 5.099 18.6 12.6 24l-57.6 66v91c0 8.399 6.599 15 15 15h180c8.401 0 15-6.601 15-15v-91l-57.6-66c7.5-5.4 12.6-13.8 12.6-24 0-15.3-11.1-27.301-25.8-29.101l70.8-60.899v-30c0-36.301-25.8-66.601-60-73.5z" fill="url(#SVGID_1_)"/></g></g><g><g><path d="m196 121c5.1 0 10.201.599 15 1.5v-107.5c0-8.401-6.599-15-15-15h-60c-8.401 0-15 6.599-15 15v107.5c4.799-.901 9.9-1.5 15-1.5zm-135 105v180h210v-180zm135 105h-15v15c0 8.399-6.599 15-15 15s-15-6.601-15-15v-15h-15c-8.401 0-15-6.601-15-15 0-8.401 6.599-15 15-15h15v-15c0-8.401 6.599-15 15-15s15 6.599 15 15v15h15c8.401 0 15 6.599 15 15 0 8.399-6.599 15-15 15z" fill="url(#SVGID_2_)"/></g></g></g></svg>