<svg id="Capa_1" enable-background="new 0 0 512 512" height="512" viewBox="0 0 512 512" width="512" xmlns="http://www.w3.org/2000/svg" xmlns:xlink="http://www.w3.org/1999/xlink"><linearGradient id="SVGID_1_" gradientUnits="userSpaceOnUse" x1="293.5" x2="293.5" y1="512" y2="45"><stop offset="0" stop-color="#addcff"/><stop offset=".5028" stop-color="#eaf6ff"/><stop offset="1" stop-color="#eaf6ff"/></linearGradient><linearGradient id="SVGID_2_" gradientUnits="userSpaceOnUse" x1="195" x2="195" y1="390" y2="0"><stop offset="0" stop-color="#5558ff"/><stop offset="1" stop-color="#00c0ff"/></linearGradient><g><g><g><path d="m315 165c0-66.167-53.818-120-120-120s-120 53.833-120 120 53.818 120 120 120 120-53.833 120-120zm135 270c0-16.729 10.672-27.979 22.684-43.55 17.519-22.705 39.316-50.962 39.316-106.45 0-80.142-58.807-148.301-137.088-162.085-4.951-.835-9.873.762-13.33 4.292-3.458 3.53-4.951 8.555-3.984 13.403 1.611 8.174 2.402 16.158 2.402 24.39 0 74.443-60.557 135-135 135h-60c-8.994 0-18.164-1.333-25.137-2.49-4.746-.747-9.727.791-13.154 4.292-3.428 3.486-4.951 8.423-4.043 13.242 14.473 78.193 82.764 134.956 162.334 134.956h60c7.676 0 15.674-.674 24.551-2.109 16.728 37.646 53.584 64.109 95.449 64.109 6.064 0 11.514-3.647 13.828-9.243 2.344-5.596 1.055-12.041-3.193-16.348-7.149-7.178-25.635-32.058-25.635-51.409z" fill="url(#SVGID_1_)"/></g></g><g><g><path d="m225 150h-15v-15c0-8.401-6.599-15-15-15s-15 6.599-15 15v15h-15c-8.401 0-15 6.599-15 15 0 8.399 6.599 15 15 15h15v15c0 8.399 6.599 15 15 15s15-6.601 15-15v-15h15c8.401 0 15-6.601 15-15 0-8.401-6.599-15-15-15zm0-150h-60c-90.901 0-165 74.099-165 165 0 55.499 21.899 83.699 39.3 106.5 12.001 15.6 20.7 26.7 20.7 43.5 0 19.499-18.6 42.299-25.499 49.499-4.501 4.2-5.7 10.801-3.302 16.201 2.401 5.7 7.801 9.3 13.801 9.3 41.7 0 78.6-24.3 95.4-62.1 7.2 1.199 15.901 2.1 24.6 2.1h60c90.901 0 165-74.101 165-165 0-89.55-72.19-165-165-165zm-30 270c-57.9 0-105-47.1-105-105s47.1-105 105-105 105 47.1 105 105-47.1 105-105 105z" fill="url(#SVGID_2_)"/></g></g></g></svg>