<svg id="Capa_1" enable-background="new 0 0 512 512" height="512" viewBox="0 0 512 512" width="512" xmlns="http://www.w3.org/2000/svg" xmlns:xlink="http://www.w3.org/1999/xlink"><linearGradient id="SVGID_1_" gradientUnits="userSpaceOnUse" x1="256" x2="256" y1="467" y2="0"><stop offset="0" stop-color="#c3ffe8"/><stop offset=".9973" stop-color="#f0fff4"/></linearGradient><linearGradient id="SVGID_2_" gradientUnits="userSpaceOnUse" x1="256" x2="256" y1="512" y2="61"><stop offset="0" stop-color="#00b59c"/><stop offset="1" stop-color="#9cffac"/></linearGradient><g id="Pharmacy_27_"><g><g><path d="m178.393 303.607c-11.309-11.352-26.368-17.607-42.393-17.607-33.076 0-60 26.909-60 60 0 15.996 6.24 31.055 17.607 42.407l60 59.985c11.309 11.353 26.368 18.608 42.393 18.608 33.076 0 60-27.909 60-61 0-16.011-6.27-31.084-17.607-42.407zm197.607-137.607c-16.025 0-31.084 6.255-42.393 17.593l-60 59.985c-11.337 11.338-17.607 26.411-17.607 42.422 0 33.091 26.924 60 60 60 16.025 0 31.084-6.255 42.393-17.593l60-60c11.367-11.352 17.607-26.411 17.607-42.407 0-33.091-26.924-60-60-60zm-30 180c-33.076 0-60 26.909-60 60s26.924 61 60 61 60-27.909 60-61-26.924-60-60-60zm-90-120c0-33.091-26.924-60-60-60s-60 26.909-60 60 26.924 60 60 60 60-26.909 60-60zm210-226h-420c-8.401 0-15 6.599-15 15v121l225 30 225-30v-121c0-8.401-6.599-15-15-15z" fill="url(#SVGID_1_)"/></g></g><g><g><path d="m31 467c0 24.898 20.099 45 45 45h360c24.901 0 45-20.102 45-45v-331h-450zm315-16c-24.901 0-45-20.102-45-45 0-24.9 20.099-45 45-45s45 20.1 45 45c0 24.898-20.099 45-45 45zm-61.8-196.8 60-60c8.399-8.401 19.799-13.2 31.8-13.2 24.901 0 45 20.1 45 45 0 11.999-4.799 23.399-13.2 31.8l-60 60c-8.399 8.399-19.799 13.2-31.8 13.2-24.901 0-45-20.102-45-45 0-12.001 4.799-23.401 13.2-31.8zm-88.2-73.2c24.901 0 45 20.1 45 45 0 24.898-20.099 45-45 45s-45-20.102-45-45c0-24.9 20.099-45 45-45zm-60 120c12.001 0 23.401 4.799 31.8 13.2l60 60c8.401 8.399 13.2 19.799 13.2 31.8 0 24.898-20.099 45-45 45-12.001 0-23.401-4.801-31.8-13.2l-60-60c-8.401-8.401-13.2-19.801-13.2-31.8 0-24.9 20.099-45 45-45zm361-240h-482c-8.291 0-15 6.709-15 15s6.709 15 15 15h482c8.291 0 15-6.709 15-15s-6.709-15-15-15z" fill="url(#SVGID_2_)"/></g></g></g></svg>