<svg id="Capa_1" enable-background="new 0 0 512 512" height="512" viewBox="0 0 512 512" width="512" xmlns="http://www.w3.org/2000/svg" xmlns:xlink="http://www.w3.org/1999/xlink"><linearGradient id="SVGID_1_" gradientUnits="userSpaceOnUse" x1="301" x2="301" y1="467" y2="45"><stop offset="0" stop-color="#fd3a84"/><stop offset="1" stop-color="#ffa68d"/></linearGradient><linearGradient id="SVGID_2_" gradientUnits="userSpaceOnUse" x1="225.5" x2="225.5" y1="512" y2="0"><stop offset="0" stop-color="#ffc8d1"/><stop offset="1" stop-color="#fff6f7"/></linearGradient><g><g><g><path d="m497 45h-392c-8.291 0-15 6.709-15 15v392c0 8.291 6.709 15 15 15h392c8.291 0 15-6.709 15-15v-392c0-8.291-6.709-15-15-15z" fill="url(#SVGID_1_)"/></g></g><g><g><path d="m227.846 254.198c-8.496-8.51-19.805-13.198-31.846-13.198-24.814 0-45 20.186-45 45 0 12.012 4.687 23.32 13.184 31.816l59.971 59.985c8.495 8.512 19.804 13.199 31.845 13.199 24.814 0 45-20.186 45-45 0-12.012-4.688-23.32-13.184-31.816zm-1.846-43.198c24.814 0 45-20.186 45-45s-20.186-45-45-45-45 20.186-45 45 20.186 45 45 45zm180-90c-12.041 0-23.35 4.688-31.846 13.198l-59.971 59.985c-8.496 8.497-13.183 19.805-13.183 31.817 0 24.814 20.186 45 45 45 12.041 0 23.35-4.688 31.816-13.184l60-60c8.497-8.496 13.184-19.804 13.184-31.816 0-24.814-20.186-45-45-45zm-30 180c-24.814 0-45 20.186-45 45s20.186 45 45 45 45-20.186 45-45-20.186-45-45-45zm-316-301c-33.076 0-60 26.909-60 60v392c0 33.091 26.924 60 60 60s60-26.909 60-60v-392c0-33.091-26.924-60-60-60z" fill="url(#SVGID_2_)"/></g></g></g></svg>