<svg id="Capa_1" enable-background="new 0 0 512.034 512.034" height="512" viewBox="0 0 512.034 512.034" width="512" xmlns="http://www.w3.org/2000/svg" xmlns:xlink="http://www.w3.org/1999/xlink"><linearGradient id="SVGID_1_" gradientUnits="userSpaceOnUse" x1="272.994" x2="272.994" y1="467.034" y2="0"><stop offset="0" stop-color="#ffbef9"/><stop offset="1" stop-color="#fff1ff"/></linearGradient><linearGradient id="SVGID_2_" gradientUnits="userSpaceOnUse" x1="256.017" x2="256.017" y1="512.034" y2="210.034"><stop offset="0" stop-color="#a93aff"/><stop offset="1" stop-color="#ff81ff"/></linearGradient><g><g><g><path d="m301.017 317.034c0-33.091-26.924-60-60-60-16.025 0-31.084 6.255-42.393 17.593l-60 59.985c-11.338 11.338-17.607 26.411-17.607 42.422 0 33.091 26.924 60 60 60 16.025 0 31.084-6.255 42.393-17.593l60-60c11.367-11.352 17.607-26.411 17.607-42.407zm30 30c-33.076 0-60 26.909-60 60s26.924 60 60 60 60-26.909 60-60-26.924-60-60-60zm-145.4-337.464c-19.57-15.322-47.871-11.865-63.193 7.646l-18.516 23.599c-5.098 6.519-3.984 15.952 2.549 21.064 6.504 5.112 15.938 4.028 21.064-2.549l18.516-23.599c2.461-3.149 6.035-5.156 10.02-5.64 3.809-.513 7.881.615 11.045 3.091l259.657 203.658 18.516-23.613z" fill="url(#SVGID_1_)"/></g></g><g><g><path d="m436.017 210.034h-360c-8.401 0-15 6.599-15 15v212c0 41.4 33.6 75 75 75h240c41.4 0 75-33.6 75-75v-212c0-8.401-6.599-15-15-15zm-223.2 198.8c-8.399 8.399-19.799 13.2-31.8 13.2-24.901 0-45-20.102-45-45 0-12.001 4.799-23.401 13.2-31.8l60-60c8.399-8.401 19.799-13.2 31.8-13.2 24.901 0 45 20.1 45 45 0 11.999-4.799 23.399-13.2 31.8zm118.2 43.2c-24.901 0-45-20.102-45-45 0-24.9 20.099-45 45-45s45 20.1 45 45c0 24.898-20.1 45-45 45z" fill="url(#SVGID_2_)"/></g></g></g></svg>