<svg id="Capa_1" enable-background="new 0 0 512 512" height="512" viewBox="0 0 512 512" width="512" xmlns="http://www.w3.org/2000/svg" xmlns:xlink="http://www.w3.org/1999/xlink"><linearGradient id="SVGID_1_" gradientUnits="userSpaceOnUse" x1="256" x2="256" y1="512" y2="91"><stop offset="0" stop-color="#5558ff"/><stop offset="1" stop-color="#00c0ff"/></linearGradient><linearGradient id="SVGID_2_" gradientUnits="userSpaceOnUse" x1="256" x2="256" y1="451" y2="0"><stop offset="0" stop-color="#addcff"/><stop offset=".5028" stop-color="#eaf6ff"/><stop offset="1" stop-color="#eaf6ff"/></linearGradient><g><g><g><path d="m416.605 215.395-55.605-55.606v-53.789c0-8.291-6.709-15-15-15h-180c-8.291 0-15 6.709-15 15v53.789l-55.605 55.605c-2.813 2.813-4.395 6.622-4.395 10.606v271c0 8.291 6.709 15 15 15h300c8.291 0 15-6.709 15-15v-271c0-3.984-1.582-7.793-4.395-10.605z" fill="url(#SVGID_1_)"/></g></g><g><g><path d="m256 241c-57.9 0-105 47.1-105 105 0 26.999 10.8 53.399 30 72.9v17.1c0 8.399 6.599 15 15 15h45v-45c0-8.401 6.599-15 15-15s15 6.599 15 15v45h45c8.401 0 15-6.601 15-15v-17.1c19.2-19.501 30-45.901 30-72.9 0-57.9-47.1-105-105-105zm-30 135c-8.401 0-15-6.601-15-15 0-8.401 6.599-15 15-15s15 6.599 15 15c0 8.399-6.599 15-15 15zm60 0c-8.401 0-15-6.601-15-15 0-8.401 6.599-15 15-15s15 6.599 15 15c0 8.399-6.599 15-15 15zm-45-210c0-8.284-6.716-15-15-15s-15 6.716-15 15 6.716 15 15 15 15-6.716 15-15zm60 30c0-8.284-6.716-15-15-15s-15 6.716-15 15 6.716 15 15 15 15-6.716 15-15zm75-196h-240c-8.291 0-15 6.709-15 15v91c0 8.291 6.709 15 15 15h240c8.291 0 15-6.709 15-15v-91c0-8.291-6.709-15-15-15z" fill="url(#SVGID_2_)"/></g></g></g></svg>