<svg id="Capa_1" enable-background="new 0 0 512 512" height="512" viewBox="0 0 512 512" width="512" xmlns="http://www.w3.org/2000/svg" xmlns:xlink="http://www.w3.org/1999/xlink"><linearGradient id="SVGID_1_" gradientUnits="userSpaceOnUse" x1="256" x2="256" y1="512" y2="0"><stop offset="0" stop-color="#fd5900"/><stop offset="1" stop-color="#ffde00"/></linearGradient><linearGradient id="SVGID_2_" gradientUnits="userSpaceOnUse" x1="278.5" x2="278.5" y1="421" y2="271"><stop offset="0" stop-color="#ffe59a"/><stop offset="1" stop-color="#ffffd5"/></linearGradient><g><g><g><path d="m406 90c-12.426 0-22.5 10.073-22.5 22.5v113.5c0 8.291-6.709 15-15 15s-15-6.709-15-15v-173.5c0-12.427-10.074-22.5-22.5-22.5s-22.5 10.073-22.5 22.5v173.5c0 8.291-6.709 15-15 15s-15-6.709-15-15v-203.5c0-12.427-10.074-22.5-22.5-22.5s-22.5 10.073-22.5 22.5v203.5c0 8.291-6.709 15-15 15s-15-6.709-15-15v-173.5c0-12.427-10.074-22.5-22.5-22.5s-22.5 10.073-22.5 22.5v263.5c0 8.291-6.709 15-15 15s-15-6.709-15-15v-112.5c0-12.427-10.074-22.5-22.5-22.5s-22.5 10.073-22.5 22.5v112.5c0 40.503 20.405 70.195 40.137 98.921 39.69 57.777 34.863 59.469 34.863 97.079h225c0-37.768-2.844-37.603 20.435-94.135 12.085-29.282 24.565-59.56 24.565-101.865v-203.5c0-12.427-10.074-22.5-22.5-22.5z" fill="url(#SVGID_1_)"/></g></g><g><g><path d="m308.5 271c-12.041 0-23.35 4.688-31.846 13.198l-59.971 59.985c-8.495 8.497-13.183 19.805-13.183 31.817 0 24.814 20.186 45 45 45 12.041 0 23.35-4.688 31.816-13.184l60-60c8.497-8.496 13.184-19.804 13.184-31.816 0-24.814-20.186-45-45-45z" fill="url(#SVGID_2_)"/></g></g></g></svg>