<svg id="Capa_1" enable-background="new 0 0 512 512" height="512" viewBox="0 0 512 512" width="512" xmlns="http://www.w3.org/2000/svg" xmlns:xlink="http://www.w3.org/1999/xlink"><linearGradient id="SVGID_1_" gradientUnits="userSpaceOnUse" x1="225" x2="225" y1="512" y2="92"><stop offset="0" stop-color="#5558ff"/><stop offset="1" stop-color="#00c0ff"/></linearGradient><linearGradient id="SVGID_2_" gradientUnits="userSpaceOnUse" x1="269.2" x2="269.2" y1="452" y2="0"><stop offset="0" stop-color="#addcff"/><stop offset=".5028" stop-color="#eaf6ff"/><stop offset="1" stop-color="#eaf6ff"/></linearGradient><g><g><g><path d="m423.6 212-74.875-11.311 55.975-18.689c-40.8-54.9-106.2-90-179.7-90s-138.9 35.1-179.7 90l55.975 18.689-74.875 11.311c-16.8 31.199-26.4 67.2-26.4 105 0 79.499 40.8 151.8 108.9 192.9 2.401 1.5 5.099 2.1 7.8 2.1h216.6c2.701 0 5.4-.601 7.8-2.1 68.101-41.1 108.9-113.401 108.9-192.9 0-37.8-9.6-73.801-26.4-105z" fill="url(#SVGID_1_)"/></g></g><g><g><path d="m225 242c-57.9 0-105 47.1-105 105s47.1 105 105 105 105-47.1 105-105-47.1-105-105-105zm30 120h-15v15c0 8.399-6.599 15-15 15s-15-6.601-15-15v-15h-15c-8.401 0-15-6.601-15-15 0-8.401 6.599-15 15-15h15v-15c0-8.401 6.599-15 15-15s15 6.599 15 15v15h15c8.401 0 15 6.599 15 15 0 8.399-6.599 15-15 15zm197-270c-16.5 0-32-13.5-32-30s13.5-32 30-32h47c8.401 0 15-6.601 15-15 0-8.401-6.599-15-15-15h-47c-32.999 0-60 28.999-60 62 0 32.999 29.001 60 62 60 16.5 0 30 13.5 30 30s-13.5 30-30 30h-406.7c-3.6 4.799-6.899 9.898-10.201 15-2.999 4.799-6 9.898-8.699 15h425.6c32.999 0 60-27.001 60-60 0-33.001-27.001-60-60-60z" fill="url(#SVGID_2_)"/></g></g></g></svg>