<svg id="Capa_1" enable-background="new 0 0 512 512" height="512" viewBox="0 0 512 512" width="512" xmlns="http://www.w3.org/2000/svg" xmlns:xlink="http://www.w3.org/1999/xlink"><linearGradient id="SVGID_1_" gradientUnits="userSpaceOnUse" x1="256" x2="256" y1="512" y2="0"><stop offset="0" stop-color="#fd5900"/><stop offset="1" stop-color="#ffde00"/></linearGradient><linearGradient id="SVGID_2_" gradientUnits="userSpaceOnUse" x1="218.5" x2="218.5" y1="316" y2="196"><stop offset="0" stop-color="#ffe59a"/><stop offset="1" stop-color="#ffffd5"/></linearGradient><g><g><g><path d="m120 99.699v-54.699c0-24.9-20.099-45-45-45s-45 20.1-45 45v54.699c0 9.9-3.9 18.9-10.499 25.8-12.602 12.301-19.501 29.101-19.501 46.8v23.701l15 60-15 60v23.699c0 17.701 6.899 34.501 19.501 46.8 6.599 6.899 10.499 15.901 10.499 25.8v54.701c0 24.898 20.099 45 45 45s45-20.102 45-45v-54.701c0-9.898 3.9-18.9 10.499-25.8 12.602-12.299 19.501-29.099 19.501-46.8v-167.4c0-17.699-6.899-34.499-19.501-46.8-6.599-6.899-10.499-15.899-10.499-25.8zm181 0v-54.699c0-24.9-20.099-45-45-45s-45 20.1-45 45v54.699c0 9.9-3.9 18.9-10.499 25.8-12.602 12.301-19.501 29.101-19.501 46.8v23.701l15 60-15 60v23.699c0 17.701 6.899 34.501 19.501 46.8 6.599 6.899 10.499 15.901 10.499 25.8v54.701c0 24.898 20.099 45 45 45s45-20.102 45-45v-54.701c0-9.898 3.9-18.9 10.499-25.8 12.602-12.299 19.501-29.099 19.501-46.8v-167.4c0-17.699-6.899-34.499-19.501-46.8-6.599-6.899-10.499-15.899-10.499-25.8zm191.499 25.8c-6.599-6.899-10.499-15.899-10.499-25.8v-54.699c0-24.9-20.099-45-45-45s-45 20.1-45 45v54.699c0 9.9-3.9 18.9-10.499 25.8-12.602 12.301-19.501 29.101-19.501 46.8v23.701l15 60-15 60v23.699c0 17.701 6.899 34.501 19.501 46.8 6.599 6.899 10.499 15.901 10.499 25.8v54.701c0 24.898 20.099 45 45 45s45-20.102 45-45v-54.701c0-9.898 3.9-18.9 10.499-25.8 12.602-12.299 19.501-29.099 19.501-46.8v-167.4c0-17.699-6.899-34.499-19.501-46.8z" fill="url(#SVGID_1_)"/></g></g><g><g><path d="m60 196h-60v120h60c8.284 0 15-6.716 15-15v-90c0-8.284-6.716-15-15-15zm181 0h-60v120h60c8.284 0 15-6.716 15-15v-90c0-8.284-6.716-15-15-15zm181 0h-60v120h60c8.284 0 15-6.716 15-15v-90c0-8.284-6.716-15-15-15z" fill="url(#SVGID_2_)"/></g></g></g></svg>