<svg id="Capa_1" enable-background="new 0 0 512 512" height="512" viewBox="0 0 512 512" width="512" xmlns="http://www.w3.org/2000/svg" xmlns:xlink="http://www.w3.org/1999/xlink"><linearGradient id="SVGID_1_" gradientUnits="userSpaceOnUse" x1="256" x2="256" y1="512" y2="331.172"><stop offset="0" stop-color="#addcff"/><stop offset=".5028" stop-color="#eaf6ff"/><stop offset="1" stop-color="#eaf6ff"/></linearGradient><linearGradient id="SVGID_2_" gradientUnits="userSpaceOnUse" x1="271.5" x2="271.5" y1="512" y2="0"><stop offset="0" stop-color="#5558ff"/><stop offset="1" stop-color="#00c0ff"/></linearGradient><g><g><g><path d="m377 330h-46v-22.8c37.2-24.9 60-67.2 60-112.2v-60c0-21.601-5.1-41.7-14.099-59.7l-255.901 74.7v45c0 45 22.8 87.299 60 112.2v22.8h-46c-74.399 0-135 60.599-135 135v32c0 8.399 6.599 15 15 15h166l30-92-18.913-56.738c16.983 17.069 39.787 26.738 63.913 26.738 24.011 0 47.147-9.792 63.863-26.589l-18.863 56.589 30 92h166c8.401 0 15-6.601 15-15v-32c0-74.401-60.601-135-135-135z" fill="url(#SVGID_1_)"/></g></g><g><g><path d="m256 0c-74.399 0-135 60.599-135 135v15h135c37.8 0 74.099-15.901 99.6-43.801 8.399-9.6 15.601-19.799 21.301-30.899-21.901-44.701-68.101-75.3-120.901-75.3zm0 375c-41.422 0-75-20.147-75-45v182h150v-182c0 24.853-33.578 45-75 45zm151 45h-30c-8.291 0-15 6.709-15 15s6.709 15 15 15h30c8.291 0 15-6.709 15-15s-6.709-15-15-15z" fill="url(#SVGID_2_)"/></g></g></g></svg>