<svg id="Capa_1" enable-background="new 0 0 512 512" height="512" viewBox="0 0 512 512" width="512" xmlns="http://www.w3.org/2000/svg" xmlns:xlink="http://www.w3.org/1999/xlink"><linearGradient id="SVGID_1_" gradientUnits="userSpaceOnUse" x1="256" x2="256" y1="301.177" y2="150.588"><stop offset="0" stop-color="#fd3a84"/><stop offset="1" stop-color="#ffa68d"/></linearGradient><linearGradient id="SVGID_2_" gradientUnits="userSpaceOnUse" x1="256" x2="256" y1="512" y2="120"><stop offset="0" stop-color="#ffc8d1"/><stop offset="1" stop-color="#fff6f7"/></linearGradient><g><g><g><path d="m256 0c-74.002 0-135 75.143-135 150l135 60 135-60c0-45-34.799-150-135-150zm151 405h-30c-6.862 0-13.118 2.197-18.121 5.938l-27.879-80.938-5.7 17.398c.35 0-18.479 27.602-69.3 27.602-50.597 0-69.818-27.602-69.3-27.602l-5.7-17.398-31 90 31 92h150l20.535-60.941c5.256 8.432 14.599 13.941 25.465 13.941h30c16.816 0 30-13.184 30-30s-13.184-30-30-30zm-361-195c-8.291 0-15 6.709-15 15 0 41.353 33.633 75 75 75h71.104c6.27 0 11.895-3.911 14.063-9.8 2.197-5.874.469-12.495-4.307-16.582-22.794-19.555-35.86-48.208-35.86-78.618l-30-45c0 41.353-33.633 60-75 60zm420 0c-41.367 0-75-18.647-75-60l-30 45c0 30.41-13.066 59.063-35.859 78.618-4.775 4.087-6.504 10.708-4.307 16.582 2.168 5.889 7.793 9.8 14.063 9.8h71.103c41.367 0 75-33.647 75-75 0-8.291-6.709-15-15-15z" fill="url(#SVGID_1_)"/></g></g><g><g><path d="m377 330h-46v-22.8c37.2-24.9 60-67.2 60-112.2v-45h-75c-24.6 0-46.199-11.7-60-30-13.801 18.3-35.4 30-60 30h-75v45c0 45 22.8 87.299 60 112.2v22.8h-46c-74.399 0-135 60.599-135 135v32c0 8.399 6.599 15 15 15h166v-167c0 3.3 1.199 6.599 2.999 9 17.401 22.8 43.801 36 72.001 36s55.201-13.5 72.001-36c1.8-2.701 2.999-5.7 2.999-9v167h166c8.401 0 15-6.601 15-15v-32c0-74.401-60.601-135-135-135zm30 120h-30c-8.401 0-15-6.601-15-15 0-8.401 6.599-15 15-15h30c8.401 0 15 6.599 15 15 0 8.399-6.599 15-15 15z" fill="url(#SVGID_2_)"/></g></g></g></svg>