<?xml version="1.0" encoding="iso-8859-1"?>
<!-- Generator: Adobe Illustrator 19.0.0, SVG Export Plug-In . SVG Version: 6.00 Build 0)  -->
<svg version="1.1" id="Capa_1" xmlns="http://www.w3.org/2000/svg" xmlns:xlink="http://www.w3.org/1999/xlink" x="0px" y="0px"
	 viewBox="0 0 496 496" style="enable-background:new 0 0 496 496;" xml:space="preserve">
<g>
	<g>
		<path d="M376,172h-37.448c-3.373-12.347-8.3-24.215-14.664-35.32l26.512-26.512c3.123-3.124,3.123-8.188,0-11.312L305.144,53.6
			c-3.124-3.123-8.188-3.123-11.312,0L267.32,80.104c-11.105-6.361-22.974-11.286-35.32-14.656V28c0-4.418-3.582-8-8-8h-64
			c-4.418,0-8,3.582-8,8v37.448c-12.347,3.373-24.215,8.3-35.32,14.664L90.168,53.6c-3.124-3.123-8.188-3.123-11.312,0L33.6,98.856
			c-3.123,3.124-3.123,8.188,0,11.312l26.504,26.512c-6.361,11.105-11.286,22.974-14.656,35.32H8c-4.418,0-8,3.582-8,8v64
			c0,4.418,3.582,8,8,8h37.448c3.371,12.345,8.299,24.211,14.664,35.312L33.6,313.824c-3.123,3.124-3.123,8.188,0,11.312
			L78.856,370.4c3.124,3.123,8.188,3.123,11.312,0l26.512-26.504c11.105,6.361,22.974,11.286,35.32,14.656V396c0,4.418,3.582,8,8,8
			h64c4.418,0,8-3.582,8-8v-37.448c12.347-3.373,24.215-8.3,35.32-14.664l26.512,26.512c3.124,3.123,8.188,3.123,11.312,0
			l45.256-45.264c3.123-3.124,3.123-8.188,0-11.312l-26.504-26.512c6.362-11.102,11.287-22.968,14.656-35.312H376
			c4.418,0,8-3.582,8-8v-64C384,175.582,380.418,172,376,172z M368,236h-35.696c-3.737-0.004-6.978,2.58-7.808,6.224
			c-3.382,14.913-9.286,29.138-17.456,42.064c-1.989,3.163-1.524,7.28,1.12,9.92l25.264,25.272l-33.928,33.944l-25.28-25.264
			c-2.64-2.644-6.757-3.109-9.92-1.12c-12.926,8.17-27.151,14.074-42.064,17.456c-3.644,0.83-6.228,4.071-6.224,7.808V388H168
			v-35.696c0.004-3.737-2.58-6.978-6.224-7.808c-14.913-3.382-29.138-9.286-42.064-17.456c-3.163-1.989-7.28-1.524-9.92,1.12
			l-25.28,25.264L50.576,319.48l25.264-25.272c2.644-2.64,3.109-6.757,1.12-9.92c-8.17-12.927-14.076-27.152-17.464-42.064
			c-0.829-3.641-4.066-6.224-7.8-6.224H16v-48h35.696c3.734,0,6.971-2.583,7.8-6.224c3.388-14.912,9.294-29.137,17.464-42.064
			c1.989-3.163,1.524-7.28-1.12-9.92l-25.264-25.28l33.936-33.936l25.28,25.264c2.64,2.644,6.757,3.109,9.92,1.12
			c12.926-8.17,27.151-14.074,42.064-17.456c3.644-0.83,6.228-4.071,6.224-7.808V36h48v35.696c-0.004,3.737,2.58,6.978,6.224,7.808
			c14.913,3.382,29.138,9.286,42.064,17.456c3.163,1.989,7.28,1.524,9.92-1.12l25.28-25.264l33.936,33.936l-25.264,25.28
			c-2.644,2.64-3.109,6.757-1.12,9.92c8.17,12.926,14.074,27.151,17.456,42.064c0.83,3.644,4.071,6.228,7.808,6.224H368V236z"/>
	</g>
</g>
<g>
	<g>
		<path d="M192,156c-30.928,0-56,25.072-56,56c0,30.928,25.072,56,56,56c30.928,0,56-25.072,56-56
			C247.96,181.089,222.911,156.04,192,156z M192,252c-22.091,0-40-17.909-40-40s17.909-40,40-40s40,17.909,40,40
			C231.974,234.08,214.08,251.974,192,252z"/>
	</g>
</g>
<g>
	<g>
		<path d="M488,372h-12.672l-0.408-0.984l8.96-8.96c3.123-3.124,3.123-8.188,0-11.312l-22.624-22.624
			c-3.124-3.123-8.188-3.123-11.312,0l-8.96,8.96L440,336.672V324c0-4.418-3.582-8-8-8h-32c-4.418,0-8,3.582-8,8v12.672
			l-0.984,0.408l-8.96-8.96c-3.124-3.123-8.188-3.123-11.312,0l-22.624,22.624c-3.123,3.124-3.123,8.188,0,11.312l8.96,8.96
			L356.672,372H344c-4.418,0-8,3.582-8,8v32c0,4.418,3.582,8,8,8h12.672l0.408,0.984l-8.96,8.952c-3.123,3.124-3.123,8.188,0,11.312
			l22.624,22.632c3.124,3.123,8.188,3.123,11.312,0l8.96-8.96l0.984,0.408V468c0,4.418,3.582,8,8,8h32c4.418,0,8-3.582,8-8v-12.672
			l0.984-0.408l8.96,8.96c3.174,3.001,8.138,3.001,11.312,0l22.624-22.632c3.123-3.124,3.123-8.188,0-11.312l-8.96-8.952
			l0.408-0.984H488c4.418,0,8-3.582,8-8v-32C496,375.582,492.418,372,488,372z M480,404h-10.352
			c-3.536,0.001-6.653,2.323-7.664,5.712c-0.933,3.159-2.19,6.212-3.752,9.112c-1.689,3.114-1.129,6.968,1.376,9.472l7.304,7.296
			l-11.312,11.32l-7.304-7.304c-2.504-2.505-6.358-3.065-9.472-1.376c-2.9,1.562-5.953,2.819-9.112,3.752
			c-3.389,1.011-5.711,4.128-5.712,7.664V460h-16v-10.352c-0.001-3.536-2.323-6.653-5.712-7.664
			c-3.159-0.933-6.212-2.19-9.112-3.752c-3.114-1.689-6.968-1.129-9.472,1.376l-7.304,7.304l-11.312-11.32l7.304-7.296
			c2.505-2.504,3.065-6.358,1.376-9.472c-1.562-2.9-2.819-5.953-3.752-9.112c-1.011-3.389-4.128-5.711-7.664-5.712H352v-16h10.352
			c3.536-0.001,6.653-2.323,7.664-5.712c0.933-3.159,2.19-6.212,3.752-9.112c1.689-3.114,1.129-6.968-1.376-9.472l-7.304-7.304
			l11.312-11.312l7.304,7.304c2.504,2.505,6.358,3.065,9.472,1.376c2.9-1.562,5.953-2.819,9.112-3.752
			c3.389-1.011,5.711-4.128,5.712-7.664V332h16v10.352c0.001,3.536,2.323,6.653,5.712,7.664c3.159,0.933,6.212,2.19,9.112,3.752
			c3.114,1.689,6.968,1.129,9.472-1.376l7.304-7.304l11.312,11.312l-7.304,7.304c-2.505,2.505-3.065,6.358-1.376,9.472
			c1.562,2.9,2.819,5.953,3.752,9.112c1.011,3.389,4.128,5.711,7.664,5.712H480V404z"/>
	</g>
</g>
<g>
	<g>
		<path d="M416,372c-13.255,0-24,10.745-24,24s10.745,24,24,24s24-10.745,24-24S429.255,372,416,372z M416,404c-4.418,0-8-3.582-8-8
			s3.582-8,8-8s8,3.582,8,8S420.418,404,416,404z"/>
	</g>
</g>
<g>
</g>
<g>
</g>
<g>
</g>
<g>
</g>
<g>
</g>
<g>
</g>
<g>
</g>
<g>
</g>
<g>
</g>
<g>
</g>
<g>
</g>
<g>
</g>
<g>
</g>
<g>
</g>
<g>
</g>
</svg>
