<svg height="480pt" viewBox="0 0 480 480" width="480pt" xmlns="http://www.w3.org/2000/svg"><path d="m240 0c-132.546875 0-240 107.453125-240 240s107.453125 240 240 240 240-107.453125 240-240c-.148438-132.484375-107.515625-239.851562-240-240zm0 464c-123.710938 0-224-100.289062-224-224s100.289062-224 224-224 224 100.289062 224 224c-.140625 123.652344-100.347656 223.859375-224 224zm0 0"/><path d="m369.601562 203.199219-11.609374 15.480469c-10.613282-58.011719-61.878907-99.667969-120.835938-98.175782-58.960938 1.488282-108.058594 45.675782-115.726562 104.152344-7.671876 58.476562 28.371093 113.832031 84.949218 130.476562 56.578125 16.644532 116.851563-10.378906 142.070313-63.691406 1.894531-3.992187.199219-8.769531-3.792969-10.664062-3.992188-1.898438-8.765625-.203125-10.664062 3.789062-21.917969 46.554688-74.539063 70.132813-123.875 55.507813-49.332032-14.625-80.597657-63.078125-73.601563-114.054688 7-50.976562 50.164063-89.210937 101.613281-90.003906 51.449219-.792969 95.769532 36.09375 104.335938 86.832031l-17.664063-13.246094c-3.535156-2.652343-8.550781-1.9375-11.199219 1.597657-2.652343 3.535156-1.9375 8.550781 1.597657 11.199219l32 24c.34375.214843.703125.402343 1.074219.5625.289062.171874.59375.332031.902343.472656.898438.355468 1.855469.550781 2.824219.566406 1.152344-.019531 2.285156-.292969 3.320312-.800781.277344-.152344.542969-.324219.800782-.511719.730468-.425781 1.386718-.964844 1.941406-1.597656.105469-.121094.265625-.167969.371094-.304688l24-32c2.648437-3.535156 1.933594-8.550781-1.601563-11.199218-3.535156-2.652344-8.550781-1.9375-11.199219 1.597656zm0 0"/></svg>