<?xml version="1.0" encoding="iso-8859-1"?>
<!-- Generator: Adobe Illustrator 19.0.0, SVG Export Plug-In . SVG Version: 6.00 Build 0)  -->
<svg version="1.1" id="Capa_1" xmlns="http://www.w3.org/2000/svg" xmlns:xlink="http://www.w3.org/1999/xlink" x="0px" y="0px"
	 viewBox="0 0 496.001 496.001" style="enable-background:new 0 0 496.001 496.001;" xml:space="preserve">
<g>
	<g>
		<g>
			<path d="M404.96,32H304V8c0-4.418-3.582-8-8-8h-96c-4.418,0-8,3.582-8,8v24H91.04C67.281,32.026,48.027,51.281,48,75.04V104
				c0,4.418,3.582,8,8,8h8.664L96,472c0,13.255,10.745,24,24,24h256c13.023,0.086,23.708-10.292,24-23.312L431.336,112H440
				c4.418,0,8-3.582,8-8V75.04C447.974,51.281,428.72,32.026,404.96,32z M208,16h80v16h-80V16z M384,472c0,4.418-3.582,8-8,8H120
				c-4.545-0.121-8.131-3.904-8.01-8.448c0.002-0.08,0.005-0.16,0.01-0.24L80.728,112h334.544L384,472z M432,96H64V75.04
				C64.018,60.114,76.114,48.018,91.04,48h313.92c14.927,0.018,27.022,12.114,27.04,27.04L432,96z"/>
			<path d="M248,448c4.418,0,8-3.582,8-8V128c0-4.418-3.582-8-8-8s-8,3.582-8,8v312C240,444.418,243.582,448,248,448z"/>
			<path d="M160,344c4.418,0,8-3.582,8-8V152c0-4.418-3.582-8-8-8s-8,3.582-8,8v184C152,340.418,155.582,344,160,344z"/>
			<path d="M336,344c4.418,0,8-3.582,8-8V152c0-4.418-3.582-8-8-8s-8,3.582-8,8v184C328,340.418,331.582,344,336,344z"/>
		</g>
	</g>
</g>
<g>
</g>
<g>
</g>
<g>
</g>
<g>
</g>
<g>
</g>
<g>
</g>
<g>
</g>
<g>
</g>
<g>
</g>
<g>
</g>
<g>
</g>
<g>
</g>
<g>
</g>
<g>
</g>
<g>
</g>
</svg>
