<?xml version="1.0" encoding="iso-8859-1"?>
<!-- Generator: Adobe Illustrator 19.0.0, SVG Export Plug-In . SVG Version: 6.00 Build 0)  -->
<svg version="1.1" id="Capa_1" xmlns="http://www.w3.org/2000/svg" xmlns:xlink="http://www.w3.org/1999/xlink" x="0px" y="0px"
	 viewBox="0 0 384 384" style="enable-background:new 0 0 384 384;" xml:space="preserve">
<g>
	<g>
		<path d="M261.36,140.952h-18.32v-18.328c0-28.144-22.896-51.032-51.04-51.032c-28.144,0-51.04,22.896-51.04,51.032v18.328h-18.32
			c-28.152,0-51.048,22.896-51.048,51.048c0,28.152,22.896,51.048,51.048,51.048h18.32v18.328c0,28.144,22.896,51.032,51.04,51.032
			c28.144,0,51.04-22.896,51.04-51.032v-18.328h18.32c28.152,0,51.048-22.896,51.048-51.048
			C312.408,163.848,289.504,140.952,261.36,140.952z M261.36,211.048h-34.32c-8.832,0-16,7.168-16,16v34.328
			c0,10.496-8.544,19.032-19.04,19.032c-10.496,0-19.04-8.536-19.04-19.032v-34.328c0-8.832-7.168-16-16-16h-34.32
			c-10.504,0-19.048-8.544-19.048-19.048c0-10.504,8.544-19.048,19.048-19.048h34.32c8.832,0,16-7.168,16-16v-34.328
			c0-10.496,8.544-19.032,19.04-19.032c10.496,0,19.04,8.536,19.04,19.032v34.328c0,8.832,7.168,16,16,16h34.32
			c10.504,0,19.048,8.544,19.048,19.048C280.408,202.504,271.864,211.048,261.36,211.048z"/>
	</g>
</g>
<g>
	<g>
		<path d="M192,0C86.128,0,0,86.128,0,192s86.128,192,192,192s192-86.128,192-192S297.872,0,192,0z M192,352
			c-88.224,0-160-71.776-160-160S103.776,32,192,32s160,71.776,160,160S280.224,352,192,352z"/>
	</g>
</g>
<g>
</g>
<g>
</g>
<g>
</g>
<g>
</g>
<g>
</g>
<g>
</g>
<g>
</g>
<g>
</g>
<g>
</g>
<g>
</g>
<g>
</g>
<g>
</g>
<g>
</g>
<g>
</g>
<g>
</g>
</svg>
