<?xml version="1.0" encoding="iso-8859-1"?>
<!-- Generator: Adobe Illustrator 19.0.0, SVG Export Plug-In . SVG Version: 6.00 Build 0)  -->
<svg version="1.1" id="Capa_1" xmlns="http://www.w3.org/2000/svg" xmlns:xlink="http://www.w3.org/1999/xlink" x="0px" y="0px"
	 viewBox="0 0 496 496" style="enable-background:new 0 0 496 496;" xml:space="preserve">
<g>
	<g>
		<path d="M248,0C111.033,0,0,111.033,0,248s111.033,248,248,248s248-111.033,248-248C495.841,111.099,384.901,0.159,248,0z
			 M248,480C119.87,480,16,376.13,16,248S119.87,16,248,16s232,103.87,232,232C479.859,376.072,376.072,479.859,248,480z"/>
	</g>
</g>
<g>
	<g>
		<path d="M288,392h-32V176c0-4.418-3.582-8-8-8h-24c-4.418,0-8,3.582-8,8s3.582,8,8,8h16v208h-32c-4.418,0-8,3.582-8,8s3.582,8,8,8
			h80c4.418,0,8-3.582,8-8S292.418,392,288,392z"/>
	</g>
</g>
<g>
	<g>
		<path d="M248,88c-17.673,0-32,14.327-32,32s14.327,32,32,32c17.673,0,32-14.327,32-32S265.673,88,248,88z M248,136
			c-8.837,0-16-7.163-16-16s7.163-16,16-16s16,7.163,16,16S256.837,136,248,136z"/>
	</g>
</g>
<g>
</g>
<g>
</g>
<g>
</g>
<g>
</g>
<g>
</g>
<g>
</g>
<g>
</g>
<g>
</g>
<g>
</g>
<g>
</g>
<g>
</g>
<g>
</g>
<g>
</g>
<g>
</g>
<g>
</g>
</svg>
