<?xml version="1.0" encoding="iso-8859-1"?>
<!-- Generator: Adobe Illustrator 19.0.0, SVG Export Plug-In . SVG Version: 6.00 Build 0)  -->
<svg version="1.1" id="Capa_1" xmlns="http://www.w3.org/2000/svg" xmlns:xlink="http://www.w3.org/1999/xlink" x="0px" y="0px"
	 viewBox="0 0 384 384" style="enable-background:new 0 0 384 384;" xml:space="preserve">
<g>
	<g>
		<path d="M368,187.608h-52.84L276.32,74.792C274.096,68.336,268.016,64,261.184,64c-6.832,0-12.904,4.336-15.128,10.792
			l-61.992,180.056L130.096,98c-2.224-6.456-8.296-10.792-15.128-10.792c-6.832,0-12.904,4.336-15.128,10.792l-30.856,89.608H16
			c-8.832,0-16,7.168-16,16c0,8.832,7.168,16,16,16h64.392c6.832,0,12.904-4.336,15.128-10.792l19.44-56.448L168.944,309.2
			c2.224,6.464,8.304,10.8,15.128,10.8c6.824,0,12.904-4.336,15.128-10.792l61.984-180.056l27.432,79.664
			c2.216,6.456,8.296,10.792,15.128,10.792H368c8.832,0,16-7.168,16-16C384,194.776,376.832,187.608,368,187.608z"/>
	</g>
</g>
<g>
</g>
<g>
</g>
<g>
</g>
<g>
</g>
<g>
</g>
<g>
</g>
<g>
</g>
<g>
</g>
<g>
</g>
<g>
</g>
<g>
</g>
<g>
</g>
<g>
</g>
<g>
</g>
<g>
</g>
</svg>
