<?xml version="1.0" encoding="iso-8859-1"?>
<!-- Generator: Adobe Illustrator 19.0.0, SVG Export Plug-In . SVG Version: 6.00 Build 0)  -->
<svg version="1.1" id="Capa_1" xmlns="http://www.w3.org/2000/svg" xmlns:xlink="http://www.w3.org/1999/xlink" x="0px" y="0px"
	 viewBox="0 0 496 496" style="enable-background:new 0 0 496 496;" xml:space="preserve">
<g>
	<g>
		<path d="M296,24c-4.418,0-8,3.582-8,8v72h-16V40c0-22.091-17.909-40-40-40c-22.091,0-40,17.909-40,40v369.016
			c0.002,0.789,0.118,1.573,0.344,2.328l24,78.984c1.025,3.37,4.134,5.673,7.656,5.672h16c3.522,0.001,6.631-2.302,7.656-5.672
			l24-78.984c0.226-0.755,0.342-1.539,0.344-2.328V120h16v80c0,4.418,3.582,8,8,8s8-3.582,8-8V32C304,27.582,300.418,24,296,24z
			 M234.072,480h-4.144l-19.448-64h43.04L234.072,480z M256,400h-48V208h48V400z M256,192h-48V40c0-13.255,10.745-24,24-24
			s24,10.745,24,24V192z"/>
	</g>
</g>
<g>
</g>
<g>
</g>
<g>
</g>
<g>
</g>
<g>
</g>
<g>
</g>
<g>
</g>
<g>
</g>
<g>
</g>
<g>
</g>
<g>
</g>
<g>
</g>
<g>
</g>
<g>
</g>
<g>
</g>
</svg>
