<?xml version="1.0" encoding="utf-8"?>
<!-- Generator: Adobe Illustrator 19.2.1, SVG Export Plug-In . SVG Version: 6.00 Build 0)  -->
<svg xmlns="http://www.w3.org/2000/svg" xmlns:xlink="http://www.w3.org/1999/xlink" version="1.1" id="Layer" x="0px" y="0px" width="512" height="512" viewBox="0 0 64 64" enable-background="new 0 0 64 64" xml:space="preserve">
<path d="M50.606,29.394c-0.011-0.011-0.025-0.014-0.036-0.024C47.857,26.671,44.12,25,40,25c-3.379,0-6.49,1.136-9,3.028V20  c0-6.065-4.935-11-11-11S9,13.935,9,20v24c0,6.065,4.935,11,11,11c3.672,0,7.025-1.8,9.058-4.773  c0.105,0.113,0.202,0.233,0.311,0.342c0.01,0.011,0.014,0.026,0.025,0.037c0.011,0.011,0.026,0.014,0.037,0.024  C32.144,53.329,35.88,55,40,55c8.271,0,15-6.729,15-15c0-4.12-1.671-7.857-4.37-10.57C50.62,29.419,50.617,29.404,50.606,29.394z   M48.447,30.139L30.139,48.447c-0.232-0.27-0.449-0.552-0.659-0.841c-0.114-0.157-0.23-0.313-0.336-0.474  c-0.154-0.234-0.298-0.474-0.437-0.718c-0.049-0.085-0.103-0.167-0.15-0.253c-0.19-0.351-0.364-0.711-0.521-1.081  c-0.019-0.045-0.034-0.092-0.053-0.137c-0.133-0.322-0.254-0.651-0.362-0.986c-0.029-0.092-0.055-0.185-0.082-0.278  c-0.086-0.292-0.163-0.588-0.229-0.889c-0.024-0.112-0.048-0.224-0.07-0.337c-0.056-0.294-0.1-0.592-0.137-0.893  c-0.013-0.111-0.03-0.221-0.041-0.333C27.024,40.824,27,40.415,27,40c0-0.439,0.023-0.872,0.066-1.299  c0.014-0.145,0.044-0.287,0.063-0.431c0.038-0.281,0.073-0.563,0.128-0.838c0.033-0.164,0.081-0.323,0.12-0.485  c0.061-0.251,0.118-0.503,0.193-0.747c0.05-0.164,0.114-0.323,0.171-0.484c0.083-0.236,0.162-0.474,0.258-0.703  c0.068-0.163,0.149-0.32,0.224-0.48c0.102-0.219,0.201-0.44,0.314-0.652c0.09-0.168,0.194-0.33,0.292-0.494  c0.115-0.193,0.226-0.389,0.35-0.576c0.117-0.175,0.247-0.341,0.372-0.511c0.123-0.167,0.241-0.337,0.372-0.497  c0.135-0.165,0.283-0.321,0.426-0.48C32.731,28.676,36.169,27,40,27C43.225,27,46.173,28.187,48.447,30.139z M29,20v9.811  c-0.106,0.115-0.198,0.239-0.3,0.356c-0.145,0.166-0.288,0.332-0.425,0.505c-0.087,0.11-0.177,0.217-0.261,0.329H17V14  c0-1.654,1.346-3,3-3C24.962,11,29,15.037,29,20z M15.307,12.335C15.12,12.859,15,13.414,15,14v17h-4V20  C11,16.758,12.729,13.92,15.307,12.335z M11,44V33h4v17c0,0.586,0.12,1.141,0.307,1.665C12.729,50.08,11,47.242,11,44z   M27.726,48.609C26.108,51.333,23.201,53,20,53c-1.654,0-3-1.346-3-3V33h9.744c-0.006,0.011-0.011,0.023-0.017,0.035  c-0.132,0.251-0.251,0.506-0.368,0.764c-0.08,0.175-0.162,0.347-0.235,0.525c-0.111,0.269-0.206,0.544-0.3,0.819  c-0.061,0.178-0.127,0.353-0.181,0.533c-0.086,0.287-0.155,0.578-0.224,0.87c-0.042,0.178-0.091,0.353-0.127,0.533  c-0.063,0.318-0.105,0.641-0.148,0.964c-0.021,0.161-0.052,0.318-0.068,0.48C25.027,39.012,25,39.504,25,40  c0,0.469,0.028,0.934,0.071,1.395c0.011,0.122,0.027,0.242,0.042,0.363c0.042,0.36,0.097,0.718,0.164,1.072  c0.02,0.103,0.038,0.205,0.059,0.307c0.192,0.904,0.466,1.785,0.823,2.635c0.031,0.073,0.066,0.144,0.098,0.217  c0.144,0.329,0.3,0.653,0.469,0.971c0.066,0.125,0.134,0.249,0.204,0.373c0.145,0.256,0.299,0.507,0.46,0.756  c0.09,0.14,0.177,0.281,0.271,0.417C27.683,48.541,27.702,48.576,27.726,48.609z M40,53c-3.225,0-6.173-1.187-8.447-3.139  l18.309-18.309C51.813,33.827,53,36.775,53,40C53,47.168,47.168,53,40,53z"/>
</svg>
