<?xml version="1.0" encoding="iso-8859-1"?>
<!-- Generator: Adobe Illustrator 19.0.0, SVG Export Plug-In . SVG Version: 6.00 Build 0)  -->
<svg version="1.1" id="Capa_1" xmlns="http://www.w3.org/2000/svg" xmlns:xlink="http://www.w3.org/1999/xlink" x="0px" y="0px"
	 viewBox="0 0 488.006 488.006" style="enable-background:new 0 0 488.006 488.006;" xml:space="preserve">
<linearGradient id="SVGID_1_" gradientUnits="userSpaceOnUse" x1="-52.7263" y1="548.7757" x2="22.3787" y2="623.8837" gradientTransform="matrix(8 0 0 -8 426.978 4941.0566)">
	<stop  offset="0" style="stop-color:#003F8A"/>
	<stop  offset="0.518" style="stop-color:#00D7DF"/>
	<stop  offset="1" style="stop-color:#006DF0"/>
</linearGradient>
<path style="fill:url(#SVGID_1_);" d="M412.003,136.006h-104c-4.418,0-8,3.582-8,8s3.582,8,8,8h96v320h-320v-320h96
	c4.418,0,8-3.582,8-8s-3.582-8-8-8h-104c-4.418,0-8,3.582-8,8v336c0,4.418,3.582,8,8,8h336c4.418,0,8-3.582,8-8v-336
	C420.003,139.588,416.421,136.006,412.003,136.006z"/>
<linearGradient id="SVGID_2_" gradientUnits="userSpaceOnUse" x1="-61.7267" y1="557.7761" x2="13.3783" y2="632.8842" gradientTransform="matrix(8 0 0 -8 426.978 4941.0566)">
	<stop  offset="0" style="stop-color:#003F8A"/>
	<stop  offset="0.518" style="stop-color:#00D7DF"/>
	<stop  offset="1" style="stop-color:#006DF0"/>
</linearGradient>
<path style="fill:url(#SVGID_2_);" d="M244.003,336.006c4.418,0,8-3.582,8-8V27.318l90.344,90.344
	c3.178,3.07,8.242,2.982,11.312-0.196c2.994-3.1,2.994-8.015,0-11.116l-104-104c-3.12-3.128-8.186-3.135-11.314-0.014
	c-0.005,0.005-0.01,0.01-0.014,0.014l-104,104c-3.178,3.069-3.266,8.134-0.197,11.312c3.069,3.178,8.134,3.266,11.312,0.197
	c0.067-0.064,0.132-0.13,0.197-0.197l90.36-90.344v300.688C236.003,332.425,239.585,336.006,244.003,336.006z"/>
<g>
</g>
<g>
</g>
<g>
</g>
<g>
</g>
<g>
</g>
<g>
</g>
<g>
</g>
<g>
</g>
<g>
</g>
<g>
</g>
<g>
</g>
<g>
</g>
<g>
</g>
<g>
</g>
<g>
</g>
</svg>
