<?xml version="1.0" encoding="iso-8859-1"?>
<!-- Generator: Adobe Illustrator 19.0.0, SVG Export Plug-In . SVG Version: 6.00 Build 0)  -->
<svg version="1.1" id="Capa_1" xmlns="http://www.w3.org/2000/svg" xmlns:xlink="http://www.w3.org/1999/xlink" x="0px" y="0px"
	 viewBox="0 0 496 496" style="enable-background:new 0 0 496 496;" xml:space="preserve">
<linearGradient id="SVGID_1_" gradientUnits="userSpaceOnUse" x1="-46.1165" y1="568.3845" x2="5.9015" y2="620.4005" gradientTransform="matrix(8 0 0 -8 399 5013)">
	<stop  offset="0" style="stop-color:#003F8A"/>
	<stop  offset="0.518" style="stop-color:#00D7DF"/>
	<stop  offset="1" style="stop-color:#006DF0"/>
</linearGradient>
<path style="fill:url(#SVGID_1_);" d="M248,0C111.033,0,0,111.033,0,248s111.033,248,248,248s248-111.033,248-248
	C495.841,111.099,384.901,0.159,248,0z M248,480C119.87,480,16,376.13,16,248S119.87,16,248,16s232,103.87,232,232
	C479.859,376.072,376.072,479.859,248,480z"/>
<linearGradient id="SVGID_2_" gradientUnits="userSpaceOnUse" x1="-43.1165" y1="565.3845" x2="8.9015" y2="617.4005" gradientTransform="matrix(8 0 0 -8 399 5013)">
	<stop  offset="0" style="stop-color:#003F8A"/>
	<stop  offset="0.518" style="stop-color:#00D7DF"/>
	<stop  offset="1" style="stop-color:#006DF0"/>
</linearGradient>
<path style="fill:url(#SVGID_2_);" d="M288,392h-32V176c0-4.418-3.582-8-8-8h-24c-4.418,0-8,3.582-8,8s3.582,8,8,8h16v208h-32
	c-4.418,0-8,3.582-8,8s3.582,8,8,8h80c4.418,0,8-3.582,8-8S292.418,392,288,392z"/>
<linearGradient id="SVGID_3_" gradientUnits="userSpaceOnUse" x1="-54.1167" y1="576.3847" x2="-2.0987" y2="628.4007" gradientTransform="matrix(8 0 0 -8 399 5013)">
	<stop  offset="0" style="stop-color:#003F8A"/>
	<stop  offset="0.518" style="stop-color:#00D7DF"/>
	<stop  offset="1" style="stop-color:#006DF0"/>
</linearGradient>
<path style="fill:url(#SVGID_3_);" d="M248,152c17.673,0,32-14.327,32-32s-14.327-32-32-32s-32,14.327-32,32S230.327,152,248,152z
	 M248,104c8.837,0,16,7.163,16,16s-7.163,16-16,16c-8.837,0-16-7.163-16-16S239.163,104,248,104z"/>
<g>
</g>
<g>
</g>
<g>
</g>
<g>
</g>
<g>
</g>
<g>
</g>
<g>
</g>
<g>
</g>
<g>
</g>
<g>
</g>
<g>
</g>
<g>
</g>
<g>
</g>
<g>
</g>
<g>
</g>
</svg>
