<svg id="Capa_1" enable-background="new 0 0 443.295 443.295" height="512" viewBox="0 0 443.295 443.295" width="512" xmlns="http://www.w3.org/2000/svg"><path d="m221.647 83.119c61.107 0 110.824 49.703 110.824 110.824v79.763l30.026 30.026c-1.431-6.659-2.32-13.425-2.32-20.313v-89.476c0-62.068-41.31-114.116-97.677-131.676-3.35-19.579-20.331-34.56-40.852-34.56-20.392 0-37.313 14.786-40.813 34.184-14.484 4.586-28.012 11.35-40.079 20.098l19.69 19.69c17.556-11.683 38.577-18.56 61.201-18.56z"/><path d="m19.589.001-19.589 19.589 103.564 103.564c-12.646 20.768-20.446 44.736-20.446 70.788v89.476c0 12.392-2.327 24.513-6.94 36.012l-19.778 49.459c-1.705 4.275-1.177 9.091 1.393 12.906 2.584 3.815 6.872 6.088 11.472 6.088h105.306c9.822 16.694 27.341 27.706 47.077 27.706s37.255-11.012 47.077-27.706h99.57l55.412 55.412 19.589-19.589zm70.131 360.176 12.189-30.466c5.912-14.773 8.915-30.357 8.915-46.294v-89.476c0-18.387 4.682-35.61 12.666-50.863l217.098 217.098c0 .001-250.868.001-250.868.001z"/></svg>