<svg id="Capa_1" enable-background="new 0 0 512 512" height="512" viewBox="0 0 512 512" width="512" xmlns="http://www.w3.org/2000/svg" xmlns:xlink="http://www.w3.org/1999/xlink"><linearGradient id="SVGID_1_" gradientUnits="userSpaceOnUse" x1="256" x2="256" y1="512" y2="0"><stop offset="0" stop-color="#fd3a84"/><stop offset="1" stop-color="#ffa68d"/></linearGradient><linearGradient id="SVGID_2_" gradientUnits="userSpaceOnUse" x1="118.121" x2="393.79" y1="393.835" y2="118.166"><stop offset="0" stop-color="#ffc8d1"/><stop offset="1" stop-color="#fff6f7"/></linearGradient><g><g><g><path d="m255.956 0c-140.596 0-255.912 115.39-255.912 256s115.316 256 255.912 256 256-115.39 256-256-115.405-256-256-256z" fill="url(#SVGID_1_)"/></g></g><g><g><path d="m393.798 118.173c-5.859-5.859-15.352-5.859-21.211 0l-254.473 254.443c-5.859 5.859-5.859 15.352 0 21.211 5.86 5.859 15.352 5.859 21.211 0l254.473-254.443c5.859-5.86 5.859-15.352 0-21.211z" fill="url(#SVGID_2_)"/></g></g></g></svg>