<svg height="512" viewBox="0 0 64 64" width="512" xmlns="http://www.w3.org/2000/svg"><path d="m23.667 23a5.006 5.006 0 0 0 -5 5 1 1 0 0 0 2 0 3 3 0 0 1 3-3 1 1 0 0 0 0-2z"/><path d="m58 23a5.006 5.006 0 0 0 -5 5 4.932 4.932 0 0 0 .253 1.494l-9.253 5.136a4.94 4.94 0 0 0 -7.4.069l-5.6-3.51a8 8 0 1 0 -14.693-.057l-6.532 3.626a4.973 4.973 0 1 0 1.225 3.242 4.932 4.932 0 0 0 -.253-1.494l6.575-3.652a7.971 7.971 0 0 0 12.65.052l5.638 3.527a4.91 4.91 0 0 0 -.277 1.567 5 5 0 1 0 9.7-1.653l9.194-5.105a4.99 4.99 0 1 0 3.773-8.242zm-52 18a3 3 0 1 1 3-3 3 3 0 0 1 -3 3zm17.667-7a6.021 6.021 0 1 1 5.177-2.982 6 6 0 0 1 -5.177 2.982zm16.666 7a3 3 0 1 1 3-3 3 3 0 0 1 -3 3zm17.667-10a3 3 0 1 1 3-3 3 3 0 0 1 -3 3z"/></svg>