<?xml version="1.0" encoding="iso-8859-1"?>
<!-- Generator: Adobe Illustrator 16.0.0, SVG Export Plug-In . SVG Version: 6.00 Build 0)  -->
<!DOCTYPE svg PUBLIC "-//W3C//DTD SVG 1.1//EN" "http://www.w3.org/Graphics/SVG/1.1/DTD/svg11.dtd">
<svg version="1.1" id="Capa_1" xmlns="http://www.w3.org/2000/svg" xmlns:xlink="http://www.w3.org/1999/xlink" x="0px" y="0px"
	 width="44.764px" height="44.764px" viewBox="0 0 44.764 44.764" style="enable-background:new 0 0 44.764 44.764;"
	 xml:space="preserve">
<g>
	<path d="M42.752,1.033c-1.143-1.026-2.838-1.319-4.257-0.738L3.187,14.771c-1.469,0.601-2.457,2.014-2.518,3.595
		c-0.063,1.583,0.809,3.07,2.222,3.786l14.352,7.285l8.745,13.478c0.752,1.158,2.026,1.85,3.407,1.85
		c0.195,0,0.395-0.014,0.593-0.043c1.563-0.229,2.862-1.361,3.309-2.886L43.939,5.187C44.371,3.698,43.906,2.068,42.752,1.033z
		 M29.405,40.367h-0.01l-8.797-13.306c-0.205-0.315-0.454-0.499-0.736-0.745l20.19-22.333L29.405,40.367z"/>
</g>
<g>
</g>
<g>
</g>
<g>
</g>
<g>
</g>
<g>
</g>
<g>
</g>
<g>
</g>
<g>
</g>
<g>
</g>
<g>
</g>
<g>
</g>
<g>
</g>
<g>
</g>
<g>
</g>
<g>
</g>
</svg>
