<svg height="512" viewBox="0 0 256 256" width="512" xmlns="http://www.w3.org/2000/svg"><path d="m144.332 38.938a82.131 82.131 0 0 0 -80.861 68.339l-7.627-7.627a7.5 7.5 0 0 0 -10.606 10.608l19.8 19.8a7.5 7.5 0 0 0 10.606 0l19.8-19.8a7.5 7.5 0 1 0 -10.608-10.607l-5.673 5.673a66.942 66.942 0 1 1 37.423 76.633 2.5 2.5 0 0 0 -2.072 4.551 72.019 72.019 0 1 0 -41.68-74.1 2.5 2.5 0 0 0 4.25 2.062l11.287-11.286a2.5 2.5 0 1 1 3.537 3.535l-19.8 19.8a2.561 2.561 0 0 1 -3.536 0l-19.8-19.8a2.5 2.5 0 1 1 3.536-3.536l11.192 11.192a2.5 2.5 0 0 0 4.254-1.508 76.907 76.907 0 1 1 45.959 78.759 2.5 2.5 0 1 0 -1.989 4.588 82.016 82.016 0 1 0 32.61-157.276z" fill="#846f75"/><path d="m69.5 137.4a39.834 39.834 0 1 0 39.834 39.833 39.879 39.879 0 0 0 -39.834-39.833zm0 74.667a34.834 34.834 0 1 1 34.834-34.834 34.873 34.873 0 0 1 -34.834 34.83z" fill="#846f75"/><g fill="#f9b087"><path d="m64 196.729a7.637 7.637 0 0 1 -5.436-2.25l-13.464-13.461a7.687 7.687 0 1 1 10.871-10.872l8.029 8.026 19.565-19.566a7.687 7.687 0 1 1 10.87 10.873l-25 25a7.633 7.633 0 0 1 -5.435 2.25zm-13.462-23.829a2.686 2.686 0 0 0 -1.9 4.586l13.462 13.457a2.752 2.752 0 0 0 3.8 0l25-25a2.683 2.683 0 0 0 0-3.8 2.744 2.744 0 0 0 -3.8 0l-21.333 21.332a2.5 2.5 0 0 1 -3.536 0l-9.793-9.793a2.679 2.679 0 0 0 -1.9-.782z"/><path d="m177.689 124.21a22.183 22.183 0 1 0 6.5 15.686 22.037 22.037 0 0 0 -6.5-15.686zm-27.837 3.535a17.163 17.163 0 0 1 29.135 9.651h-33.968a17.032 17.032 0 0 1 4.833-9.651zm24.3 24.3a17.206 17.206 0 0 1 -24.3 0 17.038 17.038 0 0 1 -4.833-9.652h33.968a17.038 17.038 0 0 1 -4.833 9.655z"/><path d="m158.541 80.361a18.4 18.4 0 0 0 -25.988-.055l-27.353 27.234a18.377 18.377 0 0 0 12.927 31.4h.041a18.255 18.255 0 0 0 12.965-5.355l27.351-27.234a18.376 18.376 0 0 0 .055-25.988zm-30.934 49.679a13.285 13.285 0 0 1 -9.438 3.9h-.029a13.376 13.376 0 0 1 -9.41-22.855l11.9-11.853 18.877 18.957zm27.351-27.234-11.9 11.853-18.881-18.959 11.9-11.853a13.376 13.376 0 1 1 18.877 18.957z"/></g></svg>