<svg id="Capa_1" enable-background="new 0 0 512.069 512.069" height="512" viewBox="0 0 512.069 512.069" width="512" xmlns="http://www.w3.org/2000/svg" xmlns:xlink="http://www.w3.org/1999/xlink"><linearGradient id="SVGID_1_" gradientUnits="userSpaceOnUse" x1="256.037" x2="256.037" y1="331.017" y2="181.017"><stop offset="0" stop-color="#ffc8d1"/><stop offset="1" stop-color="#fff6f7"/></linearGradient><linearGradient id="SVGID_2_" gradientUnits="userSpaceOnUse" x1="256.034" x2="256.034" y1="481.017" y2="31.052"><stop offset="0" stop-color="#fd3a84"/><stop offset="1" stop-color="#ffa68d"/></linearGradient><g id="Pharmacy_24_"><g><g><path d="m256.037 211.017c8.284 0 15-6.716 15-15s-6.716-15-15-15-15 6.716-15 15 6.716 15 15 15zm-30 30c-8.284 0-15 6.716-15 15s6.716 15 15 15 15-6.716 15-15-6.715-15-15-15zm60 0c-8.284 0-15 6.716-15 15s6.716 15 15 15 15-6.716 15-15-6.715-15-15-15zm-30 60c-8.284 0-15 6.716-15 15s6.716 15 15 15 15-6.716 15-15-6.715-15-15-15zm60 0c-8.284 0-15 6.716-15 15s6.716 15 15 15 15-6.716 15-15-6.715-15-15-15zm-120 0c-8.284 0-15 6.716-15 15s6.716 15 15 15 15-6.716 15-15-6.715-15-15-15z" fill="url(#SVGID_1_)"/></g></g><g><g><path d="m495.543 69.162c-28.594-40.532-84.873-50.303-125.449-21.709l-85.811 60.483c-3.252 2.285-5.449 5.786-6.123 9.697-.703 3.926.205 7.954 2.52 11.206l86.426 122.607c2.9 4.146 7.559 6.357 12.246 6.357 2.988 0 6.006-.894 8.643-2.739l85.811-60.483c40.882-28.793 50.418-84.697 21.737-125.419zm-362.82 188.642c4.688 0 9.346-2.212 12.246-6.357l86.426-122.607c2.314-3.252 3.223-7.28 2.52-11.206-.674-3.911-2.871-7.412-6.123-9.697l-85.811-60.483c-40.547-28.566-96.827-18.854-125.45 21.708-28.794 40.883-18.986 96.737 21.738 125.42l85.811 60.483c2.637 1.846 5.655 2.739 8.643 2.739zm123.314 103.213c-81.094 0-158.291 91.509-161.514 95.391-3.75 4.482-4.541 10.708-2.08 15.967 2.49 5.273 7.764 8.643 13.594 8.643h300c5.83 0 11.104-3.369 13.594-8.643 2.461-5.259 1.67-11.484-2.08-15.967-3.223-3.882-80.42-95.391-161.514-95.391z" fill="url(#SVGID_2_)"/></g></g></g></svg>