<svg height="512" viewBox="0 0 256 256" width="512" xmlns="http://www.w3.org/2000/svg"><path d="m128 203a64.553 64.553 0 1 1 64.553-64.553 64.626 64.626 0 0 1 -64.553 64.553zm0-124.1a59.553 59.553 0 1 0 59.553 59.553 59.621 59.621 0 0 0 -59.553-59.553z" fill="#ebe7f2"/><path d="m214.177 55.987-.169-.169a29.584 29.584 0 0 0 -41.791 0 2.5 2.5 0 0 0 0 3.535l17.442 17.447-5.233 5.232a79.575 79.575 0 0 0 -53.926-23.352v-6.98h7.25a7.75 7.75 0 0 0 0-15.5h-19.5a7.75 7.75 0 0 0 0 15.5h7.25v6.98a79.58 79.58 0 0 0 -53.927 23.348l-5.232-5.228 17.442-17.446a2.5 2.5 0 0 0 0-3.536 29.586 29.586 0 0 0 -41.794 0l-.16.161a29.549 29.549 0 0 0 0 41.791 2.5 2.5 0 0 0 3.535 0l17.442-17.439 5.356 5.356a79.641 79.641 0 0 0 -1.631 103.644l-13.968 13.969a9.667 9.667 0 0 0 13.671 13.671l14.343-14.344a79.642 79.642 0 0 0 94.845 0l14.344 14.344a9.667 9.667 0 0 0 13.671-13.671l-13.968-13.967a79.641 79.641 0 0 0 -1.631-103.644l5.356-5.355 17.442 17.441a2.5 2.5 0 0 0 3.535 0 29.55 29.55 0 0 0 .006-41.786zm-98.677-12.037a2.753 2.753 0 0 1 2.75-2.75h19.5a2.75 2.75 0 0 1 0 5.5h-19.5a2.752 2.752 0 0 1 -2.75-2.75zm-71.815 48.432a24.555 24.555 0 0 1 1.682-32.867l.16-.161a24.588 24.588 0 0 1 32.864-1.678zm19.015 121.052a4.667 4.667 0 0 1 -6.6-6.6l13.759-13.76a80.654 80.654 0 0 0 6.776 6.426zm137.2-6.6a4.667 4.667 0 0 1 -6.6 6.6l-13.934-13.934a80.654 80.654 0 0 0 6.776-6.426zm-71.9 6.45a74.834 74.834 0 1 1 74.833-74.833 74.918 74.918 0 0 1 -74.833 74.832zm84.315-120.9-17.351-17.353-17.351-17.35a24.586 24.586 0 0 1 32.859 1.673l.169.169a24.555 24.555 0 0 1 1.679 32.864z" fill="#846f75"/><g fill="#65c1d6"><path d="m163.377 141.987a24.316 24.316 0 1 0 7.123 17.2 24.161 24.161 0 0 0 -7.123-17.2zm-30.855 3.535a19.3 19.3 0 0 1 32.8 11.161h-38.278a19.163 19.163 0 0 1 5.478-11.161zm27.32 27.32a19.3 19.3 0 0 1 -32.8-11.159h38.277a19.159 19.159 0 0 1 -5.477 11.159z"/><path d="m142.153 93.386a19.96 19.96 0 0 0 -14.2-5.917h-.044a19.97 19.97 0 0 0 -14.18 5.856l-30.312 30.186a20.1 20.1 0 0 0 14.137 34.339h.046a19.965 19.965 0 0 0 14.18-5.857l30.315-30.186a20.095 20.095 0 0 0 .06-28.421zm-33.9 55.064a15 15 0 0 1 -10.652 4.4h-.033a15.1 15.1 0 0 1 -10.62-25.8l13.386-13.329 21.3 21.4zm30.315-30.186-13.386 13.329-21.305-21.4 13.383-13.325a15.1 15.1 0 0 1 21.3 21.4z"/></g></svg>