<svg height="512pt" viewBox="0 0 512 512" width="512pt" xmlns="http://www.w3.org/2000/svg" xmlns:xlink="http://www.w3.org/1999/xlink"><linearGradient id="a"><stop offset="0" stop-color="#e93e3a"/><stop offset=".354" stop-color="#ed683c"/><stop offset=".705" stop-color="#f3903f"/><stop offset="1" stop-color="#fdc70c"/></linearGradient><linearGradient id="b" gradientTransform="matrix(.670906 0 0 -.670906 0 495.66887)" gradientUnits="userSpaceOnUse" x1="0" x2="897.222" xlink:href="#a" y1="357.2318" y2="357.2318"/><linearGradient id="c" gradientTransform="matrix(.670906 0 0 -.670906 0 495.66887)" gradientUnits="userSpaceOnUse" x1="-.7631" x2="896.4589" xlink:href="#a" y1="357.2318" y2="357.2318"/><path d="m290.144531 512h-68.289062c-16.480469-.015625-29.839844-13.375-29.855469-29.855469v-45.230469c-6.363281-2.246093-12.609375-4.820312-18.703125-7.714843l-32 32c-11.816406 11.296875-30.425781 11.296875-42.242187 0l-48.207032-48.320313c-11.664062-11.640625-11.679687-30.535156-.039062-42.199218.011718-.011719.027344-.027344.039062-.039063l32-32c-2.910156-6.074219-5.5-12.296875-7.757812-18.640625h-45.234375c-16.480469-.019531-29.839844-13.375-29.855469-29.855469v-68.289062c.015625-16.480469 13.375-29.839844 29.855469-29.855469h45.230469c2.246093-6.363281 4.820312-12.609375 7.714843-18.703125l-32-32c-11.664062-11.644531-11.683593-30.535156-.039062-42.203125.011719-.011719.023437-.023438.039062-.039062l48.398438-48.207032c11.816406-11.296875 30.425781-11.296875 42.242187 0l32 32c6.046875-2.90625 12.242188-5.496094 18.558594-7.757812v-45.234375c.015625-16.480469 13.375-29.839844 29.855469-29.855469h68.289062c16.480469.015625 29.839844 13.375 29.855469 29.855469v45.230469c6.363281 2.246093 12.609375 4.820312 18.703125 7.714843l32-32c11.816406-11.296875 30.425781-11.296875 42.242187 0l48.207032 48.398438c11.664062 11.640625 11.683594 30.535156.039062 42.199219-.011718.015624-.027344.027343-.039062.039062l-32 32c2.90625 6.050781 5.496094 12.246094 7.761718 18.5625h45.230469c16.480469.015625 29.839844 13.375 29.855469 29.855469v68.289062c-.015625 16.480469-13.375 29.835938-29.855469 29.855469h-45.230469c-2.246093 6.363281-4.820312 12.609375-7.714843 18.703125l32 32c11.664062 11.644531 11.683593 30.535156.039062 42.199219-.011719.015625-.023437.027344-.039062.042968l-48.253907 48.253907c-11.816406 11.296875-30.425781 11.296875-42.242187 0l-32-32c-6.09375 2.894531-12.339844 5.46875-18.703125 7.710937v45.234375c-.019531 16.480469-13.375 29.835938-29.855469 29.855469zm-66.144531-32h64v-54.800781c0-7.160157 4.757812-13.445313 11.648438-15.390625 11.941406-3.363282 23.449218-8.109375 34.289062-14.144532 6.269531-3.535156 14.125-2.445312 19.199219 2.65625l38.703125 38.6875 45.25-45.25-38.691406-38.703124c-5.101563-5.074219-6.1875-12.929688-2.65625-19.199219 6.035156-10.839844 10.78125-22.347657 14.144531-34.289063 1.96875-6.828125 8.207031-11.539062 15.3125-11.566406h54.800781v-64h-54.800781c-7.15625 0-13.445313-4.757812-15.390625-11.648438-3.363282-11.941406-8.109375-23.449218-14.144532-34.289062-3.53125-6.269531-2.445312-14.125 2.65625-19.199219l38.6875-38.703125-45.246093-45.167968-38.707031 38.6875c-5.074219 5.101562-12.929688 6.1875-19.199219 2.65625-10.839844-6.035157-22.34375-10.78125-34.289063-14.144532-6.855468-1.976562-11.574218-8.253906-11.566406-15.390625v-54.800781h-64v54.800781c0 7.160157-4.757812 13.445313-11.648438 15.390625-11.941406 3.363282-23.449218 8.109375-34.285156 14.144532-6.269531 3.535156-14.128906 2.445312-19.203125-2.65625l-38.621093-38.6875-45.25 45.25 38.6875 38.703124c5.101562 5.074219 6.191406 12.929688 2.65625 19.199219-6.035157 10.839844-10.78125 22.347657-14.144532 34.289063-1.976562 6.855468-8.253906 11.574218-15.390625 11.566406h-54.800781v64h54.800781c7.160157 0 13.445313 4.757812 15.390625 11.648438 3.363282 11.941406 8.109375 23.449218 14.144532 34.289062 3.535156 6.269531 2.445312 14.125-2.65625 19.199219l-38.6875 38.625 45.25 45.246093 38.703124-38.609374c5.074219-5.101563 12.929688-6.1875 19.199219-2.65625 10.839844 6.035156 22.347657 10.78125 34.289063 14.144531 6.886718 1.949219 11.644531 8.234375 11.648437 15.394531zm0 0" fill="url(#b)"/><path d="m256 368c-61.855469 0-112-50.144531-112-112s50.144531-112 112-112 112 50.144531 112 112c-.078125 61.824219-50.175781 111.921875-112 112zm0-192c-44.183594 0-80 35.816406-80 80s35.816406 80 80 80 80-35.816406 80-80c-.054688-44.160156-35.839844-79.945312-80-80zm0 0" fill="url(#c)"/></svg>