<svg height="100" viewBox="0 0 480 480" width="100" xmlns="http://www.w3.org/2000/svg" xmlns:xlink="http://www.w3.org/1999/xlink"><linearGradient id="a" gradientUnits="userSpaceOnUse" x1="9.432" x2="497.432" y1="232.44" y2="248.44"><stop offset="0" stop-color="#fff200"/><stop offset="1" stop-color="#cd118c"/></linearGradient><g fill="url(#a)"><path d="m456 184h-41.761719c-3.277343.03125-6.230469-1.984375-7.398437-5.046875-1.679688-4.65625-3.59375-9.3125-5.671875-13.832031-1.335938-2.992188-.675781-6.503906 1.664062-8.800782l29.511719-29.496093c9.371094-9.371094 9.371094-24.5625 0-33.9375l-45.265625-45.222657c-9.496094-9.0625-24.4375-9.0625-33.933594 0l-29.503906 29.496094c-2.285156 2.332032-5.777344 3.003906-8.761719 1.679688-4.480468-2.070313-9.136718-4-13.824218-5.679688-3.066407-1.164062-5.085938-4.117187-5.054688-7.398437v-41.761719c0-13.253906-10.746094-24-24-24h-64c-13.253906 0-24 10.746094-24 24v41.761719c.03125 3.277343-1.984375 6.230469-5.046875 7.398437-4.695313 1.695313-9.351563 3.609375-13.832031 5.679688-2.984375 1.324218-6.476563.652344-8.761719-1.679688l-29.496094-29.488281c-9.496093-9.070313-24.445312-9.070313-33.941406 0l-45.265625 45.257813c-9.371094 9.371093-9.371094 24.5625 0 33.933593l29.503906 29.488281c2.332032 2.300782 2.996094 5.808594 1.664063 8.800782-2.082031 4.519531-4 9.175781-5.671875 13.824218-1.171875 3.054688-4.121094 5.058594-7.390625 5.023438h-41.761719c-13.253906 0-24 10.746094-24 24v64c0 13.253906 10.746094 24 24 24h41.761719c3.277343-.03125 6.230469 1.984375 7.398437 5.046875 1.679688 4.65625 3.59375 9.3125 5.671875 13.832031 1.332031 2.996094.667969 6.5-1.664062 8.800782l-29.511719 29.464843c-9.371094 9.371094-9.371094 24.5625 0 33.933594l45.253906 45.257813c9.5 9.0625 24.441406 9.0625 33.9375 0l29.503906-29.496094c2.285157-2.328125 5.773438-2.996094 8.761719-1.679688 4.429688 2.054688 9.085938 4 13.824219 5.679688 3.070312 1.160156 5.09375 4.117187 5.0625 7.398437v41.761719c0 13.253906 10.746094 24 24 24h64c13.253906 0 24-10.746094 24-24v-41.761719c-.03125-3.28125 1.988281-6.234375 5.054688-7.398437 4.738281-1.710938 9.394531-3.625 13.824218-5.679688 2.984375-1.320312 6.476563-.652344 8.761719 1.679688l29.496094 29.488281c9.496093 9.070313 24.445312 9.070313 33.941406 0l45.265625-45.265625c9.371094-9.371094 9.371094-24.5625 0-33.933594l-29.503906-29.488281c-2.339844-2.296875-3-5.808594-1.664063-8.800781 2.082031-4.519532 4-9.175782 5.671875-13.824219 1.175782-3.050781 4.121094-5.050781 7.390625-5.015625h41.761719c13.253906 0 24-10.746094 24-24v-64c0-13.253906-10.746094-24-24-24zm8 88c0 4.417969-3.582031 8-8 8h-41.761719c-9.996093 0-18.9375 6.226562-22.398437 15.609375-1.535156 4.230469-3.273438 8.460937-5.167969 12.574219-4.105469 9.074218-2.15625 19.738281 4.886719 26.777344l29.496094 29.488281c1.503906 1.5 2.347656 3.535156 2.347656 5.660156 0 2.121094-.84375 4.15625-2.347656 5.660156l-45.253907 45.246094c-3.164062 3.03125-8.152343 3.03125-11.3125 0l-29.503906-29.488281c-7.03125-7.058594-17.707031-9.007813-26.777344-4.886719-4 1.863281-8.261719 3.597656-12.574219 5.160156-9.402343 3.457031-15.648437 12.421875-15.632812 22.4375v41.761719c0 4.417969-3.582031 8-8 8h-64c-4.417969 0-8-3.582031-8-8v-41.761719c.003906-9.996093-6.222656-18.933593-15.601562-22.398437-4.308594-1.601563-8.542969-3.296875-12.574219-5.160156-3.074219-1.417969-6.421875-2.148438-9.808594-2.144532-6.363281.003906-12.46875 2.53125-16.96875 7.03125l-29.511719 29.496094c-3.160156 3.023438-8.140625 3.023438-11.304687 0l-45.246094-45.292969c-1.503906-1.503906-2.347656-3.539062-2.347656-5.660156 0-2.125.84375-4.160156 2.347656-5.660156l29.496094-29.488281c7.046875-7.039063 8.992187-17.703126 4.886719-26.777344-1.894532-4.113282-3.632813-8.34375-5.167969-12.582032-3.46875-9.390624-12.429688-15.617187-22.4375-15.601562h-41.761719c-4.417969 0-8-3.582031-8-8v-64c0-4.417969 3.582031-8 8-8h41.761719c10.011719.019531 18.972656-6.214844 22.4375-15.609375 1.535156-4.230469 3.273437-8.460937 5.167969-12.574219 4.105468-9.074218 2.160156-19.738281-4.886719-26.777344l-29.496094-29.488281c-1.503906-1.5-2.347656-3.535156-2.347656-5.660156 0-2.121094.84375-4.15625 2.347656-5.660156l45.253906-45.246094c3.167969-3.023437 8.148438-3.023437 11.3125 0l29.503907 29.488281c7.027343 7.0625 17.707031 9.015625 26.777343 4.886719 4.070313-1.871094 8.304688-3.617187 12.574219-5.160156 9.390625-3.472657 15.613281-12.429688 15.59375-22.4375v-41.761719c0-4.417969 3.582031-8 8-8h64c4.417969 0 8 3.582031 8 8v41.761719c-.019531 10.011719 6.214844 18.972656 15.609375 22.4375 4.261719 1.542969 8.496094 3.289062 12.566406 5.160156 9.070313 4.117187 19.746094 2.167969 26.777344-4.886719l29.511719-29.496094c3.160156-3.019531 8.140625-3.019531 11.304687 0l45.246094 45.246094c1.503906 1.5 2.347656 3.539063 2.347656 5.660156 0 2.125-.84375 4.160157-2.347656 5.660157l-29.496094 29.496093c-7.046875 7.039063-8.992187 17.703126-4.886719 26.777344 1.894532 4.113282 3.632813 8.34375 5.167969 12.582032 3.46875 9.390624 12.429688 15.617187 22.4375 15.601562h41.761719c4.417969 0 8 3.582031 8 8zm0 0"/><path d="m240 144c-53.019531 0-96 42.980469-96 96s42.980469 96 96 96 96-42.980469 96-96c-.058594-52.996094-43.003906-95.941406-96-96zm0 176c-44.183594 0-80-35.816406-80-80s35.816406-80 80-80 80 35.816406 80 80c-.046875 44.164062-35.835938 79.953125-80 80zm0 0"/><path d="m240 200c-22.089844 0-40 17.910156-40 40s17.910156 40 40 40 40-17.910156 40-40c-.027344-22.082031-17.917969-39.972656-40-40zm0 64c-13.253906 0-24-10.746094-24-24s10.746094-24 24-24 24 10.746094 24 24-10.746094 24-24 24zm0 0"/></g></svg>