<svg height="512" viewBox="0 0 256 256" width="512" xmlns="http://www.w3.org/2000/svg"><g fill="#ebe7f2"><path d="m132.219 106.152h-102.437a2.5 2.5 0 1 1 0-5h102.437a2.5 2.5 0 0 1 0 5z"/><path d="m132.219 212.986h-102.437a2.5 2.5 0 0 1 0-5h102.437a2.5 2.5 0 0 1 0 5z"/><path d="m54.4 67.414a2.5 2.5 0 0 1 -2.5-2.5v-25.664a2.5 2.5 0 0 1 5 0v25.664a2.5 2.5 0 0 1 -2.5 2.5z"/><path d="m72.134 67.414a2.5 2.5 0 0 1 -2.5-2.5v-25.664a2.5 2.5 0 0 1 5 0v25.664a2.5 2.5 0 0 1 -2.5 2.5z"/><path d="m89.866 67.414a2.5 2.5 0 0 1 -2.5-2.5v-25.664a2.5 2.5 0 1 1 5 0v25.664a2.5 2.5 0 0 1 -2.5 2.5z"/><path d="m107.6 67.414a2.5 2.5 0 0 1 -2.5-2.5v-25.664a2.5 2.5 0 0 1 5 0v25.664a2.5 2.5 0 0 1 -2.5 2.5z"/><path d="m223.983 136.429h-76.956a2.5 2.5 0 0 1 0-5h76.956a2.5 2.5 0 0 1 0 5z"/><path d="m223.983 216.688h-76.956a2.5 2.5 0 0 1 0-5h76.956a2.5 2.5 0 0 1 0 5z"/><path d="m165.523 107.327a2.5 2.5 0 0 1 -2.5-2.5v-19.281a2.5 2.5 0 0 1 5 0v19.281a2.5 2.5 0 0 1 -2.5 2.5z"/><path d="m178.845 107.327a2.5 2.5 0 0 1 -2.5-2.5v-19.281a2.5 2.5 0 0 1 5 0v19.281a2.5 2.5 0 0 1 -2.5 2.5z"/><path d="m192.166 107.327a2.5 2.5 0 0 1 -2.5-2.5v-19.281a2.5 2.5 0 1 1 5 0v19.281a2.5 2.5 0 0 1 -2.5 2.5z"/><path d="m205.487 107.327a2.5 2.5 0 0 1 -2.5-2.5v-19.281a2.5 2.5 0 0 1 5 0v19.281a2.5 2.5 0 0 1 -2.5 2.5z"/></g><path d="m117.218 83.046h-2.37v-15.632h4.49a2.5 2.5 0 0 0 2.5-2.5v-25.655a2.5 2.5 0 0 0 -2.5-2.5h-76.676a2.5 2.5 0 0 0 -2.5 2.5v25.655a2.5 2.5 0 0 0 2.5 2.5h4.49v15.632h-2.37a17.52 17.52 0 0 0 -17.5 17.5v114.826a12.514 12.514 0 0 0 12.5 12.5h82.436a12.514 12.514 0 0 0 12.5-12.5v-114.826a17.521 17.521 0 0 0 -17.5-17.5zm-72.056-41.287h71.676v20.655h-71.676zm6.99 25.655h57.7v15.632h-57.7zm77.567 147.958a7.509 7.509 0 0 1 -7.5 7.5h-82.437a7.508 7.508 0 0 1 -7.5-7.5v-114.826a12.514 12.514 0 0 1 12.5-12.5h72.436a12.515 12.515 0 0 1 12.5 12.5z" fill="#846f75"/><path d="m212.715 117.827h-1.159v-10.5h2.751a2.5 2.5 0 0 0 2.5-2.5v-19.274a2.5 2.5 0 0 0 -2.5-2.5h-57.607a2.5 2.5 0 0 0 -2.5 2.5v19.274a2.5 2.5 0 0 0 2.5 2.5h2.751v10.5h-1.151a13.785 13.785 0 0 0 -13.773 13.773v86.263a10.025 10.025 0 0 0 10.013 10.013h61.931a10.024 10.024 0 0 0 10.012-10.013v-86.263a13.784 13.784 0 0 0 -13.768-13.773zm-53.515-29.774h52.6v14.274h-52.6zm5.251 19.274h42.1v10.5h-42.1zm57.028 110.532a5.018 5.018 0 0 1 -5.012 5.013h-61.927a5.018 5.018 0 0 1 -5.013-5.013v-86.259a8.779 8.779 0 0 1 8.769-8.769h54.419a8.778 8.778 0 0 1 8.768 8.769z" fill="#846f75"/><path d="m201.191 157.151a22.184 22.184 0 1 0 -31.372 31.373 22.184 22.184 0 1 0 31.372-31.373zm-27.837 3.536a17.163 17.163 0 0 1 29.135 9.651h-33.968a17.045 17.045 0 0 1 4.833-9.651zm24.3 24.3a17.161 17.161 0 0 1 -29.134-9.651h33.967a17.038 17.038 0 0 1 -4.831 9.653z" fill="#65c1d6"/><path d="m107.7 130.485a18.255 18.255 0 0 0 -12.982-5.409h-.041a18.256 18.256 0 0 0 -12.965 5.355l-27.354 27.234a18.376 18.376 0 0 0 25.933 26.043l27.351-27.234a18.377 18.377 0 0 0 .055-25.989zm-30.934 49.68a13.376 13.376 0 1 1 -18.876-18.957l11.9-11.853 18.877 18.957zm27.35-27.234-11.9 11.853-18.883-18.958 11.9-11.853a13.289 13.289 0 0 1 9.438-3.9h.029a13.376 13.376 0 0 1 9.409 22.856z" fill="#65c1d6"/></svg>