<?xml version="1.0" encoding="iso-8859-1"?>
<!-- Generator: Adobe Illustrator 19.0.0, SVG Export Plug-In . SVG Version: 6.00 Build 0)  -->
<svg version="1.1" id="Capa_1" xmlns="http://www.w3.org/2000/svg" xmlns:xlink="http://www.w3.org/1999/xlink" x="0px" y="0px"
	 viewBox="0 0 496.011 496.011" style="enable-background:new 0 0 496.011 496.011;" xml:space="preserve">
<linearGradient id="SVGID_1_" gradientUnits="userSpaceOnUse" x1="-55.7309" y1="557.7816" x2="13.2541" y2="626.7626" gradientTransform="matrix(8 0 0 -8 399 4977.0957)">
	<stop  offset="0" style="stop-color:#003F8A"/>
	<stop  offset="0.518" style="stop-color:#00D7DF"/>
	<stop  offset="1" style="stop-color:#006DF0"/>
</linearGradient>
<path style="fill:url(#SVGID_1_);" d="M8,468.011h400c4.418,0,8-3.582,8-8V188.107c0-4.418-3.582-8-8-8s-8,3.582-8,8v263.904H16
	v-384h320c4.418,0,8-3.582,8-8s-3.582-8-8-8H8c-4.418,0-8,3.582-8,8v400C0,464.429,3.582,468.011,8,468.011z"/>
<linearGradient id="SVGID_2_" gradientUnits="userSpaceOnUse" x1="-60.0019" y1="562.0576" x2="8.9791" y2="631.0336" gradientTransform="matrix(8 0 0 -8 399 4977.0957)">
	<stop  offset="0" style="stop-color:#003F8A"/>
	<stop  offset="0.518" style="stop-color:#00D7DF"/>
	<stop  offset="1" style="stop-color:#006DF0"/>
</linearGradient>
<path style="fill:url(#SVGID_2_);" d="M482.4,30.283L168.464,336.387L62.016,214.747c-2.684-3.51-7.704-4.18-11.214-1.496
	c-3.51,2.684-4.18,7.704-1.496,11.214c0.218,0.286,0.456,0.556,0.711,0.81l112,128c1.435,1.647,3.482,2.636,5.664,2.736H168
	c2.092,0.004,4.102-0.812,5.6-2.272l320-312c3.163-3.093,3.221-8.165,0.128-11.328S485.563,27.19,482.4,30.283z"/>
<g>
</g>
<g>
</g>
<g>
</g>
<g>
</g>
<g>
</g>
<g>
</g>
<g>
</g>
<g>
</g>
<g>
</g>
<g>
</g>
<g>
</g>
<g>
</g>
<g>
</g>
<g>
</g>
<g>
</g>
</svg>
