<svg id="Capa_1" enable-background="new 0 0 511.532 511.532" height="512" viewBox="0 0 511.532 511.532" width="512" xmlns="http://www.w3.org/2000/svg"><g><path d="m213.044 116.786c4.143 0 7.5-3.357 7.5-7.5v-10.602c0-4.143-3.357-7.5-7.5-7.5s-7.5 3.357-7.5 7.5v10.603c0 4.142 3.357 7.499 7.5 7.499z"/><path d="m300.702 148.702 7.497-7.497c2.929-2.93 2.929-7.678 0-10.607-2.93-2.928-7.678-2.928-10.607 0l-7.497 7.497c-2.929 2.93-2.929 7.678 0 10.607 2.93 2.929 7.677 2.928 10.607 0z"/><path d="m329.511 233.253h10.603c4.143 0 7.5-3.357 7.5-7.5s-3.357-7.5-7.5-7.5h-10.603c-4.143 0-7.5 3.357-7.5 7.5s3.357 7.5 7.5 7.5z"/><path d="m117.889 320.908c2.931 2.929 7.678 2.928 10.607 0l7.497-7.497c2.929-2.93 2.929-7.678 0-10.607-2.93-2.928-7.678-2.928-10.607 0l-7.497 7.497c-2.929 2.929-2.929 7.677 0 10.607z"/><path d="m96.577 233.253c4.143 0 7.5-3.357 7.5-7.5s-3.357-7.5-7.5-7.5h-10.602c-4.143 0-7.5 3.357-7.5 7.5s3.357 7.5 7.5 7.5z"/><path d="m125.386 148.702c2.931 2.929 7.678 2.928 10.607 0 2.929-2.93 2.929-7.678 0-10.607l-7.497-7.497c-2.93-2.928-7.678-2.928-10.607 0-2.929 2.93-2.929 7.678 0 10.607z"/><path d="m205.544 221.338h-28.945c-4.143 0-7.5 3.357-7.5 7.5s3.357 7.5 7.5 7.5h36.445c4.143 0 7.5-3.357 7.5-7.5v-70.977c0-4.143-3.357-7.5-7.5-7.5s-7.5 3.357-7.5 7.5z"/><path d="m486.031 264.982c-15.72-15.911-36.98-25.183-60.342-26.464.255-4.273.399-8.544.399-12.766 0-54.785-20.758-106.842-58.45-146.581-2.852-3.006-7.599-3.13-10.603-.28-3.006 2.851-3.131 7.598-.28 10.603 35.037 36.94 54.333 85.332 54.333 136.259 0 4.297-.156 8.649-.44 13.002-13.066 1.127-24.301 4.527-33.796 8.969.968-7.271 1.473-14.615 1.473-21.971 0-91.137-74.146-165.281-165.282-165.281s-165.28 74.144-165.28 165.281c0 18.367 3 36.423 8.916 53.665 1.353 3.946 5.642 5.998 9.527 4.66 3.918-1.344 6.005-5.609 4.66-9.527-5.377-15.673-8.104-32.091-8.104-48.798 0-82.865 67.416-150.281 150.281-150.281 82.866 0 150.282 67.416 150.282 150.281 0 10.808-1.172 21.588-3.456 32.092-3.599 2.659-6.779 5.37-9.536 7.977-6.138 5.804-10.821 11.616-14.191 16.411-3.369-4.795-8.053-10.607-14.19-16.411-39.924-37.747-101.577-35.374-135.697-.839-16.444 16.644-25.501 38.908-25.501 62.692 0 14.171 3.219 28.271 9.502 42.168-36.686-10.849-67.995-35.384-87.434-69.033-2.073-3.588-6.66-4.815-10.246-2.742-3.586 2.072-4.814 6.659-2.742 10.246 23.824 41.239 63.874 70.022 110.259 79.404 7.978 12.261 18.374 24.312 31.088 36.057-108.347-1.007-196.181-89.443-196.181-198.022 0-109.202 88.842-198.045 198.044-198.045 44.857 0 87.16 14.625 122.335 42.293 3.254 2.56 7.97 1.999 10.531-1.258 2.562-3.256 1.998-7.971-1.258-10.531-37.844-29.769-83.354-45.504-131.608-45.504-117.473 0-213.044 95.571-213.044 213.045s95.571 213.045 213.044 213.045c4.967 0 10.06-.194 15.175-.557 27.27 21.398 62.456 41.596 104.947 59.967 1.898.821 4.053.822 5.953 0 39.061-16.888 72.205-35.387 98.514-54.982 3.321-2.474 4.009-7.173 1.534-10.495-2.474-3.321-7.172-4.009-10.495-1.534-24.711 18.406-55.831 35.876-92.529 51.948-65.362-28.619-160.389-84.027-160.389-155.47 0-19.812 7.519-38.332 21.172-52.15 30.308-30.676 82.674-28.728 114.302.803 12.411 11.589 18.065 23.424 18.112 23.523 1.226 2.641 3.875 4.324 6.786 4.332h.021c2.904 0 5.553-1.686 6.79-4.313.056-.118 5.71-11.953 18.122-23.542 31.661-29.56 84.02-31.453 114.302-.803 13.653 13.818 21.172 32.339 21.172 52.15 0 27.971-15.695 57.333-45.391 84.913-3.034 2.818-3.21 7.564-.391 10.6 2.817 3.034 7.564 3.211 10.599.391 32.83-30.491 50.183-63.654 50.183-95.903-.001-23.785-9.057-46.05-25.502-62.694z"/></g></svg>