<svg id="Capa_1" enable-background="new 0 0 512 512" height="512" viewBox="0 0 512 512" width="512" xmlns="http://www.w3.org/2000/svg" xmlns:xlink="http://www.w3.org/1999/xlink"><linearGradient id="SVGID_1_" gradientUnits="userSpaceOnUse" x1="256" x2="256" y1="512" y2="0"><stop offset="0" stop-color="#5558ff"/><stop offset="1" stop-color="#00c0ff"/></linearGradient><g><g><path d="m225.998 331h-15v-15c0-8.284-6.716-15-15-15s-15 6.716-15 15v15h-15c-8.284 0-15 6.716-15 15s6.716 15 15 15h15v15c0 8.284 6.716 15 15 15s15-6.716 15-15v-15h15c8.284 0 15-6.716 15-15s-6.716-15-15-15zm75-171.213v-38.787h15c8.284 0 15-6.716 15-15v-91c0-8.284-6.716-15-15-15h-240c-8.284 0-15 6.716-15 15v91c0 8.284 6.716 15 15 15h15v38.787l-55.606 55.606c-2.813 2.813-4.394 6.628-4.394 10.607v271c0 8.284 6.716 15 15 15h300c8.284 0 15-6.716 15-15v-271c0-3.978-1.581-7.794-4.394-10.607zm-210-129.787h210v61h-210zm240 452h-270v-249.787l55.606-55.607c2.813-2.813 4.394-6.628 4.394-10.607v-45h150v45c0 3.978 1.581 7.794 4.394 10.607l55.606 55.607zm-240-226v180c0 8.284 6.716 15 15 15h180c8.284 0 15-6.716 15-15v-180c0-8.284-6.716-15-15-15h-180c-8.284 0-15 6.716-15 15zm30 15h150v150h-150zm360 76c0-24.813-20.187-45-45-45s-45 20.187-45 45v120c0 24.813 20.187 45 45 45s45-20.187 45-45c.01-1.375 0-119.899 0-120zm-30 120c0 8.271-6.729 15-15 15s-15-6.729-15-15v-45h30zm0-75h-30v-45c0-8.271 6.729-15 15-15s15 6.729 15 15z" fill="url(#SVGID_1_)"/></g></g></svg>