<svg id="Capa_1" enable-background="new 0 0 512 512" height="512" viewBox="0 0 512 512" width="512" xmlns="http://www.w3.org/2000/svg" xmlns:xlink="http://www.w3.org/1999/xlink"><linearGradient id="SVGID_1_" gradientUnits="userSpaceOnUse" x1="256" x2="256" y1="512" y2="0"><stop offset="0" stop-color="#fd5900"/><stop offset="1" stop-color="#ffde00"/></linearGradient><g><g><path d="m286 317h-15v-15c0-8.284-6.716-15-15-15s-15 6.716-15 15v15h-15c-8.284 0-15 6.716-15 15s6.716 15 15 15h15v15c0 8.284 6.716 15 15 15s15-6.716 15-15v-15h15c8.284 0 15-6.716 15-15s-6.716-15-15-15zm-30-90c-57.897 0-105 47.103-105 105s47.103 105 105 105 105-47.103 105-105-47.103-105-105-105zm0 180c-41.355 0-75-33.645-75-75s33.645-75 75-75 75 33.645 75 75-33.645 75-75 75zm194.938 88.642-30-330c-.702-7.726-7.18-13.642-14.938-13.642h-60v-62c0-49.626-40.374-90-90-90s-90 40.374-90 90v62h-60c-7.758 0-14.236 5.916-14.938 13.642l-30 330c-.381 4.197 1.02 8.361 3.862 11.473s6.862 4.885 11.076 4.885h360c4.214 0 8.234-1.773 11.076-4.885s4.244-7.276 3.862-11.473zm-254.938-405.642c0-33.084 26.916-60 60-60s60 26.916 60 60v62h-120zm-103.575 392 27.273-300h272.604l27.273 300z" fill="url(#SVGID_1_)"/></g></g></svg>