<svg id="Capa_1" enable-background="new 0 0 512 512" height="512" viewBox="0 0 512 512" width="512" xmlns="http://www.w3.org/2000/svg" xmlns:xlink="http://www.w3.org/1999/xlink"><linearGradient id="SVGID_1_" gradientUnits="userSpaceOnUse" x1="256" x2="256" y1="512" y2="0"><stop offset="0" stop-color="#fd3a84"/><stop offset="1" stop-color="#ffa68d"/></linearGradient><g><g><path d="m372.615 118.172-254.443 254.443c-5.858 5.858-5.858 15.355 0 21.213s15.356 5.857 21.213 0l254.443-254.443c5.858-5.858 5.858-15.355 0-21.213s-15.356-5.858-21.213 0zm-116.615-118.172c-140.95 0-256 115.041-256 256 0 140.951 115.041 256 256 256 140.95 0 256-115.041 256-256 0-140.951-115.041-256-256-256zm0 482c-124.616 0-226-101.383-226-226s101.384-226 226-226 226 101.383 226 226-101.383 226-226 226z" fill="url(#SVGID_1_)"/></g></g></svg>