<svg id="Capa_1" enable-background="new 0 0 512.064 512.064" height="512" viewBox="0 0 512.064 512.064" width="512" xmlns="http://www.w3.org/2000/svg" xmlns:xlink="http://www.w3.org/1999/xlink"><linearGradient id="SVGID_1_" gradientUnits="userSpaceOnUse" x1="39.512" x2="472.525" y1="472.538" y2="39.525"><stop offset="0" stop-color="#a93aff"/><stop offset="1" stop-color="#ff81ff"/></linearGradient><g><g><path d="m472.526 39.525c-52.699-52.699-138.312-52.702-191.014 0l-242 242c-52.662 52.662-52.662 138.35 0 191.012 52.692 52.696 138.306 52.711 191.021-.006 3.079-3.081 244.925-245.229 245.035-245.347 49.591-52.963 48.667-135.948-3.042-187.659zm-263.213 411.8c-40.976 40.977-107.611 40.978-148.588 0-40.965-40.965-40.965-107.621 0-148.586l110.394-110.394 148.52 148.52c-.099.098-106.913 107.042-110.326 110.46zm244.517-244.818c-43.589 43.643-81.217 81.317-112.992 113.131l-148.507-148.506 110.394-110.393c40.976-40.975 107.611-40.976 148.588 0 40.197 40.199 41.284 104.183 2.517 145.768z" fill="url(#SVGID_1_)"/></g></g></svg>