<svg id="Capa_1" enable-background="new 0 0 513 513" height="512" viewBox="0 0 513 513" width="512" xmlns="http://www.w3.org/2000/svg" xmlns:xlink="http://www.w3.org/1999/xlink"><linearGradient id="SVGID_1_" gradientUnits="userSpaceOnUse" x1="256.5" x2="256.5" y1="512.5" y2=".5"><stop offset="0" stop-color="#00b59c"/><stop offset="1" stop-color="#9cffac"/></linearGradient><g><g><path d="m227 360.5h15v15c0 8.284 6.716 15 15 15s15-6.716 15-15v-15h15c8.284 0 15-6.716 15-15s-6.716-15-15-15h-15v-15c0-8.284-6.716-15-15-15s-15 6.716-15 15v15h-15c-8.284 0-15 6.716-15 15s6.716 15 15 15zm271-150h-111.154l107.577-107.577c11.333-11.332 17.578-26.389 17.587-42.396.009-16.025-6.237-31.101-17.587-42.45-23.373-23.372-61.43-23.376-84.846 0l-192.423 192.423h-202.154c-8.284 0-15 6.716-15 15 0 51.764 15.447 101.592 44.67 144.097 26.576 38.653 62.845 68.979 105.33 88.183v39.72c0 8.284 6.716 15 15 15h183c8.284 0 15-6.716 15-15v-39.72c42.485-19.204 78.754-49.53 105.33-88.183 29.223-42.505 44.67-92.333 44.67-144.097 0-8.284-6.716-15-15-15zm-67.219-171.201c11.71-11.69 30.742-11.694 42.429-.009 5.679 5.679 8.805 13.215 8.8 21.22-.004 8-3.13 15.529-8.8 21.199l-128.79 128.791h-84.84zm-88.414 394.689c-5.662 2.294-9.367 7.793-9.367 13.902v34.61h-153v-34.609c0-6.109-3.705-11.608-9.367-13.902-80.76-32.72-134.505-107.642-140.142-193.489h452.018c-5.637 85.847-59.382 160.769-140.142 193.488zm-243.782-313.69 4.595 4.595c10.846 10.846 16.82 25.267 16.82 40.607 0 8.284 6.716 15 15 15s15-6.716 15-15c0-15.339 5.974-29.76 16.821-40.607l4.594-4.595c54.921-3.327 98.585-49.056 98.585-104.798 0-8.284-6.716-15-15-15-55.743 0-101.471 43.664-104.798 98.585l-4.594 4.595c-3.978 3.978-7.514 8.278-10.607 12.83-3.094-4.553-6.629-8.853-10.607-12.83l-4.595-4.595c-3.328-54.921-49.056-98.585-104.799-98.585-8.284 0-15 6.716-15 15 0 55.743 43.664 101.471 98.585 104.798zm139.489-87.872c-6.435 27.791-28.357 49.714-56.148 56.148 6.434-27.791 28.357-49.714 56.148-56.148zm-150 56.148c-27.791-6.434-49.714-28.357-56.148-56.148 27.791 6.434 49.714 28.357 56.148 56.148z" fill="url(#SVGID_1_)"/></g></g></svg>