<svg id="Capa_1" enable-background="new 0 0 512.054 512.054" height="512" viewBox="0 0 512.054 512.054" width="512" xmlns="http://www.w3.org/2000/svg" xmlns:xlink="http://www.w3.org/1999/xlink"><linearGradient id="SVGID_1_" gradientUnits="userSpaceOnUse" x1="35.174" x2="476.88" y1="476.88" y2="35.174"><stop offset="0" stop-color="#fd5900"/><stop offset="1" stop-color="#ffde00"/></linearGradient><g><g><path d="m277.126 171.288c-2.813-2.813-6.628-4.393-10.606-4.393-3.979 0-7.793 1.58-10.606 4.393l-84.853 84.853c-5.858 5.858-5.858 15.355 0 21.213l63.64 63.64c2.813 2.813 6.628 4.393 10.606 4.393 3.979 0 7.793-1.58 10.606-4.393l84.853-84.853c5.858-5.858 5.858-15.355 0-21.213zm-31.82 137.886-42.426-42.427 63.639-63.64 42.426 42.427zm84.853-148.492c5.858-5.858 5.858-15.355 0-21.213s-15.355-5.858-21.213 0-5.858 15.355 0 21.213c5.858 5.857 15.355 5.857 21.213 0zm21.213 21.213c-5.858 5.858-5.858 15.355 0 21.213s15.355 5.858 21.213 0 5.858-15.355 0-21.213-15.355-5.858-21.213 0zm19.442-61.868c5.858-5.858 5.858-15.355 0-21.213s-15.355-5.858-21.213 0-5.858 15.355 0 21.213c5.857 5.858 15.355 5.858 21.213 0zm21.213 21.213c-5.858 5.858-5.858 15.355 0 21.213s15.355 5.858 21.213 0 5.858-15.355 0-21.213-15.355-5.858-21.213 0zm-293.213 208.36c-5.858 5.858-5.858 15.355 0 21.213s15.355 5.858 21.213 0 5.858-15.355 0-21.213c-5.858-5.857-15.355-5.857-21.213 0zm42.426 42.427c-5.858 5.858-5.858 15.355 0 21.213s15.355 5.858 21.213 0 5.858-15.355 0-21.213-15.355-5.858-21.213 0zm19.213-61.64c5.858-5.858 5.858-15.355 0-21.213s-15.355-5.858-21.213 0-5.858 15.355 0 21.213 15.355 5.858 21.213 0zm21.214 21.213c-5.858 5.858-5.858 15.355 0 21.213s15.355 5.858 21.213 0 5.858-15.355 0-21.213c-5.858-5.857-15.356-5.857-21.213 0zm295.212-316.426c-46.787-46.788-122.918-46.788-169.705 0l-272 272c-46.902 46.902-46.896 122.81 0 169.706 46.788 46.789 122.919 46.787 169.705 0l272-272c46.903-46.902 46.896-122.81 0-169.706zm-21.212 148.492-272 272c-35.177 35.177-92.107 35.172-127.279 0-35.176-35.177-35.172-92.107 0-127.279l272-272c35.177-35.177 92.107-35.172 127.279 0 35.176 35.177 35.172 92.107 0 127.279z" fill="url(#SVGID_1_)"/></g></g></svg>