<svg id="Capa_1" enable-background="new 0 0 512 512" height="512" viewBox="0 0 512 512" width="512" xmlns="http://www.w3.org/2000/svg" xmlns:xlink="http://www.w3.org/1999/xlink"><linearGradient id="SVGID_1_" gradientUnits="userSpaceOnUse" x1="256" x2="256" y1="512" y2="0"><stop offset="0" stop-color="#fd3a84"/><stop offset="1" stop-color="#ffa68d"/></linearGradient><g><g><path d="m196 436c24.813 0 45-20.187 45-45v-75c0-24.813-20.187-45-45-45s-45 20.187-45 45v75c0 24.813 20.187 45 45 45zm-15-120c0-8.271 6.729-15 15-15s15 6.729 15 15v75c0 8.271-6.729 15-15 15s-15-6.729-15-15zm135 120c24.813 0 45-20.187 45-45v-75c0-24.813-20.187-45-45-45s-45 20.187-45 45v75c0 24.813 20.186 45 45 45zm-15-120c0-8.271 6.729-15 15-15s15 6.729 15 15v75c0 8.271-6.729 15-15 15s-15-6.729-15-15zm-105-75c24.813 0 45-20.187 45-45v-75c0-24.813-20.187-45-45-45s-45 20.187-45 45v75c0 24.813 20.187 45 45 45zm-15-120c0-8.271 6.729-15 15-15s15 6.729 15 15v75c0 8.271-6.729 15-15 15s-15-6.729-15-15zm135 120c24.813 0 45-20.187 45-45v-75c0-24.813-20.187-45-45-45s-45 20.187-45 45v75c0 24.813 20.186 45 45 45zm-15-120c0-8.271 6.729-15 15-15s15 6.729 15 15v75c0 8.271-6.729 15-15 15s-15-6.729-15-15zm105-121h-300c-8.284 0-15 6.716-15 15v482c0 8.284 6.716 15 15 15h300c8.284 0 15-6.716 15-15v-482c0-8.284-6.716-15-15-15zm-15 482h-270v-452h270z" fill="url(#SVGID_1_)"/></g></g></svg>