<svg id="Capa_1" enable-background="new 0 0 512 512" height="512" viewBox="0 0 512 512" width="512" xmlns="http://www.w3.org/2000/svg" xmlns:xlink="http://www.w3.org/1999/xlink"><linearGradient id="SVGID_1_" gradientUnits="userSpaceOnUse" x1="256" x2="256" y1="512" y2="0"><stop offset="0" stop-color="#5558ff"/><stop offset="1" stop-color="#00c0ff"/></linearGradient><g><g><path d="m226.002 362h15v15c0 8.284 6.716 15 15 15s15-6.716 15-15v-15h15c8.284 0 15-6.716 15-15s-6.716-15-15-15h-15v-15c0-8.284-6.716-15-15-15s-15 6.716-15 15v15h-15c-8.284 0-15 6.716-15 15s6.715 15 15 15zm120-210h-15v-47c0-8.284-6.716-15-15-15h-45v-60h105c8.284 0 15-6.716 15-15s-6.716-15-15-15h-172.918c-22.96 0-45.419 6.38-64.949 18.451s-35.281 29.305-45.549 49.841c-3.705 7.41-.702 16.42 6.708 20.125 7.424 3.713 16.427.687 20.124-6.708 15.948-31.896 48.006-51.709 83.666-51.709h37.918v60h-45c-8.284 0-15 6.716-15 15v47h-15c-41.355 0-75 33.645-75 75v270c0 8.284 6.716 15 15 15h300c8.284 0 15-6.716 15-15v-270c0-41.355-33.645-75-75-75zm-135-32h90v32h-90zm180 362h-270v-255c0-24.813 20.187-45 45-45h180c24.813 0 45 20.187 45 45zm-45-240h-180c-8.284 0-15 6.716-15 15v180c0 8.284 6.716 15 15 15h180c8.284 0 15-6.716 15-15v-180c0-8.284-6.716-15-15-15zm-15 180h-150v-150h150z" fill="url(#SVGID_1_)"/></g></g></svg>