<svg id="Capa_1" enable-background="new 0 0 512 512" height="512" viewBox="0 0 512 512" width="512" xmlns="http://www.w3.org/2000/svg" xmlns:xlink="http://www.w3.org/1999/xlink"><linearGradient id="SVGID_1_" gradientUnits="userSpaceOnUse" x1="256" x2="256" y1="481" y2="31"><stop offset="0" stop-color="#fd5900"/><stop offset="1" stop-color="#ffde00"/></linearGradient><g><g><path d="m226 331h15v15c0 8.284 6.716 15 15 15s15-6.716 15-15v-15h15c8.284 0 15-6.716 15-15s-6.716-15-15-15h-15v-15c0-8.284-6.716-15-15-15s-15 6.716-15 15v15h-15c-8.284 0-15 6.716-15 15s6.716 15 15 15zm30 90c57.897 0 105-47.103 105-105s-47.103-105-105-105-105 47.103-105 105 47.103 105 105 105zm0-180c41.355 0 75 33.645 75 75s-33.645 75-75 75-75-33.645-75-75 33.645-75 75-75zm241-150h-151v-45c0-8.284-6.716-15-15-15h-150c-8.284 0-15 6.716-15 15v45h-151c-8.284 0-15 6.716-15 15v60c0 8.284 6.716 15 15 15h15v285c0 8.284 6.716 15 15 15h422c8.284 0 15-6.716 15-15v-285h15c8.284 0 15-6.716 15-15v-60c0-8.284-6.716-15-15-15zm-301-30h120v30h-120zm256 390h-392v-270h392zm30-300h-452v-30h452z" fill="url(#SVGID_1_)"/></g></g></svg>