<svg id="Capa_1" enable-background="new 0 0 512 512" height="512" viewBox="0 0 512 512" width="512" xmlns="http://www.w3.org/2000/svg" xmlns:xlink="http://www.w3.org/1999/xlink"><linearGradient id="SVGID_1_" gradientUnits="userSpaceOnUse" x1="256" x2="256" y1="391" y2="121"><stop offset="0" stop-color="#fd3a84"/><stop offset="1" stop-color="#ffa68d"/></linearGradient><g><g><path d="m432.122 148.466c-51.364-22.048-120.174-27.466-176.122-27.466-56.218 0-124.45 5.286-176.122 27.466-48.108 20.65-79.878 55.392-79.878 107.534s31.77 86.884 79.878 107.534c51.673 22.179 119.9 27.466 176.122 27.466 56.221 0 124.449-5.287 176.122-27.466 48.108-20.65 79.878-55.392 79.878-107.534s-31.77-86.884-79.878-107.534zm-342.122 186.743c-40.358-17.805-60-43.727-60-79.209s19.642-61.404 60-79.209zm302 10.626c-35.763 10.072-81.334 15.165-136 15.165s-100.237-5.093-136-15.165v-179.67c35.763-10.072 81.334-15.165 136-15.165s100.237 5.093 136 15.165zm30-10.626v-158.418c40.358 17.805 60 43.727 60 79.209s-19.642 61.404-60 79.209zm-241-124.209c0 8.284 6.716 15 15 15h120c8.284 0 15-6.716 15-15s-6.716-15-15-15h-120c-8.284 0-15 6.716-15 15zm135 75h-120c-8.284 0-15 6.716-15 15s6.716 15 15 15h120c8.284 0 15-6.716 15-15s-6.716-15-15-15z" fill="url(#SVGID_1_)"/></g></g></svg>