<svg id="Capa_1" enable-background="new 0 0 512 512" height="512" viewBox="0 0 512 512" width="512" xmlns="http://www.w3.org/2000/svg" xmlns:xlink="http://www.w3.org/1999/xlink"><linearGradient id="SVGID_1_" gradientUnits="userSpaceOnUse" x1="256" x2="256" y1="512" y2="0"><stop offset="0" stop-color="#a93aff"/><stop offset="1" stop-color="#ff81ff"/></linearGradient><g><g><path d="m226 181h15v15c0 8.284 6.716 15 15 15s15-6.716 15-15v-15h15c8.284 0 15-6.716 15-15s-6.716-15-15-15h-15v-15c0-8.284-6.716-15-15-15s-15 6.716-15 15v15h-15c-8.284 0-15 6.716-15 15s6.716 15 15 15zm186.498-179.519c-5.195-2.498-11.365-1.796-15.868 1.807l-28.13 22.503-28.129-22.504c-5.479-4.383-13.263-4.383-18.741 0l-28.13 22.504-28.129-22.504c-5.479-4.383-13.263-4.383-18.741 0l-28.13 22.504-28.129-22.504c-5.479-4.383-13.263-4.383-18.741 0l-28.13 22.504-28.129-22.504c-4.503-3.603-10.672-4.304-15.868-1.807-5.198 2.498-8.503 7.754-8.503 13.52v482c0 5.766 3.305 11.022 8.502 13.52 5.196 2.498 11.366 1.796 15.868-1.807l28.129-22.504 28.129 22.504c5.479 4.383 13.263 4.383 18.741 0l28.129-22.504 28.129 22.504c5.479 4.383 13.263 4.383 18.741 0l28.129-22.504 28.129 22.504c5.479 4.383 13.263 4.383 18.741 0l28.129-22.504 28.129 22.504c4.519 3.615 10.69 4.295 15.868 1.807 5.197-2.498 8.502-7.753 8.502-13.52v-482c.005-5.766-3.3-11.022-8.497-13.519zm-21.498 464.31-13.129-10.504c-5.479-4.383-13.263-4.383-18.741 0l-28.13 22.504-28.129-22.504c-5.478-4.383-13.263-4.383-18.741 0l-28.13 22.504-28.129-22.504c-5.479-4.383-13.263-4.383-18.741 0l-28.13 22.504-28.129-22.504c-5.479-4.383-13.263-4.383-18.741 0l-13.13 10.504v-419.582l13.129 10.504c5.479 4.383 13.263 4.383 18.741 0l28.13-22.504 28.129 22.504c5.479 4.383 13.263 4.383 18.741 0l28.13-22.504 28.129 22.504c5.479 4.383 13.263 4.383 18.741 0l28.13-22.504 28.129 22.504c5.479 4.383 13.263 4.383 18.741 0l13.13-10.504zm-75-164.791h-120c-8.284 0-15 6.716-15 15s6.716 15 15 15h120c8.284 0 15-6.716 15-15s-6.716-15-15-15zm0-60h-120c-8.284 0-15 6.716-15 15s6.716 15 15 15h120c8.284 0 15-6.716 15-15s-6.716-15-15-15zm0 120h-120c-8.284 0-15 6.716-15 15s6.716 15 15 15h120c8.284 0 15-6.716 15-15s-6.716-15-15-15z" fill="url(#SVGID_1_)"/></g></g></svg>