<svg id="Capa_1" enable-background="new 0 0 512 512" height="512" viewBox="0 0 512 512" width="512" xmlns="http://www.w3.org/2000/svg" xmlns:xlink="http://www.w3.org/1999/xlink"><linearGradient id="SVGID_1_" gradientUnits="userSpaceOnUse" x1="256" x2="256" y1="512" y2="0"><stop offset="0" stop-color="#00b59c"/><stop offset="1" stop-color="#9cffac"/></linearGradient><g><g><path d="m421 302c-8.284 0-15 6.716-15 15s6.716 15 15 15 15-6.716 15-15-6.716-15-15-15zm0-60c-41.355 0-75 33.645-75 75 0 35.921 25.389 66.01 59.161 73.302-6.557 51.64-50.769 91.698-104.161 91.698-57.897 0-105-47.103-105-105v-23.058c99.853-84.592 150-116.007 150-203.326v-45.616c0-36.991-26.925-67.792-62.202-73.885-5.867-18.037-22.829-31.115-42.798-31.115-24.813 0-45 20.187-45 45s20.187 45 45 45c18.957 0 35.201-11.788 41.818-28.414 19.097 5.205 33.182 22.691 33.182 43.414v45.616c0 51.704-20.797 78.924-69.383 121.384h-131.415c-48.467-42.219-69.202-69.296-69.202-121.384v-45.616c0-20.723 14.085-38.209 33.181-43.414 6.618 16.626 22.863 28.414 41.819 28.414 24.813 0 45-20.187 45-45s-20.187-45-45-45c-19.968 0-36.931 13.078-42.798 31.115-35.276 6.093-62.202 36.894-62.202 73.885v45.616c0 37.444 9.487 66.576 30.762 94.457 24.728 32.408 63.583 61.744 119.238 108.87v23.057c0 74.439 60.561 135 135 135 69.845 0 127.469-53.316 134.317-121.387 34.528-6.703 60.683-37.154 60.683-73.613 0-41.355-33.645-75-75-75zm-180-182c-8.271 0-15-6.729-15-15s6.729-15 15-15 15 6.729 15 15-6.729 15-15 15zm-120-30c8.271 0 15 6.729 15 15s-6.729 15-15 15-15-6.729-15-15 6.729-15 15-15zm29.702 272h60.53c-10.42 8.706-19.833 16.557-30.234 25.339-10.46-8.824-19.981-16.745-30.296-25.339zm270.298 60c-24.813 0-45-20.187-45-45s20.187-45 45-45 45 20.187 45 45-20.187 45-45 45z" fill="url(#SVGID_1_)"/></g></g></svg>