<svg id="Capa_1" enable-background="new 0 0 512 512" height="512" viewBox="0 0 512 512" width="512" xmlns="http://www.w3.org/2000/svg" xmlns:xlink="http://www.w3.org/1999/xlink"><linearGradient id="SVGID_1_" gradientUnits="userSpaceOnUse" x1="256" x2="256" y1="481" y2="31"><stop offset="0" stop-color="#fd5900"/><stop offset="1" stop-color="#ffde00"/></linearGradient><g><g><path d="m286 121h-15v-15c0-8.284-6.716-15-15-15s-15 6.716-15 15v15h-15c-8.284 0-15 6.716-15 15s6.716 15 15 15h15v15c0 8.284 6.716 15 15 15s15-6.716 15-15v-15h15c8.284 0 15-6.716 15-15s-6.716-15-15-15zm-30 150h-150c-8.284 0-15 6.716-15 15v90c0 8.284 6.716 15 15 15h150c8.284 0 15-6.716 15-15v-90c0-8.284-6.716-15-15-15zm-15 90h-120v-60h120zm256-300h-167.979c-19.62-19.144-45.866-30-73.021-30-27.156 0-53.401 10.856-73.021 30h-167.979c-8.284 0-15 6.716-15 15v120c0 8.284 6.716 15 15 15h15v255c0 8.284 6.716 15 15 15h422c8.284 0 15-6.716 15-15v-255h15c8.284 0 15-6.716 15-15v-120c0-8.284-6.716-15-15-15zm-106 390h-60v-150h60zm61 0h-31v-165c0-8.284-6.716-15-15-15h-90c-8.284 0-15 6.716-15 15v165h-241v-240h122.979c19.619 19.144 45.865 30 73.021 30s53.401-10.857 73.021-30h122.979zm30-270h-159.356c-4.25 0-8.3 1.802-11.145 4.96-14.547 16.147-34.257 25.04-55.499 25.04s-40.952-8.893-55.498-25.04c-2.845-3.157-6.895-4.96-11.145-4.96h-159.357v-90h159.357c4.25 0 8.3-1.803 11.145-4.96 14.546-16.147 34.256-25.04 55.498-25.04s40.952 8.893 55.499 25.04c2.845 3.157 6.895 4.96 11.145 4.96h159.356z" fill="url(#SVGID_1_)"/></g></g></svg>