<svg id="Capa_1" enable-background="new 0 0 512 512" height="512" viewBox="0 0 512 512" width="512" xmlns="http://www.w3.org/2000/svg" xmlns:xlink="http://www.w3.org/1999/xlink"><linearGradient id="SVGID_1_" gradientUnits="userSpaceOnUse" x1="256" x2="256" y1="512" y2="0"><stop offset="0" stop-color="#5558ff"/><stop offset="1" stop-color="#00c0ff"/></linearGradient><g><g><path d="m195.5 0h-180c-8.284 0-15 6.716-15 15v60c0 8.284 6.716 15 15 15h15v407c0 8.284 6.716 15 15 15h120c8.284 0 15-6.716 15-15v-407h15c8.284 0 15-6.716 15-15v-60c0-8.284-6.716-15-15-15zm-45 482h-90v-92h90zm0-122h-90v-180h90zm0-210h-90v-60h90zm30-90h-150v-30h150zm327.076 96.885c-2.842-3.112-6.861-4.885-11.076-4.885h-240c-4.215 0-8.234 1.773-11.076 4.885s-4.244 7.276-3.862 11.473l30 330c.702 7.726 7.18 13.642 14.938 13.642h180c7.758 0 14.236-5.916 14.938-13.642l30-330c.382-4.197-1.02-8.361-3.862-11.473zm-54.774 325.115h-152.604l-20.735-228.086c7.16 1.797 14.489 3.086 22.037 3.086 12.977 0 25.31-3.797 37.237-7.468 12.03-3.703 24.468-7.532 37.763-7.532 13.296 0 25.734 3.829 37.764 7.532 11.926 3.672 24.259 7.468 37.236 7.468 7.548 0 14.877-1.288 22.037-3.085zm23.643-260.078c-9.252 2.82-17.409 5.078-24.945 5.078-8.464 0-17.707-2.845-28.41-6.14-13.49-4.153-28.781-8.86-46.59-8.86-17.808 0-33.099 4.707-46.589 8.86-10.704 3.295-19.947 6.14-28.411 6.14-7.535 0-15.692-2.257-24.945-5.078l-3.629-39.922h207.148zm-114.945 125.078c8.284 0 15-6.716 15-15s-6.716-15-15-15-15 6.716-15 15 6.716 15 15 15zm45 15c-8.284 0-15 6.716-15 15s6.716 15 15 15 15-6.716 15-15-6.715-15-15-15zm0 60h-60c-8.284 0-15 6.716-15 15s6.716 15 15 15h60c8.284 0 15-6.716 15-15s-6.716-15-15-15z" fill="url(#SVGID_1_)"/></g></g></svg>