<svg id="Capa_1" enable-background="new 0 0 512 512" height="512" viewBox="0 0 512 512" width="512" xmlns="http://www.w3.org/2000/svg" xmlns:xlink="http://www.w3.org/1999/xlink"><linearGradient id="SVGID_1_" gradientUnits="userSpaceOnUse" x1="256" x2="256" y1="512" y2="0"><stop offset="0" stop-color="#5558ff"/><stop offset="1" stop-color="#00c0ff"/></linearGradient><g><g><path d="m286 0h-210c-4.195 0-8.198 1.756-11.038 4.843s-4.258 7.222-3.91 11.402l24.429 293.15c3.755 45.062 15.717 88.454 35.519 129.05v58.555c0 8.284 6.716 15 15 15h90c8.284 0 15-6.716 15-15v-58.554c19.802-40.595 31.764-83.987 35.519-129.05l24.429-293.15c.348-4.18-1.07-8.315-3.91-11.402s-6.843-4.844-11.038-4.844zm-75 482h-60v-32h60zm35.623-175.096c-3.282 39.384-13.379 77.387-30.033 113.096h-71.179c-16.655-35.71-26.751-73.713-30.033-113.096l-18.076-216.904h167.396zm20.575-246.904h-172.396l-2.5-30h177.396zm-120.946 256.246c.648 7.774 7.147 13.754 14.949 13.754h39.598c7.801 0 14.3-5.98 14.948-13.754l15-180c.348-4.18-1.07-8.315-3.91-11.402s-6.843-4.843-11.038-4.843h-69.598c-4.195 0-8.198 1.757-11.038 4.843-2.84 3.087-4.258 7.222-3.91 11.402zm53.245-166.246-12.5 150h-11.994l-12.5-150zm216.072 26.551c15.786-13.077 35.431-29.352 35.431-71.551 0-44.623-.023-45.87 0-90 0-8.284-6.716-15-15-15h-60c-8.284 0-15 6.716-15 15v90c0 8.284 6.716 15 15 15h43.749c-3.147 16.723-11.979 24.055-23.318 33.449-15.785 13.077-35.431 29.352-35.431 71.551v272c0 8.284 6.716 15 15 15h60c8.284 0 15-6.716 15-15v-212c0-35.881-25.333-65.942-59.049-73.276 2.853-17.956 11.896-25.462 23.618-35.173zm-24.569-86.551v-60h30v60zm30 195v197h-30v-239.43c17.461 6.191 30 22.874 30 42.43z" fill="url(#SVGID_1_)"/></g></g></svg>