<svg id="Capa_1" enable-background="new 0 0 512.121 512.121" height="512" viewBox="0 0 512.121 512.121" width="512" xmlns="http://www.w3.org/2000/svg" xmlns:xlink="http://www.w3.org/1999/xlink"><linearGradient id="SVGID_1_" gradientUnits="userSpaceOnUse" x1="256.06" x2="256.06" y1="512.121" y2="0"><stop offset="0" stop-color="#fd5900"/><stop offset="1" stop-color="#ffde00"/></linearGradient><g><g><path d="m451.06 332.121h-143.333l-87.292-321.053c-2.17-7.98-10.391-12.698-18.373-10.549l-144.9 39c-3.846 1.035-7.122 3.557-9.106 7.009-1.985 3.452-2.515 7.552-1.474 11.396 1.385 5.115 1.221 4.51 120 443.118 1.771 6.539 7.704 11.079 14.479 11.079h270c8.284 0 15-6.716 15-15v-150c-.001-8.284-6.716-15-15.001-15zm-371.594-267.538 115.946-31.207 22.443 82.542-106.467 66.542zm266.594 417.538h-153.522l-72.957-269.403 106.495-66.559 55.71 204.898c1.776 6.531 7.706 11.064 14.475 11.064h49.799zm90 0h-60v-120h60z" fill="url(#SVGID_1_)"/></g></g></svg>