<svg id="Capa_1" enable-background="new 0 0 512 512" height="512" viewBox="0 0 512 512" width="512" xmlns="http://www.w3.org/2000/svg" xmlns:xlink="http://www.w3.org/1999/xlink"><linearGradient id="SVGID_1_" gradientUnits="userSpaceOnUse" x1="46.815" x2="507.606" y1="465.185" y2="4.394"><stop offset="0" stop-color="#5558ff"/><stop offset="1" stop-color="#00c0ff"/></linearGradient><g><g><path d="m507.606 4.393c-5.857-5.858-15.355-5.858-21.213 0l-106.293 106.294-10.693-10.693c-5.852-5.854-15.384-5.831-21.213 0l-31.693 31.693-10.395-10.395c-3.77-3.771-13.655-7.558-21.213 0-.001.001-.001.002-.002.002-119.278 119.229-171.744 171.824-212.088 212.187-8.021 8.978-3.742 18.064.803 21.957l9.661 9.661-47.056 47.056-10.604-10.605c-5.857-5.857-15.355-5.858-21.213 0s-5.858 15.355 0 21.213c7.409 7.409 73.169 73.17 84.843 84.844 5.857 5.857 15.355 5.859 21.213 0 5.858-5.858 5.858-15.355 0-21.213l-10.592-10.592 47.109-47.003 10.415 10.415c5.857 5.858 15.361 5.853 21.214 0 2.296-2.296 209.339-209.335 212.1-212.097.001-.002.003-.003.005-.005s.003-.003.005-.005c6.988-6.992 5.713-16.357.429-21.642-.993-.993-10.821-9.964-10.821-9.964l31.691-31.691c.001-.001.002-.001.003-.002 5.86-5.859 5.857-15.357 0-21.213l-10.695-10.695 106.293-106.293c5.858-5.858 5.858-15.356 0-21.214zm-428.962 450.195-21.221-21.221 47.056-47.056 21.274 21.274zm89.344-47.195-63.382-63.382c5.415-5.415 12.674-12.674 21.208-21.209l21.086 21.086c5.857 5.857 15.355 5.858 21.213 0s5.858-15.355 0-21.213l-21.086-21.086c6.74-6.74 13.86-13.86 21.208-21.209l21.087 21.087c5.857 5.857 15.355 5.858 21.213 0s5.858-15.355 0-21.213l-21.087-21.087c7.049-7.049 14.16-14.16 21.208-21.209l21.088 21.088c5.857 5.857 15.355 5.858 21.213 0s5.858-15.355 0-21.213l-21.088-21.088c7.348-7.349 14.469-14.469 21.208-21.209l21.088 21.088c5.857 5.857 15.355 5.858 21.213 0s5.858-15.355 0-21.213l-21.088-21.088c8.533-8.534 15.792-15.793 21.208-21.209 37.672 37.671 28.962 28.962 63.387 63.386-39.38 39.379-150.169 150.166-190.897 190.893zm191.112-233.107-21.386-21.386 21.087-21.087c4.339 4.34 17.072 17.071 21.387 21.386z" fill="url(#SVGID_1_)"/></g></g></svg>