<svg id="Capa_1" enable-background="new 0 0 511.972 511.972" height="512" viewBox="0 0 511.972 511.972" width="512" xmlns="http://www.w3.org/2000/svg" xmlns:xlink="http://www.w3.org/1999/xlink"><linearGradient id="SVGID_1_" gradientUnits="userSpaceOnUse" x1="21.931" x2="489.99" y1="490.016" y2="21.956"><stop offset="0" stop-color="#fd3a84"/><stop offset="1" stop-color="#ffa68d"/></linearGradient><g><g><path d="m489.988 21.955c-29.243-29.243-76.824-29.241-106.065 0-13.987 13.988-31.286 42.186-42.066 68.573-3.477 8.51-6.157 16.51-8.06 23.979l-219.313 219.318c-7.469 1.903-15.469 4.583-23.979 8.06-26.388 10.781-54.586 28.079-68.573 42.066-29.242 29.242-29.242 76.823 0 106.065 29.241 29.242 76.823 29.244 106.066 0 13.987-13.987 31.285-42.186 42.065-68.573 3.477-8.51 6.157-16.51 8.059-23.979l219.313-219.318c7.469-1.903 15.47-4.584 23.979-8.06 26.388-10.781 54.586-28.079 68.573-42.066 29.31-29.306 29.316-76.751.001-106.065zm-347.696 388.143c-10.408 25.476-26.063 49.261-35.507 58.706-17.587 17.586-46.051 17.589-63.641 0-17.545-17.545-17.545-46.094 0-63.64 9.445-9.445 33.23-25.1 58.706-35.507 17.073-6.976 29.504-9.343 37.453-9.343 5.215 0 8.502 1.019 9.907 2.423 3.548 3.548 4.633 19.088-6.918 47.361zm36.332-55.561c-1.858-5.042-4.585-9.398-8.2-13.013s-7.971-6.342-13.013-8.2l175.885-175.889c1.858 5.042 4.585 9.398 8.2 13.013s7.97 6.344 13.012 8.202zm290.151-247.729c-9.445 9.445-33.23 25.1-58.706 35.508-28.273 11.551-43.813 10.466-47.36 6.919s-4.632-19.087 6.919-47.36c10.408-25.476 26.063-49.261 35.508-58.706 17.543-17.543 46.093-17.547 63.64 0 17.585 17.585 17.587 46.051-.001 63.639z" fill="url(#SVGID_1_)"/></g></g></svg>