<svg id="Capa_1" enable-background="new 0 0 512 512" height="512" viewBox="0 0 512 512" width="512" xmlns="http://www.w3.org/2000/svg" xmlns:xlink="http://www.w3.org/1999/xlink"><linearGradient id="SVGID_1_" gradientUnits="userSpaceOnUse" x1="256" x2="256" y1="512" y2="0"><stop offset="0" stop-color="#5558ff"/><stop offset="1" stop-color="#00c0ff"/></linearGradient><g><g><path d="m286 241h-15v-15c0-8.284-6.716-15-15-15s-15 6.716-15 15v15h-15c-8.284 0-15 6.716-15 15s6.716 15 15 15h15v15c0 8.284 6.716 15 15 15s15-6.716 15-15v-15h15c8.284 0 15-6.716 15-15s-6.716-15-15-15zm90-241h-240c-24.813 0-45 20.187-45 45v422c0 24.813 20.187 45 45 45h240c24.813 0 45-20.187 45-45v-422c0-24.813-20.187-45-45-45zm15 467c0 8.271-6.729 15-15 15h-240c-8.271 0-15-6.729-15-15v-422c0-8.271 6.729-15 15-15h240c8.271 0 15 6.729 15 15zm-135-316c-57.897 0-105 47.103-105 105s47.103 105 105 105 105-47.103 105-105-47.103-105-105-105zm0 180c-41.355 0-75-33.645-75-75s33.645-75 75-75 75 33.645 75 75-33.645 75-75 75zm0-241c8.284 0 15-6.716 15-15s-6.716-15-15-15-15 6.716-15 15 6.716 15 15 15zm30 332h-60c-8.284 0-15 6.716-15 15s6.716 15 15 15h60c8.284 0 15-6.716 15-15s-6.716-15-15-15z" fill="url(#SVGID_1_)"/></g></g></svg>