<svg id="Capa_1" enable-background="new 0 0 512 512" height="512" viewBox="0 0 512 512" width="512" xmlns="http://www.w3.org/2000/svg" xmlns:xlink="http://www.w3.org/1999/xlink"><linearGradient id="SVGID_1_" gradientUnits="userSpaceOnUse" x1="256" x2="256" y1="512" y2="0"><stop offset="0" stop-color="#fd3a84"/><stop offset="1" stop-color="#ffa68d"/></linearGradient><g><g><path d="m287 241h15v15c0 8.284 6.716 15 15 15s15-6.716 15-15v-15h15c8.284 0 15-6.716 15-15s-6.716-15-15-15h-15v-15c0-8.284-6.716-15-15-15s-15 6.716-15 15v15h-15c-8.284 0-15 6.716-15 15s6.716 15 15 15zm30 90c57.897 0 105-47.103 105-105s-47.103-105-105-105-105 47.103-105 105 47.103 105 105 105zm0-180c41.355 0 75 33.645 75 75s-33.645 75-75 75-75-33.645-75-75 33.645-75 75-75zm180-121h-360c-8.284 0-15 6.716-15 15v76h-32v-106c0-8.284-6.716-15-15-15h-60c-8.284 0-15 6.716-15 15v482c0 8.284 6.716 15 15 15h60c8.284 0 15-6.716 15-15v-166h32v76c0 8.284 6.716 15 15 15h360c8.284 0 15-6.716 15-15v-362c0-8.284-6.716-15-15-15zm-437 452h-30v-452h30zm62-181h-32v-150h32zm360 91h-330v-332h330z" fill="url(#SVGID_1_)"/></g></g></svg>