<svg id="Capa_1" enable-background="new 0 0 512 512" height="512" viewBox="0 0 512 512" width="512" xmlns="http://www.w3.org/2000/svg" xmlns:xlink="http://www.w3.org/1999/xlink"><linearGradient id="SVGID_1_" gradientUnits="userSpaceOnUse" x1="256" x2="256" y1="512" y2="0"><stop offset="0" stop-color="#a93aff"/><stop offset="1" stop-color="#ff81ff"/></linearGradient><g><g><path d="m466 165v-30c0-8.284-6.716-15-15-15h-300c-8.284 0-15 6.716-15 15v30c0 85.925 66.023 156.707 150 164.311v30.689h-45c-90.981 0-165-74.019-165-165 0-65.636 46.287-120.647 109.499-132.603 8.902 16.355 30.124 27.603 55.501 27.603 33.645 0 60-19.766 60-45s-26.355-45-60-45c-27.745 0-50.516 13.447-57.655 32.311-36.193 6.115-69.355 24.173-94.334 51.585-27.736 30.438-43.011 69.896-43.011 111.104 0 107.523 87.477 195 195 195h45v30h-45c-24.813 0-45 20.187-45 45 0 8.284 6.716 15 15 15s15-6.716 15-15c0-8.271 6.729-15 15-15h45v32h-45c-8.284 0-15 6.716-15 15s6.716 15 15 15h120c8.284 0 15-6.716 15-15s-6.716-15-15-15h-45v-32h75c24.813 0 45-20.187 45-45s-20.187-45-45-45h-75v-30.689c83.977-7.604 150-78.386 150-164.311zm-225-135c18.313 0 30 8.884 30 15s-11.687 15-30 15c-17.525 0-28.973-8.133-29.927-14.194.001-.375-.026-.756-.053-1.136.405-6.1 11.991-14.67 29.98-14.67zm150 360c8.271 0 15 6.729 15 15s-6.729 15-15 15h-75v-30zm-90-90c-74.439 0-135-60.561-135-135v-15h270v15c0 74.439-60.561 135-135 135zm30-90h-15v-15c0-8.284-6.716-15-15-15s-15 6.716-15 15v15h-15c-8.284 0-15 6.716-15 15s6.716 15 15 15h15v15c0 8.284 6.716 15 15 15s15-6.716 15-15v-15h15c8.284 0 15-6.716 15-15s-6.716-15-15-15z" fill="url(#SVGID_1_)"/></g></g></svg>