<svg id="Capa_1" enable-background="new 0 0 512.023 512.023" height="512" viewBox="0 0 512.023 512.023" width="512" xmlns="http://www.w3.org/2000/svg" xmlns:xlink="http://www.w3.org/1999/xlink"><linearGradient id="SVGID_1_" gradientUnits="userSpaceOnUse" x1="256.012" x2="256.012" y1="511.988" y2=".035"><stop offset="0" stop-color="#00b59c"/><stop offset="1" stop-color="#9cffac"/></linearGradient><g><g><path d="m226 360.988h15v15c0 8.284 6.716 15 15 15s15-6.716 15-15v-15h15c8.284 0 15-6.716 15-15s-6.716-15-15-15h-15v-15c0-8.284-6.716-15-15-15s-15 6.716-15 15v15h-15c-8.284 0-15 6.716-15 15s6.716 15 15 15zm271-150h-111.154l108.577-108.577c23.447-23.446 23.486-61.361 0-84.846-23.372-23.373-61.429-23.376-84.846 0l-193.423 193.423h-201.154c-8.284 0-15 6.716-15 15 0 51.764 15.447 101.592 44.67 144.097 26.576 38.653 62.845 68.979 105.33 88.184v38.72c0 8.284 6.716 15 15 15h182c8.284 0 15-6.716 15-15v-38.72c42.485-19.205 78.754-49.53 105.33-88.184 29.223-42.504 44.67-92.332 44.67-144.097 0-8.284-6.716-15-15-15zm-66.219-172.2c11.71-11.69 30.742-11.695 42.429-.009 11.732 11.732 11.749 30.669 0 42.419l-129.79 129.79h-84.84zm-89.414 395.689c-5.662 2.294-9.367 7.793-9.367 13.902v33.609h-152v-33.609c0-6.109-3.705-11.608-9.367-13.902-80.76-32.72-134.505-107.642-140.142-193.489h451.018c-5.637 85.847-59.382 160.769-140.142 193.489zm-275.153-273.636c17.585 17.586 46.052 17.589 63.639 0 17.546-17.545 17.546-46.094 0-63.639-16.403-16.403-36.466-36.467-53.033-53.033-17.546-17.546-46.096-17.544-63.64 0-17.546 17.545-17.546 46.094 0 63.64zm26.516-58.336 15.91 15.91c5.849 5.849 5.849 15.365-.001 21.214-5.861 5.862-15.349 5.862-21.212 0l-15.91-15.91zm-58.336-37.123c5.847-5.848 15.365-5.849 21.214 0l15.91 15.91-21.214 21.214-15.91-15.91c-5.849-5.849-5.849-15.366 0-21.214zm160.606 85.606c24.813 0 45-20.187 45-45s-20.187-45-45-45-45 20.187-45 45 20.187 45 45 45zm0-60c8.271 0 15 6.729 15 15s-6.729 15-15 15-15-6.729-15-15 6.729-15 15-15z" fill="url(#SVGID_1_)"/></g></g></svg>