<svg id="Capa_1" enable-background="new 0 0 512.071 512.071" height="512" viewBox="0 0 512.071 512.071" width="512" xmlns="http://www.w3.org/2000/svg" xmlns:xlink="http://www.w3.org/1999/xlink"><linearGradient id="SVGID_1_" gradientUnits="userSpaceOnUse" x1="256.036" x2="256.036" y1="512.071" y2="0"><stop offset="0" stop-color="#fd5900"/><stop offset="1" stop-color="#ffde00"/></linearGradient><g><g><path d="m498.865 13.191c-17.586-17.587-46.051-17.589-63.639 0l-18.038 18.038c-37.859-13.458-80.601-4.252-109.241 24.389l-243.545 243.543c-16.374-7.837-37.104-5.323-51.227 8.801-17.546 17.545-17.546 46.094 0 63.64l127.279 127.279c17.585 17.586 46.051 17.588 63.639 0 14.122-14.121 16.641-34.852 8.801-51.228l243.544-243.544c28.642-28.641 37.845-71.384 24.388-109.241l18.038-18.038c17.587-17.585 17.59-46.051.001-63.639zm-315.985 464.477c-5.862 5.862-15.35 5.863-21.213 0l-127.279-127.279c-5.849-5.849-5.849-15.365 0-21.214 5.862-5.862 15.35-5.862 21.213 0l127.279 127.279c5.863 5.864 5.863 15.35 0 21.214zm294.772-422.051-25.11 25.11c-4.488 4.488-5.666 11.315-2.94 17.048 13.637 28.679 7.859 62.886-14.375 85.121l-241.74 241.739-106.066-106.067 241.739-241.738c22.234-22.235 56.443-28.011 85.121-14.375 5.73 2.724 12.56 1.549 17.048-2.94l25.11-25.11c5.862-5.861 15.348-5.864 21.213 0 5.861 5.859 5.864 15.348 0 21.212z" fill="url(#SVGID_1_)"/></g></g></svg>