<svg id="Capa_1" enable-background="new 0 0 512 512" height="512" viewBox="0 0 512 512" width="512" xmlns="http://www.w3.org/2000/svg" xmlns:xlink="http://www.w3.org/1999/xlink"><linearGradient id="SVGID_1_" gradientUnits="userSpaceOnUse" x1="256" x2="256" y1="512" y2="0"><stop offset="0" stop-color="#fd5900"/><stop offset="1" stop-color="#ffde00"/></linearGradient><g><g><path d="m376 0c-7.901 0-297.02 0-300 0-8.284 0-15 6.716-15 15v482c0 8.284 6.716 15 15 15h300c41.355 0 75-33.645 75-75v-362c0-41.355-33.645-75-75-75zm-75 30h30v68.787l-4.394-4.393c-5.857-5.858-15.355-5.858-21.213 0l-4.393 4.393zm-180 452h-30v-452h30zm300-45c0 24.813-20.187 45-45 45h-225v-452h120v105c0 6.067 3.655 11.537 9.26 13.858 5.604 2.321 12.057 1.038 16.347-3.252l19.393-19.393 19.394 19.393c4.297 4.298 10.752 5.569 16.347 3.252 5.605-2.322 9.26-7.792 9.26-13.858v-105h15c24.813 0 45 20.187 45 45v362zm-105-166h-15v-15c0-8.284-6.716-15-15-15s-15 6.716-15 15v15h-15c-8.284 0-15 6.716-15 15s6.716 15 15 15h15v15c0 8.284 6.716 15 15 15s15-6.716 15-15v-15h15c8.284 0 15-6.716 15-15s-6.716-15-15-15zm-30-90c-57.897 0-105 47.103-105 105s47.103 105 105 105 105-47.103 105-105-47.103-105-105-105zm0 180c-41.355 0-75-33.645-75-75s33.645-75 75-75 75 33.645 75 75-33.645 75-75 75z" fill="url(#SVGID_1_)"/></g></g></svg>