<svg id="Capa_1" enable-background="new 0 0 512.06 512.06" height="512" viewBox="0 0 512.06 512.06" width="512" xmlns="http://www.w3.org/2000/svg" xmlns:xlink="http://www.w3.org/1999/xlink"><linearGradient id="SVGID_1_" gradientUnits="userSpaceOnUse" x1="13.208" x2="489.929" y1="498.897" y2="22.176"><stop offset="0" stop-color="#a93aff"/><stop offset="1" stop-color="#ff81ff"/></linearGradient><g><g><path d="m489.967 22.215c-29.649-29.995-77.026-29.23-105.848-.037l-38.058 38.058c-.03.03-.063.054-.092.083-.03.03-.054.063-.083.092l-42.246 42.246c-.03.03-.063.054-.093.084s-.055.063-.084.093l-42.244 42.244c-.03.03-.064.055-.094.085s-.055.063-.085.094l-42.242 42.243c-.031.03-.064.055-.095.085s-.055.064-.085.094l-42.241 42.241c-.031.03-.065.055-.095.086s-.056.064-.086.095l-42.239 42.24c-.031.031-.065.056-.096.087s-.056.065-.087.096l-21.241 21.241c-7.712 7.71-12.342 17.947-13.038 28.822-1.164 18.185-8.91 35.305-21.812 48.207-7.618 7.618-54.559 54.563-64.469 64.473-17.585 17.583-17.589 46.048 0 63.637 17.544 17.541 46.089 17.541 63.634-.001l73.127-73.131c9.03-9.03 21.517-13.815 34.254-13.129 12.687.68 25.127-4.078 34.113-13.063l271.588-271.588c29.437-29.436 29.5-76.276.037-105.777zm-434.331 455.474c-5.849 5.847-15.363 5.846-21.209.001-5.861-5.862-5.862-15.347 0-21.209l46.276-46.279 21.208 21.208zm413.081-370.91-271.587 271.586c-3.016 3.016-7.02 4.555-11.289 4.32-39.319-2.1-60.352 25.878-62.718 27.512l-21.277-21.277c16.286-17.664 26.047-40.371 27.586-64.417.23-3.592 1.761-6.974 4.312-9.524l10.726-10.726 21.088 21.088c5.857 5.857 15.355 5.858 21.213 0s5.858-15.355 0-21.213l-21.088-21.088 21.209-21.209 21.088 21.088c5.857 5.857 15.355 5.858 21.213 0s5.858-15.355 0-21.213l-21.088-21.088 21.209-21.209 21.088 21.088c5.857 5.857 15.355 5.858 21.213 0s5.858-15.355 0-21.213l-21.088-21.088 21.209-21.209 21.088 21.088c5.857 5.857 15.355 5.858 21.213 0s5.858-15.355 0-21.213l-21.088-21.088 21.209-21.209 21.088 21.088c5.857 5.857 15.355 5.858 21.213 0s5.858-15.355 0-21.213l-21.089-21.088 21.209-21.209 21.089 21.089c5.857 5.857 15.355 5.858 21.213 0s5.858-15.355 0-21.213l-21.088-21.089 27.607-27.607c17.536-17.76 45.709-17.765 63.25 0 .022.023.045.045.067.068 17.744 17.745 17.758 45.629 0 63.388z" fill="url(#SVGID_1_)"/></g></g></svg>