<svg id="Capa_1" enable-background="new 0 0 512 512" height="512" viewBox="0 0 512 512" width="512" xmlns="http://www.w3.org/2000/svg" xmlns:xlink="http://www.w3.org/1999/xlink"><linearGradient id="SVGID_1_" gradientUnits="userSpaceOnUse" x1="256" x2="256" y1="512" y2="0"><stop offset="0" stop-color="#5558ff"/><stop offset="1" stop-color="#00c0ff"/></linearGradient><g><g><path d="m226 211h15v15c0 8.284 6.716 15 15 15s15-6.716 15-15v-15h15c8.284 0 15-6.716 15-15s-6.716-15-15-15h-15v-15c0-8.284-6.716-15-15-15s-15 6.716-15 15v15h-15c-8.284 0-15 6.716-15 15s6.716 15 15 15zm30 90c57.897 0 105-47.103 105-105s-47.103-105-105-105-105 47.103-105 105 47.103 105 105 105zm0-180c41.355 0 75 33.645 75 75s-33.645 75-75 75-75-33.645-75-75 33.645-75 75-75zm241-121h-482c-8.284 0-15 6.716-15 15v362c0 8.284 6.716 15 15 15h186.73l-49.146 98.292c-2.325 4.649-2.076 10.172.657 14.594s7.561 7.114 12.76 7.114h180c5.198 0 10.026-2.692 12.76-7.114 2.733-4.422 2.981-9.944.656-14.594l-49.147-98.292h186.73c8.284 0 15-6.716 15-15v-362c0-8.284-6.716-15-15-15zm-175.271 482h-131.458l45-90h41.458zm160.271-120h-452v-332h452z" fill="url(#SVGID_1_)"/></g></g></svg>