<svg id="Capa_1" enable-background="new 0 0 512 512" height="512" viewBox="0 0 512 512" width="512" xmlns="http://www.w3.org/2000/svg" xmlns:xlink="http://www.w3.org/1999/xlink"><linearGradient id="SVGID_1_" gradientUnits="userSpaceOnUse" x1="256" x2="256" y1="512" y2="0"><stop offset="0" stop-color="#fd3a84"/><stop offset="1" stop-color="#ffa68d"/></linearGradient><g><g><path d="m286 271h-15v-15c0-8.284-6.716-15-15-15s-15 6.716-15 15v15h-15c-8.284 0-15 6.716-15 15s6.716 15 15 15h15v15c0 8.284 6.716 15 15 15s15-6.716 15-15v-15h15c8.284 0 15-6.716 15-15s-6.716-15-15-15zm-30-90c-57.897 0-105 47.103-105 105s47.103 105 105 105 105-47.103 105-105-47.103-105-105-105zm0 180c-41.355 0-75-33.645-75-75s33.645-75 75-75 75 33.645 75 75-33.645 75-75 75zm180-301h-75v-15c0-8.284-6.716-15-15-15h-47.57c-6.191-17.461-22.873-30-42.43-30s-36.239 12.539-42.43 30h-47.57c-8.284 0-15 6.716-15 15v15h-75c-8.284 0-15 6.716-15 15v422c0 8.284 6.716 15 15 15h360c8.284 0 15-6.716 15-15v-422c0-8.284-6.716-15-15-15zm-255 0h45c8.284 0 15-6.716 15-15 0-8.271 6.729-15 15-15s15 6.729 15 15c0 8.284 6.716 15 15 15h45v30h-150zm240 422h-330v-392h60v15c0 8.284 6.716 15 15 15h180c8.284 0 15-6.716 15-15v-15h60z" fill="url(#SVGID_1_)"/></g></g></svg>