<svg id="Capa_1" enable-background="new 0 0 512 512" height="512" viewBox="0 0 512 512" width="512" xmlns="http://www.w3.org/2000/svg" xmlns:xlink="http://www.w3.org/1999/xlink"><linearGradient id="SVGID_1_" gradientUnits="userSpaceOnUse" x1="256" x2="256" y1="512" y2="0"><stop offset="0" stop-color="#00b59c"/><stop offset="1" stop-color="#9cffac"/></linearGradient><g><g><path d="m271 195v-15h15c8.284 0 15-6.716 15-15s-6.716-15-15-15h-15v-15c0-8.284-6.716-15-15-15s-15 6.716-15 15v15h-15c-8.284 0-15 6.716-15 15s6.716 15 15 15h15v15c0 8.284 6.716 15 15 15s15-6.716 15-15zm90-30c0-57.897-47.103-105-105-105s-105 47.103-105 105 47.103 105 105 105 105-47.103 105-105zm-180 0c0-41.355 33.645-75 75-75s75 33.645 75 75-33.645 75-75 75-75-33.645-75-75zm193.653 218.633c-21.239-9.619-48.768-16.397-78.932-19.575l14.139-43.091c63.94-22.211 111.14-83.033 111.14-155.967 0-90.981-74.019-165-165-165s-165 74.019-165 165c0 72.873 47.139 133.735 111.141 155.968l14.139 43.09c-30.164 3.178-57.694 9.956-78.933 19.575-38.306 17.347-46.347 38.596-46.347 53.367 0 22.576 18.951 42.589 53.363 56.354 30.061 12.024 69.707 18.646 111.637 18.646s81.576-6.622 111.637-18.646c34.412-13.765 53.363-33.778 53.363-56.354 0-14.771-8.041-36.02-46.347-53.367zm-253.653-218.633c0-74.439 60.561-135 135-135s135 60.561 135 135c0 59.599-39.975 112.9-97.211 129.619-4.746 1.387-8.505 5.023-10.046 9.722l-27.743 84.547-27.742-84.547c-1.541-4.698-5.3-8.335-10.046-9.722-57.237-16.719-97.212-70.02-97.212-129.619zm235.495 300.5c-26.601 10.64-62.291 16.5-100.495 16.5s-73.894-5.86-100.495-16.5c-20.961-8.385-34.505-19.572-34.505-28.5 0-14.889 37.216-38.054 104.861-43.741l15.887 48.417c2.021 6.16 7.77 10.324 14.252 10.324s12.231-4.164 14.252-10.323l15.887-48.417c67.645 5.686 104.861 28.851 104.861 43.74 0 8.928-13.544 20.115-34.505 28.5z" fill="url(#SVGID_1_)"/></g></g></svg>