<svg id="Capa_1" enable-background="new 0 0 512 512" height="512" viewBox="0 0 512 512" width="512" xmlns="http://www.w3.org/2000/svg" xmlns:xlink="http://www.w3.org/1999/xlink"><linearGradient id="SVGID_1_" gradientUnits="userSpaceOnUse" x1="256" x2="256" y1="512" y2="0"><stop offset="0" stop-color="#fd5900"/><stop offset="1" stop-color="#ffde00"/></linearGradient><g><g><path d="m406 0h-300c-41.355 0-75 33.645-75 75v362c0 41.355 33.645 75 75 75h300c41.355 0 75-33.645 75-75v-362c0-41.355-33.645-75-75-75zm45 437c0 24.813-20.187 45-45 45h-300c-24.813 0-45-20.187-45-45v-362c0-24.813 20.187-45 45-45h300c24.813 0 45 20.187 45 45zm-195-377c-74.439 0-135 60.561-135 135 0 8.284 6.716 15 15 15h240c8.284 0 15-6.716 15-15 0-74.439-60.561-135-135-135zm36.213 120 19.394-19.394c5.858-5.858 5.858-15.355 0-21.213-5.857-5.858-15.355-5.858-21.213 0l-40.607 40.607h-97.719c7.3-50.817 51.126-90 103.932-90s96.631 39.183 103.932 90zm-36.213 62c-8.284 0-15 6.716-15 15v180c0 8.284 6.716 15 15 15s15-6.716 15-15v-180c0-8.284-6.716-15-15-15z" fill="url(#SVGID_1_)"/></g></g></svg>