<svg id="Capa_1" enable-background="new 0 0 512 512" height="512" viewBox="0 0 512 512" width="512" xmlns="http://www.w3.org/2000/svg" xmlns:xlink="http://www.w3.org/1999/xlink"><linearGradient id="SVGID_1_" gradientUnits="userSpaceOnUse" x1="256" x2="256" y1="496" y2="16"><stop offset="0" stop-color="#fd5900"/><stop offset="1" stop-color="#ffde00"/></linearGradient><g><g><path d="m255 316h15v15c0 8.284 6.716 15 15 15s15-6.716 15-15v-15h15c8.284 0 15-6.716 15-15s-6.716-15-15-15h-15v-15c0-8.284-6.716-15-15-15s-15 6.716-15 15v15h-15c-8.284 0-15 6.716-15 15s6.716 15 15 15zm30 90c57.897 0 105-47.103 105-105s-47.103-105-105-105-105 47.103-105 105 47.103 105 105 105zm0-180c41.355 0 75 33.645 75 75s-33.645 75-75 75-75-33.645-75-75 33.645-75 75-75zm212-120h-235.787l-68.032-68.033c-14.166-14.166-33-21.967-53.034-21.967h-95.147c-24.813 0-45 20.187-45 45v390c0 24.813 20.187 45 45 45h422c24.813 0 45-20.187 45-45v-330c0-8.284-6.716-15-15-15zm-437 15v330c0 8.271-6.729 15-15 15s-15-6.729-15-15v-390c0-8.271 6.729-15 15-15h95.147c12.02 0 23.32 4.681 31.82 13.18l46.82 46.82h-143.787c-8.284 0-15 6.716-15 15zm422 330c0 8.271-6.729 15-15 15h-379.58c1.665-4.695 2.58-9.742 2.58-15v-315h392z" fill="url(#SVGID_1_)"/></g></g></svg>