<svg id="Capa_1" enable-background="new 0 0 512 512" height="512" viewBox="0 0 512 512" width="512" xmlns="http://www.w3.org/2000/svg" xmlns:xlink="http://www.w3.org/1999/xlink"><linearGradient id="SVGID_1_" gradientUnits="userSpaceOnUse" x1="256" x2="256" y1="512" y2="0"><stop offset="0" stop-color="#5558ff"/><stop offset="1" stop-color="#00c0ff"/></linearGradient><g><g><path d="m417.384 5.233c-2.849-3.321-7.008-5.233-11.384-5.233h-300c-4.376 0-8.535 1.912-11.384 5.233-2.85 3.322-4.107 7.722-3.441 12.048l59.825 388.866v90.853c0 8.284 6.716 15 15 15h180c8.284 0 15-6.716 15-15v-90.853l59.826-388.867c.665-4.325-.592-8.725-3.442-12.047zm-86.384 476.767h-30v-15c0-8.284-6.716-15-15-15s-15 6.716-15 15v15h-30v-15c0-8.284-6.716-15-15-15s-15 6.716-15 15v15h-30v-62h150zm2.131-92h-154.262l-9.231-60h172.724zm13.846-90h-181.954l-27.692-180h237.339zm32.308-210h-246.57l-9.231-60h265.031zm-153.285 135h15v15c0 8.284 6.716 15 15 15s15-6.716 15-15v-15h15c8.284 0 15-6.716 15-15s-6.716-15-15-15h-15v-15c0-8.284-6.716-15-15-15s-15 6.716-15 15v15h-15c-8.284 0-15 6.716-15 15s6.716 15 15 15z" fill="url(#SVGID_1_)"/></g></g></svg>