<svg id="Capa_1" enable-background="new 0 0 512 512" height="512" viewBox="0 0 512 512" width="512" xmlns="http://www.w3.org/2000/svg" xmlns:xlink="http://www.w3.org/1999/xlink"><linearGradient id="SVGID_1_" gradientUnits="userSpaceOnUse" x1="256" x2="256" y1="512" y2="0"><stop offset="0" stop-color="#00b59c"/><stop offset="1" stop-color="#9cffac"/></linearGradient><g><g><path d="m466 180h-15v-45c0-8.284-6.716-15-15-15h-30.036c9.437-12.543 15.036-28.129 15.036-45 0-41.354-33.644-74.999-74.998-75h-.002c-8.284 0-15 6.716-15 15v.01c-.005 8.267-6.732 14.99-15 14.99h-150c-41.355 0-75 33.645-75 75v15h-15c-8.284 0-15 6.716-15 15v45h-15c-8.284 0-15 6.716-15 15v302c0 8.284 6.716 15 15 15h420c8.284 0 15-6.716 15-15v-302c0-8.284-6.716-15-15-15zm-345-75c0-24.813 20.187-45 45-45h150.001c18.956 0 35.201-11.788 41.819-28.414 19.096 5.206 33.18 22.691 33.18 43.414 0 24.813-20.187 45-45 45h-225zm-30 45h330v30h-330zm360 332h-390v-272h390zm-315-31h240c8.284 0 15-6.716 15-15v-180c0-8.284-6.716-15-15-15h-240c-8.284 0-15 6.716-15 15v180c0 8.284 6.716 15 15 15zm15-180h210v150h-210zm135 60h-15v-15c0-8.284-6.716-15-15-15s-15 6.716-15 15v15h-15c-8.284 0-15 6.716-15 15s6.716 15 15 15h15v15c0 8.284 6.716 15 15 15s15-6.716 15-15v-15h15c8.284 0 15-6.716 15-15s-6.716-15-15-15z" fill="url(#SVGID_1_)"/></g></g></svg>