<svg id="Capa_1" enable-background="new 0 0 512 512" height="512" viewBox="0 0 512 512" width="512" xmlns="http://www.w3.org/2000/svg" xmlns:xlink="http://www.w3.org/1999/xlink"><linearGradient id="SVGID_1_" gradientUnits="userSpaceOnUse" x1="256" x2="256" y1="512" y2="0"><stop offset="0" stop-color="#a93aff"/><stop offset="1" stop-color="#ff81ff"/></linearGradient><g><g><path d="m497 91c-8.271 0-15-6.729-15-15v-61c0-8.284-6.716-15-15-15h-180.998c-8.284 0-15 6.715-15 15l-.002 61c0 8.271-6.729 15-15 15s-15-6.729-15-15v-61c0-8.284-6.716-15-15-15h-181c-8.284 0-15 6.716-15 15v61c0 8.271-6.729 15-15 15-8.284 0-15 6.716-15 15v391c0 8.284 6.716 15 15 15h482c8.284 0 15-6.716 15-15v-391c0-8.284-6.716-15-15-15zm-15 391h-211v-46c0-8.284-6.716-15-15-15s-15 6.716-15 15v46h-211v-363.57c17.461-6.191 30-22.874 30-42.43v-46h151v46c0 24.813 20.187 45 45 45s45-20.187 45-45l.002-46h150.998v46c0 19.556 12.539 36.239 30 42.43zm-226-331c-8.284 0-15 6.716-15 15v30c0 8.284 6.716 15 15 15s15-6.716 15-15v-30c0-8.284-6.716-15-15-15zm0 90c-8.284 0-15 6.716-15 15v30c0 8.284 6.716 15 15 15s15-6.716 15-15v-30c0-8.284-6.716-15-15-15zm0 90c-8.284 0-15 6.716-15 15v30c0 8.284 6.716 15 15 15s15-6.716 15-15v-30c0-8.284-6.716-15-15-15zm-130.606-235.606c-2.63 2.628-64.394 65.146-64.394 130.606 0 60.787 29.055 206.757 30.292 212.942 1.402 7.011 7.558 12.058 14.708 12.058h60c7.15 0 13.307-5.047 14.708-12.058 1.238-6.185 30.292-152.155 30.292-212.942 0-65.46-61.764-127.978-64.394-130.606-5.857-5.859-15.355-5.859-21.212 0zm28.243 325.606h-35.275c-7.019-36.618-27.362-146.892-27.362-195 0-38.343 28.856-78.214 45-97.518 16.144 19.304 45 59.175 45 97.518 0 48.093-20.343 158.378-27.363 195zm211.756-325.606c-2.63 2.628-64.393 65.146-64.393 130.606 0 60.787 29.055 206.757 30.291 212.942 1.402 7.011 7.558 12.058 14.709 12.058h60c7.15 0 13.307-5.047 14.709-12.058 1.236-6.185 30.291-152.155 30.291-212.942 0-65.46-61.764-127.978-64.394-130.606-5.857-5.859-15.355-5.859-21.213 0zm28.244 325.606h-35.275c-7.019-36.618-27.362-146.892-27.362-195 0-38.343 28.856-78.214 45-97.518 16.144 19.304 45 59.175 45 97.518 0 48.093-20.343 158.378-27.363 195z" fill="url(#SVGID_1_)"/></g></g></svg>