<svg id="Capa_1" enable-background="new 0 0 512 512" height="512" viewBox="0 0 512 512" width="512" xmlns="http://www.w3.org/2000/svg" xmlns:xlink="http://www.w3.org/1999/xlink"><linearGradient id="SVGID_1_" gradientUnits="userSpaceOnUse" x1="256" x2="256" y1="512" y2="0"><stop offset="0" stop-color="#fd5900"/><stop offset="1" stop-color="#ffde00"/></linearGradient><g><g><path d="m136 331h15v15c0 8.284 6.716 15 15 15s15-6.716 15-15v-15h15c8.284 0 15-6.716 15-15s-6.716-15-15-15h-15v-15c0-8.284-6.716-15-15-15s-15 6.716-15 15v15h-15c-8.284 0-15 6.716-15 15s6.716 15 15 15zm300-331h-30c-19.555 0-36.228 12.542-42.42 30h-152.58v-15c0-8.284-6.716-15-15-15h-60c-8.284 0-15 6.716-15 15v106.509c-34.192 6.969-60 37.272-60 73.491v302c0 8.284 6.716 15 15 15h180c8.284 0 15-6.716 15-15v-302c0-36.219-25.808-66.522-60-73.491v-61.509h152.58c6.192 17.458 22.865 30 42.42 30h30c8.284 0 15-6.716 15-15v-60c0-8.284-6.716-15-15-15zm-285 30h30v90h-30zm90 452h-150v-60h150zm0-90h-150v-152h150zm0-197v15h-150v-15c0-24.813 20.187-45 45-45h60c24.813 0 45 20.187 45 45zm180-135h-15c-8.271 0-15-6.729-15-15s6.729-15 15-15h15z" fill="url(#SVGID_1_)"/></g></g></svg>