<svg id="Capa_1" enable-background="new 0 0 512 512" height="512" viewBox="0 0 512 512" width="512" xmlns="http://www.w3.org/2000/svg" xmlns:xlink="http://www.w3.org/1999/xlink"><linearGradient id="SVGID_1_" gradientUnits="userSpaceOnUse" x1="256" x2="256" y1="512" y2="0"><stop offset="0" stop-color="#5558ff"/><stop offset="1" stop-color="#00c0ff"/></linearGradient><g><g><path d="m210 195v-15h15c8.284 0 15-6.716 15-15s-6.716-15-15-15h-15v-15c0-8.284-6.716-15-15-15s-15 6.716-15 15v15h-15c-8.284 0-15 6.716-15 15s6.716 15 15 15h15v15c0 8.284 6.716 15 15 15s15-6.716 15-15zm90-30c0-57.897-47.103-105-105-105s-105 47.103-105 105 47.103 105 105 105 105-47.103 105-105zm-180 0c0-41.355 33.645-75 75-75s75 33.645 75 75-33.645 75-75 75-75-33.645-75-75zm332 270c0-16.701 8.678-27.962 20.689-43.547 17.514-22.726 39.311-51.009 39.311-106.453 0-38.688-14.112-76.412-39.738-106.225-22.865-26.602-53.536-45.48-87.198-53.869-17.959-71.668-82.907-124.906-160.064-124.906h-60c-90.981 0-165 74.019-165 165 0 55.444 21.797 83.727 39.311 106.453 12.011 15.585 20.689 26.846 20.689 43.547 0 19.351-18.499 42.23-25.606 49.394-4.29 4.29-5.573 10.742-3.252 16.347 2.322 5.604 7.791 9.259 13.858 9.259 23.022 0 44.843-7.369 63.103-21.31 8.87-6.772 16.614-14.992 22.932-24.198 24.104 62.606 84.704 105.508 153.965 105.508h62c7.936 0 16.06-.682 24.579-2.07 16.935 38.314 54.47 64.07 95.421 64.07 5.97 0 11.363-3.549 13.746-9.024 2.382-5.474 1.282-11.849-2.786-16.218-7.221-7.752-25.96-32.162-25.96-51.758zm-335.551-128.584c-5.912 19.707-19.043 35.437-35.98 44.63 5.407-10.758 9.531-23.18 9.531-36.046 0-26.92-13.688-44.682-26.927-61.859-16.26-21.099-33.073-42.916-33.073-88.141 0-74.439 60.561-135 135-135h60c74.439 0 135 60.561 135 135s-60.561 135-135 135h-60c-9.55 0-19.613-1.269-30.765-3.879-7.714-1.807-15.508 2.702-17.786 10.295zm315.6 166.2c-16.986-9.634-30.451-26.045-36.497-46.2-2.277-7.591-10.069-12.098-17.785-10.295-11.154 2.61-21.217 3.879-30.767 3.879h-62c-58.101 0-108.758-36.881-127.415-90.204 2.493.13 4.964.204 7.415.204h60c90.981 0 165-74.019 165-165 0-2.476-.065-4.937-.173-7.386 53.744 18.863 92.173 70.432 92.173 127.386 0 45.226-16.813 67.042-33.073 88.14-13.239 17.178-26.927 34.94-26.927 61.86 0 13.248 4.398 26.305 10.049 37.616z" fill="url(#SVGID_1_)"/></g></g></svg>