<svg id="Capa_1" enable-background="new 0 0 512 512" height="512" viewBox="0 0 512 512" width="512" xmlns="http://www.w3.org/2000/svg" xmlns:xlink="http://www.w3.org/1999/xlink"><linearGradient id="SVGID_1_" gradientUnits="userSpaceOnUse" x1="256" x2="256" y1="512" y2="0"><stop offset="0" stop-color="#00b59c"/><stop offset="1" stop-color="#9cffac"/></linearGradient><g><g><path d="m164.18 438.82c8.499 8.5 19.8 13.18 31.82 13.18 24.813 0 45-20.187 45-45 0-12.02-4.681-23.32-13.181-31.82l-60-60c-8.499-8.499-19.799-13.18-31.819-13.18-24.813 0-45 20.187-45 45 0 12.02 4.681 23.32 13.18 31.82zm-28.18-106.82c4.006 0 7.773 1.56 10.606 4.393l60 60c2.833 2.834 4.394 6.601 4.394 10.607 0 8.271-6.729 15-15 15-4.007 0-7.774-1.56-10.607-4.393l-60-60c-2.832-2.833-4.393-6.6-4.393-10.607 0-8.271 6.729-15 15-15zm180 0c12.02 0 23.32-4.681 31.819-13.18l60-60c8.5-8.5 13.181-19.8 13.181-31.82 0-24.813-20.187-45-45-45-12.02 0-23.321 4.681-31.82 13.18l-60 60c-8.499 8.5-13.18 19.8-13.18 31.82 0 24.813 20.187 45 45 45zm-10.607-55.607 60-60c2.833-2.833 6.6-4.393 10.607-4.393 8.271 0 15 6.729 15 15 0 4.006-1.561 7.773-4.394 10.607l-60 60c-2.833 2.833-6.6 4.393-10.606 4.393-8.271 0-15-6.729-15-15 0-4.007 1.561-7.774 4.393-10.607zm191.607-216.393h-16v-45c0-8.284-6.716-15-15-15h-420c-8.284 0-15 6.716-15 15v45h-16c-8.284 0-15 6.716-15 15s6.716 15 15 15h16v377c0 24.813 20.187 45 45 45h360c24.813 0 45-20.187 45-45 0-6.076 0-360.116 0-377h16c8.284 0 15-6.716 15-15s-6.716-15-15-15zm-46 407c0 8.271-6.729 15-15 15h-360c-8.271 0-15-6.729-15-15v-317h390zm0-347h-390v-30h390zm0-60h-390v-30h390zm-105 302c-24.813 0-45 20.187-45 45s20.187 45 45 45 45-20.187 45-45-20.187-45-45-45zm0 60c-8.271 0-15-6.729-15-15s6.729-15 15-15 15 6.729 15 15-6.729 15-15 15zm-150-150c24.813 0 45-20.187 45-45s-20.187-45-45-45-45 20.187-45 45 20.187 45 45 45zm0-60c8.271 0 15 6.729 15 15s-6.729 15-15 15-15-6.729-15-15 6.729-15 15-15z" fill="url(#SVGID_1_)"/></g></g></svg>