<svg id="Capa_1" enable-background="new 0 0 512.031 512.031" height="512" viewBox="0 0 512.031 512.031" width="512" xmlns="http://www.w3.org/2000/svg" xmlns:xlink="http://www.w3.org/1999/xlink"><linearGradient id="SVGID_1_" gradientUnits="userSpaceOnUse" x1="256.015" x2="256.015" y1="512.031" y2="0"><stop offset="0" stop-color="#a93aff"/><stop offset="1" stop-color="#ff81ff"/></linearGradient><g><g><path d="m445.272 213.228-259.662-203.654c-19.525-15.313-47.867-11.887-63.18 7.637l-18.514 23.605c-5.113 6.519-3.973 15.948 2.545 21.06 6.519 5.112 15.947 3.973 21.06-2.545l18.514-23.606c2.473-3.152 6.025-5.154 10.003-5.634 3.977-.482 7.904.616 11.057 3.088l225.489 176.852h-316.568c-8.284 0-15 6.716-15 15v212c0 41.355 33.645 75 75 75h240c41.355 0 75-33.645 75-75v-212c-.001-4.489-2.074-8.924-5.744-11.803zm-24.257 223.803c0 24.813-20.187 45-45 45h-240c-24.813 0-45-20.187-45-45v-197h330zm-239.999-15c12.02 0 23.32-4.681 31.819-13.18l60-60c8.5-8.5 13.18-19.8 13.18-31.82 0-24.813-20.187-45-45-45-12.02 0-23.321 4.681-31.82 13.18l-60 60c-8.499 8.5-13.18 19.8-13.18 31.819.001 24.814 20.188 45.001 45.001 45.001zm-10.607-55.607 60-60c2.833-2.833 6.6-4.393 10.607-4.393 8.271 0 15 6.729 15 15 0 4.006-1.561 7.773-4.394 10.607l-60 60c-2.833 2.833-6.6 4.393-10.606 4.393-8.271 0-15-6.729-15-15 0-4.007 1.56-7.774 4.393-10.607zm160.606 85.607c24.813 0 45-20.187 45-45s-20.187-45-45-45-45 20.187-45 45 20.187 45 45 45zm0-60c8.271 0 15 6.729 15 15s-6.729 15-15 15-15-6.729-15-15 6.729-15 15-15z" fill="url(#SVGID_1_)"/></g></g></svg>