<svg id="Capa_1" enable-background="new 0 0 511.971 511.971" height="512" viewBox="0 0 511.971 511.971" width="512" xmlns="http://www.w3.org/2000/svg" xmlns:xlink="http://www.w3.org/1999/xlink"><linearGradient id="SVGID_1_" gradientUnits="userSpaceOnUse" x1="255.986" x2="255.986" y1="480.996" y2="30.976"><stop offset="0" stop-color="#fd3a84"/><stop offset="1" stop-color="#ffa68d"/></linearGradient><g><g><path d="m495.484 69.144c-28.646-40.646-84.771-50.359-125.413-21.717l-85.825 60.489c-6.771 4.772-8.392 14.13-3.619 20.902l86.413 122.608c2.292 3.252 5.781 5.46 9.701 6.139 4.008.692 8.019-.276 11.201-2.52l85.825-60.489c40.732-28.706 50.388-84.733 21.717-125.412zm-39 100.891-73.564 51.848-69.13-98.086 73.564-51.848c27.091-19.093 64.516-12.611 83.608 14.478 19.173 27.203 12.688 64.462-14.478 83.608zm-323.798 87.751c4.713 0 9.353-2.215 12.273-6.36l86.413-122.608c2.292-3.251 3.198-7.281 2.52-11.201s-2.887-7.41-6.139-9.701l-85.826-60.489c-40.646-28.647-96.77-18.924-125.412 21.716-28.46 40.378-19.446 96.402 21.716 125.413l85.826 60.489c2.627 1.852 5.642 2.741 8.629 2.741zm-91.65-171.359c18.901-26.819 56.255-33.755 83.607-14.479l73.565 51.848-69.13 98.086-73.565-51.848c-27.202-19.171-33.623-56.445-14.477-83.607zm214.963 124.568c8.284 0 15-6.716 15-15s-6.716-15-15-15-15 6.716-15 15 6.716 15 15 15zm-45 45c0 8.284 6.716 15 15 15s15-6.716 15-15-6.716-15-15-15-15 6.716-15 15zm75-15c-8.284 0-15 6.716-15 15s6.716 15 15 15 15-6.716 15-15-6.715-15-15-15zm-30 60c-8.284 0-15 6.716-15 15s6.716 15 15 15 15-6.716 15-15-6.715-15-15-15zm60 30c8.284 0 15-6.716 15-15s-6.716-15-15-15-15 6.716-15 15 6.716 15 15 15zm-135-15c0 8.284 6.716 15 15 15s15-6.716 15-15-6.716-15-15-15-15 6.716-15 15zm75 45c-81.093 0-158.277 91.502-161.523 95.397-3.726 4.471-4.529 10.694-2.061 15.965s7.764 8.638 13.584 8.638h300c5.82 0 11.115-3.367 13.584-8.638s1.665-11.494-2.061-15.965c-3.246-3.895-80.43-95.397-161.523-95.397zm-114.739 90c26.514-24.982 71.409-60 114.739-60s88.226 35.018 114.739 60z" fill="url(#SVGID_1_)"/></g></g></svg>