<svg id="Capa_1" enable-background="new 0 0 512 512" height="512" viewBox="0 0 512 512" width="512" xmlns="http://www.w3.org/2000/svg" xmlns:xlink="http://www.w3.org/1999/xlink"><linearGradient id="SVGID_1_" gradientUnits="userSpaceOnUse" x1="256" x2="256" y1="512" y2="0"><stop offset="0" stop-color="#5558ff"/><stop offset="1" stop-color="#00c0ff"/></linearGradient><g><g><path d="m416.606 215.394-55.606-55.607v-38.787h15c8.284 0 15-6.716 15-15v-91c0-8.284-6.716-15-15-15h-240c-8.284 0-15 6.716-15 15v91c0 8.284 6.716 15 15 15h15v38.787l-55.606 55.607c-2.814 2.813-4.394 6.628-4.394 10.606v271c0 8.284 6.716 15 15 15h300c8.284 0 15-6.716 15-15v-271c0-3.978-1.58-7.793-4.394-10.606zm-265.606-185.394h210v61h-210zm240 452h-270v-249.787l55.606-55.607c2.814-2.813 4.394-6.628 4.394-10.606v-45h150v45c0 3.978 1.58 7.793 4.394 10.606l55.606 55.607zm-165-136c-8.284 0-15 6.716-15 15s6.716 15 15 15 15-6.716 15-15-6.715-15-15-15zm60 0c-8.284 0-15 6.716-15 15s6.716 15 15 15 15-6.716 15-15-6.715-15-15-15zm-30-105c-57.897 0-105 47.103-105 105 0 27.116 10.855 53.278 30 72.796v17.204c0 8.284 6.716 15 15 15h120c8.284 0 15-6.716 15-15v-17.204c19.145-19.518 30-45.68 30-72.796 0-57.897-47.103-105-105-105zm49.997 160.214c-3.18 2.846-4.997 6.911-4.997 11.178v8.608h-30v-15c0-8.284-6.716-15-15-15s-15 6.716-15 15v15h-30v-8.608c0-4.267-1.817-8.332-4.997-11.178-16.123-14.429-25.003-34.038-25.003-55.214 0-41.355 33.645-75 75-75s75 33.645 75 75c0 21.176-8.88 40.785-25.003 55.214zm-79.997-220.214c8.284 0 15-6.716 15-15s-6.716-15-15-15-15 6.716-15 15 6.716 15 15 15zm60 30c8.284 0 15-6.716 15-15s-6.716-15-15-15-15 6.716-15 15 6.716 15 15 15z" fill="url(#SVGID_1_)"/></g></g></svg>