<svg id="Capa_1" enable-background="new 0 0 512 512" height="512" viewBox="0 0 512 512" width="512" xmlns="http://www.w3.org/2000/svg" xmlns:xlink="http://www.w3.org/1999/xlink"><linearGradient id="SVGID_1_" gradientUnits="userSpaceOnUse" x1="256" x2="256" y1="512" y2="0"><stop offset="0" stop-color="#fd5900"/><stop offset="1" stop-color="#ffde00"/></linearGradient><g><g><path d="m376 90c-5.257 0-10.307.906-15 2.57v-17.57c0-24.813-20.187-45-45-45-5.852 0-11.446 1.123-16.579 3.164-5.21-19.089-22.703-33.164-43.421-33.164s-38.211 14.075-43.421 33.164c-5.133-2.041-10.727-3.164-16.579-3.164-24.813 0-45 20.187-45 45v109.57c-4.693-1.664-9.743-2.57-15-2.57-24.813 0-45 20.187-45 45v90c0 49.813 24.122 84.928 45.403 115.909 15.882 23.118 29.597 43.085 29.597 64.091 0 8.284 6.716 15 15 15h180c8.284 0 15-6.716 15-15 0-22.609 8.423-43.038 18.175-66.692 12.574-30.496 26.825-65.061 26.825-113.308v-182c0-24.813-20.187-45-45-45zm15 227c0 42.305-12.485 72.587-24.56 101.873-8.622 20.911-16.851 40.873-19.532 63.127h-152.297c-4.396-23.739-18.595-44.41-33.48-66.078-19.73-28.721-40.131-58.42-40.131-98.922v-90c0-8.271 6.729-15 15-15s15 6.729 15 15v90c0 8.284 6.716 15 15 15s15-6.716 15-15v-242c0-8.271 6.729-15 15-15s15 6.729 15 15v152c0 8.284 6.716 15 15 15s15-6.716 15-15v-182c0-8.271 6.729-15 15-15s15 6.729 15 15v182c0 8.284 6.716 15 15 15s15-6.716 15-15v-152c0-8.271 6.729-15 15-15s15 6.729 15 15v152c0 8.284 6.716 15 15 15s15-6.716 15-15v-92c0-8.271 6.729-15 15-15s15 6.729 15 15zm-90-45c-12.02 0-23.321 4.681-31.82 13.18l-60 60c-8.499 8.5-13.18 19.8-13.18 31.82 0 24.813 20.187 45 45 45 12.02 0 23.32-4.681 31.819-13.18l60-60c8.5-8.5 13.181-19.8 13.181-31.82 0-24.813-20.187-45-45-45zm10.606 55.607-60 60c-2.833 2.833-6.6 4.393-10.606 4.393-8.271 0-15-6.729-15-15 0-4.007 1.561-7.774 4.393-10.607l60-60c2.833-2.833 6.6-4.393 10.607-4.393 8.271 0 15 6.729 15 15 0 4.006-1.561 7.773-4.394 10.607z" fill="url(#SVGID_1_)"/></g></g></svg>