<svg id="Capa_1" enable-background="new 0 0 512 512" height="512" viewBox="0 0 512 512" width="512" xmlns="http://www.w3.org/2000/svg" xmlns:xlink="http://www.w3.org/1999/xlink"><linearGradient id="SVGID_1_" gradientUnits="userSpaceOnUse" x1="256" x2="256" y1="512" y2="0"><stop offset="0" stop-color="#5558ff"/><stop offset="1" stop-color="#00c0ff"/></linearGradient><g><g><path d="m452 90c-16.542 0-30-13.458-30-30s13.458-30 30-30h45c8.284 0 15-6.716 15-15s-6.716-15-15-15h-45c-33.084 0-60 26.916-60 60s26.916 60 60 60c15.981 0 30 14.953 30 32 0 16.542-13.458 30-30 30h-46.963c-6.356-8.439-13.335-16.497-20.938-24.099-42.497-42.497-98.999-65.901-159.099-65.901s-116.602 23.404-159.099 65.901c-42.497 42.497-65.901 98.999-65.901 159.099 0 39.495 10.383 78.351 30.027 112.367 19.049 32.986 46.368 60.816 79.004 80.481 2.337 1.408 5.014 2.152 7.742 2.152h216.455c2.729 0 5.405-.744 7.742-2.152 32.636-19.665 59.955-47.495 79.003-80.48 19.644-34.017 30.027-72.873 30.027-112.368 0-37.203-8.978-73.022-25.891-105h27.891c33.084 0 60-26.916 60-60 0-33.607-27.477-62-60-62zm-227 32c55.177 0 105.069 23.041 140.576 60h-281.152c35.507-36.959 85.399-60 140.576-60zm103.977 360h-207.954c-57.076-35.988-91.023-97.364-91.023-165 0-38.63 11.291-74.672 30.746-105h328.507c19.456 30.328 30.747 66.37 30.747 105 0 67.636-33.947 129.011-91.023 165zm-73.977-150h-15v-15c0-8.284-6.716-15-15-15s-15 6.716-15 15v15h-15c-8.284 0-15 6.716-15 15s6.716 15 15 15h15v15c0 8.284 6.716 15 15 15s15-6.716 15-15v-15h15c8.284 0 15-6.716 15-15s-6.716-15-15-15zm-30-90c-57.897 0-105 47.103-105 105s47.103 105 105 105 105-47.103 105-105-47.103-105-105-105zm0 180c-41.355 0-75-33.645-75-75s33.645-75 75-75 75 33.645 75 75-33.645 75-75 75z" fill="url(#SVGID_1_)"/></g></g></svg>