<svg id="Capa_1" enable-background="new 0 0 512 512" height="512" viewBox="0 0 512 512" width="512" xmlns="http://www.w3.org/2000/svg" xmlns:xlink="http://www.w3.org/1999/xlink"><linearGradient id="SVGID_1_" gradientUnits="userSpaceOnUse" x1="256" x2="256" y1="512" y2="0"><stop offset="0" stop-color="#fd5900"/><stop offset="1" stop-color="#ffde00"/></linearGradient><g><g><path d="m130.607 125.394c-6.84-6.84-10.606-15.934-10.606-25.607v-54.787c0-24.813-20.187-45-45-45s-45.001 20.187-45.001 45v54.787c0 9.673-3.767 18.767-10.606 25.607-12.507 12.505-19.394 29.133-19.394 46.819v167.573c0 17.686 6.887 34.314 19.393 46.82 6.84 6.841 10.607 15.935 10.607 25.607v54.787c0 24.813 20.187 45 45 45s45-20.187 45-45v-54.787c0-9.673 3.767-18.767 10.607-25.607 12.506-12.506 19.393-29.134 19.393-46.819v-167.574c0-17.685-6.887-34.313-19.393-46.819zm-100.607 85.606h30v90h-30zm90 128.787c0 9.673-3.767 18.767-10.606 25.607-12.507 12.505-19.394 29.133-19.394 46.819v54.787c0 8.271-6.729 15-15 15s-15-6.729-15-15v-54.787c0-17.686-6.887-34.313-19.394-46.82-6.839-6.839-10.606-15.934-10.606-25.606v-8.787h45c8.284 0 15-6.716 15-15v-120c0-8.284-6.716-15-15-15h-45v-8.787c0-9.673 3.767-18.767 10.607-25.607 12.506-12.506 19.393-29.134 19.393-46.819v-54.787c0-8.271 6.729-15 15-15s15 6.729 15 15v54.787c0 17.686 6.887 34.314 19.393 46.82 6.84 6.84 10.607 15.934 10.607 25.607zm181-240v-54.787c0-24.813-20.187-45-45-45s-45 20.187-45 45v54.787c0 9.673-3.767 18.767-10.606 25.607-12.507 12.505-19.394 29.133-19.394 46.819v167.573c0 17.686 6.887 34.314 19.393 46.82 6.84 6.84 10.607 15.934 10.607 25.607v54.787c0 24.813 20.187 45 45 45s45-20.187 45-45v-54.787c0-9.673 3.767-18.767 10.606-25.607 12.506-12.505 19.394-29.133 19.394-46.819v-167.574c0-17.686-6.888-34.314-19.393-46.819-6.841-6.841-10.607-15.935-10.607-25.607zm-90 111.213h30v90h-30zm90 128.787c0 9.673-3.767 18.767-10.606 25.607-12.507 12.505-19.394 29.133-19.394 46.819v54.787c0 8.271-6.729 15-15 15s-15-6.729-15-15v-54.787c0-17.686-6.887-34.313-19.394-46.82-6.84-6.84-10.606-15.934-10.606-25.607v-8.786h45c8.284 0 15-6.716 15-15v-120c0-8.284-6.716-15-15-15h-45v-8.787c0-9.673 3.767-18.767 10.607-25.607 12.506-12.506 19.393-29.134 19.393-46.819v-54.787c0-8.271 6.729-15 15-15s15 6.729 15 15v54.787c0 17.685 6.887 34.313 19.393 46.819 6.84 6.84 10.607 15.935 10.607 25.607zm191.607-214.393c-6.841-6.841-10.607-15.935-10.607-25.607v-54.787c0-24.813-20.187-45-45-45s-45 20.187-45 45v54.787c0 9.673-3.767 18.767-10.607 25.607-12.507 12.507-19.393 29.134-19.393 46.819v167.573c0 17.686 6.888 34.314 19.394 46.82 6.84 6.84 10.606 15.934 10.606 25.607v54.787c0 24.813 20.187 45 45 45s45-20.187 45-45v-54.787c0-9.673 3.767-18.767 10.606-25.607 12.506-12.505 19.394-29.133 19.394-46.819v-167.574c0-17.686-6.888-34.314-19.393-46.819zm-100.607 85.606h30v90h-30zm90 128.787c0 9.673-3.767 18.767-10.606 25.607-12.507 12.505-19.394 29.133-19.394 46.819v54.787c0 8.271-6.729 15-15 15s-15-6.729-15-15v-54.787c0-17.686-6.888-34.314-19.394-46.82-6.84-6.84-10.606-15.934-10.606-25.607v-8.786h45c8.284 0 15-6.716 15-15v-120c0-8.284-6.716-15-15-15h-45v-8.787c0-9.672 3.767-18.767 10.606-25.607 12.506-12.505 19.394-29.133 19.394-46.819v-54.787c0-8.271 6.729-15 15-15s15 6.729 15 15v54.787c0 17.685 6.887 34.313 19.393 46.819 6.84 6.84 10.607 15.935 10.607 25.607z" fill="url(#SVGID_1_)"/></g></g></svg>