<svg id="Capa_1" enable-background="new 0 0 512 512" height="512" viewBox="0 0 512 512" width="512" xmlns="http://www.w3.org/2000/svg" xmlns:xlink="http://www.w3.org/1999/xlink"><linearGradient id="SVGID_1_" gradientUnits="userSpaceOnUse" x1="256" x2="256" y1="512" y2="0"><stop offset="0" stop-color="#5558ff"/><stop offset="1" stop-color="#00c0ff"/></linearGradient><g><g><path d="m407 422h-30c-8.284 0-15 6.716-15 15s6.716 15 15 15h30c8.284 0 15-6.716 15-15s-6.716-15-15-15zm-30-90h-46v-22.737c37.22-24.929 60-67.169 60-112.263v-62c0-24.12-6.365-46.778-17.493-66.396-.349-.742-.768-1.452-1.238-2.132-23.519-39.752-66.829-66.472-116.269-66.472-74.439 0-135 60.561-135 135v62c0 45.094 22.78 87.334 60 112.263v22.737h-46c-74.439 0-135 60.561-135 135v30c0 8.284 6.716 15 15 15h482c8.284 0 15-6.716 15-15v-30c0-74.439-60.561-135-135-135zm-196 150h-151v-15c0-57.897 47.103-105 105-105h46zm75-452c35.619 0 67.146 17.832 86.14 45.032-19.531 27.935-51.766 44.968-86.14 44.968h-103.924c7.301-50.816 51.119-90 103.924-90zm45 452h-90v-102.117c13.543 7.813 29.069 12.117 45 12.117s31.457-4.304 45-12.117zm7.489-194.038c-4.635 2.681-7.489 7.629-7.489 12.984v40.7c-11.313 12.812-27.796 20.354-45 20.354s-33.687-7.542-45-20.354v-40.7c0-5.354-2.854-10.303-7.489-12.984-32.39-18.736-52.511-53.591-52.511-90.962v-47h105c38.684 0 75.259-16.774 100.615-45.036 2.848 9.521 4.385 19.601 4.385 30.036v62c0 37.371-20.121 72.226-52.511 90.962zm173.511 194.038h-151v-120h46c57.897 0 105 47.103 105 105z" fill="url(#SVGID_1_)"/></g></g></svg>