<svg id="Capa_1" enable-background="new 0 0 512 512" height="512" viewBox="0 0 512 512" width="512" xmlns="http://www.w3.org/2000/svg" xmlns:xlink="http://www.w3.org/1999/xlink"><linearGradient id="SVGID_1_" gradientUnits="userSpaceOnUse" x1="256" x2="256" y1="512" y2="0"><stop offset="0" stop-color="#fd3a84"/><stop offset="1" stop-color="#ffa68d"/></linearGradient><g><g><path d="m407 420h-30c-8.284 0-15 6.716-15 15s6.716 15 15 15h30c8.284 0 15-6.716 15-15s-6.716-15-15-15zm-30-90h-46v-22.737c3.403-2.279 6.681-4.706 9.836-7.263h65.164c41.355 0 75-33.645 75-75 0-8.284-6.716-15-15-15-41.355 0-75-33.645-75-75 0-74.439-60.561-135-135-135s-135 60.561-135 135c0 41.355-33.645 75-75 75-8.284 0-15 6.716-15 15 0 41.355 33.645 75 75 75h65.164c3.155 2.557 6.434 4.984 9.836 7.263v22.737h-46c-74.439 0-135 60.561-135 135v32c0 8.284 6.716 15 15 15h482c8.284 0 15-6.716 15-15v-32c0-74.439-60.561-135-135-135zm-196 152h-151v-17c0-57.897 47.103-105 105-105h46zm209.389-274.248c15.364 15.962 35.703 27.104 58.508 30.856-5.78 18.184-22.824 31.392-42.897 31.392h-37.837c12.306-18.427 20.078-39.795 22.226-62.248zm-134.389-177.752c52.805 0 96.623 39.184 103.924 90h-43.924c-24.813 0-45-20.187-45-45 0-8.284-6.716-15-15-15s-15 6.716-15 15c0 24.813-20.187 45-45 45h-43.924c7.301-50.816 51.119-90 103.924-90zm-150 240c-20.073 0-37.117-13.208-42.897-31.392 22.805-3.752 43.144-14.894 58.508-30.856 2.148 22.453 9.92 43.821 22.227 62.248zm195 212h-90v-104.117c13.543 7.813 29.069 12.117 45 12.117s31.457-4.304 45-12.117zm7.489-196.038c-4.635 2.681-7.489 7.629-7.489 12.984v40.7c-11.313 12.812-27.796 20.354-45 20.354s-33.687-7.542-45-20.354v-40.7c0-5.354-2.854-10.303-7.489-12.984-32.39-18.736-52.511-53.591-52.511-90.962v-45h45c24.508 0 46.306-11.818 60-30.052 13.694 18.234 35.492 30.052 60 30.052h45v45c0 37.371-20.121 72.226-52.511 90.962zm173.511 196.038h-151v-122h46c57.897 0 105 47.103 105 105z" fill="url(#SVGID_1_)"/></g></g></svg>