<?xml version="1.0" encoding="iso-8859-1"?>
<!-- Generator: Adobe Illustrator 19.0.0, SVG Export Plug-In . SVG Version: 6.00 Build 0)  -->
<svg version="1.1" id="Layer_1" xmlns="http://www.w3.org/2000/svg" xmlns:xlink="http://www.w3.org/1999/xlink" x="0px" y="0px"
	 viewBox="0 0 512 512" style="enable-background:new 0 0 512 512;" xml:space="preserve">
<g>
	<g>
		<path d="M256,0C114.511,0,0,114.496,0,256c0,141.489,114.496,256,256,256c141.489,0,256-114.496,256-256
			C512,114.511,397.504,0,256,0z M256,476.279c-121.462,0-220.279-98.817-220.279-220.279S134.538,35.721,256,35.721
			S476.279,134.538,476.279,256S377.462,476.279,256,476.279z"/>
	</g>
</g>
<g>
	<g>
		<path d="M256,203.609c-9.864,0-17.86,7.997-17.86,17.86v146.456c0,9.864,7.997,17.86,17.86,17.86s17.86-7.997,17.86-17.86V221.47
			C273.86,211.606,265.864,203.609,256,203.609z"/>
	</g>
</g>
<g>
	<g>
		<path d="M256,126.214c-9.864,0-17.86,7.997-17.86,17.86v21.433c0,9.864,7.997,17.86,17.86,17.86s17.86-7.997,17.86-17.86v-21.433
			C273.86,134.211,265.864,126.214,256,126.214z"/>
	</g>
</g>
<g>
</g>
<g>
</g>
<g>
</g>
<g>
</g>
<g>
</g>
<g>
</g>
<g>
</g>
<g>
</g>
<g>
</g>
<g>
</g>
<g>
</g>
<g>
</g>
<g>
</g>
<g>
</g>
<g>
</g>
</svg>
