<svg id="Layer_1" enable-background="new 0 0 512 512" height="512" viewBox="0 0 512 512" width="512" xmlns="http://www.w3.org/2000/svg"><g><path d="m256 0c-141.159 0-256 114.841-256 256s114.841 256 256 256 256-114.841 256-256-114.841-256-256-256zm0 482c-124.617 0-226-101.383-226-226s101.383-226 226-226 226 101.383 226 226-101.383 226-226 226z"/><path d="m256 96.4c-25.989 0-47.133 21.144-47.133 47.133s21.144 47.134 47.133 47.134 47.133-21.145 47.133-47.134-21.144-47.133-47.133-47.133zm0 64.267c-9.447 0-17.133-7.687-17.133-17.134s7.686-17.133 17.133-17.133 17.133 7.686 17.133 17.133-7.686 17.134-17.133 17.134z"/><path d="m256 224.934c-25.989 0-47.133 21.144-47.133 47.133v96.4c0 26.578 21.647 47.133 47.133 47.133 25.989 0 47.133-21.144 47.133-47.133v-96.4c0-26.578-21.647-47.133-47.133-47.133zm17.133 143.533c0 9.447-7.686 17.133-17.133 17.133-9.351 0-17.133-7.537-17.133-17.133v-96.4c0-9.447 7.686-17.133 17.133-17.133 9.351 0 17.133 7.537 17.133 17.133z"/></g></svg>