<svg id="Capa_1" enable-background="new 0 0 512 512" height="512" viewBox="0 0 512 512" width="512" xmlns="http://www.w3.org/2000/svg" xmlns:xlink="http://www.w3.org/1999/xlink"><linearGradient id="SVGID_1_" gradientUnits="userSpaceOnUse" x1="256" x2="256" y1="512" y2="0"><stop offset="0" stop-color="#addcff"/><stop offset=".5028" stop-color="#eaf6ff"/><stop offset="1" stop-color="#eaf6ff"/></linearGradient><linearGradient id="SVGID_2_" gradientUnits="userSpaceOnUse" x1="256" x2="256" y1="407" y2="282.647"><stop offset="0" stop-color="#00c0ff"/><stop offset="1" stop-color="#5558ff"/></linearGradient><g><g><circle cx="256" cy="256" fill="url(#SVGID_1_)" r="256"/></g><g><g><path d="m149.6 158.294h141.867c4.901 0 8.867-3.973 8.867-8.882v-35.529c0-4.91-3.966-8.882-8.867-8.882h-141.867c-4.901 0-8.867 3.973-8.867 8.882v35.529c0 4.909 3.966 8.882 8.867 8.882zm26.6 195.412h88.667v-88.824h-88.667zm26.6-53.294h8.867v-8.882c0-4.91 3.966-8.882 8.867-8.882s8.867 3.973 8.867 8.882v8.882h8.867c4.901 0 8.867 3.973 8.867 8.882 0 4.91-3.966 8.882-8.867 8.882h-8.868v8.882c0 4.91-3.966 8.882-8.867 8.882s-8.867-3.973-8.867-8.882v-8.882h-8.866c-4.901 0-8.867-3.973-8.867-8.882s3.966-8.882 8.867-8.882zm79.8-101.384v-22.969h-124.133v22.969l-32.869 32.927c-1.662 1.665-2.598 3.921-2.598 6.28v159.882c0 4.91 3.966 8.882 8.867 8.882h177.333c4.901 0 8.867-3.973 8.867-8.882v-159.882c0-2.359-.935-4.615-2.598-6.28zm0 163.56c0 4.91-3.966 8.882-8.867 8.882h-106.4c-4.901 0-8.867-3.973-8.867-8.882v-106.588c0-4.91 3.966-8.882 8.867-8.882h106.4c4.901 0 8.867 3.973 8.867 8.882zm79.8-79.941c-14.668 0-26.6 11.953-26.6 26.647v26.647h53.2v-26.647c0-14.694-11.932-26.647-26.6-26.647zm-26.6 97.706c0 14.694 11.932 26.647 26.6 26.647s26.6-11.953 26.6-26.647v-26.647h-53.2z" fill="url(#SVGID_2_)"/></g></g></g></svg>