<svg id="Capa_1" enable-background="new 0 0 512 512" height="512" viewBox="0 0 512 512" width="512" xmlns="http://www.w3.org/2000/svg" xmlns:xlink="http://www.w3.org/1999/xlink"><linearGradient id="SVGID_1_" gradientUnits="userSpaceOnUse" x1="256" x2="256" y1="512" y2="0"><stop offset="0" stop-color="#ffe59a"/><stop offset="1" stop-color="#ffffd5"/></linearGradient><linearGradient id="SVGID_2_" gradientUnits="userSpaceOnUse" x1="256" x2="256" y1="407" y2="105"><stop offset="0" stop-color="#ffde00"/><stop offset="1" stop-color="#fd5900"/></linearGradient><g><g><circle cx="256" cy="256" fill="url(#SVGID_1_)" r="256"/></g><g><g><path d="m371.464 397.311-17.769-195.412c-.416-4.571-4.251-8.076-8.85-8.076h-177.69c-4.598 0-8.433 3.504-8.85 8.076l-17.769 195.412c-.226 2.49.607 4.953 2.291 6.801 1.683 1.839 4.06 2.888 6.559 2.888h213.228c2.499 0 4.876-1.05 6.559-2.888 1.683-1.848 2.516-4.312 2.291-6.801zm-115.464-34.723c-34.289 0-62.191-27.896-62.191-62.176s27.903-62.176 62.191-62.176 62.191 27.896 62.191 62.176-27.902 62.176-62.191 62.176zm0-106.588c-24.502 0-44.422 19.925-44.422 44.412s19.921 44.412 44.422 44.412 44.422-19.925 44.422-44.412-19.92-44.412-44.422-44.412zm17.769 53.294h-8.884v8.882c0 4.91-3.974 8.882-8.885 8.882s-8.885-3.973-8.885-8.882v-8.882h-8.884c-4.911 0-8.885-3.973-8.885-8.882 0-4.91 3.974-8.882 8.885-8.882h8.884v-8.882c0-4.91 3.974-8.882 8.885-8.882s8.885 3.973 8.885 8.882v8.882h8.884c4.911 0 8.885 3.973 8.885 8.882s-3.974 8.882-8.885 8.882zm-53.307-151c0-19.595 15.947-35.529 35.538-35.529s35.538 15.934 35.538 35.529v17.765h17.769v-17.765c0-29.388-23.912-53.294-53.307-53.294s-53.307 23.906-53.307 53.294v17.765h17.769z" fill="url(#SVGID_2_)"/></g></g></g></svg>