<svg id="Capa_1" enable-background="new 0 0 512 512" height="512" viewBox="0 0 512 512" width="512" xmlns="http://www.w3.org/2000/svg" xmlns:xlink="http://www.w3.org/1999/xlink"><linearGradient id="SVGID_1_" gradientUnits="userSpaceOnUse" x1="256" x2="256" y1="512" y2="0"><stop offset="0" stop-color="#ffc8d1"/><stop offset="1" stop-color="#fff6f7"/></linearGradient><linearGradient id="SVGID_2_" gradientUnits="userSpaceOnUse" x1="256" x2="256" y1="407" y2="105"><stop offset="0" stop-color="#ffa68d"/><stop offset="1" stop-color="#fd3a84"/></linearGradient><g><g><circle cx="256" cy="256" fill="url(#SVGID_1_)" r="256"/></g><g><g><path d="m256 105c-83.255 0-151 67.737-151 151s67.745 151 151 151 151-67.737 151-151-67.745-151-151-151zm81.624 81.945-150.688 150.67c-3.47 3.47-9.09 3.47-12.56 0s-3.47-9.091 0-12.56l150.688-150.67c3.47-3.47 9.091-3.47 12.56 0 3.47 3.469 3.47 9.09 0 12.56z" fill="url(#SVGID_2_)"/></g></g></g></svg>