<svg id="Capa_1" enable-background="new 0 0 512 512" height="512" viewBox="0 0 512 512" width="512" xmlns="http://www.w3.org/2000/svg" xmlns:xlink="http://www.w3.org/1999/xlink"><linearGradient id="SVGID_1_" gradientUnits="userSpaceOnUse" x1="256" x2="256" y1="512" y2="0"><stop offset="0" stop-color="#c3ffe8"/><stop offset=".9973" stop-color="#f0fff4"/></linearGradient><linearGradient id="SVGID_2_" gradientUnits="userSpaceOnUse" x1="256.002" x2="256.002" y1="407" y2="105.052"><stop offset="0" stop-color="#9cffac"/><stop offset="1" stop-color="#00b59c"/></linearGradient><g><g><circle cx="256" cy="256" fill="url(#SVGID_1_)" r="256"/></g><g><g><path d="m398.067 229.384h-284.186c-4.909 0-8.881 3.972-8.881 8.881 0 59.841 34.656 113.161 88.808 137.488v22.367c0 4.909 3.972 8.881 8.881 8.881h106.57c4.909 0 8.881-3.972 8.881-8.881v-22.367c54.152-24.327 88.808-77.646 88.808-137.488 0-4.909-3.972-8.881-8.881-8.881zm-124.332 88.808h-8.881v8.881c0 4.909-3.972 8.881-8.881 8.881s-8.881-3.972-8.881-8.881v-8.881h-8.881c-4.909 0-8.881-3.972-8.881-8.881s3.972-8.881 8.881-8.881h8.881v-8.881c0-4.909 3.972-8.881 8.881-8.881s8.881 3.972 8.881 8.881v8.881h8.881c4.909 0 8.881 3.972 8.881 8.881s-3.972 8.881-8.881 8.881zm-110.661-142.507 3.016 3.016c6.418 6.418 9.956 14.952 9.956 24.041 0 4.909 3.972 8.881 8.881 8.881s8.881-3.972 8.881-8.881c0-9.089 3.539-17.623 9.956-24.041l3.016-3.016c32.34-2.152 58.074-28.878 58.074-61.752 0-4.909-3.972-8.881-8.881-8.881-32.874 0-59.6 25.734-61.752 58.074-2.038 2.17-5.349 4.837-9.295 10.646-3.949-5.814-7.25-8.469-9.295-10.646-2.152-32.34-28.878-58.074-61.751-58.074-4.909 0-8.881 3.972-8.881 8.881.001 32.874 25.735 59.6 58.075 61.752zm187.519 35.937 45.913-45.913c13.968-13.752 14.023-36.28.017-50.232-13.749-13.785-36.224-13.964-50.198-.009l-96.161 96.154z" fill="url(#SVGID_2_)"/></g></g></g></svg>