<svg id="Capa_1" enable-background="new 0 0 512 512" height="512" viewBox="0 0 512 512" width="512" xmlns="http://www.w3.org/2000/svg" xmlns:xlink="http://www.w3.org/1999/xlink"><linearGradient id="SVGID_1_" gradientUnits="userSpaceOnUse" x1="256" x2="256" y1="512" y2="0"><stop offset="0" stop-color="#ffe59a"/><stop offset="1" stop-color="#ffffd5"/></linearGradient><linearGradient id="SVGID_2_" gradientUnits="userSpaceOnUse" x1="125.418" x2="386.582" y1="386.244" y2="125.081"><stop offset="0" stop-color="#ffde00"/><stop offset="1" stop-color="#fd5900"/></linearGradient><g><g><circle cx="256" cy="256" fill="url(#SVGID_1_)" r="256"/></g><g><g><path d="m224.934 261.886 24.846 24.903 37.286-37.351-24.846-24.903zm161.514-136.938c-26.527-26.597-72.855-26.597-99.383 0l-161.513 161.833c-27.402 27.457-27.402 72.14 0 99.596 27.443 27.515 71.936 27.519 99.383 0l161.514-161.833c27.402-27.456 27.402-72.14-.001-99.596zm-99.388 62.246c3.431-3.437 8.993-3.437 12.424 0s3.431 9.011 0 12.448-8.993 3.437-12.424 0-3.43-9.01 0-12.448zm-111.817 136.937c-3.431 3.437-8.993 3.437-12.424 0-3.432-3.438-3.432-9.011 0-12.45 3.431-3.437 8.993-3.437 12.424 0 3.431 3.439 3.431 9.011 0 12.45zm24.848 24.897c-3.431 3.437-8.993 3.437-12.424 0s-3.431-9.011 0-12.448 8.993-3.437 12.424 0c3.432 3.437 3.432 9.01 0 12.448zm0-49.795c-3.431 3.437-8.993 3.437-12.424 0s-3.431-9.011 0-12.448 8.993-3.437 12.424 0c3.432 3.437 3.432 9.01 0 12.448zm24.849 24.898c-3.431 3.437-8.993 3.437-12.424 0-3.432-3.438-3.432-9.011 0-12.45 3.431-3.437 8.993-3.437 12.424 0 3.43 3.439 3.43 9.011 0 12.45zm80.76-68.468-49.708 49.798c-1.647 1.65-3.878 2.579-6.211 2.579-2.334 0-4.564-.928-6.211-2.579l-37.27-37.351c-3.432-3.439-3.432-9.009 0-12.447l49.708-49.798c1.647-1.651 3.878-2.579 6.211-2.579 2.334 0 4.564.928 6.211 2.579l37.268 37.351c3.434 3.438 3.434 9.008.002 12.447zm18.633-31.122c-3.431 3.437-8.993 3.437-12.424 0-3.432-3.437-3.432-9.011 0-12.45 3.431-3.437 8.993-3.437 12.424 0 3.431 3.439 3.431 9.012 0 12.45zm0-49.795c-3.431 3.437-8.993 3.437-12.424 0-3.432-3.437-3.432-9.011 0-12.448 3.431-3.438 8.993-3.438 12.424 0 3.431 3.437 3.431 9.01 0 12.448zm24.848 24.897c-3.431 3.437-8.993 3.437-12.424 0s-3.431-9.011 0-12.448 8.993-3.437 12.424 0 3.431 9.01 0 12.448z" fill="url(#SVGID_2_)"/></g></g></g></svg>