<svg id="Capa_1" enable-background="new 0 0 512 512" height="512" viewBox="0 0 512 512" width="512" xmlns="http://www.w3.org/2000/svg" xmlns:xlink="http://www.w3.org/1999/xlink"><linearGradient id="SVGID_1_" gradientUnits="userSpaceOnUse" x1="256" x2="256" y1="512" y2="0"><stop offset="0" stop-color="#ffc8d1"/><stop offset="1" stop-color="#fff6f7"/></linearGradient><linearGradient id="SVGID_2_" gradientUnits="userSpaceOnUse" x1="256" x2="256" y1="407" y2="105"><stop offset="0" stop-color="#ffa68d"/><stop offset="1" stop-color="#fd3a84"/></linearGradient><g><g><circle cx="256" cy="256" fill="url(#SVGID_1_)" r="256"/></g><g><g><path d="m291.455 318.176c-4.882 0-8.864 3.981-8.864 8.882s3.982 8.882 8.864 8.882 8.864-3.981 8.864-8.882c-.001-4.9-3.983-8.882-8.864-8.882zm-70.91-142.117c-4.882 0-8.864 3.981-8.864 8.882s3.982 8.882 8.864 8.882 8.864-3.981 8.864-8.882-3.982-8.882-8.864-8.882zm0 71.059c-4.882 0-8.864 3.981-8.864 8.882s3.982 8.882 8.864 8.882 8.864-3.981 8.864-8.882-3.982-8.882-8.864-8.882zm0 71.058c-4.882 0-8.864 3.981-8.864 8.882s3.982 8.882 8.864 8.882 8.864-3.981 8.864-8.882c0-4.9-3.982-8.882-8.864-8.882zm70.91-71.058c-4.882 0-8.864 3.981-8.864 8.882s3.982 8.882 8.864 8.882 8.864-3.981 8.864-8.882c-.001-4.901-3.983-8.882-8.864-8.882zm0-71.059c-4.882 0-8.864 3.981-8.864 8.882s3.982 8.882 8.864 8.882 8.864-3.981 8.864-8.882-3.983-8.882-8.864-8.882zm53.181-71.059h-177.272c-4.899 0-8.864 3.973-8.864 8.882v284.235c0 4.91 3.964 8.882 8.864 8.882h177.273c4.899 0 8.864-3.973 8.864-8.882v-284.235c-.001-4.909-3.965-8.882-8.865-8.882zm-124.091 248.706c-14.663 0-26.591-11.953-26.591-26.647s11.928-26.647 26.591-26.647 26.591 11.953 26.591 26.647-11.927 26.647-26.591 26.647zm0-71.059c-14.663 0-26.591-11.953-26.591-26.647s11.928-26.647 26.591-26.647 26.591 11.953 26.591 26.647-11.927 26.647-26.591 26.647zm0-71.059c-14.663 0-26.591-11.953-26.591-26.647s11.928-26.647 26.591-26.647 26.591 11.953 26.591 26.647-11.927 26.647-26.591 26.647zm70.91 142.118c-14.663 0-26.591-11.953-26.591-26.647s11.928-26.647 26.591-26.647 26.591 11.953 26.591 26.647c-.001 14.694-11.928 26.647-26.591 26.647zm0-71.059c-14.663 0-26.591-11.953-26.591-26.647s11.928-26.647 26.591-26.647 26.591 11.953 26.591 26.647c-.001 14.694-11.928 26.647-26.591 26.647zm0-71.059c-14.663 0-26.591-11.953-26.591-26.647s11.928-26.647 26.591-26.647 26.591 11.953 26.591 26.647-11.928 26.647-26.591 26.647z" fill="url(#SVGID_2_)"/></g></g></g></svg>