<svg id="Capa_1" enable-background="new 0 0 512 512" height="512" viewBox="0 0 512 512" width="512" xmlns="http://www.w3.org/2000/svg" xmlns:xlink="http://www.w3.org/1999/xlink"><linearGradient id="SVGID_1_" gradientUnits="userSpaceOnUse" x1="256" x2="256" y1="512" y2="0"><stop offset="0" stop-color="#ffc8d1"/><stop offset="1" stop-color="#fff6f7"/></linearGradient><linearGradient id="SVGID_2_" gradientUnits="userSpaceOnUse" x1="256" x2="256" y1="407" y2="105"><stop offset="0" stop-color="#ffa68d"/><stop offset="1" stop-color="#fd3a84"/></linearGradient><g><g><circle cx="256" cy="256" fill="url(#SVGID_1_)" r="256"/></g><g><g><path d="m220.545 167.176c-4.882 0-8.864 3.981-8.864 8.882v44.412c0 4.901 3.982 8.882 8.864 8.882s8.864-3.981 8.864-8.882v-44.412c0-4.9-3.982-8.882-8.864-8.882zm124.091-62.176h-177.272c-4.899 0-8.864 3.973-8.864 8.882v284.235c0 4.91 3.964 8.882 8.864 8.882h177.273c4.899 0 8.864-3.973 8.864-8.882v-284.235c-.001-4.909-3.965-8.882-8.865-8.882zm-97.5 230.941c0 14.694-11.928 26.647-26.591 26.647s-26.591-11.953-26.591-26.647v-44.412c0-14.694 11.928-26.647 26.591-26.647s26.591 11.953 26.591 26.647zm0-115.47c0 14.694-11.928 26.647-26.591 26.647s-26.591-11.953-26.591-26.647v-44.412c0-14.694 11.928-26.647 26.591-26.647s26.591 11.953 26.591 26.647zm70.909 115.47c0 14.694-11.928 26.647-26.591 26.647s-26.591-11.953-26.591-26.647v-44.412c0-14.694 11.928-26.647 26.591-26.647s26.591 11.953 26.591 26.647zm0-115.47c0 14.694-11.928 26.647-26.591 26.647s-26.591-11.953-26.591-26.647v-44.412c0-14.694 11.928-26.647 26.591-26.647s26.591 11.953 26.591 26.647zm-26.59 62.176c-4.882 0-8.864 3.981-8.864 8.882v44.412c0 4.901 3.982 8.882 8.864 8.882s8.864-3.981 8.864-8.882v-44.412c-.001-4.901-3.983-8.882-8.864-8.882zm0-115.471c-4.882 0-8.864 3.981-8.864 8.882v44.412c0 4.901 3.982 8.882 8.864 8.882s8.864-3.981 8.864-8.882v-44.412c-.001-4.9-3.983-8.882-8.864-8.882zm-70.91 115.471c-4.882 0-8.864 3.981-8.864 8.882v44.412c0 4.901 3.982 8.882 8.864 8.882s8.864-3.981 8.864-8.882v-44.412c0-4.901-3.982-8.882-8.864-8.882z" fill="url(#SVGID_2_)"/></g></g></g></svg>