<svg id="Capa_1" enable-background="new 0 0 512 512" height="512" viewBox="0 0 512 512" width="512" xmlns="http://www.w3.org/2000/svg" xmlns:xlink="http://www.w3.org/1999/xlink"><linearGradient id="SVGID_1_" gradientUnits="userSpaceOnUse" x1="256" x2="256" y1="512" y2="0"><stop offset="0" stop-color="#addcff"/><stop offset=".5028" stop-color="#eaf6ff"/><stop offset="1" stop-color="#eaf6ff"/></linearGradient><linearGradient id="SVGID_2_" gradientUnits="userSpaceOnUse" x1="256" x2="256" y1="407" y2="105"><stop offset="0" stop-color="#00c0ff"/><stop offset="1" stop-color="#5558ff"/></linearGradient><g><g><circle cx="256" cy="256" fill="url(#SVGID_1_)" r="256"/></g><g><g><path d="m309.182 193.823h-106.364c-24.444 0-44.318 19.925-44.318 44.412v159.882c0 4.91 3.964 8.882 8.864 8.882h177.272c4.899 0 8.864-3.973 8.864-8.882v-159.882c0-24.487-19.874-44.412-44.318-44.412zm8.863 168.765c0 4.91-3.964 8.882-8.864 8.882h-106.363c-4.899 0-8.864-3.973-8.864-8.882v-106.588c0-4.91 3.964-8.882 8.864-8.882h106.364c4.899 0 8.864 3.973 8.864 8.882v106.588zm-106.363-8.882h88.636v-88.823h-88.636zm26.591-53.294h8.864v-8.882c0-4.91 3.965-8.882 8.864-8.882s8.864 3.973 8.864 8.882v8.882h8.864c4.899 0 8.864 3.973 8.864 8.882 0 4.91-3.964 8.882-8.864 8.882h-8.864v8.882c0 4.91-3.965 8.882-8.864 8.882s-8.864-3.973-8.864-8.882v-8.882h-8.864c-4.899 0-8.864-3.973-8.864-8.882s3.965-8.882 8.864-8.882zm-74.874-143.055c4.345 2.177 9.685.44 11.893-3.973 9.435-18.884 28.374-30.62 49.442-30.62h22.401v35.529h-26.591c-4.899 0-8.864 3.973-8.864 8.882v8.882h88.636v-8.882c0-4.91-3.964-8.882-8.864-8.882h-26.591v-35.529h62.045c4.899 0 8.864-3.973 8.864-8.882 0-4.91-3.964-8.882-8.864-8.882h-102.171c-27.82 0-52.835 15.492-65.3 40.439-2.182 4.389-.416 9.724 3.964 11.918z" fill="url(#SVGID_2_)"/></g></g></g></svg>