<svg id="Capa_1" enable-background="new 0 0 512 512" height="512" viewBox="0 0 512 512" width="512" xmlns="http://www.w3.org/2000/svg" xmlns:xlink="http://www.w3.org/1999/xlink"><linearGradient id="SVGID_1_" gradientUnits="userSpaceOnUse" x1="256" x2="256" y1="512" y2="0"><stop offset="0" stop-color="#ffe59a"/><stop offset="1" stop-color="#ffffd5"/></linearGradient><linearGradient id="SVGID_2_" gradientUnits="userSpaceOnUse" x1="256" x2="256" y1="389.5" y2="122.5"><stop offset="0" stop-color="#ffde00"/><stop offset="1" stop-color="#fd5900"/></linearGradient><g><g><circle cx="256" cy="256" fill="url(#SVGID_1_)" r="256"/></g><g><g><path d="m256 353.9c24.496 0 44.412-19.964 44.412-44.5s-19.916-44.5-44.412-44.5-44.412 19.964-44.412 44.5 19.916 44.5 44.412 44.5zm-17.765-53.4h8.882v-8.9c0-4.919 3.973-8.9 8.882-8.9s8.882 3.981 8.882 8.9v8.9h8.882c4.91 0 8.882 3.981 8.882 8.9s-3.973 8.9-8.882 8.9h-8.882v8.9c0 4.919-3.973 8.9-8.882 8.9s-8.882-3.981-8.882-8.9v-8.9h-8.882c-4.91 0-8.882-3.981-8.882-8.9s3.973-8.9 8.882-8.9zm-115.47 80.1c0 4.919 3.973 8.9 8.882 8.9h248.706c4.909 0 8.882-3.981 8.882-8.9v-151.3h-266.47zm133.235-133.5c34.28 0 62.177 27.952 62.177 62.3s-27.896 62.3-62.177 62.3-62.177-27.952-62.177-62.3 27.897-62.3 62.177-62.3zm142.118-89h-88.823v-26.7c0-4.919-3.973-8.9-8.883-8.9h-88.823c-4.91 0-8.883 3.981-8.883 8.9v26.7h-88.823c-4.91 0-8.882 3.981-8.882 8.9v35.6c0 4.919 3.973 8.9 8.882 8.9h284.235c4.91 0 8.882-3.981 8.882-8.9v-35.6c0-4.919-3.973-8.9-8.882-8.9zm-106.589 0h-71.059v-17.8h71.059z" fill="url(#SVGID_2_)"/></g></g></g></svg>