<svg id="Capa_1" enable-background="new 0 0 512 512" height="512" viewBox="0 0 512 512" width="512" xmlns="http://www.w3.org/2000/svg" xmlns:xlink="http://www.w3.org/1999/xlink"><linearGradient id="SVGID_1_" gradientUnits="userSpaceOnUse" x1="256" x2="256" y1="512" y2="0"><stop offset="0" stop-color="#ffc8d1"/><stop offset="1" stop-color="#fff6f7"/></linearGradient><linearGradient id="SVGID_2_" gradientUnits="userSpaceOnUse" x1="256" x2="256" y1="336" y2="176"><stop offset="0" stop-color="#ffa68d"/><stop offset="1" stop-color="#fd3a84"/></linearGradient><g><g><circle cx="256" cy="256" fill="url(#SVGID_1_)" r="256"/></g><g><g><path d="m371.471 198.349v21.113c11.823 9.497 17.765 21.563 17.765 36.538 0 14.973-5.935 27.04-17.765 36.54v21.105c28.418-16.575 35.529-39.536 35.529-57.645 0-18.116-7.111-41.085-35.529-57.651zm-23.872-10.708c-23.524-7.726-54.335-11.641-91.599-11.641s-68.075 3.915-91.599 11.641c-3.643 1.198-6.107 4.609-6.107 8.446v119.826c0 3.837 2.463 7.248 6.107 8.446 23.524 7.726 54.335 11.641 91.599 11.641s68.075-3.915 91.599-11.641c3.643-1.198 6.107-4.609 6.107-8.446v-119.826c0-3.837-2.464-7.248-6.107-8.446zm-56.07 103.915h-71.059c-4.91 0-8.882-3.976-8.882-8.889s3.973-8.889 8.882-8.889h71.059c4.91 0 8.882 3.976 8.882 8.889s-3.972 8.889-8.882 8.889zm0-53.334h-71.059c-4.91 0-8.882-3.976-8.882-8.889s3.973-8.889 8.882-8.889h71.059c4.91 0 8.882 3.976 8.882 8.889.001 4.914-3.972 8.889-8.882 8.889zm-186.529 17.778c0 18.109 7.111 41.07 35.529 57.643v-21.103c-11.829-9.5-17.765-21.567-17.765-36.54 0-14.975 5.942-27.041 17.765-36.538v-21.113c-28.418 16.566-35.529 39.535-35.529 57.651z" fill="url(#SVGID_2_)"/></g></g></g></svg>