<svg id="Capa_1" enable-background="new 0 0 512 512" height="512" viewBox="0 0 512 512" width="512" xmlns="http://www.w3.org/2000/svg" xmlns:xlink="http://www.w3.org/1999/xlink"><linearGradient id="SVGID_1_" gradientUnits="userSpaceOnUse" x1="256" x2="256" y1="512" y2="0"><stop offset="0" stop-color="#ffbef9"/><stop offset="1" stop-color="#fff1ff"/></linearGradient><linearGradient id="SVGID_2_" gradientUnits="userSpaceOnUse" x1="256" x2="256" y1="407" y2="105"><stop offset="0" stop-color="#ff81ff"/><stop offset="1" stop-color="#a93aff"/></linearGradient><g><g><circle cx="256" cy="256" fill="url(#SVGID_1_)" r="256"/></g><g><g><path d="m348.954 105.884c-3.115-1.492-6.751-1.067-9.431 1.067l-16.704 13.332-16.705-13.332c-3.271-2.585-7.865-2.585-11.136 0l-16.704 13.332-16.705-13.332c-3.271-2.585-7.865-2.585-11.136 0l-16.704 13.332-16.705-13.332c-3.271-2.585-7.865-2.585-11.136 0l-16.704 13.332-16.705-13.332c-2.679-2.134-6.333-2.559-9.431-1.067-3.08 1.483-5.046 4.588-5.046 8.006v284.227c0 3.417 1.966 6.523 5.046 8.006 3.097 1.483 6.751 1.058 9.431-1.067l16.705-13.332 16.704 13.332c3.272 2.585 7.865 2.585 11.136 0l16.705-13.332 16.704 13.332c3.272 2.585 7.865 2.585 11.136 0l16.705-13.332 16.704 13.332c3.272 2.585 7.865 2.585 11.136 0l16.705-13.332 16.704 13.332c2.696 2.138 6.348 2.539 9.431 1.067 3.08-1.483 5.046-4.589 5.046-8.006v-284.227c0-3.418-1.966-6.523-5.046-8.006zm-110.772 87.944h8.909v-8.882c0-4.909 3.985-8.882 8.909-8.882s8.909 3.973 8.909 8.882v8.882h8.909c4.924 0 8.909 3.973 8.909 8.882s-3.985 8.882-8.909 8.882h-8.909v8.882c0 4.909-3.985 8.882-8.909 8.882s-8.909-3.973-8.909-8.882v-8.882h-8.909c-4.924 0-8.909-3.973-8.909-8.882s3.984-8.882 8.909-8.882zm53.454 142.114h-71.273c-4.924 0-8.909-3.973-8.909-8.882s3.985-8.882 8.909-8.882h71.273c4.924 0 8.909 3.973 8.909 8.882s-3.984 8.882-8.909 8.882zm0-35.528h-71.273c-4.924 0-8.909-3.973-8.909-8.882s3.985-8.882 8.909-8.882h71.273c4.924 0 8.909 3.973 8.909 8.882s-3.984 8.882-8.909 8.882zm0-35.529h-71.273c-4.924 0-8.909-3.973-8.909-8.882s3.985-8.882 8.909-8.882h71.273c4.924 0 8.909 3.973 8.909 8.882s-3.984 8.882-8.909 8.882z" fill="url(#SVGID_2_)"/></g></g></g></svg>