<svg id="Capa_1" enable-background="new 0 0 512 512" height="512" viewBox="0 0 512 512" width="512" xmlns="http://www.w3.org/2000/svg" xmlns:xlink="http://www.w3.org/1999/xlink"><linearGradient id="SVGID_1_" gradientUnits="userSpaceOnUse" x1="256" x2="256" y1="512" y2="0"><stop offset="0" stop-color="#c3ffe8"/><stop offset=".9973" stop-color="#f0fff4"/></linearGradient><linearGradient id="SVGID_2_" gradientUnits="userSpaceOnUse" x1="256" x2="256" y1="407" y2="105"><stop offset="0" stop-color="#9cffac"/><stop offset="1" stop-color="#00b59c"/></linearGradient><g><g><circle cx="256" cy="256" fill="url(#SVGID_1_)" r="256"/></g><g><g><path d="m353.625 247.118c-24.476 0-44.375 19.925-44.375 44.412s19.899 44.412 44.375 44.412 44.375-19.925 44.375-44.413-19.899-44.411-44.375-44.411zm0 53.294c-4.901 0-8.875-3.977-8.875-8.882 0-4.906 3.974-8.882 8.875-8.882s8.875 3.976 8.875 8.882c0 4.905-3.974 8.882-8.875 8.882zm-14.142 51.518c-9.615 21.919-31.45 37.306-56.858 37.306-34.252 0-62.125-27.896-62.125-62.177v-13.624c6.41-5.433 12.629-10.662 18.27-15.374 46.923-39.233 70.48-58.932 70.48-105.053v-25.832c0-21.926-15.992-40.074-36.9-43.655-3.457-10.704-13.392-18.521-25.225-18.521-14.682 0-26.625 11.953-26.625 26.647s11.943 26.647 26.625 26.647c11.177 0 20.729-6.947 24.671-16.737 11.316 3.072 19.704 13.335 19.704 25.619v25.832c0 30.553-12.543 46.824-41.161 71.874h-77.541c-28.544-24.909-41.048-41.101-41.048-71.874v-25.832c0-12.284 8.389-22.547 19.704-25.619 3.941 9.79 13.493 16.737 24.671 16.737 14.682 0 26.625-11.953 26.625-26.647s-11.943-26.647-26.625-26.647c-11.833 0-21.768 7.817-25.225 18.521-20.908 3.581-36.9 21.729-36.9 43.655v25.832c0 46.32 23.384 65.82 69.995 104.671 5.796 4.826 12.174 10.181 18.755 15.759v13.621c0 44.082 35.829 79.941 79.875 79.941 34.817 0 64.188-22.545 75.097-53.708-1.038.069-6.407 1.419-18.239-1.362zm-145.779-69.283h35.792c-11.274 9.43-15.852 13.298-17.871 15.006-6.94-5.854-11.43-9.586-17.921-15.006z" fill="url(#SVGID_2_)"/></g></g></g></svg>