<svg id="Capa_1" enable-background="new 0 0 512 512" height="512" viewBox="0 0 512 512" width="512" xmlns="http://www.w3.org/2000/svg" xmlns:xlink="http://www.w3.org/1999/xlink"><linearGradient id="SVGID_1_" gradientUnits="userSpaceOnUse" x1="256" x2="256" y1="512" y2="0"><stop offset="0" stop-color="#ffe59a"/><stop offset="1" stop-color="#ffffd5"/></linearGradient><linearGradient id="SVGID_2_" gradientUnits="userSpaceOnUse" x1="256" x2="256" y1="389" y2="123"><stop offset="0" stop-color="#ffde00"/><stop offset="1" stop-color="#fd5900"/></linearGradient><g><g><circle cx="256" cy="256" fill="url(#SVGID_1_)" r="256"/></g><g><g><path d="m398.118 140.231h-98.903c-23.42-22.975-63.009-22.975-86.43 0h-98.903c-4.91 0-8.882 3.974-8.882 8.885v71.077c0 4.911 3.973 8.885 8.882 8.885h98.903c11.71 11.488 26.907 17.769 43.215 17.769s31.505-6.282 43.215-17.769h98.903c4.91 0 8.882-3.974 8.882-8.885v-71.077c0-4.911-3.973-8.885-8.882-8.885zm-124.353 53.308h-8.882v8.885c0 4.911-3.973 8.885-8.882 8.885s-8.882-3.974-8.882-8.885v-8.885h-8.882c-4.91 0-8.882-3.974-8.882-8.885s3.973-8.885 8.882-8.885h8.882v-8.885c0-4.911 3.973-8.885 8.882-8.885s8.882 3.974 8.882 8.885v8.885h8.882c4.91 0 8.882 3.974 8.882 8.885s-3.973 8.885-8.882 8.885zm26.647 195.461h35.53v-88.846h-35.53zm-124.353-53.308h71.059v-35.538h-71.059zm79.941-71.076c-18.32 0-35.807-6.264-49.964-17.769h-83.272v133.269c0 4.911 3.973 8.885 8.882 8.885h151v-97.731c0-4.911 3.973-8.885 8.882-8.885h53.294c4.91 0 8.882 3.974 8.882 8.885v97.73h26.647c4.909 0 8.882-3.974 8.882-8.885v-133.269h-83.272c-14.154 11.505-31.641 17.77-49.961 17.77zm8.882 79.961c0 4.911-3.973 8.885-8.882 8.885h-88.823c-4.91 0-8.882-3.974-8.882-8.885v-53.307c0-4.911 3.973-8.885 8.882-8.885h88.823c4.91 0 8.882 3.974 8.882 8.885z" fill="url(#SVGID_2_)"/></g></g></g></svg>