<svg id="Capa_1" enable-background="new 0 0 512 512" height="512" viewBox="0 0 512 512" width="512" xmlns="http://www.w3.org/2000/svg" xmlns:xlink="http://www.w3.org/1999/xlink"><linearGradient id="SVGID_1_" gradientUnits="userSpaceOnUse" x1="256" x2="256" y1="512" y2="0"><stop offset="0" stop-color="#addcff"/><stop offset=".5028" stop-color="#eaf6ff"/><stop offset="1" stop-color="#eaf6ff"/></linearGradient><linearGradient id="SVGID_2_" gradientUnits="userSpaceOnUse" x1="256" x2="256" y1="407" y2="193.825"><stop offset="0" stop-color="#00c0ff"/><stop offset="1" stop-color="#5558ff"/></linearGradient><g><g><circle cx="256" cy="256" fill="url(#SVGID_1_)" r="256"/></g><g><g><path d="m220.47 105.002h-106.588c-4.91 0-8.882 3.973-8.882 8.882v35.529c0 4.91 3.973 8.882 8.882 8.882h106.588c4.909 0 8.882-3.973 8.882-8.882v-35.529c0-4.91-3.973-8.882-8.882-8.882zm-97.705 213.175h88.823v-106.588h-88.823zm0 79.941c0 4.91 3.973 8.882 8.882 8.882h71.058c4.91 0 8.882-3.973 8.882-8.882v-62.176h-88.823v62.176zm0-204.293h88.823v-17.765h-88.823zm248.704 62.176c-7.685 0-14.989-2.247-22.05-4.424-7.113-2.194-14.486-4.458-22.362-4.458s-15.249 2.264-22.362 4.458c-7.061 2.177-14.365 4.424-22.05 4.424s-14.989-2.247-22.05-4.424c-3.127-.962-6.214-1.839-9.313-2.613l13.633 149.96c.416 4.571 4.25 8.076 8.847 8.076h106.588c4.597 0 8.431-3.504 8.848-8.076l13.635-149.976c-3.116.776-6.208 1.667-9.315 2.628-7.06 2.178-14.364 4.425-22.049 4.425zm-53.294 35.529c4.905 0 8.882 3.976 8.882 8.882 0 4.905-3.977 8.882-8.882 8.882s-8.882-3.977-8.882-8.882c0-4.906 3.977-8.882 8.882-8.882zm26.647 79.941h-35.529c-4.909 0-8.882-3.973-8.882-8.882s3.973-8.882 8.882-8.882h35.529c4.91 0 8.882 3.973 8.882 8.882.001 4.909-3.972 8.882-8.882 8.882zm0-35.529c-4.905 0-8.882-3.977-8.882-8.882 0-4.906 3.977-8.882 8.882-8.882s8.882 3.976 8.882 8.882c.001 4.904-3.976 8.882-8.882 8.882zm59.852-139.229c-1.683-1.839-4.06-2.888-6.558-2.888h-142.117c-2.498 0-4.875 1.05-6.558 2.888-1.683 1.848-2.515 4.311-2.29 6.801l2.453 26.973c5.924 1.042 11.376 2.623 16.214 4.115 12.664 3.903 20.974 3.903 33.638 0 7.998-2.464 17.053-5.248 27.601-5.248s19.604 2.784 27.601 5.248c12.664 3.903 20.957 3.903 33.621 0 4.885-1.502 10.315-3.089 16.233-4.124l2.451-26.965c.226-2.489-.607-4.952-2.289-6.8z" fill="url(#SVGID_2_)"/></g></g></g></svg>