<svg id="Capa_1" enable-background="new 0 0 512 512" height="512" viewBox="0 0 512 512" width="512" xmlns="http://www.w3.org/2000/svg" xmlns:xlink="http://www.w3.org/1999/xlink"><linearGradient id="SVGID_1_" gradientUnits="userSpaceOnUse" x1="256" x2="256" y1="512" y2="0"><stop offset="0" stop-color="#addcff"/><stop offset=".5028" stop-color="#eaf6ff"/><stop offset="1" stop-color="#eaf6ff"/></linearGradient><linearGradient id="SVGID_2_" gradientUnits="userSpaceOnUse" x1="256" x2="256" y1="407" y2="105"><stop offset="0" stop-color="#00c0ff"/><stop offset="1" stop-color="#5558ff"/></linearGradient><g><g><circle cx="256" cy="256" fill="url(#SVGID_1_)" r="256"/></g><g><g><path d="m215.132 282.647 7.41-88.823h-21.934l7.41 88.823zm58.636-177.647h-124.387c-2.482 0-4.859 1.041-6.542 2.863-1.683 1.83-2.516 4.276-2.308 6.757l2.146 25.91h137.793l2.147-25.91c.208-2.481-.625-4.927-2.308-6.757-1.682-1.822-4.06-2.863-6.541-2.863zm-97.732 293.118c0 4.91 3.974 8.882 8.885 8.882h53.308c4.911 0 8.885-3.973 8.885-8.882v-26.647h-71.078zm-21.119-109.885c2.035 22.873 7.667 44.781 16.382 65.473h80.552c8.716-20.693 14.347-42.607 16.381-65.525l10.765-129.887h-134.846zm29.5-109.303c1.683-1.83 4.061-2.871 6.542-2.871h41.231c2.482 0 4.859 1.041 6.542 2.871 1.683 1.822 2.516 4.276 2.308 6.749l-8.885 106.588c-.382 4.606-4.234 8.145-8.85 8.145h-23.461c-4.616 0-8.468-3.539-8.85-8.145l-8.885-106.588c-.208-2.473.625-4.928 2.308-6.749zm166.103 30.62c9.336-7.746 20.98-17.383 20.98-42.373v-53.294c0-4.91-3.974-8.882-8.885-8.882h-35.539c-4.911 0-8.885 3.973-8.885 8.882v53.294c0 4.909 3.974 8.882 8.885 8.882h25.843c-1.88 9.841-7.05 14.261-13.748 19.803-9.336 7.746-20.98 17.383-20.98 42.374v159.882c0 4.91 3.974 8.882 8.885 8.882h35.539c4.911 0 8.885-3.973 8.885-8.882v-124.353c0-21.217-14.977-38.957-34.91-43.33 1.696-10.607 6.993-15.146 13.93-20.885z" fill="url(#SVGID_2_)"/></g></g></g></svg>