<svg id="Capa_1" enable-background="new 0 0 512 512" height="512" viewBox="0 0 512 512" width="512" xmlns="http://www.w3.org/2000/svg" xmlns:xlink="http://www.w3.org/1999/xlink"><linearGradient id="SVGID_1_" gradientUnits="userSpaceOnUse" x1="256" x2="256" y1="512" y2="0"><stop offset="0" stop-color="#ffe59a"/><stop offset="1" stop-color="#ffffd5"/></linearGradient><linearGradient id="SVGID_2_" gradientUnits="userSpaceOnUse" x1="256" x2="256" y1="407" y2="105"><stop offset="0" stop-color="#ffde00"/><stop offset="1" stop-color="#fd5900"/></linearGradient><g><g><circle cx="256" cy="256" fill="url(#SVGID_1_)" r="256"/></g><g><g><path d="m253.796 180.862-93.536 58.349 43.324 161.289c1.03 3.836 4.513 6.5 8.494 6.5h96.639v-105.226h-22.427zm-18.64-69.363c-.618-2.252-2.093-4.162-4.101-5.326-2.042-1.165-4.41-1.473-6.675-.873l-84.868 22.804c-4.684 1.259-7.464 6.063-6.212 10.738l22.205 82.669 93.535-58.348zm135.059 190.275h-43.927v105.226h43.927c4.856 0 8.785-3.922 8.785-8.769v-87.688c0-4.846-3.929-8.769-8.785-8.769z" fill="url(#SVGID_2_)"/></g></g></g></svg>