<svg id="Capa_1" enable-background="new 0 0 512 512" height="512" viewBox="0 0 512 512" width="512" xmlns="http://www.w3.org/2000/svg" xmlns:xlink="http://www.w3.org/1999/xlink"><linearGradient id="SVGID_1_" gradientUnits="userSpaceOnUse" x1="256" x2="256" y1="512" y2="0"><stop offset="0" stop-color="#addcff"/><stop offset=".5028" stop-color="#eaf6ff"/><stop offset="1" stop-color="#eaf6ff"/></linearGradient><linearGradient id="SVGID_2_" gradientUnits="userSpaceOnUse" x1="132.74" x2="404.398" y1="379.26" y2="107.602"><stop offset="0" stop-color="#00c0ff"/><stop offset="1" stop-color="#5558ff"/></linearGradient><g><g><circle cx="256" cy="256" fill="url(#SVGID_1_)" r="256"/></g><g><g><path d="m286.255 175.643c-3.081-3.081-8.286-3.731-12.168-.261-.12.108-8.362 8.236-19.229 19.106l25.047 25.047c3.47 3.47 3.47 9.091 0 12.56-3.469 3.469-9.09 3.47-12.56 0l-25.045-25.047c-3.988 3.988-8.209 8.211-12.559 12.561l25.045 25.045c3.47 3.469 3.47 9.09 0 12.56s-9.09 3.47-12.56 0l-25.044-25.044c-4.19 4.189-8.371 8.371-12.56 12.56l25.045 25.045c3.47 3.469 3.47 9.091 0 12.56s-9.091 3.47-12.56 0l-25.044-25.044c-4.36 4.36-8.565 8.565-12.56 12.56l25.045 25.044c3.47 3.47 3.47 9.091 0 12.56-3.47 3.47-9.09 3.47-12.56 0l-25.046-25.045c-11.305 11.305-18.828 18.826-18.828 18.826-1.665 1.666-2.602 3.921-2.602 6.28s.937 4.615 2.602 6.28l50.085 50.094c1.735 1.735 4.007 2.602 6.28 2.602s4.528-.859 6.263-2.585c1.96-1.952 121.89-121.881 125.619-125.611 3.454-3.454 3.459-9.101 0-12.56zm118.143-68.041c-3.47-3.47-9.091-3.47-12.56 0l-61.76 61.76-6.332-6.332c-3.47-3.47-9.091-3.47-12.56 0l-6.212 6.209c48.249 48.462 22.15 22.159 37.79 37.781l6.206-6.206c3.47-3.47 3.47-9.091 0-12.56l-6.332-6.332 61.76-61.76c3.469-3.469 3.469-9.09 0-12.56zm-262.655 224.948-15.265 15.327-6.315-6.315c-3.47-3.47-9.091-3.47-12.56 0-3.47 3.47-3.47 9.091 0 12.56l50.275 50.275c3.47 3.469 9.091 3.47 12.56 0s3.47-9.091 0-12.56l-6.318-6.318 15.327-15.259z" fill="url(#SVGID_2_)"/></g></g></g></svg>