<svg id="Capa_1" enable-background="new 0 0 512 512" height="512" viewBox="0 0 512 512" width="512" xmlns="http://www.w3.org/2000/svg" xmlns:xlink="http://www.w3.org/1999/xlink"><linearGradient id="SVGID_1_" gradientUnits="userSpaceOnUse" x1="256" x2="256" y1="512" y2="0"><stop offset="0" stop-color="#ffc8d1"/><stop offset="1" stop-color="#fff6f7"/></linearGradient><linearGradient id="SVGID_2_" gradientUnits="userSpaceOnUse" x1="117.865" x2="393.939" y1="393.848" y2="117.774"><stop offset="0" stop-color="#ffa68d"/><stop offset="1" stop-color="#fd3a84"/></linearGradient><g><g><circle cx="256" cy="256" fill="url(#SVGID_1_)" r="256"/></g><g><g><path d="m393.923 117.76c-16.731-17.045-46.002-16.949-62.525-.096-10.738 10.588-25.893 36.854-30.483 57.62-3.048 13.821-1.299 24.156 5.231 30.736 7.782 7.816 19.674 7.671 30.535 5.264 20.576-4.61 46.643-19.817 57.225-30.614 17.594-17.56 17.338-45.696.017-62.91zm-218.751 182.636c-20.438 4.575-46.539 19.703-57.208 30.422-17.285 17.411-17.285 45.725 0 63.127 17.381 17.49 45.529 17.348 62.733 0 10.652-10.701 25.686-36.975 30.241-57.559 3.048-13.821 1.299-24.165-5.231-30.718-6.512-6.596-16.835-8.321-30.535-5.272zm106.88-108.329-89.928 89.53c12.876 1.228 21.368 6.639 26.157 11.498 5.187 5.196 10.429 13.688 11.522 26.508l89.923-89.519c-12.816-1.226-21.302-6.611-26.104-11.428-5.218-5.265-10.47-13.78-11.57-26.589z" fill="url(#SVGID_2_)"/></g></g></g></svg>