<svg id="Capa_1" enable-background="new 0 0 512 512" height="512" viewBox="0 0 512 512" width="512" xmlns="http://www.w3.org/2000/svg" xmlns:xlink="http://www.w3.org/1999/xlink"><linearGradient id="SVGID_1_" gradientUnits="userSpaceOnUse" x1="256" x2="256" y1="512" y2="0"><stop offset="0" stop-color="#addcff"/><stop offset=".5028" stop-color="#eaf6ff"/><stop offset="1" stop-color="#eaf6ff"/></linearGradient><linearGradient id="SVGID_2_" gradientUnits="userSpaceOnUse" x1="256" x2="256" y1="407" y2="105"><stop offset="0" stop-color="#00c0ff"/><stop offset="1" stop-color="#5558ff"/></linearGradient><g><g><circle cx="256" cy="256" fill="url(#SVGID_1_)" r="256"/></g><g><g><path d="m256 211.588c-24.444 0-44.318 19.925-44.318 44.412s19.874 44.412 44.318 44.412 44.318-19.924 44.318-44.412-19.874-44.412-44.318-44.412zm17.727 53.294h-8.864v8.882c0 4.91-3.964 8.882-8.864 8.882s-8.864-3.973-8.864-8.882v-8.882h-8.864c-4.899 0-8.864-3.973-8.864-8.882s3.964-8.882 8.864-8.882h8.864v-8.882c0-4.91 3.964-8.882 8.864-8.882s8.864 3.973 8.864 8.882v8.882h8.864c4.899 0 8.864 3.973 8.864 8.882s-3.964 8.882-8.864 8.882zm53.182-159.882h-141.818c-14.663 0-26.591 11.953-26.591 26.647v248.706c0 14.694 11.928 26.647 26.591 26.647h141.818c14.663 0 26.591-11.953 26.591-26.647v-248.706c0-14.694-11.928-26.647-26.591-26.647zm-70.909 35.529c4.895 0 8.864 3.976 8.864 8.882 0 4.905-3.969 8.883-8.864 8.883s-8.864-3.977-8.864-8.883 3.969-8.882 8.864-8.882zm17.727 230.942h-35.455c-4.899 0-8.864-3.973-8.864-8.883 0-4.909 3.964-8.882 8.864-8.882h35.455c4.899 0 8.864 3.973 8.864 8.882 0 4.91-3.964 8.883-8.864 8.883zm-17.727-53.294c-34.208 0-62.045-27.896-62.045-62.177s27.837-62.177 62.045-62.177 62.045 27.897 62.045 62.177-27.837 62.177-62.045 62.177z" fill="url(#SVGID_2_)"/></g></g></g></svg>