<svg id="Capa_1" enable-background="new 0 0 512 512" height="512" viewBox="0 0 512 512" width="512" xmlns="http://www.w3.org/2000/svg" xmlns:xlink="http://www.w3.org/1999/xlink"><linearGradient id="SVGID_1_" gradientUnits="userSpaceOnUse" x1="256" x2="256" y1="512" y2="0"><stop offset="0" stop-color="#ffc8d1"/><stop offset="1" stop-color="#fff6f7"/></linearGradient><linearGradient id="SVGID_2_" gradientUnits="userSpaceOnUse" x1="256" x2="256" y1="407" y2="105"><stop offset="0" stop-color="#ffa68d"/><stop offset="1" stop-color="#fd3a84"/></linearGradient><g><g><circle cx="256" cy="256" fill="url(#SVGID_1_)" r="256"/></g><g><g><path d="m291.529 193.823c-24.496 0-44.412 19.925-44.412 44.412s19.916 44.412 44.412 44.412 44.412-19.925 44.412-44.412-19.916-44.412-44.412-44.412zm17.765 53.295h-8.882v8.882c0 4.91-3.973 8.882-8.882 8.882-4.91 0-8.882-3.973-8.882-8.882v-8.882h-8.882c-4.91 0-8.882-3.973-8.882-8.882 0-4.91 3.973-8.882 8.882-8.882h8.882v-8.882c0-4.91 3.973-8.883 8.882-8.883 4.91 0 8.882 3.973 8.882 8.883v8.882h8.882c4.91 0 8.882 3.973 8.882 8.882s-3.972 8.882-8.882 8.882zm88.824-124.353h-213.177c-4.91 0-8.882 3.973-8.882 8.882v44.412h-17.765v-62.177c0-4.91-3.973-8.882-8.882-8.882h-35.529c-4.91 0-8.882 3.973-8.882 8.882v284.235c0 4.91 3.973 8.882 8.882 8.882h35.529c4.91 0 8.882-3.973 8.882-8.882v-97.706h17.765v44.412c0 4.91 3.973 8.882 8.882 8.882h213.177c4.91 0 8.882-3.973 8.882-8.882v-213.176c0-4.909-3.973-8.882-8.882-8.882zm-222.059 159.882h-17.765v-88.823h17.765zm115.47 17.765c-34.28 0-62.176-27.896-62.176-62.176s27.896-62.177 62.176-62.177 62.176 27.896 62.176 62.177-27.895 62.176-62.176 62.176z" fill="url(#SVGID_2_)"/></g></g></g></svg>