<svg id="Capa_1" enable-background="new 0 0 512 512" height="512" viewBox="0 0 512 512" width="512" xmlns="http://www.w3.org/2000/svg" xmlns:xlink="http://www.w3.org/1999/xlink"><linearGradient id="SVGID_1_" gradientUnits="userSpaceOnUse" x1="256" x2="256" y1="512" y2="0"><stop offset="0" stop-color="#ffbef9"/><stop offset="1" stop-color="#fff1ff"/></linearGradient><linearGradient id="SVGID_2_" gradientUnits="userSpaceOnUse" x1="256" x2="256" y1="407" y2="105"><stop offset="0" stop-color="#ff81ff"/><stop offset="1" stop-color="#a93aff"/></linearGradient><g><g><circle cx="256" cy="256" fill="url(#SVGID_1_)" r="256"/></g><g><g><path d="m247.107 158.294c19.939 0 35.571-11.701 35.571-26.647s-15.632-26.647-35.571-26.647-35.572 11.701-35.572 26.647c.001 14.946 15.633 26.647 35.572 26.647zm133.393 44.412v-17.765c0-4.91-3.978-8.882-8.893-8.882h-177.857c-4.915 0-8.893 3.973-8.893 8.882v17.765c0 50.876 39.154 92.746 88.928 97.256v18.215h-26.678c-53.93 0-97.822-43.831-97.822-97.706 0-32.676 19.542-60.647 47.993-73.018-2.189-4.906-3.529-10.188-3.529-15.805 0-.662.194-1.273.227-1.928-36.838 14.205-62.477 49.384-62.477 90.751 0 63.668 51.863 115.47 115.607 115.47h26.678v17.765h-26.678c-14.711 0-26.679 11.953-26.679 26.647 0 4.909 3.977 8.882 8.893 8.882s8.893-3.973 8.893-8.882c0-4.901 3.995-8.882 8.893-8.882h26.678v17.765h-26.678c-4.915 0-8.893 3.973-8.893 8.882s3.977 8.882 8.893 8.882h71.143c4.915 0 8.893-3.973 8.893-8.882s-3.977-8.882-8.893-8.882h-26.679v-17.765h44.464c14.711 0 26.679-11.953 26.679-26.647s-11.967-26.647-26.679-26.647h-44.464v-18.215c49.776-4.51 88.93-46.38 88.93-97.256zm-44.464 133.235c4.898 0 8.893 3.981 8.893 8.882s-3.995 8.882-8.893 8.882h-44.464v-17.765h44.464zm-53.357-71.059c-4.915 0-8.893-3.973-8.893-8.882v-8.882h-8.893c-4.915 0-8.893-3.973-8.893-8.882 0-4.91 3.978-8.882 8.893-8.882h8.893v-8.882c0-4.91 3.978-8.883 8.893-8.883s8.893 3.973 8.893 8.883v8.882h8.893c4.915 0 8.893 3.973 8.893 8.882s-3.978 8.882-8.893 8.882h-8.893v8.882c-.001 4.91-3.978 8.882-8.893 8.882z" fill="url(#SVGID_2_)"/></g></g></g></svg>