<svg id="Capa_1" enable-background="new 0 0 512 512" height="512" viewBox="0 0 512 512" width="512" xmlns="http://www.w3.org/2000/svg" xmlns:xlink="http://www.w3.org/1999/xlink"><linearGradient id="SVGID_1_" gradientUnits="userSpaceOnUse" x1="256" x2="256" y1="512" y2="0"><stop offset="0" stop-color="#c3ffe8"/><stop offset=".9973" stop-color="#f0fff4"/></linearGradient><linearGradient id="SVGID_2_" gradientUnits="userSpaceOnUse" x1="256.002" x2="256.002" y1="407" y2="105.07"><stop offset="0" stop-color="#9cffac"/><stop offset="1" stop-color="#00b59c"/></linearGradient><g><g><circle cx="256" cy="256" fill="url(#SVGID_1_)" r="256"/></g><g><g><path d="m398.067 229.384h-284.186c-4.909 0-8.881 3.972-8.881 8.881 0 59.842 34.656 113.161 88.808 137.488v22.367c0 4.909 3.972 8.881 8.881 8.881h106.57c4.909 0 8.881-3.972 8.881-8.881v-22.367c54.152-24.327 88.808-77.646 88.808-137.488 0-4.909-3.972-8.881-8.881-8.881zm-124.332 88.808h-8.881v8.881c0 4.909-3.972 8.881-8.881 8.881s-8.881-3.972-8.881-8.881v-8.881h-8.881c-4.909 0-8.881-3.972-8.881-8.881s3.972-8.881 8.881-8.881h8.881v-8.881c0-4.909 3.972-8.881 8.881-8.881s8.881 3.972 8.881 8.881v8.881h8.881c4.909 0 8.881 3.972 8.881 8.881s-3.972 8.881-8.881 8.881zm-151.513-140.478 37.676-37.676-9.418-9.418c-10.373-10.39-27.302-10.39-37.674 0-10.39 10.39-10.39 27.284 0 37.674zm21.978 21.992c10.445 10.393 27.334 10.331 37.674-.009 10.39-10.39 10.39-27.293 0-37.683l-9.418-9.419-37.681 37.681zm76.251-5.846c14.691 0 26.642-11.951 26.642-26.642 0-14.692-11.951-26.643-26.642-26.643-14.692 0-26.643 11.951-26.643 26.643 0 14.691 11.951 26.642 26.643 26.642zm176.055-28.151c13.968-13.752 14.023-36.28.017-50.232-13.749-13.785-36.224-13.965-50.198-.009l-96.161 96.154h100.428z" fill="url(#SVGID_2_)"/></g></g></g></svg>