<svg id="Capa_1" enable-background="new 0 0 512 512" height="512" viewBox="0 0 512 512" width="512" xmlns="http://www.w3.org/2000/svg" xmlns:xlink="http://www.w3.org/1999/xlink"><linearGradient id="SVGID_1_" gradientUnits="userSpaceOnUse" x1="256" x2="256" y1="512" y2="0"><stop offset="0" stop-color="#ffe59a"/><stop offset="1" stop-color="#ffffd5"/></linearGradient><linearGradient id="SVGID_2_" gradientUnits="userSpaceOnUse" x1="150.317" x2="399.303" y1="361.626" y2="112.64"><stop offset="0" stop-color="#ffde00"/><stop offset="1" stop-color="#fd5900"/></linearGradient><g><g><circle cx="256" cy="256" fill="url(#SVGID_1_)" r="256"/></g><g><g><path d="m150.375 286.51c-10.488-10.769-27.438-10.538-37.623-.078-10.336 10.362-10.336 27.205 0 37.567l75.177 75.238c10.393 10.384 27.159 10.3 37.484.052 10.821-10.593 10.407-27.521.052-37.619zm248.834-173.964c-10.007-10.05-27.667-10.085-37.744.035l-10.544 10.674c-22.473-7.953-47.786-2.504-64.598 14.486l-129.762 129.869 87.707 87.788 129.732-129.839c17.002-16.851 22.49-42.159 14.509-64.685l10.666-10.553c.017-.009.017-.026.034-.035 10.388-10.405 10.388-27.334 0-37.74z" fill="url(#SVGID_2_)"/></g></g></g></svg>