<svg id="Capa_1" enable-background="new 0 0 512 512" height="512" viewBox="0 0 512 512" width="512" xmlns="http://www.w3.org/2000/svg" xmlns:xlink="http://www.w3.org/1999/xlink"><linearGradient id="SVGID_1_" gradientUnits="userSpaceOnUse" x1="256" x2="256" y1="512" y2="0"><stop offset="0" stop-color="#ffe59a"/><stop offset="1" stop-color="#ffffd5"/></linearGradient><linearGradient id="SVGID_2_" gradientUnits="userSpaceOnUse" x1="256" x2="256" y1="407" y2="105"><stop offset="0" stop-color="#ffde00"/><stop offset="1" stop-color="#fd5900"/></linearGradient><g><g><circle cx="256" cy="256" fill="url(#SVGID_1_)" r="256"/></g><g><g><path d="m273.769 229.353c-24.502 0-44.423 19.925-44.423 44.412s19.921 44.412 44.423 44.412 44.423-19.925 44.423-44.412-19.921-44.412-44.423-44.412zm17.769 53.294h-8.885v8.882c0 4.91-3.974 8.882-8.885 8.882s-8.885-3.973-8.885-8.882v-8.882h-8.883c-4.911 0-8.885-3.973-8.885-8.882s3.974-8.882 8.885-8.882h8.885v-8.883c0-4.91 3.974-8.882 8.885-8.882s8.885 3.973 8.885 8.882v8.882h8.885c4.911 0 8.885 3.973 8.885 8.882s-3.976 8.883-8.887 8.883zm6.282-121.751 2.603 2.602v-58.498h-17.769v58.499l2.603-2.602c3.47-3.47 9.093-3.47 12.563-.001zm29.257-55.896h-8.885v79.941c0 3.591-2.169 6.835-5.483 8.206-3.223 1.355-7.093.664-9.683-1.926l-11.488-11.485-11.488 11.485c-2.533 2.533-6.386 3.313-9.683 1.926-3.314-1.371-5.483-4.615-5.483-8.206v-79.941h-71.077v302h133.269c24.502 0 44.423-19.925 44.423-44.412v-213.176c.001-24.487-19.92-44.412-44.422-44.412zm-53.308 230.941c-34.289 0-62.192-27.896-62.192-62.177s27.903-62.177 62.192-62.177 62.192 27.896 62.192 62.177-27.903 62.177-62.192 62.177zm-133.269-222.059v284.235c0 4.91 3.974 8.882 8.885 8.882h26.654v-301.999h-26.654c-4.911 0-8.885 3.973-8.885 8.882z" fill="url(#SVGID_2_)"/></g></g></g></svg>