<svg id="Capa_1" enable-background="new 0 0 512 512" height="512" viewBox="0 0 512 512" width="512" xmlns="http://www.w3.org/2000/svg" xmlns:xlink="http://www.w3.org/1999/xlink"><linearGradient id="SVGID_1_" gradientUnits="userSpaceOnUse" x1="256" x2="256" y1="512" y2="0"><stop offset="0" stop-color="#ffbef9"/><stop offset="1" stop-color="#fff1ff"/></linearGradient><linearGradient id="SVGID_2_" gradientUnits="userSpaceOnUse" x1="112.557" x2="394.212" y1="399.211" y2="117.555"><stop offset="0" stop-color="#ff81ff"/><stop offset="1" stop-color="#a93aff"/></linearGradient><g><g><circle cx="256" cy="256" fill="url(#SVGID_1_)" r="256"/></g><g><g><path d="m112.662 362.227c-10.216 10.229-10.216 26.861 0 37.089 10.245 10.257 26.808 10.248 37.044 0l30.894-30.932-37.043-37.096zm281.513-244.708c-16.526-16.717-45.247-16.657-61.637-.026l-16.032 16.052 24.628 24.658c3.411 3.415 3.411 8.948 0 12.363s-8.937 3.415-12.348 0l-24.627-24.657-12.348 12.363 24.627 24.657c3.411 3.415 3.411 8.948 0 12.363s-8.937 3.415-12.348 0l-24.627-24.657-12.347 12.364 24.625 24.656c3.411 3.415 3.411 8.948 0 12.363s-8.937 3.415-12.348 0l-24.626-24.656-12.348 12.363 24.626 24.656c3.411 3.415 3.411 8.948 0 12.363s-8.937 3.415-12.348 0l-24.624-24.655-12.348 12.363 24.624 24.655c3.411 3.415 3.411 8.948 0 12.363s-8.937 3.415-12.348 0l-24.624-24.655-12.347 12.364 24.623 24.654c3.411 3.415 3.411 8.948 0 12.363s-8.937 3.415-12.348 0l-24.623-24.653-6.246 6.254c-4.503 4.5-7.197 10.468-7.59 16.786-.628 9.772-4.621 18.916-11.101 26.183l37.203 37.255 3.284-3.288c5.253-5.259 12.433-8.154 19.938-7.65 7.317.273 14.633-2.374 19.869-7.616l158.101-158.295c17.152-17.208 17.144-44.47.035-61.653z" fill="url(#SVGID_2_)"/></g></g></g></svg>