<svg id="Capa_1" enable-background="new 0 0 512 512" height="512" viewBox="0 0 512 512" width="512" xmlns="http://www.w3.org/2000/svg" xmlns:xlink="http://www.w3.org/1999/xlink"><linearGradient id="SVGID_1_" gradientUnits="userSpaceOnUse" x1="256" x2="256" y1="512" y2="0"><stop offset="0" stop-color="#addcff"/><stop offset=".5028" stop-color="#eaf6ff"/><stop offset="1" stop-color="#eaf6ff"/></linearGradient><linearGradient id="SVGID_2_" gradientUnits="userSpaceOnUse" x1="256" x2="256" y1="407" y2="105"><stop offset="0" stop-color="#00c0ff"/><stop offset="1" stop-color="#5558ff"/></linearGradient><g><g><circle cx="256" cy="256" fill="url(#SVGID_1_)" r="256"/></g><g><g><path d="m256 176.059c-24.496 0-44.412 19.925-44.412 44.412s19.916 44.412 44.412 44.412 44.412-19.925 44.412-44.412c0-24.488-19.916-44.412-44.412-44.412zm17.765 53.294h-8.882v8.882c0 4.909-3.973 8.882-8.882 8.882s-8.882-3.973-8.882-8.882v-8.882h-8.882c-4.91 0-8.882-3.973-8.882-8.882 0-4.91 3.973-8.883 8.882-8.883h8.882v-8.882c0-4.909 3.973-8.882 8.882-8.882s8.882 3.973 8.882 8.882v8.882h8.882c4.91 0 8.882 3.973 8.882 8.883 0 4.909-3.973 8.882-8.882 8.882zm124.353-124.353h-284.236c-4.91 0-8.882 3.973-8.882 8.882v213.177c0 4.909 3.973 8.882 8.882 8.882h284.235c4.91 0 8.882-3.973 8.882-8.882v-213.177c.001-4.909-3.972-8.882-8.881-8.882zm-142.118 177.647c-34.28 0-62.177-27.896-62.177-62.176 0-34.281 27.896-62.177 62.177-62.177s62.177 27.896 62.177 62.177c0 34.28-27.897 62.176-62.177 62.176zm41.02 71.059h-82.04l-20.22 40.439c-1.37 2.75-1.232 6.02.382 8.64 1.631 2.619 4.493 4.216 7.564 4.216h106.588c3.071 0 5.933-1.596 7.564-4.216 1.614-2.62 1.752-5.89.382-8.64z" fill="url(#SVGID_2_)"/></g></g></g></svg>