<svg id="Capa_1" enable-background="new 0 0 512 512" height="512" viewBox="0 0 512 512" width="512" xmlns="http://www.w3.org/2000/svg" xmlns:xlink="http://www.w3.org/1999/xlink"><linearGradient id="SVGID_1_" gradientUnits="userSpaceOnUse" x1="256" x2="256" y1="512" y2="0"><stop offset="0" stop-color="#ffc8d1"/><stop offset="1" stop-color="#fff6f7"/></linearGradient><linearGradient id="SVGID_2_" gradientUnits="userSpaceOnUse" x1="256" x2="256" y1="407" y2="105"><stop offset="0" stop-color="#ffa68d"/><stop offset="1" stop-color="#fd3a84"/></linearGradient><g><g><circle cx="256" cy="256" fill="url(#SVGID_1_)" r="256"/></g><g><g><path d="m256 229.353c-24.502 0-44.423 19.925-44.423 44.412s19.921 44.412 44.423 44.412 44.423-19.925 44.423-44.412-19.921-44.412-44.423-44.412zm17.769 53.294h-8.885v8.882c0 4.91-3.974 8.882-8.885 8.882s-8.885-3.973-8.885-8.882v-8.882h-8.885c-4.911 0-8.885-3.973-8.885-8.882s3.974-8.882 8.885-8.882h8.885v-8.883c0-4.91 3.974-8.882 8.885-8.882s8.885 3.973 8.885 8.882v8.882h8.885c4.911 0 8.885 3.973 8.885 8.882s-3.974 8.883-8.885 8.883zm88.846-142.118h-26.654v26.647c0 14.694-11.956 26.647-26.654 26.647h-106.615c-14.698 0-26.654-11.953-26.654-26.647v-26.647h-26.654c-4.911 0-8.885 3.973-8.885 8.882v248.706c0 4.91 3.974 8.882 8.885 8.882h213.23c4.911 0 8.885-3.973 8.885-8.882v-248.705c.001-4.91-3.973-8.883-8.884-8.883zm-106.615 195.412c-34.289 0-62.192-27.896-62.192-62.177s27.903-62.177 62.192-62.177 62.192 27.896 62.192 62.177-27.903 62.177-62.192 62.177zm-53.308-159.882h106.615c4.911 0 8.885-3.973 8.885-8.882v-35.53c0-4.909-3.974-8.882-8.885-8.882h-28.181c-3.661-10.34-13.534-17.765-25.126-17.765s-21.465 7.425-25.127 17.765h-28.181c-4.911 0-8.885 3.973-8.885 8.882v35.53c.001 4.909 3.974 8.882 8.885 8.882z" fill="url(#SVGID_2_)"/></g></g></g></svg>