<svg id="Capa_1" enable-background="new 0 0 512 512" height="512" viewBox="0 0 512 512" width="512" xmlns="http://www.w3.org/2000/svg" xmlns:xlink="http://www.w3.org/1999/xlink"><linearGradient id="SVGID_1_" gradientUnits="userSpaceOnUse" x1="256" x2="256" y1="512" y2="0"><stop offset="0" stop-color="#ffe59a"/><stop offset="1" stop-color="#ffffd5"/></linearGradient><linearGradient id="SVGID_2_" gradientUnits="userSpaceOnUse" x1="256" x2="256" y1="407" y2="105"><stop offset="0" stop-color="#ffde00"/><stop offset="1" stop-color="#fd5900"/></linearGradient><g><g><circle cx="256" cy="256" fill="url(#SVGID_1_)" r="256"/></g><g><g><path d="m345 105h-178c-24.545 0-44.5 19.925-44.5 44.412v213.177c0 24.486 19.955 44.411 44.5 44.411h178c24.545 0 44.5-19.925 44.5-44.412v-213.176c0-24.487-19.955-44.412-44.5-44.412zm-80.1 257.588c0 4.91-3.981 8.882-8.9 8.882s-8.9-3.973-8.9-8.882v-106.588c0-4.91 3.981-8.882 8.9-8.882s8.9 3.973 8.9 8.882zm62.3-133.235h-142.4c-4.919 0-8.9-3.973-8.9-8.882 0-44.082 35.93-79.941 80.1-79.941s80.1 35.859 80.1 79.941c0 4.909-3.981 8.882-8.9 8.882zm-71.2-71.059c-31.324 0-57.328 23.203-61.674 53.294h57.989l24.093-24.045c3.477-3.47 9.109-3.47 12.585 0s3.477 9.091 0 12.56l-11.507 11.485h40.189c-4.347-30.09-30.351-53.294-61.675-53.294z" fill="url(#SVGID_2_)"/></g></g></g></svg>