<svg id="Capa_1" enable-background="new 0 0 512 512" height="512" viewBox="0 0 512 512" width="512" xmlns="http://www.w3.org/2000/svg" xmlns:xlink="http://www.w3.org/1999/xlink"><linearGradient id="SVGID_1_" gradientUnits="userSpaceOnUse" x1="256" x2="256" y1="512" y2="0"><stop offset="0" stop-color="#ffc8d1"/><stop offset="1" stop-color="#fff6f7"/></linearGradient><linearGradient id="SVGID_2_" gradientUnits="userSpaceOnUse" x1="256" x2="256" y1="392" y2="120"><stop offset="0" stop-color="#ffa68d"/><stop offset="1" stop-color="#fd3a84"/></linearGradient><g><g><circle cx="256" cy="256" fill="url(#SVGID_1_)" r="256"/></g><g><g><path d="m256 220.521c-24.496 0-44.412 19.896-44.412 44.349s19.916 44.349 44.412 44.349 44.412-19.896 44.412-44.349-19.916-44.349-44.412-44.349zm17.765 53.218h-8.882v8.87c0 4.902-3.973 8.87-8.882 8.87s-8.882-3.967-8.882-8.87v-8.87h-8.882c-4.91 0-8.882-3.967-8.882-8.87s3.973-8.87 8.882-8.87h8.882v-8.87c0-4.903 3.973-8.87 8.882-8.87s8.882 3.967 8.882 8.87v8.871h8.882c4.91 0 8.882 3.967 8.882 8.87 0 4.902-3.973 8.869-8.882 8.869zm53.294-153.739c-36.31 0-59.939 18.9-71.059 30.542-11.12-11.642-34.749-30.542-71.059-30.542-44.828 0-79.941 38.528-79.941 87.71 0 55.254 45.47 133.375 147.079 183.38 1.232.606 2.585.91 3.921.91s2.689-.303 3.921-.91c101.609-50.005 147.079-128.126 147.079-183.38 0-49.182-35.113-87.71-79.941-87.71zm-71.059 206.958c-34.28 0-62.176-27.856-62.176-62.088 0-34.231 27.896-62.088 62.176-62.088s62.176 27.857 62.176 62.088c0 34.232-27.896 62.088-62.176 62.088z" fill="url(#SVGID_2_)"/></g></g></g></svg>