<svg id="Capa_1" enable-background="new 0 0 512 512" height="512" viewBox="0 0 512 512" width="512" xmlns="http://www.w3.org/2000/svg" xmlns:xlink="http://www.w3.org/1999/xlink"><linearGradient id="SVGID_1_" gradientUnits="userSpaceOnUse" x1="256" x2="256" y1="512" y2="0"><stop offset="0" stop-color="#ffe59a"/><stop offset="1" stop-color="#ffffd5"/></linearGradient><linearGradient id="SVGID_2_" gradientUnits="userSpaceOnUse" x1="256" x2="256" y1="407" y2="105"><stop offset="0" stop-color="#ffde00"/><stop offset="1" stop-color="#fd5900"/></linearGradient><g><g><circle cx="256" cy="256" fill="url(#SVGID_1_)" r="256"/></g><g><g><path d="m344.696 158.294c-7.347 0-13.304 5.965-13.304 13.323v66.618c0 4.909-3.967 8.882-8.87 8.882s-8.87-3.973-8.87-8.882v-102.147c0-7.359-5.957-13.323-13.304-13.323s-13.304 5.965-13.304 13.323v102.147c0 4.909-3.967 8.882-8.87 8.882-4.902 0-8.87-3.973-8.87-8.882v-119.912c0-7.359-5.957-13.323-13.304-13.323s-13.304 5.965-13.304 13.323v119.912c0 4.909-3.967 8.882-8.87 8.882s-8.87-3.973-8.87-8.882v-102.147c0-7.359-5.957-13.323-13.304-13.323s-13.304 5.965-13.304 13.323v155.441c0 4.91-3.967 8.882-8.87 8.882s-8.87-3.973-8.87-8.882v-66.618c0-7.359-5.957-13.323-13.304-13.323s-13.304 5.965-13.304 13.324v66.618c0 23.984 12.066 41.567 23.733 58.577 23.469 34.213 20.615 34.623 20.615 56.894h133.043c0-22.364-1.682-21.675 12.083-55.15 7.146-17.341 14.526-35.27 14.526-60.322v-119.911c0-7.359-5.957-13.324-13.304-13.324z" fill="url(#SVGID_2_)"/></g></g></g></svg>