<svg id="Capa_1" enable-background="new 0 0 512 512" height="512" viewBox="0 0 512 512" width="512" xmlns="http://www.w3.org/2000/svg" xmlns:xlink="http://www.w3.org/1999/xlink"><linearGradient id="SVGID_1_" gradientUnits="userSpaceOnUse" x1="256" x2="256" y1="512" y2="0"><stop offset="0" stop-color="#ffe59a"/><stop offset="1" stop-color="#ffffd5"/></linearGradient><linearGradient id="SVGID_2_" gradientUnits="userSpaceOnUse" x1="256" x2="256" y1="398" y2="114"><stop offset="0" stop-color="#ffde00"/><stop offset="1" stop-color="#fd5900"/></linearGradient><g><g><circle cx="256" cy="256" fill="url(#SVGID_1_)" r="256"/></g><g><g><path d="m269.727 233.097c-25.238 0-45.758 20.55-45.758 45.807 0 25.256 20.52 45.806 45.758 45.806s45.758-20.55 45.758-45.806c0-25.257-20.52-45.807-45.758-45.807zm18.303 54.967h-9.151v9.161c0 5.064-4.093 9.162-9.152 9.162s-9.152-4.098-9.152-9.162v-9.161h-9.151c-5.058 0-9.152-4.098-9.152-9.161 0-5.064 4.093-9.161 9.152-9.161h9.151v-9.161c0-5.064 4.093-9.161 9.152-9.161s9.152 4.097 9.152 9.161v9.161h9.151c5.058 0 9.152 4.097 9.152 9.161s-4.093 9.161-9.152 9.161zm109.819-128.258c-24.455 0-214.554 0-238.134 0 0 95.054.194-74.593.194 210.71 0 10.998-4.965 20.763-12.652 27.484h232.288c15.14 0 27.455-12.328 27.455-27.484v-201.548c0-5.064-4.093-9.162-9.151-9.162zm-128.122 183.226c-35.319 0-64.061-28.772-64.061-64.129s28.741-64.129 64.061-64.129 64.061 28.772 64.061 64.129-28.742 64.129-64.061 64.129zm-45.757-201.548-16.659-16.677c-6.971-6.969-16.194-10.807-25.989-10.807h-58.019c-10.099 0-18.303 8.222-18.303 18.323v238.194c0 10.101 8.204 18.323 18.303 18.323 10.191 0 18.303-9.148 18.303-18.323 0-263.47-.197-105.51-.197-229.032h82.561z" fill="url(#SVGID_2_)"/></g></g></g></svg>