<svg id="Capa_1" enable-background="new 0 0 512 512" height="512" viewBox="0 0 512 512" width="512" xmlns="http://www.w3.org/2000/svg" xmlns:xlink="http://www.w3.org/1999/xlink"><linearGradient id="SVGID_1_" gradientUnits="userSpaceOnUse" x1="256" x2="256" y1="512" y2="0"><stop offset="0" stop-color="#addcff"/><stop offset=".5028" stop-color="#eaf6ff"/><stop offset="1" stop-color="#eaf6ff"/></linearGradient><linearGradient id="SVGID_2_" gradientUnits="userSpaceOnUse" x1="256" x2="256" y1="407" y2="105"><stop offset="0" stop-color="#00c0ff"/><stop offset="1" stop-color="#5558ff"/></linearGradient><g><g><circle cx="256" cy="256" fill="url(#SVGID_1_)" r="256"/></g><g><g><path d="m192.263 335.941h127.575l5.483-35.53h-138.557zm159.595-227.844c-1.705-1.969-4.176-3.097-6.769-3.097h-178.179c-2.593 0-5.063 1.127-6.769 3.097-1.688 1.969-2.436 4.571-2.036 7.139l6.664 43.059h182.481l6.645-43.059c.399-2.568-.349-5.171-2.037-7.139zm-158.221 245.609v44.412c0 4.91 3.985 8.882 8.909 8.882h26.727v-26.647c0-4.91 3.985-8.882 8.909-8.882s8.909 3.973 8.909 8.882v26.647h17.818v-26.647c0-4.91 3.985-8.882 8.909-8.882s8.909 3.973 8.909 8.882v26.647h26.727c4.924 0 8.909-3.973 8.909-8.882l-.089-44.412zm-9.622-71.059h144.046l16.448-106.588h-176.99zm54.167-62.176h8.909v-8.882c0-4.91 3.985-8.882 8.909-8.882s8.909 3.973 8.909 8.882v8.882h8.909c4.924 0 8.909 3.973 8.909 8.882s-3.985 8.882-8.909 8.882h-8.909v8.882c0 4.91-3.985 8.882-8.909 8.882s-8.909-3.973-8.909-8.882v-8.882h-8.909c-4.924 0-8.909-3.973-8.909-8.882s3.985-8.882 8.909-8.882z" fill="url(#SVGID_2_)"/></g></g></g></svg>