<svg id="Capa_1" enable-background="new 0 0 512 512" height="512" viewBox="0 0 512 512" width="512" xmlns="http://www.w3.org/2000/svg" xmlns:xlink="http://www.w3.org/1999/xlink"><linearGradient id="SVGID_1_" gradientUnits="userSpaceOnUse" x1="256" x2="256" y1="512" y2="0"><stop offset="0" stop-color="#c3ffe8"/><stop offset=".9973" stop-color="#f0fff4"/></linearGradient><linearGradient id="SVGID_2_" gradientUnits="userSpaceOnUse" x1="256" x2="256" y1="407" y2="105"><stop offset="0" stop-color="#9cffac"/><stop offset="1" stop-color="#00b59c"/></linearGradient><g><g><circle cx="256" cy="256" fill="url(#SVGID_1_)" r="256"/></g><g><g><path d="m193.7 353.706h124.6v-88.824h-124.6zm44.5-53.294h8.9v-8.882c0-4.91 3.981-8.882 8.9-8.882s8.9 3.973 8.9 8.882v8.882h8.9c4.919 0 8.9 3.973 8.9 8.882 0 4.91-3.981 8.882-8.9 8.882h-8.9v8.882c0 4.91-3.981 8.883-8.9 8.883s-8.9-3.973-8.9-8.883v-8.882h-8.9c-4.919 0-8.9-3.973-8.9-8.882s3.981-8.882 8.9-8.882zm142.4-88.824h-249.2c-4.919 0-8.9 3.973-8.9 8.882v177.647c0 4.91 3.981 8.882 8.9 8.882h249.2c4.919 0 8.9-3.973 8.9-8.882v-177.646c0-4.91-3.981-8.883-8.9-8.883zm-44.5 151c0 4.91-3.981 8.882-8.9 8.882h-142.4c-4.919 0-8.9-3.973-8.9-8.882v-106.588c0-4.91 3.981-8.882 8.9-8.882h142.4c4.919 0 8.9 3.973 8.9 8.882zm17.8-213.176c0-24.487-19.956-44.412-44.5-44.412-4.919 0-8.9 3.973-8.9 8.882 0 4.901-3.998 8.882-8.9 8.882h-89c-21.496 0-39.465 15.283-43.6 35.529h194c.587-2.87.9-5.84.9-8.881zm17.8 35.529c0-4.91-3.981-8.883-8.9-8.883h-213.6c-4.919 0-8.9 3.973-8.9 8.883v8.882h231.4z" fill="url(#SVGID_2_)"/></g></g></g></svg>