<svg id="Capa_1" enable-background="new 0 0 512 512" height="512" viewBox="0 0 512 512" width="512" xmlns="http://www.w3.org/2000/svg" xmlns:xlink="http://www.w3.org/1999/xlink"><linearGradient id="SVGID_1_" gradientUnits="userSpaceOnUse" x1="256" x2="256" y1="512" y2="0"><stop offset="0" stop-color="#ffbef9"/><stop offset="1" stop-color="#fff1ff"/></linearGradient><linearGradient id="SVGID_2_" gradientUnits="userSpaceOnUse" x1="256" x2="256" y1="407" y2="105"><stop offset="0" stop-color="#ff81ff"/><stop offset="1" stop-color="#a93aff"/></linearGradient><g><g><circle cx="256" cy="256" fill="url(#SVGID_1_)" r="256"/></g><g><g><path d="m300.412 238.235c0 28.477 12.04 93.785 16.203 115.471h20.887c4.164-21.686 16.203-86.994 16.203-115.471 0-22.709-17.088-46.312-26.647-57.744-9.558 11.433-26.646 35.035-26.646 57.744zm-142.118 0c0 28.477 12.04 93.785 16.203 115.471h20.887c4.164-21.686 16.203-86.994 16.203-115.471 0-22.709-17.088-46.312-26.647-57.744-9.558 11.433-26.646 35.035-26.646 57.744zm239.824-79.941c-4.892 0-8.882-3.981-8.882-8.882v-35.529c0-4.91-3.973-8.882-8.882-8.882h-106.589c-4.91 0-8.882 3.973-8.882 8.882v35.529c0 4.901-3.99 8.882-8.882 8.882s-8.882-3.981-8.882-8.882v-35.529c0-4.91-3.973-8.882-8.882-8.882h-106.59c-4.909 0-8.882 3.973-8.882 8.882v35.529c0 4.901-3.99 8.882-8.882 8.882-4.91 0-8.882 3.973-8.882 8.882v230.941c0 4.91 3.973 8.882 8.882 8.882h133.235v-44.412c0-4.91 3.973-8.882 8.882-8.882s8.882 3.973 8.882 8.882v44.413h133.235c4.91 0 8.882-3.973 8.882-8.882v-230.942c.001-4.909-3.972-8.882-8.881-8.882zm-186.703 206.038c-.833 4.146-4.476 7.139-8.709 7.139h-35.529c-4.233 0-7.876-2.993-8.709-7.139-.729-3.66-17.938-90.099-17.938-126.096 0-38.765 36.57-75.786 38.132-77.339 3.47-3.47 9.09-3.47 12.56 0 1.562 1.553 38.132 38.574 38.132 77.339-.001 35.997-17.211 122.435-17.939 126.096zm53.467-37.273c0 4.91-3.973 8.883-8.882 8.883s-8.882-3.973-8.882-8.883v-17.765c0-4.909 3.973-8.882 8.882-8.882s8.882 3.973 8.882 8.882zm0-53.294c0 4.91-3.973 8.882-8.882 8.882s-8.882-3.973-8.882-8.882v-17.765c0-4.91 3.973-8.882 8.882-8.882s8.882 3.973 8.882 8.882zm0-53.294c0 4.909-3.973 8.882-8.882 8.882s-8.882-3.973-8.882-8.882v-17.765c0-4.91 3.973-8.883 8.882-8.883s8.882 3.973 8.882 8.883zm88.65 143.861c-.833 4.146-4.476 7.139-8.709 7.139h-35.529c-4.233 0-7.876-2.993-8.709-7.139-.729-3.66-17.938-90.099-17.938-126.096 0-38.765 36.57-75.786 38.132-77.339 3.47-3.47 9.09-3.47 12.56 0 1.561 1.553 38.132 38.574 38.132 77.339 0 35.997-17.21 122.435-17.939 126.096z" fill="url(#SVGID_2_)"/></g></g></g></svg>