<svg id="Capa_1" enable-background="new 0 0 512 512" height="512" viewBox="0 0 512 512" width="512" xmlns="http://www.w3.org/2000/svg" xmlns:xlink="http://www.w3.org/1999/xlink"><linearGradient id="SVGID_1_" gradientUnits="userSpaceOnUse" x1="256" x2="256" y1="512" y2="0"><stop offset="0" stop-color="#ffe59a"/><stop offset="1" stop-color="#ffffd5"/></linearGradient><linearGradient id="SVGID_2_" gradientUnits="userSpaceOnUse" x1="256" x2="256" y1="407" y2="105"><stop offset="0" stop-color="#ffde00"/><stop offset="1" stop-color="#fd5900"/></linearGradient><g><g><circle cx="256" cy="256" fill="url(#SVGID_1_)" r="256"/></g><g><g><path d="m140.5 335.941h124.385v-88.824h-124.385zm44.423-53.294h8.885v-8.882c0-4.91 3.974-8.882 8.885-8.882s8.885 3.973 8.885 8.882v8.882h8.885c4.911 0 8.885 3.973 8.885 8.882s-3.974 8.882-8.885 8.882h-8.885v8.882c0 4.91-3.974 8.882-8.885 8.882s-8.885-3.973-8.885-8.882v-8.882h-8.885c-4.911 0-8.885-3.973-8.885-8.882s3.974-8.882 8.885-8.882zm35.538-106.588h-35.538c-24.502 0-44.423 19.925-44.423 44.412v8.882h124.385v-8.882c0-24.488-19.921-44.412-44.424-44.412zm-79.961 222.059c0 4.91 3.974 8.882 8.885 8.882h106.615c4.911 0 8.885-3.973 8.885-8.882v-44.412h-124.385zm222.115-293.118h-17.769c-14.698 0-26.654 11.953-26.654 26.647s11.956 26.647 26.654 26.647h17.769c4.911 0 8.885-3.973 8.885-8.882v-35.529c0-4.91-3.974-8.883-8.885-8.883zm-133.269 17.765v-8.882c0-4.91-3.974-8.882-8.885-8.882h-35.538c-4.911 0-8.885 3.973-8.885 8.882v44.412h53.308v-17.765h71.975c-.586-2.871-.898-5.841-.898-8.882s.312-6.011.898-8.882h-71.975z" fill="url(#SVGID_2_)"/></g></g></g></svg>