<svg id="Capa_1" enable-background="new 0 0 512 512" height="512" viewBox="0 0 512 512" width="512" xmlns="http://www.w3.org/2000/svg" xmlns:xlink="http://www.w3.org/1999/xlink"><linearGradient id="SVGID_1_" gradientUnits="userSpaceOnUse" x1="256" x2="256" y1="512" y2="0"><stop offset="0" stop-color="#addcff"/><stop offset=".5028" stop-color="#eaf6ff"/><stop offset="1" stop-color="#eaf6ff"/></linearGradient><linearGradient id="SVGID_2_" gradientUnits="userSpaceOnUse" x1="256" x2="256" y1="407" y2="105"><stop offset="0" stop-color="#00c0ff"/><stop offset="1" stop-color="#5558ff"/></linearGradient><g><g><circle cx="256" cy="256" fill="url(#SVGID_1_)" r="256"/></g><g><g><path d="m264.882 202.706c0-24.487-19.916-44.412-44.412-44.412s-44.412 19.925-44.412 44.412 19.916 44.412 44.412 44.412 44.412-19.925 44.412-44.412zm-53.294 17.765v-8.882h-8.883c-4.909 0-8.882-3.973-8.882-8.882 0-4.91 3.973-8.883 8.882-8.883h8.883v-8.882c0-4.91 3.973-8.883 8.882-8.883s8.882 3.973 8.882 8.883v8.882h8.882c4.91 0 8.882 3.973 8.882 8.883 0 4.909-3.973 8.882-8.882 8.882h-8.882v8.882c0 4.909-3.973 8.882-8.882 8.882s-8.882-3.973-8.882-8.882zm26.647 79.941c53.867 0 97.706-43.831 97.706-97.706 0-6.055-.573-11.91-1.735-17.748-8.344-46.328-48.714-79.958-95.971-79.958h-35.53c-53.866 0-97.705 43.831-97.705 97.706 0 32.857 12.907 49.59 23.281 63.035 7.113 9.221 12.248 15.882 12.248 25.788 0 11.458-10.947 25.008-15.18 29.258-2.516 2.55-3.279 6.367-1.891 9.681 1.371 3.313 4.597 5.474 8.188 5.474 24.773 0 46.58-14.469 56.504-36.735 4.268.633 9.333 1.206 14.555 1.206h35.53zm-79.941-97.706c0-34.28 27.896-62.177 62.177-62.177 34.28 0 62.176 27.896 62.176 62.177s-27.896 62.176-62.176 62.176c-34.281 0-62.177-27.896-62.177-62.176zm213.177 159.882c0-9.906 5.135-16.568 12.248-25.789 10.374-13.444 23.281-30.176 23.281-63.034 0-38.031-21.967-71.279-54.62-87.291.799 5.26 1.326 10.626 1.326 16.232 0 63.668-51.802 115.47-115.47 115.47 0 0-38.635-.043-40.248-.121-1.938 2.922-4.08 5.672-6.359 8.287 17.544 27.335 47.995 45.128 82.137 45.128h35.53c4.545 0 9.281-.399 14.538-1.249 9.906 22.292 31.73 36.778 56.521 36.778 3.591 0 6.818-2.16 8.188-5.474 1.388-3.313.625-7.13-1.891-9.68-4.235-4.249-15.181-17.798-15.181-29.257z" fill="url(#SVGID_2_)"/></g></g></g></svg>