<svg id="Capa_1" enable-background="new 0 0 512 512" height="512" viewBox="0 0 512 512" width="512" xmlns="http://www.w3.org/2000/svg" xmlns:xlink="http://www.w3.org/1999/xlink"><linearGradient id="SVGID_1_" gradientUnits="userSpaceOnUse" x1="256" x2="256" y1="512" y2="0"><stop offset="0" stop-color="#c3ffe8"/><stop offset=".9973" stop-color="#f0fff4"/></linearGradient><linearGradient id="SVGID_2_" gradientUnits="userSpaceOnUse" x1="256" x2="256" y1="407" y2="105"><stop offset="0" stop-color="#9cffac"/><stop offset="1" stop-color="#00b59c"/></linearGradient><g><g><circle cx="256" cy="256" fill="url(#SVGID_1_)" r="256"/></g><g><g><path d="m113.882 140.529c-4.975 0-8.882 3.908-8.882 8.882s3.908 8.882 8.882 8.882h8.882v-17.765h-8.882zm284.236 0h-8.882v17.765h8.882c4.975 0 8.882-3.909 8.882-8.882 0-4.975-3.908-8.883-8.882-8.883zm-183.928 210.575c5.135 5.144 15.162 1.006 15.162-6.28 0-2.368-.919-4.597-2.602-6.28l-35.529-35.529s0-.009-.017-.009c-1.665-1.674-3.886-2.594-6.263-2.594-4.892 0-8.882 3.981-8.882 8.882 0 2.368.919 4.598 2.602 6.28zm6.281-103.986c4.892 0 8.882-3.981 8.882-8.882s-3.99-8.882-8.882-8.882-8.882 3.981-8.882 8.882 3.989 8.882 8.882 8.882zm-97.706-71.059h266.471v-17.765h-266.471zm266.47-62.177c0-4.975-3.908-8.882-8.882-8.882h-248.706c-4.975 0-8.882 3.908-8.882 8.882v26.647h266.471v-26.647zm-79.941 222.059c-4.892 0-8.882 3.981-8.882 8.882s3.99 8.883 8.882 8.883 8.882-3.981 8.882-8.883c0-4.9-3.99-8.882-8.882-8.882zm-186.529 44.412c0 14.744 11.902 26.647 26.647 26.647h213.177c14.745 0 26.647-11.903 26.647-26.647v-186.53h-266.471zm186.529-8.882c-14.694 0-26.647-11.953-26.647-26.647s11.953-26.647 26.647-26.647 26.647 11.953 26.647 26.647-11.953 26.647-26.647 26.647zm-36.605-116.547 35.512-35.521c5.031-5.04 11.727-7.815 18.858-7.815 14.694 0 26.647 11.953 26.647 26.647 0 7.113-2.776 13.809-7.807 18.84l-35.529 35.529c-5.014 5.031-11.71 7.807-18.84 7.807-14.694 0-26.647-11.953-26.647-26.647-.001-7.112 2.775-13.808 7.806-18.84zm-52.218-43.336c14.694 0 26.647 11.953 26.647 26.647s-11.953 26.647-26.647 26.647-26.647-11.953-26.647-26.647 11.953-26.647 26.647-26.647zm-35.53 71.059c7.13 0 13.827 2.776 18.858 7.815l35.512 35.521c5.031 5.031 7.807 11.728 7.807 18.84 0 14.694-11.953 26.647-26.647 26.647-7.13 0-13.827-2.776-18.858-7.815l-35.512-35.521c-5.031-5.031-7.807-11.728-7.807-18.84 0-14.694 11.953-26.647 26.647-26.647zm112.851-2.593 35.547-35.538c1.683-1.683 2.602-3.912 2.602-6.28 0-4.901-3.99-8.882-8.882-8.882-2.377 0-4.597.919-6.263 2.593-.017 0-.017.009-.017.009l-35.529 35.529c-1.683 1.683-2.602 3.912-2.602 6.28-.001 7.277 10.061 11.406 15.144 6.289z" fill="url(#SVGID_2_)"/></g></g></g></svg>