<svg id="Capa_1" enable-background="new 0 0 512 512" height="512" viewBox="0 0 512 512" width="512" xmlns="http://www.w3.org/2000/svg" xmlns:xlink="http://www.w3.org/1999/xlink"><linearGradient id="SVGID_1_" gradientUnits="userSpaceOnUse" x1="256" x2="256" y1="512" y2="0"><stop offset="0" stop-color="#ffc8d1"/><stop offset="1" stop-color="#fff6f7"/></linearGradient><linearGradient id="SVGID_2_" gradientUnits="userSpaceOnUse" x1="256" x2="256" y1="380.353" y2="131.647"><stop offset="0" stop-color="#ffa68d"/><stop offset="1" stop-color="#fd3a84"/></linearGradient><g><g><circle cx="256" cy="256" fill="url(#SVGID_1_)" r="256"/></g><g><g><path d="m140.529 105c-19.586 0-35.529 15.935-35.529 35.529v230.941c0 19.595 15.943 35.53 35.529 35.53s35.529-15.935 35.529-35.529v-230.942c.001-19.594-15.942-35.529-35.529-35.529zm115.471 106.588c4.892 0 8.882-3.981 8.882-8.882s-3.99-8.883-8.882-8.883-8.882 3.981-8.882 8.883c0 4.901 3.99 8.882 8.882 8.882zm142.118-79.941h-204.294v248.706h204.294c4.91 0 8.882-3.973 8.882-8.882v-230.942c0-4.909-3.973-8.882-8.882-8.882zm-142.118 44.412c14.694 0 26.647 11.953 26.647 26.647s-11.953 26.647-26.647 26.647-26.647-11.953-26.647-26.647 11.953-26.647 26.647-26.647zm17.765 159.882c-7.13 0-13.827-2.776-18.858-7.815l-35.512-35.521c-5.031-5.031-7.807-11.728-7.807-18.84 0-14.694 11.953-26.647 26.647-26.647 7.13 0 13.827 2.776 18.858 7.815l35.512 35.521c5.031 5.031 7.807 11.728 7.807 18.84 0 14.694-11.953 26.647-26.647 26.647zm71.059 0c-14.694 0-26.647-11.953-26.647-26.647s11.953-26.647 26.647-26.647 26.647 11.953 26.647 26.647-11.953 26.647-26.647 26.647zm36.604-114.395-35.529 35.53c-5.014 5.031-11.71 7.807-18.84 7.807-14.694 0-26.647-11.953-26.647-26.647 0-7.113 2.776-13.81 7.807-18.84l35.512-35.521c5.031-5.04 11.727-7.815 18.858-7.815 14.694 0 26.647 11.953 26.647 26.647-.001 7.112-2.777 13.808-7.808 18.839zm-36.604 78.866c-4.892 0-8.882 3.981-8.882 8.882s3.99 8.882 8.882 8.882 8.882-3.981 8.882-8.882-3.99-8.882-8.882-8.882zm-100.309-32.928s0-.008-.017-.008c-1.665-1.674-3.886-2.594-6.263-2.594-4.892 0-8.882 3.981-8.882 8.882 0 2.368.919 4.597 2.602 6.28l35.529 35.529c5.152 5.152 15.162 1.006 15.162-6.28 0-2.368-.919-4.597-2.602-6.28zm118.073-73.661c-2.377 0-4.597.92-6.263 2.594-.017 0-.017.009-.017.009l-35.529 35.529c-1.683 1.683-2.602 3.912-2.602 6.28 0 7.286 10.062 11.415 15.145 6.289l35.547-35.538c1.683-1.683 2.602-3.912 2.602-6.28 0-4.901-3.991-8.883-8.883-8.883z" fill="url(#SVGID_2_)"/></g></g></g></svg>