<svg id="Capa_1" enable-background="new 0 0 512 512" height="512" viewBox="0 0 512 512" width="512" xmlns="http://www.w3.org/2000/svg" xmlns:xlink="http://www.w3.org/1999/xlink"><linearGradient id="SVGID_1_" gradientUnits="userSpaceOnUse" x1="256" x2="256" y1="512" y2="0"><stop offset="0" stop-color="#ffbef9"/><stop offset="1" stop-color="#fff1ff"/></linearGradient><linearGradient id="SVGID_2_" gradientUnits="userSpaceOnUse" x1="256" x2="256" y1="407" y2="105"><stop offset="0" stop-color="#ff81ff"/><stop offset="1" stop-color="#a93aff"/></linearGradient><g><g><circle cx="256" cy="256" fill="url(#SVGID_1_)" r="256"/></g><g><g><path d="m247.115 282.655c-2.377 0-4.599.919-6.264 2.593-.017 0-.017.009-.017.009l-35.539 35.527c-1.683 1.683-2.603 3.912-2.603 6.28 0 7.277 10.047 11.415 15.149 6.289l35.556-35.536c1.683-1.683 2.603-3.912 2.603-6.28 0-4.9-3.991-8.882-8.885-8.882zm53.308 53.291c-4.894 0-8.885 3.981-8.885 8.882s3.991 8.882 8.885 8.882c4.893 0 8.885-3.981 8.885-8.882s-3.991-8.882-8.885-8.882zm62.192-106.581h-213.23c-4.911 0-8.885 3.973-8.885 8.882v124.345c0 24.485 19.921 44.409 44.423 44.409h142.154c24.502 0 44.423-19.923 44.423-44.409v-124.345c0-4.91-3.974-8.882-8.885-8.882zm-132.193 116.538c-5.015 5.03-11.713 7.806-18.845 7.806-14.698 0-26.654-11.952-26.654-26.646 0-7.112 2.776-13.808 7.809-18.839l35.521-35.519c5.032-5.039 11.73-7.815 18.862-7.815 14.698 0 26.654 11.952 26.654 26.646 0 7.112-2.776 13.808-7.809 18.839zm70.001 25.57c-14.698 0-26.654-11.952-26.654-26.645s11.956-26.645 26.654-26.645 26.654 11.952 26.654 26.645-11.956 26.645-26.654 26.645zm-133.009-229.833c3.87 3.027 9.457 2.385 12.477-1.509l10.967-13.973c1.458-1.865 3.575-3.053 5.935-3.339 2.221-.304 4.668.364 6.542 1.83l110.898 86.953h28.799l-128.73-100.935c-11.592-9.073-28.372-7.025-37.43 4.528l-10.967 13.973c-3.02 3.859-2.361 9.445 1.509 12.472z" fill="url(#SVGID_2_)"/></g></g></g></svg>