<svg id="Capa_1" enable-background="new 0 0 512 512" height="512" viewBox="0 0 512 512" width="512" xmlns="http://www.w3.org/2000/svg" xmlns:xlink="http://www.w3.org/1999/xlink"><linearGradient id="SVGID_1_" gradientUnits="userSpaceOnUse" x1="256" x2="256" y1="512" y2="0"><stop offset="0" stop-color="#ffc8d1"/><stop offset="1" stop-color="#fff6f7"/></linearGradient><linearGradient id="SVGID_2_" gradientUnits="userSpaceOnUse" x1="256" x2="256" y1="389" y2="123"><stop offset="0" stop-color="#ffa68d"/><stop offset="1" stop-color="#fd3a84"/></linearGradient><g><g><circle cx="256" cy="256" fill="url(#SVGID_1_)" r="256"/></g><g><g><path d="m397.213 145.529c-16.93-23.961-50.234-29.737-74.275-12.833l-50.806 35.755c-1.926 1.351-3.227 3.42-3.625 5.732-.416 2.321.122 4.702 1.492 6.625l51.171 72.48c1.717 2.451 4.475 3.758 7.251 3.758 1.769 0 3.556-.528 5.117-1.619l50.806-35.755c24.156-16.988 29.889-50.016 12.869-74.143zm-213.632 111.517c2.775 0 5.533-1.307 7.251-3.758l51.171-72.48c1.37-1.922 1.908-4.304 1.492-6.625-.399-2.312-1.7-4.382-3.625-5.732l-50.806-35.755c-24.024-16.886-57.329-11.145-74.275 12.833-17.023 24.132-11.282 57.159 12.871 74.143l50.806 35.755c1.559 1.091 3.345 1.619 5.115 1.619zm72.419-27.658c4.905 0 8.881-3.97 8.881-8.867s-3.976-8.868-8.881-8.868-8.881 3.97-8.881 8.868c0 4.896 3.976 8.867 8.881 8.867zm-26.643 26.602c0 4.897 3.976 8.867 8.881 8.867s8.881-3.97 8.881-8.867-3.976-8.868-8.881-8.868-8.881 3.97-8.881 8.868zm44.405-8.868c-4.905 0-8.881 3.97-8.881 8.868 0 4.897 3.976 8.867 8.881 8.867s8.881-3.97 8.881-8.867c0-4.898-3.976-8.868-8.881-8.868zm-17.762 35.47c-4.905 0-8.881 3.97-8.881 8.867s3.976 8.868 8.881 8.868 8.881-3.97 8.881-8.868-3.976-8.867-8.881-8.867zm35.524 17.735c4.905 0 8.881-3.97 8.881-8.868s-3.976-8.867-8.881-8.867-8.881 3.97-8.881 8.867 3.977 8.868 8.881 8.868zm-79.93-8.868c0 4.897 3.976 8.868 8.881 8.868s8.881-3.97 8.881-8.868-3.976-8.867-8.881-8.867c-4.904 0-8.881 3.97-8.881 8.867zm44.406 26.602c-48.014 0-93.72 54.096-95.628 56.391-2.22 2.649-2.688 6.33-1.231 9.438 1.474 3.118 4.597 5.109 8.049 5.109h177.623c3.452 0 6.574-1.992 8.049-5.109 1.457-3.108.989-6.789-1.231-9.438-1.911-2.295-47.617-56.391-95.631-56.391z" fill="url(#SVGID_2_)"/></g></g></g></svg>