<svg id="Capa_1" enable-background="new 0 0 512 512" height="512" viewBox="0 0 512 512" width="512" xmlns="http://www.w3.org/2000/svg" xmlns:xlink="http://www.w3.org/1999/xlink"><linearGradient id="SVGID_1_" gradientUnits="userSpaceOnUse" x1="256" x2="256" y1="512" y2="0"><stop offset="0" stop-color="#addcff"/><stop offset=".5028" stop-color="#eaf6ff"/><stop offset="1" stop-color="#eaf6ff"/></linearGradient><linearGradient id="SVGID_2_" gradientUnits="userSpaceOnUse" x1="256" x2="256" y1="407" y2="105"><stop offset="0" stop-color="#00c0ff"/><stop offset="1" stop-color="#5558ff"/></linearGradient><g><g><circle cx="256" cy="256" fill="url(#SVGID_1_)" r="256"/></g><g><g><path d="m185.091 158.294h141.818c4.899 0 8.864-3.973 8.864-8.882v-35.529c0-4.91-3.964-8.882-8.864-8.882h-141.818c-4.899 0-8.864 3.973-8.864 8.882v35.529c0 4.909 3.965 8.882 8.864 8.882zm70.909 106.588c-24.444 0-44.318 19.924-44.318 44.412 0 12.534 5.245 24.149 14.767 32.693 1.887 1.683 2.96 4.094 2.96 6.618v5.101h17.727v-8.883c0-4.909 3.965-8.882 8.864-8.882s8.864 3.973 8.864 8.882v8.883h17.727v-5.101c0-2.524 1.073-4.936 2.96-6.618 9.521-8.544 14.767-20.159 14.767-32.693 0-24.487-19.874-44.412-44.318-44.412zm-17.727 62.177c-4.895 0-8.864-3.977-8.864-8.882 0-4.906 3.969-8.882 8.864-8.882s8.864 3.976 8.864 8.882c-.001 4.905-3.969 8.882-8.864 8.882zm35.454 0c-4.895 0-8.864-3.977-8.864-8.882 0-4.906 3.969-8.882 8.864-8.882s8.864 3.976 8.864 8.882c0 4.905-3.969 8.882-8.864 8.882zm77.176-95.104-32.858-32.927v-22.969h-124.09v22.969l-32.858 32.927c-1.662 1.666-2.597 3.921-2.597 6.28v159.882c0 4.91 3.964 8.882 8.864 8.882h177.272c4.899 0 8.864-3.973 8.864-8.882v-159.882c0-2.359-.935-4.614-2.597-6.28zm-77.176-20.367c4.895 0 8.864 3.976 8.864 8.882 0 4.905-3.969 8.882-8.864 8.882s-8.864-3.977-8.864-8.882c.001-4.906 3.969-8.882 8.864-8.882zm-35.454-17.765c4.895 0 8.864 3.977 8.864 8.883 0 4.905-3.969 8.882-8.864 8.882s-8.864-3.977-8.864-8.882c0-4.906 3.969-8.883 8.864-8.883zm62.045 158.573v10.192c0 4.91-3.964 8.882-8.864 8.882h-70.909c-4.899 0-8.864-3.973-8.864-8.882v-10.192c-11.305-11.554-17.727-27.046-17.727-43.102 0-34.28 27.837-62.176 62.045-62.176s62.045 27.896 62.045 62.176c.001 16.056-6.421 31.548-17.726 43.102z" fill="url(#SVGID_2_)"/></g></g></g></svg>