<svg id="Capa_1" enable-background="new 0 0 512 512" height="512" viewBox="0 0 512 512" width="512" xmlns="http://www.w3.org/2000/svg" xmlns:xlink="http://www.w3.org/1999/xlink"><linearGradient id="SVGID_1_" gradientUnits="userSpaceOnUse" x1="256" x2="256" y1="512" y2="0"><stop offset="0" stop-color="#addcff"/><stop offset=".5028" stop-color="#eaf6ff"/><stop offset="1" stop-color="#eaf6ff"/></linearGradient><linearGradient id="SVGID_2_" gradientUnits="userSpaceOnUse" x1="256" x2="256" y1="407" y2="158.294"><stop offset="0" stop-color="#00c0ff"/><stop offset="1" stop-color="#5558ff"/></linearGradient><g><g><circle cx="256" cy="256" fill="url(#SVGID_1_)" r="256"/></g><g><g><path d="m371.471 158.294c-9.77 0-17.765-7.994-17.765-17.765s7.994-17.765 17.765-17.765h26.647c4.975 0 8.882-3.909 8.882-8.882 0-4.975-3.908-8.882-8.882-8.882h-26.647c-19.541 0-35.529 15.987-35.529 35.529 0 19.541 15.989 35.529 35.529 35.529 9.77 0 17.765 7.995 17.765 17.765 0 9.771-7.994 17.765-17.765 17.765h-27.003c4.441 5.507 8.172 11.546 11.37 17.765h15.633c19.541 0 35.529-15.989 35.529-35.53s-15.989-35.529-35.529-35.529zm-133.236 195.412c24.496 0 44.412-19.925 44.412-44.412s-19.916-44.412-44.412-44.412-44.412 19.924-44.412 44.412 19.916 44.412 44.412 44.412zm-17.764-53.294h8.882v-8.882c0-4.91 3.973-8.882 8.882-8.882s8.882 3.973 8.882 8.882v8.882h8.883c4.91 0 8.882 3.973 8.882 8.882 0 4.91-3.973 8.882-8.882 8.882h-8.882v8.882c0 4.91-3.973 8.883-8.882 8.883s-8.882-3.973-8.882-8.883v-8.882h-8.882c-4.91 0-8.882-3.973-8.882-8.882-.002-4.909 3.971-8.882 8.881-8.882zm-115.471-8.883c0 47.076 24.16 89.89 64.486 114.227 1.422.888 3.02 1.244 4.619 1.244h128.261c1.599 0 3.198-.355 4.619-1.244 40.326-24.337 64.486-67.151 64.486-114.227 0-22.562-5.507-43.702-15.633-62.176h-235.205c-10.126 18.475-15.633 39.615-15.633 62.176zm133.235-44.411c34.28 0 62.176 27.896 62.176 62.176s-27.896 62.177-62.176 62.177-62.176-27.896-62.176-62.177 27.896-62.176 62.176-62.176zm0-88.824c-43.524 0-82.251 20.962-106.233 53.294h212.465c-23.981-32.332-62.708-53.294-106.232-53.294z" fill="url(#SVGID_2_)"/></g></g></g></svg>