<svg id="Capa_1" enable-background="new 0 0 512 512" height="512" viewBox="0 0 512 512" width="512" xmlns="http://www.w3.org/2000/svg" xmlns:xlink="http://www.w3.org/1999/xlink"><linearGradient id="SVGID_1_" gradientUnits="userSpaceOnUse" x1="256" x2="256" y1="512" y2="0"><stop offset="0" stop-color="#ffe59a"/><stop offset="1" stop-color="#ffffd5"/></linearGradient><linearGradient id="SVGID_2_" gradientUnits="userSpaceOnUse" x1="256" x2="256" y1="407" y2="105"><stop offset="0" stop-color="#ffde00"/><stop offset="1" stop-color="#fd5900"/></linearGradient><g><g><circle cx="256" cy="256" fill="url(#SVGID_1_)" r="256"/></g><g><g><path d="m140.529 229.353h-35.529v53.294h35.529zm35.53-65.854v-31.852c0-14.694-11.953-26.647-26.647-26.647s-26.647 11.953-26.647 26.647v31.852c0 5.725-2.238 11.112-6.28 15.163-7.408 7.407-11.485 17.252-11.485 27.722v5.205h44.412c4.91 0 8.882 3.973 8.882 8.882v71.059c0 4.91-3.973 8.882-8.882 8.882h-44.412v5.205c0 10.47 4.077 20.315 11.485 27.723 4.042 4.051 6.28 9.438 6.28 15.163v31.852c0 14.694 11.953 26.647 26.647 26.647s26.647-11.953 26.647-26.647v-31.852c0-5.725 2.238-11.112 6.28-15.163 7.408-7.408 11.485-17.253 11.485-27.723v-99.232c0-10.47-4.077-20.315-11.485-27.723-4.042-4.052-6.28-9.438-6.28-15.163zm71.059 65.854h-35.529v53.294h35.529zm35.529-65.854v-31.852c0-14.694-11.953-26.647-26.647-26.647s-26.647 11.953-26.647 26.647v31.852c0 5.725-2.238 11.112-6.28 15.163-7.408 7.408-11.484 17.253-11.484 27.723v5.205h44.411c4.91 0 8.882 3.973 8.882 8.882v71.059c0 4.91-3.973 8.882-8.882 8.882h-44.412v5.205c0 10.47 4.077 20.315 11.484 27.723 4.042 4.051 6.28 9.438 6.28 15.163v31.852c.001 14.691 11.954 26.644 26.648 26.644s26.647-11.953 26.647-26.647v-31.852c0-5.725 2.238-11.112 6.28-15.163 7.408-7.408 11.484-17.253 11.484-27.723v-99.232c0-10.47-4.077-20.315-11.484-27.723-4.042-4.05-6.28-9.436-6.28-15.161zm71.059 65.854h-35.529v53.294h35.529zm41.809-50.692c-4.042-4.051-6.28-9.438-6.28-15.163v-31.852c0-14.694-11.953-26.647-26.647-26.647s-26.647 11.953-26.647 26.647v31.852c0 5.725-2.238 11.112-6.28 15.163-7.408 7.408-11.485 17.253-11.485 27.723v5.205h44.412c4.91 0 8.882 3.973 8.882 8.882v71.059c0 4.91-3.973 8.882-8.882 8.882h-44.412v5.205c0 10.47 4.077 20.315 11.485 27.723 4.042 4.051 6.28 9.438 6.28 15.163v31.852c0 14.694 11.953 26.647 26.647 26.647s26.647-11.953 26.647-26.647v-31.852c0-5.725 2.238-11.112 6.28-15.163 7.408-7.408 11.485-17.253 11.485-27.723v-99.232c0-10.471-4.077-20.316-11.485-27.724z" fill="url(#SVGID_2_)"/></g></g></g></svg>