<svg id="Capa_1" enable-background="new 0 0 512 512" height="512" viewBox="0 0 512 512" width="512" xmlns="http://www.w3.org/2000/svg" xmlns:xlink="http://www.w3.org/1999/xlink"><linearGradient id="SVGID_1_" gradientUnits="userSpaceOnUse" x1="256" x2="256" y1="512" y2="0"><stop offset="0" stop-color="#addcff"/><stop offset=".5028" stop-color="#eaf6ff"/><stop offset="1" stop-color="#eaf6ff"/></linearGradient><linearGradient id="SVGID_2_" gradientUnits="userSpaceOnUse" x1="256" x2="256" y1="335.941" y2="105"><stop offset="0" stop-color="#00c0ff"/><stop offset="1" stop-color="#5558ff"/></linearGradient><g><g><circle cx="256" cy="256" fill="url(#SVGID_1_)" r="256"/></g><g><g><path d="m229.353 348.041v58.959h53.294v-58.959c-8.42 3.434-17.364 5.666-26.647 5.666s-18.227-2.232-26.647-5.666zm-30.238-22.821c-3.417-4.571-5.291-10.235-5.291-15.926v-8.882h-8.882c-44.082 0-79.941 35.859-79.941 79.941v17.765c0 4.91 3.973 8.882 8.882 8.882h97.706v-69.074c-4.625-3.703-8.881-7.883-12.474-12.706zm127.944-24.808h-8.882v8.882c0 5.69-1.874 11.354-5.291 15.926-3.593 4.823-7.849 9.003-12.474 12.707v69.073h97.706c4.91 0 8.882-3.973 8.882-8.882v-17.765c0-44.082-35.859-79.941-79.941-79.941zm17.764 71.059h-17.765c-4.91 0-8.882-3.973-8.882-8.882s3.973-8.882 8.882-8.882h17.765c4.91 0 8.882 3.973 8.882 8.882s-3.972 8.882-8.882 8.882zm-29.38-239.467c-14.652-16.436-35.743-27.004-59.443-27.004-41.041 0-74.559 31.198-79.043 71.059h79.043c27.761 0 51.618-18.329 59.443-44.055zm-15.031 154.867c22.032-14.694 35.53-39.675 35.53-66.4v-35.529c0-12.729-3.265-24.605-8.579-35.298-13.216 26.345-40.366 44.18-71.362 44.18h-79.941v26.647c0 26.725 13.497 51.707 35.53 66.4v22.423c0 1.917.625 3.773 1.77 5.309 9.958 13.358 25.901 21.339 42.642 21.339s32.684-7.98 42.642-21.339c1.145-1.535 1.77-3.392 1.77-5.309v-22.423z" fill="url(#SVGID_2_)"/></g></g></g></svg>