<svg id="Capa_1" enable-background="new 0 0 512 512" height="512" viewBox="0 0 512 512" width="512" xmlns="http://www.w3.org/2000/svg" xmlns:xlink="http://www.w3.org/1999/xlink"><linearGradient id="SVGID_1_" gradientUnits="userSpaceOnUse" x1="256" x2="256" y1="512" y2="0"><stop offset="0" stop-color="#ffc8d1"/><stop offset="1" stop-color="#fff6f7"/></linearGradient><linearGradient id="SVGID_2_" gradientUnits="userSpaceOnUse" x1="256" x2="256" y1="407" y2="105"><stop offset="0" stop-color="#ffa68d"/><stop offset="1" stop-color="#fd3a84"/></linearGradient><g><g><circle cx="256" cy="256" fill="url(#SVGID_1_)" r="256"/></g><g><g><path d="m229.353 348.041v58.959h53.294v-58.959c-8.42 3.434-17.364 5.666-26.647 5.666s-18.227-2.232-26.647-5.666zm-30.238-22.821c-3.417-4.571-5.291-10.235-5.291-15.926v-8.882h-8.882c-44.082 0-79.941 35.859-79.941 79.941v17.765c0 4.91 3.973 8.882 8.882 8.882h97.706v-69.074c-4.625-3.703-8.881-7.883-12.474-12.706zm127.944-24.808h-8.882v8.882c0 5.69-1.874 11.354-5.291 15.926-3.593 4.823-7.849 9.003-12.474 12.707v69.073h97.706c4.91 0 8.882-3.973 8.882-8.882v-17.765c0-44.082-35.859-79.941-79.941-79.941zm17.764 71.059h-17.765c-4.91 0-8.882-3.973-8.882-8.882s3.973-8.882 8.882-8.882h17.765c4.91 0 8.882 3.973 8.882 8.882s-3.972 8.882-8.882 8.882zm-97.705-222.059c0-4.91 3.973-8.882 8.882-8.882s8.882 3.973 8.882 8.882c0 14.694 11.953 26.647 26.647 26.647h43.514c-4.484-39.861-38.002-71.059-79.043-71.059s-74.559 31.198-79.043 71.059h43.514c14.694 0 26.647-11.953 26.647-26.647zm53.294 137.433c3.227-2.151 5.933-4.276 8.084-6.341 17.435-14.954 27.445-36.831 27.445-60.034v-26.647h-44.412c-14.582 0-27.429-7.154-35.529-18.036-8.101 10.882-20.947 18.036-35.529 18.036h-44.412v26.647c0 23.203 10.01 45.08 27.098 59.73 2.394 2.281 5.187 4.476 8.431 6.644v22.449c0 1.917.625 3.773 1.77 5.309 9.958 13.358 25.901 21.339 42.642 21.339s32.684-7.98 42.642-21.339c1.145-1.535 1.77-3.392 1.77-5.309zm-133.235-4.198h13.599c-14.217-16.871-22.481-38.905-22.481-62.176v-.224c-7.445 5.635-16.609 9.106-26.647 9.106-4.909 0-8.882 3.973-8.882 8.882-.001 24.488 19.915 44.412 44.411 44.412zm177.646 0c24.496 0 44.412-19.924 44.412-44.412 0-4.91-3.973-8.882-8.882-8.882-10.038 0-19.203-3.471-26.647-9.106v.224c0 23.017-8.181 44.907-22.63 62.176z" fill="url(#SVGID_2_)"/></g></g></g></svg>