<?xml version="1.0" encoding="iso-8859-1"?>
<!-- Generator: Adobe Illustrator 19.0.0, SVG Export Plug-In . SVG Version: 6.00 Build 0)  -->
<svg version="1.1" id="Capa_1" xmlns="http://www.w3.org/2000/svg" xmlns:xlink="http://www.w3.org/1999/xlink" x="0px" y="0px"
	 viewBox="0 0 496.027 496.027" style="enable-background:new 0 0 496.027 496.027;" xml:space="preserve">
<linearGradient id="SVGID_1_" gradientUnits="userSpaceOnUse" x1="-59.6075" y1="558.4163" x2="11.7726" y2="629.7973" gradientTransform="matrix(8 0 0 -8 398.8871 4941.3848)">
	<stop  offset="0" style="stop-color:#003F8A"/>
	<stop  offset="0.518" style="stop-color:#00D7DF"/>
	<stop  offset="1" style="stop-color:#006DF0"/>
</linearGradient>
<path style="fill:url(#SVGID_1_);" d="M482.416,26.315L168.48,332.419l-106.4-121.6c-2.89-3.342-7.942-3.709-11.284-0.819
	c-3.342,2.89-3.709,7.942-0.819,11.284c0.018,0.021,0.036,0.042,0.055,0.063l112,128c1.442,1.632,3.488,2.606,5.664,2.696h0.32
	c2.092,0.004,4.102-0.812,5.6-2.272l320-312c3.163-3.093,3.221-8.165,0.128-11.328S485.58,23.222,482.416,26.315L482.416,26.315z"/>
<linearGradient id="SVGID_2_" gradientUnits="userSpaceOnUse" x1="-53.863" y1="552.6718" x2="17.517" y2="624.0529" gradientTransform="matrix(8 0 0 -8 398.8871 4941.3848)">
	<stop  offset="0" style="stop-color:#003F8A"/>
	<stop  offset="0.518" style="stop-color:#00D7DF"/>
	<stop  offset="1" style="stop-color:#006DF0"/>
</linearGradient>
<path style="fill:url(#SVGID_2_);" d="M240.016,488.043c132.632-0.084,240.084-107.672,240-240.304
	c-0.019-29.79-5.58-59.316-16.4-87.072c-1.61-4.116-6.252-6.146-10.368-4.536c-4.116,1.61-6.146,6.252-4.536,10.368
	c44.981,115.159-11.911,244.978-127.07,289.959S76.664,444.547,31.683,329.388S43.594,84.409,158.753,39.429
	c56.243-21.968,118.976-20.284,173.959,4.67c4.062,1.739,8.764-0.144,10.503-4.206c1.684-3.933-0.025-8.495-3.879-10.354
	C218.66-25.291,76.384,28.089,21.555,148.765s-1.45,262.952,119.227,317.781C171.948,480.707,205.783,488.037,240.016,488.043z"/>
<g>
</g>
<g>
</g>
<g>
</g>
<g>
</g>
<g>
</g>
<g>
</g>
<g>
</g>
<g>
</g>
<g>
</g>
<g>
</g>
<g>
</g>
<g>
</g>
<g>
</g>
<g>
</g>
<g>
</g>
</svg>
