<?xml version="1.0" encoding="iso-8859-1"?>
<!-- Generator: Adobe Illustrator 19.0.0, SVG Export Plug-In . SVG Version: 6.00 Build 0)  -->
<svg version="1.1" id="Capa_1" xmlns="http://www.w3.org/2000/svg" xmlns:xlink="http://www.w3.org/1999/xlink" x="0px" y="0px"
	 viewBox="0 0 496 496" style="enable-background:new 0 0 496 496;" xml:space="preserve">
<linearGradient id="SVGID_1_" gradientUnits="userSpaceOnUse" x1="-48.5852" y1="565.9152" x2="22.4248" y2="636.9242" gradientTransform="matrix(8 0 0 -8 399 5013)">
	<stop  offset="0" style="stop-color:#003F8A"/>
	<stop  offset="0.518" style="stop-color:#00D7DF"/>
	<stop  offset="1" style="stop-color:#006DF0"/>
</linearGradient>
<path style="fill:url(#SVGID_1_);" d="M248,0C111.033,0,0,111.033,0,248s111.033,248,248,248s248-111.033,248-248
	C495.841,111.099,384.901,0.159,248,0z M248,480C119.87,480,16,376.13,16,248S119.87,16,248,16s232,103.87,232,232
	C479.859,376.072,376.072,479.859,248,480z"/>
<linearGradient id="SVGID_2_" gradientUnits="userSpaceOnUse" x1="-51.3289" y1="568.6589" x2="19.6811" y2="639.6689" gradientTransform="matrix(8 0 0 -8 399 5013)">
	<stop  offset="0" style="stop-color:#003F8A"/>
	<stop  offset="0.518" style="stop-color:#00D7DF"/>
	<stop  offset="1" style="stop-color:#006DF0"/>
</linearGradient>
<path style="fill:url(#SVGID_2_);" d="M370.344,158.344L208,320.688l-82.344-82.344c-3.178-3.069-8.243-2.982-11.312,0.196
	c-2.994,3.1-2.994,8.015,0,11.116l88,88c3.124,3.123,8.188,3.123,11.312,0l168-168c3.069-3.178,2.982-8.243-0.196-11.312
	C378.359,155.35,373.444,155.35,370.344,158.344L370.344,158.344z"/>
<g>
</g>
<g>
</g>
<g>
</g>
<g>
</g>
<g>
</g>
<g>
</g>
<g>
</g>
<g>
</g>
<g>
</g>
<g>
</g>
<g>
</g>
<g>
</g>
<g>
</g>
<g>
</g>
<g>
</g>
</svg>
