<?xml version="1.0" encoding="iso-8859-1"?>
<!-- Generator: Adobe Illustrator 19.0.0, SVG Export Plug-In . SVG Version: 6.00 Build 0)  -->
<svg version="1.1" id="Capa_1" xmlns="http://www.w3.org/2000/svg" xmlns:xlink="http://www.w3.org/1999/xlink" x="0px" y="0px"
	 viewBox="0 0 496.032 496.032" style="enable-background:new 0 0 496.032 496.032;" xml:space="preserve">
<linearGradient id="SVGID_1_" gradientUnits="userSpaceOnUse" x1="-58.3904" y1="557.8336" x2="11.7726" y2="627.9996" gradientTransform="matrix(8 0 0 -8 398.7752 5013.1445)">
	<stop  offset="0" style="stop-color:#003F8A"/>
	<stop  offset="0.518" style="stop-color:#00D7DF"/>
	<stop  offset="1" style="stop-color:#006DF0"/>
</linearGradient>
<path style="fill:url(#SVGID_1_);" d="M248.032,496.016c136.967,0,248-111.033,248-248s-111.033-248-248-248c-4.418,0-8,3.582-8,8
	s3.582,8,8,8c128.187-0.058,232.151,103.812,232.209,231.999S376.429,480.166,248.242,480.224
	C120.054,480.282,16.091,376.412,16.033,248.225c-0.024-54.227,18.939-106.752,53.599-148.457l13.6,13.344l52.96-93.84l-92.8,54.792
	l14.768,14.48c-88.114,104.809-74.58,261.204,30.23,349.318C133.093,475.444,189.629,496.039,248.032,496.016z"/>
<linearGradient id="SVGID_2_" gradientUnits="userSpaceOnUse" x1="-60.2699" y1="559.7141" x2="9.8961" y2="629.8801" gradientTransform="matrix(8 0 0 -8 398.7752 5013.1445)">
	<stop  offset="0" style="stop-color:#003F8A"/>
	<stop  offset="0.518" style="stop-color:#00D7DF"/>
	<stop  offset="1" style="stop-color:#006DF0"/>
</linearGradient>
<path style="fill:url(#SVGID_2_);" d="M114.376,238.36c-3.123,3.124-3.123,8.188,0,11.312l88,88c3.124,3.123,8.188,3.123,11.312,0
	l168-168c3.069-3.178,2.982-8.243-0.196-11.312c-3.1-2.994-8.015-2.994-11.116,0L208.032,320.704l-82.344-82.344
	C122.564,235.237,117.5,235.237,114.376,238.36z"/>
<g>
</g>
<g>
</g>
<g>
</g>
<g>
</g>
<g>
</g>
<g>
</g>
<g>
</g>
<g>
</g>
<g>
</g>
<g>
</g>
<g>
</g>
<g>
</g>
<g>
</g>
<g>
</g>
<g>
</g>
</svg>
