<svg height="512pt" viewBox="0 0 512 512" width="512pt" xmlns="http://www.w3.org/2000/svg"><path d="m256 512c-141.164062 0-256-114.835938-256-256s114.835938-256 256-256 256 114.835938 256 256-114.835938 256-256 256zm0-480c-123.519531 0-224 100.480469-224 224s100.480469 224 224 224 224-100.480469 224-224-100.480469-224-224-224zm0 0"/><path d="m256 405.332031c-8.832031 0-16-7.167969-16-16v-266.664062c0-8.832031 7.167969-16 16-16s16 7.167969 16 16v266.664062c0 8.832031-7.167969 16-16 16zm0 0"/><path d="m341.332031 224c-4.09375 0-8.191406-1.558594-11.304687-4.691406l-74.027344-74.007813-74.027344 74.027344c-6.25 6.25-16.382812 6.25-22.632812 0s-6.25-16.382813 0-22.636719l85.332031-85.332031c6.25-6.25 16.382813-6.25 22.636719 0l85.332031 85.332031c6.25 6.253906 6.25 16.386719 0 22.636719-3.117187 3.113281-7.210937 4.671875-11.308594 4.671875zm0 0"/></svg>