<?xml version="1.0" encoding="iso-8859-1"?>
<!-- Generator: Adobe Illustrator 19.0.0, SVG Export Plug-In . SVG Version: 6.00 Build 0)  -->
<svg version="1.1" id="Capa_1" xmlns="http://www.w3.org/2000/svg" xmlns:xlink="http://www.w3.org/1999/xlink" x="0px" y="0px"
	 viewBox="0 0 480.24 480.24" style="enable-background:new 0 0 480.24 480.24;" xml:space="preserve">
<linearGradient id="SVGID_1_" gradientUnits="userSpaceOnUse" x1="-24.6518" y1="557.605" x2="-24.6518" y2="620.462" gradientTransform="matrix(8 0 0 -8 454.1585 4943.1602)">
	<stop  offset="0" style="stop-color:#006DF0"/>
	<stop  offset="1" style="stop-color:#00E7F0"/>
</linearGradient>
<path style="fill:url(#SVGID_1_);" d="M324.784,143.904l-84.664,85.024l-51.04-50.808c-3.184-3.063-8.249-2.965-11.312,0.219
	c-2.988,3.107-2.978,8.023,0.024,11.117l56.68,56.448c3.124,3.123,8.188,3.123,11.312,0l90.336-90.712
	c3.063-3.184,2.965-8.249-0.219-11.312C332.794,140.892,327.878,140.902,324.784,143.904z"/>
<linearGradient id="SVGID_2_" gradientUnits="userSpaceOnUse" x1="-26.7548" y1="557.605" x2="-26.7548" y2="620.462" gradientTransform="matrix(8 0 0 -8 454.1585 4943.1602)">
	<stop  offset="0" style="stop-color:#006DF0"/>
	<stop  offset="1" style="stop-color:#00E7F0"/>
</linearGradient>
<path style="fill:url(#SVGID_2_);" d="M480.12,240.48c0.064-0.154,0.064-0.326,0-0.48c0-132.548-107.452-240-240-240
	s-240,107.452-240,240c-0.064,0.154-0.064,0.326,0,0.48c0.278,132.394,107.605,239.615,240,239.76
	c27.491,0.052,54.78-4.694,80.64-14.024c22.046,14.76,51.463,11.807,70.136-7.04c3.363-3.443,6.255-7.317,8.6-11.52
	c39.163,5.042,74.998-22.618,80.04-61.781c0.411-3.195,0.606-6.414,0.584-9.635c-0.003-17.108-6.114-33.653-17.232-46.656
	C474.285,301.26,480.135,271.011,480.12,240.48z M248.12,463.944V440.24c0-4.418-3.582-8-8-8s-8,3.582-8,8v23.8
	c-117.344-4.328-211.472-98.456-215.8-215.8h23.8c4.418,0,8-3.582,8-8s-3.582-8-8-8h-23.8c4.328-117.344,98.456-211.472,215.8-215.8
	v23.8c0,4.418,3.582,8,8,8s8-3.582,8-8v-23.8c117.344,4.328,211.472,98.456,215.8,215.8h-23.8c-4.418,0-8,3.582-8,8s3.582,8,8,8
	h23.656c-0.728,23.77-5.266,47.268-13.44,69.6c-0.232-0.168-0.488-0.28-0.72-0.44c-2.664-1.892-5.455-3.6-8.352-5.112
	c-0.528-0.28-1.08-0.504-1.6-0.8c-2.673-1.303-5.425-2.439-8.24-3.4c-0.488-0.168-0.952-0.368-1.448-0.52
	c-3.12-0.979-6.303-1.741-9.528-2.28c-0.728-0.12-1.448-0.224-2.176-0.32c-3.363-0.481-6.755-0.724-10.152-0.728
	c-1.424,0-2.792,0.208-4.192,0.288c8.091-20.466,12.228-42.281,12.192-64.288c0-97.202-78.798-176-176-176s-176,78.798-176,176
	s78.798,176,176,176c8.878-0.036,17.74-0.767,26.504-2.184l0.872,0.872l39.2,39.2C287.703,460.025,267.999,463.327,248.12,463.944
	L248.12,463.944z M385.08,308.016c-0.496,0.16-0.968,0.376-1.464,0.552c-0.648,0.24-1.304,0.464-1.944,0.72l-1.232,0.496
	c-0.896,0.376-1.768,0.8-2.648,1.176c-0.88,0.376-1.648,0.8-2.456,1.184c-0.448,0.232-0.92,0.432-1.368,0.672h-0.048
	c-0.576,0.312-1.12,0.68-1.688,1c-0.8,0.456-1.6,0.904-2.336,1.384c-0.736,0.48-1.312,0.8-1.96,1.264
	c-0.48,0.328-0.952,0.664-1.424,1s-1.176,0.8-1.744,1.256c-0.896,0.672-1.752,1.384-2.608,2.104
	c-0.44,0.368-0.904,0.704-1.336,1.088l-0.856,0.76c-0.912,0.8-1.784,1.704-2.656,2.576c-0.552,0.552-1.136,1.08-1.672,1.656
	l-0.272,0.288c-0.864,0.928-1.664,1.92-2.472,2.888c-0.472,0.568-0.968,1.104-1.424,1.688c-0.216,0.272-0.416,0.568-0.624,0.848
	c-0.4,0.528-0.8,1.08-1.16,1.6c-0.616,0.872-1.272,1.712-1.856,2.616l-1.96-1.96l-0.432-0.432l-45-44.952
	c-21.853-21.886-57.31-21.913-79.196-0.06c-0.02,0.02-0.04,0.04-0.06,0.06c-21.84,21.864-21.84,57.288,0,79.152l31.152,31.152
	c-4,0.312-8.112,0.472-12.216,0.472c-88.366,0-160-71.634-160-160s71.634-160,160-160c88.356,0,159.987,71.62,160,159.976
	C400.196,263.668,395.058,286.819,385.08,308.016L385.08,308.016z M272.12,396.928l-39.624-39.624
	c-15.61-15.632-15.592-40.959,0.04-56.569c7.509-7.499,17.691-11.706,28.304-11.695c10.616-0.046,20.803,4.184,28.264,11.736
	l39.624,39.624l-28.168,28.128L272.12,396.928z M326.952,451.24c-2.112-1.864-25.392-24.976-43.504-43.008l27.952-27.92l28.64-28.6
	l4,4l26.16,26.16l9.392,9.392c5.576,5.525,9.354,12.604,10.84,20.312c0.424,1.976,0.692,3.982,0.8,6c0,0.664-0.04,1.32,0,1.984
	c0.033,1.334-0.002,2.669-0.104,4c-0.08,0.8-0.28,1.6-0.408,2.4c-0.192,1.176-0.352,2.36-0.656,3.52
	c-0.216,0.848-0.544,1.672-0.8,2.504c-0.36,1.08-0.688,2.176-1.144,3.2c-0.104,0.2-0.216,0.392-0.304,0.6
	c-1.936,4.492-4.723,8.567-8.208,12C365.451,462.075,342.856,463.558,326.952,451.24z M408.12,432.24
	c-0.725,0-1.461-0.016-2.208-0.048c0.489-2.109,0.847-4.247,1.072-6.4c0.056-0.432,0.048-0.864,0.088-1.296
	c0.184-2.149,0.24-4.308,0.168-6.464c0-0.688-0.048-1.368-0.096-2.056c-0.156-2.56-0.496-5.105-1.016-7.616
	c-0.502-2.483-1.173-4.928-2.008-7.32c-0.264-0.752-0.592-1.48-0.88-2.224c-0.64-1.6-1.328-3.2-2.112-4.744
	c-0.408-0.8-0.848-1.6-1.296-2.4c-0.8-1.448-1.72-2.848-2.68-4.216c-0.504-0.712-0.992-1.432-1.52-2.12
	c-0.288-0.36-0.52-0.76-0.8-1.12h68.744C459.573,411.77,435.963,432.216,408.12,432.24L408.12,432.24z M379.192,368.24
	l-19.688-19.696c0.072-0.128,0.128-0.264,0.2-0.392c0.344-0.592,0.728-1.144,1.088-1.72c0.68-1.072,1.36-2.144,2.104-3.2
	c0.456-0.632,0.96-1.24,1.44-1.848c0.72-0.904,1.448-1.8,2.216-2.656c0.544-0.608,1.112-1.192,1.68-1.768c0.8-0.8,1.6-1.6,2.4-2.336
	c0.608-0.544,1.232-1.08,1.856-1.6c0.872-0.72,1.76-1.4,2.672-2.064c0.648-0.472,1.296-0.944,1.968-1.392
	c0.976-0.648,1.976-1.24,2.992-1.824c0.656-0.376,1.312-0.8,1.992-1.136c1.144-0.592,2.328-1.12,3.52-1.6
	c0.592-0.264,1.16-0.552,1.76-0.8c1.833-0.726,3.702-1.356,5.6-1.888c4.92-1.402,10.013-2.102,15.128-2.08
	c27.854-0.041,51.49,20.426,55.432,48L379.192,368.24z"/>
<g>
</g>
<g>
</g>
<g>
</g>
<g>
</g>
<g>
</g>
<g>
</g>
<g>
</g>
<g>
</g>
<g>
</g>
<g>
</g>
<g>
</g>
<g>
</g>
<g>
</g>
<g>
</g>
<g>
</g>
</svg>
