<?xml version="1.0" encoding="iso-8859-1"?>
<!-- Generator: Adobe Illustrator 19.0.0, SVG Export Plug-In . SVG Version: 6.00 Build 0)  -->
<svg version="1.1" id="Capa_1" xmlns="http://www.w3.org/2000/svg" xmlns:xlink="http://www.w3.org/1999/xlink" x="0px" y="0px"
	 viewBox="0 0 476.245 476.245" style="enable-background:new 0 0 476.245 476.245;" xml:space="preserve">
<linearGradient id="SVGID_1_" gradientUnits="userSpaceOnUse" x1="-54.286" y1="563.4539" x2="-54.286" y2="615.6539" gradientTransform="matrix(8 0 0 -8 482.3769 4946.3003)">
	<stop  offset="0" style="stop-color:#006DF0"/>
	<stop  offset="1" style="stop-color:#00E7F0"/>
</linearGradient>
<path style="fill:url(#SVGID_1_);" d="M44.089,352.589h-16c0.026,22.08,17.92,39.974,40,40v-16
	C54.834,376.589,44.089,365.844,44.089,352.589z"/>
<g>
	
		<linearGradient id="SVGID_2_" gradientUnits="userSpaceOnUse" x1="-49.786" y1="563.4539" x2="-49.786" y2="615.6539" gradientTransform="matrix(8 0 0 -8 482.3769 4946.3003)">
		<stop  offset="0" style="stop-color:#006DF0"/>
		<stop  offset="1" style="stop-color:#00E7F0"/>
	</linearGradient>
	<path style="fill:url(#SVGID_2_);" d="M76.089,376.589h16v16h-16V376.589z"/>
	
		<linearGradient id="SVGID_3_" gradientUnits="userSpaceOnUse" x1="-29.786" y1="563.4539" x2="-29.786" y2="615.6539" gradientTransform="matrix(8 0 0 -8 482.3769 4946.3003)">
		<stop  offset="0" style="stop-color:#006DF0"/>
		<stop  offset="1" style="stop-color:#00E7F0"/>
	</linearGradient>
	<path style="fill:url(#SVGID_3_);" d="M236.089,304.589h16v16h-16V304.589z"/>
	
		<linearGradient id="SVGID_4_" gradientUnits="userSpaceOnUse" x1="-31.7112" y1="563.4539" x2="-31.7112" y2="615.6539" gradientTransform="matrix(8 0 0 -8 482.3769 4946.3003)">
		<stop  offset="0" style="stop-color:#006DF0"/>
		<stop  offset="1" style="stop-color:#00E7F0"/>
	</linearGradient>
	<path style="fill:url(#SVGID_4_);" d="M233.145,206.461c-0.018-6.367,2.511-12.476,7.024-16.968l-11.28-11.304
		c-15.621,15.621-15.621,40.947,0,56.568l11.312-11.32C235.673,218.95,233.131,212.836,233.145,206.461z"/>
	
		<linearGradient id="SVGID_5_" gradientUnits="userSpaceOnUse" x1="-30.5318" y1="563.4539" x2="-30.5318" y2="615.6539" gradientTransform="matrix(8 0 0 -8 482.3769 4946.3003)">
		<stop  offset="0" style="stop-color:#006DF0"/>
		<stop  offset="1" style="stop-color:#00E7F0"/>
	</linearGradient>
	<path style="fill:url(#SVGID_5_);" d="M474.385,337.693c-2.915-13.306-9.61-25.487-19.28-35.08L319.521,167.029
		c24.484-31.333,18.933-76.581-12.4-101.066c-28.571-22.326-69.286-19.923-95.032,5.61l-147.04,147.04
		c-13.535,13.533-21.133,31.892-21.12,51.032c0.125,5.346,0.817,10.664,2.064,15.864c-32.57,12.527-51.402,46.674-44.616,80.904
		c7.065,34.322,37.555,58.757,72.592,58.176h206.12c19.126,0.024,37.474-7.573,50.984-21.112c3.539-3.601,6.697-7.558,9.424-11.808
		l12.8,12.8c13.483,13.555,31.833,21.147,50.952,21.08c10.733,0.051,21.332-2.392,30.96-7.136c7.366-3.45,14.08-8.145,19.848-13.88
		l0.048-0.048C472.703,387.085,480.003,361.795,474.385,337.693L474.385,337.693z M229.417,280.589h-22.656l11.328-11.328
		L229.417,280.589z M217.505,246.053c-12.982-12.991-18.733-31.543-15.376-49.6c1.944-11.204,7.316-21.53,15.376-29.552
		c21.903-21.838,57.345-21.838,79.248,0l65.048,65.056l-54.232,54.176c-0.416-0.176-0.856-0.304-1.28-0.472
		c-0.872-0.352-1.76-0.664-2.648-0.976c-1.6-0.576-3.2-1.096-4.872-1.544c-0.928-0.256-1.848-0.504-2.792-0.712
		c-1.752-0.4-3.528-0.712-5.328-0.976c-0.8-0.12-1.664-0.28-2.504-0.376c-2.675-0.308-5.364-0.471-8.056-0.488h-28.048
		L217.505,246.053z M223.425,82.853c21.921-21.818,57.378-21.735,79.196,0.186c19.445,19.537,21.781,50.318,5.508,72.566
		l-0.04-0.032c-27.716-28.131-72.988-28.468-101.119-0.752c-2.577,2.539-4.957,5.269-7.121,8.168c-0.504,0.664-0.992,1.328-1.464,2
		c-1.792,2.497-3.42,5.108-4.872,7.816c-0.072,0.136-0.16,0.264-0.232,0.4c-1.115,2.133-2.12,4.339-3.016,6.616l-31.896-31.848
		L223.425,82.853z M76.385,229.893l70.672-70.664l9.528,9.512l-32.296,32.304l11.312,11.312l32.312-32.312l17.776,17.816
		c-0.096,0.8-0.088,1.6-0.16,2.4c-0.112,1.256-0.2,2.512-0.248,3.776c-0.056,1.6,0,3.12,0,4.68c0.04,1.256,0.08,2.504,0.184,3.752
		c0.128,1.552,0.336,3.088,0.568,4.624c0.176,1.232,0.352,2.456,0.592,3.664c0.312,1.544,0.712,3.056,1.128,4.568
		c0.312,1.176,0.608,2.352,0.984,3.512c0.496,1.52,1.104,3.008,1.704,4.496c0.44,1.096,0.8,2.2,1.328,3.272
		c0.704,1.528,1.528,2.992,2.336,4.472c0.536,0.976,1.016,1.976,1.6,2.928c0.968,1.6,2.08,3.096,3.2,4.616
		c0.552,0.8,1.04,1.6,1.6,2.312c1.757,2.243,3.646,4.38,5.656,6.4l0.584,0.584l-22.608,22.672H68.089
		c-2.304,0-4.6,0.112-6.944,0.344c-0.766-3.734-1.173-7.533-1.216-11.344c0.007-14.881,5.927-29.149,16.456-39.664L76.385,229.893z
		 M73.969,408.589c-27.335,0.584-51.216-18.367-56.856-45.12c-6.085-30.223,13.481-59.657,43.704-65.744
		c3.712-0.739,7.487-1.119,11.272-1.136h92v112H73.969z M280.089,408.589h-100v-88h48v-16h-48v-8h100
		c9.021-0.053,17.909,2.182,25.832,6.496c0.68,0.312,1.368,0.688,2.4,1.24c0.556,0.289,1.091,0.618,1.6,0.984
		c16.357,10.131,26.269,28.04,26.168,47.28c0.009,6.273-1.074,12.499-3.2,18.4l-0.736,2.128c-0.168,0.513-0.379,1.011-0.632,1.488
		c-0.128,0.24-0.248,0.488-0.352,0.736c-2.724,6.296-6.614,12.021-11.464,16.872C309.194,402.71,294.944,408.601,280.089,408.589
		L280.089,408.589z M443.817,393.149c-4.508,4.485-9.762,8.15-15.528,10.832c-7.456,3.705-15.674,5.623-24,5.6
		c-14.865,0.055-29.134-5.843-39.624-16.376l-16.688-16.68c0.512-1.416,0.928-2.864,1.352-4.312c0.144-0.496,0.328-0.976,0.456-1.48
		c0.104-0.368,0.16-0.744,0.248-1.112c0.896-3.567,1.508-7.2,1.832-10.864c0.176-2.032,0.264-4.077,0.264-6.136
		c-0.003-3.009-0.193-6.015-0.568-9c-0.12-1.008-0.368-1.976-0.536-2.976c-0.32-1.92-0.624-3.848-1.096-5.728
		c-0.288-1.168-0.704-2.296-1.048-3.448c-0.504-1.648-0.984-3.296-1.6-4.896c-0.464-1.192-1.024-2.336-1.544-3.496
		c-0.664-1.488-1.312-2.976-2.08-4.408c-0.616-1.16-1.32-2.256-2-3.384c-0.8-1.352-1.64-2.704-2.552-4
		c-0.8-1.088-1.6-2.112-2.4-3.16c-0.976-1.232-1.96-2.456-3.016-3.624c-0.896-0.984-1.848-1.92-2.8-2.864
		c-1.136-1.112-2.288-2.208-3.496-3.248c-1.008-0.864-2.056-1.688-3.112-2.496c-0.712-0.544-1.352-1.152-2.088-1.664l30.144-30.112
		l33.472,33.472l11.312-11.312l-33.464-33.464l9.536-9.52l70.664,70.664c21.78,21.908,21.78,57.292,0,79.2L443.817,393.149z"/>
</g>
<linearGradient id="SVGID_6_" gradientUnits="userSpaceOnUse" x1="-61.1618" y1="571.4597" x2="-24.2638" y2="608.3867" gradientTransform="matrix(5.6588 -5.6549 -5.6549 -5.6588 3823.4673 3326.5977)">
	<stop  offset="0" style="stop-color:#006DF0"/>
	<stop  offset="1" style="stop-color:#00E7F0"/>
</linearGradient>
<path style="fill:url(#SVGID_6_);" d="M234.506,240.402l11.318-11.31l11.31,11.318l-11.318,11.31L234.506,240.402z"/>
<linearGradient id="SVGID_7_" gradientUnits="userSpaceOnUse" x1="-36.0104" y1="569.1724" x2="0.9036" y2="606.0834" gradientTransform="matrix(5.6569 -5.6569 -5.6569 -5.6569 3826.1541 3454.6917)">
	<stop  offset="0" style="stop-color:#006DF0"/>
	<stop  offset="1" style="stop-color:#00E7F0"/>
</linearGradient>
<path style="fill:url(#SVGID_7_);" d="M391.399,303.209l11.314-11.314l11.314,11.314l-11.314,11.314L391.399,303.209z"/>
<linearGradient id="SVGID_8_" gradientUnits="userSpaceOnUse" x1="-27.421" y1="563.4539" x2="-27.421" y2="615.6539" gradientTransform="matrix(8 0 0 -8 482.3769 4946.3003)">
	<stop  offset="0" style="stop-color:#006DF0"/>
	<stop  offset="1" style="stop-color:#00E7F0"/>
</linearGradient>
<path style="fill:url(#SVGID_8_);" d="M280.009,105.493l11.28-11.304c-15.62-15.615-40.94-15.615-56.56,0l11.312,11.312
	C255.546,96.431,270.5,96.427,280.009,105.493z"/>
<linearGradient id="SVGID_9_" gradientUnits="userSpaceOnUse" x1="-74.6897" y1="576.2037" x2="-37.7767" y2="613.1147" gradientTransform="matrix(5.6569 -5.6569 -5.6569 -5.6569 3911.114 3275.6755)">
	<stop  offset="0" style="stop-color:#006DF0"/>
	<stop  offset="1" style="stop-color:#00E7F0"/>
</linearGradient>
<path style="fill:url(#SVGID_9_);" d="M217.783,111.149l11.314-11.314l11.314,11.314l-11.314,11.314L217.783,111.149z"/>
<linearGradient id="SVGID_10_" gradientUnits="userSpaceOnUse" x1="-79.0484" y1="572.2895" x2="-42.1374" y2="609.2004" gradientTransform="matrix(5.6569 -5.6569 -5.6569 -5.6569 3803.178 3228.8755)">
	<stop  offset="0" style="stop-color:#006DF0"/>
	<stop  offset="1" style="stop-color:#00E7F0"/>
</linearGradient>
<path style="fill:url(#SVGID_10_);" d="M107.324,218.046l11.314-11.314l11.314,11.314l-11.314,11.314L107.324,218.046z"/>
<g>
</g>
<g>
</g>
<g>
</g>
<g>
</g>
<g>
</g>
<g>
</g>
<g>
</g>
<g>
</g>
<g>
</g>
<g>
</g>
<g>
</g>
<g>
</g>
<g>
</g>
<g>
</g>
<g>
</g>
</svg>
