<?xml version="1.0" encoding="iso-8859-1"?>
<!-- Generator: Adobe Illustrator 19.0.0, SVG Export Plug-In . SVG Version: 6.00 Build 0)  -->
<svg version="1.1" id="Capa_1" xmlns="http://www.w3.org/2000/svg" xmlns:xlink="http://www.w3.org/1999/xlink" x="0px" y="0px"
	 viewBox="0 0 479.962 479.962" style="enable-background:new 0 0 479.962 479.962;" xml:space="preserve">
<linearGradient id="SVGID_1_" gradientUnits="userSpaceOnUse" x1="-42.875" y1="546.7609" x2="-42.875" y2="606.9979" gradientTransform="matrix(8 0 0 -8 455 4832.6484)">
	<stop  offset="0" style="stop-color:#006DF0"/>
	<stop  offset="1" style="stop-color:#00E7F0"/>
</linearGradient>
<path style="fill:url(#SVGID_1_);" d="M32.8,276.761c-43.736,43.741-43.733,114.655,0.008,158.392s114.655,43.733,158.392-0.008
	c43.733-43.738,43.733-114.646,0-158.384C147.435,233.079,76.565,233.079,32.8,276.761z M179.88,423.841
	c-37.489,37.454-98.243,37.426-135.697-0.063s-37.426-98.243,0.063-135.697c37.464-37.429,98.169-37.429,135.633,0
	C217.31,325.594,217.31,386.327,179.88,423.841z"/>
<g>
	
		<linearGradient id="SVGID_2_" gradientUnits="userSpaceOnUse" x1="-26.8696" y1="546.7609" x2="-26.8696" y2="606.9979" gradientTransform="matrix(8 0 0 -8 455 4832.6484)">
		<stop  offset="0" style="stop-color:#006DF0"/>
		<stop  offset="1" style="stop-color:#00E7F0"/>
	</linearGradient>
	<path style="fill:url(#SVGID_2_);" d="M319.2,44.761C275.459,1.062,204.575,1.096,160.876,44.837s-43.665,114.625,0.076,158.324
		c43.711,43.669,114.537,43.669,158.248,0C362.882,159.396,362.882,88.526,319.2,44.761z M172.12,191.841
		c-37.492-37.489-37.494-98.273-0.005-135.765s98.273-37.494,135.764-0.005s37.494,98.273,0.005,135.765
		c-0.002,0.001-0.003,0.003-0.005,0.005C270.366,229.271,209.634,229.271,172.12,191.841z"/>
	
		<linearGradient id="SVGID_3_" gradientUnits="userSpaceOnUse" x1="-10.8696" y1="546.7609" x2="-10.8696" y2="606.9979" gradientTransform="matrix(8 0 0 -8 455 4832.6484)">
		<stop  offset="0" style="stop-color:#006DF0"/>
		<stop  offset="1" style="stop-color:#00E7F0"/>
	</linearGradient>
	<path style="fill:url(#SVGID_3_);" d="M447.2,276.761c-43.741-43.699-114.625-43.665-158.324,0.076s-43.665,114.625,0.076,158.324
		c43.711,43.669,114.537,43.669,158.248,0C490.882,391.396,490.882,320.526,447.2,276.761z M435.88,423.841
		c-37.489,37.454-98.243,37.426-135.697-0.063s-37.426-98.243,0.063-135.697c37.464-37.429,98.169-37.429,135.633,0
		C473.31,325.594,473.31,386.327,435.88,423.841z"/>
</g>
<linearGradient id="SVGID_4_" gradientUnits="userSpaceOnUse" x1="-42.8873" y1="546.7609" x2="-42.8873" y2="606.9979" gradientTransform="matrix(8 0 0 -8 455 4832.6484)">
	<stop  offset="0" style="stop-color:#006DF0"/>
	<stop  offset="1" style="stop-color:#00E7F0"/>
</linearGradient>
<path style="fill:url(#SVGID_4_);" d="M162.912,293.737L49.776,406.873c-3.178,3.069-3.266,8.134-0.196,11.312
	c3.069,3.178,8.134,3.266,11.312,0.196c0.067-0.064,0.132-0.13,0.196-0.196l113.136-113.136c3.07-3.178,2.982-8.242-0.196-11.312
	C170.927,290.743,166.012,290.743,162.912,293.737z"/>
<g>
	
		<linearGradient id="SVGID_5_" gradientUnits="userSpaceOnUse" x1="-10.8872" y1="546.7609" x2="-10.8872" y2="606.9979" gradientTransform="matrix(8 0 0 -8 455 4832.6484)">
		<stop  offset="0" style="stop-color:#006DF0"/>
		<stop  offset="1" style="stop-color:#00E7F0"/>
	</linearGradient>
	<path style="fill:url(#SVGID_5_);" d="M418.912,293.737L305.776,406.873c-3.178,3.07-3.266,8.134-0.196,11.312
		c3.07,3.178,8.134,3.266,11.312,0.196c0.066-0.064,0.132-0.129,0.196-0.196l113.136-113.136c3.07-3.178,2.982-8.242-0.196-11.312
		C426.928,290.742,422.012,290.742,418.912,293.737z"/>
	
		<linearGradient id="SVGID_6_" gradientUnits="userSpaceOnUse" x1="-26.875" y1="546.7609" x2="-26.875" y2="606.9979" gradientTransform="matrix(8 0 0 -8 455 4832.6484)">
		<stop  offset="0" style="stop-color:#006DF0"/>
		<stop  offset="1" style="stop-color:#00E7F0"/>
	</linearGradient>
	<path style="fill:url(#SVGID_6_);" d="M189.088,61.737c-3.178-3.069-8.243-2.981-11.312,0.197c-2.994,3.1-2.994,8.015,0,11.115
		l113.136,113.136c3.178,3.07,8.242,2.982,11.312-0.196c2.994-3.1,2.994-8.015,0-11.116L189.088,61.737z"/>
</g>
<g>
</g>
<g>
</g>
<g>
</g>
<g>
</g>
<g>
</g>
<g>
</g>
<g>
</g>
<g>
</g>
<g>
</g>
<g>
</g>
<g>
</g>
<g>
</g>
<g>
</g>
<g>
</g>
<g>
</g>
</svg>
