<?xml version="1.0" encoding="iso-8859-1"?>
<!-- Generator: Adobe Illustrator 19.0.0, SVG Export Plug-In . SVG Version: 6.00 Build 0)  -->
<svg version="1.1" id="Capa_1" xmlns="http://www.w3.org/2000/svg" xmlns:xlink="http://www.w3.org/1999/xlink" x="0px" y="0px"
	 viewBox="0 0 480 480" style="enable-background:new 0 0 480 480;" xml:space="preserve">
<linearGradient id="SVGID_1_" gradientUnits="userSpaceOnUse" x1="-45.875" y1="557.625" x2="-45.875" y2="617.878" gradientTransform="matrix(8 0 0 -8 511 4941)">
	<stop  offset="0" style="stop-color:#006DF0"/>
	<stop  offset="1" style="stop-color:#00E7F0"/>
</linearGradient>
<path style="fill:url(#SVGID_1_);" d="M232,64H56c-13.255,0-24,10.745-24,24v16c0,13.255,10.745,24,24,24h8v16.8
	c-18.611,3.827-31.976,20.199-32,39.2v272c0,13.255,10.745,24,24,24h176c13.255,0,24-10.745,24-24V184
	c-0.024-19.001-13.389-35.373-32-39.2V128h8c13.255,0,24-10.745,24-24V88C256,74.745,245.255,64,232,64z M48,248h80v176H48V248z
	 M240,184v272c0,4.418-3.582,8-8,8H56c-4.418,0-8-3.582-8-8v-16h88c4.418,0,8-3.582,8-8V240c0-4.418-3.582-8-8-8H48v-48
	c0-13.255,10.745-24,24-24h144C229.255,160,240,170.745,240,184z M208,144H80v-16h128V144z M240,104c0,4.418-3.582,8-8,8H56
	c-4.418,0-8-3.582-8-8V88c0-4.418,3.582-8,8-8h176c4.418,0,8,3.582,8,8V104z"/>
<linearGradient id="SVGID_2_" gradientUnits="userSpaceOnUse" x1="-18.875" y1="557.625" x2="-18.875" y2="617.878" gradientTransform="matrix(8 0 0 -8 511 4941)">
	<stop  offset="0" style="stop-color:#006DF0"/>
	<stop  offset="1" style="stop-color:#00E7F0"/>
</linearGradient>
<path style="fill:url(#SVGID_2_);" d="M424,432h-24v-16h24c4.418,0,8-3.582,8-8V136c0-13.255-10.745-24-24-24h-8.8
	c-3.236-15.698-15.502-27.964-31.2-31.2V8c0-4.418-3.582-8-8-8s-8,3.582-8,8v72.8c-15.698,3.236-27.964,15.502-31.2,31.2H312
	c-13.255,0-24,10.745-24,24v272c0,4.418,3.582,8,8,8h24v16h-24c-13.255,0-24,10.745-24,24s10.745,24,24,24h128
	c13.255,0,24-10.745,24-24S437.255,432,424,432z M360,96c10.168,0.012,19.229,6.418,22.632,16h-45.264
	C340.771,102.418,349.832,96.012,360,96L360,96z M304,336h24v-16h-24v-16h48v-16h-48v-16h24v-16h-24v-16h48v-16h-48v-16h24v-16h-24
	v-16h40v-16h-40v-24c0-4.418,3.582-8,8-8h96c4.418,0,8,3.582,8,8v264H304V336z M336,416h48v16h-48V416z M424,464H296
	c-4.418,0-8-3.582-8-8s3.582-8,8-8h128c4.418,0,8,3.582,8,8S428.418,464,424,464z"/>
<g>
</g>
<g>
</g>
<g>
</g>
<g>
</g>
<g>
</g>
<g>
</g>
<g>
</g>
<g>
</g>
<g>
</g>
<g>
</g>
<g>
</g>
<g>
</g>
<g>
</g>
<g>
</g>
<g>
</g>
</svg>
