<?xml version="1.0" encoding="iso-8859-1"?>
<!-- Generator: Adobe Illustrator 19.0.0, SVG Export Plug-In . SVG Version: 6.00 Build 0)  -->
<svg version="1.1" id="Capa_1" xmlns="http://www.w3.org/2000/svg" xmlns:xlink="http://www.w3.org/1999/xlink" x="0px" y="0px"
	 viewBox="0 0 480 480" style="enable-background:new 0 0 480 480;" xml:space="preserve">
<linearGradient id="SVGID_1_" gradientUnits="userSpaceOnUse" x1="-26.8459" y1="557.595" x2="-26.8459" y2="617.842" gradientTransform="matrix(8 0 0 -8 455 4941)">
	<stop  offset="0" style="stop-color:#006DF0"/>
	<stop  offset="1" style="stop-color:#00E7F0"/>
</linearGradient>
<path style="fill:url(#SVGID_1_);" d="M273.92,165.52c-12.726-0.046-24.942,5.004-33.92,14.024
	c-18.999-18.488-49.388-18.074-67.876,0.925c-18.134,18.635-18.133,48.322,0.004,66.955l62.24,62.24
	c3.124,3.123,8.188,3.123,11.312,0l62.24-62.24c18.725-18.766,18.691-49.158-0.074-67.882
	C298.842,170.557,286.64,165.514,273.92,165.52L273.92,165.52z M296.584,236.104L240,292.688l-56.584-56.584
	c-12.278-12.712-11.926-32.97,0.786-45.248c12.401-11.977,32.061-11.977,44.462,0l5.68,5.68c3.124,3.123,8.188,3.123,11.312,0
	l5.68-5.68c12.685-12.028,32.563-12.028,45.248,0C309.076,203.352,309.076,223.608,296.584,236.104L296.584,236.104z"/>
<linearGradient id="SVGID_2_" gradientUnits="userSpaceOnUse" x1="-26.875" y1="557.625" x2="-26.875" y2="617.869" gradientTransform="matrix(8 0 0 -8 455 4941)">
	<stop  offset="0" style="stop-color:#006DF0"/>
	<stop  offset="1" style="stop-color:#00E7F0"/>
</linearGradient>
<path style="fill:url(#SVGID_2_);" d="M392,32h-65.472C323.15,22.445,314.134,16.042,304,16h-24c-7.559-10.066-19.411-15.992-32-16
	h-16c-10.666,0.014-20.889,4.268-28.416,11.824c-1.279,1.317-2.476,2.712-3.584,4.176h-24c-10.134,0.042-19.15,6.445-22.528,16H88
	c-13.255,0-24,10.745-24,24v400c0,13.255,10.745,24,24,24h304c13.255,0,24-10.745,24-24V56C416,42.745,405.255,32,392,32z
	 M376,387.312V440h-52.688L376,387.312z M312,428.688V376h52.688L312,428.688z M376,360h-72c-4.418,0-8,3.582-8,8v72H104V72h48
	c0,4.418,3.582,8,8,8h160c4.418,0,8-3.582,8-8h48V360z M176,32h28.32c2.881,0,5.54-1.549,6.96-4.056
	c1.028-1.774,2.269-3.416,3.696-4.888c4.519-4.51,10.64-7.047,17.024-7.056h16c8.56,0.014,16.464,4.587,20.744,12
	c1.43,2.478,4.075,4.003,6.936,4H304c4.418,0,8,3.582,8,8v24H168V40C168,35.582,171.582,32,176,32z M400,456c0,4.418-3.582,8-8,8H88
	c-4.418,0-8-3.582-8-8V56c0-4.418,3.582-8,8-8h64v8H96c-4.418,0-8,3.582-8,8v384c0,4.418,3.582,8,8,8h288c4.418,0,8-3.582,8-8V64
	c0-4.418-3.582-8-8-8h-56v-8h64c4.418,0,8,3.582,8,8V456z"/>
<g>
</g>
<g>
</g>
<g>
</g>
<g>
</g>
<g>
</g>
<g>
</g>
<g>
</g>
<g>
</g>
<g>
</g>
<g>
</g>
<g>
</g>
<g>
</g>
<g>
</g>
<g>
</g>
<g>
</g>
</svg>
