<svg height="512" viewBox="0 0 64 64" width="512" xmlns="http://www.w3.org/2000/svg" xmlns:xlink="http://www.w3.org/1999/xlink"><linearGradient id="New_Gradient_Swatch_3" gradientUnits="userSpaceOnUse" x1="32" x2="32" y1="66.764" y2="-.831"><stop offset="0" stop-color="#006df0"/><stop offset="1" stop-color="#00e7f0"/></linearGradient><linearGradient id="New_Gradient_Swatch_3-2" x1="32" x2="32" xlink:href="#New_Gradient_Swatch_3" y1="66.764" y2="-.831"/><linearGradient id="New_Gradient_Swatch_3-3" x1="43" x2="43" xlink:href="#New_Gradient_Swatch_3" y1="66.764" y2="-.831"/><linearGradient id="New_Gradient_Swatch_3-4" x1="21" x2="21" xlink:href="#New_Gradient_Swatch_3" y1="66.764" y2="-.831"/><linearGradient id="New_Gradient_Swatch_3-6" x1="36" x2="36" xlink:href="#New_Gradient_Swatch_3" y1="66.764" y2="-.831"/><linearGradient id="New_Gradient_Swatch_3-7" x1="28" x2="28" xlink:href="#New_Gradient_Swatch_3" y1="66.764" y2="-.831"/><g id="Bear"><path d="m54.525 34.229c-2.955-5.1-8.025-9.014-12.535-9.923a13.024 13.024 0 0 0 2.81-10.584 6 6 0 1 0 -6.69-9.2 13.227 13.227 0 0 0 -12.226 0 6 6 0 1 0 -6.689 9.2 13.012 13.012 0 0 0 2.814 10.587c-4.494.913-9.583 4.819-12.538 9.921-4.187 7.249-2.053 13.165 2.1 16.149-1.353 2.46-.52 6.158 2.185 8.864a9.1 9.1 0 0 0 6.23 2.825 5.077 5.077 0 0 0 3.67-1.411 4.642 4.642 0 0 0 1.012-1.534 28.824 28.824 0 0 0 7.332.877 28.824 28.824 0 0 0 7.331-.877 4.637 4.637 0 0 0 1.012 1.534 5.077 5.077 0 0 0 3.67 1.411 9.1 9.1 0 0 0 6.229-2.825c2.706-2.705 3.538-6.4 2.186-8.864 4.151-2.979 6.285-8.9 2.097-16.15zm-1.731 1c3.194 5.53 2.5 10.8-1.706 13.639a4.733 4.733 0 0 0 -1.256-.637 16.121 16.121 0 0 0 .168-2.231c0-6.8-3.719-15.064-8.708-19.8 3.983.638 8.782 4.334 11.502 9.03zm-31.575-22.829a1 1 0 0 0 -.708-.433 4 4 0 1 1 4.112-5.657 1 1 0 0 0 1.449.42 11.2 11.2 0 0 1 11.856 0 1 1 0 0 0 1.45-.42 4 4 0 1 1 4.112 5.657 1 1 0 0 0 -.845 1.252 10.8 10.8 0 0 1 .355 2.781 10.992 10.992 0 0 1 -5.272 9.373 8.66 8.66 0 0 0 1.272-4.373 7 7 0 0 0 -14 0 8.651 8.651 0 0 0 1.273 4.373 10.991 10.991 0 0 1 -5.273-9.373 10.749 10.749 0 0 1 .356-2.781 1 1 0 0 0 -.137-.819zm5.781 8.6a5 5 0 0 1 10 0c0 2.718-2.23 6-5 6s-5-3.282-5-6zm-15.795 14.231c2.719-4.693 7.524-8.379 11.5-9.027-4.988 4.736-8.705 13.001-8.705 19.796a16.13 16.13 0 0 0 .168 2.231 4.766 4.766 0 0 0 -1.256.638c-4.207-2.84-4.9-8.109-1.707-13.638zm3.966 22.6c-2.3-2.3-2.946-5.538-1.414-7.072a3.106 3.106 0 0 1 2.253-.833 7.189 7.189 0 0 1 4.819 2.247c2.3 2.3 2.946 5.538 1.414 7.072s-4.772.882-7.072-1.416zm16.829.169a26.72 26.72 0 0 1 -6.94-.84 9.011 9.011 0 0 0 -2.817-6.4 9.139 9.139 0 0 0 -6.1-2.818 14.269 14.269 0 0 1 -.143-1.942c0-6.693 3.883-14.919 8.932-19.1a12.921 12.921 0 0 0 14.136 0c5.049 4.181 8.932 12.407 8.932 19.1a14.247 14.247 0 0 1 -.144 1.94 9.138 9.138 0 0 0 -6.1 2.817 9.012 9.012 0 0 0 -2.818 6.4 26.72 26.72 0 0 1 -6.938.843zm16.828-.171c-2.3 2.3-5.536 2.947-7.071 1.414s-.885-4.772 1.415-7.072a7.184 7.184 0 0 1 4.818-2.247 3.106 3.106 0 0 1 2.253.833c1.533 1.534.885 4.772-1.415 7.072z" fill="url(#New_Gradient_Swatch_3)"/><path d="m35 19a1.926 1.926 0 0 0 -.531-1.425 2.907 2.907 0 0 0 -2.213-.575h-.512a2.9 2.9 0 0 0 -2.213.576 1.926 1.926 0 0 0 -.531 1.424 3 3 0 0 0 1.712 2.7.991.991 0 0 1 -.712.3 1 1 0 0 0 0 2 2.981 2.981 0 0 0 2-.78 2.981 2.981 0 0 0 2 .78 1 1 0 0 0 0-2 .993.993 0 0 1 -.713-.3 2.994 2.994 0 0 0 1.713-2.7zm-3.272 0h.544a6.819 6.819 0 0 1 .728.018 1 1 0 0 1 -2 0 6.826 6.826 0 0 1 .728-.018z" fill="url(#New_Gradient_Swatch_3-2)"/><path d="m41 9a1 1 0 0 0 1-1 1 1 0 1 1 1 1 1 1 0 0 0 0 2 3 3 0 1 0 -3-3 1 1 0 0 0 1 1z" fill="url(#New_Gradient_Swatch_3-3)"/><path d="m22 10a1 1 0 0 0 -1-1 1 1 0 1 1 1-1 1 1 0 0 0 2 0 3 3 0 1 0 -3 3 1 1 0 0 0 1-1z" fill="url(#New_Gradient_Swatch_3-4)"/><path d="m39.777 36.562a5.008 5.008 0 0 0 -7.074 0l-.7.7-.708-.708a5 5 0 0 0 -7.069 7.079l7.07 7.07a1 1 0 0 0 1.414 0l7.07-7.07a5.008 5.008 0 0 0 -.003-7.071zm-1.414 5.661-6.363 6.363-6.363-6.363a3 3 0 0 1 4.246-4.246l1.41 1.41a1 1 0 0 0 1.414 0l1.405-1.405a3.08 3.08 0 0 1 4.251-.005 3.007 3.007 0 0 1 0 4.246z" fill="url(#New_Gradient_Swatch_3-2)"/><circle cx="36" cy="12" fill="url(#New_Gradient_Swatch_3-6)" r="1"/><circle cx="28" cy="12" fill="url(#New_Gradient_Swatch_3-7)" r="1"/></g></svg>