<?xml version="1.0"?>
<svg xmlns="http://www.w3.org/2000/svg" xmlns:xlink="http://www.w3.org/1999/xlink" viewBox="0 0 64 64" width="512" height="512"><defs><linearGradient id="New_Gradient_Swatch_3" x1="32" y1="65.507" x2="32" y2="2.322" gradientUnits="userSpaceOnUse"><stop offset="0" stop-color="#006df0"/><stop offset="1" stop-color="#00e7f0"/></linearGradient><linearGradient id="New_Gradient_Swatch_3-2" x1="53.5" y1="65.507" x2="53.5" y2="2.322" xlink:href="#New_Gradient_Swatch_3"/><linearGradient id="New_Gradient_Swatch_3-3" x1="49.5" y1="65.507" x2="49.5" y2="2.322" xlink:href="#New_Gradient_Swatch_3"/></defs><g id="Blood_donation-2" data-name="Blood donation"><path d="M62,24C62,17.069,50.245,3.89,49.744,3.332L49,2.5l-.744.829C47.755,3.89,36,17.069,36,24A13.008,13.008,0,0,0,48,36.949V57a3,3,0,0,1-6,0V47a5,5,0,0,0-10,0v4a3,3,0,0,1-3,3V41.448a3.007,3.007,0,0,1,.7-1.92l3.146-3.776A5.008,5.008,0,0,0,34,32.552V13a4,4,0,0,0-6-3.463V8a4,4,0,0,0-6.224-3.323,3.972,3.972,0,0,0-7.519.022,4,4,0,0,0-2.549-.689A4.107,4.107,0,0,0,8,8.169V16a4.989,4.989,0,0,0-2.977-1H5.009A3.013,3.013,0,0,0,2,18.009V32.552a5.008,5.008,0,0,0,1.159,3.2l3.146,3.776a3.007,3.007,0,0,1,.7,1.92V62H9V41.448a5.008,5.008,0,0,0-1.159-3.2L4.7,34.472a3.007,3.007,0,0,1-.7-1.92V18.009a1,1,0,0,1,.3-.714,1.123,1.123,0,0,1,.716-.3A2.994,2.994,0,0,1,8,20v9h2V8.169a2.129,2.129,0,0,1,1.852-2.164,2.005,2.005,0,0,1,1.561.582A1.983,1.983,0,0,1,14,8V21h2V6.169a2.129,2.129,0,0,1,1.852-2.164A2,2,0,0,1,20,6V21h2V8a2,2,0,0,1,4,0V21h2V13a2,2,0,0,1,4,0V32.552a3.007,3.007,0,0,1-.7,1.92l-3.146,3.776A5.008,5.008,0,0,0,27,41.448V54H21V50H15V60h6V56h6v6h2V56a5.006,5.006,0,0,0,5-5V47a3,3,0,0,1,6,0V57a5,5,0,0,0,10,0V36.949A13.008,13.008,0,0,0,62,24ZM19,58H17V52h2ZM49,35A11.013,11.013,0,0,1,38,24c0-4.767,7.351-14.261,11-18.486C52.649,9.738,60,19.23,60,24A11.013,11.013,0,0,1,49,35Z" style="fill:url(#New_Gradient_Swatch_3)"/><path d="M56,24a7.008,7.008,0,0,1-7,7v2a9.011,9.011,0,0,0,9-9Z" style="fill:url(#New_Gradient_Swatch_3-2)"/><path d="M54,24a3.975,3.975,0,0,0-1.382-3A3.983,3.983,0,0,0,50,14H45V28h5A4,4,0,0,0,54,24Zm-7-8h3a2,2,0,0,1,0,4H47Zm0,6h3a2,2,0,0,1,0,4H47Z" style="fill:url(#New_Gradient_Swatch_3-3)"/></g></svg>
