<?xml version="1.0" encoding="iso-8859-1"?>
<!-- Generator: Adobe Illustrator 19.0.0, SVG Export Plug-In . SVG Version: 6.00 Build 0)  -->
<svg version="1.1" id="Capa_1" xmlns="http://www.w3.org/2000/svg" xmlns:xlink="http://www.w3.org/1999/xlink" x="0px" y="0px"
	 viewBox="0 0 480 480" style="enable-background:new 0 0 480 480;" xml:space="preserve">
<linearGradient id="SVGID_1_" gradientUnits="userSpaceOnUse" x1="-30.3982" y1="556.955" x2="-30.3982" y2="616.561" gradientTransform="matrix(8 0 0 -8 483.1858 4941)">
	<stop  offset="0" style="stop-color:#006DF0"/>
	<stop  offset="1" style="stop-color:#00E7F0"/>
</linearGradient>
<path style="fill:url(#SVGID_1_);" d="M475.973,296c0.027-26.51-21.442-48.022-47.951-48.049
	c-26.51-0.027-48.022,21.442-48.049,47.951c-0.024,23.441,16.887,43.47,40,47.377V376c0,48.601-39.399,88-88,88s-88-39.399-88-88
	h104c13.255,0,24-10.745,24-24V128c0-13.255-10.745-24-24-24h-104c0-57.438-46.562-104-104-104s-104,46.562-104,104v65.352
	c-18.24,5.96-31.704,31.16-31.944,62.344c-0.232,31.696,13.288,57.384,31.896,63.088l-0.072,9.152
	c-0.035,4.418,3.517,8.028,7.936,8.064c0.003,0,0.006,0,0.008,0h0.056c4.393,0,7.965-3.543,8-7.936l0.072-9.336
	c9.236-3.421,16.857-10.177,21.36-18.936c7.219-13.348,10.916-28.315,10.744-43.488c0.24-31.784-13.36-57.528-32.056-63.128V104
	c0.014-48.601,39.425-87.988,88.026-87.974c48.581,0.014,87.96,39.393,87.974,87.974h-104c-13.255,0-24,10.745-24,24c0,0,0,0,0,0
	v224c0,13.255,10.745,24,24,24h104c0,57.438,46.562,104,104,104s104-46.562,104-104v-32.72
	C459.04,339.361,475.93,319.397,475.973,296z M68.029,232.176c0.155,12.386-2.793,24.614-8.576,35.568
	c-2.778,6.515-8.709,11.144-15.704,12.256h-0.08c-11.352-0.088-23.848-19.888-23.64-48.176S32.981,184,44.317,184h0.072
	C55.741,184.088,68.245,203.888,68.029,232.176z M115.973,352V128c0-4.418,3.582-8,8-8h48v240h-48
	C119.555,360,115.973,356.418,115.973,352z M187.973,360V120h160c4.418,0,8,3.582,8,8v224c0,4.418-3.582,8-8,8H187.973z
	 M427.973,328c-17.673,0-32-14.327-32-32s14.327-32,32-32s32,14.327,32,32S445.647,328,427.973,328z"/>
<linearGradient id="SVGID_2_" gradientUnits="userSpaceOnUse" x1="-6.9015" y1="556.955" x2="-6.9015" y2="616.561" gradientTransform="matrix(8 0 0 -8 483.1858 4941)">
	<stop  offset="0" style="stop-color:#006DF0"/>
	<stop  offset="1" style="stop-color:#00E7F0"/>
</linearGradient>
<path style="fill:url(#SVGID_2_);" d="M427.973,272c-13.255,0-24,10.745-24,24s10.745,24,24,24s24-10.745,24-24
	S441.228,272,427.973,272z M427.973,304c-4.418,0-8-3.582-8-8s3.582-8,8-8s8,3.582,8,8S432.392,304,427.973,304z"/>
<g>
</g>
<g>
</g>
<g>
</g>
<g>
</g>
<g>
</g>
<g>
</g>
<g>
</g>
<g>
</g>
<g>
</g>
<g>
</g>
<g>
</g>
<g>
</g>
<g>
</g>
<g>
</g>
<g>
</g>
</svg>
