<svg height="512pt" viewBox="-17 0 512 512.001" width="512pt" xmlns="http://www.w3.org/2000/svg" xmlns:xlink="http://www.w3.org/1999/xlink"><linearGradient id="a"><stop offset="0" stop-color="#662d91"/><stop offset=".437" stop-color="#3873b3"/><stop offset="1" stop-color="#00c9dd"/></linearGradient><linearGradient id="b" gradientTransform="matrix(1.002065 0 0 -1.002065 -17.065666 504.00703)" gradientUnits="userSpaceOnUse" x1="16.2915" x2="437.9399" xlink:href="#a" y1="442.6183" y2="20.9783"/><linearGradient id="c" gradientTransform="matrix(1.002065 0 0 -1.002065 -17.065666 504.00703)" gradientUnits="userSpaceOnUse" x1="146.8966" x2="568.545" xlink:href="#a" y1="573.2234" y2="151.5749"/><path d="m8.535156 469.332031c-4.714844 0-8.535156 3.820313-8.535156 8.535157 0 4.710937 3.820312 8.53125 8.535156 8.53125h8.53125v17.066406c0 4.714844 3.820313 8.535156 8.535156 8.535156h324.265626c23.554687-.027344 42.640624-19.113281 42.667968-42.667969v-426.664062c-.027344-23.554688-19.113281-42.6406252-42.667968-42.667969h-324.265626c-4.714843 0-8.535156 3.820312-8.535156 8.535156v17.066406h-8.53125c-4.714844 0-8.535156 3.820313-8.535156 8.53125 0 4.714844 3.820312 8.535157 8.535156 8.535157h8.53125v17.066406h-8.53125c-4.714844 0-8.535156 3.820313-8.535156 8.53125 0 4.714844 3.820312 8.535156 8.535156 8.535156h8.53125v17.066407h-8.53125c-4.714844 0-8.535156 3.820312-8.535156 8.53125 0 4.714843 3.820312 8.535156 8.535156 8.535156h8.53125v17.066406h-8.53125c-4.714844 0-8.535156 3.820312-8.535156 8.535156 0 4.710938 3.820312 8.53125 8.535156 8.53125h8.53125v17.066406h-8.53125c-4.714844 0-8.535156 3.820313-8.535156 8.535157 0 4.710937 3.820312 8.53125 8.535156 8.53125h8.53125v17.066406h-8.53125c-4.714844 0-8.535156 3.820313-8.535156 8.535156 0 4.710938 3.820312 8.53125 8.535156 8.53125h8.53125v17.066407h-8.53125c-4.714844 0-8.535156 3.820312-8.535156 8.535156 0 4.710937 3.820312 8.535156 8.535156 8.535156h8.53125v17.0625h-8.53125c-4.714844 0-8.535156 3.824219-8.535156 8.535156 0 4.714844 3.820312 8.535156 8.535156 8.535156h8.53125v17.066407h-8.53125c-4.714844 0-8.535156 3.820312-8.535156 8.53125 0 4.714843 3.820312 8.535156 8.535156 8.535156h8.53125v17.066406h-8.53125c-4.714844 0-8.535156 3.820313-8.535156 8.53125 0 4.714844 3.820312 8.535157 8.535156 8.535157h8.53125v17.066406h-8.53125c-4.714844 0-8.535156 3.820312-8.535156 8.53125 0 4.714844 3.820312 8.535156 8.535156 8.535156h8.53125v17.066406h-8.53125c-4.714844 0-8.535156 3.820313-8.535156 8.535156 0 4.710938 3.820312 8.53125 8.535156 8.53125h8.53125v17.066407h-8.53125c-4.714844 0-8.535156 3.820312-8.535156 8.535156 0 4.710937 3.820312 8.53125 8.535156 8.53125h8.53125v17.066406zm366.933594-426.664062v426.664062c0 14.140625-11.464844 25.601563-25.601562 25.601563h-34.132813v-477.867188h34.132813c14.136718 0 25.601562 11.460938 25.601562 25.601563zm-76.800781-25.601563v477.867188h-25.601563v-477.867188zm-264.535157 435.199219h8.535157c4.710937 0 8.53125-3.820313 8.53125-8.535156 0-4.710938-3.820313-8.53125-8.53125-8.53125h-8.535157v-17.066407h8.535157c4.710937 0 8.53125-3.820312 8.53125-8.535156 0-4.710937-3.820313-8.53125-8.53125-8.53125h-8.535157v-17.066406h8.535157c4.710937 0 8.53125-3.820312 8.53125-8.535156 0-4.710938-3.820313-8.53125-8.53125-8.53125h-8.535157v-17.066406h8.535157c4.710937 0 8.53125-3.820313 8.53125-8.535157 0-4.710937-3.820313-8.535156-8.53125-8.535156h-8.535157v-17.0625h8.535157c4.710937 0 8.53125-3.824219 8.53125-8.535156 0-4.714844-3.820313-8.535157-8.53125-8.535157h-8.535157v-17.0625h8.535157c4.710937 0 8.53125-3.820312 8.53125-8.535156 0-4.710937-3.820313-8.535156-8.53125-8.535156h-8.535157v-17.0625h8.535157c4.710937 0 8.53125-3.824219 8.53125-8.535156 0-4.714844-3.820313-8.535156-8.53125-8.535156h-8.535157v-17.066407h8.535157c4.710937 0 8.53125-3.820312 8.53125-8.53125 0-4.714843-3.820313-8.535156-8.53125-8.535156h-8.535157v-17.066406h8.535157c4.710937 0 8.53125-3.820313 8.53125-8.53125 0-4.714844-3.820313-8.535157-8.53125-8.535157h-8.535157v-17.066406h8.535157c4.710937 0 8.53125-3.820312 8.53125-8.53125 0-4.714844-3.820313-8.535156-8.53125-8.535156h-8.535157v-17.066406h8.535157c4.710937 0 8.53125-3.820313 8.53125-8.535156 0-4.710938-3.820313-8.53125-8.53125-8.53125h-8.535157v-17.066407h8.535157c4.710937 0 8.53125-3.820312 8.53125-8.535156 0-4.710937-3.820313-8.53125-8.53125-8.53125h-8.535157v-17.066406h8.535157c4.710937 0 8.53125-3.820313 8.53125-8.535157 0-4.710937-3.820313-8.53125-8.53125-8.53125h-8.535157v-8.535156h221.867188v477.867188h-221.867188v-8.535156h8.535157c4.710937 0 8.53125-3.820313 8.53125-8.53125 0-4.714844-3.820313-8.535157-8.53125-8.535157h-8.535157zm0 0" fill="url(#b)"/><path d="m477.867188 59.734375v-51.199219c0-4.714844-3.820313-8.535156-8.535157-8.535156h-51.199219c-4.710937 0-8.53125 3.820312-8.53125 8.535156v51.199219c0 4.710937 3.820313 8.53125 8.53125 8.53125v17.066406c-4.710937 0-8.53125 3.820313-8.53125 8.535157v341.332031c0 .128906.066407.230469.066407.359375.027343.972656.222656 1.929687.582031 2.832031l.042969.164063 24.90625 58.085937v6.828125c0 4.710938 3.820312 8.53125 8.535156 8.53125 4.710937 0 8.53125-3.820312 8.53125-8.53125v-6.828125l24.910156-58.113281.050781-.160156c.347657-.90625.542969-1.863282.574219-2.832032 0-.128906.066407-.230468.066407-.359375v-341.308593c0-4.714844-3.820313-8.535157-8.535157-8.535157v-17.066406c4.714844 0 8.535157-3.820313 8.535157-8.53125zm-51.199219-42.667969h34.132812v34.132813h-34.132812zm34.132812 85.332032v324.269531h-34.132812v-324.269531zm-17.066406 370.867187-12.65625-29.53125h25.3125zm8.53125-387.933594h-17.0625v-17.066406h17.0625zm0 0" fill="url(#c)"/></svg>