<svg id="Gradient" height="512" viewBox="0 0 512 512" width="512" xmlns="http://www.w3.org/2000/svg" xmlns:xlink="http://www.w3.org/1999/xlink"><linearGradient id="linear-gradient" gradientUnits="userSpaceOnUse" x1="255.999" x2="255.999" y1="496" y2="16"><stop offset="0" stop-color="#12c2e9"/><stop offset=".5" stop-color="#c471ed"/><stop offset="1" stop-color="#f64f59"/></linearGradient><path d="m392 48h-24v-24a8 8 0 0 0 -8-8h-336a8 8 0 0 0 -8 8v432a40.045 40.045 0 0 0 40 40h336a8 8 0 0 0 8-8v-432a8 8 0 0 0 -8-8zm-328-16h288v416h-288zm-32 0h16v416h-16zm352 448h-328a24.039 24.039 0 0 1 -22.624-16h326.624a8 8 0 0 0 8-8v-392h16zm-104-248h-136a8 8 0 0 1 0-16h136a8 8 0 0 1 0 16zm24 192a8 8 0 0 1 -8 8h-136a8 8 0 0 1 0-16h136a8 8 0 0 1 8 8zm-208-168a8 8 0 0 1 8-8h64a8 8 0 1 1 0 16h-64a8 8 0 0 1 -8-8zm152-8h64a8 8 0 0 1 0 16h-64a8 8 0 0 1 0-16zm88 176a8 8 0 1 1 -8-8 8 8 0 0 1 8 8zm-240-136a8 8 0 0 1 8-8h208a8 8 0 0 1 0 16h-208a8 8 0 0 1 -8-8zm0 32a8 8 0 0 1 8-8h208a8 8 0 0 1 0 16h-208a8 8 0 0 1 -8-8zm224 32a8 8 0 0 1 -8 8h-208a8 8 0 0 1 0-16h208a8 8 0 0 1 8 8zm168-208h-24v-40a24 24 0 0 0 -48 0v304a7.957 7.957 0 0 0 .415 2.529l16 48a8 8 0 0 0 15.178 0l16-48a7.957 7.957 0 0 0 .407-2.529v-248h16v56a8 8 0 0 0 16 0v-64a8 8 0 0 0 -8-8zm-56 80h16v176h-16zm16-16h-16v-48h16zm-16-64v-16h16v16zm0-40a8 8 0 0 1 16 0v8h-16zm3.1 312h9.8l-4.9 14.7zm-260.256-238.355a36.113 36.113 0 0 0 4.128 3.911 8 8 0 0 0 10.054 0 36.113 36.113 0 0 0 4.128-3.911l18.846-20.931 18.845 20.931a36.113 36.113 0 0 0 4.128 3.911 8 8 0 0 0 10.054 0 36.113 36.113 0 0 0 4.128-3.911l45.021-50c13-14.434 13-37.927 0-52.37a32.7 32.7 0 0 0 -49.4 0l-4.776 5.295-4.771-5.3a32.7 32.7 0 0 0 -49.407 0 36.71 36.71 0 0 0 -3.06 3.923l-3.533-3.924a32.7 32.7 0 0 0 -49.407 0c-13 14.443-13 37.936 0 52.369zm22.87-91.667a16.716 16.716 0 0 1 25.623 0l10.717 11.9a8 8 0 0 0 11.89 0l10.717-11.9a16.717 16.717 0 0 1 25.623 0 23.675 23.675 0 0 1 0 30.959l-42.284 46.963-42.286-46.965a23.672 23.672 0 0 1 0-30.957zm-56 0a16.717 16.717 0 0 1 25.624 0l9.091 10.095a39.612 39.612 0 0 0 9.4 31.568l15.411 17.117-17.24 19.142-42.286-46.965a23.673 23.673 0 0 1 -.001-30.957z" fill="url(#linear-gradient)"/></svg>