<?xml version="1.0"?>
<svg xmlns="http://www.w3.org/2000/svg" xmlns:xlink="http://www.w3.org/1999/xlink" viewBox="0 0 512 512" width="512" height="512"><defs><linearGradient id="linear-gradient" x1="140.315" y1="410.333" x2="434.333" y2="116.315" gradientUnits="userSpaceOnUse"><stop offset="0" stop-color="#41dfd0"/><stop offset="1" stop-color="#ee83ef"/></linearGradient></defs><g id="gradient"><path d="M184,209.538V211a8,8,0,0,1-16,0v-1.459A10.553,10.553,0,0,0,157.459,199h-2.918a10.541,10.541,0,0,0-4.714,19.97l19.5,9.751A26.541,26.541,0,0,1,157.459,279h-2.918A26.571,26.571,0,0,1,128,252.457V251a8,8,0,0,1,16,0v1.46A10.553,10.553,0,0,0,154.541,263h2.918a10.541,10.541,0,0,0,4.714-19.969l-19.5-9.751A26.541,26.541,0,0,1,154.541,183h2.918A26.571,26.571,0,0,1,184,209.538ZM357.459,183h-2.918a26.541,26.541,0,0,0-11.87,50.28l19.5,9.751A10.541,10.541,0,0,1,357.459,263h-2.918A10.553,10.553,0,0,1,344,252.457V251a8,8,0,0,0-16,0v1.46A26.571,26.571,0,0,0,354.541,279h2.918a26.541,26.541,0,0,0,11.87-50.279l-19.5-9.751A10.541,10.541,0,0,1,354.541,199h2.918A10.553,10.553,0,0,1,368,209.538V211a8,8,0,1,0,16,0v-1.459A26.571,26.571,0,0,0,357.459,183ZM202.517,261.625a10,10,0,1,0,12.858,5.886A10,10,0,0,0,202.517,261.625ZM306,261a10,10,0,1,0,10,10A10,10,0,0,0,306,261Zm-22-50v40a28,28,0,0,1-56,0V211a28,28,0,0,1,56,0Zm-16,0a12,12,0,0,0-24,0v40a12,12,0,0,0,24,0Zm196,21a208.02,208.02,0,0,1-48,132.9V488a8,8,0,0,1-12.832,6.376l-84.456-64A207.81,207.81,0,0,1,256,440C141.309,440,48,346.691,48,232S141.309,24,256,24,464,117.309,464,232Zm-16,0c0-105.869-86.131-192-192-192S64,126.131,64,232s86.131,192,192,192a191.727,191.727,0,0,0,61.639-10.106,8,8,0,0,1,7.4,1.2L400,471.9V361.974a8.006,8.006,0,0,1,1.922-5.2A192,192,0,0,0,448,232Z" style="fill:url(#linear-gradient)"/></g></svg>
