<?xml version="1.0" encoding="iso-8859-1"?>
<!-- Generator: Adobe Illustrator 19.0.0, SVG Export Plug-In . SVG Version: 6.00 Build 0)  -->
<svg version="1.1" id="Capa_1" xmlns="http://www.w3.org/2000/svg" xmlns:xlink="http://www.w3.org/1999/xlink" x="0px" y="0px"
	 viewBox="0 0 496 496" style="enable-background:new 0 0 496 496;" xml:space="preserve">
<linearGradient id="SVGID_1_" gradientUnits="userSpaceOnUse" x1="-54.5354" y1="559.9644" x2="11.6356" y2="626.1364" gradientTransform="matrix(8 0 0 -8 399 5013)">
	<stop  offset="0" style="stop-color:#003F8A"/>
	<stop  offset="0.518" style="stop-color:#00D7DF"/>
	<stop  offset="1" style="stop-color:#006DF0"/>
</linearGradient>
<path style="fill:url(#SVGID_1_);" d="M491.056,0.616C490.088,0.21,489.049,0.001,488,0H8C4.766,0.004,1.852,1.955,0.616,4.944
	C0.214,5.913,0.005,6.951,0,8v480c0.005,1.049,0.214,2.087,0.616,3.056c0.812,1.959,2.369,3.516,4.328,4.328
	C5.913,495.786,6.951,495.995,8,496h480c1.049-0.005,2.087-0.214,3.056-0.616c1.959-0.812,3.516-2.369,4.328-4.328
	c0.402-0.969,0.611-2.007,0.616-3.056V8c-0.005-1.049-0.214-2.087-0.616-3.056C494.572,2.985,493.015,1.428,491.056,0.616z
	 M236.688,248L16,468.688V27.312L236.688,248z M27.312,16h441.376L248,236.688L27.312,16z M248,259.312L468.688,480H27.312
	L248,259.312z M259.312,248L480,27.312v441.376L259.312,248z"/>
<g>
</g>
<g>
</g>
<g>
</g>
<g>
</g>
<g>
</g>
<g>
</g>
<g>
</g>
<g>
</g>
<g>
</g>
<g>
</g>
<g>
</g>
<g>
</g>
<g>
</g>
<g>
</g>
<g>
</g>
</svg>
