<?xml version="1.0" encoding="iso-8859-1"?>
<!-- Generator: Adobe Illustrator 19.0.0, SVG Export Plug-In . SVG Version: 6.00 Build 0)  -->
<svg version="1.1" id="Capa_1" xmlns="http://www.w3.org/2000/svg" xmlns:xlink="http://www.w3.org/1999/xlink" x="0px" y="0px"
	 viewBox="0 0 496 496" style="enable-background:new 0 0 496 496;" xml:space="preserve">
<g>
	
		<linearGradient id="SVGID_1_" gradientUnits="userSpaceOnUse" x1="-47.8261" y1="566.6721" x2="13.5459" y2="628.048" gradientTransform="matrix(8 0 0 -8 399 5013)">
		<stop  offset="0" style="stop-color:#003F8A"/>
		<stop  offset="0.518" style="stop-color:#00D7DF"/>
		<stop  offset="1" style="stop-color:#006DF0"/>
	</linearGradient>
	<path style="fill:url(#SVGID_1_);" d="M248,0C111.033,0,0,111.033,0,248s111.033,248,248,248s248-111.033,248-248
		C495.841,111.099,384.901,0.159,248,0z M248,480C119.87,480,16,376.13,16,248S119.87,16,248,16s232,103.87,232,232
		C479.859,376.072,376.072,479.859,248,480z"/>
	
		<linearGradient id="SVGID_2_" gradientUnits="userSpaceOnUse" x1="-47.8383" y1="566.6843" x2="13.5337" y2="628.0604" gradientTransform="matrix(8 0 0 -8 399 5013)">
		<stop  offset="0" style="stop-color:#003F8A"/>
		<stop  offset="0.518" style="stop-color:#00D7DF"/>
		<stop  offset="1" style="stop-color:#006DF0"/>
	</linearGradient>
	<path style="fill:url(#SVGID_2_);" d="M361.136,134.864c-3.124-3.123-8.188-3.123-11.312,0L248,236.688L146.176,134.864
		c-3.069-3.178-8.134-3.266-11.312-0.197c-3.178,3.069-3.266,8.134-0.197,11.312c0.064,0.067,0.13,0.132,0.197,0.197L236.688,248
		L134.864,349.824c-3.178,3.069-3.266,8.134-0.196,11.312c3.069,3.178,8.134,3.266,11.312,0.196c0.067-0.064,0.132-0.13,0.196-0.196
		L248,259.312l101.824,101.824c3.178,3.07,8.242,2.982,11.312-0.196c2.995-3.1,2.995-8.016,0-11.116L259.312,248l101.824-101.824
		C364.259,143.052,364.259,137.988,361.136,134.864L361.136,134.864z"/>
</g>
<g>
</g>
<g>
</g>
<g>
</g>
<g>
</g>
<g>
</g>
<g>
</g>
<g>
</g>
<g>
</g>
<g>
</g>
<g>
</g>
<g>
</g>
<g>
</g>
<g>
</g>
<g>
</g>
<g>
</g>
</svg>
