<?xml version="1.0" encoding="iso-8859-1"?>
<!-- Generator: Adobe Illustrator 19.0.0, SVG Export Plug-In . SVG Version: 6.00 Build 0)  -->
<svg version="1.1" id="Capa_1" xmlns="http://www.w3.org/2000/svg" xmlns:xlink="http://www.w3.org/1999/xlink" x="0px" y="0px"
	 viewBox="0 0 496 496" style="enable-background:new 0 0 496 496;" xml:space="preserve">
<linearGradient id="SVGID_1_" gradientUnits="userSpaceOnUse" x1="-48.73" y1="565.77" x2="10.969" y2="625.469" gradientTransform="matrix(8 0 0 -8 399 5013)">
	<stop  offset="0" style="stop-color:#003F8A"/>
	<stop  offset="0.518" style="stop-color:#00D7DF"/>
	<stop  offset="1" style="stop-color:#006DF0"/>
</linearGradient>
<path style="fill:url(#SVGID_1_);" d="M248,496c136.967,0,248-111.033,248-248S384.967,0,248,0S0,111.033,0,248
	C0.154,384.903,111.097,495.846,248,496z M248,16c128.13,0,232,103.87,232,232S376.13,480,248,480S16,376.13,16,248
	C16.145,119.93,119.93,16.145,248,16z"/>
<linearGradient id="SVGID_2_" gradientUnits="userSpaceOnUse" x1="-51.73" y1="568.77" x2="7.969" y2="628.469" gradientTransform="matrix(8 0 0 -8 399 5013)">
	<stop  offset="0" style="stop-color:#003F8A"/>
	<stop  offset="0.518" style="stop-color:#00D7DF"/>
	<stop  offset="1" style="stop-color:#006DF0"/>
</linearGradient>
<path style="fill:url(#SVGID_2_);" d="M224,344h48c4.418,0,8-3.582,8-8V64c0-4.418-3.582-8-8-8h-48c-4.418,0-8,3.582-8,8v272
	C216,340.418,219.582,344,224,344z M232,72h32v256h-32V72z"/>
<linearGradient id="SVGID_3_" gradientUnits="userSpaceOnUse" x1="-39.73" y1="556.77" x2="19.969" y2="616.469" gradientTransform="matrix(8 0 0 -8 399 5013)">
	<stop  offset="0" style="stop-color:#003F8A"/>
	<stop  offset="0.518" style="stop-color:#00D7DF"/>
	<stop  offset="1" style="stop-color:#006DF0"/>
</linearGradient>
<path style="fill:url(#SVGID_3_);" d="M224,424h48c4.418,0,8-3.582,8-8v-48c0-4.418-3.582-8-8-8h-48c-4.418,0-8,3.582-8,8v48
	C216,420.418,219.582,424,224,424z M232,376h32v32h-32V376z"/>
<g>
</g>
<g>
</g>
<g>
</g>
<g>
</g>
<g>
</g>
<g>
</g>
<g>
</g>
<g>
</g>
<g>
</g>
<g>
</g>
<g>
</g>
<g>
</g>
<g>
</g>
<g>
</g>
<g>
</g>
</svg>
