<?xml version="1.0" encoding="iso-8859-1"?>
<!-- Generator: Adobe Illustrator 19.0.0, SVG Export Plug-In . SVG Version: 6.00 Build 0)  -->
<svg version="1.1" id="Capa_1" xmlns="http://www.w3.org/2000/svg" xmlns:xlink="http://www.w3.org/1999/xlink" x="0px" y="0px"
	 viewBox="0 0 496 496" style="enable-background:new 0 0 496 496;" xml:space="preserve">
<linearGradient id="SVGID_1_" gradientUnits="userSpaceOnUse" x1="-54.0688" y1="560.4344" x2="10.4951" y2="624.9924" gradientTransform="matrix(8 0 0 -8 399.0015 5012.998)">
	<stop  offset="0" style="stop-color:#003F8A"/>
	<stop  offset="0.518" style="stop-color:#00D7DF"/>
	<stop  offset="1" style="stop-color:#006DF0"/>
</linearGradient>
<path style="fill:url(#SVGID_1_);" d="M121.072,460c1.429,2.475,4.07,4,6.928,4h240c2.858,0,5.499-1.525,6.928-4l120-208
	c1.429-2.475,1.429-5.525,0-8l-120-208c-1.429-2.475-4.07-4-6.928-4H128c-2.858,0-5.499,1.525-6.928,4l-120,208
	c-1.429,2.475-1.429,5.525,0,8L121.072,460z M132.616,48h230.768l115.384,200L363.384,448H132.616L17.232,248L132.616,48z"/>
<linearGradient id="SVGID_2_" gradientUnits="userSpaceOnUse" x1="-56.5684" y1="562.934" x2="7.9936" y2="627.4919" gradientTransform="matrix(8 0 0 -8 399.0015 5012.998)">
	<stop  offset="0" style="stop-color:#003F8A"/>
	<stop  offset="0.518" style="stop-color:#00D7DF"/>
	<stop  offset="1" style="stop-color:#006DF0"/>
</linearGradient>
<path style="fill:url(#SVGID_2_);" d="M224,352h48c4.418,0,8-3.582,8-8V72c0-4.418-3.582-8-8-8h-48c-4.418,0-8,3.582-8,8v272
	C216,348.418,219.582,352,224,352z M232,80h32v256h-32V80z"/>
<linearGradient id="SVGID_3_" gradientUnits="userSpaceOnUse" x1="-44.5676" y1="550.9332" x2="19.9944" y2="615.4932" gradientTransform="matrix(8 0 0 -8 399.0015 5012.998)">
	<stop  offset="0" style="stop-color:#003F8A"/>
	<stop  offset="0.518" style="stop-color:#00D7DF"/>
	<stop  offset="1" style="stop-color:#006DF0"/>
</linearGradient>
<path style="fill:url(#SVGID_3_);" d="M224,432h48c4.418,0,8-3.582,8-8v-48c0-4.418-3.582-8-8-8h-48c-4.418,0-8,3.582-8,8v48
	C216,428.418,219.582,432,224,432z M232,384h32v32h-32V384z"/>
<g>
</g>
<g>
</g>
<g>
</g>
<g>
</g>
<g>
</g>
<g>
</g>
<g>
</g>
<g>
</g>
<g>
</g>
<g>
</g>
<g>
</g>
<g>
</g>
<g>
</g>
<g>
</g>
<g>
</g>
</svg>
