<?xml version="1.0" encoding="iso-8859-1"?>
<!-- Generator: Adobe Illustrator 19.0.0, SVG Export Plug-In . SVG Version: 6.00 Build 0)  -->
<svg version="1.1" id="Capa_1" xmlns="http://www.w3.org/2000/svg" xmlns:xlink="http://www.w3.org/1999/xlink" x="0px" y="0px"
	 viewBox="0 0 496 496" style="enable-background:new 0 0 496 496;" xml:space="preserve">
<g>
	
		<linearGradient id="SVGID_1_" gradientUnits="userSpaceOnUse" x1="-49.2287" y1="565.2737" x2="15.9023" y2="630.3997" gradientTransform="matrix(8 0 0 -8 399 5013)">
		<stop  offset="0" style="stop-color:#003F8A"/>
		<stop  offset="0.518" style="stop-color:#00D7DF"/>
		<stop  offset="1" style="stop-color:#006DF0"/>
	</linearGradient>
	<path style="fill:url(#SVGID_1_);" d="M248,496c136.967,0,248-111.033,248-248S384.967,0,248,0S0,111.033,0,248
		C0.154,384.903,111.097,495.846,248,496z M248,16c128.13,0,232,103.87,232,232S376.13,480,248,480S16,376.13,16,248
		C16.145,119.93,119.93,16.145,248,16z"/>
	
		<linearGradient id="SVGID_2_" gradientUnits="userSpaceOnUse" x1="-49.2287" y1="565.2737" x2="15.9023" y2="630.3997" gradientTransform="matrix(8 0 0 -8 399 5013)">
		<stop  offset="0" style="stop-color:#003F8A"/>
		<stop  offset="0.518" style="stop-color:#00D7DF"/>
		<stop  offset="1" style="stop-color:#006DF0"/>
	</linearGradient>
	<path style="fill:url(#SVGID_2_);" d="M96,256h144v144c0,4.418,3.582,8,8,8s8-3.582,8-8V256h144c4.418,0,8-3.582,8-8s-3.582-8-8-8
		H256V96c0-4.418-3.582-8-8-8s-8,3.582-8,8v144H96c-4.418,0-8,3.582-8,8S91.582,256,96,256z"/>
</g>
<g>
</g>
<g>
</g>
<g>
</g>
<g>
</g>
<g>
</g>
<g>
</g>
<g>
</g>
<g>
</g>
<g>
</g>
<g>
</g>
<g>
</g>
<g>
</g>
<g>
</g>
<g>
</g>
<g>
</g>
</svg>
