<?xml version="1.0" encoding="iso-8859-1"?>
<!-- Generator: Adobe Illustrator 19.0.0, SVG Export Plug-In . SVG Version: 6.00 Build 0)  -->
<svg version="1.1" id="Capa_1" xmlns="http://www.w3.org/2000/svg" xmlns:xlink="http://www.w3.org/1999/xlink" x="0px" y="0px"
	 viewBox="0 0 496 496" style="enable-background:new 0 0 496 496;" xml:space="preserve">
<linearGradient id="SVGID_1_" gradientUnits="userSpaceOnUse" x1="-47.9729" y1="557.5259" x2="20.9891" y2="626.4908" gradientTransform="matrix(8 0 0 -8 399 5013)">
	<stop  offset="0" style="stop-color:#003F8A"/>
	<stop  offset="0.518" style="stop-color:#00D7DF"/>
	<stop  offset="1" style="stop-color:#006DF0"/>
</linearGradient>
<path style="fill:url(#SVGID_1_);" d="M416,144H312c-4.418,0-8,3.582-8,8s3.582,8,8,8h96v320H88V160h96c4.418,0,8-3.582,8-8
	s-3.582-8-8-8H80c-4.418,0-8,3.582-8,8v336c0,4.418,3.582,8,8,8h336c4.418,0,8-3.582,8-8V152C424,147.582,420.418,144,416,144z"/>
<linearGradient id="SVGID_2_" gradientUnits="userSpaceOnUse" x1="-57.2227" y1="566.7787" x2="11.7443" y2="635.7416" gradientTransform="matrix(8 0 0 -8 399 5013)">
	<stop  offset="0" style="stop-color:#003F8A"/>
	<stop  offset="0.518" style="stop-color:#00D7DF"/>
	<stop  offset="1" style="stop-color:#006DF0"/>
</linearGradient>
<path style="fill:url(#SVGID_2_);" d="M248,0c-4.418,0-8,3.582-8,8v308.688l-90.344-90.344c-3.178-3.069-8.243-2.981-11.312,0.197
	c-2.994,3.1-2.994,8.015,0,11.115l104,104c3.12,3.128,8.186,3.135,11.314,0.014c0.005-0.005,0.01-0.01,0.014-0.014l104-104
	c3.069-3.178,2.982-8.243-0.196-11.312c-3.1-2.994-8.015-2.994-11.116,0L256,316.688V8C256,3.582,252.418,0,248,0L248,0z"/>
<g>
</g>
<g>
</g>
<g>
</g>
<g>
</g>
<g>
</g>
<g>
</g>
<g>
</g>
<g>
</g>
<g>
</g>
<g>
</g>
<g>
</g>
<g>
</g>
<g>
</g>
<g>
</g>
<g>
</g>
</svg>
