<?xml version="1.0" encoding="iso-8859-1"?>
<!-- Generator: Adobe Illustrator 19.0.0, SVG Export Plug-In . SVG Version: 6.00 Build 0)  -->
<svg version="1.1" id="Capa_1" xmlns="http://www.w3.org/2000/svg" xmlns:xlink="http://www.w3.org/1999/xlink" x="0px" y="0px"
	 viewBox="0 0 496 496" style="enable-background:new 0 0 496 496;" xml:space="preserve">
<g>
	
		<linearGradient id="SVGID_1_" gradientUnits="userSpaceOnUse" x1="-47.4733" y1="567.0263" x2="22.4837" y2="636.9843" gradientTransform="matrix(8 0 0 -8 399 5013)">
		<stop  offset="0" style="stop-color:#003F8A"/>
		<stop  offset="0.518" style="stop-color:#00D7DF"/>
		<stop  offset="1" style="stop-color:#006DF0"/>
	</linearGradient>
	<path style="fill:url(#SVGID_1_);" d="M8,496h480c4.418,0,8-3.582,8-8V8c0-4.418-3.582-8-8-8H8C3.582,0,0,3.582,0,8v480
		C0,492.418,3.582,496,8,496z M16,16h464v464H16V16z"/>
	
		<linearGradient id="SVGID_2_" gradientUnits="userSpaceOnUse" x1="-47.4733" y1="567.0263" x2="22.4837" y2="636.9843" gradientTransform="matrix(8 0 0 -8 399 5013)">
		<stop  offset="0" style="stop-color:#003F8A"/>
		<stop  offset="0.518" style="stop-color:#00D7DF"/>
		<stop  offset="1" style="stop-color:#006DF0"/>
	</linearGradient>
	<path style="fill:url(#SVGID_2_);" d="M400,240H96c-4.418,0-8,3.582-8,8s3.582,8,8,8h304c4.418,0,8-3.582,8-8S404.418,240,400,240z
		"/>
</g>
<g>
</g>
<g>
</g>
<g>
</g>
<g>
</g>
<g>
</g>
<g>
</g>
<g>
</g>
<g>
</g>
<g>
</g>
<g>
</g>
<g>
</g>
<g>
</g>
<g>
</g>
<g>
</g>
<g>
</g>
</svg>
