<?xml version="1.0" encoding="iso-8859-1"?>
<!-- Generator: Adobe Illustrator 19.0.0, SVG Export Plug-In . SVG Version: 6.00 Build 0)  -->
<svg version="1.1" id="Capa_1" xmlns="http://www.w3.org/2000/svg" xmlns:xlink="http://www.w3.org/1999/xlink" x="0px" y="0px"
	 viewBox="0 0 495.988 495.988" style="enable-background:new 0 0 495.988 495.988;" xml:space="preserve">
<linearGradient id="SVGID_1_" gradientUnits="userSpaceOnUse" x1="-52.5168" y1="555.4707" x2="11.3162" y2="619.3047" gradientTransform="matrix(8 0 0 -8 398.9257 4886.9668)">
	<stop  offset="0" style="stop-color:#003F8A"/>
	<stop  offset="0.518" style="stop-color:#00D7DF"/>
	<stop  offset="1" style="stop-color:#006DF0"/>
</linearGradient>
<path style="fill:url(#SVGID_1_);" d="M154.411,383.724c2.879,2.804,7.392,3.037,10.544,0.544l328-260
	c3.464-2.744,4.048-7.776,1.304-11.24c-2.744-3.464-7.776-4.048-11.24-1.304L160.547,367.356L13.611,224.268
	c-3.163-3.093-8.235-3.035-11.328,0.128c-3.093,3.163-3.035,8.235,0.128,11.328l0,0L154.411,383.724z"/>
<linearGradient id="SVGID_2_" gradientUnits="userSpaceOnUse" x1="-40.334" y1="543.2819" x2="23.505" y2="607.1219" gradientTransform="matrix(8 0 0 -8 398.9257 4886.9668)">
	<stop  offset="0" style="stop-color:#003F8A"/>
	<stop  offset="0.518" style="stop-color:#00D7DF"/>
	<stop  offset="1" style="stop-color:#006DF0"/>
</linearGradient>
<path style="fill:url(#SVGID_2_);" d="M482.947,155.804l-258.472,211.48l-3.728-3.624c-2.997-3.247-8.058-3.449-11.305-0.452
	s-3.449,8.058-0.452,11.305c0.196,0.212,0.403,0.414,0.621,0.604l8.8,8.608c2.913,2.836,7.491,3.036,10.64,0.464l264-216
	c3.377-2.849,3.805-7.896,0.955-11.273c-2.788-3.304-7.695-3.796-11.083-1.111L482.947,155.804z"/>
<linearGradient id="SVGID_3_" gradientUnits="userSpaceOnUse" x1="-53.6101" y1="556.561" x2="10.2259" y2="620.397" gradientTransform="matrix(8 0 0 -8 398.9257 4886.9668)">
	<stop  offset="0" style="stop-color:#003F8A"/>
	<stop  offset="0.518" style="stop-color:#00D7DF"/>
	<stop  offset="1" style="stop-color:#006DF0"/>
</linearGradient>
<path style="fill:url(#SVGID_3_);" d="M170.163,336.724c3.077,3.17,8.142,3.245,11.312,0.168c3.17-3.077,3.245-8.142,0.168-11.312
	c-0.106-0.11-0.216-0.216-0.328-0.32L77.611,224.268c-3.163-3.093-8.235-3.035-11.328,0.128c-3.093,3.163-3.035,8.235,0.128,11.328
	l0,0L170.163,336.724z"/>
<g>
</g>
<g>
</g>
<g>
</g>
<g>
</g>
<g>
</g>
<g>
</g>
<g>
</g>
<g>
</g>
<g>
</g>
<g>
</g>
<g>
</g>
<g>
</g>
<g>
</g>
<g>
</g>
<g>
</g>
</svg>
