<?xml version="1.0" encoding="iso-8859-1"?>
<!-- Generator: Adobe Illustrator 19.0.0, SVG Export Plug-In . SVG Version: 6.00 Build 0)  -->
<svg version="1.1" id="Capa_1" xmlns="http://www.w3.org/2000/svg" xmlns:xlink="http://www.w3.org/1999/xlink" x="0px" y="0px"
	 viewBox="0 0 479.764 479.764" style="enable-background:new 0 0 479.764 479.764;" xml:space="preserve">
<linearGradient id="SVGID_1_" gradientUnits="userSpaceOnUse" x1="-48.5609" y1="546.7719" x2="14.7571" y2="610.0859" gradientTransform="matrix(8 0 0 -8 399.8261 4866.3359)">
	<stop  offset="0" style="stop-color:#003F8A"/>
	<stop  offset="0.518" style="stop-color:#00D7DF"/>
	<stop  offset="1" style="stop-color:#006DF0"/>
</linearGradient>
<path style="fill:url(#SVGID_1_);" d="M239.882,463.704c-119.239-0.132-215.868-96.761-216-216c0-4.418-3.582-8-8-8s-8,3.582-8,8
	c-0.033,128.13,103.81,232.027,231.94,232.06c128.13,0.033,232.027-103.81,232.06-231.94
	c0.031-121.879-94.25-223.002-215.832-231.496V0l-88.464,23.704l88.464,23.704V32.376
	c118.923,9.391,207.716,113.411,198.325,232.334C445.528,376.739,352.259,463.269,239.882,463.704z"/>
<g>
</g>
<g>
</g>
<g>
</g>
<g>
</g>
<g>
</g>
<g>
</g>
<g>
</g>
<g>
</g>
<g>
</g>
<g>
</g>
<g>
</g>
<g>
</g>
<g>
</g>
<g>
</g>
<g>
</g>
</svg>
