<?xml version="1.0" encoding="iso-8859-1"?>
<!-- Generator: Adobe Illustrator 19.0.0, SVG Export Plug-In . SVG Version: 6.00 Build 0)  -->
<svg version="1.1" id="Capa_1" xmlns="http://www.w3.org/2000/svg" xmlns:xlink="http://www.w3.org/1999/xlink" x="0px" y="0px"
	 viewBox="0 0 498.791 498.791" style="enable-background:new 0 0 498.791 498.791;" xml:space="preserve">
<linearGradient id="SVGID_1_" gradientUnits="userSpaceOnUse" x1="-49.8916" y1="565.9873" x2="19.5044" y2="635.3883" gradientTransform="matrix(8 0 0 -8 399.0103 5025.4487)">
	<stop  offset="0" style="stop-color:#003F8A"/>
	<stop  offset="0.518" style="stop-color:#00D7DF"/>
	<stop  offset="1" style="stop-color:#006DF0"/>
</linearGradient>
<path style="fill:url(#SVGID_1_);" d="M498.791,167.599l-53.44-72.152l10.192,89.208l13.6-5.368
	c38.706,122.144-28.934,252.539-151.079,291.244S65.525,441.597,26.82,319.453S55.754,66.914,177.898,28.209
	c71.418-22.631,149.37-9.382,209.3,35.575c3.535,2.651,8.549,1.935,11.2-1.6s1.935-8.549-1.6-11.2l0,0
	C287.219-31.188,131.774-8.969,49.603,100.611s-59.952,265.025,49.628,347.196s265.025,59.952,347.196-49.628
	c48.28-64.385,62.318-148.193,37.652-224.796L498.791,167.599z"/>
<linearGradient id="SVGID_2_" gradientUnits="userSpaceOnUse" x1="-47.9685" y1="564.0682" x2="21.4245" y2="633.4652" gradientTransform="matrix(8 0 0 -8 399.0103 5025.4487)">
	<stop  offset="0" style="stop-color:#003F8A"/>
	<stop  offset="0.518" style="stop-color:#00D7DF"/>
	<stop  offset="1" style="stop-color:#006DF0"/>
</linearGradient>
<path style="fill:url(#SVGID_2_);" d="M255.999,105.383h-16c-39.746,0.044-71.956,32.254-72,72v40h-16c-4.418,0-8,3.582-8,8v160
	c0,4.418,3.582,8,8,8h192c4.418,0,8-3.582,8-8v-160c0-4.418-3.582-8-8-8h-16v-40C327.954,137.637,295.745,105.427,255.999,105.383z
	 M183.999,177.383c0.04-30.911,25.089-55.96,56-56h16c30.912,0.04,55.96,25.088,56,56v40h-128V177.383z M335.999,377.383h-176v-144
	h176V377.383z"/>
<g>
</g>
<g>
</g>
<g>
</g>
<g>
</g>
<g>
</g>
<g>
</g>
<g>
</g>
<g>
</g>
<g>
</g>
<g>
</g>
<g>
</g>
<g>
</g>
<g>
</g>
<g>
</g>
<g>
</g>
</svg>
