<?xml version="1.0" encoding="iso-8859-1"?>
<!-- Generator: Adobe Illustrator 19.0.0, SVG Export Plug-In . SVG Version: 6.00 Build 0)  -->
<svg version="1.1" id="Capa_1" xmlns="http://www.w3.org/2000/svg" xmlns:xlink="http://www.w3.org/1999/xlink" x="0px" y="0px"
	 viewBox="0 0 500.552 500.552" style="enable-background:new 0 0 500.552 500.552;" xml:space="preserve">
<linearGradient id="SVGID_1_" gradientUnits="userSpaceOnUse" x1="-40.6357" y1="562.4428" x2="28.9503" y2="632.0268" gradientTransform="matrix(8 0 0 -8 383.2079 5033.854)">
	<stop  offset="0" style="stop-color:#003F8A"/>
	<stop  offset="0.518" style="stop-color:#00D7DF"/>
	<stop  offset="1" style="stop-color:#006DF0"/>
</linearGradient>
<path style="fill:url(#SVGID_1_);" d="M466.512,334.253c-46.326,119.462-180.724,178.75-300.186,132.424
	C100.939,441.321,50.532,387.749,29.2,320.941c-1.343-4.211-5.845-6.535-10.056-5.192c-4.211,1.343-6.535,5.845-5.192,10.056
	c41.682,130.47,181.239,202.447,311.709,160.765c71.752-22.923,129.197-77.213,156.131-147.557l15.2,4.712l3.56-89.72
	l-47.984,75.912L466.512,334.253z"/>
<linearGradient id="SVGID_2_" gradientUnits="userSpaceOnUse" x1="-52.0502" y1="573.8524" x2="17.5308" y2="643.4413" gradientTransform="matrix(8 0 0 -8 383.2079 5033.854)">
	<stop  offset="0" style="stop-color:#003F8A"/>
	<stop  offset="0.518" style="stop-color:#00D7DF"/>
	<stop  offset="1" style="stop-color:#006DF0"/>
</linearGradient>
<path style="fill:url(#SVGID_2_);" d="M34,166.381C80.303,46.91,214.689-12.405,334.161,33.898
	c65.98,25.572,116.682,79.857,137.695,147.427c1.049,3.336,4.143,5.604,7.64,5.6c0.813,0,1.622-0.121,2.4-0.36
	c4.219-1.312,6.576-5.795,5.265-10.014c0-0.001,0-0.001-0.001-0.002C446.474,45.765,307.469-27.274,176.685,13.413
	C104.098,35.994,45.877,90.619,18.72,161.621l-15.16-4.712L0,246.629l47.944-75.912L34,166.381z"/>
<linearGradient id="SVGID_3_" gradientUnits="userSpaceOnUse" x1="-48.377" y1="570.1841" x2="21.207" y2="639.7681" gradientTransform="matrix(8 0 0 -8 383.2079 5033.854)">
	<stop  offset="0" style="stop-color:#003F8A"/>
	<stop  offset="0.518" style="stop-color:#00D7DF"/>
	<stop  offset="1" style="stop-color:#006DF0"/>
</linearGradient>
<path style="fill:url(#SVGID_3_);" d="M258.256,82.317c0-4.418-3.582-8-8-8s-8,3.582-8,8v272c0,4.418,3.582,8,8,8s8-3.582,8-8
	V82.317z"/>
<linearGradient id="SVGID_4_" gradientUnits="userSpaceOnUse" x1="-36.8783" y1="558.6834" x2="32.7097" y2="628.2694" gradientTransform="matrix(8 0 0 -8 383.2079 5033.854)">
	<stop  offset="0" style="stop-color:#003F8A"/>
	<stop  offset="0.518" style="stop-color:#00D7DF"/>
	<stop  offset="1" style="stop-color:#006DF0"/>
</linearGradient>
<path style="fill:url(#SVGID_4_);" d="M250.256,378.317c-4.418,0-8,3.582-8,8v32c0,4.418,3.582,8,8,8s8-3.582,8-8v-32
	C258.256,381.899,254.674,378.317,250.256,378.317z"/>
<g>
</g>
<g>
</g>
<g>
</g>
<g>
</g>
<g>
</g>
<g>
</g>
<g>
</g>
<g>
</g>
<g>
</g>
<g>
</g>
<g>
</g>
<g>
</g>
<g>
</g>
<g>
</g>
<g>
</g>
</svg>
