<?xml version="1.0" encoding="iso-8859-1"?>
<!-- Generator: Adobe Illustrator 19.0.0, SVG Export Plug-In . SVG Version: 6.00 Build 0)  -->
<svg version="1.1" id="Capa_1" xmlns="http://www.w3.org/2000/svg" xmlns:xlink="http://www.w3.org/1999/xlink" x="0px" y="0px"
	 viewBox="0 0 500.552 500.552" style="enable-background:new 0 0 500.552 500.552;" xml:space="preserve">
<linearGradient id="SVGID_1_" gradientUnits="userSpaceOnUse" x1="-49.9383" y1="571.0747" x2="16.5917" y2="637.6077" gradientTransform="matrix(8 0 0 -8 383.1841 5033.3042)">
	<stop  offset="0" style="stop-color:#003F8A"/>
	<stop  offset="0.518" style="stop-color:#00D7DF"/>
	<stop  offset="1" style="stop-color:#006DF0"/>
</linearGradient>
<path style="fill:url(#SVGID_1_);" d="M161.563,481.792l-4.712,15.2l89.72,3.56l-75.912-47.984l-4.336,13.944
	C46.861,420.186-12.427,285.788,33.899,166.326C59.255,100.939,112.828,50.532,179.635,29.2c4.211-1.345,6.533-5.849,5.188-10.06
	s-5.849-6.533-10.06-5.188C44.294,55.636-27.68,195.195,14.004,325.664C36.928,397.415,91.219,454.859,161.563,481.792z"/>
<linearGradient id="SVGID_2_" gradientUnits="userSpaceOnUse" x1="-43.4187" y1="564.5581" x2="23.1173" y2="631.0891" gradientTransform="matrix(8 0 0 -8 383.1841 5033.3042)">
	<stop  offset="0" style="stop-color:#003F8A"/>
	<stop  offset="0.518" style="stop-color:#00D7DF"/>
	<stop  offset="1" style="stop-color:#006DF0"/>
</linearGradient>
<path style="fill:url(#SVGID_2_);" d="M338.955,18.72l4.712-15.16L253.947,0l75.912,47.944L334.195,34
	c119.471,46.303,178.786,180.689,132.483,300.161c-25.572,65.98-79.857,116.682-147.427,137.695
	c-4.219,1.312-6.576,5.797-5.264,10.016c1.312,4.219,5.797,6.576,10.016,5.264c130.78-40.698,203.806-179.709,163.108-310.489
	C464.531,104.085,409.929,45.882,338.955,18.72L338.955,18.72z"/>
<g>
</g>
<g>
</g>
<g>
</g>
<g>
</g>
<g>
</g>
<g>
</g>
<g>
</g>
<g>
</g>
<g>
</g>
<g>
</g>
<g>
</g>
<g>
</g>
<g>
</g>
<g>
</g>
<g>
</g>
</svg>
