<?xml version="1.0" encoding="iso-8859-1"?>
<!-- Generator: Adobe Illustrator 19.0.0, SVG Export Plug-In . SVG Version: 6.00 Build 0)  -->
<svg version="1.1" id="Capa_1" xmlns="http://www.w3.org/2000/svg" xmlns:xlink="http://www.w3.org/1999/xlink" x="0px" y="0px"
	 viewBox="0 0 498.792 498.792" style="enable-background:new 0 0 498.792 498.792;" xml:space="preserve">
<linearGradient id="SVGID_1_" gradientUnits="userSpaceOnUse" x1="-47.1003" y1="565.9901" x2="19.0297" y2="632.1231" gradientTransform="matrix(8 0 0 -8 389.4118 5013)">
	<stop  offset="0" style="stop-color:#003F8A"/>
	<stop  offset="0.518" style="stop-color:#00D7DF"/>
	<stop  offset="1" style="stop-color:#006DF0"/>
</linearGradient>
<path style="fill:url(#SVGID_1_);" d="M249.37,0C112.403,0.021,1.387,111.071,1.408,248.038
	C1.429,385.005,112.479,496.021,249.446,496c25.774-0.004,51.389-4.026,75.924-11.92l5.8,14.712l72.152-53.44l-89.224,10.192
	l5.368,13.6C197.352,507.828,66.999,440.195,28.315,318.081S57.264,65.615,179.378,26.931s252.466,28.949,291.151,151.063
	c22.615,71.387,9.372,149.3-35.559,209.207c-2.654,3.532-1.942,8.547,1.59,11.201c3.532,2.654,8.547,1.942,11.201-1.59
	c0.003-0.004,0.006-0.007,0.008-0.011c82.18-109.573,59.973-265.02-49.6-347.2C355.242,17.404,303.03,0,249.37,0z"/>
<g>
</g>
<g>
</g>
<g>
</g>
<g>
</g>
<g>
</g>
<g>
</g>
<g>
</g>
<g>
</g>
<g>
</g>
<g>
</g>
<g>
</g>
<g>
</g>
<g>
</g>
<g>
</g>
<g>
</g>
</svg>
