<svg height="512" viewBox="0 0 56 56" width="512" xmlns="http://www.w3.org/2000/svg"><g id="Page-1" fill="none" fill-rule="evenodd"><g id="021---Love-Diary" fill="rgb(0,0,0)" fill-rule="nonzero"><path id="Shape" d="m6 4v1.5c0 .27614237.22385763.5.5.5h1.322c2.10132612-.0361511 3.8930558 1.51513 4.158 3.6.1130472 1.1248056-.2551382 2.2449244-1.0134872 3.0833002s-1.83604068 1.316714-2.9665128 1.3166998h-1.5c-.27614237 0-.5.2238576-.5.5v3c0 .2761424.22385763.5.5.5h1.322c2.10132612-.0361511 3.8930558 1.51513 4.158 3.6.1130472 1.1248056-.2551382 2.2449244-1.0134872 3.0833002s-1.83604068 1.316714-2.9665128 1.3166998h-1.5c-.27614237 0-.5.2238576-.5.5v3c0 .2761424.22385763.5.5.5h1.322c2.10132612-.0361511 3.8930558 1.51513 4.158 3.6.1130472 1.1248056-.2551382 2.2449244-1.0134872 3.0833002s-1.83604068 1.316714-2.9665128 1.3166998h-1.5c-.27614237 0-.5.2238576-.5.5v3c0 .2761424.22385763.5.5.5h1.322c2.10132612-.0361511 3.8930558 1.51513 4.158 3.6.1130472 1.1248056-.2551382 2.2449244-1.0134872 3.0833002s-1.83604068 1.316714-2.9665128 1.3166998h-1.5c-.27614237 0-.5.2238576-.5.5v1.5c0 2.209139 1.790861 4 4 4h4v-56h-4c-2.209139 0-4 1.790861-4 4z"/><path id="Shape" d="m10 46c0-1.1045695-.8954305-2-2-2h-6c-1.1045695 0-2 .8954305-2 2s.8954305 2 2 2h6c1.1045695 0 2-.8954305 2-2z"/><path id="Shape" d="m2 36h6c1.1045695 0 2-.8954305 2-2s-.8954305-2-2-2h-6c-1.1045695 0-2 .8954305-2 2s.8954305 2 2 2z"/><path id="Shape" d="m2 24h6c1.1045695 0 2-.8954305 2-2s-.8954305-2-2-2h-6c-1.1045695 0-2 .8954305-2 2s.8954305 2 2 2z"/><path id="Shape" d="m2 12h6c1.1045695 0 2-.8954305 2-2s-.8954305-2-2-2h-6c-1.1045695 0-2 .8954305-2 2s.8954305 2 2 2z"/><path id="Shape" d="m40 16c-2.4351113.0206516-4.718398 1.1865616-6.163 3.147-.1956181.2657999-.5059757.4227375-.836.4227375s-.6403819-.1569376-.836-.4227375c-1.4393145-1.9677112-3.7270947-3.1355367-6.165-3.147-3.42 0-6 2.931-6 6.818 0 4.73 4.132 9.547 13 15.151 8.869-5.605 13-10.42 13-15.151 0-3.887-2.58-6.818-6-6.818zm-12.995 4c-.8080187-.0428255-1.5962169.2594682-2.1683743.8316257-.5721575.5721574-.8744512 1.3603556-.8316257 2.1683743 0 .5522847-.4477153 1-1 1s-1-.4477153-1-1c-.0507877-1.3410078.4596689-2.6425 1.4085844-3.5914156.9489156-.9489155 2.2504078-1.4593721 3.5914156-1.4085844.5522847 0 1 .4477153 1 1s-.4477153 1-1 1z"/><path id="Shape" d="m48 0h-32v56h32c1.1045695 0 2-.8954305 2-2v-52c0-1.1045695-.8954305-2-2-2zm-23 2h17c.5522847 0 1 .44771525 1 1s-.4477153 1-1 1h-17c-.5522847 0-1-.44771525-1-1s.4477153-1 1-1zm-6 0h2c.5522847 0 1 .44771525 1 1s-.4477153 1-1 1h-2c-.5522847 0-1-.44771525-1-1s.4477153-1 1-1zm14.971 37.722c-.5939104.3706693-1.3470896.3706693-1.941 0-9.572-6.032-14.03-11.403-14.03-16.904 0-4.944 3.514-8.818 8-8.818 2.6518937.0037051 5.1846623 1.1018412 7 3.035 1.8153377-1.9331588 4.3481063-3.0312949 7-3.035 4.486 0 8 3.874 8 8.818 0 5.501-4.458 10.872-14.029 16.904z"/><path id="Shape" d="m52.82 41.181 2.82-2.349c.2282708-.1901328.3601857-.4719175.36-.769v-4.863c-.0000727-.1939533-.1123052-.3703671-.2879528-.4526216s-.3830184-.0555085-.5320472.0686216l-3 2.5c-.114001.0949544-.1799444.2356337-.18.384v5.1c.0012297.193411.1138985.3687656.2893043.4502651.1754057.0814995.3820838.0545244.5306957-.0692651z"/><path id="Shape" d="m52 30v1.8c.0000727.1939533.1123052.3703671.2879528.4526216s.3830184.0555085.5320472-.0686216l3-2.5c.114001-.0949544.1799444-.2356337.18-.384v-5.1c-.0000727-.1939533-.1123052-.3703671-.2879528-.4526216s-.3830184-.0555085-.5320472.0686216l-3 2.5c-.114001.0949544-.1799444.2356337-.18.384z"/><path id="Shape" d="m52 21v1.8c.0000727.1939533.1123052.3703671.2879528.4526216s.3830184.0555085.5320472-.0686216l3-2.5c.114001-.0949544.1799444-.2356337.18-.384v-5.1c-.0000727-.1939533-.1123052-.3703671-.2879528-.4526216s-.3830184-.0555085-.5320472.0686216l-3 2.5c-.114001.0949544-.1799444.2356337-.18.384z"/><path id="Shape" d="m55 4h-3v9.8c.0000727.1939533.1123052.3703671.2879528.4526216s.3830184.0555085.5320472-.0686216l3-2.5c.114001-.0949544.1799444-.2356337.18-.384v-6.3c0-.55228475-.4477153-1-1-1z"/></g></g></svg>