<?xml version="1.0" encoding="iso-8859-1"?>
<!-- Generator: Adobe Illustrator 19.0.0, SVG Export Plug-In . SVG Version: 6.00 Build 0)  -->
<svg version="1.1" id="Capa_1" xmlns="http://www.w3.org/2000/svg" xmlns:xlink="http://www.w3.org/1999/xlink" x="0px" y="0px"
	 viewBox="0 0 511.999 511.999" style="enable-background:new 0 0 511.999 511.999;" xml:space="preserve">
<g>
	<g>
		<path d="M409.923,0H102.077C89.762,0,79.742,10.019,79.742,22.335v352.412c5.892-3.417,12.725-5.385,20.012-5.385h332.504V22.335
			C432.258,10.019,422.238,0,409.923,0z M311.88,195.296l-46.587,49.643c-2.41,2.567-5.774,4.024-9.294,4.024
			c-3.521,0-6.884-1.456-9.293-4.024l-46.587-49.643c-7.395-7.88-11.924-18.481-11.924-30.14c0-24.327,19.875-44.134,44.201-44.055
			c8.688,0.028,16.785,2.572,23.598,6.94l0.003,0.005c6.814-4.371,14.911-6.916,23.601-6.945
			c24.328-0.082,44.206,19.726,44.206,44.055C323.804,176.815,319.275,187.416,311.88,195.296z"/>
	</g>
</g>
<g>
	<g>
		<path d="M99.754,389.375c-11.035,0-20.012,8.977-20.012,20.012v28.568c0,11.035,8.977,20.012,20.012,20.012h43.041v20.012v27.743
			c0,4.999,5.566,7.986,9.732,5.222l14.448-9.587c2.099-1.393,4.83-1.393,6.93,0l14.448,9.587c4.165,2.764,9.732-0.223,9.732-5.222
			v-27.743v-20.012h215.238c10.441,0,18.934-8.493,18.934-18.934v-25.368v-24.29H99.754z M388.522,433.677H198.083v-9.032h-55.288
			v9.032h-21.933c-5.526,0-10.006-4.48-10.006-10.006s4.48-10.006,10.006-10.006h267.66c5.526,0,10.006,4.48,10.006,10.006
			S394.048,433.677,388.522,433.677z"/>
	</g>
</g>
<g>
</g>
<g>
</g>
<g>
</g>
<g>
</g>
<g>
</g>
<g>
</g>
<g>
</g>
<g>
</g>
<g>
</g>
<g>
</g>
<g>
</g>
<g>
</g>
<g>
</g>
<g>
</g>
<g>
</g>
</svg>
