<svg height="100" viewBox="0 -70 511.99955 511" width="100" xmlns="http://www.w3.org/2000/svg"><path d="m300.671875 371.222656h-261.460937c-11.550782 0-22.464844-5.128906-29.945313-14.070312-7.554687-9.03125-10.707031-20.867188-8.652344-32.476563 14.820313-83.625 86.035157-144.320312 169.328125-144.320312 83.296875 0 154.507813 60.695312 169.328125 144.320312 2.054688 11.609375-1.097656 23.445313-8.652343 32.476563-7.480469 8.941406-18.394532 14.070312-29.945313 14.070312zm0 0"/><path d="m169.941406 150.296875c28.917969 0 56.375 7.324219 80.527344 20.375 13.964844-17.921875 22.320312-40.589844 22.320312-65.214844 0-57.875-46.136718-104.957031-102.847656-104.957031-56.710937 0-102.847656 47.082031-102.847656 104.957031 0 24.625 8.355469 47.292969 22.320312 65.214844 24.152344-13.050781 51.609376-20.375 80.527344-20.375zm0 0"/><path d="m377.058594 117.480469c25.648437 0 49.847656 7.25 70.554687 19.992187 7.882813-12.941406 12.449219-28.195312 12.449219-44.515625 0-46.675781-37.234375-84.644531-83.003906-84.644531-45.765625 0-83.003906 37.96875-83.003906 84.644531 0 16.339844 4.578124 31.609375 12.480468 44.558594 21.242188-13.101563 45.5625-20.035156 70.523438-20.035156zm0 0"/><path d="m511.472656 262.058594c-11.761718-66.355469-68.289062-114.519532-134.414062-114.519532-25.796875 0-50.925782 7.386719-72.664063 21.359376-8.457031 5.433593-16.253906 11.78125-23.296875 18.882812 41.101563 28.070312 73.648438 69.257812 82.710938 114.296875h114.449218c9.945313 0 19.34375-4.410156 25.777344-12.105469 6.492188-7.765625 9.203125-17.9375 7.4375-27.914062zm0 0"/></svg>