<?xml version="1.0" encoding="iso-8859-1"?>
<!-- Generator: Adobe Illustrator 19.0.0, SVG Export Plug-In . SVG Version: 6.00 Build 0)  -->
<svg version="1.1" id="Capa_1" xmlns="http://www.w3.org/2000/svg" xmlns:xlink="http://www.w3.org/1999/xlink" x="0px" y="0px"
	 viewBox="0 0 480 480" style="enable-background:new 0 0 480 480;" xml:space="preserve">
<linearGradient id="SVGID_1_" gradientUnits="userSpaceOnUse" x1="-51.6309" y1="556.4662" x2="-51.6309" y2="614.4202" gradientTransform="matrix(8 0 0 -8 454.9984 4922.5605)">
	<stop  offset="0" style="stop-color:#006DF0"/>
	<stop  offset="1" style="stop-color:#00E7F0"/>
</linearGradient>
<path style="fill:url(#SVGID_1_);" d="M16,173.951C15.892,114.522,39.532,57.513,81.664,15.599c3.065-3.182,2.97-8.247-0.212-11.312
	c-3.105-2.99-8.02-2.983-11.116,0.016c-93.694,93.57-93.794,245.378-0.224,339.072c0.075,0.075,0.149,0.15,0.224,0.224
	c3.174,3.074,8.238,2.993,11.312-0.18c2.999-3.096,3.006-8.011,0.016-11.116C39.532,290.39,15.892,233.38,16,173.951L16,173.951z"/>
<g>
	
		<linearGradient id="SVGID_2_" gradientUnits="userSpaceOnUse" x1="-2.1309" y1="556.4662" x2="-2.1309" y2="614.4202" gradientTransform="matrix(8 0 0 -8 454.9984 4922.5605)">
		<stop  offset="0" style="stop-color:#006DF0"/>
		<stop  offset="1" style="stop-color:#00E7F0"/>
	</linearGradient>
	<path style="fill:url(#SVGID_2_);" d="M409.664,4.303c-3.173-3.074-8.238-2.994-11.312,0.18c-2.999,3.096-3.006,8.012-0.016,11.116
		c87.455,87.318,87.567,229,0.248,316.456c-0.083,0.083-0.165,0.166-0.248,0.248c-3.174,3.074-3.254,8.139-0.18,11.312
		c3.074,3.174,8.139,3.254,11.312,0.18c0.066-0.064,0.132-0.13,0.196-0.196c93.694-93.57,93.794-245.378,0.224-339.072
		C409.814,4.453,409.739,4.378,409.664,4.303L409.664,4.303z"/>
	
		<linearGradient id="SVGID_3_" gradientUnits="userSpaceOnUse" x1="-44.7886" y1="556.4662" x2="-44.7886" y2="614.4202" gradientTransform="matrix(8 0 0 -8 454.9984 4922.5605)">
		<stop  offset="0" style="stop-color:#006DF0"/>
		<stop  offset="1" style="stop-color:#00E7F0"/>
	</linearGradient>
	<path style="fill:url(#SVGID_3_);" d="M80,173.951c-0.082-42.444,16.819-83.156,46.936-113.064
		c3.069-3.178,2.981-8.243-0.197-11.312c-3.1-2.994-8.015-2.994-11.115,0c-68.691,68.492-68.852,179.701-0.36,248.392
		c0.12,0.12,0.24,0.24,0.36,0.36c3.07,3.178,8.134,3.266,11.312,0.196c3.178-3.07,3.266-8.134,0.196-11.312
		c-0.064-0.067-0.13-0.132-0.196-0.196C96.82,257.108,79.919,216.395,80,173.951L80,173.951z"/>
	
		<linearGradient id="SVGID_4_" gradientUnits="userSpaceOnUse" x1="-37.9636" y1="556.4662" x2="-37.9636" y2="614.4202" gradientTransform="matrix(8 0 0 -8 454.9984 4922.5605)">
		<stop  offset="0" style="stop-color:#006DF0"/>
		<stop  offset="1" style="stop-color:#00E7F0"/>
	</linearGradient>
	<path style="fill:url(#SVGID_4_);" d="M172.136,94.751c-3.124-3.123-8.188-3.123-11.312,0
		c-43.728,43.675-43.771,114.528-0.096,158.256c0.032,0.032,0.064,0.064,0.096,0.096c3.07,3.178,8.134,3.266,11.312,0.196
		c3.178-3.07,3.266-8.134,0.196-11.312c-0.064-0.067-0.13-0.132-0.196-0.196c-37.48-37.432-37.52-98.16-0.088-135.64
		c0.029-0.029,0.059-0.059,0.088-0.088C175.259,102.939,175.259,97.875,172.136,94.751z"/>
	
		<linearGradient id="SVGID_5_" gradientUnits="userSpaceOnUse" x1="-15.7829" y1="556.4662" x2="-15.7829" y2="614.4202" gradientTransform="matrix(8 0 0 -8 454.9984 4922.5605)">
		<stop  offset="0" style="stop-color:#006DF0"/>
		<stop  offset="1" style="stop-color:#00E7F0"/>
	</linearGradient>
	<path style="fill:url(#SVGID_5_);" d="M319.2,94.751c-3.069-3.178-8.134-3.266-11.312-0.196c-3.178,3.069-3.266,8.134-0.196,11.312
		c0.064,0.067,0.13,0.132,0.196,0.196c37.48,37.432,37.52,98.16,0.088,135.64c-0.029,0.029-0.059,0.059-0.088,0.088
		c-3.137,3.124-3.148,8.199-0.024,11.336c3.124,3.137,8.199,3.148,11.336,0.024c43.728-43.675,43.771-114.528,0.096-158.256
		c-0.032-0.032-0.064-0.064-0.096-0.096V94.751z"/>
	
		<linearGradient id="SVGID_6_" gradientUnits="userSpaceOnUse" x1="-8.9609" y1="556.4662" x2="-8.9609" y2="614.4202" gradientTransform="matrix(8 0 0 -8 454.9984 4922.5605)">
		<stop  offset="0" style="stop-color:#006DF0"/>
		<stop  offset="1" style="stop-color:#00E7F0"/>
	</linearGradient>
	<path style="fill:url(#SVGID_6_);" d="M364.376,49.575c-3.178-3.07-8.242-2.982-11.312,0.196c-2.995,3.1-2.995,8.016,0,11.116
		c62.444,62.249,62.601,163.333,0.352,225.776c-0.117,0.117-0.234,0.235-0.352,0.352c-3.178,3.07-3.266,8.134-0.196,11.312
		c3.07,3.178,8.134,3.266,11.312,0.196c0.066-0.064,0.132-0.129,0.196-0.196c68.691-68.492,68.852-179.701,0.36-248.392
		C364.616,49.815,364.496,49.695,364.376,49.575L364.376,49.575z"/>
	
		<linearGradient id="SVGID_7_" gradientUnits="userSpaceOnUse" x1="-26.8743" y1="556.4662" x2="-26.8743" y2="614.4202" gradientTransform="matrix(8 0 0 -8 454.9984 4922.5605)">
		<stop  offset="0" style="stop-color:#006DF0"/>
		<stop  offset="1" style="stop-color:#00E7F0"/>
	</linearGradient>
	<path style="fill:url(#SVGID_7_);" d="M240,125.951c-26.509,0.129-47.895,21.724-47.766,48.233
		c0.113,23.245,16.866,43.068,39.766,47.055v248.712c0,4.418,3.582,8,8,8s8-3.582,8-8V221.239
		c26.117-4.547,43.602-29.405,39.055-55.522C283.068,142.817,263.245,126.064,240,125.951z M262.696,196.583
		c-12.499,12.632-32.871,12.74-45.503,0.241c-12.632-12.499-12.74-32.871-0.241-45.503c12.499-12.632,32.871-12.74,45.503-0.241
		c6.108,6.043,9.545,14.279,9.545,22.871C272.007,182.427,268.663,190.563,262.696,196.583z"/>
</g>
<g>
</g>
<g>
</g>
<g>
</g>
<g>
</g>
<g>
</g>
<g>
</g>
<g>
</g>
<g>
</g>
<g>
</g>
<g>
</g>
<g>
</g>
<g>
</g>
<g>
</g>
<g>
</g>
<g>
</g>
</svg>
