<?xml version="1.0" encoding="iso-8859-1"?>
<!-- Generator: Adobe Illustrator 19.0.0, SVG Export Plug-In . SVG Version: 6.00 Build 0)  -->
<svg version="1.1" id="Capa_1" xmlns="http://www.w3.org/2000/svg" xmlns:xlink="http://www.w3.org/1999/xlink" x="0px" y="0px"
	 viewBox="0 0 480 480" style="enable-background:new 0 0 480 480;" xml:space="preserve">
<linearGradient id="SVGID_1_" gradientUnits="userSpaceOnUse" x1="-26.875" y1="559.871" x2="-26.875" y2="616.863" gradientTransform="matrix(8 0 0 -8 455 4941)">
	<stop  offset="0" style="stop-color:#006DF0"/>
	<stop  offset="1" style="stop-color:#00E7F0"/>
</linearGradient>
<path style="fill:url(#SVGID_1_);" d="M472,8H8c-4.418,0-8,3.582-8,8v448c0,4.418,3.582,8,8,8h464c4.418,0,8-3.582,8-8V16
	C480,11.582,476.418,8,472,8z M384,136h80v96h-80V136z M384,248h80v96h-80V248z M464,120h-80V24h80V120z M96,232H16v-96h80V232z
	 M16,248h80v96H16V248z M96,24v96H16V24H96z M16,360h80v96H16V360z M112,24h256v432H112V24z M384,456v-96h80v96H384z"/>
<linearGradient id="SVGID_2_" gradientUnits="userSpaceOnUse" x1="-24.541" y1="559.871" x2="-24.541" y2="616.863" gradientTransform="matrix(8 0 0 -8 455 4941)">
	<stop  offset="0" style="stop-color:#006DF0"/>
	<stop  offset="1" style="stop-color:#00E7F0"/>
</linearGradient>
<path style="fill:url(#SVGID_2_);" d="M313.336,231.528L212,173.024c-3.826-2.209-8.719-0.898-10.928,2.928
	c-0.71,1.23-1.08,2.627-1.072,4.048v116.968c0,4.418,3.582,8,8,8c1.404,0,2.784-0.37,4-1.072l101.336-58.504
	c3.828-2.206,5.144-7.097,2.939-10.925C315.571,233.245,314.557,232.232,313.336,231.528L313.336,231.528z M216,283.112v-89.296
	l77.336,44.648L216,283.112z"/>
<g>
</g>
<g>
</g>
<g>
</g>
<g>
</g>
<g>
</g>
<g>
</g>
<g>
</g>
<g>
</g>
<g>
</g>
<g>
</g>
<g>
</g>
<g>
</g>
<g>
</g>
<g>
</g>
<g>
</g>
</svg>
