<?xml version="1.0" encoding="iso-8859-1"?>
<!-- Generator: Adobe Illustrator 19.0.0, SVG Export Plug-In . SVG Version: 6.00 Build 0)  -->
<svg version="1.1" id="Capa_1" xmlns="http://www.w3.org/2000/svg" xmlns:xlink="http://www.w3.org/1999/xlink" x="0px" y="0px"
	 viewBox="0 0 480 480" style="enable-background:new 0 0 480 480;" xml:space="preserve">
<linearGradient id="SVGID_1_" gradientUnits="userSpaceOnUse" x1="-26.875" y1="558.2745" x2="-26.875" y2="613.1746" gradientTransform="matrix(8 0 0 -8 455 4941.4458)">
	<stop  offset="0" style="stop-color:#006DF0"/>
	<stop  offset="1" style="stop-color:#00E7F0"/>
</linearGradient>
<path style="fill:url(#SVGID_1_);" d="M475.064,0.658c-2.99-1.239-6.432-0.553-8.72,1.736L320,148.738V40.05c0-4.418-3.582-8-8-8H8
	c-4.418,0-8,3.582-8,8v304c0,4.418,3.582,8,8,8h132.688L26.344,466.394c-3.07,3.178-2.982,8.242,0.196,11.312
	c3.1,2.994,8.016,2.994,11.116,0L160,355.362l122.344,122.344c3.178,3.07,8.242,2.982,11.312-0.196c2.995-3.1,2.995-8.016,0-11.116
	L179.312,352.05H312c4.418,0,8-3.582,8-8V235.362l146.344,146.344c1.5,1.5,3.534,2.344,5.656,2.344
	c1.052,0.003,2.093-0.203,3.064-0.608c2.989-1.239,4.937-4.157,4.936-7.392v-368C480.001,4.814,478.053,1.897,475.064,0.658z
	 M304,336.05H16v-288h288V336.05z M464,356.738l-144-144v-41.376l144-144V356.738z"/>
<linearGradient id="SVGID_2_" gradientUnits="userSpaceOnUse" x1="-45.4088" y1="558.2745" x2="-45.4088" y2="613.1746" gradientTransform="matrix(8 0 0 -8 455 4941.4458)">
	<stop  offset="0" style="stop-color:#006DF0"/>
	<stop  offset="1" style="stop-color:#00E7F0"/>
</linearGradient>
<path style="fill:url(#SVGID_2_);" d="M132.8,153.522c18.605-24.861,13.533-60.097-11.328-78.702S61.375,61.287,42.77,86.148
	s-13.533,60.097,11.328,78.702c19.971,14.946,47.402,14.946,67.374,0l16.872,16.872c3.178,3.069,8.243,2.981,11.312-0.197
	c2.994-3.1,2.994-8.015,0-11.115L132.8,153.522z M88,160.05c-22.158,0.066-40.173-17.843-40.239-40s17.843-40.173,40-40.239
	s40.173,17.843,40.239,40c0.024,7.916-2.295,15.662-6.664,22.263l-19.68-19.68c-3.178-3.069-8.243-2.981-11.312,0.197
	c-2.994,3.1-2.994,8.015,0,11.115l19.68,19.68C103.5,157.73,95.838,160.048,88,160.05z"/>
<g>
</g>
<g>
</g>
<g>
</g>
<g>
</g>
<g>
</g>
<g>
</g>
<g>
</g>
<g>
</g>
<g>
</g>
<g>
</g>
<g>
</g>
<g>
</g>
<g>
</g>
<g>
</g>
<g>
</g>
</svg>
