<?xml version="1.0" encoding="iso-8859-1"?>
<!-- Generator: Adobe Illustrator 19.0.0, SVG Export Plug-In . SVG Version: 6.00 Build 0)  -->
<svg version="1.1" id="Capa_1" xmlns="http://www.w3.org/2000/svg" xmlns:xlink="http://www.w3.org/1999/xlink" x="0px" y="0px"
	 viewBox="0 0 491.259 491.259" style="enable-background:new 0 0 491.259 491.259;" xml:space="preserve">
<linearGradient id="SVGID_1_" gradientUnits="userSpaceOnUse" x1="-21.2673" y1="565.3177" x2="-21.2673" y2="623.1387" gradientTransform="matrix(8 0 0 -8 415.7679 5011.6748)">
	<stop  offset="0" style="stop-color:#006DF0"/>
	<stop  offset="1" style="stop-color:#00E7F0"/>
</linearGradient>
<path style="fill:url(#SVGID_1_);" d="M490.029,184.437c-3.114-9.96-12.39-16.699-22.824-16.584h-146.04
	c-3.466,0-6.537-2.232-7.608-5.528l-45.12-138.888c-4.085-12.61-17.618-19.521-30.228-15.436
	c-7.323,2.372-13.064,8.113-15.436,15.436l-45.12,138.888c-1.071,3.296-4.142,5.528-7.608,5.528H24.005
	C10.75,167.85,0.003,178.593,0,191.848c-0.001,7.684,3.676,14.904,9.893,19.421l118.16,85.832c2.746,1.967,3.947,5.456,2.992,8.696
	L77.821,452.933c-4.095,12.606,2.805,26.146,15.412,30.24c7.337,2.383,15.373,1.094,21.596-3.464l126.072-93.776
	c2.777-2.021,6.535-2.043,9.336-0.056l126.208,93.888c8.378,6.224,19.846,6.224,28.224,0c8.578-6.119,12.093-17.161,8.632-27.112
	l-53.048-146.64c-1.067-3.293,0.104-6.899,2.904-8.936l118.152-85.84C489.802,205.2,493.344,194.316,490.029,184.437
	L490.029,184.437z M471.901,198.325l-118.144,85.84c-8.491,6.167-11.99,17.135-8.64,27.08l53.048,146.632
	c1.369,4.201-0.927,8.716-5.128,10.085c-2.409,0.785-5.047,0.382-7.112-1.085l-126.208-93.888
	c-8.438-6.133-19.871-6.114-28.288,0.048l-126.072,93.784c-2.778,2.118-6.63,2.118-9.408,0c-2.814-1.915-4.032-5.455-2.992-8.696
	l53.216-147.136c3.234-9.889-0.291-20.734-8.72-26.832L19.309,198.325c-3.574-2.597-4.367-7.6-1.77-11.174
	c1.504-2.07,3.907-3.295,6.466-3.298h146.04c10.403,0.017,19.626-6.685,22.824-16.584l45.128-138.888
	c1.38-4.197,5.901-6.482,10.098-5.102c2.415,0.794,4.308,2.687,5.102,5.102l45.128,138.888c3.199,9.905,12.431,16.608,22.84,16.584
	h146.04c4.418-0.001,8.001,3.58,8.002,7.998c0.001,2.561-1.225,4.968-3.298,6.474L471.901,198.325z"/>
<g>
</g>
<g>
</g>
<g>
</g>
<g>
</g>
<g>
</g>
<g>
</g>
<g>
</g>
<g>
</g>
<g>
</g>
<g>
</g>
<g>
</g>
<g>
</g>
<g>
</g>
<g>
</g>
<g>
</g>
</svg>
