<?xml version="1.0" encoding="iso-8859-1"?>
<!-- Generator: Adobe Illustrator 19.0.0, SVG Export Plug-In . SVG Version: 6.00 Build 0)  -->
<svg version="1.1" id="Capa_1" xmlns="http://www.w3.org/2000/svg" xmlns:xlink="http://www.w3.org/1999/xlink" x="0px" y="0px"
	 viewBox="0 0 480 480" style="enable-background:new 0 0 480 480;" xml:space="preserve">
<g>
	
		<linearGradient id="SVGID_1_" gradientUnits="userSpaceOnUse" x1="-26.875" y1="558.625" x2="-26.875" y2="616.138" gradientTransform="matrix(8 0 0 -8 454.9998 4941)">
		<stop  offset="0" style="stop-color:#006DF0"/>
		<stop  offset="1" style="stop-color:#00E7F0"/>
	</linearGradient>
	<path style="fill:url(#SVGID_1_);" d="M456,192h-54.952c-3.301-11.061-7.763-21.742-13.312-31.864l38.96-38.96
		c9.353-9.335,9.368-24.486,0.033-33.839c-0.011-0.011-0.022-0.022-0.033-0.033l-34-34c-9.365-9.327-24.507-9.327-33.872,0
		l-38.96,38.96C309.742,86.718,299.061,82.258,288,78.96V24c0-13.255-10.745-24-24-24h-48c-13.255,0-24,10.745-24,24v54.96
		c-11.061,3.298-21.742,7.758-31.864,13.304l-38.96-38.96c-9.365-9.327-24.507-9.327-33.872,0l-34,34
		c-9.354,9.335-9.368,24.486-0.033,33.839c0.011,0.011,0.022,0.022,0.033,0.033l38.96,38.96
		C86.715,170.258,82.253,180.939,78.952,192H24c-13.255,0-24,10.745-24,24v48c0,13.255,10.745,24,24,24h54.952
		c3.301,11.061,7.763,21.742,13.312,31.864l-38.96,38.96c-9.354,9.335-9.368,24.486-0.033,33.839
		c0.011,0.011,0.022,0.022,0.033,0.033l34,34c9.365,9.327,24.507,9.327,33.872,0l38.96-38.96
		c10.122,5.547,20.803,10.007,31.864,13.304V456c0,13.255,10.745,24,24,24h48c13.255,0,24-10.745,24-24v-54.96
		c11.061-3.297,21.742-7.757,31.864-13.304l38.96,38.96c9.365,9.327,24.507,9.327,33.872,0l34-34
		c9.353-9.335,9.368-24.486,0.033-33.839c-0.011-0.011-0.022-0.022-0.033-0.033l-38.96-38.96
		c5.549-10.122,10.011-20.803,13.312-31.864H456c13.255,0,24-10.745,24-24v-48C480,202.745,469.255,192,456,192L456,192z M464,264
		c0,4.418-3.582,8-8,8h-61.04c-3.653-0.002-6.843,2.47-7.752,6.008c-3.535,13.745-9.031,26.91-16.32,39.088
		c-1.879,3.148-1.378,7.169,1.216,9.76l43.28,43.288c3.104,3.088,3.116,8.108,0.028,11.212c-0.009,0.009-0.019,0.019-0.028,0.028
		l-34,34c-3.142,3.017-8.106,3.017-11.248,0l-43.28-43.28c-2.589-2.59-6.606-3.09-9.752-1.216
		c-12.183,7.285-25.349,12.782-39.096,16.32c-3.538,0.909-6.01,4.099-6.008,7.752V456c0,4.418-3.582,8-8,8h-48c-4.418,0-8-3.582-8-8
		v-61.04c0.002-3.653-2.47-6.843-6.008-7.752c-13.747-3.538-26.913-9.035-39.096-16.32c-3.146-1.874-7.163-1.374-9.752,1.216
		l-43.28,43.28c-3.142,3.017-8.106,3.017-11.248,0l-34-34.008c-3.088-3.095-3.088-8.105,0-11.2l43.28-43.28
		c2.594-2.591,3.095-6.612,1.216-9.76c-7.289-12.178-12.785-25.343-16.32-39.088c-0.894-3.553-4.088-6.045-7.752-6.048H24
		c-4.418,0-8-3.582-8-8v-48c0-4.418,3.582-8,8-8h61.04c3.653,0.002,6.843-2.47,7.752-6.008c3.535-13.745,9.031-26.91,16.32-39.088
		c1.879-3.148,1.378-7.169-1.216-9.76l-43.28-43.288c-3.088-3.095-3.088-8.105,0-11.2l34-34c3.142-3.017,8.106-3.017,11.248,0
		l43.28,43.28c2.591,2.587,6.608,3.084,9.752,1.208c12.182-7.293,25.348-12.797,39.096-16.344c3.54-0.91,6.013-4.104,6.008-7.76V24
		c0-4.418,3.582-8,8-8h48c4.418,0,8,3.582,8,8v61.04c-0.002,3.653,2.47,6.843,6.008,7.752c13.746,3.537,26.912,9.031,39.096,16.312
		c3.144,1.876,7.161,1.379,9.752-1.208l43.28-43.28c3.142-3.017,8.106-3.017,11.248,0l34,34.008
		c3.104,3.088,3.116,8.108,0.028,11.212c-0.009,0.009-0.019,0.019-0.028,0.028l-43.28,43.28c-2.594,2.591-3.095,6.612-1.216,9.76
		c7.289,12.178,12.785,25.343,16.32,39.088c0.909,3.538,4.099,6.01,7.752,6.008H456c4.418,0,8,3.582,8,8V264z"/>
	
		<linearGradient id="SVGID_2_" gradientUnits="userSpaceOnUse" x1="-26.875" y1="558.625" x2="-26.875" y2="616.138" gradientTransform="matrix(8 0 0 -8 454.9998 4941)">
		<stop  offset="0" style="stop-color:#006DF0"/>
		<stop  offset="1" style="stop-color:#00E7F0"/>
	</linearGradient>
	<path style="fill:url(#SVGID_2_);" d="M240,160c-44.183,0-80,35.817-80,80s35.817,80,80,80s80-35.817,80-80
		C319.952,195.837,284.163,160.048,240,160z M240,304c-35.346,0-64-28.654-64-64s28.654-64,64-64s64,28.654,64,64
		C303.96,275.33,275.33,303.96,240,304z"/>
</g>
<g>
</g>
<g>
</g>
<g>
</g>
<g>
</g>
<g>
</g>
<g>
</g>
<g>
</g>
<g>
</g>
<g>
</g>
<g>
</g>
<g>
</g>
<g>
</g>
<g>
</g>
<g>
</g>
<g>
</g>
</svg>
