<?xml version="1.0" encoding="iso-8859-1"?>
<!-- Generator: Adobe Illustrator 19.0.0, SVG Export Plug-In . SVG Version: 6.00 Build 0)  -->
<svg version="1.1" id="Capa_1" xmlns="http://www.w3.org/2000/svg" xmlns:xlink="http://www.w3.org/1999/xlink" x="0px" y="0px"
	 viewBox="0 0 480.399 480.399" style="enable-background:new 0 0 480.399 480.399;" xml:space="preserve">
<linearGradient id="SVGID_1_" gradientUnits="userSpaceOnUse" x1="-26.4149" y1="558.9223" x2="-26.4149" y2="616.9313" gradientTransform="matrix(8 0 0 -8 451.519 4945.4756)">
	<stop  offset="0" style="stop-color:#006DF0"/>
	<stop  offset="1" style="stop-color:#00E7F0"/>
</linearGradient>
<path style="fill:url(#SVGID_1_);" d="M478.153,466.841L320.065,308.753c68.762-75.009,63.697-191.559-11.312-260.32
	S117.195-15.264,48.433,59.745s-63.697,191.559,11.312,260.32c70.443,64.576,178.565,64.576,249.008,0l158.088,158.088
	c3.178,3.07,8.242,2.982,11.312-0.196C481.148,474.857,481.148,469.942,478.153,466.841z M16.497,184.497
	c0-92.784,75.216-168,168-168s168,75.216,168,168s-75.216,168-168,168C91.757,352.391,16.603,277.237,16.497,184.497z"/>
<g>
</g>
<g>
</g>
<g>
</g>
<g>
</g>
<g>
</g>
<g>
</g>
<g>
</g>
<g>
</g>
<g>
</g>
<g>
</g>
<g>
</g>
<g>
</g>
<g>
</g>
<g>
</g>
<g>
</g>
</svg>
