<?xml version="1.0" encoding="iso-8859-1"?>
<!-- Generator: Adobe Illustrator 19.0.0, SVG Export Plug-In . SVG Version: 6.00 Build 0)  -->
<svg version="1.1" id="Capa_1" xmlns="http://www.w3.org/2000/svg" xmlns:xlink="http://www.w3.org/1999/xlink" x="0px" y="0px"
	 viewBox="0 0 481.248 481.248" style="enable-background:new 0 0 481.248 481.248;" xml:space="preserve">
<linearGradient id="SVGID_1_" gradientUnits="userSpaceOnUse" x1="-23.5593" y1="555.2316" x2="-23.5593" y2="614.6255" gradientTransform="matrix(8 0 0 -8 429.0981 4919.2339)">
	<stop  offset="0" style="stop-color:#006DF0"/>
	<stop  offset="1" style="stop-color:#00E7F0"/>
</linearGradient>
<path style="fill:url(#SVGID_1_);" d="M478.94,2.382c-2.48-2.483-6.288-3.061-9.392-1.424L4.316,246.502
	c-3.922,2.035-5.451,6.864-3.415,10.786c1.281,2.469,3.753,4.095,6.527,4.294l196.8,15.464L219.7,473.854
	c0.283,3.547,2.875,6.482,6.36,7.2c0.527,0.104,1.063,0.157,1.6,0.16c2.965-0.001,5.687-1.642,7.072-4.264l245.6-465.232
	C481.949,8.634,481.386,4.859,478.94,2.382L478.94,2.382z M233.516,445.086L219.7,268.958c-0.297-3.944-3.432-7.079-7.376-7.376
	L36.196,247.766L454.1,27.182L233.516,445.086z"/>
<g>
</g>
<g>
</g>
<g>
</g>
<g>
</g>
<g>
</g>
<g>
</g>
<g>
</g>
<g>
</g>
<g>
</g>
<g>
</g>
<g>
</g>
<g>
</g>
<g>
</g>
<g>
</g>
<g>
</g>
</svg>
