<?xml version="1.0" encoding="iso-8859-1"?>
<!-- Generator: Adobe Illustrator 19.0.0, SVG Export Plug-In . SVG Version: 6.00 Build 0)  -->
<svg version="1.1" id="Capa_1" xmlns="http://www.w3.org/2000/svg" xmlns:xlink="http://www.w3.org/1999/xlink" x="0px" y="0px"
	 viewBox="0 0 480 480" style="enable-background:new 0 0 480 480;" xml:space="preserve">
<linearGradient id="SVGID_1_" gradientUnits="userSpaceOnUse" x1="-26.875" y1="560.345" x2="-26.875" y2="614.0981" gradientTransform="matrix(8 0 0 -8 455 4941.0005)">
	<stop  offset="0" style="stop-color:#006DF0"/>
	<stop  offset="1" style="stop-color:#00E7F0"/>
</linearGradient>
<path style="fill:url(#SVGID_1_);" d="M440,104h-75.056L327.2,28.424c-1.362-2.725-4.153-4.441-7.2-4.424H160
	c-3.032-0.001-5.805,1.712-7.16,4.424L115.056,104H104V80c0-4.418-3.582-8-8-8H48c-4.418,0-8,3.582-8,8v24
	c-22.08,0.026-39.974,17.92-40,40v272c0.026,22.08,17.92,39.974,40,40h400c22.08-0.026,39.974-17.92,40-40V144
	C479.974,121.92,462.08,104.027,440,104z M56,88h32v16H56V88z M464,416c0,13.255-10.745,24-24,24H40c-13.255,0-24-10.745-24-24V144
	c0-13.255,10.745-24,24-24h80c3.032,0.001,5.805-1.712,7.16-4.424L164.944,40h150.112l37.784,75.576
	c1.355,2.712,4.128,4.425,7.16,4.424h80c13.255,0,24,10.745,24,24V416z"/>
<linearGradient id="SVGID_2_" gradientUnits="userSpaceOnUse" x1="-3.875" y1="560.345" x2="-3.875" y2="614.0981" gradientTransform="matrix(8 0 0 -8 455 4941.0005)">
	<stop  offset="0" style="stop-color:#006DF0"/>
	<stop  offset="1" style="stop-color:#00E7F0"/>
</linearGradient>
<path style="fill:url(#SVGID_2_);" d="M424,128c-17.673,0-32,14.327-32,32s14.327,32,32,32s32-14.327,32-32S441.673,128,424,128z
	 M424,176c-8.837,0-16-7.163-16-16s7.163-16,16-16s16,7.163,16,16S432.837,176,424,176z"/>
<g>
	
		<linearGradient id="SVGID_3_" gradientUnits="userSpaceOnUse" x1="-26.875" y1="560.345" x2="-26.875" y2="614.0981" gradientTransform="matrix(8 0 0 -8 455 4941.0005)">
		<stop  offset="0" style="stop-color:#006DF0"/>
		<stop  offset="1" style="stop-color:#00E7F0"/>
	</linearGradient>
	<path style="fill:url(#SVGID_3_);" d="M240,120c-83.947,0-152,68.053-152,152s68.053,152,152,152s152-68.053,152-152
		C391.907,188.091,323.909,120.093,240,120z M240,408c-75.111,0-136-60.889-136-136s60.889-136,136-136s136,60.889,136,136
		C375.916,347.076,315.076,407.916,240,408z"/>
	
		<linearGradient id="SVGID_4_" gradientUnits="userSpaceOnUse" x1="-26.875" y1="560.345" x2="-26.875" y2="614.0981" gradientTransform="matrix(8 0 0 -8 455 4941.0005)">
		<stop  offset="0" style="stop-color:#006DF0"/>
		<stop  offset="1" style="stop-color:#00E7F0"/>
	</linearGradient>
	<path style="fill:url(#SVGID_4_);" d="M240,168c-57.438,0-104,46.562-104,104s46.562,104,104,104s104-46.562,104-104
		C343.934,214.59,297.41,168.066,240,168z M240,360c-48.601,0-88-39.399-88-88s39.399-88,88-88s88,39.399,88,88
		C327.943,320.577,288.577,359.943,240,360z"/>
</g>
<g>
</g>
<g>
</g>
<g>
</g>
<g>
</g>
<g>
</g>
<g>
</g>
<g>
</g>
<g>
</g>
<g>
</g>
<g>
</g>
<g>
</g>
<g>
</g>
<g>
</g>
<g>
</g>
<g>
</g>
</svg>
