<?xml version="1.0" encoding="iso-8859-1"?>
<!-- Generator: Adobe Illustrator 19.0.0, SVG Export Plug-In . SVG Version: 6.00 Build 0)  -->
<svg version="1.1" id="Capa_1" xmlns="http://www.w3.org/2000/svg" xmlns:xlink="http://www.w3.org/1999/xlink" x="0px" y="0px"
	 viewBox="0 0 480 480" style="enable-background:new 0 0 480 480;" xml:space="preserve">
<linearGradient id="SVGID_1_" gradientUnits="userSpaceOnUse" x1="-26.875" y1="557.565" x2="-26.875" y2="616.926" gradientTransform="matrix(8 0 0 -8 455.0002 4941)">
	<stop  offset="0" style="stop-color:#006DF0"/>
	<stop  offset="1" style="stop-color:#00E7F0"/>
</linearGradient>
<path style="fill:url(#SVGID_1_);" d="M415.904,111.512c-0.041-0.639-0.159-1.27-0.352-1.88c-0.065-0.272-0.148-0.539-0.248-0.8
	c-0.341-0.838-0.825-1.609-1.432-2.28l-96-104c-0.682-0.72-1.497-1.301-2.4-1.712c-0.24-0.11-0.485-0.206-0.736-0.288
	c-0.729-0.271-1.495-0.433-2.272-0.48C312.312,0.088,312.168,0,312,0H72c-4.418,0-8,3.582-8,8v464c0,4.418,3.582,8,8,8h336
	c4.418,0,8-3.582,8-8V112C416,111.832,415.92,111.68,415.904,111.512L415.904,111.512z M389.728,104H320V28.464L389.728,104z
	 M80,464V16h224v96c0,4.418,3.582,8,8,8h88v344H80z"/>
<g>
	
		<linearGradient id="SVGID_2_" gradientUnits="userSpaceOnUse" x1="-22.875" y1="557.565" x2="-22.875" y2="616.926" gradientTransform="matrix(8 0 0 -8 455.0002 4941)">
		<stop  offset="0" style="stop-color:#006DF0"/>
		<stop  offset="1" style="stop-color:#00E7F0"/>
	</linearGradient>
	<path style="fill:url(#SVGID_2_);" d="M360,160H184c-4.418,0-8,3.582-8,8s3.582,8,8,8h176c4.418,0,8-3.582,8-8S364.418,160,360,160
		z"/>
	
		<linearGradient id="SVGID_3_" gradientUnits="userSpaceOnUse" x1="-22.875" y1="557.565" x2="-22.875" y2="616.926" gradientTransform="matrix(8 0 0 -8 455.0002 4941)">
		<stop  offset="0" style="stop-color:#006DF0"/>
		<stop  offset="1" style="stop-color:#00E7F0"/>
	</linearGradient>
	<path style="fill:url(#SVGID_3_);" d="M360,304H184c-4.418,0-8,3.582-8,8s3.582,8,8,8h176c4.418,0,8-3.582,8-8S364.418,304,360,304
		z"/>
	
		<linearGradient id="SVGID_4_" gradientUnits="userSpaceOnUse" x1="-22.875" y1="557.565" x2="-22.875" y2="616.926" gradientTransform="matrix(8 0 0 -8 455.0002 4941)">
		<stop  offset="0" style="stop-color:#006DF0"/>
		<stop  offset="1" style="stop-color:#00E7F0"/>
	</linearGradient>
	<path style="fill:url(#SVGID_4_);" d="M360,376H184c-4.418,0-8,3.582-8,8s3.582,8,8,8h176c4.418,0,8-3.582,8-8S364.418,376,360,376
		z"/>
</g>
<g>
	
		<linearGradient id="SVGID_5_" gradientUnits="userSpaceOnUse" x1="-37.8627" y1="557.565" x2="-37.8627" y2="616.926" gradientTransform="matrix(8 0 0 -8 455.0002 4941)">
		<stop  offset="0" style="stop-color:#006DF0"/>
		<stop  offset="1" style="stop-color:#00E7F0"/>
	</linearGradient>
	<path style="fill:url(#SVGID_5_);" d="M135.032,183.6c3.124,3.123,8.188,3.123,11.312,0l45.248-45.256
		c3.178-3.069,3.266-8.134,0.197-11.312c-3.069-3.178-8.134-3.266-11.312-0.197c-0.067,0.064-0.132,0.13-0.197,0.197l-39.592,39.6
		l-16.968-16.976c-3.178-3.069-8.243-2.981-11.312,0.197c-2.994,3.1-2.994,8.015,0,11.115L135.032,183.6z"/>
	
		<linearGradient id="SVGID_6_" gradientUnits="userSpaceOnUse" x1="-22.875" y1="557.565" x2="-22.875" y2="616.926" gradientTransform="matrix(8 0 0 -8 455.0002 4941)">
		<stop  offset="0" style="stop-color:#006DF0"/>
		<stop  offset="1" style="stop-color:#00E7F0"/>
	</linearGradient>
	<path style="fill:url(#SVGID_6_);" d="M360,232H184c-4.418,0-8,3.582-8,8s3.582,8,8,8h176c4.418,0,8-3.582,8-8S364.418,232,360,232
		z"/>
	
		<linearGradient id="SVGID_7_" gradientUnits="userSpaceOnUse" x1="-37.8627" y1="557.565" x2="-37.8627" y2="616.926" gradientTransform="matrix(8 0 0 -8 455.0002 4941)">
		<stop  offset="0" style="stop-color:#006DF0"/>
		<stop  offset="1" style="stop-color:#00E7F0"/>
	</linearGradient>
	<path style="fill:url(#SVGID_7_);" d="M135.032,255.6c3.124,3.123,8.188,3.123,11.312,0l45.248-45.256
		c3.178-3.069,3.266-8.134,0.197-11.312c-3.069-3.178-8.134-3.266-11.312-0.197c-0.067,0.064-0.132,0.13-0.197,0.197l-39.592,39.6
		l-16.968-16.976c-3.178-3.069-8.243-2.981-11.312,0.197c-2.994,3.1-2.994,8.015,0,11.115L135.032,255.6z"/>
	
		<linearGradient id="SVGID_8_" gradientUnits="userSpaceOnUse" x1="-37.875" y1="557.565" x2="-37.875" y2="616.926" gradientTransform="matrix(8 0 0 -8 455.0002 4941)">
		<stop  offset="0" style="stop-color:#006DF0"/>
		<stop  offset="1" style="stop-color:#00E7F0"/>
	</linearGradient>
	<path style="fill:url(#SVGID_8_);" d="M135.032,327.6c3.124,3.123,8.188,3.123,11.312,0l45.248-45.256
		c3.07-3.178,2.982-8.242-0.196-11.312c-3.1-2.994-8.015-2.994-11.116,0l-39.592,39.6l-16.968-16.976
		c-3.178-3.069-8.243-2.982-11.312,0.196c-2.994,3.1-2.994,8.015,0,11.116L135.032,327.6z"/>
	
		<linearGradient id="SVGID_9_" gradientUnits="userSpaceOnUse" x1="-37.869" y1="557.565" x2="-37.869" y2="616.926" gradientTransform="matrix(8 0 0 -8 455.0002 4941)">
		<stop  offset="0" style="stop-color:#006DF0"/>
		<stop  offset="1" style="stop-color:#00E7F0"/>
	</linearGradient>
	<path style="fill:url(#SVGID_9_);" d="M191.592,343.032c-3.124-3.123-8.188-3.123-11.312,0l-39.592,39.6l-16.968-16.976
		c-3.178-3.069-8.243-2.982-11.312,0.196c-2.994,3.1-2.994,8.015,0,11.116l22.624,22.632c3.124,3.123,8.188,3.123,11.312,0
		l45.248-45.256C194.715,351.22,194.715,346.156,191.592,343.032L191.592,343.032z"/>
</g>
<g>
</g>
<g>
</g>
<g>
</g>
<g>
</g>
<g>
</g>
<g>
</g>
<g>
</g>
<g>
</g>
<g>
</g>
<g>
</g>
<g>
</g>
<g>
</g>
<g>
</g>
<g>
</g>
<g>
</g>
</svg>
