<?xml version="1.0" encoding="iso-8859-1"?>
<!-- Generator: Adobe Illustrator 19.0.0, SVG Export Plug-In . SVG Version: 6.00 Build 0)  -->
<svg version="1.1" id="Capa_1" xmlns="http://www.w3.org/2000/svg" xmlns:xlink="http://www.w3.org/1999/xlink" x="0px" y="0px"
	 viewBox="0 0 480 480" style="enable-background:new 0 0 480 480;" xml:space="preserve">
<linearGradient id="SVGID_1_" gradientUnits="userSpaceOnUse" x1="-26.8725" y1="557.175" x2="-26.8725" y2="617.63" gradientTransform="matrix(8 0 0 -8 455 4941)">
	<stop  offset="0" style="stop-color:#006DF0"/>
	<stop  offset="1" style="stop-color:#00E7F0"/>
</linearGradient>
<path style="fill:url(#SVGID_1_);" d="M240,80c-83.947,0.006-151.995,68.063-151.989,152.011
	c0.004,62.323,38.052,118.328,95.989,141.293V440c0,4.418,3.582,8,8,8h8v24c0,4.418,3.582,8,8,8h64c4.418,0,8-3.582,8-8v-24h8
	c4.418,0,8-3.582,8-8v-66.696c78.04-30.934,116.227-119.275,85.293-197.315C358.328,118.052,302.323,80.004,240,80L240,80z M272,432
	c-4.418,0-8,3.582-8,8v24h-48v-24c0-4.418-3.582-8-8-8h-8v-32h80v32H272z M285.336,360.208c-3.201,1.13-5.34,4.158-5.336,7.552V384
	h-80v-16.24c0.004-3.394-2.135-6.422-5.336-7.552c-70.815-25.038-107.923-102.743-82.885-173.557s102.743-107.923,173.557-82.885
	s107.923,102.743,82.885,173.557C354.528,316.051,324.064,346.515,285.336,360.208z"/>
<linearGradient id="SVGID_2_" gradientUnits="userSpaceOnUse" x1="-20.875" y1="557.175" x2="-20.875" y2="617.63" gradientTransform="matrix(8 0 0 -8 455 4941)">
	<stop  offset="0" style="stop-color:#006DF0"/>
	<stop  offset="1" style="stop-color:#00E7F0"/>
</linearGradient>
<path style="fill:url(#SVGID_2_);" d="M240,128c-4.418,0-8,3.582-8,8s3.582,8,8,8c48.577,0.057,87.943,39.423,88,88
	c0,4.418,3.582,8,8,8s8-3.582,8-8C343.934,174.59,297.41,128.066,240,128z"/>
<linearGradient id="SVGID_3_" gradientUnits="userSpaceOnUse" x1="-26.875" y1="557.175" x2="-26.875" y2="617.63" gradientTransform="matrix(8 0 0 -8 455 4941)">
	<stop  offset="0" style="stop-color:#006DF0"/>
	<stop  offset="1" style="stop-color:#00E7F0"/>
</linearGradient>
<path style="fill:url(#SVGID_3_);" d="M240,64c4.418,0,8-3.582,8-8V8c0-4.418-3.582-8-8-8s-8,3.582-8,8v48
	C232,60.418,235.582,64,240,64z"/>
<g>
	
		<linearGradient id="SVGID_4_" gradientUnits="userSpaceOnUse" x1="-44.5525" y1="557.175" x2="-44.5525" y2="617.63" gradientTransform="matrix(8 0 0 -8 455 4941)">
		<stop  offset="0" style="stop-color:#006DF0"/>
		<stop  offset="1" style="stop-color:#00E7F0"/>
	</linearGradient>
	<path style="fill:url(#SVGID_4_);" d="M109.896,113.2c3.178,3.069,8.243,2.981,11.312-0.197c2.994-3.1,2.994-8.015,0-11.115
		L87.264,67.952c-3.178-3.069-8.243-2.981-11.312,0.197c-2.994,3.1-2.994,8.015,0,11.115L109.896,113.2z"/>
	
		<linearGradient id="SVGID_5_" gradientUnits="userSpaceOnUse" x1="-51.875" y1="557.175" x2="-51.875" y2="617.63" gradientTransform="matrix(8 0 0 -8 455 4941)">
		<stop  offset="0" style="stop-color:#006DF0"/>
		<stop  offset="1" style="stop-color:#00E7F0"/>
	</linearGradient>
	<path style="fill:url(#SVGID_5_);" d="M64,224H16c-4.418,0-8,3.582-8,8s3.582,8,8,8h48c4.418,0,8-3.582,8-8S68.418,224,64,224z"/>
	
		<linearGradient id="SVGID_6_" gradientUnits="userSpaceOnUse" x1="-44.5648" y1="557.175" x2="-44.5648" y2="617.63" gradientTransform="matrix(8 0 0 -8 455 4941)">
		<stop  offset="0" style="stop-color:#006DF0"/>
		<stop  offset="1" style="stop-color:#00E7F0"/>
	</linearGradient>
	<path style="fill:url(#SVGID_6_);" d="M109.896,350.8l-33.944,33.936c-3.178,3.07-3.266,8.134-0.196,11.312
		s8.134,3.266,11.312,0.196c0.067-0.064,0.132-0.13,0.196-0.196l33.944-33.936c3.07-3.178,2.982-8.242-0.196-11.312
		C117.911,347.806,112.996,347.806,109.896,350.8z"/>
	
		<linearGradient id="SVGID_7_" gradientUnits="userSpaceOnUse" x1="-9.1975" y1="557.175" x2="-9.1975" y2="617.63" gradientTransform="matrix(8 0 0 -8 455 4941)">
		<stop  offset="0" style="stop-color:#006DF0"/>
		<stop  offset="1" style="stop-color:#00E7F0"/>
	</linearGradient>
	<path style="fill:url(#SVGID_7_);" d="M370.104,350.8c-3.178-3.07-8.242-2.982-11.312,0.196c-2.995,3.1-2.995,8.016,0,11.116
		l33.944,33.936c3.178,3.07,8.242,2.982,11.312-0.196c2.995-3.1,2.995-8.016,0-11.116L370.104,350.8z"/>
	
		<linearGradient id="SVGID_8_" gradientUnits="userSpaceOnUse" x1="-1.875" y1="557.175" x2="-1.875" y2="617.63" gradientTransform="matrix(8 0 0 -8 455 4941)">
		<stop  offset="0" style="stop-color:#006DF0"/>
		<stop  offset="1" style="stop-color:#00E7F0"/>
	</linearGradient>
	<path style="fill:url(#SVGID_8_);" d="M464,224h-48c-4.418,0-8,3.582-8,8s3.582,8,8,8h48c4.418,0,8-3.582,8-8S468.418,224,464,224z
		"/>
	
		<linearGradient id="SVGID_9_" gradientUnits="userSpaceOnUse" x1="-9.2098" y1="557.175" x2="-9.2098" y2="617.63" gradientTransform="matrix(8 0 0 -8 455 4941)">
		<stop  offset="0" style="stop-color:#006DF0"/>
		<stop  offset="1" style="stop-color:#00E7F0"/>
	</linearGradient>
	<path style="fill:url(#SVGID_9_);" d="M392.736,67.952l-33.944,33.936c-3.178,3.069-3.266,8.134-0.196,11.312
		c3.07,3.178,8.134,3.266,11.312,0.196c0.067-0.064,0.132-0.13,0.196-0.196l33.944-33.936c3.069-3.178,2.982-8.243-0.196-11.312
		C400.751,64.958,395.836,64.958,392.736,67.952z"/>
</g>
<g>
</g>
<g>
</g>
<g>
</g>
<g>
</g>
<g>
</g>
<g>
</g>
<g>
</g>
<g>
</g>
<g>
</g>
<g>
</g>
<g>
</g>
<g>
</g>
<g>
</g>
<g>
</g>
<g>
</g>
</svg>
