<?xml version="1.0" encoding="iso-8859-1"?>
<!-- Generator: Adobe Illustrator 19.0.0, SVG Export Plug-In . SVG Version: 6.00 Build 0)  -->
<svg version="1.1" id="Capa_1" xmlns="http://www.w3.org/2000/svg" xmlns:xlink="http://www.w3.org/1999/xlink" x="0px" y="0px"
	 viewBox="0 0 480 480" style="enable-background:new 0 0 480 480;" xml:space="preserve">
<linearGradient id="SVGID_1_" gradientUnits="userSpaceOnUse" x1="-44.375" y1="557.545" x2="-44.375" y2="618.525" gradientTransform="matrix(8 0 0 -8 594.9999 4941)">
	<stop  offset="0" style="stop-color:#006DF0"/>
	<stop  offset="1" style="stop-color:#00E7F0"/>
</linearGradient>
<path style="fill:url(#SVGID_1_);" d="M452,48c-23.382,0.601-46.543-4.654-67.376-15.288C361.728,21.122,336.319,15.38,310.664,16
	c-25.658-0.621-51.07,5.121-73.968,16.712C215.863,43.346,192.702,48.601,169.32,48c-23.375,0.607-46.53-4.649-67.352-15.288
	C81.471,22.4,58.939,16.771,36,16.232V8c0-4.418-3.582-8-8-8s-8,3.582-8,8v464c0,4.418,3.582,8,8,8s8-3.582,8-8V320.224
	c20.661,0.56,40.939,5.705,59.368,15.064c22.893,11.591,48.3,17.332,73.952,16.712c25.658,0.621,51.07-5.121,73.968-16.712
	c20.833-10.634,43.994-15.889,67.376-15.288c23.38-0.604,46.539,4.651,67.368,15.288C400.93,346.879,426.342,352.621,452,352
	c4.418,0,8-3.582,8-8V56C460,51.582,456.418,48,452,48z M310.664,304c-25.658-0.621-51.07,5.121-73.968,16.712
	c-20.833,10.634-43.994,15.889-67.376,15.288c-23.375,0.607-46.53-4.649-67.352-15.288C81.471,310.4,58.939,304.771,36,304.232v-272
	c20.661,0.56,40.939,5.705,59.368,15.064c22.894,11.588,48.3,17.327,73.952,16.704c25.658,0.621,51.07-5.121,73.968-16.712
	C264.121,36.654,287.282,31.399,310.664,32c23.38-0.604,46.539,4.651,67.368,15.288C398.529,57.601,421.061,63.23,444,63.768v272
	c-20.664-0.56-40.945-5.705-59.376-15.064C361.727,309.116,336.318,303.378,310.664,304z"/>
<g>
</g>
<g>
</g>
<g>
</g>
<g>
</g>
<g>
</g>
<g>
</g>
<g>
</g>
<g>
</g>
<g>
</g>
<g>
</g>
<g>
</g>
<g>
</g>
<g>
</g>
<g>
</g>
<g>
</g>
</svg>
