<?xml version="1.0" encoding="iso-8859-1"?>
<!-- Generator: Adobe Illustrator 19.0.0, SVG Export Plug-In . SVG Version: 6.00 Build 0)  -->
<svg version="1.1" id="Capa_1" xmlns="http://www.w3.org/2000/svg" xmlns:xlink="http://www.w3.org/1999/xlink" x="0px" y="0px"
	 viewBox="0 0 480 480" style="enable-background:new 0 0 480 480;" xml:space="preserve">
<linearGradient id="SVGID_1_" gradientUnits="userSpaceOnUse" x1="-26.875" y1="557.085" x2="-26.875" y2="620.92" gradientTransform="matrix(8 0 0 -8 454.9998 4941)">
	<stop  offset="0" style="stop-color:#006DF0"/>
	<stop  offset="1" style="stop-color:#00E7F0"/>
</linearGradient>
<path style="fill:url(#SVGID_1_);" d="M431.904,135.52c-0.047-0.726-0.192-1.442-0.432-2.128c-0.075-0.255-0.163-0.506-0.264-0.752
	c-0.376-0.837-0.893-1.603-1.528-2.264L384,84.688V8c0-4.418-3.582-8-8-8H56c-4.418,0-8,3.582-8,8v432c0,4.418,3.582,8,8,8h40v24
	c0,4.418,3.582,8,8,8h320c4.418,0,8-3.582,8-8V136C432,135.832,431.912,135.688,431.904,135.52L431.904,135.52z M336,59.312
	L404.688,128H336V59.312z M64,432V16h304v52.688l-34.336-34.336c-0.673-0.646-1.452-1.171-2.304-1.552
	c-0.096,0-0.176-0.128-0.28-0.168s-0.352-0.056-0.52-0.112c-0.66-0.231-1.35-0.368-2.048-0.408C328.336,32.088,328.176,32,328,32
	H104c-4.418,0-8,3.582-8,8v392H64z M416,464H112V48h208v88c0,4.418,3.582,8,8,8h88V464z"/>
<g>
	
		<linearGradient id="SVGID_2_" gradientUnits="userSpaceOnUse" x1="-29.875" y1="557.085" x2="-29.875" y2="620.92" gradientTransform="matrix(8 0 0 -8 454.9998 4941)">
		<stop  offset="0" style="stop-color:#006DF0"/>
		<stop  offset="1" style="stop-color:#00E7F0"/>
	</linearGradient>
	<path style="fill:url(#SVGID_2_);" d="M152,120h128c4.418,0,8-3.582,8-8c0-4.418-3.582-8-8-8H152c-4.418,0-8,3.582-8,8
		C144,116.418,147.582,120,152,120z"/>
	
		<linearGradient id="SVGID_3_" gradientUnits="userSpaceOnUse" x1="-23.875" y1="557.085" x2="-23.875" y2="620.92" gradientTransform="matrix(8 0 0 -8 454.9998 4941)">
		<stop  offset="0" style="stop-color:#006DF0"/>
		<stop  offset="1" style="stop-color:#00E7F0"/>
	</linearGradient>
	<path style="fill:url(#SVGID_3_);" d="M144,184c0,4.418,3.582,8,8,8h224c4.418,0,8-3.582,8-8s-3.582-8-8-8H152
		C147.582,176,144,179.582,144,184z"/>
	
		<linearGradient id="SVGID_4_" gradientUnits="userSpaceOnUse" x1="-23.875" y1="557.085" x2="-23.875" y2="620.92" gradientTransform="matrix(8 0 0 -8 454.9998 4941)">
		<stop  offset="0" style="stop-color:#006DF0"/>
		<stop  offset="1" style="stop-color:#00E7F0"/>
	</linearGradient>
	<path style="fill:url(#SVGID_4_);" d="M376,248H152c-4.418,0-8,3.582-8,8s3.582,8,8,8h224c4.418,0,8-3.582,8-8S380.418,248,376,248
		z"/>
	
		<linearGradient id="SVGID_5_" gradientUnits="userSpaceOnUse" x1="-23.875" y1="557.085" x2="-23.875" y2="620.92" gradientTransform="matrix(8 0 0 -8 454.9998 4941)">
		<stop  offset="0" style="stop-color:#006DF0"/>
		<stop  offset="1" style="stop-color:#00E7F0"/>
	</linearGradient>
	<path style="fill:url(#SVGID_5_);" d="M376,320H152c-4.418,0-8,3.582-8,8s3.582,8,8,8h224c4.418,0,8-3.582,8-8S380.418,320,376,320
		z"/>
	
		<linearGradient id="SVGID_6_" gradientUnits="userSpaceOnUse" x1="-23.875" y1="557.085" x2="-23.875" y2="620.92" gradientTransform="matrix(8 0 0 -8 454.9998 4941)">
		<stop  offset="0" style="stop-color:#006DF0"/>
		<stop  offset="1" style="stop-color:#00E7F0"/>
	</linearGradient>
	<path style="fill:url(#SVGID_6_);" d="M376,392H152c-4.418,0-8,3.582-8,8s3.582,8,8,8h224c4.418,0,8-3.582,8-8S380.418,392,376,392
		z"/>
</g>
<g>
</g>
<g>
</g>
<g>
</g>
<g>
</g>
<g>
</g>
<g>
</g>
<g>
</g>
<g>
</g>
<g>
</g>
<g>
</g>
<g>
</g>
<g>
</g>
<g>
</g>
<g>
</g>
<g>
</g>
</svg>
