<?xml version="1.0" encoding="iso-8859-1"?>
<!-- Generator: Adobe Illustrator 19.0.0, SVG Export Plug-In . SVG Version: 6.00 Build 0)  -->
<svg version="1.1" id="Capa_1" xmlns="http://www.w3.org/2000/svg" xmlns:xlink="http://www.w3.org/1999/xlink" x="0px" y="0px"
	 viewBox="0 0 480 480" style="enable-background:new 0 0 480 480;" xml:space="preserve">
<linearGradient id="SVGID_1_" gradientUnits="userSpaceOnUse" x1="-26.875" y1="556.115" x2="-26.875" y2="623.716" gradientTransform="matrix(8 0 0 -8 455 4941)">
	<stop  offset="0" style="stop-color:#006DF0"/>
	<stop  offset="1" style="stop-color:#00E7F0"/>
</linearGradient>
<path style="fill:url(#SVGID_1_);" d="M415.912,111.52c-0.043-0.649-0.164-1.291-0.36-1.912c-0.08-0.248-0.136-0.504-0.24-0.744
	c-0.344-0.838-0.829-1.612-1.432-2.288l-96-104c-0.686-0.717-1.5-1.301-2.4-1.72c-0.24-0.112-0.472-0.192-0.72-0.28
	c-0.741-0.28-1.521-0.442-2.312-0.48C312.3,0.056,312.151,0.024,312,0H72c-4.418,0-8,3.582-8,8v464c0,4.418,3.582,8,8,8h336
	c4.418,0,8-3.582,8-8V112C416,111.832,415.92,111.68,415.912,111.52z M389.728,104H320V28.464L389.728,104z M80,464V16h224v96
	c0,4.418,3.582,8,8,8h88v344H80z"/>
<linearGradient id="SVGID_2_" gradientUnits="userSpaceOnUse" x1="-32.875" y1="556.115" x2="-32.875" y2="623.716" gradientTransform="matrix(8 0 0 -8 455 4941)">
	<stop  offset="0" style="stop-color:#006DF0"/>
	<stop  offset="1" style="stop-color:#00E7F0"/>
</linearGradient>
<path style="fill:url(#SVGID_2_);" d="M128,104h128c4.418,0,8-3.582,8-8s-3.582-8-8-8H128c-4.418,0-8,3.582-8,8S123.582,104,128,104
	z"/>
<g>
	
		<linearGradient id="SVGID_3_" gradientUnits="userSpaceOnUse" x1="-26.875" y1="556.115" x2="-26.875" y2="623.716" gradientTransform="matrix(8 0 0 -8 455 4941)">
		<stop  offset="0" style="stop-color:#006DF0"/>
		<stop  offset="1" style="stop-color:#00E7F0"/>
	</linearGradient>
	<path style="fill:url(#SVGID_3_);" d="M352,160H128c-4.418,0-8,3.582-8,8s3.582,8,8,8h224c4.418,0,8-3.582,8-8S356.418,160,352,160
		z"/>
	
		<linearGradient id="SVGID_4_" gradientUnits="userSpaceOnUse" x1="-26.875" y1="556.115" x2="-26.875" y2="623.716" gradientTransform="matrix(8 0 0 -8 455 4941)">
		<stop  offset="0" style="stop-color:#006DF0"/>
		<stop  offset="1" style="stop-color:#00E7F0"/>
	</linearGradient>
	<path style="fill:url(#SVGID_4_);" d="M352,232H128c-4.418,0-8,3.582-8,8s3.582,8,8,8h224c4.418,0,8-3.582,8-8S356.418,232,352,232
		z"/>
	
		<linearGradient id="SVGID_5_" gradientUnits="userSpaceOnUse" x1="-26.875" y1="556.115" x2="-26.875" y2="623.716" gradientTransform="matrix(8 0 0 -8 455 4941)">
		<stop  offset="0" style="stop-color:#006DF0"/>
		<stop  offset="1" style="stop-color:#00E7F0"/>
	</linearGradient>
	<path style="fill:url(#SVGID_5_);" d="M352,304H128c-4.418,0-8,3.582-8,8s3.582,8,8,8h224c4.418,0,8-3.582,8-8S356.418,304,352,304
		z"/>
	
		<linearGradient id="SVGID_6_" gradientUnits="userSpaceOnUse" x1="-26.875" y1="556.115" x2="-26.875" y2="623.716" gradientTransform="matrix(8 0 0 -8 455 4941)">
		<stop  offset="0" style="stop-color:#006DF0"/>
		<stop  offset="1" style="stop-color:#00E7F0"/>
	</linearGradient>
	<path style="fill:url(#SVGID_6_);" d="M352,376H128c-4.418,0-8,3.582-8,8s3.582,8,8,8h224c4.418,0,8-3.582,8-8S356.418,376,352,376
		z"/>
</g>
<g>
</g>
<g>
</g>
<g>
</g>
<g>
</g>
<g>
</g>
<g>
</g>
<g>
</g>
<g>
</g>
<g>
</g>
<g>
</g>
<g>
</g>
<g>
</g>
<g>
</g>
<g>
</g>
<g>
</g>
</svg>
