<?xml version="1.0" encoding="iso-8859-1"?>
<!-- Generator: Adobe Illustrator 19.0.0, SVG Export Plug-In . SVG Version: 6.00 Build 0)  -->
<svg version="1.1" id="Capa_1" xmlns="http://www.w3.org/2000/svg" xmlns:xlink="http://www.w3.org/1999/xlink" x="0px" y="0px"
	 viewBox="0 0 369.449 369.449" style="enable-background:new 0 0 369.449 369.449;" xml:space="preserve">
<linearGradient id="SVGID_1_" gradientUnits="userSpaceOnUse" x1="-93.2389" y1="521.1239" x2="-93.2389" y2="569.4549" gradientTransform="matrix(8 0 0 -8 930.6354 4557.5903)">
	<stop  offset="0" style="stop-color:#006DF0"/>
	<stop  offset="1" style="stop-color:#00E7F0"/>
</linearGradient>
<path style="fill:url(#SVGID_1_);" d="M353.068,38.999l-22.616-22.616c-21.883-21.841-57.317-21.841-79.2,0L30.628,236.999
	c-0.16,0.193-0.307,0.396-0.44,0.608c-0.196,0.229-0.376,0.472-0.536,0.728c-0.411,0.629-0.728,1.313-0.944,2.032
	c-0.048,0.152-0.16,0.272-0.2,0.432L0.22,359.591c-1.025,4.298,1.628,8.613,5.926,9.638c0.609,0.145,1.232,0.218,1.858,0.218
	c0.625-0.001,1.248-0.073,1.856-0.216l118.792-28.288c0.2-0.048,0.352-0.184,0.544-0.248c0.507-0.175,0.994-0.4,1.456-0.672
	c0.466-0.246,0.905-0.538,1.312-0.872c0.152-0.136,0.344-0.184,0.488-0.328l220.616-220.624
	C374.909,96.316,374.909,60.882,353.068,38.999L353.068,38.999z M324.788,123.863l-79.2-79.2l5.664-5.664l79.2,79.2L324.788,123.863
	z M307.82,140.831l-79.2-79.2l5.656-5.656l79.2,79.2L307.82,140.831z M75.86,248.343l-2.304,39.096
	c-0.259,4.411,3.106,8.197,7.516,8.456c0.313,0.018,0.627,0.018,0.94,0l39.096-2.304l-1.944,33.168l-85.512,20.36l8.296-8.296
	c3.07-3.178,2.982-8.242-0.196-11.312c-3.1-2.994-8.015-2.994-11.116,0l-8.304,8.288l20.36-85.52L75.86,248.343z M137.46,288.583
	L256.9,169.111c3.178-3.07,3.266-8.134,0.196-11.312c-3.07-3.178-8.134-3.266-11.312-0.196c-0.067,0.064-0.132,0.13-0.196,0.196
	L126.116,277.271l-36.056,2.12l2.12-36.056l119.472-119.472c3.069-3.178,2.982-8.243-0.196-11.312c-3.1-2.994-8.015-2.994-11.116,0
	L80.852,232.015l-24,1.384L217.308,72.943l79.2,79.2L136.052,312.599L137.46,288.583z M341.78,106.895l-79.2-79.2
	c15.633-15.599,40.943-15.599,56.576,0l22.624,22.624c15.593,15.639,15.582,40.95-0.024,56.576H341.78z"/>
<g>
</g>
<g>
</g>
<g>
</g>
<g>
</g>
<g>
</g>
<g>
</g>
<g>
</g>
<g>
</g>
<g>
</g>
<g>
</g>
<g>
</g>
<g>
</g>
<g>
</g>
<g>
</g>
<g>
</g>
</svg>
