<?xml version="1.0" encoding="iso-8859-1"?>
<!-- Generator: Adobe Illustrator 19.0.0, SVG Export Plug-In . SVG Version: 6.00 Build 0)  -->
<svg version="1.1" id="Capa_1" xmlns="http://www.w3.org/2000/svg" xmlns:xlink="http://www.w3.org/1999/xlink" x="0px" y="0px"
	 viewBox="0 0 479.925 479.925" style="enable-background:new 0 0 479.925 479.925;" xml:space="preserve">
<linearGradient id="SVGID_1_" gradientUnits="userSpaceOnUse" x1="-26.946" y1="591.416" x2="-26.946" y2="630.222" gradientTransform="matrix(8 0 0 -8 455.5307 5121.0088)">
	<stop  offset="0" style="stop-color:#006DF0"/>
	<stop  offset="1" style="stop-color:#00E7F0"/>
</linearGradient>
<path style="fill:url(#SVGID_1_);" d="M423.924,237.801c0-0.6,0-1.2,0-1.8c0.042-75.111-60.813-136.034-135.923-136.077
	c-45.695-0.026-88.348,22.898-113.541,61.021c-50.345-16.807-104.783,10.381-121.591,60.726c-3.265,9.779-4.934,20.02-4.945,30.33
	v2.056c-34.211,8.887-54.74,43.825-45.853,78.035c7.32,28.179,32.738,47.867,61.853,47.909h344
	c39.764,0.001,72.001-32.234,72.001-71.999C479.926,274.401,456.685,245.267,423.924,237.801z M407.924,364.001h-344
	c-26.509-0.187-47.847-21.828-47.66-48.337c0.167-23.725,17.643-43.769,41.124-47.167c4.232-0.569,7.271-4.362,6.904-8.616
	c-0.216-2.576-0.368-5.224-0.368-7.88c0.043-44.227,35.932-80.045,80.159-80.001c10.505,0.01,20.906,2.088,30.609,6.113
	c3.673,1.526,7.91,0.122,9.944-3.296c33.737-57.044,107.33-75.939,164.375-42.201c36.544,21.613,58.948,60.928,58.913,103.385
	c0,2.648-0.064,5.216-0.288,7.792c-0.371,4.301,2.737,8.121,7.024,8.632c30.694,3.798,52.497,31.759,48.7,62.453
	C459.895,342.879,436.139,363.93,407.924,364.001z"/>
<g>
</g>
<g>
</g>
<g>
</g>
<g>
</g>
<g>
</g>
<g>
</g>
<g>
</g>
<g>
</g>
<g>
</g>
<g>
</g>
<g>
</g>
<g>
</g>
<g>
</g>
<g>
</g>
<g>
</g>
</svg>
