<?xml version="1.0" encoding="iso-8859-1"?>
<!-- Generator: Adobe Illustrator 19.0.0, SVG Export Plug-In . SVG Version: 6.00 Build 0)  -->
<svg version="1.1" id="Capa_1" xmlns="http://www.w3.org/2000/svg" xmlns:xlink="http://www.w3.org/1999/xlink" x="0px" y="0px"
	 viewBox="0 0 480 480" style="enable-background:new 0 0 480 480;" xml:space="preserve">
<linearGradient id="SVGID_1_" gradientUnits="userSpaceOnUse" x1="-53.9984" y1="558.9617" x2="-53.9984" y2="616.5717" gradientTransform="matrix(8 0 0 -8 455.0017 4940.7002)">
	<stop  offset="0" style="stop-color:#006DF0"/>
	<stop  offset="1" style="stop-color:#00E7F0"/>
</linearGradient>
<path style="fill:url(#SVGID_1_);" d="M41.944,119.007c-3.844-2.178-8.726-0.828-10.904,3.016
	c-41.386,73.183-41.386,162.705,0,235.888c2.151,3.859,7.023,5.245,10.882,3.094c3.859-2.151,5.245-7.023,3.094-10.882
	c-0.019-0.033-0.037-0.067-0.056-0.1c-38.614-68.29-38.614-151.822,0-220.112C47.138,126.067,45.788,121.185,41.944,119.007z"/>
<g>
	
		<linearGradient id="SVGID_2_" gradientUnits="userSpaceOnUse" x1="-26.8754" y1="558.9617" x2="-26.8754" y2="616.5717" gradientTransform="matrix(8 0 0 -8 455.0017 4940.7002)">
		<stop  offset="0" style="stop-color:#006DF0"/>
		<stop  offset="1" style="stop-color:#00E7F0"/>
	</linearGradient>
	<path style="fill:url(#SVGID_2_);" d="M392.432,361.799c-1.12-2.496-2.224-4.944-3.256-7.608
		c-8.728-21.741-13.201-44.956-13.176-68.384v-117.84c0.012-33.412-12.27-65.66-34.504-90.6c-0.188-0.214-0.388-0.417-0.6-0.608
		c-1.488-1.752-3.056-3.384-4.696-5.024c-15.788-15.672-35.145-27.277-56.408-33.816c-1.08-21.977-19.771-38.917-41.747-37.837
		c-20.466,1.006-36.831,17.371-37.837,37.837c-23.756,7.244-45.065,20.877-61.6,39.408C116.32,102.258,104,134.526,104,167.967
		v117.84c0.022,23.462-4.465,46.711-13.216,68.48c-0.992,2.568-2.096,5.016-3.2,7.512l-30.848,66.816
		c-1.851,4.012-0.1,8.765,3.912,10.616c1.051,0.485,2.195,0.736,3.352,0.736h128.72c4.392,26.112,29.12,43.72,55.232,39.328
		c20.151-3.389,35.939-19.177,39.328-39.328H416c4.418,0,8-3.582,8-8c0-1.157-0.251-2.301-0.736-3.352L392.432,361.799z M240,15.967
		c10.916,0.012,20.449,7.388,23.2,17.952c-0.672-0.112-1.36-0.152-2.032-0.256c-2.48-0.384-4.968-0.699-7.464-0.944
		c-1.168-0.12-2.32-0.24-3.488-0.32c-3.016-0.224-6.04-0.36-9.072-0.384c-0.344,0-0.752-0.048-1.144-0.048s-0.8,0.048-1.2,0.048
		c-3.008,0.032-6.013,0.16-9.016,0.384c-1.184,0.08-2.36,0.208-3.544,0.32c-2.464,0.245-4.92,0.557-7.368,0.936
		c-0.696,0.104-1.408,0.144-2.096,0.264C219.529,23.346,229.075,15.967,240,15.967z M240,463.967
		c-14.587-0.014-27.324-9.88-30.984-24h61.968C267.323,454.087,254.587,463.953,240,463.967z M76.504,423.967l25.12-54.4
		l0.544-1.208c1.232-2.744,2.4-5.464,3.496-8.2c9.501-23.636,14.368-48.878,14.336-74.352v-117.84
		c0.007-29.525,10.906-58.01,30.608-80c15.805-17.77,36.555-30.416,59.592-36.32c14.654-3.66,29.856-4.593,44.848-2.752
		c4.97,0.61,9.897,1.53,14.752,2.752c20.817,5.412,39.825,16.253,55.08,31.416c1.496,1.488,2.928,2.984,4.8,5.2
		c0.131,0.136,0.27,0.264,0.416,0.384c19.276,21.928,29.906,50.125,29.904,79.32v117.84c-0.032,25.436,4.821,50.642,14.296,74.248
		c1.096,2.824,2.304,5.544,3.536,8.288l25.664,55.624H76.504z"/>
	
		<linearGradient id="SVGID_3_" gradientUnits="userSpaceOnUse" x1="-48.7763" y1="558.9617" x2="-48.7763" y2="616.5717" gradientTransform="matrix(8 0 0 -8 455.0017 4940.7002)">
		<stop  offset="0" style="stop-color:#006DF0"/>
		<stop  offset="1" style="stop-color:#00E7F0"/>
	</linearGradient>
	<path style="fill:url(#SVGID_3_);" d="M73.6,326.367c4.418-0.008,7.993-3.597,7.985-8.015c-0.002-1.191-0.27-2.367-0.785-3.441
		c-11.171-23.398-16.914-49.016-16.8-74.944c-0.066-25.958,5.674-51.603,16.8-75.056c1.889-3.996,0.18-8.767-3.816-10.656
		c-3.996-1.889-8.767-0.18-10.656,3.816C54.194,183.663,47.932,211.644,48,239.967c-0.104,28.32,6.186,56.297,18.4,81.848
		C67.725,324.59,70.524,326.359,73.6,326.367z"/>
	
		<linearGradient id="SVGID_4_" gradientUnits="userSpaceOnUse" x1="0.2479" y1="558.9617" x2="0.2479" y2="616.5717" gradientTransform="matrix(8 0 0 -8 455.0017 4940.7002)">
		<stop  offset="0" style="stop-color:#006DF0"/>
		<stop  offset="1" style="stop-color:#00E7F0"/>
	</linearGradient>
	<path style="fill:url(#SVGID_4_);" d="M448.96,122.023c-2.205-3.829-7.097-5.145-10.925-2.939
		c-3.791,2.183-5.125,7.006-2.995,10.827c38.614,68.29,38.614,151.822,0,220.112c-2.205,3.829-0.889,8.72,2.939,10.925
		s8.72,0.889,10.925-2.939c0.019-0.033,0.037-0.065,0.056-0.098C490.346,284.727,490.346,195.206,448.96,122.023z"/>
	
		<linearGradient id="SVGID_5_" gradientUnits="userSpaceOnUse" x1="-4.9886" y1="558.9617" x2="-4.9886" y2="616.5717" gradientTransform="matrix(8 0 0 -8 455.0017 4940.7002)">
		<stop  offset="0" style="stop-color:#006DF0"/>
		<stop  offset="1" style="stop-color:#00E7F0"/>
	</linearGradient>
	<path style="fill:url(#SVGID_5_);" d="M403.056,154.255c-3.995,1.886-5.705,6.654-3.819,10.65c0.001,0.002,0.002,0.004,0.003,0.006
		c11.112,23.456,16.839,49.101,16.76,75.056c0.114,25.928-5.629,51.546-16.8,74.944c-2.152,3.859-0.769,8.731,3.089,10.884
		c3.859,2.152,8.731,0.769,10.884-3.089c0.161-0.288,0.303-0.585,0.427-0.89c12.214-25.551,18.504-53.528,18.4-81.848
		c0.08-28.32-6.168-56.3-18.288-81.896c-1.886-3.995-6.654-5.705-10.65-3.819C403.06,154.253,403.058,154.254,403.056,154.255
		L403.056,154.255z"/>
</g>
<g>
</g>
<g>
</g>
<g>
</g>
<g>
</g>
<g>
</g>
<g>
</g>
<g>
</g>
<g>
</g>
<g>
</g>
<g>
</g>
<g>
</g>
<g>
</g>
<g>
</g>
<g>
</g>
<g>
</g>
</svg>
