<?xml version="1.0" encoding="iso-8859-1"?>
<!-- Generator: Adobe Illustrator 19.0.0, SVG Export Plug-In . SVG Version: 6.00 Build 0)  -->
<svg version="1.1" id="Capa_1" xmlns="http://www.w3.org/2000/svg" xmlns:xlink="http://www.w3.org/1999/xlink" x="0px" y="0px"
	 viewBox="0 0 480 480" style="enable-background:new 0 0 480 480;" xml:space="preserve">
<linearGradient id="SVGID_1_" gradientUnits="userSpaceOnUse" x1="-26.8852" y1="558.335" x2="-26.8852" y2="615.876" gradientTransform="matrix(8 0 0 -8 455.0714 4941)">
	<stop  offset="0" style="stop-color:#006DF0"/>
	<stop  offset="1" style="stop-color:#00E7F0"/>
</linearGradient>
<path style="fill:url(#SVGID_1_);" d="M352.902,0H127.078c-12.747,0.009-23.079,10.341-23.088,23.088v433.824
	c0.009,12.747,10.34,23.079,23.088,23.088h225.824c12.747-0.009,23.079-10.341,23.088-23.088V23.088
	C375.981,10.341,365.649,0.009,352.902,0L352.902,0z M127.078,16h225.824c3.915,0,7.088,3.173,7.088,7.088c0,0,0,0,0,0V48h-240
	V23.088C119.99,19.173,123.163,16,127.078,16L127.078,16z M359.99,416h-240V64h240V416z M352.902,464H127.078
	c-3.915,0-7.088-3.173-7.088-7.088l0,0V432h240v24.912C359.99,460.827,356.816,464,352.902,464L352.902,464z"/>
<g>
	
		<linearGradient id="SVGID_2_" gradientUnits="userSpaceOnUse" x1="-29.8852" y1="558.335" x2="-29.8852" y2="615.876" gradientTransform="matrix(8 0 0 -8 455.0714 4941)">
		<stop  offset="0" style="stop-color:#006DF0"/>
		<stop  offset="1" style="stop-color:#00E7F0"/>
	</linearGradient>
	<path style="fill:url(#SVGID_2_);" d="M199.99,40h32c4.418,0,8-3.582,8-8c0-4.418-3.582-8-8-8h-32c-4.418,0-8,3.582-8,8
		C191.99,36.418,195.572,40,199.99,40z"/>
	
		<linearGradient id="SVGID_3_" gradientUnits="userSpaceOnUse" x1="-22.8852" y1="558.335" x2="-22.8852" y2="615.876" gradientTransform="matrix(8 0 0 -8 455.0714 4941)">
		<stop  offset="0" style="stop-color:#006DF0"/>
		<stop  offset="1" style="stop-color:#00E7F0"/>
	</linearGradient>
	<path style="fill:url(#SVGID_3_);" d="M263.99,40h16c4.418,0,8-3.582,8-8c0-4.418-3.582-8-8-8h-16c-4.418,0-8,3.582-8,8
		C255.99,36.418,259.572,40,263.99,40z"/>
</g>
<linearGradient id="SVGID_4_" gradientUnits="userSpaceOnUse" x1="-26.8852" y1="558.335" x2="-26.8852" y2="615.876" gradientTransform="matrix(8 0 0 -8 455.0714 4941)">
	<stop  offset="0" style="stop-color:#006DF0"/>
	<stop  offset="1" style="stop-color:#00E7F0"/>
</linearGradient>
<path style="fill:url(#SVGID_4_);" d="M271.99,440h-64c-4.418,0-8,3.582-8,8s3.582,8,8,8h64c4.418,0,8-3.582,8-8
	S276.408,440,271.99,440z"/>
<g>
	
		<linearGradient id="SVGID_5_" gradientUnits="userSpaceOnUse" x1="-47.8616" y1="558.335" x2="-47.8616" y2="615.876" gradientTransform="matrix(8 0 0 -8 455.0714 4941)">
		<stop  offset="0" style="stop-color:#006DF0"/>
		<stop  offset="1" style="stop-color:#00E7F0"/>
	</linearGradient>
	<path style="fill:url(#SVGID_5_);" d="M71.99,240c-0.056-23.652,4.924-47.045,14.608-68.624c1.816-4.034,0.018-8.776-4.016-10.592
		c-4.034-1.816-8.776-0.018-10.592,4.016l0,0c-21.767,48.78-21.317,104.601,1.232,153.024c1.978,3.951,6.785,5.549,10.735,3.571
		c3.802-1.904,5.45-6.449,3.753-10.347C77.3,288.813,71.932,264.552,71.99,240z"/>
	
		<linearGradient id="SVGID_6_" gradientUnits="userSpaceOnUse" x1="-53.5687" y1="558.335" x2="-53.5687" y2="615.876" gradientTransform="matrix(8 0 0 -8 455.0714 4941)">
		<stop  offset="0" style="stop-color:#006DF0"/>
		<stop  offset="1" style="stop-color:#00E7F0"/>
	</linearGradient>
	<path style="fill:url(#SVGID_6_);" d="M23.99,240c-0.063-30.42,6.349-60.505,18.808-88.256c1.807-4.034,0.002-8.769-4.032-10.576
		s-8.769-0.002-10.576,4.032C0.722,206.718,1.291,277.126,29.75,338.192c1.805,4.033,6.537,5.839,10.57,4.034
		c4.033-1.805,5.839-6.537,4.034-10.57c-0.037-0.083-0.076-0.166-0.116-0.248C30.833,302.804,23.919,271.589,23.99,240L23.99,240z"
		/>
	
		<linearGradient id="SVGID_7_" gradientUnits="userSpaceOnUse" x1="-5.9183" y1="558.335" x2="-5.9183" y2="615.876" gradientTransform="matrix(8 0 0 -8 455.0714 4941)">
		<stop  offset="0" style="stop-color:#006DF0"/>
		<stop  offset="1" style="stop-color:#00E7F0"/>
	</linearGradient>
	<path style="fill:url(#SVGID_7_);" d="M397.406,160.8c-4.023,1.818-5.813,6.551-4,10.576c19.861,44.536,19.452,95.492-1.12,139.704
		c-1.978,3.951-0.379,8.757,3.571,10.735c3.951,1.978,8.757,0.379,10.735-3.571c0.064-0.128,0.124-0.257,0.181-0.388
		c22.554-48.435,22.997-104.269,1.216-153.056c-1.818-4.027-6.556-5.818-10.583-4.001C397.407,160.8,397.406,160.8,397.406,160.8
		L397.406,160.8z"/>
	
		<linearGradient id="SVGID_8_" gradientUnits="userSpaceOnUse" x1="-0.2004" y1="558.335" x2="-0.2004" y2="615.876" gradientTransform="matrix(8 0 0 -8 455.0714 4941)">
		<stop  offset="0" style="stop-color:#006DF0"/>
		<stop  offset="1" style="stop-color:#00E7F0"/>
	</linearGradient>
	<path style="fill:url(#SVGID_8_);" d="M451.79,145.2c-1.807-4.034-6.542-5.839-10.576-4.032c-4.034,1.807-5.839,6.542-4.032,10.576
		c25.57,57.269,25.045,122.813-1.44,179.664c-1.942,3.969-0.299,8.76,3.67,10.702s8.76,0.299,10.702-3.67
		c0.04-0.082,0.079-0.165,0.116-0.248c28.471-61.06,29.055-131.468,1.6-192.992L451.79,145.2z"/>
</g>
<g>
</g>
<g>
</g>
<g>
</g>
<g>
</g>
<g>
</g>
<g>
</g>
<g>
</g>
<g>
</g>
<g>
</g>
<g>
</g>
<g>
</g>
<g>
</g>
<g>
</g>
<g>
</g>
<g>
</g>
</svg>
