<?xml version="1.0" encoding="iso-8859-1"?>
<!-- Generator: Adobe Illustrator 19.0.0, SVG Export Plug-In . SVG Version: 6.00 Build 0)  -->
<svg version="1.1" id="Capa_1" xmlns="http://www.w3.org/2000/svg" xmlns:xlink="http://www.w3.org/1999/xlink" x="0px" y="0px"
	 viewBox="0 0 480 480" style="enable-background:new 0 0 480 480;" xml:space="preserve">
<linearGradient id="SVGID_1_" gradientUnits="userSpaceOnUse" x1="-26.875" y1="565.625" x2="-26.875" y2="617.625" gradientTransform="matrix(8 0 0 -8 454.9998 4941)">
	<stop  offset="0" style="stop-color:#006DF0"/>
	<stop  offset="1" style="stop-color:#00E7F0"/>
</linearGradient>
<path style="fill:url(#SVGID_1_);" d="M240,416c2.575,0.001,4.992-1.238,6.496-3.328C252.104,404.872,384,220.8,384,144
	C384,64.471,319.529,0,240,0S96,64.471,96,144c0,76.8,131.896,260.872,137.504,268.672C235.008,414.762,237.425,416.001,240,416z
	 M240,16c70.658,0.084,127.916,57.342,128,128c0,62.464-101.104,211.568-128,250.12C213.104,355.568,112,206.48,112,144
	C112.084,73.342,169.342,16.084,240,16z"/>
<linearGradient id="SVGID_2_" gradientUnits="userSpaceOnUse" x1="-26.875" y1="557.465" x2="-26.875" y2="615.114" gradientTransform="matrix(8 0 0 -8 454.9998 4941)">
	<stop  offset="0" style="stop-color:#006DF0"/>
	<stop  offset="1" style="stop-color:#00E7F0"/>
</linearGradient>
<path style="fill:url(#SVGID_2_);" d="M313,340.712c-4.381-0.59-8.41,2.483-9,6.864s2.483,8.41,6.864,9l0,0
	C385.144,366.584,424,390.016,424,408c0,26.488-75.568,56-184,56S56,434.488,56,408c0-17.96,38.808-41.384,112.984-51.408
	c4.379-0.592,7.448-4.621,6.856-9s-4.621-7.448-9-6.856C105.52,349.016,40,371.04,40,408c0,46.768,103.04,72,200,72
	s200-25.232,200-72C440,371.008,374.4,348.992,313,340.712L313,340.712z"/>
<linearGradient id="SVGID_3_" gradientUnits="userSpaceOnUse" x1="-26.875" y1="593.625" x2="-26.875" y2="605.625" gradientTransform="matrix(8 0 0 -8 454.9998 4941)">
	<stop  offset="0" style="stop-color:#006DF0"/>
	<stop  offset="1" style="stop-color:#00E7F0"/>
</linearGradient>
<path style="fill:url(#SVGID_3_);" d="M288,144c0-26.51-21.49-48-48-48s-48,21.49-48,48s21.49,48,48,48
	C266.499,191.974,287.974,170.499,288,144z M208,144c0-17.673,14.327-32,32-32s32,14.327,32,32s-14.327,32-32,32
	S208,161.673,208,144z"/>
<g>
</g>
<g>
</g>
<g>
</g>
<g>
</g>
<g>
</g>
<g>
</g>
<g>
</g>
<g>
</g>
<g>
</g>
<g>
</g>
<g>
</g>
<g>
</g>
<g>
</g>
<g>
</g>
<g>
</g>
</svg>
