<?xml version="1.0" encoding="iso-8859-1"?>
<!-- Generator: Adobe Illustrator 19.0.0, SVG Export Plug-In . SVG Version: 6.00 Build 0)  -->
<svg version="1.1" id="Capa_1" xmlns="http://www.w3.org/2000/svg" xmlns:xlink="http://www.w3.org/1999/xlink" x="0px" y="0px"
	 viewBox="0 0 480.011 480.011" style="enable-background:new 0 0 480.011 480.011;" xml:space="preserve">
<g>
	
		<linearGradient id="SVGID_1_" gradientUnits="userSpaceOnUse" x1="-26.8685" y1="558.1405" x2="-26.8685" y2="620.9185" gradientTransform="matrix(8 0 0 -8 454.9544 4941.0493)">
		<stop  offset="0" style="stop-color:#006DF0"/>
		<stop  offset="1" style="stop-color:#00E7F0"/>
	</linearGradient>
	<path style="fill:url(#SVGID_1_);" d="M240.007,192.005c26.51,0,48-21.49,48-48s-21.49-48-48-48s-48,21.49-48,48
		C192.033,170.504,213.508,191.979,240.007,192.005z M240.007,112.005c17.673,0,32,14.327,32,32s-14.327,32-32,32s-32-14.327-32-32
		S222.333,112.005,240.007,112.005z"/>
	
		<linearGradient id="SVGID_2_" gradientUnits="userSpaceOnUse" x1="-26.8686" y1="558.1405" x2="-26.8686" y2="620.9185" gradientTransform="matrix(8 0 0 -8 454.9544 4941.0493)">
		<stop  offset="0" style="stop-color:#006DF0"/>
		<stop  offset="1" style="stop-color:#00E7F0"/>
	</linearGradient>
	<path style="fill:url(#SVGID_2_);" d="M479.703,469.805l-64-224c-0.982-3.435-4.123-5.802-7.696-5.8h-55.424
		c21.024-42.336,31.424-73.904,31.424-96c0-79.529-64.471-144-144-144s-144,64.471-144,144c0,22.096,10.4,53.664,31.424,96H72.007
		c-3.573-0.002-6.714,2.365-7.696,5.8l-64,224c-1.215,4.248,1.244,8.677,5.492,9.892c0.717,0.205,1.459,0.309,2.204,0.308h464
		c4.418,0.002,8.002-3.577,8.004-7.996C480.011,471.264,479.908,470.522,479.703,469.805z M240.007,16.005
		c70.658,0.084,127.916,57.342,128,128c0,21.176-11.944,54.928-35.504,100.32c-27.835,51.725-58.722,101.75-92.496,149.808
		c-33.773-48.061-64.662-98.085-92.504-149.808c-23.552-45.392-35.496-79.144-35.496-100.32
		C112.09,73.348,169.349,16.089,240.007,16.005z M18.615,464.005l59.424-208h57.52l0.632,1.184c0.757,1.44,1.525,2.88,2.304,4.32
		c0.512,0.96,1.024,1.92,1.544,2.88c0.757,1.397,1.52,2.797,2.288,4.2l1.704,3.112l2.232,4l1.792,3.2
		c0.736,1.317,1.477,2.632,2.224,3.944l1.872,3.272c0.736,1.285,1.477,2.573,2.224,3.864c0.624,1.067,1.253,2.152,1.888,3.256
		l2.208,3.776c0.664,1.128,1.32,2.256,1.984,3.376l2.144,3.616l2.04,3.4l2.112,3.512c0.704,1.168,1.411,2.333,2.12,3.496l1.968,3.24
		l2.264,3.688l1.872,3.032c0.8,1.256,1.544,2.496,2.32,3.736l1.728,2.776l2.4,3.856l1.648,2.616c0.84,1.328,1.664,2.632,2.496,3.928
		c0.48,0.8,0.968,1.528,1.448,2.28l2.648,4.136l1.256,1.952l2.68,4.152c0.392,0.6,0.8,1.2,1.168,1.8l2.752,4.216l0.96,1.464
		l2.856,4.352l0.744,1.12l2.872,4.344l0.648,0.968l3.144,4.712l0.112,0.16c1.048,1.6,2.08,3.096,3.08,4.576l0.2,0.304
		c12.632,18.712,21.136,30.552,21.352,30.856c2.579,3.588,7.578,4.406,11.165,1.827c0.704-0.506,1.321-1.123,1.827-1.827
		c0.216-0.304,8.72-12.144,21.352-30.856l0.2-0.304c1-1.48,2.032-3.008,3.08-4.576l0.112-0.16l3.144-4.712l0.648-0.968l2.872-4.344
		l0.744-1.12l2.856-4.352l0.96-1.464l2.752-4.216c0.384-0.6,0.8-1.2,1.168-1.8l2.68-4.152l1.256-1.952l2.648-4.136
		c0.48-0.752,0.968-1.512,1.448-2.28c0.8-1.296,1.656-2.6,2.496-3.928l1.648-2.616l2.4-3.856l1.728-2.776
		c0.8-1.24,1.544-2.48,2.32-3.736l1.872-3.032l2.264-3.688l1.968-3.24c0.709-1.163,1.416-2.328,2.12-3.496l2.112-3.512l2.088-3.4
		l2.144-3.616c0.664-1.12,1.32-2.248,1.984-3.376l2.208-3.776c0.629-1.067,1.259-2.152,1.888-3.256
		c0.741-1.291,1.483-2.579,2.224-3.864l1.872-3.272c0.741-1.312,1.483-2.627,2.224-3.944l1.792-3.2l2.232-4l1.704-3.112
		c0.768-1.397,1.531-2.797,2.288-4.2c0.52-0.96,1.032-1.92,1.544-2.88c0.779-1.44,1.547-2.88,2.304-4.32l0.632-1.184h57.52
		l59.424,208H18.615z"/>
</g>
<g>
</g>
<g>
</g>
<g>
</g>
<g>
</g>
<g>
</g>
<g>
</g>
<g>
</g>
<g>
</g>
<g>
</g>
<g>
</g>
<g>
</g>
<g>
</g>
<g>
</g>
<g>
</g>
<g>
</g>
</svg>
