<?xml version="1.0" encoding="iso-8859-1"?>
<!-- Generator: Adobe Illustrator 19.0.0, SVG Export Plug-In . SVG Version: 6.00 Build 0)  -->
<svg version="1.1" id="Capa_1" xmlns="http://www.w3.org/2000/svg" xmlns:xlink="http://www.w3.org/1999/xlink" x="0px" y="0px"
	 viewBox="0 0 480 480" style="enable-background:new 0 0 480 480;" xml:space="preserve">
<g>
	
		<linearGradient id="SVGID_1_" gradientUnits="userSpaceOnUse" x1="-26.875" y1="558.515" x2="-26.875" y2="618.09" gradientTransform="matrix(8 0 0 -8 455 4941)">
		<stop  offset="0" style="stop-color:#006DF0"/>
		<stop  offset="1" style="stop-color:#00E7F0"/>
	</linearGradient>
	<path style="fill:url(#SVGID_1_);" d="M440,128h-32v-24C407.934,46.59,361.41,0.066,304,0H176C118.59,0.066,72.066,46.59,72,104v24
		H40c-22.08,0.026-39.974,17.92-40,40v272c0.026,22.08,17.92,39.974,40,40h400c22.08-0.026,39.974-17.92,40-40V168
		C479.974,145.92,462.08,128.026,440,128z M88,104c0.057-48.577,39.423-87.943,88-88h128c48.577,0.057,87.943,39.423,88,88v24H88
		V104z M464,440c0,13.255-10.745,24-24,24H40c-13.255,0-24-10.745-24-24V168c0-13.255,10.745-24,24-24h400c13.255,0,24,10.745,24,24
		V440z"/>
	
		<linearGradient id="SVGID_2_" gradientUnits="userSpaceOnUse" x1="-26.875" y1="558.515" x2="-26.875" y2="618.09" gradientTransform="matrix(8 0 0 -8 455 4941)">
		<stop  offset="0" style="stop-color:#006DF0"/>
		<stop  offset="1" style="stop-color:#00E7F0"/>
	</linearGradient>
	<path style="fill:url(#SVGID_2_);" d="M240,192c-22.08,0.026-39.974,17.92-40,40v64c0,22.091,17.909,40,40,40s40-17.909,40-40v-64
		C279.974,209.92,262.08,192.026,240,192z M264,296c0,13.255-10.745,24-24,24c-13.255,0-24-10.745-24-24v-64
		c0-13.255,10.745-24,24-24c13.255,0,24,10.745,24,24V296z"/>
</g>
<g>
</g>
<g>
</g>
<g>
</g>
<g>
</g>
<g>
</g>
<g>
</g>
<g>
</g>
<g>
</g>
<g>
</g>
<g>
</g>
<g>
</g>
<g>
</g>
<g>
</g>
<g>
</g>
<g>
</g>
</svg>
