<?xml version="1.0" encoding="iso-8859-1"?>
<!-- Generator: Adobe Illustrator 19.0.0, SVG Export Plug-In . SVG Version: 6.00 Build 0)  -->
<svg version="1.1" id="Capa_1" xmlns="http://www.w3.org/2000/svg" xmlns:xlink="http://www.w3.org/1999/xlink" x="0px" y="0px"
	 viewBox="0 0 479.998 479.998" style="enable-background:new 0 0 479.998 479.998;" xml:space="preserve">
<linearGradient id="SVGID_1_" gradientUnits="userSpaceOnUse" x1="-26.8752" y1="562.4638" x2="-26.8752" y2="615.0888" gradientTransform="matrix(8 0 0 -8 455.0001 4940.9893)">
	<stop  offset="0" style="stop-color:#006DF0"/>
	<stop  offset="1" style="stop-color:#00E7F0"/>
</linearGradient>
<path style="fill:url(#SVGID_1_);" d="M478.4,147.199c-1.511-2.014-3.882-3.2-6.4-3.2h-72v-24c0-13.255-10.745-24-24-24H244.52
	l-28.6-44.336c-1.473-2.283-4.003-3.663-6.72-3.664H8c-4.418,0-8,3.582-8,8v368c0.036,0.288,0.09,0.574,0.16,0.856
	c0.04,0.367,0.104,0.73,0.192,1.088c0.208,0.809,0.546,1.579,1,2.28c0.112,0.176,0.112,0.4,0.24,0.568s0.136,0.088,0.184,0.152
	c0.685,0.879,1.549,1.602,2.536,2.12c0.2,0.104,0.424,0.128,0.632,0.216c0.607,0.295,1.25,0.51,1.912,0.64
	C7.235,431.973,7.617,432,8,431.999h384c3.548-0.001,6.671-2.34,7.672-5.744l80-272C480.385,151.834,479.913,149.219,478.4,147.199
	L478.4,147.199z M204.84,63.999l28.6,44.336c1.473,2.283,4.003,3.663,6.72,3.664H376c4.418,0,8,3.582,8,8v24H88
	c-3.548,0.001-6.671,2.34-7.672,5.744L16,368.447V63.999H204.84z M386.016,415.999H18.696l75.288-256h367.328L386.016,415.999z"/>
<g>
</g>
<g>
</g>
<g>
</g>
<g>
</g>
<g>
</g>
<g>
</g>
<g>
</g>
<g>
</g>
<g>
</g>
<g>
</g>
<g>
</g>
<g>
</g>
<g>
</g>
<g>
</g>
<g>
</g>
</svg>
