<?xml version="1.0" encoding="iso-8859-1"?>
<!-- Generator: Adobe Illustrator 19.0.0, SVG Export Plug-In . SVG Version: 6.00 Build 0)  -->
<svg version="1.1" id="Capa_1" xmlns="http://www.w3.org/2000/svg" xmlns:xlink="http://www.w3.org/1999/xlink" x="0px" y="0px"
	 viewBox="0 0 480 480" style="enable-background:new 0 0 480 480;" xml:space="preserve">
<linearGradient id="SVGID_1_" gradientUnits="userSpaceOnUse" x1="-26.875" y1="544.505" x2="-26.875" y2="603.083" gradientTransform="matrix(8 0 0 -8 455 4833)">
	<stop  offset="0" style="stop-color:#006DF0"/>
	<stop  offset="1" style="stop-color:#00E7F0"/>
</linearGradient>
<path style="fill:url(#SVGID_1_);" d="M240,12C105.424,12,0,54.168,0,108v264c0,53.832,105.424,96,240,96s240-42.168,240-96V108
	C480,54.168,374.576,12,240,12z M240,28c133.992,0,224,41.368,224,80c0,15.952-14.88,29.096-27.352,37.312
	C396.552,171.648,321.2,188,240,188c-81.072,0-156.392-16.36-196.592-42.704C30.904,137.152,16,124.064,16,108
	C16,69.368,106.008,28,240,28z M464,319.456V372c0,38.632-90.008,80-224,80S16,410.632,16,372v-52.504
	c0.432,0.456,0.992,0.88,1.44,1.328c1.704,1.704,3.536,3.384,5.472,5.032c0.84,0.72,1.648,1.432,2.528,2.136
	c2.864,2.288,5.888,4.528,9.216,6.696C77.944,363.064,154.712,380,240,380c85.432,0,162.224-16.936,205.44-45.32
	c3.304-2.176,6.312-4.424,9.152-6.712c0.896-0.712,1.712-1.448,2.56-2.176c1.92-1.648,3.736-3.32,5.424-5.016
	C463.016,320.328,463.576,319.904,464,319.456L464,319.456z M464,231.456V284c0,15.952-14.88,29.096-27.352,37.312
	C396.552,347.648,321.2,364,240,364c-81.072,0-156.392-16.36-196.592-42.704C30.904,313.152,16,300.064,16,284v-52.504
	c0.432,0.456,0.992,0.88,1.44,1.328c1.704,1.704,3.536,3.384,5.472,5.032c0.84,0.72,1.648,1.432,2.528,2.136
	c2.864,2.288,5.888,4.528,9.216,6.696C77.944,275.064,154.712,292,240,292c85.432,0,162.224-16.936,205.44-45.32
	c3.304-2.176,6.312-4.424,9.152-6.712c0.896-0.712,1.712-1.448,2.56-2.176c1.92-1.648,3.736-3.32,5.424-5.016
	C463.016,232.328,463.576,231.904,464,231.456L464,231.456z M464,143.456V196c0,15.952-14.88,29.096-27.352,37.312
	C396.552,259.648,321.2,276,240,276c-81.072,0-156.392-16.36-196.592-42.704C30.904,225.152,16,212.064,16,196v-52.504
	c0.432,0.456,0.992,0.88,1.44,1.328c1.704,1.704,3.536,3.384,5.472,5.032c0.84,0.72,1.648,1.432,2.528,2.136
	c2.864,2.288,5.888,4.528,9.216,6.696C77.944,187.064,154.712,204,240,204c85.432,0,162.224-16.936,205.44-45.32
	c3.304-2.176,6.312-4.424,9.152-6.712c0.896-0.712,1.712-1.448,2.56-2.176c1.92-1.648,3.736-3.32,5.424-5.016
	C463.016,144.328,463.576,143.904,464,143.456L464,143.456z"/>
<g>
</g>
<g>
</g>
<g>
</g>
<g>
</g>
<g>
</g>
<g>
</g>
<g>
</g>
<g>
</g>
<g>
</g>
<g>
</g>
<g>
</g>
<g>
</g>
<g>
</g>
<g>
</g>
<g>
</g>
</svg>
