<?xml version="1.0" encoding="iso-8859-1"?>
<!-- Generator: Adobe Illustrator 19.0.0, SVG Export Plug-In . SVG Version: 6.00 Build 0)  -->
<svg version="1.1" id="Capa_1" xmlns="http://www.w3.org/2000/svg" xmlns:xlink="http://www.w3.org/1999/xlink" x="0px" y="0px"
	 viewBox="0 0 480 480" style="enable-background:new 0 0 480 480;" xml:space="preserve">
<g>
	
		<linearGradient id="SVGID_1_" gradientUnits="userSpaceOnUse" x1="-26.875" y1="557.758" x2="-26.875" y2="616.984" gradientTransform="matrix(8 0 0 -8 455 4941)">
		<stop  offset="0" style="stop-color:#006DF0"/>
		<stop  offset="1" style="stop-color:#00E7F0"/>
	</linearGradient>
	<path style="fill:url(#SVGID_1_);" d="M240,0C107.452,0,0,107.452,0,240s107.452,240,240,240s240-107.452,240-240
		C479.85,107.514,372.486,0.15,240,0z M240,464C116.288,464,16,363.712,16,240S116.288,16,240,16s224,100.288,224,224
		C463.859,363.653,363.653,463.859,240,464z"/>
	
		<linearGradient id="SVGID_2_" gradientUnits="userSpaceOnUse" x1="-26.875" y1="557.758" x2="-26.875" y2="616.984" gradientTransform="matrix(8 0 0 -8 455 4941)">
		<stop  offset="0" style="stop-color:#006DF0"/>
		<stop  offset="1" style="stop-color:#00E7F0"/>
	</linearGradient>
	<path style="fill:url(#SVGID_2_);" d="M232,40h16v32h-16V40z"/>
</g>
<linearGradient id="SVGID_3_" gradientUnits="userSpaceOnUse" x1="-100.729" y1="581.8281" x2="-49.437" y2="611.4371" gradientTransform="matrix(3.9998 -6.9283 -6.9283 -3.9998 4514.6201 2108.2102)">
	<stop  offset="0" style="stop-color:#006DF0"/>
	<stop  offset="1" style="stop-color:#00E7F0"/>
</linearGradient>
<path style="fill:url(#SVGID_3_);" d="M62.791,146.927l8-13.857l27.713,15.999l-8,13.857L62.791,146.927z"/>
<linearGradient id="SVGID_4_" gradientUnits="userSpaceOnUse" x1="-65.4835" y1="559.4806" x2="-35.8745" y2="610.7776" gradientTransform="matrix(6.9286 -3.9994 -3.9994 -6.9286 2771.9087 4093.4622)">
	<stop  offset="0" style="stop-color:#006DF0"/>
	<stop  offset="1" style="stop-color:#00E7F0"/>
</linearGradient>
<path style="fill:url(#SVGID_4_);" d="M62.78,333.074l27.714-15.997l7.999,13.857l-27.714,15.997L62.78,333.074z"/>
<linearGradient id="SVGID_5_" gradientUnits="userSpaceOnUse" x1="-26.875" y1="557.758" x2="-26.875" y2="616.984" gradientTransform="matrix(8 0 0 -8 455 4941)">
	<stop  offset="0" style="stop-color:#006DF0"/>
	<stop  offset="1" style="stop-color:#00E7F0"/>
</linearGradient>
<path style="fill:url(#SVGID_5_);" d="M232,408h16v32h-16V408z"/>
<linearGradient id="SVGID_6_" gradientUnits="userSpaceOnUse" x1="-40.9742" y1="570.3237" x2="10.3158" y2="599.9368" gradientTransform="matrix(3.9998 -6.9283 -6.9283 -3.9998 4514.6284 2476.2664)">
	<stop  offset="0" style="stop-color:#006DF0"/>
	<stop  offset="1" style="stop-color:#00E7F0"/>
</linearGradient>
<path style="fill:url(#SVGID_6_);" d="M381.493,330.967l8-13.857l27.713,15.999l-8,13.857L381.493,330.967z"/>
<linearGradient id="SVGID_7_" gradientUnits="userSpaceOnUse" x1="-37.1412" y1="562.5599" x2="-7.5342" y2="613.8599" gradientTransform="matrix(6.9286 -3.9994 -3.9994 -6.9286 2906.5889 4228.1421)">
	<stop  offset="0" style="stop-color:#006DF0"/>
	<stop  offset="1" style="stop-color:#00E7F0"/>
</linearGradient>
<path style="fill:url(#SVGID_7_);" d="M381.494,149.071l27.714-15.997l7.999,13.857l-27.714,15.997L381.494,149.071z"/>
<linearGradient id="SVGID_8_" gradientUnits="userSpaceOnUse" x1="-49.875" y1="557.758" x2="-49.875" y2="616.984" gradientTransform="matrix(8 0 0 -8 455 4941)">
	<stop  offset="0" style="stop-color:#006DF0"/>
	<stop  offset="1" style="stop-color:#00E7F0"/>
</linearGradient>
<path style="fill:url(#SVGID_8_);" d="M40,232h32v16H40V232z"/>
<linearGradient id="SVGID_9_" gradientUnits="userSpaceOnUse" x1="-65.1016" y1="566.1166" x2="-13.8056" y2="595.7286" gradientTransform="matrix(3.9994 -6.9286 -6.9286 -3.9994 4330.7388 2291.98)">
	<stop  offset="0" style="stop-color:#006DF0"/>
	<stop  offset="1" style="stop-color:#00E7F0"/>
</linearGradient>
<path style="fill:url(#SVGID_9_);" d="M133.071,409.209l15.997-27.714l13.857,7.999l-15.997,27.714L133.071,409.209z"/>
<linearGradient id="SVGID_10_" gradientUnits="userSpaceOnUse" x1="-29.855" y1="558.3593" x2="-0.241" y2="609.6473" gradientTransform="matrix(6.9283 -3.9998 -3.9998 -6.9283 2772.1479 4227.9873)">
	<stop  offset="0" style="stop-color:#006DF0"/>
	<stop  offset="1" style="stop-color:#00E7F0"/>
</linearGradient>
<path style="fill:url(#SVGID_10_);" d="M317.078,389.497l13.857-8l15.999,27.713l-13.857,8L317.078,389.497z"/>
<linearGradient id="SVGID_11_" gradientUnits="userSpaceOnUse" x1="-3.875" y1="557.758" x2="-3.875" y2="616.984" gradientTransform="matrix(8 0 0 -8 455 4941)">
	<stop  offset="0" style="stop-color:#006DF0"/>
	<stop  offset="1" style="stop-color:#00E7F0"/>
</linearGradient>
<path style="fill:url(#SVGID_11_);" d="M408,232h32v16h-32V232z"/>
<linearGradient id="SVGID_12_" gradientUnits="userSpaceOnUse" x1="-76.6028" y1="586.0389" x2="-25.3098" y2="615.6479" gradientTransform="matrix(3.9994 -6.9286 -6.9286 -3.9994 4698.771 2291.9639)">
	<stop  offset="0" style="stop-color:#006DF0"/>
	<stop  offset="1" style="stop-color:#00E7F0"/>
</linearGradient>
<path style="fill:url(#SVGID_12_);" d="M317.069,90.51l15.997-27.714l13.857,7.999l-15.997,27.714L317.069,90.51z"/>
<linearGradient id="SVGID_13_" gradientUnits="userSpaceOnUse" x1="-72.7749" y1="563.6904" x2="-43.1629" y2="614.9844" gradientTransform="matrix(6.9283 -3.9998 -3.9998 -6.9283 2906.8359 4093.2993)">
	<stop  offset="0" style="stop-color:#006DF0"/>
	<stop  offset="1" style="stop-color:#00E7F0"/>
</linearGradient>
<path style="fill:url(#SVGID_13_);" d="M133.072,70.793l13.857-8l15.999,27.713l-13.857,8L133.072,70.793z"/>
<linearGradient id="SVGID_14_" gradientUnits="userSpaceOnUse" x1="-30.374" y1="557.758" x2="-30.374" y2="616.984" gradientTransform="matrix(8 0 0 -8 455 4941)">
	<stop  offset="0" style="stop-color:#006DF0"/>
	<stop  offset="1" style="stop-color:#00E7F0"/>
</linearGradient>
<path style="fill:url(#SVGID_14_);" d="M248,209.136V128c0-4.418-3.582-8-8-8s-8,3.582-8,8v81.136
	c-11.195,2.927-19.937,11.669-22.864,22.864H160c-4.418,0-8,3.582-8,8s3.582,8,8,8h49.136c4.378,17.086,21.778,27.387,38.864,23.009
	s27.387-21.778,23.009-38.864C268.115,220.85,259.295,212.03,248,209.136z M240,256c-8.837,0-16-7.163-16-16c0-8.837,7.163-16,16-16
	c8.837,0,16,7.163,16,16C256,248.837,248.837,256,240,256z"/>
<g>
</g>
<g>
</g>
<g>
</g>
<g>
</g>
<g>
</g>
<g>
</g>
<g>
</g>
<g>
</g>
<g>
</g>
<g>
</g>
<g>
</g>
<g>
</g>
<g>
</g>
<g>
</g>
<g>
</g>
</svg>
