<?xml version="1.0" encoding="iso-8859-1"?>
<!-- Generator: Adobe Illustrator 19.0.0, SVG Export Plug-In . SVG Version: 6.00 Build 0)  -->
<svg version="1.1" id="Capa_1" xmlns="http://www.w3.org/2000/svg" xmlns:xlink="http://www.w3.org/1999/xlink" x="0px" y="0px"
	 viewBox="0 0 480 480" style="enable-background:new 0 0 480 480;" xml:space="preserve">
<g>
	
		<linearGradient id="SVGID_1_" gradientUnits="userSpaceOnUse" x1="-26.875" y1="556.883" x2="-26.875" y2="617.341" gradientTransform="matrix(8 0 0 -8 455 4941)">
		<stop  offset="0" style="stop-color:#006DF0"/>
		<stop  offset="1" style="stop-color:#00E7F0"/>
	</linearGradient>
	<path style="fill:url(#SVGID_1_);" d="M448,48h-56V8c0-4.418-3.582-8-8-8h-64c-4.418,0-8,3.582-8,8v40H168V8c0-4.418-3.582-8-8-8
		H96c-4.418,0-8,3.582-8,8v40H32c-4.418,0-8,3.582-8,8v416c0,4.418,3.582,8,8,8h416c4.418,0,8-3.582,8-8V56
		C456,51.582,452.418,48,448,48z M328,16h48v80h-48V16z M104,16h48v80h-48V16z M88,64v40c0,4.418,3.582,8,8,8h64
		c4.418,0,8-3.582,8-8V64h144v40c0,4.418,3.582,8,8,8h64c4.418,0,8-3.582,8-8V64h48v80H40V64H88z M40,464V160h400v304H40z"/>
	
		<linearGradient id="SVGID_2_" gradientUnits="userSpaceOnUse" x1="-26.875" y1="556.883" x2="-26.875" y2="617.341" gradientTransform="matrix(8 0 0 -8 455 4941)">
		<stop  offset="0" style="stop-color:#006DF0"/>
		<stop  offset="1" style="stop-color:#00E7F0"/>
	</linearGradient>
	<path style="fill:url(#SVGID_2_);" d="M384,208H96c-4.418,0-8,3.582-8,8v192c0,4.418,3.582,8,8,8h288c4.418,0,8-3.582,8-8V216
		C392,211.582,388.418,208,384,208z M104,288h56v48h-56V288z M176,288h56v48h-56V288z M232,272h-56v-48h56V272z M248,224h56v48h-56
		V224z M232,352v48h-56v-48H232z M248,352h56v48h-56V352z M248,336v-48h56v48H248z M320,288h56v48h-56V288z M376,272h-56v-48h56V272
		z M160,224v48h-56v-48H160z M104,352h56v48h-56V352z M320,400v-48h56v48H320z"/>
</g>
<g>
</g>
<g>
</g>
<g>
</g>
<g>
</g>
<g>
</g>
<g>
</g>
<g>
</g>
<g>
</g>
<g>
</g>
<g>
</g>
<g>
</g>
<g>
</g>
<g>
</g>
<g>
</g>
<g>
</g>
</svg>
